M48
; DRILL file {KiCad (6.0.8-1)-1} date 2023 February 22, Wednesday 13:24:56
; FORMAT={-:-/ absolute / inch / decimal}
; #@! TF.CreationDate,2023-02-22T13:24:56+02:00
; #@! TF.GenerationSoftware,Kicad,Pcbnew,(6.0.8-1)-1
; #@! TF.FileFunction,NonPlated,1,2,NPTH
FMAT,2
INCH
; #@! TA.AperFunction,NonPlated,NPTH,ComponentDrill
T1C0.0354
; #@! TA.AperFunction,NonPlated,NPTH,ComponentDrill
T2C0.0709
; #@! TA.AperFunction,NonPlated,NPTH,ComponentDrill
T3C0.1929
%
G90
G05
T1
X5.1919Y0.29
X5.2184Y0.405
T2
X1.0283Y-1.4471
X1.1965Y-0.7182
X1.3648Y0.0106
X1.4502Y-1.5445
X1.6185Y-0.8156
X1.7868Y-0.0868
X1.796Y-1.4471
X1.9642Y-0.7182
X2.1325Y0.0106
X2.2179Y-1.5445
X2.3862Y-0.8156
X2.5545Y-0.0868
X2.5637Y-1.4471
X2.732Y-0.7182
X2.9002Y0.0106
X2.9857Y-1.5445
X3.1539Y-0.8156
X3.3222Y-0.0868
X3.3314Y-1.4471
X3.4997Y-0.7182
X3.5627Y-2.5719
X3.6679Y0.0106
X3.7534Y-1.5445
X3.9216Y-0.8156
X3.9957Y-2.5719
X4.0214Y-1.7836
X4.0899Y-0.0868
X4.1897Y-1.0548
X4.3388Y-2.8422
X4.3579Y-0.3259
X4.4434Y-1.881
X4.6116Y-1.1522
X4.7114Y-2.1202
X4.7607Y-2.9397
X4.7799Y-0.4233
X4.8797Y-1.3913
X5.048Y-0.6624
X5.1334Y-2.2176
X5.3017Y-1.4887
X5.4699Y-0.7599
X5.5298Y-3.0043
X5.9629Y-3.0043
X6.0228Y-0.7599
X6.191Y-1.4887
X6.3593Y-2.2176
X6.4447Y-0.6624
X6.613Y-1.3913
X6.7128Y-0.4233
X6.732Y-2.9397
X6.7813Y-2.1202
X6.8811Y-1.1522
X7.0493Y-1.881
X7.1348Y-0.3259
X7.1539Y-2.8422
X7.303Y-1.0548
X7.4028Y-0.0868
X7.4713Y-1.7836
X7.497Y-2.5719
X7.5711Y-0.8156
X7.7393Y-1.5445
X7.8248Y0.0106
X7.93Y-2.5719
X7.993Y-0.7182
X8.1613Y-1.4471
X8.1705Y-0.0868
X8.3388Y-0.8156
X8.507Y-1.5445
X8.5925Y0.0106
X8.7607Y-0.7182
X8.929Y-1.4471
X8.9382Y-0.0868
X9.1065Y-0.8156
X9.2748Y-1.5445
X9.3602Y0.0106
X9.5285Y-0.7182
X9.6967Y-1.4471
X9.7059Y-0.0868
X9.8742Y-0.8156
X10.0425Y-1.5445
X10.1279Y0.0106
X10.2962Y-0.7182
X10.4644Y-1.4471
T3
X1.2392Y-1.4958
X1.4075Y-0.7669
X1.5758Y-0.0381
X2.007Y-1.4958
X2.1752Y-0.7669
X2.3435Y-0.0381
X2.7747Y-1.4958
X2.9429Y-0.7669
X3.1112Y-0.0381
X3.5424Y-1.4958
X3.7106Y-0.7669
X3.7792Y-2.5719
X3.8789Y-0.0381
X4.2324Y-1.8323
X4.4007Y-1.1035
X4.5498Y-2.8909
X4.5689Y-0.3746
X4.9224Y-2.1689
X5.0907Y-1.44
X5.2589Y-0.7111
X5.7463Y-3.0043
X6.2338Y-0.7111
X6.402Y-1.44
X6.5703Y-2.1689
X6.9238Y-0.3746
X6.9429Y-2.8909
X7.092Y-1.1035
X7.2603Y-1.8323
X7.6138Y-0.0381
X7.7135Y-2.5719
X7.7821Y-0.7669
X7.9503Y-1.4958
X8.3815Y-0.0381
X8.5498Y-0.7669
X8.718Y-1.4958
X9.1492Y-0.0381
X9.3175Y-0.7669
X9.4857Y-1.4958
X9.9169Y-0.0381
X10.0852Y-0.7669
X10.2534Y-1.4958
T0
M30
