G04 #@! TF.GenerationSoftware,KiCad,Pcbnew,(6.0.8-1)-1*
G04 #@! TF.CreationDate,2023-02-22T13:24:54+02:00*
G04 #@! TF.ProjectId,r41l2,7234316c-322e-46b6-9963-61645f706362,rev?*
G04 #@! TF.SameCoordinates,Original*
G04 #@! TF.FileFunction,Copper,L2,Bot*
G04 #@! TF.FilePolarity,Positive*
%FSLAX46Y46*%
G04 Gerber Fmt 4.6, Leading zero omitted, Abs format (unit mm)*
G04 Created by KiCad (PCBNEW (6.0.8-1)-1) date 2023-02-22 13:24:54*
%MOMM*%
%LPD*%
G01*
G04 APERTURE LIST*
G04 Aperture macros list*
%AMHorizOval*
0 Thick line with rounded ends*
0 $1 width*
0 $2 $3 position (X,Y) of the first rounded end (center of the circle)*
0 $4 $5 position (X,Y) of the second rounded end (center of the circle)*
0 Add line between two ends*
20,1,$1,$2,$3,$4,$5,0*
0 Add two circle primitives to create the rounded ends*
1,1,$1,$2,$3*
1,1,$1,$4,$5*%
%AMRotRect*
0 Rectangle, with rotation*
0 The origin of the aperture is its center*
0 $1 length*
0 $2 width*
0 $3 Rotation angle, in degrees counterclockwise*
0 Add horizontal line*
21,1,$1,$2,0,0,$3*%
G04 Aperture macros list end*
G04 #@! TA.AperFunction,ComponentPad*
%ADD10R,1.300000X1.700000*%
G04 #@! TD*
G04 #@! TA.AperFunction,ComponentPad*
%ADD11C,2.500000*%
G04 #@! TD*
G04 #@! TA.AperFunction,ComponentPad*
%ADD12O,2.000000X1.500000*%
G04 #@! TD*
G04 #@! TA.AperFunction,ComponentPad*
%ADD13C,2.200000*%
G04 #@! TD*
G04 #@! TA.AperFunction,ComponentPad*
%ADD14C,1.524000*%
G04 #@! TD*
G04 #@! TA.AperFunction,ComponentPad*
%ADD15RotRect,1.524000X1.524000X347.000000*%
G04 #@! TD*
G04 #@! TA.AperFunction,ComponentPad*
%ADD16HorizOval,1.500000X0.243593X-0.056238X-0.243593X0.056238X0*%
G04 #@! TD*
G04 #@! TA.AperFunction,ComponentPad*
%ADD17RotRect,1.300000X1.700000X167.000000*%
G04 #@! TD*
G04 #@! TA.AperFunction,ComponentPad*
%ADD18RotRect,1.300000X1.700000X193.000000*%
G04 #@! TD*
G04 #@! TA.AperFunction,ComponentPad*
%ADD19HorizOval,1.500000X0.243593X0.056238X-0.243593X-0.056238X0*%
G04 #@! TD*
G04 #@! TA.AperFunction,ComponentPad*
%ADD20C,2.000000*%
G04 #@! TD*
G04 #@! TA.AperFunction,SMDPad,CuDef*
%ADD21RotRect,0.700000X1.500000X77.000000*%
G04 #@! TD*
G04 #@! TA.AperFunction,SMDPad,CuDef*
%ADD22RotRect,1.000000X0.800000X77.000000*%
G04 #@! TD*
G04 #@! TA.AperFunction,ViaPad*
%ADD23C,0.800000*%
G04 #@! TD*
G04 #@! TA.AperFunction,Conductor*
%ADD24C,0.250000*%
G04 #@! TD*
G04 APERTURE END LIST*
D10*
X147707283Y-71310418D03*
X144207283Y-71310418D03*
D11*
X80226390Y-37992954D03*
X167100724Y-13789101D03*
X88774530Y-966891D03*
X124813846Y-13789101D03*
X211688180Y-37992954D03*
X164957284Y-66310642D03*
X41226834Y-37992954D03*
X126957285Y-66310642D03*
X49774974Y-966891D03*
X250687736Y-37992954D03*
X242139596Y-966891D03*
X203140040Y-966891D03*
D12*
X150957285Y-70760419D03*
D13*
X140957285Y-80110419D03*
X145957285Y-82210419D03*
D10*
X197673144Y-60326672D03*
X194173144Y-60326672D03*
D12*
X200923139Y-59776673D03*
D13*
X190923139Y-69126673D03*
X195923139Y-71226673D03*
D12*
X100991426Y-59776672D03*
D13*
X90991426Y-69126672D03*
X95991426Y-71226672D03*
D10*
X97741427Y-60326673D03*
X94241427Y-60326673D03*
D14*
X129849345Y3115159D03*
D15*
X131486440Y1173118D03*
D14*
X133961340Y601742D03*
X136436240Y30367D03*
X138911140Y-541009D03*
X141386040Y-1112385D03*
X143860940Y-1683760D03*
X146335840Y-2255136D03*
X148810740Y-2826512D03*
X151285640Y-3397887D03*
X153760540Y-3969263D03*
X156235440Y-4540639D03*
X158710340Y-5112014D03*
X162138594Y9737385D03*
X159663694Y10308761D03*
X157188794Y10880137D03*
X154713894Y11451512D03*
X152238994Y12022888D03*
X149764094Y12594264D03*
X147289194Y13165639D03*
X144814294Y13737015D03*
X142339394Y14308391D03*
X139864494Y14879766D03*
X137389594Y15451142D03*
X134914694Y16022518D03*
X132591949Y14994678D03*
D16*
X135423244Y-32293200D03*
D13*
X123576251Y-39154050D03*
X127975704Y-42324982D03*
D17*
X132132824Y-32098013D03*
X128722528Y-31310685D03*
X127858752Y-50611044D03*
X124448456Y-49823716D03*
D16*
X131149174Y-50806229D03*
D13*
X119302181Y-57667079D03*
X123701634Y-60838011D03*
D16*
X139697315Y-13780171D03*
D13*
X127850322Y-20641021D03*
X132249775Y-23811953D03*
D17*
X136406895Y-13584982D03*
X132996599Y-12797654D03*
X114606534Y-23549872D03*
X111196238Y-22762544D03*
D16*
X117896962Y-23745058D03*
D13*
X106049969Y-30605908D03*
X110449422Y-33776840D03*
D17*
X110332467Y-42062908D03*
X106922171Y-41275580D03*
D16*
X113622893Y-42258094D03*
D13*
X101775900Y-49118944D03*
X106175353Y-52289876D03*
D17*
X118880605Y-5036840D03*
X115470309Y-4249512D03*
D16*
X122171032Y-5232032D03*
D13*
X110324039Y-12092882D03*
X114723492Y-15263814D03*
D16*
X96096607Y-33709953D03*
D13*
X84249614Y-40570803D03*
X88649067Y-43741735D03*
D17*
X92806181Y-33514765D03*
X89395885Y-32727437D03*
D16*
X104644748Y3316109D03*
D13*
X92797755Y-3544741D03*
X97197208Y-6715673D03*
D17*
X101354322Y3511298D03*
X97944026Y4298626D03*
D16*
X100370678Y-15196922D03*
D13*
X88523685Y-22057772D03*
X92923138Y-25228704D03*
D17*
X97080251Y-15001730D03*
X93669955Y-14214402D03*
D16*
X85144971Y3316110D03*
D13*
X73297978Y-3544740D03*
X77697431Y-6715672D03*
D17*
X81854544Y3511296D03*
X78444248Y4298624D03*
D16*
X80870896Y-15196920D03*
D13*
X69023903Y-22057770D03*
X73423356Y-25228702D03*
D17*
X77580474Y-15001733D03*
X74170178Y-14214405D03*
D16*
X76596827Y-33709951D03*
D13*
X64749834Y-40570801D03*
X69149287Y-43741733D03*
D17*
X73306404Y-33514764D03*
X69896108Y-32727436D03*
D16*
X61371121Y-15196921D03*
D13*
X49524128Y-22057771D03*
X53923581Y-25228703D03*
D17*
X58080696Y-15001733D03*
X54670400Y-14214405D03*
D16*
X65645193Y3316113D03*
D13*
X53798200Y-3544737D03*
X58197653Y-6715669D03*
D17*
X62354766Y3511297D03*
X58944470Y4298625D03*
X53806627Y-33514765D03*
X50396331Y-32727437D03*
D16*
X57097050Y-33709949D03*
D13*
X45250057Y-40570799D03*
X49649510Y-43741731D03*
D16*
X41871339Y-15196920D03*
D13*
X30024346Y-22057770D03*
X34423799Y-25228702D03*
D17*
X34306847Y-33514765D03*
X30896551Y-32727437D03*
D16*
X37597270Y-33709949D03*
D13*
X25750277Y-40570799D03*
X30149730Y-43741731D03*
D16*
X46145409Y3316108D03*
D13*
X34298416Y-3544742D03*
X38697869Y-6715674D03*
D17*
X42854989Y3511298D03*
X39444693Y4298626D03*
X118393637Y-68951933D03*
X114983341Y-68164605D03*
D16*
X121684065Y-69147121D03*
D13*
X109837072Y-76007971D03*
X114236525Y-79178903D03*
D18*
X176836986Y-68186362D03*
X173426690Y-68973690D03*
D19*
X179974207Y-66897609D03*
D13*
X172333799Y-78257480D03*
X177678046Y-79178901D03*
D17*
X38580918Y-15001733D03*
X35170622Y-14214405D03*
D19*
X264060997Y-31460446D03*
D13*
X256420589Y-42820317D03*
X261764836Y-43741738D03*
D18*
X261018018Y-32727437D03*
X257607722Y-33514765D03*
D19*
X236013079Y5565622D03*
D13*
X228372671Y-5794249D03*
X233716918Y-6715670D03*
D18*
X232970102Y4298626D03*
X229559806Y3511298D03*
D19*
X244561220Y-31460444D03*
D13*
X236920812Y-42820315D03*
X242265059Y-43741736D03*
D18*
X241518240Y-32727436D03*
X238107944Y-33514764D03*
D19*
X240287150Y-12947412D03*
D13*
X232646742Y-24307283D03*
X237990989Y-25228704D03*
D18*
X237244169Y-14214403D03*
X233833873Y-15001731D03*
D19*
X255512857Y5565619D03*
D13*
X247872449Y-5794252D03*
X253216696Y-6715673D03*
D18*
X252469878Y4298625D03*
X249059582Y3511297D03*
D19*
X259786928Y-12947408D03*
D13*
X252146520Y-24307279D03*
X257490767Y-25228700D03*
D18*
X256743947Y-14214405D03*
X253333651Y-15001733D03*
D19*
X220787371Y-12947411D03*
D13*
X213146963Y-24307282D03*
X218491210Y-25228703D03*
D18*
X217744392Y-14214407D03*
X214334096Y-15001735D03*
D19*
X225061442Y-31460442D03*
D13*
X217421034Y-42820313D03*
X222765281Y-43741734D03*
D18*
X222018461Y-32727436D03*
X218608165Y-33514764D03*
X213470322Y4298624D03*
X210060026Y3511296D03*
D19*
X216513302Y5565620D03*
D13*
X208872894Y-5794251D03*
X214217141Y-6715672D03*
D19*
X197013523Y5565617D03*
D13*
X189373115Y-5794254D03*
X194717362Y-6715675D03*
D18*
X193970546Y4298628D03*
X190560250Y3511300D03*
D19*
X201287592Y-12947411D03*
D13*
X193647184Y-24307282D03*
X198991431Y-25228703D03*
D18*
X198244614Y-14214403D03*
X194834318Y-15001731D03*
D19*
X205561663Y-31460444D03*
D13*
X197921255Y-42820315D03*
X203265502Y-43741736D03*
D18*
X202518683Y-32727437D03*
X199108387Y-33514765D03*
X184992401Y-41275577D03*
X181582105Y-42062905D03*
D19*
X188035377Y-40008582D03*
D13*
X180394969Y-51368453D03*
X185739216Y-52289874D03*
D19*
X179487237Y-2982521D03*
D13*
X171846829Y-14342392D03*
X177191076Y-15263813D03*
D18*
X176444258Y-4249515D03*
X173033962Y-5036843D03*
X180718329Y-22762544D03*
X177308033Y-23549872D03*
D19*
X183761308Y-21495548D03*
D13*
X176120900Y-32855419D03*
X181465147Y-33776840D03*
D18*
X163192045Y-31310687D03*
X159781749Y-32098015D03*
D19*
X166235026Y-30043691D03*
D13*
X158594618Y-41403562D03*
X163938865Y-42324983D03*
D18*
X167466117Y-49823716D03*
X164055821Y-50611044D03*
D19*
X170509095Y-48556724D03*
D13*
X162868687Y-59916595D03*
X168212934Y-60838016D03*
D18*
X158917976Y-12797654D03*
X155507680Y-13584982D03*
D19*
X161960954Y-11530657D03*
D13*
X154320546Y-22890528D03*
X159664793Y-23811949D03*
D20*
X174900000Y5000000D03*
X168566594Y6462182D03*
D14*
X150813654Y-34630174D03*
X148273654Y-34630174D03*
X145733654Y-34630174D03*
X143193654Y-34630174D03*
X140653654Y-34630174D03*
D21*
X133409615Y6240372D03*
X134084468Y9163482D03*
X134421894Y10625037D03*
D22*
X130317729Y5517364D03*
X132461343Y5022472D03*
X134103485Y12135374D03*
X131959871Y12630266D03*
D23*
X147973654Y5669826D03*
X154864471Y-20801119D03*
X145976892Y-6802444D03*
X153739090Y-9258434D03*
X155088170Y-8433825D03*
X146726310Y-8001763D03*
X156437248Y-7609213D03*
X157786329Y-6784603D03*
X154173654Y3669826D03*
X147973654Y2569826D03*
X124673654Y-27130174D03*
X132973654Y-1230174D03*
X161421575Y-6971643D03*
X165283652Y-28145550D03*
X169557722Y-46658578D03*
X168673654Y-21230174D03*
X164873654Y-830174D03*
X123973654Y-22930174D03*
X137773654Y-3830174D03*
X137873654Y-29230174D03*
X157973654Y3469826D03*
D24*
X154373654Y5369826D02*
X147973654Y5669826D01*
X157973654Y3469826D02*
X154373654Y5369826D01*
X154864471Y-20801119D02*
X152390010Y-10083048D01*
X30149728Y-43741732D02*
X34210408Y-41204340D01*
X132143030Y-60055371D02*
X145415139Y-2567534D01*
X96207776Y-71276619D02*
X113618708Y-60397061D01*
X38484251Y-22692287D02*
X41235261Y-10776350D01*
X167688943Y-44657032D02*
X163935826Y-42311826D01*
X34210408Y-41204340D02*
X36983007Y-29194899D01*
X163935826Y-42311826D02*
X166281033Y-38558706D01*
X168212935Y-60838014D02*
X170558143Y-57084898D01*
X145415139Y-2567534D02*
X146014802Y-2192826D01*
X152390010Y-10083048D02*
X147592727Y-7085372D01*
X166281033Y-38558706D02*
X163414873Y-26144000D01*
X147592727Y-7085372D02*
X146467969Y-2213521D01*
X36983007Y-29194899D02*
X34482324Y-25192972D01*
X38734582Y-6774424D02*
X38756395Y-6679940D01*
X126746083Y-63427755D02*
X132143030Y-60055371D01*
X95991425Y-71226672D02*
X96207776Y-71276619D01*
X41235261Y-10776350D02*
X38734582Y-6774424D01*
X163414873Y-26144000D02*
X159661755Y-23798793D01*
X170558143Y-57084898D02*
X167688943Y-44657032D01*
X113618708Y-60397061D02*
X126746083Y-63427755D01*
X34482324Y-25192972D02*
X38484251Y-22692287D01*
X153739090Y-9258434D02*
X149541465Y-6635468D01*
X129995473Y-71580156D02*
X144777570Y-7551860D01*
X114236523Y-79178905D02*
X116864123Y-79785534D01*
X57597256Y-23256233D02*
X60482557Y-10758625D01*
X116864123Y-79785534D02*
X129995473Y-71580156D01*
X185710648Y-52166121D02*
X188055855Y-48413005D01*
X188055855Y-48413005D02*
X185302170Y-36485484D01*
X56208486Y-29271656D02*
X53895159Y-25569560D01*
X53410355Y-41391696D02*
X56208486Y-29271656D01*
X60482557Y-10758625D02*
X58169230Y-7056527D01*
X180944194Y-17609020D02*
X183781785Y-29899972D01*
X53895159Y-25569560D02*
X57597256Y-23256233D01*
X144777570Y-7551860D02*
X145976892Y-6802444D01*
X177191076Y-15263808D02*
X180944194Y-17609020D01*
X49649509Y-43741733D02*
X53410355Y-41391696D01*
X185302170Y-36485484D02*
X181549052Y-34140276D01*
X183781785Y-29899972D02*
X181436576Y-33653088D01*
X149541465Y-6635468D02*
X148641661Y-2737988D01*
X198528850Y-9313715D02*
X194775737Y-6968508D01*
X80007867Y-10648031D02*
X77694541Y-6945934D01*
X144927329Y-9125893D02*
X146726310Y-8001763D01*
X152089867Y-6560276D02*
X151415013Y-3637165D01*
X201282537Y-21241238D02*
X198528850Y-9313715D01*
X202690446Y-27339562D02*
X198937327Y-24994355D01*
X203265500Y-43741736D02*
X205610710Y-39988617D01*
X69149285Y-43741736D02*
X72910134Y-41391695D01*
X73532946Y-24971779D02*
X77235044Y-22658452D01*
X72910134Y-41391695D02*
X75846275Y-28673877D01*
X77235044Y-22658452D02*
X80007867Y-10648031D01*
X155088170Y-8433825D02*
X152089867Y-6560276D01*
X75846275Y-28673877D02*
X73532946Y-24971779D01*
X198937327Y-24994355D02*
X201282537Y-21241238D01*
X132884421Y-61289460D02*
X144927329Y-9125893D01*
X205610710Y-39988617D02*
X202690446Y-27339562D01*
X145957286Y-82210417D02*
X132884421Y-61289460D01*
X218491212Y-25228703D02*
X220836418Y-21475585D01*
X156437248Y-7609213D02*
X154038607Y-6110376D01*
X154038607Y-6110376D02*
X153588706Y-4161635D01*
X99533178Y-10537434D02*
X97219853Y-6835339D01*
X217941686Y-8937124D02*
X214188569Y-6591915D01*
X222765279Y-43741736D02*
X225110488Y-39988620D01*
X92409909Y-41391700D02*
X95259109Y-29050467D01*
X222215758Y-27450159D02*
X218462639Y-25104950D01*
X220836418Y-21475585D02*
X217941686Y-8937124D01*
X92945782Y-25348371D02*
X96647879Y-23035044D01*
X96647879Y-23035044D02*
X99533178Y-10537434D01*
X225110488Y-39988620D02*
X222215758Y-27450159D01*
X95259109Y-29050467D02*
X92945782Y-25348371D01*
X88649067Y-43741733D02*
X92409909Y-41391700D01*
X237466997Y-9047719D02*
X233713883Y-6702515D01*
X109773314Y-50041622D02*
X112697680Y-37374806D01*
X240333158Y-21462427D02*
X237466997Y-9047719D01*
X106175353Y-52289875D02*
X109773314Y-50041622D01*
X110449422Y-33776841D02*
X114047385Y-31528585D01*
X237987951Y-25215545D02*
X240333158Y-21462427D01*
X241741069Y-27560752D02*
X237987951Y-25215545D01*
X116971749Y-18861777D02*
X114723492Y-15263814D01*
X112697680Y-37374806D02*
X110449422Y-33776841D01*
X242265059Y-43741736D02*
X244610265Y-39988615D01*
X244610265Y-39988615D02*
X241741069Y-27560752D01*
X114047385Y-31528585D02*
X116971749Y-18861777D01*
X157786329Y-6784603D02*
X156587008Y-6035181D01*
X156587008Y-6035181D02*
X156249581Y-4573628D01*
X130289663Y-32302127D02*
X132249773Y-23811953D01*
X261764836Y-43741733D02*
X264110044Y-39988616D01*
X261266378Y-27671348D02*
X257513261Y-25326138D01*
X131573671Y-40076724D02*
X132537921Y-35900092D01*
X127975704Y-42324983D02*
X131573671Y-40076724D01*
X126015594Y-50815159D02*
X127975704Y-42324983D01*
X128263851Y-54413123D02*
X126015594Y-50815159D01*
X123701636Y-60838014D02*
X127299599Y-58589754D01*
X264110044Y-39988616D02*
X261266378Y-27671348D01*
X132537921Y-35900092D02*
X130289663Y-32302127D01*
X259858469Y-21573022D02*
X256992309Y-9158319D01*
X256992309Y-9158319D02*
X253239191Y-6813110D01*
X257513261Y-25326138D02*
X259858469Y-21573022D01*
X127299599Y-58589754D02*
X128263851Y-54413123D01*
X134177777Y9067531D02*
X137350442Y3990208D01*
X137350442Y3990208D02*
X136436240Y30367D01*
X137389594Y15451144D02*
X136208825Y10336673D01*
X154173654Y3669826D02*
X147973654Y2569826D01*
X138911140Y-541011D02*
X139253966Y943930D01*
X122786229Y-23142749D02*
X132973654Y-1230174D01*
X137731149Y3380952D02*
X137350442Y3990208D01*
X124673654Y-27130174D02*
X122786229Y-23142749D01*
X139253966Y943930D02*
X137731149Y3380952D01*
X136208825Y10336673D02*
X134177777Y9067531D01*
X155507679Y-13584982D02*
X154570905Y-15084135D01*
X155951318Y-21063354D02*
X154452478Y-23461996D01*
X154570905Y-15084135D02*
X155951318Y-21063354D01*
X161421575Y-6971643D02*
X161646526Y-7946011D01*
X158759444Y6782015D02*
X161796283Y-6371979D01*
X193970543Y4298626D02*
X192073828Y5483827D01*
X180939186Y2913192D02*
X176636786Y-3972087D01*
X161796283Y-6371979D02*
X161421575Y-6971643D01*
X152553688Y10659803D02*
X158759444Y6782015D01*
X192073828Y5483827D02*
X180939186Y2913192D01*
X152238993Y12022888D02*
X152553688Y10659803D01*
X161646526Y-7946011D02*
X158648849Y-12743296D01*
X173339592Y-11917431D02*
X171840755Y-14316073D01*
X173033963Y-5036843D02*
X172097190Y-6535993D01*
X172097190Y-6535993D02*
X173339592Y-11917431D01*
X190560249Y3511296D02*
X189623474Y2012146D01*
X189623474Y2012146D02*
X190952819Y-3745881D01*
X190952819Y-3745881D02*
X189453980Y-6144524D01*
X210365656Y-3369293D02*
X208866818Y-5767936D01*
X210060026Y3511297D02*
X209123252Y2012147D01*
X209123252Y2012147D02*
X210365656Y-3369293D01*
X228623030Y2012145D02*
X229778490Y-2992702D01*
X229559804Y3511298D02*
X228623030Y2012145D01*
X229778490Y-2992702D02*
X228279653Y-5391344D01*
X249059583Y3511295D02*
X248122809Y2012143D01*
X248122809Y2012143D02*
X249416277Y-3590484D01*
X249416277Y-3590484D02*
X247917440Y-5989125D01*
X158844976Y-33597166D02*
X160000439Y-38602014D01*
X160000439Y-38602014D02*
X158501598Y-41000656D01*
X159781750Y-32098012D02*
X158844976Y-33597166D01*
X164239484Y-27493081D02*
X165283652Y-28145550D01*
X160387799Y-10809598D02*
X164239484Y-27493081D01*
X159134155Y7381676D02*
X162539104Y-7366794D01*
X155066711Y9923296D02*
X159134155Y7381676D01*
X154713894Y11451516D02*
X155066711Y9923296D01*
X162539104Y-7366794D02*
X160387799Y-10809598D01*
X175621840Y-26248346D02*
X176864243Y-31629783D01*
X176864243Y-31629783D02*
X176114824Y-32829104D01*
X177308033Y-23549872D02*
X175621840Y-26248346D01*
X193897545Y-16500887D02*
X195226889Y-22258913D01*
X195226889Y-22258913D02*
X193728053Y-24657554D01*
X194834320Y-15001735D02*
X193897545Y-16500887D01*
X214334097Y-15001735D02*
X213397324Y-16500889D01*
X213397324Y-16500889D02*
X214639725Y-21882320D01*
X214639725Y-21882320D02*
X213140887Y-24280964D01*
X233833874Y-15001731D02*
X232897100Y-16500883D01*
X232897100Y-16500883D02*
X234052560Y-21505732D01*
X234052560Y-21505732D02*
X232553721Y-23904376D01*
X253333653Y-15001736D02*
X252396878Y-16500888D01*
X252396878Y-16500888D02*
X253690347Y-22103515D01*
X253690347Y-22103515D02*
X252191513Y-24502156D01*
X164055819Y-50611046D02*
X163119045Y-52110198D01*
X164499456Y-58089413D02*
X163000619Y-60488056D01*
X163119045Y-52110198D02*
X164499456Y-58089413D01*
X159508864Y7981337D02*
X171431269Y-43660276D01*
X171431269Y-43660276D02*
X169557722Y-46658578D01*
X157579733Y9186789D02*
X159508864Y7981337D01*
X157188794Y10880137D02*
X157579733Y9186789D01*
X179895911Y-44761377D02*
X181138314Y-50142817D01*
X181582103Y-42062904D02*
X179895911Y-44761377D01*
X181138314Y-50142817D02*
X180388897Y-51342136D01*
X199108389Y-33514766D02*
X198171614Y-35013914D01*
X198171614Y-35013914D02*
X199500961Y-40771946D01*
X199500961Y-40771946D02*
X198002122Y-43170587D01*
X217671392Y-35013917D02*
X218913797Y-40395353D01*
X218608166Y-33514763D02*
X217671392Y-35013917D01*
X218913797Y-40395353D02*
X217414958Y-42793997D01*
X238107944Y-33514766D02*
X237171169Y-35013918D01*
X237171169Y-35013918D02*
X238326631Y-40018765D01*
X238326631Y-40018765D02*
X236827792Y-42417404D01*
X257964417Y-40616545D02*
X256465580Y-43015186D01*
X257607722Y-33514764D02*
X256670948Y-35013914D01*
X256670948Y-35013914D02*
X257964417Y-40616545D01*
X177317279Y-66932683D02*
X176567861Y-68132005D01*
X159663694Y10308760D02*
X159532981Y10099580D01*
X159532981Y10099580D02*
X177317279Y-66932683D01*
X34298416Y-3544742D02*
X35617668Y-2720381D01*
X36944654Y3027425D02*
X39282116Y4488033D01*
X35617668Y-2720381D02*
X36944654Y3027425D01*
X118880604Y-5036843D02*
X117756477Y-3237858D01*
X143208765Y12733770D02*
X137254946Y-13055060D01*
X137254946Y-13055060D02*
X136406893Y-13584983D01*
X103517515Y49464D02*
X101354321Y3511297D01*
X117756477Y-3237858D02*
X103517515Y49464D01*
X144814296Y13737016D02*
X143208765Y12733770D01*
X55117450Y-2720378D02*
X56357493Y2650839D01*
X56357493Y2650839D02*
X58694952Y4111443D01*
X53798198Y-3544737D02*
X55117450Y-2720378D01*
X73297975Y-3544741D02*
X74617228Y-2720379D01*
X75882805Y2761433D02*
X78220262Y4222042D01*
X74617228Y-2720379D02*
X75882805Y2761433D01*
X92797754Y-3544739D02*
X94117006Y-2720378D01*
X95365485Y2687374D02*
X97944027Y4298625D01*
X94117006Y-2720378D02*
X95365485Y2687374D01*
X111643293Y-11268521D02*
X112891770Y-5860762D01*
X112891770Y-5860762D02*
X115470309Y-4249513D01*
X110324038Y-12092881D02*
X111643293Y-11268521D01*
X127850323Y-20641023D02*
X129706527Y-19481136D01*
X130955006Y-14073381D02*
X132996596Y-12797655D01*
X129706527Y-19481136D02*
X130955006Y-14073381D01*
X30024347Y-22057769D02*
X31343598Y-21233410D01*
X31343598Y-21233410D02*
X32558110Y-15972791D01*
X32558110Y-15972791D02*
X34895569Y-14512184D01*
X133989024Y-30938130D02*
X132132822Y-32098014D01*
X138161468Y-12865283D02*
X133989024Y-30938130D01*
X140364379Y-11488749D02*
X138161468Y-12865283D01*
X145848448Y12265361D02*
X140364379Y-11488749D01*
X147289195Y13165639D02*
X145848448Y12265361D01*
X50843380Y-21233409D02*
X52195899Y-15375006D01*
X49524129Y-22057771D02*
X50843380Y-21233409D01*
X52195899Y-15375006D02*
X53933696Y-14289111D01*
X53933696Y-14289111D02*
X54420881Y-14401589D01*
X70343155Y-21233410D02*
X71608733Y-15751599D01*
X69023903Y-22057770D02*
X70343155Y-21233410D01*
X71608733Y-15751599D02*
X73946193Y-14290992D01*
X88523685Y-22057772D02*
X89842936Y-21233411D01*
X89842936Y-21233411D02*
X91091414Y-15825654D01*
X91091414Y-15825654D02*
X93669955Y-14214404D01*
X108617699Y-24373795D02*
X111196239Y-22762547D01*
X106049968Y-30605909D02*
X107369221Y-29781550D01*
X107369221Y-29781550D02*
X108617699Y-24373795D01*
X126143981Y-32921939D02*
X128722527Y-31310684D01*
X123576250Y-39154051D02*
X124895505Y-38329690D01*
X124895505Y-38329690D02*
X126143981Y-32921939D01*
X27069529Y-39746440D02*
X28396513Y-33998638D01*
X28396513Y-33998638D02*
X30733975Y-32538029D01*
X25750277Y-40570800D02*
X27069529Y-39746440D01*
X148158566Y11591017D02*
X134799357Y-46274072D01*
X134799357Y-46274072D02*
X127858750Y-50611046D01*
X149764097Y12594265D02*
X148158566Y11591017D01*
X45250057Y-40570798D02*
X46569309Y-39746440D01*
X47809350Y-34375227D02*
X50146811Y-32914620D01*
X46569309Y-39746440D02*
X47809350Y-34375227D01*
X64749833Y-40570802D02*
X66069085Y-39746442D01*
X66069085Y-39746442D02*
X67334662Y-34264632D01*
X67334662Y-34264632D02*
X69672121Y-32804023D01*
X86817344Y-34338688D02*
X89395887Y-32727436D01*
X85568866Y-39746444D02*
X86817344Y-34338688D01*
X84249612Y-40570804D02*
X85568866Y-39746444D01*
X101775901Y-49118945D02*
X103095152Y-48294584D01*
X104343630Y-42886830D02*
X106922172Y-41275576D01*
X103095152Y-48294584D02*
X104343630Y-42886830D01*
X119302181Y-57667079D02*
X120621433Y-56842719D01*
X120621433Y-56842719D02*
X121869911Y-51434968D01*
X121869911Y-51434968D02*
X124448456Y-49823714D01*
X90991427Y-69126673D02*
X92799943Y-61293115D01*
X92799943Y-61293115D02*
X94066776Y-60501512D01*
X109837071Y-76007972D02*
X111156322Y-75183610D01*
X111156322Y-75183610D02*
X112487084Y-69419449D01*
X112487084Y-69419449D02*
X114940540Y-67886359D01*
X172731020Y-70086998D02*
X174111433Y-76066215D01*
X174111433Y-76066215D02*
X172371490Y-78850701D01*
X173426692Y-68973690D02*
X172731020Y-70086998D01*
X190923141Y-69126673D02*
X192707080Y-61399587D01*
X192707080Y-61399587D02*
X194129256Y-60510912D01*
X133162053Y3914448D02*
X131334285Y2772334D01*
X131334285Y2772334D02*
X129849345Y3115160D01*
X133620952Y5902165D02*
X133162053Y3914448D01*
X133409615Y6240372D02*
X133620952Y5902165D01*
X134800419Y15527538D02*
X134914695Y16022519D01*
X132591949Y14994681D02*
X133581908Y14766129D01*
X133581908Y14766129D02*
X134800419Y15527538D01*
X168673654Y-21230174D02*
X169173654Y-20730174D01*
X169173654Y-5130174D02*
X164873654Y-830174D01*
X169173654Y-20730174D02*
X169173654Y-5130174D01*
X133873654Y-3130174D02*
X137773654Y-3830174D01*
X123973654Y-22930174D02*
X133051470Y-3407990D01*
X133873654Y-3130174D02*
X133051470Y-3407990D01*
X141873654Y-12030174D02*
X143973654Y-3030174D01*
X137873654Y-29230174D02*
X141873654Y-12030174D01*
X143973654Y-3030174D02*
X143860940Y-1683760D01*
M02*
