M48
; DRILL file {KiCad (6.0.8-1)-1} date 2023 February 22, Wednesday 13:24:56
; FORMAT={-:-/ absolute / inch / decimal}
; #@! TF.CreationDate,2023-02-22T13:24:56+02:00
; #@! TF.GenerationSoftware,Kicad,Pcbnew,(6.0.8-1)-1
; #@! TF.FileFunction,Plated,1,2,PTH
FMAT,2
INCH
; #@! TA.AperFunction,Plated,PTH,ComponentDrill
T1C0.0118
; #@! TA.AperFunction,Plated,PTH,ViaDrill
T2C0.0157
; #@! TA.AperFunction,Plated,PTH,ComponentDrill
T3C0.0157
; #@! TA.AperFunction,Plated,PTH,ComponentDrill
T4C0.0320
; #@! TA.AperFunction,Plated,PTH,ComponentDrill
T5C0.0350
; #@! TA.AperFunction,Plated,PTH,ComponentDrill
T6C0.0472
; #@! TA.AperFunction,Plated,PTH,ComponentDrill
T7C0.0512
; #@! TA.AperFunction,Plated,PTH,ComponentDrill
T8C0.0591
%
G90
G05
T2
X4.8809Y-0.9028
X4.9084Y-1.0681
X5.2352Y-0.0484
X5.4242Y-0.1508
X5.4281Y-1.1508
X5.7471Y-0.2678
X5.7766Y-0.315
X5.8257Y0.2232
X5.8257Y0.1012
X6.0527Y-0.3645
X6.0698Y0.1445
X6.097Y-0.8189
X6.1058Y-0.332
X6.1589Y-0.2996
X6.2121Y-0.2671
X6.2194Y0.1366
X6.3552Y-0.2745
X6.4911Y-0.0327
X6.5072Y-1.1081
X6.6407Y-0.8358
X6.6755Y-1.837
T3
X1.2164Y-1.2885
X1.3507Y-1.3195
X1.3847Y-0.5596
X1.5189Y-0.5906
X1.5529Y0.1692
X1.6872Y0.1382
X1.9841Y-1.2885
X2.1184Y-1.3195
X2.1524Y-0.5596
X2.2866Y-0.5906
X2.3206Y0.1692
X2.4549Y0.1382
X2.7518Y-1.2885
X2.8861Y-1.3195
X2.9201Y-0.5596
X3.0543Y-0.5906
X3.0884Y0.1692
X3.2226Y0.1382
X3.5195Y-1.2885
X3.6538Y-1.3195
X3.6878Y-0.5596
X3.7103Y-2.3751
X3.8221Y-0.5906
X3.8481Y-2.3751
X3.8561Y0.1692
X3.9903Y0.1382
X4.2095Y-1.625
X4.3438Y-1.656
X4.3778Y-0.8962
X4.5121Y-0.9272
X4.5269Y-2.6836
X4.5461Y-0.1673
X4.6612Y-2.7146
X4.6803Y-0.1983
X4.8995Y-1.9616
X5.0338Y-1.9926
X5.0678Y-1.2327
X5.2021Y-1.2637
X5.2361Y-0.5038
X5.3704Y-0.5348
X5.6775Y-2.8075
X5.8152Y-2.8075
X6.1223Y-0.5348
X6.2566Y-0.5038
X6.2906Y-1.2637
X6.4249Y-1.2327
X6.4589Y-1.9926
X6.5932Y-1.9616
X6.8124Y-0.1983
X6.8278Y-2.7155
X6.9466Y-0.1673
X6.9621Y-2.6845
X6.9806Y-0.9272
X7.1149Y-0.8962
X7.1489Y-1.656
X7.2832Y-1.625
X7.5024Y0.1382
X7.6366Y0.1692
X7.6446Y-2.3751
X7.6706Y-0.5906
X7.7824Y-2.3751
X7.8049Y-0.5596
X7.8389Y-1.3195
X7.9732Y-1.2885
X8.2701Y0.1382
X8.4043Y0.1692
X8.4384Y-0.5906
X8.5726Y-0.5596
X8.6066Y-1.3195
X8.7409Y-1.2885
X9.0378Y0.1382
X9.1721Y0.1692
X9.2061Y-0.5906
X9.3403Y-0.5596
X9.3743Y-1.3195
X9.5086Y-1.2885
X9.8055Y0.1382
X9.9398Y0.1692
X9.9738Y-0.5906
X10.108Y-0.5596
X10.142Y-1.3195
X10.2763Y-1.2885
T4
X5.5375Y-1.3634
X5.6375Y-1.3634
X5.7375Y-1.3634
X5.8375Y-1.3634
X5.9375Y-1.3634
T5
X5.1122Y0.1226
X5.1766Y0.0462
X5.2202Y0.5903
X5.2741Y0.0237
X5.3116Y0.6308
X5.3715Y0.0012
X5.409Y0.6083
X5.4689Y-0.0213
X5.5065Y0.5858
X5.5664Y-0.0438
X5.6039Y0.5633
X5.6638Y-0.0663
X5.7014Y0.5408
X5.7613Y-0.0888
X5.7988Y0.5183
X5.8587Y-0.1113
X5.8962Y0.4958
X5.9561Y-0.1338
X5.9937Y0.4733
X6.0536Y-0.1563
X6.0911Y0.4508
X6.151Y-0.1788
X6.1885Y0.4284
X6.2484Y-0.2013
X6.286Y0.4059
X6.3834Y0.3834
T6
X1.0138Y-1.5973
X1.1821Y-0.8684
X1.187Y-1.7221
X1.3503Y-0.1396
X1.3553Y-0.9933
X1.5235Y-0.2644
X1.7815Y-1.5973
X1.9498Y-0.8684
X1.9547Y-1.7221
X2.118Y-0.1396
X2.123Y-0.9933
X2.2912Y-0.2644
X2.5492Y-1.5973
X2.7175Y-0.8684
X2.7224Y-1.7221
X2.8857Y-0.1396
X2.8907Y-0.9933
X3.059Y-0.2644
X3.3169Y-1.5973
X3.4852Y-0.8684
X3.4901Y-1.7221
X3.5823Y-2.7215
X3.6535Y-0.1396
X3.6584Y-0.9933
X3.7792Y-2.8042
X3.8267Y-0.2644
X4.0069Y-1.9338
X4.1752Y-1.205
X4.1801Y-2.0587
X4.3243Y-2.9924
X4.3435Y-0.4761
X4.3484Y-1.3298
X4.4975Y-3.1173
X4.5167Y-0.6009
X4.6969Y-2.2704
X4.8652Y-1.5415
X4.8701Y-2.3952
X5.0335Y-0.8126
X5.0384Y-1.6663
X5.2067Y-0.9375
X5.5495Y-3.154
X5.7463Y-3.2366
X6.0756Y-0.9012
X6.2439Y-1.6301
X6.286Y-0.9375
X6.4122Y-2.3589
X6.4543Y-1.6663
X6.6226Y-2.3952
X6.7656Y-0.5647
X6.7848Y-3.081
X6.9339Y-1.2935
X6.976Y-0.6009
X6.9952Y-3.1173
X7.1022Y-2.0224
X7.1443Y-1.3298
X7.3126Y-2.0587
X7.4556Y-0.2281
X7.5167Y-2.7215
X7.6239Y-0.957
X7.666Y-0.2644
X7.7135Y-2.8042
X7.7922Y-1.6858
X7.8343Y-0.9933
X8.0026Y-1.7221
X8.2233Y-0.2281
X8.3916Y-0.957
X8.4337Y-0.2644
X8.5599Y-1.6858
X8.602Y-0.9933
X8.7703Y-1.7221
X8.9911Y-0.2281
X9.1593Y-0.957
X9.2015Y-0.2644
X9.3276Y-1.6858
X9.3697Y-0.9933
X9.538Y-1.7221
X9.7588Y-0.2281
X9.927Y-0.957
X9.9692Y-0.2644
X10.0953Y-1.6858
X10.1374Y-0.9933
X10.3057Y-1.7221
T7
X6.6365Y0.2544
X6.8858Y0.1969
T8
X1.6231Y-1.4958
X1.9596Y-0.0381
X3.1585Y-1.4958
X3.4951Y-0.0381
X4.9139Y-0.5429
X4.9983Y-2.6107
X6.4944Y-2.6107
X6.5788Y-0.5429
X7.9976Y-0.0381
X8.3342Y-1.4958
X9.5331Y-0.0381
X9.8696Y-1.4958
T1
G00X1.4668Y-1.3241
M15
G01X1.4936Y-1.3303
M16
G05
G00X1.6351Y-0.5952
M15
G01X1.6619Y-0.6014
M16
G05
G00X1.8033Y0.1337
M15
G01X1.8302Y0.1275
M16
G05
G00X2.2345Y-1.3241
M15
G01X2.2613Y-1.3303
M16
G05
G00X2.4028Y-0.5952
M15
G01X2.4296Y-0.6014
M16
G05
G00X2.571Y0.1337
M15
G01X2.5979Y0.1275
M16
G05
G00X3.0022Y-1.3241
M15
G01X3.029Y-1.3303
M16
G05
G00X3.1705Y-0.5952
M15
G01X3.1973Y-0.6014
M16
G05
G00X3.3387Y0.1337
M15
G01X3.3656Y0.1275
M16
G05
G00X3.7699Y-1.3241
M15
G01X3.7968Y-1.3303
M16
G05
G00X3.9382Y-0.5952
M15
G01X3.965Y-0.6014
M16
G05
G00X3.9623Y-2.3534
M15
G01X3.9898Y-2.3534
M16
G05
G00X4.1064Y0.1337
M15
G01X4.1333Y0.1275
M16
G05
G00X4.4599Y-1.6606
M15
G01X4.4868Y-1.6668
M16
G05
G00X4.6282Y-0.9317
M15
G01X4.655Y-0.9379
M16
G05
G00X4.7773Y-2.7192
M15
G01X4.8041Y-2.7254
M16
G05
G00X4.7965Y-0.2029
M15
G01X4.8233Y-0.2091
M16
G05
G00X5.1499Y-1.9971
M15
G01X5.1768Y-2.0033
M16
G05
G00X5.3182Y-1.2683
M15
G01X5.3451Y-1.2745
M16
G05
G00X5.4865Y-0.5394
M15
G01X5.5133Y-0.5456
M16
G05
G00X5.9294Y-2.7858
M15
G01X5.957Y-2.7858
M16
G05
G00X6.363Y-0.4571
M15
G01X6.3898Y-0.4509
M16
G05
G00X6.5313Y-1.1859
M15
G01X6.5581Y-1.1797
M16
G05
G00X6.6995Y-1.9148
M15
G01X6.7264Y-1.9086
M16
G05
G00X7.053Y-0.1205
M15
G01X7.0799Y-0.1143
M16
G05
G00X7.0722Y-2.6369
M15
G01X7.099Y-2.6307
M16
G05
G00X7.2213Y-0.8494
M15
G01X7.2481Y-0.8432
M16
G05
G00X7.3895Y-1.5782
M15
G01X7.4164Y-1.572
M16
G05
G00X7.743Y0.216
M15
G01X7.7699Y0.2222
M16
G05
G00X7.8966Y-2.3534
M15
G01X7.9241Y-2.3534
M16
G05
G00X7.9113Y-0.5128
M15
G01X7.9381Y-0.5066
M16
G05
G00X8.0796Y-1.2417
M15
G01X8.1064Y-1.2355
M16
G05
G00X8.5107Y0.216
M15
G01X8.5376Y0.2222
M16
G05
G00X8.679Y-0.5128
M15
G01X8.7058Y-0.5066
M16
G05
G00X8.8473Y-1.2417
M15
G01X8.8741Y-1.2355
M16
G05
G00X9.2784Y0.216
M15
G01X9.3053Y0.2222
M16
G05
G00X9.4467Y-0.5128
M15
G01X9.4736Y-0.5066
M16
G05
G00X9.615Y-1.2417
M15
G01X9.6418Y-1.2355
M16
G05
G00X10.0461Y0.216
M15
G01X10.073Y0.2222
M16
G05
G00X10.2144Y-0.5128
M15
G01X10.2413Y-0.5066
M16
G05
G00X10.3827Y-1.2417
M15
G01X10.4095Y-1.2355
M16
G05
T0
M30
