G04 #@! TF.GenerationSoftware,KiCad,Pcbnew,(6.0.8-1)-1*
G04 #@! TF.CreationDate,2023-02-22T13:24:55+02:00*
G04 #@! TF.ProjectId,r41l2,7234316c-322e-46b6-9963-61645f706362,rev?*
G04 #@! TF.SameCoordinates,Original*
G04 #@! TF.FileFunction,Legend,Bot*
G04 #@! TF.FilePolarity,Positive*
%FSLAX46Y46*%
G04 Gerber Fmt 4.6, Leading zero omitted, Abs format (unit mm)*
G04 Created by KiCad (PCBNEW (6.0.8-1)-1) date 2023-02-22 13:24:55*
%MOMM*%
%LPD*%
G01*
G04 APERTURE LIST*
G04 Aperture macros list*
%AMHorizOval*
0 Thick line with rounded ends*
0 $1 width*
0 $2 $3 position (X,Y) of the first rounded end (center of the circle)*
0 $4 $5 position (X,Y) of the second rounded end (center of the circle)*
0 Add line between two ends*
20,1,$1,$2,$3,$4,$5,0*
0 Add two circle primitives to create the rounded ends*
1,1,$1,$2,$3*
1,1,$1,$4,$5*%
%AMRotRect*
0 Rectangle, with rotation*
0 The origin of the aperture is its center*
0 $1 length*
0 $2 width*
0 $3 Rotation angle, in degrees counterclockwise*
0 Add horizontal line*
21,1,$1,$2,0,0,$3*%
G04 Aperture macros list end*
%ADD10C,0.300000*%
%ADD11C,0.400000*%
%ADD12C,0.150000*%
%ADD13C,0.120000*%
%ADD14C,0.381000*%
%ADD15C,0.010000*%
%ADD16R,1.300000X1.700000*%
%ADD17C,2.500000*%
%ADD18O,2.000000X1.500000*%
%ADD19C,1.800000*%
%ADD20C,4.900000*%
%ADD21C,2.200000*%
%ADD22C,1.524000*%
%ADD23RotRect,1.524000X1.524000X347.000000*%
%ADD24HorizOval,1.500000X0.243593X-0.056238X-0.243593X0.056238X0*%
%ADD25RotRect,1.300000X1.700000X167.000000*%
%ADD26RotRect,1.300000X1.700000X193.000000*%
%ADD27HorizOval,1.500000X0.243593X0.056238X-0.243593X-0.056238X0*%
%ADD28C,2.000000*%
%ADD29C,0.900000*%
%ADD30RotRect,0.700000X1.500000X77.000000*%
%ADD31RotRect,1.000000X0.800000X77.000000*%
G04 APERTURE END LIST*
D10*
X246130796Y8991254D02*
X246130796Y7776968D01*
X246202225Y7634111D01*
X246273654Y7562683D01*
X246416511Y7491254D01*
X246630796Y7491254D01*
X246773654Y7562683D01*
X246130796Y8062683D02*
X246273654Y7991254D01*
X246559368Y7991254D01*
X246702225Y8062683D01*
X246773654Y8134111D01*
X246845082Y8276968D01*
X246845082Y8705540D01*
X246773654Y8848397D01*
X246702225Y8919826D01*
X246559368Y8991254D01*
X246273654Y8991254D01*
X246130796Y8919826D01*
X245416511Y7991254D02*
X245416511Y8991254D01*
X245416511Y9491254D02*
X245487939Y9419826D01*
X245416511Y9348397D01*
X245345082Y9419826D01*
X245416511Y9491254D01*
X245416511Y9348397D01*
X244916511Y8991254D02*
X244345082Y8991254D01*
X244702225Y9491254D02*
X244702225Y8205540D01*
X244630796Y8062683D01*
X244487939Y7991254D01*
X244345082Y7991254D01*
X243845082Y7991254D02*
X243845082Y9491254D01*
X243202225Y7991254D02*
X243202225Y8776968D01*
X243273654Y8919826D01*
X243416511Y8991254D01*
X243630796Y8991254D01*
X243773654Y8919826D01*
X243845082Y8848397D01*
X241845082Y8991254D02*
X241845082Y7991254D01*
X242487939Y8991254D02*
X242487939Y8205540D01*
X242416511Y8062683D01*
X242273654Y7991254D01*
X242059368Y7991254D01*
X241916511Y8062683D01*
X241845082Y8134111D01*
X241130796Y7991254D02*
X241130796Y9491254D01*
X241130796Y8919826D02*
X240987939Y8991254D01*
X240702225Y8991254D01*
X240559368Y8919826D01*
X240487939Y8848397D01*
X240416511Y8705540D01*
X240416511Y8276968D01*
X240487939Y8134111D01*
X240559368Y8062683D01*
X240702225Y7991254D01*
X240987939Y7991254D01*
X241130796Y8062683D01*
X239773654Y8134111D02*
X239702225Y8062683D01*
X239773654Y7991254D01*
X239845082Y8062683D01*
X239773654Y8134111D01*
X239773654Y7991254D01*
X238416511Y8062683D02*
X238559368Y7991254D01*
X238845082Y7991254D01*
X238987939Y8062683D01*
X239059368Y8134111D01*
X239130796Y8276968D01*
X239130796Y8705540D01*
X239059368Y8848397D01*
X238987939Y8919826D01*
X238845082Y8991254D01*
X238559368Y8991254D01*
X238416511Y8919826D01*
X237559368Y7991254D02*
X237702225Y8062683D01*
X237773654Y8134111D01*
X237845082Y8276968D01*
X237845082Y8705540D01*
X237773654Y8848397D01*
X237702225Y8919826D01*
X237559368Y8991254D01*
X237345082Y8991254D01*
X237202225Y8919826D01*
X237130796Y8848397D01*
X237059368Y8705540D01*
X237059368Y8276968D01*
X237130796Y8134111D01*
X237202225Y8062683D01*
X237345082Y7991254D01*
X237559368Y7991254D01*
X236416511Y7991254D02*
X236416511Y8991254D01*
X236416511Y8848397D02*
X236345082Y8919826D01*
X236202225Y8991254D01*
X235987939Y8991254D01*
X235845082Y8919826D01*
X235773654Y8776968D01*
X235773654Y7991254D01*
X235773654Y8776968D02*
X235702225Y8919826D01*
X235559368Y8991254D01*
X235345082Y8991254D01*
X235202225Y8919826D01*
X235130796Y8776968D01*
X235130796Y7991254D01*
X233345082Y9562683D02*
X234630796Y7634111D01*
X232845082Y7991254D02*
X232845082Y8991254D01*
X232845082Y9491254D02*
X232916511Y9419826D01*
X232845082Y9348397D01*
X232773654Y9419826D01*
X232845082Y9491254D01*
X232845082Y9348397D01*
X231487939Y7991254D02*
X231487939Y9491254D01*
X231487939Y8062683D02*
X231630796Y7991254D01*
X231916511Y7991254D01*
X232059368Y8062683D01*
X232130796Y8134111D01*
X232202225Y8276968D01*
X232202225Y8705540D01*
X232130796Y8848397D01*
X232059368Y8919826D01*
X231916511Y8991254D01*
X231630796Y8991254D01*
X231487939Y8919826D01*
X230130796Y7991254D02*
X230130796Y8776968D01*
X230202225Y8919826D01*
X230345082Y8991254D01*
X230630796Y8991254D01*
X230773654Y8919826D01*
X230130796Y8062683D02*
X230273654Y7991254D01*
X230630796Y7991254D01*
X230773654Y8062683D01*
X230845082Y8205540D01*
X230845082Y8348397D01*
X230773654Y8491254D01*
X230630796Y8562683D01*
X230273654Y8562683D01*
X230130796Y8634111D01*
X229416511Y8991254D02*
X229416511Y7991254D01*
X229416511Y8848397D02*
X229345082Y8919826D01*
X229202225Y8991254D01*
X228987939Y8991254D01*
X228845082Y8919826D01*
X228773654Y8776968D01*
X228773654Y7991254D01*
X228059368Y7991254D02*
X228059368Y9491254D01*
X227916511Y8562683D02*
X227487939Y7991254D01*
X227487939Y8991254D02*
X228059368Y8419826D01*
X225773654Y9562683D02*
X227059368Y7634111D01*
X225273654Y7991254D02*
X225273654Y9491254D01*
X225130796Y8562683D02*
X224702225Y7991254D01*
X224702225Y8991254D02*
X225273654Y8419826D01*
X223487939Y8062683D02*
X223630796Y7991254D01*
X223916511Y7991254D01*
X224059368Y8062683D01*
X224130796Y8205540D01*
X224130796Y8776968D01*
X224059368Y8919826D01*
X223916511Y8991254D01*
X223630796Y8991254D01*
X223487939Y8919826D01*
X223416511Y8776968D01*
X223416511Y8634111D01*
X224130796Y8491254D01*
X222916511Y8991254D02*
X222559368Y7991254D01*
X222202225Y8991254D02*
X222559368Y7991254D01*
X222702225Y7634111D01*
X222773654Y7562683D01*
X222916511Y7491254D01*
X221630796Y7991254D02*
X221630796Y9491254D01*
X221630796Y8919826D02*
X221487939Y8991254D01*
X221202225Y8991254D01*
X221059368Y8919826D01*
X220987939Y8848397D01*
X220916511Y8705540D01*
X220916511Y8276968D01*
X220987939Y8134111D01*
X221059368Y8062683D01*
X221202225Y7991254D01*
X221487939Y7991254D01*
X221630796Y8062683D01*
X220059368Y7991254D02*
X220202225Y8062683D01*
X220273654Y8134111D01*
X220345082Y8276968D01*
X220345082Y8705540D01*
X220273654Y8848397D01*
X220202225Y8919826D01*
X220059368Y8991254D01*
X219845082Y8991254D01*
X219702225Y8919826D01*
X219630796Y8848397D01*
X219559368Y8705540D01*
X219559368Y8276968D01*
X219630796Y8134111D01*
X219702225Y8062683D01*
X219845082Y7991254D01*
X220059368Y7991254D01*
X218273654Y7991254D02*
X218273654Y8776968D01*
X218345082Y8919826D01*
X218487939Y8991254D01*
X218773654Y8991254D01*
X218916511Y8919826D01*
X218273654Y8062683D02*
X218416511Y7991254D01*
X218773654Y7991254D01*
X218916511Y8062683D01*
X218987939Y8205540D01*
X218987939Y8348397D01*
X218916511Y8491254D01*
X218773654Y8562683D01*
X218416511Y8562683D01*
X218273654Y8634111D01*
X217559368Y7991254D02*
X217559368Y8991254D01*
X217559368Y8705540D02*
X217487939Y8848397D01*
X217416511Y8919826D01*
X217273654Y8991254D01*
X217130796Y8991254D01*
X215987939Y7991254D02*
X215987939Y9491254D01*
X215987939Y8062683D02*
X216130796Y7991254D01*
X216416511Y7991254D01*
X216559368Y8062683D01*
X216630796Y8134111D01*
X216702225Y8276968D01*
X216702225Y8705540D01*
X216630796Y8848397D01*
X216559368Y8919826D01*
X216416511Y8991254D01*
X216130796Y8991254D01*
X215987939Y8919826D01*
X215345082Y8062683D02*
X215202225Y7991254D01*
X214916511Y7991254D01*
X214773654Y8062683D01*
X214702225Y8205540D01*
X214702225Y8276968D01*
X214773654Y8419826D01*
X214916511Y8491254D01*
X215130796Y8491254D01*
X215273654Y8562683D01*
X215345082Y8705540D01*
X215345082Y8776968D01*
X215273654Y8919826D01*
X215130796Y8991254D01*
X214916511Y8991254D01*
X214773654Y8919826D01*
X228559368Y6348397D02*
X228487939Y6419826D01*
X228345082Y6491254D01*
X227987939Y6491254D01*
X227845082Y6419826D01*
X227773654Y6348397D01*
X227702225Y6205540D01*
X227702225Y6062683D01*
X227773654Y5848397D01*
X228630796Y4991254D01*
X227702225Y4991254D01*
X226773654Y6491254D02*
X226630796Y6491254D01*
X226487939Y6419826D01*
X226416511Y6348397D01*
X226345082Y6205540D01*
X226273654Y5919826D01*
X226273654Y5562683D01*
X226345082Y5276968D01*
X226416511Y5134111D01*
X226487939Y5062683D01*
X226630796Y4991254D01*
X226773654Y4991254D01*
X226916511Y5062683D01*
X226987939Y5134111D01*
X227059368Y5276968D01*
X227130796Y5562683D01*
X227130796Y5919826D01*
X227059368Y6205540D01*
X226987939Y6348397D01*
X226916511Y6419826D01*
X226773654Y6491254D01*
X225702225Y6348397D02*
X225630796Y6419826D01*
X225487939Y6491254D01*
X225130796Y6491254D01*
X224987939Y6419826D01*
X224916511Y6348397D01*
X224845082Y6205540D01*
X224845082Y6062683D01*
X224916511Y5848397D01*
X225773654Y4991254D01*
X224845082Y4991254D01*
X224345082Y6491254D02*
X223416511Y6491254D01*
X223916511Y5919826D01*
X223702225Y5919826D01*
X223559368Y5848397D01*
X223487939Y5776968D01*
X223416511Y5634111D01*
X223416511Y5276968D01*
X223487939Y5134111D01*
X223559368Y5062683D01*
X223702225Y4991254D01*
X224130796Y4991254D01*
X224273654Y5062683D01*
X224345082Y5134111D01*
X221702225Y6562683D02*
X222987939Y4634111D01*
X220916511Y6491254D02*
X220773654Y6491254D01*
X220630796Y6419826D01*
X220559368Y6348397D01*
X220487939Y6205540D01*
X220416511Y5919826D01*
X220416511Y5562683D01*
X220487939Y5276968D01*
X220559368Y5134111D01*
X220630796Y5062683D01*
X220773654Y4991254D01*
X220916511Y4991254D01*
X221059368Y5062683D01*
X221130796Y5134111D01*
X221202225Y5276968D01*
X221273654Y5562683D01*
X221273654Y5919826D01*
X221202225Y6205540D01*
X221130796Y6348397D01*
X221059368Y6419826D01*
X220916511Y6491254D01*
X219916511Y6491254D02*
X218987939Y6491254D01*
X219487939Y5919826D01*
X219273654Y5919826D01*
X219130796Y5848397D01*
X219059368Y5776968D01*
X218987939Y5634111D01*
X218987939Y5276968D01*
X219059368Y5134111D01*
X219130796Y5062683D01*
X219273654Y4991254D01*
X219702225Y4991254D01*
X219845082Y5062683D01*
X219916511Y5134111D01*
D11*
X155888088Y-9582904D02*
X155977305Y-9725680D01*
X156298514Y-9922017D01*
X156530507Y-9975576D01*
X156905276Y-9939920D01*
X157190829Y-9761486D01*
X157360385Y-9556273D01*
X157583501Y-9119068D01*
X157663841Y-8771078D01*
X157654964Y-8280313D01*
X157592527Y-8021540D01*
X157414094Y-7735987D01*
X157092885Y-7539651D01*
X156860892Y-7486091D01*
X156486122Y-7521748D01*
X156343346Y-7610965D01*
X154442571Y-9493538D02*
X154701344Y-9431102D01*
X154844120Y-9341885D01*
X155013676Y-9136672D01*
X155174356Y-8440694D01*
X155111919Y-8181921D01*
X155022702Y-8039144D01*
X154817489Y-7869588D01*
X154469500Y-7789249D01*
X154210727Y-7851685D01*
X154067951Y-7940902D01*
X153898395Y-8146115D01*
X153737716Y-8842093D01*
X153800152Y-9100866D01*
X153889369Y-9243642D01*
X154094582Y-9413199D01*
X154442571Y-9493538D01*
X152961546Y-7441110D02*
X152586628Y-9065060D01*
X152907987Y-7673103D02*
X152818770Y-7530327D01*
X152613557Y-7360770D01*
X152265568Y-7280431D01*
X152006795Y-7342867D01*
X151837239Y-7548080D01*
X151542660Y-8824041D01*
X149365508Y-8199227D02*
X149570721Y-8368783D01*
X150034706Y-8475903D01*
X150293479Y-8413466D01*
X150436256Y-8324249D01*
X150605812Y-8119036D01*
X150766491Y-7423058D01*
X150704054Y-7164285D01*
X150614838Y-7021509D01*
X150409625Y-6851953D01*
X149945639Y-6744833D01*
X149686866Y-6807270D01*
X147393568Y-7743969D02*
X147598781Y-7913525D01*
X148062767Y-8020645D01*
X148321540Y-7958208D01*
X148491096Y-7752995D01*
X148705335Y-6825023D01*
X148642898Y-6566251D01*
X148437685Y-6396694D01*
X147973700Y-6289575D01*
X147714927Y-6352012D01*
X147545371Y-6557225D01*
X147491811Y-6789217D01*
X148598216Y-7289009D01*
X146581742Y-5968216D02*
X146019365Y-8404141D01*
X146554963Y-6084213D02*
X146349750Y-5914656D01*
X145885764Y-5807537D01*
X145626991Y-5869974D01*
X145484215Y-5959190D01*
X145314659Y-6164403D01*
X145153979Y-6860382D01*
X145216416Y-7119155D01*
X145305632Y-7261931D01*
X145510845Y-7431487D01*
X145974831Y-7538607D01*
X146233604Y-7476170D01*
X144725799Y-5539738D02*
X143797828Y-5325499D01*
X144565269Y-4647423D02*
X144083231Y-6735359D01*
X143913675Y-6940572D01*
X143654902Y-7003009D01*
X143422910Y-6949449D01*
X140808551Y-6101519D02*
X140665775Y-6190735D01*
X140754992Y-6333512D01*
X140897768Y-6244295D01*
X140808551Y-6101519D01*
X140754992Y-6333512D01*
X141103130Y-4825558D02*
X140960354Y-4914775D01*
X141049570Y-5057551D01*
X141192347Y-4968334D01*
X141103130Y-4825558D01*
X141049570Y-5057551D01*
X139648587Y-5833720D02*
X139505811Y-5922936D01*
X139595027Y-6065713D01*
X139737804Y-5976496D01*
X139648587Y-5833720D01*
X139595027Y-6065713D01*
X139943166Y-4557759D02*
X139800389Y-4646976D01*
X139889606Y-4789752D01*
X140032382Y-4700535D01*
X139943166Y-4557759D01*
X139889606Y-4789752D01*
X135187163Y-5048077D02*
X136266937Y-4075572D01*
X136579120Y-5369436D02*
X137141497Y-2933511D01*
X136213526Y-2719271D01*
X135954753Y-2781708D01*
X135811977Y-2870925D01*
X135642421Y-3076138D01*
X135562081Y-3424127D01*
X135624518Y-3682900D01*
X135713734Y-3825676D01*
X135918947Y-3995232D01*
X136846919Y-4209471D01*
X133242003Y-4476823D02*
X133447216Y-4646379D01*
X133911202Y-4753498D01*
X134169975Y-4691062D01*
X134339531Y-4485849D01*
X134553770Y-3557877D01*
X134491333Y-3299104D01*
X134286120Y-3129548D01*
X133822134Y-3022429D01*
X133563362Y-3084865D01*
X133393806Y-3290078D01*
X133340246Y-3522071D01*
X134446650Y-4021863D01*
X132662170Y-2754630D02*
X131707270Y-4244680D01*
X131502206Y-2486831D01*
X130199316Y-3896542D02*
X130574234Y-2272592D01*
X130761693Y-1460617D02*
X130850910Y-1603393D01*
X130708134Y-1692610D01*
X130618917Y-1549833D01*
X130761693Y-1460617D01*
X130708134Y-1692610D01*
X128370302Y-1763774D02*
X127995384Y-3387724D01*
X129414270Y-2004793D02*
X129119691Y-3280754D01*
X128950135Y-3485967D01*
X128691362Y-3548403D01*
X128343373Y-3468064D01*
X128138160Y-3298507D01*
X128048943Y-3155731D01*
X127210338Y-1495975D02*
X126835419Y-3119925D01*
X127156778Y-1727968D02*
X127067561Y-1585192D01*
X126862348Y-1415635D01*
X126514359Y-1335296D01*
X126255586Y-1397732D01*
X126086030Y-1602945D01*
X125791451Y-2878906D01*
X123962437Y-746138D02*
X123507179Y-2718078D01*
X123569616Y-2976850D01*
X123658833Y-3119627D01*
X123864046Y-3289183D01*
X124212035Y-3369523D01*
X124470808Y-3307086D01*
X123614299Y-2254092D02*
X123819512Y-2423648D01*
X124283498Y-2530768D01*
X124542270Y-2468331D01*
X124685047Y-2379114D01*
X124854603Y-2173901D01*
X125015282Y-1477923D01*
X124952846Y-1219150D01*
X124863629Y-1076374D01*
X124658416Y-906818D01*
X124194430Y-799698D01*
X123935658Y-862135D01*
X121758505Y-237320D02*
X121383587Y-1861270D01*
X122552726Y556751D02*
X122731010Y-1317094D01*
X121223057Y-968956D01*
X118831665Y-1272113D02*
X120223622Y-1593472D01*
X119527644Y-1432792D02*
X120090021Y1003132D01*
X120241675Y601583D01*
X120420108Y316030D01*
X120625321Y146474D01*
X118314120Y-1396986D02*
X116458177Y-968508D01*
X114655793Y-308037D02*
X116047751Y-629396D01*
X115351772Y-468716D02*
X115914150Y1967208D01*
X116065803Y1565659D01*
X116244236Y1280106D01*
X116449449Y1110550D01*
X114406196Y2315346D02*
X112898242Y2663485D01*
X113495978Y1548054D01*
X113147989Y1628394D01*
X112889216Y1565957D01*
X112746440Y1476741D01*
X112576884Y1271528D01*
X112442984Y691546D01*
X112505421Y432773D01*
X112594637Y289996D01*
X112799850Y120440D01*
X113495829Y-40238D01*
X113754602Y22198D01*
X113897378Y111414D01*
X110694310Y3172303D02*
X111854274Y2904504D01*
X111702472Y1717760D01*
X111613255Y1860536D01*
X111408042Y2030092D01*
X110828060Y2163992D01*
X110569287Y2101555D01*
X110426511Y2012338D01*
X110256955Y1807125D01*
X110123055Y1227143D01*
X110185492Y968371D01*
X110274709Y825594D01*
X110479922Y656038D01*
X111059904Y522139D01*
X111318677Y584575D01*
X111461453Y673792D01*
X109766339Y3386542D02*
X108258385Y3734680D01*
X108856121Y2619250D01*
X108508131Y2699589D01*
X108249359Y2637153D01*
X108106582Y2547936D01*
X107937026Y2342723D01*
X107803127Y1762741D01*
X107865563Y1503968D01*
X107954780Y1361192D01*
X108159993Y1191636D01*
X108855972Y1030956D01*
X109114744Y1093393D01*
X109257521Y1182610D01*
D10*
X151649964Y-12327767D02*
X151773092Y-12429501D01*
X152051484Y-12493773D01*
X152206747Y-12456311D01*
X152292413Y-12402781D01*
X152394147Y-12279653D01*
X152490554Y-11862066D01*
X152453092Y-11706802D01*
X152399563Y-11621136D01*
X152276435Y-11519403D01*
X151998043Y-11455131D01*
X151842780Y-11492593D01*
X151007516Y-12252754D02*
X151344942Y-10791199D01*
X150381135Y-12108142D02*
X150557882Y-11342566D01*
X150659616Y-11219438D01*
X150814880Y-11181976D01*
X151023673Y-11230180D01*
X151146801Y-11331914D01*
X151200331Y-11417579D01*
X149476363Y-11899259D02*
X149631626Y-11861797D01*
X149717292Y-11808267D01*
X149819026Y-11685139D01*
X149915434Y-11267552D01*
X149877972Y-11112289D01*
X149824442Y-11026623D01*
X149701314Y-10924889D01*
X149492520Y-10876685D01*
X149337257Y-10914147D01*
X149251591Y-10967677D01*
X149149857Y-11090805D01*
X149053449Y-11508392D01*
X149090911Y-11663656D01*
X149144441Y-11749322D01*
X149267569Y-11851055D01*
X149476363Y-11899259D01*
X147752484Y-11427963D02*
X147875612Y-11529697D01*
X148154003Y-11593968D01*
X148309267Y-11556506D01*
X148394933Y-11502976D01*
X148496667Y-11379849D01*
X148593074Y-10962262D01*
X148555612Y-10806998D01*
X148502082Y-10721332D01*
X148378954Y-10619598D01*
X148100563Y-10555327D01*
X147945299Y-10592789D01*
X145996470Y-11095863D02*
X146333896Y-9634307D01*
X146205353Y-10191090D02*
X146082225Y-10089357D01*
X145803834Y-10025085D01*
X145648570Y-10062547D01*
X145562904Y-10116077D01*
X145461170Y-10239205D01*
X145364763Y-10656792D01*
X145402225Y-10812055D01*
X145455755Y-10897721D01*
X145578883Y-10999455D01*
X145857274Y-11063727D01*
X146012538Y-11026265D01*
X145038257Y-9848338D02*
X144465317Y-10742368D01*
X144342278Y-9687658D02*
X144465317Y-10742368D01*
X144524173Y-11122493D01*
X144577703Y-11208159D01*
X144700831Y-11309893D01*
X141836666Y-10062189D02*
X141959794Y-10163922D01*
X142238185Y-10228194D01*
X142393449Y-10190732D01*
X142479115Y-10137202D01*
X142580848Y-10014074D01*
X142677256Y-9596487D01*
X142639794Y-9441224D01*
X142586264Y-9355558D01*
X142463136Y-9253824D01*
X142184745Y-9189552D01*
X142029481Y-9227014D01*
X141558364Y-9044941D02*
X140985424Y-9938971D01*
X140862385Y-8884262D02*
X140985424Y-9938971D01*
X141044280Y-10319097D01*
X141097810Y-10404762D01*
X141220937Y-10506496D01*
X140080651Y-9730088D02*
X140305602Y-8755718D01*
X140241331Y-9034110D02*
X140203869Y-8878846D01*
X140150339Y-8793180D01*
X140027211Y-8691446D01*
X139888015Y-8659311D01*
X139175879Y-9521205D02*
X139400830Y-8546835D01*
X139513306Y-8059650D02*
X139566836Y-8145316D01*
X139481170Y-8198846D01*
X139427640Y-8113180D01*
X139513306Y-8059650D01*
X139481170Y-8198846D01*
X138271107Y-9312322D02*
X138426371Y-9274860D01*
X138528104Y-9151732D01*
X138817327Y-7898971D01*
X138089213Y-7877487D02*
X138035683Y-7791821D01*
X137912555Y-7690088D01*
X137564566Y-7609748D01*
X137409302Y-7647210D01*
X137323636Y-7700740D01*
X137221903Y-7823868D01*
X137189767Y-7963063D01*
X137211161Y-8187925D01*
X137853520Y-9215914D01*
X136948748Y-9007031D01*
X136798989Y-7433001D02*
X135824619Y-7208050D01*
X136113573Y-8814216D01*
X134860812Y-8524993D02*
X134582420Y-8460722D01*
X134459293Y-8358988D01*
X134405763Y-8273322D01*
X134314771Y-8032393D01*
X134309445Y-7737933D01*
X134437988Y-7181150D01*
X134539722Y-7058023D01*
X134625388Y-7004493D01*
X134780651Y-6967031D01*
X135059043Y-7031302D01*
X135182170Y-7133036D01*
X135235700Y-7218702D01*
X135273162Y-7373966D01*
X135192823Y-7721955D01*
X135091089Y-7845083D01*
X135005423Y-7898613D01*
X134850160Y-7936075D01*
X134571768Y-7871803D01*
X134448640Y-7770069D01*
X134395110Y-7684403D01*
X134357648Y-7529140D01*
D12*
X151552999Y-83395380D02*
X151410142Y-83442999D01*
X151172046Y-83442999D01*
X151076808Y-83395380D01*
X151029189Y-83347761D01*
X150981570Y-83252523D01*
X150981570Y-83157285D01*
X151029189Y-83062047D01*
X151076808Y-83014428D01*
X151172046Y-82966809D01*
X151362523Y-82919190D01*
X151457761Y-82871571D01*
X151505380Y-82823952D01*
X151552999Y-82728714D01*
X151552999Y-82633476D01*
X151505380Y-82538238D01*
X151457761Y-82490619D01*
X151362523Y-82442999D01*
X151124427Y-82442999D01*
X150981570Y-82490619D01*
X150648237Y-82776333D02*
X150457761Y-83442999D01*
X150267285Y-82966809D01*
X150076808Y-83442999D01*
X149886332Y-82776333D01*
X148981570Y-82490619D02*
X149076808Y-82442999D01*
X149219665Y-82442999D01*
X149362523Y-82490619D01*
X149457761Y-82585857D01*
X149505380Y-82681095D01*
X149552999Y-82871571D01*
X149552999Y-83014428D01*
X149505380Y-83204904D01*
X149457761Y-83300142D01*
X149362523Y-83395380D01*
X149219665Y-83442999D01*
X149124427Y-83442999D01*
X148981570Y-83395380D01*
X148933951Y-83347761D01*
X148933951Y-83014428D01*
X149124427Y-83014428D01*
X148552999Y-82538238D02*
X148505380Y-82490619D01*
X148410142Y-82442999D01*
X148172046Y-82442999D01*
X148076808Y-82490619D01*
X148029189Y-82538238D01*
X147981570Y-82633476D01*
X147981570Y-82728714D01*
X148029189Y-82871571D01*
X148600618Y-83442999D01*
X147981570Y-83442999D01*
X201518853Y-72411634D02*
X201375996Y-72459253D01*
X201137900Y-72459253D01*
X201042662Y-72411634D01*
X200995043Y-72364015D01*
X200947424Y-72268777D01*
X200947424Y-72173539D01*
X200995043Y-72078301D01*
X201042662Y-72030682D01*
X201137900Y-71983063D01*
X201328377Y-71935444D01*
X201423615Y-71887825D01*
X201471234Y-71840206D01*
X201518853Y-71744968D01*
X201518853Y-71649730D01*
X201471234Y-71554492D01*
X201423615Y-71506873D01*
X201328377Y-71459253D01*
X201090281Y-71459253D01*
X200947424Y-71506873D01*
X200614091Y-71792587D02*
X200423615Y-72459253D01*
X200233139Y-71983063D01*
X200042662Y-72459253D01*
X199852186Y-71792587D01*
X198947424Y-71506873D02*
X199042662Y-71459253D01*
X199185519Y-71459253D01*
X199328377Y-71506873D01*
X199423615Y-71602111D01*
X199471234Y-71697349D01*
X199518853Y-71887825D01*
X199518853Y-72030682D01*
X199471234Y-72221158D01*
X199423615Y-72316396D01*
X199328377Y-72411634D01*
X199185519Y-72459253D01*
X199090281Y-72459253D01*
X198947424Y-72411634D01*
X198899805Y-72364015D01*
X198899805Y-72030682D01*
X199090281Y-72030682D01*
X198042662Y-71792587D02*
X198042662Y-72459253D01*
X198280758Y-71411634D02*
X198518853Y-72125920D01*
X197899805Y-72125920D01*
X101587140Y-72411633D02*
X101444283Y-72459252D01*
X101206187Y-72459252D01*
X101110949Y-72411633D01*
X101063330Y-72364014D01*
X101015711Y-72268776D01*
X101015711Y-72173538D01*
X101063330Y-72078300D01*
X101110949Y-72030681D01*
X101206187Y-71983062D01*
X101396664Y-71935443D01*
X101491902Y-71887824D01*
X101539521Y-71840205D01*
X101587140Y-71744967D01*
X101587140Y-71649729D01*
X101539521Y-71554491D01*
X101491902Y-71506872D01*
X101396664Y-71459252D01*
X101158568Y-71459252D01*
X101015711Y-71506872D01*
X100682378Y-71792586D02*
X100491902Y-72459252D01*
X100301426Y-71983062D01*
X100110949Y-72459252D01*
X99920473Y-71792586D01*
X99015711Y-71506872D02*
X99110949Y-71459252D01*
X99253806Y-71459252D01*
X99396664Y-71506872D01*
X99491902Y-71602110D01*
X99539521Y-71697348D01*
X99587140Y-71887824D01*
X99587140Y-72030681D01*
X99539521Y-72221157D01*
X99491902Y-72316395D01*
X99396664Y-72411633D01*
X99253806Y-72459252D01*
X99158568Y-72459252D01*
X99015711Y-72411633D01*
X98968092Y-72364014D01*
X98968092Y-72030681D01*
X99158568Y-72030681D01*
X98349045Y-71459252D02*
X98253806Y-71459252D01*
X98158568Y-71506872D01*
X98110949Y-71554491D01*
X98063330Y-71649729D01*
X98015711Y-71840205D01*
X98015711Y-72078300D01*
X98063330Y-72268776D01*
X98110949Y-72364014D01*
X98158568Y-72411633D01*
X98253806Y-72459252D01*
X98349045Y-72459252D01*
X98444283Y-72411633D01*
X98491902Y-72364014D01*
X98539521Y-72268776D01*
X98587140Y-72078300D01*
X98587140Y-71840205D01*
X98539521Y-71649729D01*
X98491902Y-71554491D01*
X98444283Y-71506872D01*
X98349045Y-71459252D01*
X139144173Y2246538D02*
X139124194Y2329345D01*
X139149902Y2440702D01*
X139212730Y2543489D01*
X139304107Y2600587D01*
X139386914Y2620567D01*
X139543959Y2623407D01*
X139655316Y2597699D01*
X139795222Y2526302D01*
X139860890Y2472044D01*
X139917988Y2380667D01*
X139929399Y2260741D01*
X139912259Y2186503D01*
X139849432Y2083716D01*
X139803743Y2055167D01*
X139543911Y2115154D01*
X139578190Y2263629D01*
X139800855Y1703958D02*
X139021359Y1883919D01*
X139698020Y1258531D01*
X138918524Y1438492D01*
X139612325Y887343D02*
X138832829Y1067304D01*
X138789981Y881709D01*
X138801391Y761783D01*
X138858490Y670406D01*
X138924158Y616148D01*
X139064064Y544751D01*
X139175420Y519043D01*
X139332465Y521883D01*
X139415272Y541863D01*
X139506649Y598962D01*
X139569477Y701749D01*
X139612325Y887343D01*
X130360035Y5644729D02*
X130374298Y5494821D01*
X130409984Y5437711D01*
X130492070Y5369888D01*
X130631265Y5337752D01*
X130734774Y5362727D01*
X130791885Y5398414D01*
X130859707Y5480499D01*
X130945403Y5851688D01*
X129971033Y6076639D01*
X129896049Y5751849D01*
X129921024Y5648339D01*
X129956711Y5591229D01*
X130038796Y5523406D01*
X130131593Y5501983D01*
X130235102Y5526957D01*
X130292213Y5562644D01*
X130360035Y5644729D01*
X130435019Y5969519D01*
X130349263Y4963013D02*
X130177872Y4220636D01*
X141666805Y13342604D02*
X142386315Y12902811D01*
X141546832Y12822940D01*
X142089268Y11954859D02*
X142134957Y11983409D01*
X142197784Y12086196D01*
X142214923Y12160434D01*
X142203513Y12280360D01*
X142146414Y12371736D01*
X142080746Y12425994D01*
X141940840Y12497392D01*
X141829484Y12523100D01*
X141672439Y12520260D01*
X141589632Y12500280D01*
X141498255Y12443181D01*
X141435427Y12340394D01*
X141418288Y12266157D01*
X141429698Y12146230D01*
X141458248Y12100542D01*
X141909307Y11175363D02*
X141954996Y11203913D01*
X142017823Y11306700D01*
X142034962Y11380937D01*
X142023552Y11500864D01*
X141966454Y11592240D01*
X141900785Y11646498D01*
X141760880Y11717896D01*
X141649523Y11743604D01*
X141492478Y11740764D01*
X141409671Y11720784D01*
X141318294Y11663685D01*
X141255466Y11560898D01*
X141238327Y11486661D01*
X141249737Y11366734D01*
X141278287Y11321046D01*
X144332933Y11906036D02*
X144392920Y12165868D01*
X144801228Y12071603D02*
X144021732Y12251564D01*
X143936036Y11880375D01*
X144050185Y11189367D02*
X144569849Y11069393D01*
X143796082Y11443518D02*
X144395713Y11500569D01*
X144284309Y11018024D01*
X139858572Y13245301D02*
X139547370Y13590828D01*
X139961406Y13690727D02*
X139181910Y13870688D01*
X139113354Y13573737D01*
X139133334Y13490930D01*
X139161883Y13445241D01*
X139227551Y13390983D01*
X139338908Y13365274D01*
X139421715Y13385254D01*
X139467403Y13413803D01*
X139521661Y13479472D01*
X139590218Y13776422D01*
X139752896Y12956919D02*
X139764306Y12836993D01*
X139721459Y12651399D01*
X139667201Y12585731D01*
X139621512Y12557181D01*
X139538705Y12537202D01*
X139464467Y12554341D01*
X139398799Y12608599D01*
X139370250Y12654287D01*
X139350270Y12737094D01*
X139347429Y12894139D01*
X139327450Y12976947D01*
X139298900Y13022635D01*
X139233232Y13076893D01*
X139158995Y13094032D01*
X139076187Y13074053D01*
X139030499Y13045503D01*
X138976241Y12979835D01*
X138933393Y12794241D01*
X138944803Y12674315D01*
X138856267Y12460171D02*
X138753432Y12014745D01*
X139584346Y12057497D02*
X138804850Y12237458D01*
X154314789Y-1314520D02*
X154254802Y-1574352D01*
X154637401Y-1779973D02*
X154723096Y-1408785D01*
X153943600Y-1228824D01*
X153857905Y-1600013D01*
X153703653Y-2268152D02*
X153737931Y-2119677D01*
X153792189Y-2054009D01*
X153837877Y-2025459D01*
X153966373Y-1976930D01*
X154123418Y-1974090D01*
X154420369Y-2042646D01*
X154486037Y-2096904D01*
X154514586Y-2142593D01*
X154534566Y-2225400D01*
X154500288Y-2373875D01*
X154446030Y-2439543D01*
X154400341Y-2468093D01*
X154317534Y-2488072D01*
X154131940Y-2445225D01*
X154066272Y-2390967D01*
X154037722Y-2345278D01*
X154017743Y-2262471D01*
X154052021Y-2113995D01*
X154106279Y-2048327D01*
X154151967Y-2019778D01*
X154234774Y-1999798D01*
X156738273Y-2108609D02*
X156749683Y-2228535D01*
X156778232Y-2274223D01*
X156843900Y-2328481D01*
X156955257Y-2354190D01*
X157038064Y-2334210D01*
X157083752Y-2305661D01*
X157138010Y-2239993D01*
X157206567Y-1943042D01*
X156427071Y-1763081D01*
X156367084Y-2022913D01*
X156387064Y-2105720D01*
X156415613Y-2151409D01*
X156481281Y-2205667D01*
X156555519Y-2222806D01*
X156638326Y-2202826D01*
X156684015Y-2174277D01*
X156738273Y-2108609D01*
X156798259Y-1848777D01*
X156429816Y-2936634D02*
X156949480Y-3056608D01*
X156175713Y-2682483D02*
X156775344Y-2625432D01*
X156663939Y-3107977D01*
X136651288Y14031359D02*
X136631309Y14114166D01*
X136657017Y14225523D01*
X136719845Y14328310D01*
X136811222Y14385408D01*
X136894029Y14405388D01*
X137051074Y14408228D01*
X137162431Y14382520D01*
X137302337Y14311123D01*
X137368005Y14256865D01*
X137425103Y14165488D01*
X137436514Y14045562D01*
X137419374Y13971324D01*
X137356547Y13868537D01*
X137310858Y13839988D01*
X137051026Y13899975D01*
X137085305Y14048450D01*
X137307970Y13488779D02*
X136528474Y13668740D01*
X137205135Y13043352D01*
X136425639Y13223313D01*
X137119440Y12672164D02*
X136339944Y12852125D01*
X136297096Y12666530D01*
X136308506Y12546604D01*
X136365605Y12455227D01*
X136431273Y12400969D01*
X136571179Y12329572D01*
X136682535Y12303864D01*
X136839580Y12306704D01*
X136922387Y12326684D01*
X137013764Y12383783D01*
X137076592Y12486570D01*
X137119440Y12672164D01*
X149282733Y10763285D02*
X149342720Y11023117D01*
X149751028Y10928852D02*
X148971532Y11108813D01*
X148885836Y10737624D01*
X148740153Y10106603D02*
X148774432Y10255079D01*
X148828690Y10320747D01*
X148874378Y10349296D01*
X149002874Y10397825D01*
X149159919Y10400666D01*
X149456870Y10332109D01*
X149522538Y10277851D01*
X149551087Y10232163D01*
X149571067Y10149356D01*
X149536788Y10000880D01*
X149482530Y9935212D01*
X149436842Y9906663D01*
X149354035Y9886683D01*
X149168440Y9929531D01*
X149102772Y9983789D01*
X149074223Y10029477D01*
X149054243Y10112285D01*
X149088522Y10260760D01*
X149142780Y10326428D01*
X149188468Y10354977D01*
X149271275Y10374957D01*
X134932466Y3199338D02*
X134152970Y3379299D01*
X134110122Y3193705D01*
X134121532Y3073778D01*
X134178631Y2982402D01*
X134244299Y2928144D01*
X134384205Y2856746D01*
X134495561Y2831038D01*
X134652606Y2833878D01*
X134735414Y2853858D01*
X134826791Y2910957D01*
X134889618Y3013744D01*
X134932466Y3199338D01*
X134055816Y2619782D02*
X134010128Y2591233D01*
X133955870Y2525565D01*
X133913022Y2339971D01*
X133933002Y2257163D01*
X133961551Y2211475D01*
X134027219Y2157217D01*
X134101457Y2140078D01*
X134221383Y2151488D01*
X134769644Y2494080D01*
X134658240Y2011534D01*
X151757632Y10191909D02*
X151817619Y10451741D01*
X152225927Y10357476D02*
X151446431Y10537437D01*
X151360735Y10166248D01*
X151309317Y9943535D02*
X151189344Y9423871D01*
X152045966Y9577980D01*
X147306966Y342460D02*
X146527470Y522421D01*
X146484622Y336827D01*
X146496032Y216900D01*
X146553131Y125524D01*
X146618799Y71266D01*
X146758705Y-131D01*
X146870061Y-25839D01*
X147027106Y-22999D01*
X147109914Y-3019D01*
X147201291Y54079D01*
X147264118Y156866D01*
X147306966Y342460D01*
X146530215Y-651131D02*
X147049879Y-771105D01*
X146276112Y-396980D02*
X146875743Y-339929D01*
X146764338Y-822474D01*
X149604793Y-657202D02*
X149650482Y-628653D01*
X149713309Y-525866D01*
X149730449Y-451628D01*
X149719038Y-331702D01*
X149661940Y-240325D01*
X149596272Y-186067D01*
X149456366Y-114670D01*
X149345009Y-88961D01*
X149187964Y-91802D01*
X149105157Y-111782D01*
X149013780Y-168880D01*
X148950952Y-271667D01*
X148933813Y-345905D01*
X148945224Y-465831D01*
X148973773Y-511520D01*
X148745283Y-1162520D02*
X148779561Y-1014045D01*
X148833819Y-948376D01*
X148879508Y-919827D01*
X149008003Y-871298D01*
X149165048Y-868457D01*
X149461999Y-937014D01*
X149527667Y-991272D01*
X149556217Y-1036960D01*
X149576196Y-1119768D01*
X149541918Y-1268243D01*
X149487660Y-1333911D01*
X149441972Y-1362461D01*
X149359164Y-1382440D01*
X149173570Y-1339592D01*
X149107902Y-1285334D01*
X149079353Y-1239646D01*
X149059373Y-1156839D01*
X149093651Y-1008363D01*
X149147909Y-942695D01*
X149193598Y-914146D01*
X149276405Y-894166D01*
X143075627Y4597210D02*
X142296131Y4777171D01*
X142253283Y4591576D01*
X142264694Y4471650D01*
X142321792Y4380273D01*
X142387460Y4326015D01*
X142527366Y4254618D01*
X142638723Y4228910D01*
X142795768Y4231750D01*
X142878575Y4251730D01*
X142969952Y4308828D01*
X143032779Y4411615D01*
X143075627Y4597210D01*
X142801401Y3409406D02*
X142904236Y3854833D01*
X142852819Y3632119D02*
X142073323Y3812080D01*
X142201818Y3860609D01*
X142293195Y3917708D01*
X142347453Y3983376D01*
X141779117Y2707084D02*
X142935578Y3143845D01*
X142507195Y2304410D02*
X142518606Y2184484D01*
X142475758Y1998890D01*
X142421500Y1933221D01*
X142375811Y1904672D01*
X142293004Y1884692D01*
X142218766Y1901832D01*
X142153098Y1956090D01*
X142124549Y2001778D01*
X142104569Y2084585D01*
X142101729Y2241630D01*
X142081749Y2324438D01*
X142053200Y2370126D01*
X141987531Y2424384D01*
X141913294Y2441523D01*
X141830486Y2421543D01*
X141784798Y2392994D01*
X141730540Y2327326D01*
X141687692Y2141732D01*
X141699102Y2021805D01*
X142364353Y1516344D02*
X141584857Y1696305D01*
X141542010Y1510711D01*
X141553420Y1390785D01*
X141610518Y1299408D01*
X141676186Y1245150D01*
X141816092Y1173753D01*
X141927449Y1148044D01*
X142084494Y1150885D01*
X142167301Y1170865D01*
X142258678Y1227963D01*
X142321506Y1330750D01*
X142364353Y1516344D01*
X141970249Y825385D02*
X141884553Y454196D01*
X142210101Y848205D02*
X141370618Y768334D01*
X142090127Y328541D01*
X136669273Y2817914D02*
X136649294Y2900721D01*
X136675002Y3012078D01*
X136737830Y3114865D01*
X136829207Y3171963D01*
X136912014Y3191943D01*
X137069059Y3194783D01*
X137180416Y3169075D01*
X137320322Y3097678D01*
X137385990Y3043420D01*
X137443088Y2952043D01*
X137454499Y2832117D01*
X137437359Y2757879D01*
X137374532Y2655092D01*
X137328843Y2626543D01*
X137069011Y2686530D01*
X137103290Y2835005D01*
X137325955Y2275334D02*
X136546459Y2455295D01*
X137223120Y1829907D01*
X136443624Y2009868D01*
X137137425Y1458719D02*
X136357929Y1638680D01*
X136315081Y1453085D01*
X136326491Y1333159D01*
X136383590Y1241782D01*
X136449258Y1187524D01*
X136589164Y1116127D01*
X136700520Y1090419D01*
X136857565Y1093259D01*
X136940372Y1113239D01*
X137031749Y1170338D01*
X137094577Y1273125D01*
X137137425Y1458719D01*
X159213172Y-2679984D02*
X159224582Y-2799910D01*
X159253131Y-2845598D01*
X159318799Y-2899856D01*
X159430156Y-2925565D01*
X159512963Y-2905585D01*
X159558651Y-2877036D01*
X159612909Y-2811368D01*
X159681466Y-2514417D01*
X158901970Y-2334456D01*
X158841983Y-2594288D01*
X158861963Y-2677095D01*
X158890512Y-2722784D01*
X158956180Y-2777042D01*
X159030418Y-2794181D01*
X159113225Y-2774201D01*
X159158914Y-2745652D01*
X159213172Y-2679984D01*
X159273158Y-2420152D01*
X158636313Y-3485141D02*
X158722009Y-3113952D01*
X159101767Y-3162529D01*
X159056079Y-3191078D01*
X159001821Y-3256746D01*
X158958973Y-3442341D01*
X158978953Y-3525148D01*
X159007502Y-3570836D01*
X159073170Y-3625094D01*
X159258764Y-3667942D01*
X159341572Y-3647963D01*
X159387260Y-3619413D01*
X159441518Y-3553745D01*
X159484366Y-3368151D01*
X159464386Y-3285344D01*
X159435837Y-3239655D01*
X156720287Y9104836D02*
X156731697Y8984910D01*
X156760246Y8939222D01*
X156825914Y8884964D01*
X156937271Y8859255D01*
X157020078Y8879235D01*
X157065766Y8907784D01*
X157120024Y8973452D01*
X157188581Y9270403D01*
X156409085Y9450364D01*
X156349098Y9190532D01*
X156369078Y9107725D01*
X156397627Y9062036D01*
X156463295Y9007778D01*
X156537533Y8990639D01*
X156620340Y9010619D01*
X156666029Y9039168D01*
X156720287Y9104836D01*
X156780273Y9364668D01*
X156246263Y8745105D02*
X156134859Y8262560D01*
X156491797Y8453836D01*
X156466088Y8342479D01*
X156486068Y8259672D01*
X156514617Y8213984D01*
X156580285Y8159726D01*
X156765879Y8116878D01*
X156848687Y8136857D01*
X156894375Y8165407D01*
X156948633Y8231075D01*
X157000051Y8453788D01*
X156980071Y8536595D01*
X156951521Y8582284D01*
X154245387Y9676211D02*
X154256797Y9556285D01*
X154285346Y9510597D01*
X154351014Y9456339D01*
X154462371Y9430630D01*
X154545178Y9450610D01*
X154590866Y9479159D01*
X154645124Y9544827D01*
X154713681Y9841778D01*
X153934185Y10021739D01*
X153874198Y9761907D01*
X153894178Y9679100D01*
X153922727Y9633411D01*
X153988395Y9579153D01*
X154062633Y9562014D01*
X154145440Y9581994D01*
X154191129Y9610543D01*
X154245387Y9676211D01*
X154305373Y9936043D01*
X154439455Y8653974D02*
X154542290Y9099401D01*
X154490872Y8876688D02*
X153711376Y9056648D01*
X153839872Y9105177D01*
X153931249Y9162276D01*
X153985507Y9227944D01*
X132462955Y7350377D02*
X132360120Y6904951D01*
X133191033Y6947703D02*
X132411537Y7127664D01*
X132317272Y6719356D02*
X132976794Y6019731D01*
X132197298Y6199692D02*
X133096768Y6539395D01*
X132094463Y5754266D02*
X132077324Y5680028D01*
X132097304Y5597221D01*
X132125853Y5551533D01*
X132191521Y5497275D01*
X132331427Y5425877D01*
X132517022Y5383030D01*
X132674067Y5385870D01*
X132756874Y5405850D01*
X132802562Y5434399D01*
X132856820Y5500067D01*
X132873959Y5574305D01*
X132853980Y5657112D01*
X132825430Y5702801D01*
X132759762Y5757059D01*
X132619856Y5828456D01*
X132434262Y5871304D01*
X132277217Y5868463D01*
X132194410Y5848483D01*
X132148721Y5819934D01*
X132094463Y5754266D01*
X131791688Y4612151D02*
X132948149Y5048912D01*
X132548316Y4163788D02*
X131768820Y4343749D01*
X131725972Y4158155D01*
X131737382Y4038229D01*
X131794481Y3946852D01*
X131860149Y3892594D01*
X132000055Y3821197D01*
X132111411Y3795488D01*
X132268456Y3798329D01*
X132351264Y3818309D01*
X132442641Y3875407D01*
X132505468Y3978194D01*
X132548316Y4163788D01*
X131605998Y3638491D02*
X131494594Y3155946D01*
X131851532Y3347221D01*
X131825823Y3235865D01*
X131845803Y3153057D01*
X131874352Y3107369D01*
X131940020Y3053111D01*
X132125614Y3010263D01*
X132208422Y3030243D01*
X132254110Y3058792D01*
X132308368Y3124460D01*
X132359786Y3347174D01*
X132339806Y3429981D01*
X132311256Y3475669D01*
X145546242Y4007275D02*
X144766746Y4187236D01*
X144723899Y4001642D01*
X144735309Y3881716D01*
X144792407Y3790339D01*
X144858076Y3736081D01*
X144997981Y3664684D01*
X145109338Y3638975D01*
X145266383Y3641816D01*
X145349190Y3661795D01*
X145440567Y3718894D01*
X145503395Y3821681D01*
X145546242Y4007275D01*
X144552507Y3259265D02*
X144535368Y3185027D01*
X144555348Y3102220D01*
X144583897Y3056531D01*
X144649565Y3002273D01*
X144789471Y2930876D01*
X144975066Y2888028D01*
X145132111Y2890869D01*
X145214918Y2910849D01*
X145260606Y2939398D01*
X145314864Y3005066D01*
X145332003Y3079304D01*
X145312024Y3162111D01*
X145283474Y3207800D01*
X145217806Y3262058D01*
X145077900Y3333455D01*
X144892306Y3376302D01*
X144735261Y3373462D01*
X144652454Y3353482D01*
X144606765Y3324933D01*
X144552507Y3259265D01*
X144249732Y2117150D02*
X145406193Y2553911D01*
X144977811Y1714476D02*
X144989221Y1594549D01*
X144946373Y1408955D01*
X144892115Y1343287D01*
X144846427Y1314738D01*
X144763619Y1294758D01*
X144689382Y1311897D01*
X144623713Y1366155D01*
X144595164Y1411844D01*
X144575184Y1494651D01*
X144572344Y1651696D01*
X144552364Y1734503D01*
X144523815Y1780192D01*
X144458147Y1834450D01*
X144383909Y1851589D01*
X144301102Y1831609D01*
X144255413Y1803060D01*
X144201155Y1737391D01*
X144158307Y1551797D01*
X144169718Y1431871D01*
X144657896Y498123D02*
X144703585Y526672D01*
X144766412Y629459D01*
X144783551Y703697D01*
X144772141Y823623D01*
X144715043Y915000D01*
X144649374Y969258D01*
X144509468Y1040655D01*
X144398112Y1066364D01*
X144241067Y1063523D01*
X144158260Y1043543D01*
X144066883Y986445D01*
X144004055Y883658D01*
X143986916Y809420D01*
X143998326Y689494D01*
X144026876Y643805D01*
X144569312Y-224274D02*
X144655008Y146914D01*
X143875512Y326875D01*
X134905912Y14375665D02*
X134594711Y14721193D01*
X135008747Y14821091D02*
X134229251Y15001052D01*
X134160695Y14704101D01*
X134180674Y14621294D01*
X134209224Y14575606D01*
X134274892Y14521348D01*
X134386248Y14495639D01*
X134469056Y14515619D01*
X134514744Y14544168D01*
X134569002Y14609836D01*
X134637559Y14906787D01*
X134614643Y14130132D02*
X134528947Y13758943D01*
X134854495Y14152952D02*
X134015012Y14073081D01*
X134734521Y13633288D01*
X133912177Y13627654D02*
X134648825Y13262099D01*
X134057764Y13242167D01*
X134580269Y12965148D01*
X133757925Y12959515D01*
X159195187Y8533460D02*
X159206597Y8413534D01*
X159235146Y8367846D01*
X159300814Y8313588D01*
X159412171Y8287879D01*
X159494978Y8307859D01*
X159540666Y8336408D01*
X159594924Y8402076D01*
X159663481Y8699027D01*
X158883985Y8878988D01*
X158823998Y8619156D01*
X158843978Y8536349D01*
X158872527Y8490660D01*
X158938195Y8436402D01*
X159012433Y8419263D01*
X159095240Y8439243D01*
X159140929Y8467792D01*
X159195187Y8533460D01*
X159255173Y8793292D01*
X158786831Y8119471D02*
X158741143Y8090922D01*
X158686885Y8025254D01*
X158644037Y7839660D01*
X158664017Y7756852D01*
X158692566Y7711164D01*
X158758234Y7656906D01*
X158832472Y7639767D01*
X158952398Y7651177D01*
X159500659Y7993769D01*
X159389255Y7511223D01*
X146807834Y11334660D02*
X146867821Y11594492D01*
X147276129Y11500227D02*
X146496633Y11680188D01*
X146410937Y11308999D01*
X146256685Y10640859D02*
X146342380Y11012048D01*
X146722139Y10963471D01*
X146676450Y10934922D01*
X146622192Y10869254D01*
X146579344Y10683660D01*
X146599324Y10600852D01*
X146627873Y10555164D01*
X146693541Y10500906D01*
X146879136Y10458058D01*
X146961943Y10478038D01*
X147007631Y10506587D01*
X147061889Y10572255D01*
X147104737Y10757849D01*
X147084758Y10840657D01*
X147056208Y10886345D01*
X152256766Y-800290D02*
X151477270Y-620329D01*
X151434422Y-805923D01*
X151445832Y-925850D01*
X151502931Y-1017226D01*
X151568599Y-1071484D01*
X151708505Y-1142882D01*
X151819861Y-1168590D01*
X151976906Y-1165750D01*
X152059714Y-1145770D01*
X152151091Y-1088671D01*
X152213918Y-985884D01*
X152256766Y-800290D01*
X151314448Y-1325588D02*
X151194474Y-1845252D01*
X152051096Y-1691143D01*
X161670087Y7962084D02*
X161681497Y7842158D01*
X161710046Y7796470D01*
X161775714Y7742212D01*
X161887071Y7716503D01*
X161969878Y7736483D01*
X162015566Y7765032D01*
X162069824Y7830700D01*
X162138381Y8127651D01*
X161358885Y8307612D01*
X161298898Y8047780D01*
X161318878Y7964973D01*
X161347427Y7919284D01*
X161413095Y7865026D01*
X161487333Y7847887D01*
X161570140Y7867867D01*
X161615829Y7896416D01*
X161670087Y7962084D01*
X161730073Y8221916D01*
X161101798Y7194046D02*
X161136076Y7342521D01*
X161190334Y7408190D01*
X161236023Y7436739D01*
X161364518Y7485268D01*
X161521563Y7488109D01*
X161818514Y7419552D01*
X161884182Y7365294D01*
X161912732Y7319606D01*
X161932711Y7236798D01*
X161898433Y7088323D01*
X161844175Y7022655D01*
X161798487Y6994105D01*
X161715679Y6974126D01*
X161530085Y7016974D01*
X161464417Y7071232D01*
X161435868Y7116920D01*
X161415888Y7199727D01*
X161450166Y7348203D01*
X161504424Y7413871D01*
X161550113Y7442420D01*
X161632920Y7462400D01*
X132188437Y13564409D02*
X132202700Y13414501D01*
X132238386Y13357391D01*
X132320472Y13289568D01*
X132459667Y13257432D01*
X132563176Y13282407D01*
X132620287Y13318094D01*
X132688109Y13400179D01*
X132773805Y13771368D01*
X131799435Y13996319D01*
X131724451Y13671529D01*
X131749426Y13568019D01*
X131785113Y13510909D01*
X131867198Y13443086D01*
X131959995Y13421663D01*
X132063504Y13446637D01*
X132120615Y13482324D01*
X132188437Y13564409D01*
X132263421Y13889199D01*
X132177665Y12882693D02*
X132006274Y12140316D01*
X132463158Y12425809D02*
X131720781Y12597200D01*
X129863652Y-43146162D02*
X130013559Y-43131900D01*
X130245552Y-43185459D01*
X130327637Y-43253282D01*
X130363324Y-43310392D01*
X130388299Y-43413901D01*
X130366875Y-43506699D01*
X130299052Y-43588784D01*
X130241942Y-43624470D01*
X130138433Y-43649445D01*
X129942126Y-43652996D01*
X129838617Y-43677971D01*
X129781507Y-43713657D01*
X129713684Y-43795742D01*
X129692260Y-43888539D01*
X129717235Y-43992049D01*
X129752922Y-44049159D01*
X129835007Y-44116982D01*
X130067000Y-44170541D01*
X130216907Y-44156279D01*
X130605969Y-43952871D02*
X130941531Y-43346139D01*
X131020005Y-43852972D01*
X131312719Y-43431834D01*
X131348346Y-44124262D01*
X132076461Y-44145746D02*
X132226368Y-44131483D01*
X132283479Y-44095796D01*
X132351301Y-44013711D01*
X132383437Y-43874516D01*
X132358463Y-43771006D01*
X132322776Y-43713896D01*
X132240691Y-43646073D01*
X131869502Y-43560378D01*
X131644551Y-44534748D01*
X131969341Y-44609732D01*
X132072850Y-44584757D01*
X132129961Y-44549070D01*
X132197783Y-44466985D01*
X132219207Y-44374188D01*
X132194233Y-44270679D01*
X132158546Y-44213568D01*
X132076461Y-44145746D01*
X131751671Y-44070762D01*
X133082907Y-44866818D02*
X132618921Y-44759699D01*
X132679642Y-44285001D01*
X132715329Y-44342112D01*
X132797414Y-44409934D01*
X133029407Y-44463494D01*
X133132916Y-44438519D01*
X133190027Y-44402833D01*
X133257849Y-44320748D01*
X133311409Y-44088755D01*
X133286434Y-43985246D01*
X133250748Y-43928135D01*
X133168662Y-43860313D01*
X132936669Y-43806753D01*
X132833160Y-43831727D01*
X132776050Y-43867414D01*
X125589582Y-61659191D02*
X125739489Y-61644929D01*
X125971482Y-61698488D01*
X126053567Y-61766311D01*
X126089254Y-61823421D01*
X126114229Y-61926930D01*
X126092805Y-62019728D01*
X126024982Y-62101813D01*
X125967872Y-62137499D01*
X125864363Y-62162474D01*
X125668056Y-62166025D01*
X125564547Y-62191000D01*
X125507437Y-62226686D01*
X125439614Y-62308771D01*
X125418190Y-62401568D01*
X125443165Y-62505078D01*
X125478852Y-62562188D01*
X125560937Y-62630011D01*
X125792930Y-62683570D01*
X125942837Y-62669308D01*
X126331899Y-62465900D02*
X126667461Y-61859168D01*
X126745935Y-62366001D01*
X127038649Y-61944863D01*
X127074276Y-62637291D01*
X128130791Y-62294747D02*
X128095105Y-62237637D01*
X127966621Y-62159102D01*
X127873824Y-62137679D01*
X127723916Y-62151941D01*
X127609695Y-62223314D01*
X127541872Y-62305400D01*
X127452626Y-62480282D01*
X127420490Y-62619478D01*
X127424041Y-62815784D01*
X127449016Y-62919293D01*
X127520389Y-63033514D01*
X127648873Y-63112049D01*
X127741670Y-63133472D01*
X127891577Y-63119210D01*
X127948688Y-63083523D01*
X128808837Y-63379847D02*
X128344851Y-63272728D01*
X128405572Y-62798030D01*
X128441259Y-62855141D01*
X128523344Y-62922963D01*
X128755337Y-62976523D01*
X128858846Y-62951548D01*
X128915957Y-62915862D01*
X128983779Y-62833777D01*
X129037339Y-62601784D01*
X129012364Y-62498275D01*
X128976678Y-62441164D01*
X128894592Y-62373342D01*
X128662599Y-62319782D01*
X128559090Y-62344756D01*
X128501980Y-62380443D01*
X134207320Y-24649201D02*
X134357228Y-24634939D01*
X134589221Y-24688498D01*
X134671306Y-24756321D01*
X134706993Y-24813431D01*
X134731967Y-24916940D01*
X134710544Y-25009738D01*
X134642721Y-25091823D01*
X134585611Y-25127509D01*
X134482101Y-25152484D01*
X134285795Y-25156035D01*
X134182286Y-25181009D01*
X134125176Y-25216696D01*
X134057353Y-25298781D01*
X134035929Y-25391578D01*
X134060904Y-25495088D01*
X134096590Y-25552198D01*
X134178676Y-25620021D01*
X134410669Y-25673580D01*
X134560576Y-25659318D01*
X134949638Y-25455910D02*
X135285200Y-24849178D01*
X135363674Y-25356011D01*
X135656388Y-24934873D01*
X135692015Y-25627301D01*
X136102501Y-25331096D02*
X136566487Y-25438216D01*
X136073975Y-25031281D02*
X136173814Y-26080635D01*
X136723555Y-25181248D01*
X137287380Y-26337722D02*
X136823394Y-26230602D01*
X136884115Y-25755904D01*
X136919802Y-25813015D01*
X137001887Y-25880837D01*
X137233880Y-25934397D01*
X137337389Y-25909422D01*
X137394500Y-25873736D01*
X137462322Y-25791651D01*
X137515882Y-25559658D01*
X137490907Y-25456149D01*
X137455221Y-25399038D01*
X137373135Y-25331216D01*
X137141143Y-25277656D01*
X137037633Y-25302630D01*
X136980523Y-25338317D01*
X112337370Y-34598020D02*
X112487277Y-34583758D01*
X112719270Y-34637317D01*
X112801355Y-34705140D01*
X112837042Y-34762250D01*
X112862017Y-34865759D01*
X112840593Y-34958557D01*
X112772770Y-35040642D01*
X112715660Y-35076328D01*
X112612151Y-35101303D01*
X112415844Y-35104854D01*
X112312335Y-35129829D01*
X112255225Y-35165515D01*
X112187402Y-35247600D01*
X112165978Y-35340397D01*
X112190953Y-35443907D01*
X112226640Y-35501017D01*
X112308725Y-35568840D01*
X112540718Y-35622399D01*
X112690625Y-35608137D01*
X113079687Y-35404729D02*
X113415249Y-34797997D01*
X113493723Y-35304830D01*
X113786437Y-34883692D01*
X113822064Y-35576120D01*
X114550179Y-35597604D02*
X114700086Y-35583341D01*
X114757197Y-35547654D01*
X114825019Y-35465569D01*
X114857155Y-35326374D01*
X114832181Y-35222864D01*
X114796494Y-35165754D01*
X114714409Y-35097931D01*
X114343220Y-35012236D01*
X114118269Y-35986606D01*
X114443059Y-36061590D01*
X114546568Y-36036615D01*
X114603679Y-36000928D01*
X114671501Y-35918843D01*
X114692925Y-35826046D01*
X114667951Y-35722537D01*
X114632264Y-35665426D01*
X114550179Y-35597604D01*
X114225389Y-35522620D01*
X115585210Y-35983174D02*
X115735177Y-35333594D01*
X115267522Y-36300803D02*
X115196208Y-35551265D01*
X115799390Y-35690520D01*
X108063301Y-53111056D02*
X108213208Y-53096794D01*
X108445201Y-53150353D01*
X108527286Y-53218176D01*
X108562973Y-53275286D01*
X108587948Y-53378795D01*
X108566524Y-53471593D01*
X108498701Y-53553678D01*
X108441591Y-53589364D01*
X108338082Y-53614339D01*
X108141775Y-53617890D01*
X108038266Y-53642865D01*
X107981156Y-53678551D01*
X107913333Y-53760636D01*
X107891909Y-53853433D01*
X107916884Y-53956943D01*
X107952571Y-54014053D01*
X108034656Y-54081876D01*
X108266649Y-54135435D01*
X108416556Y-54121173D01*
X108805618Y-53917765D02*
X109141180Y-53311033D01*
X109219654Y-53817866D01*
X109512368Y-53396728D01*
X109547995Y-54089156D01*
X110604510Y-53746612D02*
X110568824Y-53689502D01*
X110440340Y-53610967D01*
X110347543Y-53589544D01*
X110197635Y-53603806D01*
X110083414Y-53675179D01*
X110015591Y-53757265D01*
X109926345Y-53932147D01*
X109894209Y-54071343D01*
X109897760Y-54267649D01*
X109922735Y-54371158D01*
X109994108Y-54485379D01*
X110122592Y-54563914D01*
X110215389Y-54585337D01*
X110365296Y-54571075D01*
X110422407Y-54535388D01*
X111311141Y-54496210D02*
X111461108Y-53846630D01*
X110993453Y-54813839D02*
X110922139Y-54064301D01*
X111525321Y-54203556D01*
X116681037Y-16101062D02*
X116830945Y-16086800D01*
X117062938Y-16140359D01*
X117145023Y-16208182D01*
X117180710Y-16265292D01*
X117205684Y-16368801D01*
X117184261Y-16461599D01*
X117116438Y-16543684D01*
X117059328Y-16579370D01*
X116955818Y-16604345D01*
X116759512Y-16607896D01*
X116656003Y-16632870D01*
X116598893Y-16668557D01*
X116531070Y-16750642D01*
X116509646Y-16843439D01*
X116534621Y-16946949D01*
X116570307Y-17004059D01*
X116652393Y-17071882D01*
X116884386Y-17125441D01*
X117034293Y-17111179D01*
X117423355Y-16907771D02*
X117758917Y-16301039D01*
X117837391Y-16807872D01*
X118130105Y-16386734D01*
X118165732Y-17079162D01*
X118576218Y-16782957D02*
X119040204Y-16890077D01*
X118547692Y-16483142D02*
X118647531Y-17532496D01*
X119197272Y-16633109D01*
X119789682Y-17454081D02*
X119939650Y-16804501D01*
X119471994Y-17771709D02*
X119400680Y-17022171D01*
X120003862Y-17161426D01*
X90537015Y-44562915D02*
X90686922Y-44548653D01*
X90918915Y-44602212D01*
X91001000Y-44670035D01*
X91036687Y-44727145D01*
X91061662Y-44830654D01*
X91040238Y-44923452D01*
X90972415Y-45005537D01*
X90915305Y-45041223D01*
X90811796Y-45066198D01*
X90615489Y-45069749D01*
X90511980Y-45094724D01*
X90454870Y-45130410D01*
X90387047Y-45212495D01*
X90365623Y-45305292D01*
X90390598Y-45408802D01*
X90426285Y-45465912D01*
X90508370Y-45533735D01*
X90740363Y-45587294D01*
X90890270Y-45573032D01*
X91279332Y-45369624D02*
X91614894Y-44762892D01*
X91693368Y-45269725D01*
X91986082Y-44848587D01*
X92021709Y-45541015D01*
X93078224Y-45198471D02*
X93042538Y-45141361D01*
X92914054Y-45062826D01*
X92821257Y-45041403D01*
X92671349Y-45055665D01*
X92557128Y-45127038D01*
X92489305Y-45209124D01*
X92400059Y-45384006D01*
X92367923Y-45523202D01*
X92371474Y-45719508D01*
X92396449Y-45823017D01*
X92467822Y-45937238D01*
X92596306Y-46015773D01*
X92689103Y-46037196D01*
X92839010Y-46022934D01*
X92896121Y-45987247D01*
X93199487Y-46155028D02*
X93802669Y-46294283D01*
X93563574Y-45848111D01*
X93702770Y-45880247D01*
X93806279Y-45855272D01*
X93863390Y-45819586D01*
X93931212Y-45737501D01*
X93984772Y-45505508D01*
X93959797Y-45401999D01*
X93924111Y-45344888D01*
X93842025Y-45277066D01*
X93563634Y-45212794D01*
X93460125Y-45237768D01*
X93403014Y-45273455D01*
X99154753Y-7552921D02*
X99304661Y-7538659D01*
X99536654Y-7592218D01*
X99618739Y-7660041D01*
X99654426Y-7717151D01*
X99679400Y-7820660D01*
X99657977Y-7913458D01*
X99590154Y-7995543D01*
X99533044Y-8031229D01*
X99429534Y-8056204D01*
X99233228Y-8059755D01*
X99129719Y-8084729D01*
X99072609Y-8120416D01*
X99004786Y-8202501D01*
X98983362Y-8295298D01*
X99008337Y-8398808D01*
X99044023Y-8455918D01*
X99126109Y-8523741D01*
X99358102Y-8577300D01*
X99508009Y-8563038D01*
X99897071Y-8359630D02*
X100232633Y-7752898D01*
X100311107Y-8259731D01*
X100603821Y-7838593D01*
X100639448Y-8531021D01*
X101049934Y-8234816D02*
X101513920Y-8341936D01*
X101021408Y-7935001D02*
X101121247Y-8984355D01*
X101670988Y-8084968D01*
X101678030Y-9112898D02*
X102281212Y-9252153D01*
X102042117Y-8805981D01*
X102181313Y-8838117D01*
X102284822Y-8813142D01*
X102341933Y-8777456D01*
X102409755Y-8695371D01*
X102463315Y-8463378D01*
X102438340Y-8359869D01*
X102402654Y-8302758D01*
X102320568Y-8234936D01*
X102042177Y-8170664D01*
X101938668Y-8195639D01*
X101881557Y-8231325D01*
X94811086Y-26049884D02*
X94960993Y-26035622D01*
X95192986Y-26089181D01*
X95275071Y-26157004D01*
X95310758Y-26214114D01*
X95335733Y-26317623D01*
X95314309Y-26410421D01*
X95246486Y-26492506D01*
X95189376Y-26528192D01*
X95085867Y-26553167D01*
X94889560Y-26556718D01*
X94786051Y-26581693D01*
X94728941Y-26617379D01*
X94661118Y-26699464D01*
X94639694Y-26792261D01*
X94664669Y-26895771D01*
X94700356Y-26952881D01*
X94782441Y-27020704D01*
X95014434Y-27074263D01*
X95164341Y-27060001D01*
X95553403Y-26856593D02*
X95888965Y-26249861D01*
X95967439Y-26756694D01*
X96260153Y-26335556D01*
X96295780Y-27027984D01*
X97023895Y-27049468D02*
X97173802Y-27035205D01*
X97230913Y-26999518D01*
X97298735Y-26917433D01*
X97330871Y-26778238D01*
X97305897Y-26674728D01*
X97270210Y-26617618D01*
X97188125Y-26549795D01*
X96816936Y-26464100D01*
X96591985Y-27438470D01*
X96916775Y-27513454D01*
X97020284Y-27488479D01*
X97077395Y-27452792D01*
X97145217Y-27370707D01*
X97166641Y-27277910D01*
X97141667Y-27174401D01*
X97105980Y-27117290D01*
X97023895Y-27049468D01*
X96699105Y-26974484D01*
X97473558Y-27641997D02*
X98076740Y-27781252D01*
X97837645Y-27335080D01*
X97976841Y-27367216D01*
X98080350Y-27342241D01*
X98137461Y-27306555D01*
X98205283Y-27224470D01*
X98258843Y-26992477D01*
X98233868Y-26888968D01*
X98198182Y-26831857D01*
X98116096Y-26764035D01*
X97837705Y-26699763D01*
X97734196Y-26724737D01*
X97677085Y-26760424D01*
X79654976Y-7552920D02*
X79804884Y-7538658D01*
X80036877Y-7592217D01*
X80118962Y-7660040D01*
X80154649Y-7717150D01*
X80179623Y-7820659D01*
X80158200Y-7913457D01*
X80090377Y-7995542D01*
X80033267Y-8031228D01*
X79929757Y-8056203D01*
X79733451Y-8059754D01*
X79629942Y-8084728D01*
X79572832Y-8120415D01*
X79505009Y-8202500D01*
X79483585Y-8295297D01*
X79508560Y-8398807D01*
X79544246Y-8455917D01*
X79626332Y-8523740D01*
X79858325Y-8577299D01*
X80008232Y-8563037D01*
X80397294Y-8359629D02*
X80732856Y-7752897D01*
X80811330Y-8259730D01*
X81104044Y-7838592D01*
X81139671Y-8531020D01*
X81550157Y-8234815D02*
X82014143Y-8341935D01*
X81521631Y-7935000D02*
X81621470Y-8984354D01*
X82171211Y-8084967D01*
X82246076Y-9030812D02*
X82281762Y-9087922D01*
X82363848Y-9155745D01*
X82595840Y-9209305D01*
X82699350Y-9184330D01*
X82756460Y-9148643D01*
X82824283Y-9066558D01*
X82845706Y-8973761D01*
X82831444Y-8823853D01*
X82403204Y-8138527D01*
X83006386Y-8277782D01*
X75311304Y-26049882D02*
X75461211Y-26035620D01*
X75693204Y-26089179D01*
X75775289Y-26157002D01*
X75810976Y-26214112D01*
X75835951Y-26317621D01*
X75814527Y-26410419D01*
X75746704Y-26492504D01*
X75689594Y-26528190D01*
X75586085Y-26553165D01*
X75389778Y-26556716D01*
X75286269Y-26581691D01*
X75229159Y-26617377D01*
X75161336Y-26699462D01*
X75139912Y-26792259D01*
X75164887Y-26895769D01*
X75200574Y-26952879D01*
X75282659Y-27020702D01*
X75514652Y-27074261D01*
X75664559Y-27059999D01*
X76053621Y-26856591D02*
X76389183Y-26249859D01*
X76467657Y-26756692D01*
X76760371Y-26335554D01*
X76795998Y-27027982D01*
X77524113Y-27049466D02*
X77674020Y-27035203D01*
X77731131Y-26999516D01*
X77798953Y-26917431D01*
X77831089Y-26778236D01*
X77806115Y-26674726D01*
X77770428Y-26617616D01*
X77688343Y-26549793D01*
X77317154Y-26464098D01*
X77092203Y-27438468D01*
X77416993Y-27513452D01*
X77520502Y-27488477D01*
X77577613Y-27452790D01*
X77645435Y-27370705D01*
X77666859Y-27277908D01*
X77641885Y-27174399D01*
X77606198Y-27117288D01*
X77524113Y-27049466D01*
X77199323Y-26974482D01*
X78041599Y-27559910D02*
X78077285Y-27617020D01*
X78159370Y-27684843D01*
X78391363Y-27738403D01*
X78494872Y-27713428D01*
X78551983Y-27677741D01*
X78619805Y-27595656D01*
X78641229Y-27502859D01*
X78626967Y-27352951D01*
X78198727Y-26667625D01*
X78801909Y-26806880D01*
X71037235Y-44562913D02*
X71187142Y-44548651D01*
X71419135Y-44602210D01*
X71501220Y-44670033D01*
X71536907Y-44727143D01*
X71561882Y-44830652D01*
X71540458Y-44923450D01*
X71472635Y-45005535D01*
X71415525Y-45041221D01*
X71312016Y-45066196D01*
X71115709Y-45069747D01*
X71012200Y-45094722D01*
X70955090Y-45130408D01*
X70887267Y-45212493D01*
X70865843Y-45305290D01*
X70890818Y-45408800D01*
X70926505Y-45465910D01*
X71008590Y-45533733D01*
X71240583Y-45587292D01*
X71390490Y-45573030D01*
X71779552Y-45369622D02*
X72115114Y-44762890D01*
X72193588Y-45269723D01*
X72486302Y-44848585D01*
X72521929Y-45541013D01*
X73578444Y-45198469D02*
X73542758Y-45141359D01*
X73414274Y-45062824D01*
X73321477Y-45041401D01*
X73171569Y-45055663D01*
X73057348Y-45127036D01*
X72989525Y-45209122D01*
X72900279Y-45384004D01*
X72868143Y-45523200D01*
X72871694Y-45719506D01*
X72896669Y-45823015D01*
X72968042Y-45937236D01*
X73096526Y-46015771D01*
X73189323Y-46037194D01*
X73339230Y-46022932D01*
X73396341Y-45987245D01*
X73767530Y-46072941D02*
X73803216Y-46130051D01*
X73885301Y-46197874D01*
X74117294Y-46251434D01*
X74220803Y-46226459D01*
X74277914Y-46190772D01*
X74345736Y-46108687D01*
X74367160Y-46015890D01*
X74352898Y-45865982D01*
X73924658Y-45180656D01*
X74527840Y-45319911D01*
X55811529Y-26049883D02*
X55961436Y-26035621D01*
X56193429Y-26089180D01*
X56275514Y-26157003D01*
X56311201Y-26214113D01*
X56336176Y-26317622D01*
X56314752Y-26410420D01*
X56246929Y-26492505D01*
X56189819Y-26528191D01*
X56086310Y-26553166D01*
X55890003Y-26556717D01*
X55786494Y-26581692D01*
X55729384Y-26617378D01*
X55661561Y-26699463D01*
X55640137Y-26792260D01*
X55665112Y-26895770D01*
X55700799Y-26952880D01*
X55782884Y-27020703D01*
X56014877Y-27074262D01*
X56164784Y-27060000D01*
X56553846Y-26856592D02*
X56889408Y-26249860D01*
X56967882Y-26756693D01*
X57260596Y-26335555D01*
X57296223Y-27027983D01*
X58024338Y-27049467D02*
X58174245Y-27035204D01*
X58231356Y-26999517D01*
X58299178Y-26917432D01*
X58331314Y-26778237D01*
X58306340Y-26674727D01*
X58270653Y-26617617D01*
X58188568Y-26549794D01*
X57817379Y-26464099D01*
X57592428Y-27438469D01*
X57917218Y-27513453D01*
X58020727Y-27488478D01*
X58077838Y-27452791D01*
X58145660Y-27370706D01*
X58167084Y-27277909D01*
X58142110Y-27174400D01*
X58106423Y-27117289D01*
X58024338Y-27049467D01*
X57699548Y-26974483D01*
X59302134Y-26806881D02*
X58745351Y-26678338D01*
X59023742Y-26742610D02*
X58798791Y-27716980D01*
X58738130Y-27556360D01*
X58666757Y-27442139D01*
X58584671Y-27374317D01*
X60155198Y-7552917D02*
X60305106Y-7538655D01*
X60537099Y-7592214D01*
X60619184Y-7660037D01*
X60654871Y-7717147D01*
X60679845Y-7820656D01*
X60658422Y-7913454D01*
X60590599Y-7995539D01*
X60533489Y-8031225D01*
X60429979Y-8056200D01*
X60233673Y-8059751D01*
X60130164Y-8084725D01*
X60073054Y-8120412D01*
X60005231Y-8202497D01*
X59983807Y-8295294D01*
X60008782Y-8398804D01*
X60044468Y-8455914D01*
X60126554Y-8523737D01*
X60358547Y-8577296D01*
X60508454Y-8563034D01*
X60897516Y-8359626D02*
X61233078Y-7752894D01*
X61311552Y-8259727D01*
X61604266Y-7838589D01*
X61639893Y-8531017D01*
X62050379Y-8234812D02*
X62514365Y-8341932D01*
X62021853Y-7934997D02*
X62121692Y-8984351D01*
X62671433Y-8084964D01*
X63506608Y-8277779D02*
X62949825Y-8149236D01*
X63228216Y-8213508D02*
X63003265Y-9187878D01*
X62942604Y-9027258D01*
X62871231Y-8913037D01*
X62789146Y-8845215D01*
X51537458Y-44562911D02*
X51687365Y-44548649D01*
X51919358Y-44602208D01*
X52001443Y-44670031D01*
X52037130Y-44727141D01*
X52062105Y-44830650D01*
X52040681Y-44923448D01*
X51972858Y-45005533D01*
X51915748Y-45041219D01*
X51812239Y-45066194D01*
X51615932Y-45069745D01*
X51512423Y-45094720D01*
X51455313Y-45130406D01*
X51387490Y-45212491D01*
X51366066Y-45305288D01*
X51391041Y-45408798D01*
X51426728Y-45465908D01*
X51508813Y-45533731D01*
X51740806Y-45587290D01*
X51890713Y-45573028D01*
X52279775Y-45369620D02*
X52615337Y-44762888D01*
X52693811Y-45269721D01*
X52986525Y-44848583D01*
X53022152Y-45541011D01*
X54078667Y-45198467D02*
X54042981Y-45141357D01*
X53914497Y-45062822D01*
X53821700Y-45041399D01*
X53671792Y-45055661D01*
X53557571Y-45127034D01*
X53489748Y-45209120D01*
X53400502Y-45384002D01*
X53368366Y-45523198D01*
X53371917Y-45719504D01*
X53396892Y-45823013D01*
X53468265Y-45937234D01*
X53596749Y-46015769D01*
X53689546Y-46037192D01*
X53839453Y-46022930D01*
X53896564Y-45987243D01*
X55028063Y-45319909D02*
X54471280Y-45191366D01*
X54749671Y-45255638D02*
X54524720Y-46230008D01*
X54464059Y-46069388D01*
X54392686Y-45955167D01*
X54310600Y-45887345D01*
X36311747Y-26049882D02*
X36461654Y-26035620D01*
X36693647Y-26089179D01*
X36775732Y-26157002D01*
X36811419Y-26214112D01*
X36836394Y-26317621D01*
X36814970Y-26410419D01*
X36747147Y-26492504D01*
X36690037Y-26528190D01*
X36586528Y-26553165D01*
X36390221Y-26556716D01*
X36286712Y-26581691D01*
X36229602Y-26617377D01*
X36161779Y-26699462D01*
X36140355Y-26792259D01*
X36165330Y-26895769D01*
X36201017Y-26952879D01*
X36283102Y-27020702D01*
X36515095Y-27074261D01*
X36665002Y-27059999D01*
X37054064Y-26856591D02*
X37389626Y-26249859D01*
X37468100Y-26756692D01*
X37760814Y-26335554D01*
X37796441Y-27027982D01*
X38524556Y-27049466D02*
X38674463Y-27035203D01*
X38731574Y-26999516D01*
X38799396Y-26917431D01*
X38831532Y-26778236D01*
X38806558Y-26674726D01*
X38770871Y-26617616D01*
X38688786Y-26549793D01*
X38317597Y-26464098D01*
X38092646Y-27438468D01*
X38417436Y-27513452D01*
X38520945Y-27488477D01*
X38578056Y-27452790D01*
X38645878Y-27370705D01*
X38667302Y-27277908D01*
X38642328Y-27174399D01*
X38606641Y-27117288D01*
X38524556Y-27049466D01*
X38199766Y-26974482D01*
X39252611Y-27706267D02*
X39345408Y-27727691D01*
X39448917Y-27702716D01*
X39506027Y-27667029D01*
X39573850Y-27584944D01*
X39663096Y-27410062D01*
X39716656Y-27178069D01*
X39713105Y-26981763D01*
X39688131Y-26878254D01*
X39652444Y-26821143D01*
X39570359Y-26753321D01*
X39477562Y-26731897D01*
X39374052Y-26756871D01*
X39316942Y-26792558D01*
X39249119Y-26874643D01*
X39159873Y-27049525D01*
X39106313Y-27281518D01*
X39109864Y-27477825D01*
X39134839Y-27581334D01*
X39170525Y-27638444D01*
X39252611Y-27706267D01*
X32037678Y-44562911D02*
X32187585Y-44548649D01*
X32419578Y-44602208D01*
X32501663Y-44670031D01*
X32537350Y-44727141D01*
X32562325Y-44830650D01*
X32540901Y-44923448D01*
X32473078Y-45005533D01*
X32415968Y-45041219D01*
X32312459Y-45066194D01*
X32116152Y-45069745D01*
X32012643Y-45094720D01*
X31955533Y-45130406D01*
X31887710Y-45212491D01*
X31866286Y-45305288D01*
X31891261Y-45408798D01*
X31926948Y-45465908D01*
X32009033Y-45533731D01*
X32241026Y-45587290D01*
X32390933Y-45573028D01*
X32779995Y-45369620D02*
X33115557Y-44762888D01*
X33194031Y-45269721D01*
X33486745Y-44848583D01*
X33522372Y-45541011D01*
X34578887Y-45198467D02*
X34543201Y-45141357D01*
X34414717Y-45062822D01*
X34321920Y-45041399D01*
X34172012Y-45055661D01*
X34057791Y-45127034D01*
X33989968Y-45209120D01*
X33900722Y-45384002D01*
X33868586Y-45523198D01*
X33872137Y-45719504D01*
X33897112Y-45823013D01*
X33968485Y-45937234D01*
X34096969Y-46015769D01*
X34189766Y-46037192D01*
X34339673Y-46022930D01*
X34396784Y-45987243D01*
X34978542Y-46219296D02*
X35071339Y-46240720D01*
X35174848Y-46215745D01*
X35231958Y-46180058D01*
X35299781Y-46097973D01*
X35389027Y-45923091D01*
X35442587Y-45691098D01*
X35439036Y-45494792D01*
X35414062Y-45391283D01*
X35378375Y-45334172D01*
X35296290Y-45266350D01*
X35203493Y-45244926D01*
X35099983Y-45269900D01*
X35042873Y-45305587D01*
X34975050Y-45387672D01*
X34885804Y-45562554D01*
X34832244Y-45794547D01*
X34835795Y-45990854D01*
X34860770Y-46094363D01*
X34896456Y-46151473D01*
X34978542Y-46219296D01*
X40655414Y-7552922D02*
X40805322Y-7538660D01*
X41037315Y-7592219D01*
X41119400Y-7660042D01*
X41155087Y-7717152D01*
X41180061Y-7820661D01*
X41158638Y-7913459D01*
X41090815Y-7995544D01*
X41033705Y-8031230D01*
X40930195Y-8056205D01*
X40733889Y-8059756D01*
X40630380Y-8084730D01*
X40573270Y-8120417D01*
X40505447Y-8202502D01*
X40484023Y-8295299D01*
X40508998Y-8398809D01*
X40544684Y-8455919D01*
X40626770Y-8523742D01*
X40858763Y-8577301D01*
X41008670Y-8563039D01*
X41397732Y-8359631D02*
X41733294Y-7752899D01*
X41811768Y-8259732D01*
X42104482Y-7838594D01*
X42140109Y-8531022D01*
X42550595Y-8234817D02*
X43014581Y-8341937D01*
X42522069Y-7935002D02*
X42621908Y-8984356D01*
X43171649Y-8084969D01*
X43457083Y-9177171D02*
X43549880Y-9198595D01*
X43653389Y-9173620D01*
X43710499Y-9137933D01*
X43778322Y-9055848D01*
X43867568Y-8880966D01*
X43921128Y-8648973D01*
X43917577Y-8452667D01*
X43892603Y-8349158D01*
X43856916Y-8292047D01*
X43774831Y-8224225D01*
X43682034Y-8202801D01*
X43578525Y-8227775D01*
X43521414Y-8263462D01*
X43453592Y-8345547D01*
X43364345Y-8520430D01*
X43310785Y-8752422D01*
X43314336Y-8948729D01*
X43339311Y-9052238D01*
X43374997Y-9109348D01*
X43457083Y-9177171D01*
X116124473Y-80000083D02*
X116274380Y-79985821D01*
X116506373Y-80039380D01*
X116588458Y-80107203D01*
X116624145Y-80164313D01*
X116649120Y-80267822D01*
X116627696Y-80360620D01*
X116559873Y-80442705D01*
X116502763Y-80478391D01*
X116399254Y-80503366D01*
X116202947Y-80506917D01*
X116099438Y-80531892D01*
X116042328Y-80567578D01*
X115974505Y-80649663D01*
X115953081Y-80742460D01*
X115978056Y-80845970D01*
X116013743Y-80903080D01*
X116095828Y-80970903D01*
X116327821Y-81024462D01*
X116477728Y-81010200D01*
X116866790Y-80806792D02*
X117202352Y-80200060D01*
X117280826Y-80706893D01*
X117573540Y-80285755D01*
X117609167Y-80978183D01*
X118426468Y-81460102D02*
X118322959Y-81485076D01*
X118183764Y-81452941D01*
X118055280Y-81374406D01*
X117983907Y-81260185D01*
X117958932Y-81156676D01*
X117955381Y-80960370D01*
X117987517Y-80821174D01*
X118076763Y-80646292D01*
X118144586Y-80564206D01*
X118258807Y-80492833D01*
X118408715Y-80478571D01*
X118501512Y-80499994D01*
X118629996Y-80578529D01*
X118665682Y-80635639D01*
X118590699Y-80960429D01*
X118405104Y-80917582D01*
X119615078Y-80757081D02*
X119058295Y-80628538D01*
X119336686Y-80692810D02*
X119111735Y-81667180D01*
X119051074Y-81506560D01*
X118979701Y-81392339D01*
X118897615Y-81324517D01*
X183396901Y-79074730D02*
X183268417Y-79153265D01*
X183036424Y-79206824D01*
X182932915Y-79181850D01*
X182875804Y-79146163D01*
X182807982Y-79064078D01*
X182786558Y-78971281D01*
X182811533Y-78867772D01*
X182847219Y-78810661D01*
X182929304Y-78742839D01*
X183104187Y-78653592D01*
X183186272Y-78585770D01*
X183221959Y-78528659D01*
X183246933Y-78425150D01*
X183225509Y-78332353D01*
X183157687Y-78250268D01*
X183100576Y-78214581D01*
X182997067Y-78189606D01*
X182765074Y-78243166D01*
X182636591Y-78321701D01*
X182376072Y-78675076D02*
X182340445Y-79367504D01*
X182047732Y-78946366D01*
X181969257Y-79453199D01*
X181633695Y-78846467D01*
X180687850Y-78771603D02*
X180769936Y-78703780D01*
X180909131Y-78671644D01*
X181059039Y-78685907D01*
X181173260Y-78757280D01*
X181241083Y-78839366D01*
X181330329Y-79014248D01*
X181362465Y-79153444D01*
X181358914Y-79349750D01*
X181333939Y-79453259D01*
X181262566Y-79567480D01*
X181134082Y-79646014D01*
X181041285Y-79667438D01*
X180891378Y-79653176D01*
X180834267Y-79617489D01*
X180759283Y-79292699D01*
X180944878Y-79249851D01*
X180305950Y-78810900D02*
X179702768Y-78950155D01*
X180113254Y-79246360D01*
X179974058Y-79278496D01*
X179891973Y-79346318D01*
X179856287Y-79403429D01*
X179831312Y-79506938D01*
X179884872Y-79738931D01*
X179952694Y-79821016D01*
X180009805Y-79856703D01*
X180113314Y-79881677D01*
X180391705Y-79817406D01*
X180473790Y-79749583D01*
X180509477Y-79692473D01*
X267414093Y-43653635D02*
X267285609Y-43732169D01*
X267053616Y-43785729D01*
X266950107Y-43760755D01*
X266892997Y-43725068D01*
X266825174Y-43642983D01*
X266803750Y-43550186D01*
X266828725Y-43446676D01*
X266864411Y-43389566D01*
X266946497Y-43321743D01*
X267121379Y-43232497D01*
X267203464Y-43164675D01*
X267239151Y-43107564D01*
X267264125Y-43004055D01*
X267242702Y-42911258D01*
X267174879Y-42829173D01*
X267117769Y-42793486D01*
X267014259Y-42768511D01*
X266782267Y-42822071D01*
X266653783Y-42900606D01*
X266393264Y-43253981D02*
X266357638Y-43946409D01*
X266064924Y-43525271D01*
X265986449Y-44032104D01*
X265650887Y-43425372D01*
X264987045Y-43725247D02*
X265311835Y-43650263D01*
X265429666Y-44160648D02*
X265204715Y-43186278D01*
X264740729Y-43293397D01*
X263905555Y-43486212D02*
X264369541Y-43379093D01*
X264523059Y-43832367D01*
X264465948Y-43796680D01*
X264362439Y-43771705D01*
X264130446Y-43825265D01*
X264048361Y-43893088D01*
X264012674Y-43950198D01*
X263987700Y-44053707D01*
X264041260Y-44285700D01*
X264109082Y-44367785D01*
X264166193Y-44403472D01*
X264269702Y-44428447D01*
X264501695Y-44374887D01*
X264583780Y-44307064D01*
X264619466Y-44249954D01*
X239435773Y-6611499D02*
X239307289Y-6690034D01*
X239075296Y-6743593D01*
X238971787Y-6718619D01*
X238914676Y-6682932D01*
X238846854Y-6600847D01*
X238825430Y-6508050D01*
X238850405Y-6404541D01*
X238886091Y-6347430D01*
X238968176Y-6279608D01*
X239143059Y-6190361D01*
X239225144Y-6122539D01*
X239260831Y-6065428D01*
X239285805Y-5961919D01*
X239264381Y-5869122D01*
X239196559Y-5787037D01*
X239139448Y-5751350D01*
X239035939Y-5726375D01*
X238803946Y-5779935D01*
X238675463Y-5858470D01*
X238414944Y-6211845D02*
X238379317Y-6904273D01*
X238086604Y-6483135D01*
X238008129Y-6989968D01*
X237672567Y-6383236D01*
X237451346Y-7118512D02*
X237226395Y-6144142D01*
X236994402Y-6197701D01*
X236865918Y-6276236D01*
X236794545Y-6390457D01*
X236769570Y-6493966D01*
X236766020Y-6690272D01*
X236798155Y-6829468D01*
X236887402Y-7004350D01*
X236955224Y-7086436D01*
X237069445Y-7157809D01*
X237219353Y-7172071D01*
X237451346Y-7118512D01*
X235909421Y-6790290D02*
X236059389Y-7439870D01*
X236055719Y-6365542D02*
X236448391Y-7007961D01*
X235845209Y-7147216D01*
X247914316Y-43653633D02*
X247785832Y-43732167D01*
X247553839Y-43785727D01*
X247450330Y-43760753D01*
X247393220Y-43725066D01*
X247325397Y-43642981D01*
X247303973Y-43550184D01*
X247328948Y-43446674D01*
X247364634Y-43389564D01*
X247446720Y-43321741D01*
X247621602Y-43232495D01*
X247703687Y-43164673D01*
X247739374Y-43107562D01*
X247764348Y-43004053D01*
X247742925Y-42911256D01*
X247675102Y-42829171D01*
X247617992Y-42793484D01*
X247514482Y-42768509D01*
X247282490Y-42822069D01*
X247154006Y-42900604D01*
X246893487Y-43253979D02*
X246857861Y-43946407D01*
X246565147Y-43525269D01*
X246486672Y-44032102D01*
X246151110Y-43425370D01*
X245487268Y-43725245D02*
X245812058Y-43650261D01*
X245929889Y-44160646D02*
X245704938Y-43186276D01*
X245240952Y-43293395D01*
X244527160Y-43800288D02*
X244677128Y-44449868D01*
X244673457Y-43375540D02*
X245066130Y-44017959D01*
X244462948Y-44157214D01*
X243663445Y-25135245D02*
X243534961Y-25213779D01*
X243302968Y-25267339D01*
X243199459Y-25242365D01*
X243142349Y-25206678D01*
X243074526Y-25124593D01*
X243053102Y-25031796D01*
X243078077Y-24928287D01*
X243113764Y-24871176D01*
X243195849Y-24803353D01*
X243370731Y-24714107D01*
X243452816Y-24646285D01*
X243488503Y-24589174D01*
X243513478Y-24485665D01*
X243492054Y-24392868D01*
X243424231Y-24310783D01*
X243367121Y-24275096D01*
X243263612Y-24250121D01*
X243031619Y-24303681D01*
X242903135Y-24382216D01*
X242642617Y-24735591D02*
X242606990Y-25428019D01*
X242314276Y-25006881D01*
X242235801Y-25513714D01*
X241900240Y-24906982D01*
X241561187Y-25131873D02*
X241236397Y-25206857D01*
X241215033Y-25749377D02*
X241679018Y-25642258D01*
X241454067Y-24667888D01*
X240990082Y-24775007D01*
X240229891Y-25292612D02*
X240379858Y-25942192D01*
X240376188Y-24867864D02*
X240768860Y-25510283D01*
X240165679Y-25649538D01*
X258935551Y-6611502D02*
X258807067Y-6690037D01*
X258575074Y-6743596D01*
X258471565Y-6718622D01*
X258414454Y-6682935D01*
X258346632Y-6600850D01*
X258325208Y-6508053D01*
X258350183Y-6404544D01*
X258385869Y-6347433D01*
X258467954Y-6279611D01*
X258642837Y-6190364D01*
X258724922Y-6122542D01*
X258760609Y-6065431D01*
X258785583Y-5961922D01*
X258764159Y-5869125D01*
X258696337Y-5787040D01*
X258639226Y-5751353D01*
X258535717Y-5726378D01*
X258303724Y-5779938D01*
X258175241Y-5858473D01*
X257914722Y-6211848D02*
X257879095Y-6904276D01*
X257586382Y-6483138D01*
X257507907Y-6989971D01*
X257172345Y-6383239D01*
X256951124Y-7118515D02*
X256726173Y-6144145D01*
X256494180Y-6197704D01*
X256365696Y-6276239D01*
X256294323Y-6390460D01*
X256269348Y-6493969D01*
X256265798Y-6690275D01*
X256297933Y-6829471D01*
X256387180Y-7004353D01*
X256455002Y-7086439D01*
X256569223Y-7157812D01*
X256719131Y-7172074D01*
X256951124Y-7118515D01*
X255287817Y-6476215D02*
X255751803Y-6369096D01*
X255905321Y-6822369D01*
X255848210Y-6786683D01*
X255744701Y-6761708D01*
X255512708Y-6815268D01*
X255430623Y-6883090D01*
X255394937Y-6940201D01*
X255369962Y-7043710D01*
X255423522Y-7275703D01*
X255491344Y-7357788D01*
X255548455Y-7393475D01*
X255651964Y-7418449D01*
X255883957Y-7364890D01*
X255966042Y-7297067D01*
X256001729Y-7239957D01*
X263163223Y-25135241D02*
X263034739Y-25213775D01*
X262802746Y-25267335D01*
X262699237Y-25242361D01*
X262642127Y-25206674D01*
X262574304Y-25124589D01*
X262552880Y-25031792D01*
X262577855Y-24928283D01*
X262613542Y-24871172D01*
X262695627Y-24803349D01*
X262870509Y-24714103D01*
X262952594Y-24646281D01*
X262988281Y-24589170D01*
X263013256Y-24485661D01*
X262991832Y-24392864D01*
X262924009Y-24310779D01*
X262866899Y-24275092D01*
X262763390Y-24250117D01*
X262531397Y-24303677D01*
X262402913Y-24382212D01*
X262142395Y-24735587D02*
X262106768Y-25428015D01*
X261814054Y-25006877D01*
X261735579Y-25513710D01*
X261400018Y-24906978D01*
X261060965Y-25131869D02*
X260736175Y-25206853D01*
X260714811Y-25749373D02*
X261178796Y-25642254D01*
X260953845Y-24667884D01*
X260489860Y-24775003D01*
X259608287Y-24978530D02*
X260072272Y-24871411D01*
X260225790Y-25324685D01*
X260168680Y-25288998D01*
X260065171Y-25264023D01*
X259833178Y-25317583D01*
X259751093Y-25385406D01*
X259715406Y-25442516D01*
X259690432Y-25546025D01*
X259743991Y-25778018D01*
X259811814Y-25860103D01*
X259868924Y-25895790D01*
X259972433Y-25920764D01*
X260204426Y-25867205D01*
X260286511Y-25799382D01*
X260322198Y-25742272D01*
X224163666Y-25135244D02*
X224035182Y-25213778D01*
X223803189Y-25267338D01*
X223699680Y-25242364D01*
X223642570Y-25206677D01*
X223574747Y-25124592D01*
X223553323Y-25031795D01*
X223578298Y-24928286D01*
X223613985Y-24871175D01*
X223696070Y-24803352D01*
X223870952Y-24714106D01*
X223953037Y-24646284D01*
X223988724Y-24589173D01*
X224013699Y-24485664D01*
X223992275Y-24392867D01*
X223924452Y-24310782D01*
X223867342Y-24275095D01*
X223763833Y-24250120D01*
X223531840Y-24303680D01*
X223403356Y-24382215D01*
X223142838Y-24735590D02*
X223107211Y-25428018D01*
X222814497Y-25006880D01*
X222736022Y-25513713D01*
X222400461Y-24906981D01*
X222061408Y-25131872D02*
X221736618Y-25206856D01*
X221715254Y-25749376D02*
X222179239Y-25642257D01*
X221954288Y-24667887D01*
X221490303Y-24775006D01*
X221165513Y-24849990D02*
X220562331Y-24989245D01*
X220972817Y-25285450D01*
X220833621Y-25317586D01*
X220751536Y-25385409D01*
X220715849Y-25442519D01*
X220690875Y-25546028D01*
X220744434Y-25778021D01*
X220812257Y-25860106D01*
X220869367Y-25895793D01*
X220972876Y-25920767D01*
X221251268Y-25856496D01*
X221333353Y-25788673D01*
X221369040Y-25731563D01*
X228414538Y-43653631D02*
X228286054Y-43732165D01*
X228054061Y-43785725D01*
X227950552Y-43760751D01*
X227893442Y-43725064D01*
X227825619Y-43642979D01*
X227804195Y-43550182D01*
X227829170Y-43446672D01*
X227864856Y-43389562D01*
X227946942Y-43321739D01*
X228121824Y-43232493D01*
X228203909Y-43164671D01*
X228239596Y-43107560D01*
X228264570Y-43004051D01*
X228243147Y-42911254D01*
X228175324Y-42829169D01*
X228118214Y-42793482D01*
X228014704Y-42768507D01*
X227782712Y-42822067D01*
X227654228Y-42900602D01*
X227393709Y-43253977D02*
X227358083Y-43946405D01*
X227065369Y-43525267D01*
X226986894Y-44032100D01*
X226651332Y-43425368D01*
X225987490Y-43725243D02*
X226312280Y-43650259D01*
X226430111Y-44160644D02*
X226205160Y-43186274D01*
X225741174Y-43293393D01*
X225462783Y-43357665D02*
X224859601Y-43496920D01*
X225270087Y-43793125D01*
X225130891Y-43825261D01*
X225048806Y-43893084D01*
X225013119Y-43950194D01*
X224988145Y-44053703D01*
X225041705Y-44285696D01*
X225109527Y-44367781D01*
X225166638Y-44403468D01*
X225270147Y-44428443D01*
X225548538Y-44364171D01*
X225630623Y-44296348D01*
X225666310Y-44239238D01*
X219935996Y-6611501D02*
X219807512Y-6690036D01*
X219575519Y-6743595D01*
X219472010Y-6718621D01*
X219414899Y-6682934D01*
X219347077Y-6600849D01*
X219325653Y-6508052D01*
X219350628Y-6404543D01*
X219386314Y-6347432D01*
X219468399Y-6279610D01*
X219643282Y-6190363D01*
X219725367Y-6122541D01*
X219761054Y-6065430D01*
X219786028Y-5961921D01*
X219764604Y-5869124D01*
X219696782Y-5787039D01*
X219639671Y-5751352D01*
X219536162Y-5726377D01*
X219304169Y-5779937D01*
X219175686Y-5858472D01*
X218915167Y-6211847D02*
X218879540Y-6904275D01*
X218586827Y-6483137D01*
X218508352Y-6989970D01*
X218172790Y-6383238D01*
X217951569Y-7118514D02*
X217726618Y-6144144D01*
X217494625Y-6197703D01*
X217366141Y-6276238D01*
X217294768Y-6390459D01*
X217269793Y-6493968D01*
X217266243Y-6690274D01*
X217298378Y-6829470D01*
X217387625Y-7004352D01*
X217455447Y-7086438D01*
X217569668Y-7157811D01*
X217719576Y-7172073D01*
X217951569Y-7118514D01*
X216845045Y-6347671D02*
X216241863Y-6486926D01*
X216652349Y-6783131D01*
X216513153Y-6815267D01*
X216431068Y-6883089D01*
X216395382Y-6940200D01*
X216370407Y-7043709D01*
X216423967Y-7275702D01*
X216491789Y-7357787D01*
X216548900Y-7393474D01*
X216652409Y-7418448D01*
X216930800Y-7354177D01*
X217012885Y-7286354D01*
X217048572Y-7229244D01*
X200436217Y-6611504D02*
X200307733Y-6690039D01*
X200075740Y-6743598D01*
X199972231Y-6718624D01*
X199915120Y-6682937D01*
X199847298Y-6600852D01*
X199825874Y-6508055D01*
X199850849Y-6404546D01*
X199886535Y-6347435D01*
X199968620Y-6279613D01*
X200143503Y-6190366D01*
X200225588Y-6122544D01*
X200261275Y-6065433D01*
X200286249Y-5961924D01*
X200264825Y-5869127D01*
X200197003Y-5787042D01*
X200139892Y-5751355D01*
X200036383Y-5726380D01*
X199804390Y-5779940D01*
X199675907Y-5858475D01*
X199415388Y-6211850D02*
X199379761Y-6904278D01*
X199087048Y-6483140D01*
X199008573Y-6989973D01*
X198673011Y-6383241D01*
X198451790Y-7118517D02*
X198226839Y-6144147D01*
X197994846Y-6197706D01*
X197866362Y-6276241D01*
X197794989Y-6390462D01*
X197770014Y-6493971D01*
X197766464Y-6690277D01*
X197798599Y-6829473D01*
X197887846Y-7004355D01*
X197955668Y-7086441D01*
X198069889Y-7157814D01*
X198219797Y-7172076D01*
X198451790Y-7118517D01*
X197320291Y-6451183D02*
X197263181Y-6415496D01*
X197159672Y-6390522D01*
X196927679Y-6444081D01*
X196845594Y-6511904D01*
X196809907Y-6569014D01*
X196784932Y-6672524D01*
X196806356Y-6765321D01*
X196884891Y-6893804D01*
X197570217Y-7322044D01*
X196967036Y-7461299D01*
X204663887Y-25135244D02*
X204535403Y-25213778D01*
X204303410Y-25267338D01*
X204199901Y-25242364D01*
X204142791Y-25206677D01*
X204074968Y-25124592D01*
X204053544Y-25031795D01*
X204078519Y-24928286D01*
X204114206Y-24871175D01*
X204196291Y-24803352D01*
X204371173Y-24714106D01*
X204453258Y-24646284D01*
X204488945Y-24589173D01*
X204513920Y-24485664D01*
X204492496Y-24392867D01*
X204424673Y-24310782D01*
X204367563Y-24275095D01*
X204264054Y-24250120D01*
X204032061Y-24303680D01*
X203903577Y-24382215D01*
X203643059Y-24735590D02*
X203607432Y-25428018D01*
X203314718Y-25006880D01*
X203236243Y-25513713D01*
X202900682Y-24906981D01*
X202561629Y-25131872D02*
X202236839Y-25206856D01*
X202215475Y-25749376D02*
X202679460Y-25642257D01*
X202454509Y-24667887D01*
X201990524Y-24775006D01*
X201640759Y-24953499D02*
X201583648Y-24917812D01*
X201480139Y-24892838D01*
X201248146Y-24946397D01*
X201166061Y-25014220D01*
X201130375Y-25071330D01*
X201105400Y-25174840D01*
X201126824Y-25267637D01*
X201205358Y-25396120D01*
X201890685Y-25824360D01*
X201287503Y-25963615D01*
X208914759Y-43653633D02*
X208786275Y-43732167D01*
X208554282Y-43785727D01*
X208450773Y-43760753D01*
X208393663Y-43725066D01*
X208325840Y-43642981D01*
X208304416Y-43550184D01*
X208329391Y-43446674D01*
X208365077Y-43389564D01*
X208447163Y-43321741D01*
X208622045Y-43232495D01*
X208704130Y-43164673D01*
X208739817Y-43107562D01*
X208764791Y-43004053D01*
X208743368Y-42911256D01*
X208675545Y-42829171D01*
X208618435Y-42793484D01*
X208514925Y-42768509D01*
X208282933Y-42822069D01*
X208154449Y-42900604D01*
X207893930Y-43253979D02*
X207858304Y-43946407D01*
X207565590Y-43525269D01*
X207487115Y-44032102D01*
X207151553Y-43425370D01*
X206487711Y-43725245D02*
X206812501Y-43650261D01*
X206930332Y-44160646D02*
X206705381Y-43186276D01*
X206241395Y-43293395D01*
X205938029Y-43461176D02*
X205880919Y-43425489D01*
X205777410Y-43400515D01*
X205545417Y-43454074D01*
X205463331Y-43521897D01*
X205427645Y-43579007D01*
X205402670Y-43682517D01*
X205424094Y-43775314D01*
X205502629Y-43903797D01*
X206187955Y-44332037D01*
X205584773Y-44471292D01*
X191388473Y-52201771D02*
X191259989Y-52280305D01*
X191027996Y-52333865D01*
X190924487Y-52308891D01*
X190867377Y-52273204D01*
X190799554Y-52191119D01*
X190778130Y-52098322D01*
X190803105Y-51994812D01*
X190838791Y-51937702D01*
X190920877Y-51869879D01*
X191095759Y-51780633D01*
X191177844Y-51712811D01*
X191213531Y-51655700D01*
X191238505Y-51552191D01*
X191217082Y-51459394D01*
X191149259Y-51377309D01*
X191092149Y-51341622D01*
X190988639Y-51316647D01*
X190756647Y-51370207D01*
X190628163Y-51448742D01*
X190367644Y-51802117D02*
X190332018Y-52494545D01*
X190039304Y-52073407D01*
X189960829Y-52580240D01*
X189625267Y-51973508D01*
X188961425Y-52273383D02*
X189286215Y-52198399D01*
X189404046Y-52708784D02*
X189179095Y-51734414D01*
X188715109Y-51841533D01*
X188058487Y-53019430D02*
X188615270Y-52890887D01*
X188336879Y-52955159D02*
X188111928Y-51980789D01*
X188236861Y-52098560D01*
X188351082Y-52169934D01*
X188454591Y-52194908D01*
X182909931Y-15159642D02*
X182781447Y-15238177D01*
X182549454Y-15291736D01*
X182445945Y-15266762D01*
X182388834Y-15231075D01*
X182321012Y-15148990D01*
X182299588Y-15056193D01*
X182324563Y-14952684D01*
X182360249Y-14895573D01*
X182442334Y-14827751D01*
X182617217Y-14738504D01*
X182699302Y-14670682D01*
X182734989Y-14613571D01*
X182759963Y-14510062D01*
X182738539Y-14417265D01*
X182670717Y-14335180D01*
X182613606Y-14299493D01*
X182510097Y-14274518D01*
X182278104Y-14328078D01*
X182149621Y-14406613D01*
X181889102Y-14759988D02*
X181853475Y-15452416D01*
X181560762Y-15031278D01*
X181482287Y-15538111D01*
X181146725Y-14931379D01*
X180925504Y-15666655D02*
X180700553Y-14692285D01*
X180468560Y-14745844D01*
X180340076Y-14824379D01*
X180268703Y-14938600D01*
X180243728Y-15042109D01*
X180240178Y-15238415D01*
X180272313Y-15377611D01*
X180361560Y-15552493D01*
X180429382Y-15634579D01*
X180543603Y-15705952D01*
X180693511Y-15720214D01*
X180925504Y-15666655D01*
X179440750Y-16009437D02*
X179997532Y-15880894D01*
X179719141Y-15945166D02*
X179494190Y-14970795D01*
X179619123Y-15088567D01*
X179733344Y-15159941D01*
X179836853Y-15184915D01*
X187137603Y-33683381D02*
X187009119Y-33761915D01*
X186777126Y-33815475D01*
X186673617Y-33790501D01*
X186616507Y-33754814D01*
X186548684Y-33672729D01*
X186527260Y-33579932D01*
X186552235Y-33476423D01*
X186587922Y-33419312D01*
X186670007Y-33351489D01*
X186844889Y-33262243D01*
X186926974Y-33194421D01*
X186962661Y-33137310D01*
X186987636Y-33033801D01*
X186966212Y-32941004D01*
X186898389Y-32858919D01*
X186841279Y-32823232D01*
X186737770Y-32798257D01*
X186505777Y-32851817D01*
X186377293Y-32930352D01*
X186116775Y-33283727D02*
X186081148Y-33976155D01*
X185788434Y-33555017D01*
X185709959Y-34061850D01*
X185374398Y-33455118D01*
X185035345Y-33680009D02*
X184710555Y-33754993D01*
X184689191Y-34297513D02*
X185153176Y-34190394D01*
X184928225Y-33216024D01*
X184464240Y-33323143D01*
X183761219Y-34511752D02*
X184318002Y-34383209D01*
X184039611Y-34447481D02*
X183814659Y-33473111D01*
X183939593Y-33590882D01*
X184053814Y-33662256D01*
X184157323Y-33687230D01*
X169611321Y-42231524D02*
X169482837Y-42310058D01*
X169250844Y-42363618D01*
X169147335Y-42338644D01*
X169090225Y-42302957D01*
X169022402Y-42220872D01*
X169000978Y-42128075D01*
X169025953Y-42024566D01*
X169061640Y-41967455D01*
X169143725Y-41899632D01*
X169318607Y-41810386D01*
X169400692Y-41742564D01*
X169436379Y-41685453D01*
X169461354Y-41581944D01*
X169439930Y-41489147D01*
X169372107Y-41407062D01*
X169314997Y-41371375D01*
X169211488Y-41346400D01*
X168979495Y-41399960D01*
X168851011Y-41478495D01*
X168590493Y-41831870D02*
X168554866Y-42524298D01*
X168262152Y-42103160D01*
X168183677Y-42609993D01*
X167848116Y-42003261D01*
X167509063Y-42228152D02*
X167184273Y-42303136D01*
X167162909Y-42845656D02*
X167626894Y-42738537D01*
X167401943Y-41764167D01*
X166937958Y-41871286D01*
X166334776Y-42010542D02*
X166241979Y-42031965D01*
X166159894Y-42099788D01*
X166124207Y-42156898D01*
X166099232Y-42260408D01*
X166095682Y-42456714D01*
X166149241Y-42688707D01*
X166238488Y-42863589D01*
X166306310Y-42945674D01*
X166363421Y-42981361D01*
X166466930Y-43006336D01*
X166559727Y-42984912D01*
X166641812Y-42917089D01*
X166677499Y-42859979D01*
X166702474Y-42756470D01*
X166706024Y-42560163D01*
X166652465Y-42328170D01*
X166563218Y-42153288D01*
X166495396Y-42071203D01*
X166438285Y-42035516D01*
X166334776Y-42010542D01*
X173862191Y-60749913D02*
X173733707Y-60828447D01*
X173501714Y-60882007D01*
X173398205Y-60857033D01*
X173341095Y-60821346D01*
X173273272Y-60739261D01*
X173251848Y-60646464D01*
X173276823Y-60542954D01*
X173312509Y-60485844D01*
X173394595Y-60418021D01*
X173569477Y-60328775D01*
X173651562Y-60260953D01*
X173687249Y-60203842D01*
X173712223Y-60100333D01*
X173690800Y-60007536D01*
X173622977Y-59925451D01*
X173565867Y-59889764D01*
X173462357Y-59864789D01*
X173230365Y-59918349D01*
X173101881Y-59996884D01*
X172841362Y-60350259D02*
X172805736Y-61042687D01*
X172513022Y-60621549D01*
X172434547Y-61128382D01*
X172098985Y-60521650D01*
X171435143Y-60821525D02*
X171759933Y-60746541D01*
X171877764Y-61256926D02*
X171652813Y-60282556D01*
X171188827Y-60389675D01*
X170632044Y-60518219D02*
X170539247Y-60539642D01*
X170457162Y-60607465D01*
X170421475Y-60664576D01*
X170396501Y-60768085D01*
X170392950Y-60964391D01*
X170446510Y-61196384D01*
X170535756Y-61371266D01*
X170603579Y-61453351D01*
X170660689Y-61489038D01*
X170764198Y-61514013D01*
X170856995Y-61492589D01*
X170939081Y-61424766D01*
X170974767Y-61367656D01*
X170999742Y-61264147D01*
X171003293Y-61067840D01*
X170949733Y-60835847D01*
X170860486Y-60660965D01*
X170792664Y-60578880D01*
X170735553Y-60543193D01*
X170632044Y-60518219D01*
X165383648Y-23707778D02*
X165255164Y-23786313D01*
X165023171Y-23839872D01*
X164919662Y-23814898D01*
X164862551Y-23779211D01*
X164794729Y-23697126D01*
X164773305Y-23604329D01*
X164798280Y-23500820D01*
X164833966Y-23443709D01*
X164916051Y-23375887D01*
X165090934Y-23286640D01*
X165173019Y-23218818D01*
X165208706Y-23161707D01*
X165233680Y-23058198D01*
X165212256Y-22965401D01*
X165144434Y-22883316D01*
X165087323Y-22847629D01*
X164983814Y-22822654D01*
X164751821Y-22876214D01*
X164623338Y-22954749D01*
X164362819Y-23308124D02*
X164327192Y-24000552D01*
X164034479Y-23579414D01*
X163956004Y-24086247D01*
X163620442Y-23479515D01*
X163399221Y-24214791D02*
X163174270Y-23240421D01*
X162942277Y-23293980D01*
X162813793Y-23372515D01*
X162742420Y-23486736D01*
X162717445Y-23590245D01*
X162713895Y-23786551D01*
X162746030Y-23925747D01*
X162835277Y-24100629D01*
X162903099Y-24182715D01*
X163017320Y-24254088D01*
X163167228Y-24268350D01*
X163399221Y-24214791D01*
X162014305Y-23508220D02*
X161921508Y-23529643D01*
X161839423Y-23597466D01*
X161803737Y-23654576D01*
X161778762Y-23758086D01*
X161775211Y-23954392D01*
X161828771Y-24186385D01*
X161918017Y-24361267D01*
X161985840Y-24443352D01*
X162042950Y-24479039D01*
X162146459Y-24504013D01*
X162239257Y-24482590D01*
X162321342Y-24414767D01*
X162357028Y-24357657D01*
X162382003Y-24254147D01*
X162385554Y-24057841D01*
X162331994Y-23825848D01*
X162242748Y-23650966D01*
X162174925Y-23568881D01*
X162117815Y-23533194D01*
X162014305Y-23508220D01*
X170543649Y6470023D02*
X170111739Y6081021D01*
X169986866Y6598566D02*
X169761915Y5624196D01*
X170133103Y5538500D01*
X170236612Y5563475D01*
X170293723Y5599162D01*
X170361545Y5681247D01*
X170393681Y5820443D01*
X170368707Y5923952D01*
X170333020Y5981062D01*
X170250935Y6048885D01*
X169879746Y6134580D01*
X170843404Y5863231D02*
X171168194Y5788247D01*
X171425221Y6266495D02*
X170961236Y6373615D01*
X170736285Y5399245D01*
X171200270Y5292125D01*
X171785698Y6134401D02*
X171935606Y6148664D01*
X172167599Y6095104D01*
X172249684Y6027282D01*
X172285370Y5970171D01*
X172310345Y5866662D01*
X172288921Y5773865D01*
X172221099Y5691780D01*
X172163988Y5656093D01*
X172060479Y5631118D01*
X171864173Y5627568D01*
X171760664Y5602593D01*
X171703553Y5566906D01*
X171635731Y5484821D01*
X171614307Y5392024D01*
X171639281Y5288515D01*
X171674968Y5231404D01*
X171757053Y5163582D01*
X171989046Y5110022D01*
X172138954Y5124285D01*
X172652949Y5445464D02*
X172977739Y5370481D01*
X173234766Y5848729D02*
X172770780Y5955849D01*
X172545829Y4981479D01*
X173009815Y4874359D01*
X173288206Y4810087D02*
X173844989Y4681544D01*
X173791549Y5720186D02*
X173566598Y4745816D01*
X148363654Y-37672554D02*
X148363654Y-36672554D01*
X147982701Y-36672554D01*
X147887463Y-36720174D01*
X147839844Y-36767793D01*
X147792225Y-36863031D01*
X147792225Y-37005888D01*
X147839844Y-37101126D01*
X147887463Y-37148745D01*
X147982701Y-37196364D01*
X148363654Y-37196364D01*
X147363654Y-37672554D02*
X147363654Y-36672554D01*
X146887463Y-37672554D02*
X146887463Y-36672554D01*
X146554130Y-37386840D01*
X146220796Y-36672554D01*
X146220796Y-37672554D01*
X145316034Y-37005888D02*
X145316034Y-37672554D01*
X145554130Y-36624935D02*
X145792225Y-37339221D01*
X145173177Y-37339221D01*
X144363654Y-37005888D02*
X144363654Y-37672554D01*
X144601749Y-36624935D02*
X144839844Y-37339221D01*
X144220796Y-37339221D01*
X143935082Y-36672554D02*
X143268415Y-36672554D01*
X143696987Y-37672554D01*
D13*
X145207283Y-71310418D02*
X145707283Y-71310418D01*
X145707283Y-71710418D02*
X145707283Y-70910418D01*
X146707283Y-71310418D02*
X146307283Y-71310418D01*
X146307283Y-71310418D02*
X145707283Y-71710418D01*
X145707283Y-70910418D02*
X146307283Y-71310418D01*
X146307283Y-71860418D02*
X146307283Y-70760418D01*
X195673144Y-60726672D02*
X195673144Y-59926672D01*
X196273144Y-60876672D02*
X196273144Y-59776672D01*
X195173144Y-60326672D02*
X195673144Y-60326672D01*
X196673144Y-60326672D02*
X196273144Y-60326672D01*
X195673144Y-59926672D02*
X196273144Y-60326672D01*
X196273144Y-60326672D02*
X195673144Y-60726672D01*
X96341427Y-60876673D02*
X96341427Y-59776673D01*
X95741427Y-59926673D02*
X96341427Y-60326673D01*
X96741427Y-60326673D02*
X96341427Y-60326673D01*
X96341427Y-60326673D02*
X95741427Y-60726673D01*
X95741427Y-60726673D02*
X95741427Y-59926673D01*
X95241427Y-60326673D02*
X95741427Y-60326673D01*
D14*
X129963302Y221356D02*
X127488402Y792732D01*
X159662102Y-6635152D02*
X157187202Y-6063777D01*
X131488032Y18117031D02*
X130916656Y15642131D01*
X160233477Y-4160252D02*
X159662102Y-6635152D01*
X128059778Y3267631D02*
X127488402Y792732D01*
X163661731Y10689147D02*
X161186832Y11260523D01*
X133962932Y17545656D02*
X131488032Y18117031D01*
X163661731Y10689147D02*
X163090356Y8214248D01*
D13*
X130274064Y-31258363D02*
X130768706Y-31783082D01*
X131158454Y-31873062D02*
X130768706Y-31783082D01*
X130768706Y-31783082D02*
X130094103Y-32037859D01*
X129696898Y-31535636D02*
X130184083Y-31648111D01*
X130644982Y-32318985D02*
X130892429Y-31247178D01*
X130094103Y-32037859D02*
X130274064Y-31258363D01*
X125820031Y-50550890D02*
X125999992Y-49771394D01*
X126884382Y-50386093D02*
X126494634Y-50296113D01*
X125999992Y-49771394D02*
X126494634Y-50296113D01*
X125422826Y-50048667D02*
X125910011Y-50161142D01*
X126494634Y-50296113D02*
X125820031Y-50550890D01*
X126370910Y-50832016D02*
X126618357Y-49760209D01*
X134548135Y-12745332D02*
X135042777Y-13270051D01*
X134368174Y-13524828D02*
X134548135Y-12745332D01*
X133970969Y-13022605D02*
X134458154Y-13135080D01*
X134919053Y-13805954D02*
X135166500Y-12734147D01*
X135432525Y-13360031D02*
X135042777Y-13270051D01*
X135042777Y-13270051D02*
X134368174Y-13524828D01*
X112567813Y-23489718D02*
X112747774Y-22710222D01*
X112747774Y-22710222D02*
X113242416Y-23234941D01*
X113632164Y-23324921D02*
X113242416Y-23234941D01*
X113242416Y-23234941D02*
X112567813Y-23489718D01*
X113118692Y-23770844D02*
X113366139Y-22699037D01*
X112170608Y-22987495D02*
X112657793Y-23099970D01*
X109358097Y-41837957D02*
X108968349Y-41747977D01*
X108473707Y-41223258D02*
X108968349Y-41747977D01*
X107896541Y-41500531D02*
X108383726Y-41613006D01*
X108293746Y-42002754D02*
X108473707Y-41223258D01*
X108844625Y-42283880D02*
X109092072Y-41212073D01*
X108968349Y-41747977D02*
X108293746Y-42002754D01*
X117392763Y-5257812D02*
X117640210Y-4186005D01*
X117021845Y-4197190D02*
X117516487Y-4721909D01*
X117906235Y-4811889D02*
X117516487Y-4721909D01*
X116841884Y-4976686D02*
X117021845Y-4197190D01*
X116444679Y-4474463D02*
X116931864Y-4586938D01*
X117516487Y-4721909D02*
X116841884Y-4976686D01*
X90767460Y-33454611D02*
X90947421Y-32675115D01*
X91831811Y-33289814D02*
X91442063Y-33199834D01*
X91442063Y-33199834D02*
X90767460Y-33454611D01*
X90370255Y-32952388D02*
X90857440Y-33064863D01*
X90947421Y-32675115D02*
X91442063Y-33199834D01*
X91318339Y-33735737D02*
X91565786Y-32663930D01*
X100379952Y3736249D02*
X99990204Y3826229D01*
X98918396Y4073675D02*
X99405581Y3961200D01*
X99990204Y3826229D02*
X99315601Y3571452D01*
X99315601Y3571452D02*
X99495562Y4350948D01*
X99866480Y3290326D02*
X100113927Y4362133D01*
X99495562Y4350948D02*
X99990204Y3826229D01*
X95221491Y-14162080D02*
X95716133Y-14686799D01*
X95716133Y-14686799D02*
X95041530Y-14941576D01*
X96105881Y-14776779D02*
X95716133Y-14686799D01*
X94644325Y-14439353D02*
X95131510Y-14551828D01*
X95041530Y-14941576D02*
X95221491Y-14162080D01*
X95592409Y-15222702D02*
X95839856Y-14150895D01*
X79815823Y3571450D02*
X79995784Y4350946D01*
X79995784Y4350946D02*
X80490426Y3826227D01*
X80490426Y3826227D02*
X79815823Y3571450D01*
X80366702Y3290324D02*
X80614149Y4362131D01*
X79418618Y4073673D02*
X79905803Y3961198D01*
X80880174Y3736247D02*
X80490426Y3826227D01*
X76216356Y-14686802D02*
X75541753Y-14941579D01*
X75541753Y-14941579D02*
X75721714Y-14162083D01*
X76092632Y-15222705D02*
X76340079Y-14150898D01*
X76606104Y-14776782D02*
X76216356Y-14686802D01*
X75144548Y-14439356D02*
X75631733Y-14551831D01*
X75721714Y-14162083D02*
X76216356Y-14686802D01*
X71267683Y-33454610D02*
X71447644Y-32675114D01*
X72332034Y-33289813D02*
X71942286Y-33199833D01*
X71447644Y-32675114D02*
X71942286Y-33199833D01*
X71818562Y-33735736D02*
X72066009Y-32663929D01*
X71942286Y-33199833D02*
X71267683Y-33454610D01*
X70870478Y-32952387D02*
X71357663Y-33064862D01*
X55644770Y-14439356D02*
X56131955Y-14551831D01*
X57106326Y-14776782D02*
X56716578Y-14686802D01*
X56592854Y-15222705D02*
X56840301Y-14150898D01*
X56716578Y-14686802D02*
X56041975Y-14941579D01*
X56041975Y-14941579D02*
X56221936Y-14162083D01*
X56221936Y-14162083D02*
X56716578Y-14686802D01*
X60866924Y3290325D02*
X61114371Y4362132D01*
X60496006Y4350947D02*
X60990648Y3826228D01*
X60990648Y3826228D02*
X60316045Y3571451D01*
X59918840Y4073674D02*
X60406025Y3961199D01*
X61380396Y3736248D02*
X60990648Y3826228D01*
X60316045Y3571451D02*
X60496006Y4350947D01*
X52832257Y-33289814D02*
X52442509Y-33199834D01*
X51370701Y-32952388D02*
X51857886Y-33064863D01*
X51947867Y-32675115D02*
X52442509Y-33199834D01*
X52318785Y-33735737D02*
X52566232Y-32663930D01*
X52442509Y-33199834D02*
X51767906Y-33454611D01*
X51767906Y-33454611D02*
X51947867Y-32675115D01*
X32448087Y-32675115D02*
X32942729Y-33199834D01*
X32942729Y-33199834D02*
X32268126Y-33454611D01*
X31870921Y-32952388D02*
X32358106Y-33064863D01*
X33332477Y-33289814D02*
X32942729Y-33199834D01*
X32819005Y-33735737D02*
X33066452Y-32663930D01*
X32268126Y-33454611D02*
X32448087Y-32675115D01*
X40816268Y3571452D02*
X40996229Y4350948D01*
X41880619Y3736249D02*
X41490871Y3826229D01*
X40996229Y4350948D02*
X41490871Y3826229D01*
X41490871Y3826229D02*
X40816268Y3571452D01*
X40419063Y4073675D02*
X40906248Y3961200D01*
X41367147Y3290326D02*
X41614594Y4362133D01*
X117029519Y-68637002D02*
X116354916Y-68891779D01*
X115957711Y-68389556D02*
X116444896Y-68502031D01*
X116905795Y-69172905D02*
X117153242Y-68101098D01*
X116534877Y-68112283D02*
X117029519Y-68637002D01*
X117419267Y-68726982D02*
X117029519Y-68637002D01*
X116354916Y-68891779D02*
X116534877Y-68112283D01*
X174798265Y-68246516D02*
X175472868Y-68501293D01*
X174401060Y-68748739D02*
X174888245Y-68636264D01*
X175472868Y-68501293D02*
X174978226Y-69026012D01*
X175862616Y-68411313D02*
X175472868Y-68501293D01*
X175596591Y-69037197D02*
X175349144Y-67965390D01*
X174978226Y-69026012D02*
X174798265Y-68246516D01*
X37216800Y-14686802D02*
X36542197Y-14941579D01*
X37606548Y-14776782D02*
X37216800Y-14686802D01*
X36144992Y-14439356D02*
X36632177Y-14551831D01*
X37093076Y-15222705D02*
X37340523Y-14150898D01*
X36542197Y-14941579D02*
X36722158Y-14162083D01*
X36722158Y-14162083D02*
X37216800Y-14686802D01*
X259159258Y-33567087D02*
X258979297Y-32787591D01*
X258979297Y-32787591D02*
X259653900Y-33042368D01*
X259653900Y-33042368D02*
X259159258Y-33567087D01*
X258582092Y-33289814D02*
X259069277Y-33177339D01*
X260043648Y-32952388D02*
X259653900Y-33042368D01*
X259777623Y-33578272D02*
X259530176Y-32506465D01*
X231995732Y4073675D02*
X231605984Y3983695D01*
X230931381Y4238472D02*
X231605984Y3983695D01*
X231729707Y3447791D02*
X231482260Y4519598D01*
X230534176Y3736249D02*
X231021361Y3848724D01*
X231605984Y3983695D02*
X231111342Y3458976D01*
X231111342Y3458976D02*
X230931381Y4238472D01*
X239659480Y-33567086D02*
X239479519Y-32787590D01*
X239479519Y-32787590D02*
X240154122Y-33042367D01*
X240277845Y-33578271D02*
X240030398Y-32506464D01*
X240543870Y-32952387D02*
X240154122Y-33042367D01*
X239082314Y-33289813D02*
X239569499Y-33177338D01*
X240154122Y-33042367D02*
X239659480Y-33567086D01*
X235385409Y-15054053D02*
X235205448Y-14274557D01*
X235880051Y-14529334D02*
X235385409Y-15054053D01*
X234808243Y-14776780D02*
X235295428Y-14664305D01*
X235205448Y-14274557D02*
X235880051Y-14529334D01*
X236269799Y-14439354D02*
X235880051Y-14529334D01*
X236003774Y-15065238D02*
X235756327Y-13993431D01*
X251105760Y3983694D02*
X250611118Y3458975D01*
X251229483Y3447790D02*
X250982036Y4519597D01*
X251495508Y4073674D02*
X251105760Y3983694D01*
X250033952Y3736248D02*
X250521137Y3848723D01*
X250611118Y3458975D02*
X250431157Y4238471D01*
X250431157Y4238471D02*
X251105760Y3983694D01*
X255503552Y-15065240D02*
X255256105Y-13993433D01*
X255769577Y-14439356D02*
X255379829Y-14529336D01*
X254308021Y-14776782D02*
X254795206Y-14664307D01*
X254885187Y-15054055D02*
X254705226Y-14274559D01*
X255379829Y-14529336D02*
X254885187Y-15054055D01*
X254705226Y-14274559D02*
X255379829Y-14529336D01*
X215705671Y-14274561D02*
X216380274Y-14529338D01*
X216380274Y-14529338D02*
X215885632Y-15054057D01*
X216503997Y-15065242D02*
X216256550Y-13993435D01*
X216770022Y-14439358D02*
X216380274Y-14529338D01*
X215885632Y-15054057D02*
X215705671Y-14274561D01*
X215308466Y-14776784D02*
X215795651Y-14664309D01*
X220159701Y-33567086D02*
X219979740Y-32787590D01*
X219582535Y-33289813D02*
X220069720Y-33177338D01*
X219979740Y-32787590D02*
X220654343Y-33042367D01*
X220654343Y-33042367D02*
X220159701Y-33567086D01*
X220778066Y-33578271D02*
X220530619Y-32506464D01*
X221044091Y-32952387D02*
X220654343Y-33042367D01*
X212229927Y3447789D02*
X211982480Y4519596D01*
X212106204Y3983693D02*
X211611562Y3458974D01*
X211611562Y3458974D02*
X211431601Y4238470D01*
X212495952Y4073673D02*
X212106204Y3983693D01*
X211431601Y4238470D02*
X212106204Y3983693D01*
X211034396Y3736247D02*
X211521581Y3848722D01*
X191931825Y4238474D02*
X192606428Y3983697D01*
X192111786Y3458978D02*
X191931825Y4238474D01*
X192996176Y4073677D02*
X192606428Y3983697D01*
X191534620Y3736251D02*
X192021805Y3848726D01*
X192606428Y3983697D02*
X192111786Y3458978D01*
X192730151Y3447793D02*
X192482704Y4519600D01*
X196385854Y-15054053D02*
X196205893Y-14274557D01*
X195808688Y-14776780D02*
X196295873Y-14664305D01*
X197004219Y-15065238D02*
X196756772Y-13993431D01*
X196880496Y-14529334D02*
X196385854Y-15054053D01*
X197270244Y-14439354D02*
X196880496Y-14529334D01*
X196205893Y-14274557D02*
X196880496Y-14529334D01*
X200479962Y-32787591D02*
X201154565Y-33042368D01*
X200659923Y-33567087D02*
X200479962Y-32787591D01*
X201154565Y-33042368D02*
X200659923Y-33567087D01*
X200082757Y-33289814D02*
X200569942Y-33177339D01*
X201278288Y-33578272D02*
X201030841Y-32506465D01*
X201544313Y-32952388D02*
X201154565Y-33042368D01*
X183752006Y-42126412D02*
X183504559Y-41054605D01*
X184018031Y-41500528D02*
X183628283Y-41590508D01*
X183628283Y-41590508D02*
X183133641Y-42115227D01*
X182953680Y-41335731D02*
X183628283Y-41590508D01*
X182556475Y-41837954D02*
X183043660Y-41725479D01*
X183133641Y-42115227D02*
X182953680Y-41335731D01*
X174585498Y-5089165D02*
X174405537Y-4309669D01*
X174008332Y-4811892D02*
X174495517Y-4699417D01*
X175469888Y-4474466D02*
X175080140Y-4564446D01*
X174405537Y-4309669D02*
X175080140Y-4564446D01*
X175080140Y-4564446D02*
X174585498Y-5089165D01*
X175203863Y-5100350D02*
X174956416Y-4028543D01*
X178679608Y-22822698D02*
X179354211Y-23077475D01*
X179477934Y-23613379D02*
X179230487Y-22541572D01*
X179743959Y-22987495D02*
X179354211Y-23077475D01*
X178282403Y-23324921D02*
X178769588Y-23212446D01*
X179354211Y-23077475D02*
X178859569Y-23602194D01*
X178859569Y-23602194D02*
X178679608Y-22822698D01*
X161951650Y-32161522D02*
X161704203Y-31089715D01*
X161153324Y-31370841D02*
X161827927Y-31625618D01*
X160756119Y-31873064D02*
X161243304Y-31760589D01*
X161333285Y-32150337D02*
X161153324Y-31370841D01*
X161827927Y-31625618D02*
X161333285Y-32150337D01*
X162217675Y-31535638D02*
X161827927Y-31625618D01*
X165030191Y-50386093D02*
X165517376Y-50273618D01*
X166225722Y-50674551D02*
X165978275Y-49602744D01*
X165607357Y-50663366D02*
X165427396Y-49883870D01*
X165427396Y-49883870D02*
X166101999Y-50138647D01*
X166101999Y-50138647D02*
X165607357Y-50663366D01*
X166491747Y-50048667D02*
X166101999Y-50138647D01*
X157059216Y-13637304D02*
X156879255Y-12857808D01*
X156482050Y-13360031D02*
X156969235Y-13247556D01*
X157553858Y-13112585D02*
X157059216Y-13637304D01*
X157677581Y-13648489D02*
X157430134Y-12576682D01*
X157943606Y-13022605D02*
X157553858Y-13112585D01*
X156879255Y-12857808D02*
X157553858Y-13112585D01*
D12*
X174262743Y3351090D02*
X168416522Y4700797D01*
X169203851Y8111092D02*
X175050072Y6761385D01*
X174318981Y3594683D02*
X174262743Y3351090D01*
X169147613Y7867499D02*
X169203851Y8111092D01*
X168416522Y4700797D02*
X168472760Y4944389D01*
X175050072Y6761385D02*
X174993834Y6517793D01*
G36*
X147024978Y-20626601D02*
G01*
X147648098Y-20883472D01*
X148271218Y-21140342D01*
X149018754Y-20632023D01*
X149166708Y-20531812D01*
X149362849Y-20400274D01*
X149532665Y-20287927D01*
X149667337Y-20200537D01*
X149758044Y-20143873D01*
X149795969Y-20123703D01*
X149819261Y-20138047D01*
X149888884Y-20198151D01*
X149994248Y-20296787D01*
X150126425Y-20424898D01*
X150276487Y-20573428D01*
X150435506Y-20733320D01*
X150594555Y-20895516D01*
X150744706Y-21050959D01*
X150877031Y-21190593D01*
X150982602Y-21305360D01*
X151052491Y-21386204D01*
X151077772Y-21424067D01*
X151071891Y-21440334D01*
X151031171Y-21512898D01*
X150956812Y-21632320D01*
X150854842Y-21789237D01*
X150731290Y-21974290D01*
X150592183Y-22178115D01*
X150515843Y-22289279D01*
X150384521Y-22482809D01*
X150271933Y-22651707D01*
X150184081Y-22786813D01*
X150126967Y-22878970D01*
X150106595Y-22919016D01*
X150106930Y-22921235D01*
X150124900Y-22972000D01*
X150166127Y-23075662D01*
X150224864Y-23218681D01*
X150295364Y-23387514D01*
X150371881Y-23568621D01*
X150448667Y-23748460D01*
X150519975Y-23913489D01*
X150580060Y-24050167D01*
X150623173Y-24144953D01*
X150643569Y-24184304D01*
X150655636Y-24187795D01*
X150728956Y-24203539D01*
X150859632Y-24229620D01*
X151037203Y-24263999D01*
X151251209Y-24304639D01*
X151491192Y-24349500D01*
X151617675Y-24373285D01*
X151849828Y-24418667D01*
X152052810Y-24460577D01*
X152215527Y-24496610D01*
X152326884Y-24524358D01*
X152375786Y-24541414D01*
X152384570Y-24558322D01*
X152399141Y-24640936D01*
X152410589Y-24778532D01*
X152418923Y-24958165D01*
X152424152Y-25166888D01*
X152426284Y-25391753D01*
X152425328Y-25619814D01*
X152421294Y-25838124D01*
X152414190Y-26033737D01*
X152404024Y-26193706D01*
X152390807Y-26305084D01*
X152374546Y-26354924D01*
X152364678Y-26360546D01*
X152291086Y-26384659D01*
X152163423Y-26416563D01*
X151996448Y-26452765D01*
X151804914Y-26489771D01*
X151740289Y-26501556D01*
X151441812Y-26556369D01*
X151207236Y-26600421D01*
X151028428Y-26635538D01*
X150897258Y-26663548D01*
X150805595Y-26686275D01*
X150745306Y-26705548D01*
X150708260Y-26723193D01*
X150686327Y-26741035D01*
X150683777Y-26744030D01*
X150647909Y-26806462D01*
X150594832Y-26920701D01*
X150529691Y-27073345D01*
X150457629Y-27250992D01*
X150383791Y-27440240D01*
X150313321Y-27627688D01*
X150251363Y-27799932D01*
X150203061Y-27943572D01*
X150173559Y-28045206D01*
X150168001Y-28091431D01*
X150171718Y-28097429D01*
X150210187Y-28155432D01*
X150282533Y-28262417D01*
X150382047Y-28408527D01*
X150502022Y-28583907D01*
X150635750Y-28778703D01*
X150672451Y-28832298D01*
X150801508Y-29024541D01*
X150913041Y-29196469D01*
X151000685Y-29337887D01*
X151058074Y-29438599D01*
X151078842Y-29488408D01*
X151074367Y-29501503D01*
X151027719Y-29566030D01*
X150935686Y-29671401D01*
X150804859Y-29810525D01*
X150641826Y-29976309D01*
X150453180Y-30161662D01*
X150345353Y-30265409D01*
X150174863Y-30426992D01*
X150025639Y-30565394D01*
X149905696Y-30673328D01*
X149823045Y-30743508D01*
X149785700Y-30768647D01*
X149760042Y-30759328D01*
X149681047Y-30715245D01*
X149566327Y-30643150D01*
X149430847Y-30552175D01*
X149334521Y-30485786D01*
X149142211Y-30353947D01*
X148936994Y-30213928D01*
X148749551Y-30086693D01*
X148382359Y-29838329D01*
X148074128Y-30004987D01*
X148001549Y-30043454D01*
X147869559Y-30109251D01*
X147767488Y-30154678D01*
X147712937Y-30171615D01*
X147695085Y-30149864D01*
X147650753Y-30067045D01*
X147585275Y-29930500D01*
X147502292Y-29748895D01*
X147405448Y-29530895D01*
X147298387Y-29285167D01*
X147184751Y-29020375D01*
X147068186Y-28745186D01*
X146952333Y-28468264D01*
X146840837Y-28198275D01*
X146737340Y-27943884D01*
X146645488Y-27713758D01*
X146568921Y-27516562D01*
X146511285Y-27360960D01*
X146476223Y-27255620D01*
X146467378Y-27209205D01*
X146467977Y-27207849D01*
X146509176Y-27164942D01*
X146595352Y-27097742D01*
X146708712Y-27020182D01*
X146744494Y-26996499D01*
X147016755Y-26771817D01*
X147242083Y-26504206D01*
X147415144Y-26204804D01*
X147530603Y-25884751D01*
X147583124Y-25555186D01*
X147567373Y-25227249D01*
X147503569Y-24935573D01*
X147389008Y-24641042D01*
X147222001Y-24378282D01*
X146992814Y-24128680D01*
X146902761Y-24048942D01*
X146611640Y-23852483D01*
X146297151Y-23720172D01*
X145968408Y-23650825D01*
X145634524Y-23643257D01*
X145304613Y-23696286D01*
X144987789Y-23808725D01*
X144693163Y-23979392D01*
X144429852Y-24207101D01*
X144206966Y-24490669D01*
X144164114Y-24560893D01*
X144018462Y-24881862D01*
X143941107Y-25216096D01*
X143930024Y-25554939D01*
X143983185Y-25889735D01*
X144098567Y-26211827D01*
X144274142Y-26512560D01*
X144507886Y-26783277D01*
X144797773Y-27015321D01*
X144807187Y-27021574D01*
X144919346Y-27100612D01*
X145003409Y-27167810D01*
X145041803Y-27209205D01*
X145036959Y-27241659D01*
X145006838Y-27336154D01*
X144953429Y-27482613D01*
X144880374Y-27672369D01*
X144791315Y-27896754D01*
X144689894Y-28147101D01*
X144579753Y-28414742D01*
X144464534Y-28691010D01*
X144347879Y-28967237D01*
X144233430Y-29234755D01*
X144124830Y-29484898D01*
X144025719Y-29708998D01*
X143939741Y-29898387D01*
X143870536Y-30044398D01*
X143821748Y-30138363D01*
X143797018Y-30171615D01*
X143776452Y-30167111D01*
X143695658Y-30134745D01*
X143576250Y-30077996D01*
X143435828Y-30004987D01*
X143127596Y-29838329D01*
X142760404Y-30086693D01*
X142651921Y-30160237D01*
X142450142Y-30297650D01*
X142248976Y-30435284D01*
X142079108Y-30552175D01*
X141985359Y-30615878D01*
X141863512Y-30695023D01*
X141773167Y-30749203D01*
X141729040Y-30769292D01*
X141710082Y-30760763D01*
X141641554Y-30708524D01*
X141535911Y-30616550D01*
X141402348Y-30493887D01*
X141250061Y-30349583D01*
X141088245Y-30192683D01*
X140926096Y-30032235D01*
X140772808Y-29877284D01*
X140637578Y-29736879D01*
X140529600Y-29620065D01*
X140458070Y-29535889D01*
X140432183Y-29493399D01*
X140433676Y-29485315D01*
X140464486Y-29419512D01*
X140530305Y-29305666D01*
X140624771Y-29154060D01*
X140741525Y-28974978D01*
X140874206Y-28778703D01*
X140911417Y-28724564D01*
X141042081Y-28534056D01*
X141157174Y-28365634D01*
X141249989Y-28229152D01*
X141313818Y-28134466D01*
X141341954Y-28091431D01*
X141342646Y-28089587D01*
X141334342Y-28036938D01*
X141302633Y-27930282D01*
X141252661Y-27783022D01*
X141189571Y-27608559D01*
X141118508Y-27420295D01*
X141044615Y-27231633D01*
X140973037Y-27055974D01*
X140908917Y-26906721D01*
X140857399Y-26797274D01*
X140823628Y-26741035D01*
X140820245Y-26737544D01*
X140796065Y-26719880D01*
X140755228Y-26702066D01*
X140689602Y-26682278D01*
X140591056Y-26658687D01*
X140451459Y-26629467D01*
X140262678Y-26592792D01*
X140016583Y-26546836D01*
X139705041Y-26489771D01*
X139640425Y-26477760D01*
X139455319Y-26440633D01*
X139299611Y-26405456D01*
X139188055Y-26375722D01*
X139135409Y-26354924D01*
X139126602Y-26337572D01*
X139111917Y-26254221D01*
X139100280Y-26116042D01*
X139091701Y-25935983D01*
X139086186Y-25726989D01*
X139083747Y-25502009D01*
X139084390Y-25273988D01*
X139088126Y-25055874D01*
X139094963Y-24860612D01*
X139104910Y-24701151D01*
X139117976Y-24590435D01*
X139134169Y-24541414D01*
X139150702Y-24534171D01*
X139232949Y-24511343D01*
X139371973Y-24479055D01*
X139556680Y-24439714D01*
X139775975Y-24395727D01*
X140018763Y-24349500D01*
X140151329Y-24324803D01*
X140378542Y-24281975D01*
X140574114Y-24244472D01*
X140727585Y-24214334D01*
X140828496Y-24193599D01*
X140866387Y-24184304D01*
X140867811Y-24182388D01*
X140891942Y-24133711D01*
X140937945Y-24031734D01*
X141000069Y-23889988D01*
X141072565Y-23722002D01*
X141149684Y-23541306D01*
X141225674Y-23361432D01*
X141294787Y-23195908D01*
X141351272Y-23058266D01*
X141389380Y-22962034D01*
X141403360Y-22920744D01*
X141397193Y-22906216D01*
X141356153Y-22837083D01*
X141281709Y-22720716D01*
X141179843Y-22566247D01*
X141056536Y-22382807D01*
X140917772Y-22179526D01*
X140841641Y-22068199D01*
X140710258Y-21873019D01*
X140597613Y-21701724D01*
X140509713Y-21563655D01*
X140452567Y-21468153D01*
X140432183Y-21424562D01*
X140446347Y-21400916D01*
X140505594Y-21330263D01*
X140602791Y-21223336D01*
X140729017Y-21089196D01*
X140875349Y-20936904D01*
X141032865Y-20775521D01*
X141192642Y-20614108D01*
X141345759Y-20461724D01*
X141483293Y-20327431D01*
X141596322Y-20220289D01*
X141675923Y-20149360D01*
X141713174Y-20123703D01*
X141733852Y-20133679D01*
X141809780Y-20179944D01*
X141932311Y-20258681D01*
X142092611Y-20364119D01*
X142281852Y-20490490D01*
X142491201Y-20632023D01*
X143238738Y-21140342D01*
X143861858Y-20883472D01*
X144484978Y-20626601D01*
X144653851Y-19730814D01*
X144822725Y-18835027D01*
X146687230Y-18835027D01*
X147024978Y-20626601D01*
G37*
D15*
X147024978Y-20626601D02*
X147648098Y-20883472D01*
X148271218Y-21140342D01*
X149018754Y-20632023D01*
X149166708Y-20531812D01*
X149362849Y-20400274D01*
X149532665Y-20287927D01*
X149667337Y-20200537D01*
X149758044Y-20143873D01*
X149795969Y-20123703D01*
X149819261Y-20138047D01*
X149888884Y-20198151D01*
X149994248Y-20296787D01*
X150126425Y-20424898D01*
X150276487Y-20573428D01*
X150435506Y-20733320D01*
X150594555Y-20895516D01*
X150744706Y-21050959D01*
X150877031Y-21190593D01*
X150982602Y-21305360D01*
X151052491Y-21386204D01*
X151077772Y-21424067D01*
X151071891Y-21440334D01*
X151031171Y-21512898D01*
X150956812Y-21632320D01*
X150854842Y-21789237D01*
X150731290Y-21974290D01*
X150592183Y-22178115D01*
X150515843Y-22289279D01*
X150384521Y-22482809D01*
X150271933Y-22651707D01*
X150184081Y-22786813D01*
X150126967Y-22878970D01*
X150106595Y-22919016D01*
X150106930Y-22921235D01*
X150124900Y-22972000D01*
X150166127Y-23075662D01*
X150224864Y-23218681D01*
X150295364Y-23387514D01*
X150371881Y-23568621D01*
X150448667Y-23748460D01*
X150519975Y-23913489D01*
X150580060Y-24050167D01*
X150623173Y-24144953D01*
X150643569Y-24184304D01*
X150655636Y-24187795D01*
X150728956Y-24203539D01*
X150859632Y-24229620D01*
X151037203Y-24263999D01*
X151251209Y-24304639D01*
X151491192Y-24349500D01*
X151617675Y-24373285D01*
X151849828Y-24418667D01*
X152052810Y-24460577D01*
X152215527Y-24496610D01*
X152326884Y-24524358D01*
X152375786Y-24541414D01*
X152384570Y-24558322D01*
X152399141Y-24640936D01*
X152410589Y-24778532D01*
X152418923Y-24958165D01*
X152424152Y-25166888D01*
X152426284Y-25391753D01*
X152425328Y-25619814D01*
X152421294Y-25838124D01*
X152414190Y-26033737D01*
X152404024Y-26193706D01*
X152390807Y-26305084D01*
X152374546Y-26354924D01*
X152364678Y-26360546D01*
X152291086Y-26384659D01*
X152163423Y-26416563D01*
X151996448Y-26452765D01*
X151804914Y-26489771D01*
X151740289Y-26501556D01*
X151441812Y-26556369D01*
X151207236Y-26600421D01*
X151028428Y-26635538D01*
X150897258Y-26663548D01*
X150805595Y-26686275D01*
X150745306Y-26705548D01*
X150708260Y-26723193D01*
X150686327Y-26741035D01*
X150683777Y-26744030D01*
X150647909Y-26806462D01*
X150594832Y-26920701D01*
X150529691Y-27073345D01*
X150457629Y-27250992D01*
X150383791Y-27440240D01*
X150313321Y-27627688D01*
X150251363Y-27799932D01*
X150203061Y-27943572D01*
X150173559Y-28045206D01*
X150168001Y-28091431D01*
X150171718Y-28097429D01*
X150210187Y-28155432D01*
X150282533Y-28262417D01*
X150382047Y-28408527D01*
X150502022Y-28583907D01*
X150635750Y-28778703D01*
X150672451Y-28832298D01*
X150801508Y-29024541D01*
X150913041Y-29196469D01*
X151000685Y-29337887D01*
X151058074Y-29438599D01*
X151078842Y-29488408D01*
X151074367Y-29501503D01*
X151027719Y-29566030D01*
X150935686Y-29671401D01*
X150804859Y-29810525D01*
X150641826Y-29976309D01*
X150453180Y-30161662D01*
X150345353Y-30265409D01*
X150174863Y-30426992D01*
X150025639Y-30565394D01*
X149905696Y-30673328D01*
X149823045Y-30743508D01*
X149785700Y-30768647D01*
X149760042Y-30759328D01*
X149681047Y-30715245D01*
X149566327Y-30643150D01*
X149430847Y-30552175D01*
X149334521Y-30485786D01*
X149142211Y-30353947D01*
X148936994Y-30213928D01*
X148749551Y-30086693D01*
X148382359Y-29838329D01*
X148074128Y-30004987D01*
X148001549Y-30043454D01*
X147869559Y-30109251D01*
X147767488Y-30154678D01*
X147712937Y-30171615D01*
X147695085Y-30149864D01*
X147650753Y-30067045D01*
X147585275Y-29930500D01*
X147502292Y-29748895D01*
X147405448Y-29530895D01*
X147298387Y-29285167D01*
X147184751Y-29020375D01*
X147068186Y-28745186D01*
X146952333Y-28468264D01*
X146840837Y-28198275D01*
X146737340Y-27943884D01*
X146645488Y-27713758D01*
X146568921Y-27516562D01*
X146511285Y-27360960D01*
X146476223Y-27255620D01*
X146467378Y-27209205D01*
X146467977Y-27207849D01*
X146509176Y-27164942D01*
X146595352Y-27097742D01*
X146708712Y-27020182D01*
X146744494Y-26996499D01*
X147016755Y-26771817D01*
X147242083Y-26504206D01*
X147415144Y-26204804D01*
X147530603Y-25884751D01*
X147583124Y-25555186D01*
X147567373Y-25227249D01*
X147503569Y-24935573D01*
X147389008Y-24641042D01*
X147222001Y-24378282D01*
X146992814Y-24128680D01*
X146902761Y-24048942D01*
X146611640Y-23852483D01*
X146297151Y-23720172D01*
X145968408Y-23650825D01*
X145634524Y-23643257D01*
X145304613Y-23696286D01*
X144987789Y-23808725D01*
X144693163Y-23979392D01*
X144429852Y-24207101D01*
X144206966Y-24490669D01*
X144164114Y-24560893D01*
X144018462Y-24881862D01*
X143941107Y-25216096D01*
X143930024Y-25554939D01*
X143983185Y-25889735D01*
X144098567Y-26211827D01*
X144274142Y-26512560D01*
X144507886Y-26783277D01*
X144797773Y-27015321D01*
X144807187Y-27021574D01*
X144919346Y-27100612D01*
X145003409Y-27167810D01*
X145041803Y-27209205D01*
X145036959Y-27241659D01*
X145006838Y-27336154D01*
X144953429Y-27482613D01*
X144880374Y-27672369D01*
X144791315Y-27896754D01*
X144689894Y-28147101D01*
X144579753Y-28414742D01*
X144464534Y-28691010D01*
X144347879Y-28967237D01*
X144233430Y-29234755D01*
X144124830Y-29484898D01*
X144025719Y-29708998D01*
X143939741Y-29898387D01*
X143870536Y-30044398D01*
X143821748Y-30138363D01*
X143797018Y-30171615D01*
X143776452Y-30167111D01*
X143695658Y-30134745D01*
X143576250Y-30077996D01*
X143435828Y-30004987D01*
X143127596Y-29838329D01*
X142760404Y-30086693D01*
X142651921Y-30160237D01*
X142450142Y-30297650D01*
X142248976Y-30435284D01*
X142079108Y-30552175D01*
X141985359Y-30615878D01*
X141863512Y-30695023D01*
X141773167Y-30749203D01*
X141729040Y-30769292D01*
X141710082Y-30760763D01*
X141641554Y-30708524D01*
X141535911Y-30616550D01*
X141402348Y-30493887D01*
X141250061Y-30349583D01*
X141088245Y-30192683D01*
X140926096Y-30032235D01*
X140772808Y-29877284D01*
X140637578Y-29736879D01*
X140529600Y-29620065D01*
X140458070Y-29535889D01*
X140432183Y-29493399D01*
X140433676Y-29485315D01*
X140464486Y-29419512D01*
X140530305Y-29305666D01*
X140624771Y-29154060D01*
X140741525Y-28974978D01*
X140874206Y-28778703D01*
X140911417Y-28724564D01*
X141042081Y-28534056D01*
X141157174Y-28365634D01*
X141249989Y-28229152D01*
X141313818Y-28134466D01*
X141341954Y-28091431D01*
X141342646Y-28089587D01*
X141334342Y-28036938D01*
X141302633Y-27930282D01*
X141252661Y-27783022D01*
X141189571Y-27608559D01*
X141118508Y-27420295D01*
X141044615Y-27231633D01*
X140973037Y-27055974D01*
X140908917Y-26906721D01*
X140857399Y-26797274D01*
X140823628Y-26741035D01*
X140820245Y-26737544D01*
X140796065Y-26719880D01*
X140755228Y-26702066D01*
X140689602Y-26682278D01*
X140591056Y-26658687D01*
X140451459Y-26629467D01*
X140262678Y-26592792D01*
X140016583Y-26546836D01*
X139705041Y-26489771D01*
X139640425Y-26477760D01*
X139455319Y-26440633D01*
X139299611Y-26405456D01*
X139188055Y-26375722D01*
X139135409Y-26354924D01*
X139126602Y-26337572D01*
X139111917Y-26254221D01*
X139100280Y-26116042D01*
X139091701Y-25935983D01*
X139086186Y-25726989D01*
X139083747Y-25502009D01*
X139084390Y-25273988D01*
X139088126Y-25055874D01*
X139094963Y-24860612D01*
X139104910Y-24701151D01*
X139117976Y-24590435D01*
X139134169Y-24541414D01*
X139150702Y-24534171D01*
X139232949Y-24511343D01*
X139371973Y-24479055D01*
X139556680Y-24439714D01*
X139775975Y-24395727D01*
X140018763Y-24349500D01*
X140151329Y-24324803D01*
X140378542Y-24281975D01*
X140574114Y-24244472D01*
X140727585Y-24214334D01*
X140828496Y-24193599D01*
X140866387Y-24184304D01*
X140867811Y-24182388D01*
X140891942Y-24133711D01*
X140937945Y-24031734D01*
X141000069Y-23889988D01*
X141072565Y-23722002D01*
X141149684Y-23541306D01*
X141225674Y-23361432D01*
X141294787Y-23195908D01*
X141351272Y-23058266D01*
X141389380Y-22962034D01*
X141403360Y-22920744D01*
X141397193Y-22906216D01*
X141356153Y-22837083D01*
X141281709Y-22720716D01*
X141179843Y-22566247D01*
X141056536Y-22382807D01*
X140917772Y-22179526D01*
X140841641Y-22068199D01*
X140710258Y-21873019D01*
X140597613Y-21701724D01*
X140509713Y-21563655D01*
X140452567Y-21468153D01*
X140432183Y-21424562D01*
X140446347Y-21400916D01*
X140505594Y-21330263D01*
X140602791Y-21223336D01*
X140729017Y-21089196D01*
X140875349Y-20936904D01*
X141032865Y-20775521D01*
X141192642Y-20614108D01*
X141345759Y-20461724D01*
X141483293Y-20327431D01*
X141596322Y-20220289D01*
X141675923Y-20149360D01*
X141713174Y-20123703D01*
X141733852Y-20133679D01*
X141809780Y-20179944D01*
X141932311Y-20258681D01*
X142092611Y-20364119D01*
X142281852Y-20490490D01*
X142491201Y-20632023D01*
X143238738Y-21140342D01*
X143861858Y-20883472D01*
X144484978Y-20626601D01*
X144653851Y-19730814D01*
X144822725Y-18835027D01*
X146687230Y-18835027D01*
X147024978Y-20626601D01*
%LPC*%
D16*
X147707283Y-71310418D03*
X144207283Y-71310418D03*
D17*
X80226390Y-37992954D03*
X167100724Y-13789101D03*
X88774530Y-966891D03*
X124813846Y-13789101D03*
X211688180Y-37992954D03*
X164957284Y-66310642D03*
X41226834Y-37992954D03*
X126957285Y-66310642D03*
X49774974Y-966891D03*
X250687736Y-37992954D03*
X242139596Y-966891D03*
X203140040Y-966891D03*
D18*
X150957285Y-70760419D03*
D19*
X151457285Y-76310419D03*
D20*
X145957285Y-76310419D03*
D19*
X140457285Y-76310419D03*
D21*
X140957285Y-80110419D03*
X145957285Y-82210419D03*
D16*
X197673144Y-60326672D03*
X194173144Y-60326672D03*
D19*
X190423139Y-65326673D03*
D20*
X195923139Y-65326673D03*
D18*
X200923139Y-59776673D03*
D19*
X201423139Y-65326673D03*
D21*
X190923139Y-69126673D03*
X195923139Y-71226673D03*
D18*
X100991426Y-59776672D03*
D19*
X101491426Y-65326672D03*
D20*
X95991426Y-65326672D03*
D19*
X90491426Y-65326672D03*
D21*
X90991426Y-69126672D03*
X95991426Y-71226672D03*
D16*
X97741427Y-60326673D03*
X94241427Y-60326673D03*
D22*
X129849345Y3115159D03*
D23*
X131486440Y1173118D03*
D22*
X133961340Y601742D03*
X136436240Y30367D03*
X138911140Y-541009D03*
X141386040Y-1112385D03*
X143860940Y-1683760D03*
X146335840Y-2255136D03*
X148810740Y-2826512D03*
X151285640Y-3397887D03*
X153760540Y-3969263D03*
X156235440Y-4540639D03*
X158710340Y-5112014D03*
X162138594Y9737385D03*
X159663694Y10308761D03*
X157188794Y10880137D03*
X154713894Y11451512D03*
X152238994Y12022888D03*
X149764094Y12594264D03*
X147289194Y13165639D03*
X144814294Y13737015D03*
X142339394Y14308391D03*
X139864494Y14879766D03*
X137389594Y15451142D03*
X134914694Y16022518D03*
X132591949Y14994678D03*
D20*
X129302915Y-36576199D03*
D19*
X134661950Y-37813430D03*
X123943880Y-35338968D03*
D24*
X135423244Y-32293200D03*
D21*
X123576251Y-39154050D03*
X127975704Y-42324982D03*
D25*
X132132824Y-32098013D03*
X128722528Y-31310685D03*
X127858752Y-50611044D03*
X124448456Y-49823716D03*
D24*
X131149174Y-50806229D03*
D19*
X119669810Y-53851997D03*
D20*
X125028845Y-55089228D03*
D19*
X130387880Y-56326459D03*
D21*
X119302181Y-57667079D03*
X123701634Y-60838011D03*
D19*
X138936021Y-19300401D03*
X128217951Y-16825939D03*
D20*
X133576986Y-18063170D03*
D24*
X139697315Y-13780171D03*
D21*
X127850322Y-20641021D03*
X132249775Y-23811953D03*
D25*
X136406895Y-13584982D03*
X132996599Y-12797654D03*
X114606534Y-23549872D03*
X111196238Y-22762544D03*
D20*
X111776633Y-28028057D03*
D24*
X117896962Y-23745058D03*
D19*
X117135668Y-29265288D03*
X106417598Y-26790826D03*
D21*
X106049969Y-30605908D03*
X110449422Y-33776840D03*
D25*
X110332467Y-42062908D03*
X106922171Y-41275580D03*
D19*
X112861599Y-47778324D03*
X102143529Y-45303862D03*
D20*
X107502564Y-46541093D03*
D24*
X113622893Y-42258094D03*
D21*
X101775900Y-49118944D03*
X106175353Y-52289876D03*
D25*
X118880605Y-5036840D03*
X115470309Y-4249512D03*
D19*
X121409738Y-10752262D03*
X110691668Y-8277800D03*
D20*
X116050703Y-9515031D03*
D24*
X122171032Y-5232032D03*
D21*
X110324039Y-12092882D03*
X114723492Y-15263814D03*
D20*
X89976278Y-37992952D03*
D24*
X96096607Y-33709953D03*
D19*
X95335313Y-39230183D03*
X84617243Y-36755721D03*
D21*
X84249614Y-40570803D03*
X88649067Y-43741735D03*
D25*
X92806181Y-33514765D03*
X89395885Y-32727437D03*
D24*
X104644748Y3316109D03*
D19*
X93165384Y270341D03*
X103883454Y-2204121D03*
D20*
X98524419Y-966890D03*
D21*
X92797755Y-3544741D03*
X97197208Y-6715673D03*
D25*
X101354322Y3511298D03*
X97944026Y4298626D03*
D19*
X88891314Y-18242690D03*
D20*
X94250349Y-19479921D03*
D19*
X99609384Y-20717152D03*
D24*
X100370678Y-15196922D03*
D21*
X88523685Y-22057772D03*
X92923138Y-25228704D03*
D25*
X97080251Y-15001730D03*
X93669955Y-14214402D03*
D20*
X79024642Y-966889D03*
D24*
X85144971Y3316110D03*
D19*
X73665607Y270342D03*
X84383677Y-2204120D03*
D21*
X73297978Y-3544740D03*
X77697431Y-6715672D03*
D25*
X81854544Y3511296D03*
X78444248Y4298624D03*
D19*
X80109602Y-20717150D03*
D20*
X74750567Y-19479919D03*
D19*
X69391532Y-18242688D03*
D24*
X80870896Y-15196920D03*
D21*
X69023903Y-22057770D03*
X73423356Y-25228702D03*
D25*
X77580474Y-15001733D03*
X74170178Y-14214405D03*
D20*
X70476498Y-37992950D03*
D19*
X75835533Y-39230181D03*
X65117463Y-36755719D03*
D24*
X76596827Y-33709951D03*
D21*
X64749834Y-40570801D03*
X69149287Y-43741733D03*
D25*
X73306404Y-33514764D03*
X69896108Y-32727436D03*
D19*
X49891757Y-18242689D03*
D20*
X55250792Y-19479920D03*
D19*
X60609827Y-20717151D03*
D24*
X61371121Y-15196921D03*
D21*
X49524128Y-22057771D03*
X53923581Y-25228703D03*
D25*
X58080696Y-15001733D03*
X54670400Y-14214405D03*
D24*
X65645193Y3316113D03*
D20*
X59524864Y-966886D03*
D19*
X64883899Y-2204117D03*
X54165829Y270345D03*
D21*
X53798200Y-3544737D03*
X58197653Y-6715669D03*
D25*
X62354766Y3511297D03*
X58944470Y4298625D03*
X53806627Y-33514765D03*
X50396331Y-32727437D03*
D24*
X57097050Y-33709949D03*
D20*
X50976721Y-37992948D03*
D19*
X56335756Y-39230179D03*
X45617686Y-36755717D03*
D21*
X45250057Y-40570799D03*
X49649510Y-43741731D03*
D19*
X41110045Y-20717150D03*
X30391975Y-18242688D03*
D24*
X41871339Y-15196920D03*
D20*
X35751010Y-19479919D03*
D21*
X30024346Y-22057770D03*
X34423799Y-25228702D03*
D25*
X34306847Y-33514765D03*
X30896551Y-32727437D03*
D24*
X37597270Y-33709949D03*
D19*
X26117906Y-36755717D03*
D20*
X31476941Y-37992948D03*
D19*
X36835976Y-39230179D03*
D21*
X25750277Y-40570799D03*
X30149730Y-43741731D03*
D19*
X34666045Y270340D03*
X45384115Y-2204122D03*
D20*
X40025080Y-966891D03*
D24*
X46145409Y3316108D03*
D21*
X34298416Y-3544742D03*
X38697869Y-6715674D03*
D25*
X42854989Y3511298D03*
X39444693Y4298626D03*
X118393637Y-68951933D03*
X114983341Y-68164605D03*
D20*
X115563736Y-73430120D03*
D19*
X120922771Y-74667351D03*
D24*
X121684065Y-69147121D03*
D19*
X110204701Y-72192889D03*
D21*
X109837072Y-76007971D03*
X114236525Y-79178903D03*
D26*
X176836986Y-68186362D03*
X173426690Y-68973690D03*
D27*
X179974207Y-66897609D03*
D19*
X170991800Y-74667349D03*
D20*
X176350835Y-73430118D03*
D19*
X181709870Y-72192887D03*
D21*
X172333799Y-78257480D03*
X177678046Y-79178901D03*
D25*
X38580918Y-15001733D03*
X35170622Y-14214405D03*
D19*
X255078590Y-39230186D03*
D27*
X264060997Y-31460446D03*
D19*
X265796660Y-36755724D03*
D20*
X260437625Y-37992955D03*
D21*
X256420589Y-42820317D03*
X261764836Y-43741738D03*
D26*
X261018018Y-32727437D03*
X257607722Y-33514765D03*
D27*
X236013079Y5565622D03*
D19*
X227030672Y-2204118D03*
X237748742Y270344D03*
D20*
X232389707Y-966887D03*
D21*
X228372671Y-5794249D03*
X233716918Y-6715670D03*
D26*
X232970102Y4298626D03*
X229559806Y3511298D03*
D19*
X246296883Y-36755722D03*
X235578813Y-39230184D03*
D27*
X244561220Y-31460444D03*
D20*
X240937848Y-37992953D03*
D21*
X236920812Y-42820315D03*
X242265059Y-43741736D03*
D26*
X241518240Y-32727436D03*
X238107944Y-33514764D03*
D20*
X236663778Y-19479921D03*
D19*
X242022813Y-18242690D03*
D27*
X240287150Y-12947412D03*
D19*
X231304743Y-20717152D03*
D21*
X232646742Y-24307283D03*
X237990989Y-25228704D03*
D26*
X237244169Y-14214403D03*
X233833873Y-15001731D03*
D19*
X257248520Y270341D03*
D27*
X255512857Y5565619D03*
D20*
X251889485Y-966890D03*
D19*
X246530450Y-2204121D03*
D21*
X247872449Y-5794252D03*
X253216696Y-6715673D03*
D26*
X252469878Y4298625D03*
X249059582Y3511297D03*
D19*
X250804521Y-20717148D03*
D20*
X256163556Y-19479917D03*
D19*
X261522591Y-18242686D03*
D27*
X259786928Y-12947408D03*
D21*
X252146520Y-24307279D03*
X257490767Y-25228700D03*
D26*
X256743947Y-14214405D03*
X253333651Y-15001733D03*
D27*
X220787371Y-12947411D03*
D19*
X211804964Y-20717151D03*
D20*
X217163999Y-19479920D03*
D19*
X222523034Y-18242689D03*
D21*
X213146963Y-24307282D03*
X218491210Y-25228703D03*
D26*
X217744392Y-14214407D03*
X214334096Y-15001735D03*
D19*
X216079035Y-39230182D03*
D20*
X221438070Y-37992951D03*
D19*
X226797105Y-36755720D03*
D27*
X225061442Y-31460442D03*
D21*
X217421034Y-42820313D03*
X222765281Y-43741734D03*
D26*
X222018461Y-32727436D03*
X218608165Y-33514764D03*
X213470322Y4298624D03*
X210060026Y3511296D03*
D27*
X216513302Y5565620D03*
D20*
X212889930Y-966889D03*
D19*
X218248965Y270342D03*
X207530895Y-2204120D03*
D21*
X208872894Y-5794251D03*
X214217141Y-6715672D03*
D19*
X188031116Y-2204123D03*
D20*
X193390151Y-966892D03*
D27*
X197013523Y5565617D03*
D19*
X198749186Y270339D03*
D21*
X189373115Y-5794254D03*
X194717362Y-6715675D03*
D26*
X193970546Y4298628D03*
X190560250Y3511300D03*
D19*
X192305185Y-20717151D03*
D20*
X197664220Y-19479920D03*
D27*
X201287592Y-12947411D03*
D19*
X203023255Y-18242689D03*
D21*
X193647184Y-24307282D03*
X198991431Y-25228703D03*
D26*
X198244614Y-14214403D03*
X194834318Y-15001731D03*
D20*
X201938291Y-37992953D03*
D27*
X205561663Y-31460444D03*
D19*
X196579256Y-39230184D03*
X207297326Y-36755722D03*
D21*
X197921255Y-42820315D03*
X203265502Y-43741736D03*
D26*
X202518683Y-32727437D03*
X199108387Y-33514765D03*
X184992401Y-41275577D03*
X181582105Y-42062905D03*
D27*
X188035377Y-40008582D03*
D19*
X179052970Y-47778322D03*
D20*
X184412005Y-46541091D03*
D19*
X189771040Y-45303860D03*
D21*
X180394969Y-51368453D03*
X185739216Y-52289874D03*
D19*
X181222900Y-8277799D03*
X170504830Y-10752261D03*
D20*
X175863865Y-9515030D03*
D27*
X179487237Y-2982521D03*
D21*
X171846829Y-14342392D03*
X177191076Y-15263813D03*
D26*
X176444258Y-4249515D03*
X173033962Y-5036843D03*
X180718329Y-22762544D03*
X177308033Y-23549872D03*
D27*
X183761308Y-21495548D03*
D19*
X185496971Y-26790826D03*
D20*
X180137936Y-28028057D03*
D19*
X174778901Y-29265288D03*
D21*
X176120900Y-32855419D03*
X181465147Y-33776840D03*
D26*
X163192045Y-31310687D03*
X159781749Y-32098015D03*
D19*
X167970689Y-35338969D03*
D27*
X166235026Y-30043691D03*
D20*
X162611654Y-36576200D03*
D19*
X157252619Y-37813431D03*
D21*
X158594618Y-41403562D03*
X163938865Y-42324983D03*
D26*
X167466117Y-49823716D03*
X164055821Y-50611044D03*
D19*
X161526688Y-56326464D03*
D20*
X166885723Y-55089233D03*
D27*
X170509095Y-48556724D03*
D19*
X172244758Y-53852002D03*
D21*
X162868687Y-59916595D03*
X168212934Y-60838016D03*
D26*
X158917976Y-12797654D03*
X155507680Y-13584982D03*
D27*
X161960954Y-11530657D03*
D20*
X158337582Y-18063166D03*
D19*
X152978547Y-19300397D03*
X163696617Y-16825935D03*
D21*
X154320546Y-22890528D03*
X159664793Y-23811949D03*
D28*
X174900000Y5000000D03*
X168566594Y6462182D03*
D22*
X150813654Y-34630174D03*
X148273654Y-34630174D03*
X145733654Y-34630174D03*
X143193654Y-34630174D03*
X140653654Y-34630174D03*
D29*
X132548034Y10287924D03*
X131873180Y7364814D03*
D30*
X133409615Y6240372D03*
X134084468Y9163482D03*
X134421894Y10625037D03*
D31*
X130317729Y5517364D03*
X132461343Y5022472D03*
X134103485Y12135374D03*
X131959871Y12630266D03*
M02*
