G04 #@! TF.GenerationSoftware,KiCad,Pcbnew,(6.0.8-1)-1*
G04 #@! TF.CreationDate,2023-02-22T13:24:55+02:00*
G04 #@! TF.ProjectId,r41l2,7234316c-322e-46b6-9963-61645f706362,rev?*
G04 #@! TF.SameCoordinates,Original*
G04 #@! TF.FileFunction,Soldermask,Top*
G04 #@! TF.FilePolarity,Negative*
%FSLAX46Y46*%
G04 Gerber Fmt 4.6, Leading zero omitted, Abs format (unit mm)*
G04 Created by KiCad (PCBNEW (6.0.8-1)-1) date 2023-02-22 13:24:55*
%MOMM*%
%LPD*%
G01*
G04 APERTURE LIST*
G04 Aperture macros list*
%AMRotRect*
0 Rectangle, with rotation*
0 The origin of the aperture is its center*
0 $1 length*
0 $2 width*
0 $3 Rotation angle, in degrees counterclockwise*
0 Add horizontal line*
21,1,$1,$2,0,0,$3*%
G04 Aperture macros list end*
%ADD10R,1.300000X1.700000*%
%ADD11C,2.500000*%
%ADD12O,2.000000X1.500000*%
%ADD13C,1.800000*%
%ADD14C,4.900000*%
%ADD15C,2.200000*%
%ADD16C,1.524000*%
%ADD17RotRect,1.524000X1.524000X347.000000*%
%ADD18RotRect,1.300000X1.700000X167.000000*%
%ADD19RotRect,1.300000X1.700000X193.000000*%
%ADD20C,2.000000*%
%ADD21C,0.900000*%
G04 APERTURE END LIST*
D10*
X147707283Y-71310418D03*
X144207283Y-71310418D03*
D11*
X80226390Y-37992954D03*
X167100724Y-13789101D03*
X88774530Y-966891D03*
X124813846Y-13789101D03*
X211688180Y-37992954D03*
X164957284Y-66310642D03*
X41226834Y-37992954D03*
X126957285Y-66310642D03*
X49774974Y-966891D03*
X250687736Y-37992954D03*
X242139596Y-966891D03*
X203140040Y-966891D03*
D12*
X150957285Y-70760419D03*
D13*
X151457285Y-76310419D03*
D14*
X145957285Y-76310419D03*
D13*
X140457285Y-76310419D03*
D15*
X140957285Y-80110419D03*
X145957285Y-82210419D03*
D10*
X197673144Y-60326672D03*
X194173144Y-60326672D03*
D13*
X190423139Y-65326673D03*
D14*
X195923139Y-65326673D03*
D13*
X201423139Y-65326673D03*
X101491426Y-65326672D03*
D14*
X95991426Y-65326672D03*
D13*
X90491426Y-65326672D03*
D10*
X97741427Y-60326673D03*
X94241427Y-60326673D03*
D16*
X129849345Y3115159D03*
D17*
X131486440Y1173118D03*
D16*
X133961340Y601742D03*
X136436240Y30367D03*
X138911140Y-541009D03*
X141386040Y-1112385D03*
X143860940Y-1683760D03*
X146335840Y-2255136D03*
X148810740Y-2826512D03*
X151285640Y-3397887D03*
X153760540Y-3969263D03*
X156235440Y-4540639D03*
X158710340Y-5112014D03*
X162138594Y9737385D03*
X159663694Y10308761D03*
X157188794Y10880137D03*
X154713894Y11451512D03*
X152238994Y12022888D03*
X149764094Y12594264D03*
X147289194Y13165639D03*
X144814294Y13737015D03*
X142339394Y14308391D03*
X139864494Y14879766D03*
X137389594Y15451142D03*
X134914694Y16022518D03*
X132591949Y14994678D03*
D14*
X129302915Y-36576199D03*
D13*
X134661950Y-37813430D03*
X123943880Y-35338968D03*
D18*
X132132824Y-32098013D03*
X128722528Y-31310685D03*
X127858752Y-50611044D03*
X124448456Y-49823716D03*
D13*
X119669810Y-53851997D03*
D14*
X125028845Y-55089228D03*
D13*
X130387880Y-56326459D03*
X138936021Y-19300401D03*
X128217951Y-16825939D03*
D14*
X133576986Y-18063170D03*
D18*
X136406895Y-13584982D03*
X132996599Y-12797654D03*
X114606534Y-23549872D03*
X111196238Y-22762544D03*
D14*
X111776633Y-28028057D03*
D13*
X117135668Y-29265288D03*
X106417598Y-26790826D03*
D18*
X110332467Y-42062908D03*
X106922171Y-41275580D03*
D13*
X112861599Y-47778324D03*
X102143529Y-45303862D03*
D14*
X107502564Y-46541093D03*
D18*
X118880605Y-5036840D03*
X115470309Y-4249512D03*
D13*
X121409738Y-10752262D03*
X110691668Y-8277800D03*
D14*
X116050703Y-9515031D03*
X89976278Y-37992952D03*
D13*
X95335313Y-39230183D03*
X84617243Y-36755721D03*
D18*
X92806181Y-33514765D03*
X89395885Y-32727437D03*
D13*
X93165384Y270341D03*
X103883454Y-2204121D03*
D14*
X98524419Y-966890D03*
D18*
X101354322Y3511298D03*
X97944026Y4298626D03*
D13*
X88891314Y-18242690D03*
D14*
X94250349Y-19479921D03*
D13*
X99609384Y-20717152D03*
D18*
X97080251Y-15001730D03*
X93669955Y-14214402D03*
D14*
X79024642Y-966889D03*
D13*
X73665607Y270342D03*
X84383677Y-2204120D03*
D18*
X81854544Y3511296D03*
X78444248Y4298624D03*
D13*
X80109602Y-20717150D03*
D14*
X74750567Y-19479919D03*
D13*
X69391532Y-18242688D03*
D18*
X77580474Y-15001733D03*
X74170178Y-14214405D03*
D14*
X70476498Y-37992950D03*
D13*
X75835533Y-39230181D03*
X65117463Y-36755719D03*
D18*
X73306404Y-33514764D03*
X69896108Y-32727436D03*
D13*
X49891757Y-18242689D03*
D14*
X55250792Y-19479920D03*
D13*
X60609827Y-20717151D03*
D18*
X58080696Y-15001733D03*
X54670400Y-14214405D03*
D14*
X59524864Y-966886D03*
D13*
X64883899Y-2204117D03*
X54165829Y270345D03*
D18*
X62354766Y3511297D03*
X58944470Y4298625D03*
X53806627Y-33514765D03*
X50396331Y-32727437D03*
D14*
X50976721Y-37992948D03*
D13*
X56335756Y-39230179D03*
X45617686Y-36755717D03*
X41110045Y-20717150D03*
X30391975Y-18242688D03*
D14*
X35751010Y-19479919D03*
D18*
X34306847Y-33514765D03*
X30896551Y-32727437D03*
D13*
X26117906Y-36755717D03*
D14*
X31476941Y-37992948D03*
D13*
X36835976Y-39230179D03*
X34666045Y270340D03*
X45384115Y-2204122D03*
D14*
X40025080Y-966891D03*
D18*
X42854989Y3511298D03*
X39444693Y4298626D03*
X118393637Y-68951933D03*
X114983341Y-68164605D03*
D14*
X115563736Y-73430120D03*
D13*
X120922771Y-74667351D03*
X110204701Y-72192889D03*
D19*
X176836986Y-68186362D03*
X173426690Y-68973690D03*
D13*
X170991800Y-74667349D03*
D14*
X176350835Y-73430118D03*
D13*
X181709870Y-72192887D03*
D18*
X38580918Y-15001733D03*
X35170622Y-14214405D03*
D13*
X255078590Y-39230186D03*
X265796660Y-36755724D03*
D14*
X260437625Y-37992955D03*
D19*
X261018018Y-32727437D03*
X257607722Y-33514765D03*
D13*
X227030672Y-2204118D03*
X237748742Y270344D03*
D14*
X232389707Y-966887D03*
D19*
X232970102Y4298626D03*
X229559806Y3511298D03*
D13*
X246296883Y-36755722D03*
X235578813Y-39230184D03*
D14*
X240937848Y-37992953D03*
D19*
X241518240Y-32727436D03*
X238107944Y-33514764D03*
D14*
X236663778Y-19479921D03*
D13*
X242022813Y-18242690D03*
X231304743Y-20717152D03*
D19*
X237244169Y-14214403D03*
X233833873Y-15001731D03*
D13*
X257248520Y270341D03*
D14*
X251889485Y-966890D03*
D13*
X246530450Y-2204121D03*
D19*
X252469878Y4298625D03*
X249059582Y3511297D03*
D13*
X250804521Y-20717148D03*
D14*
X256163556Y-19479917D03*
D13*
X261522591Y-18242686D03*
D19*
X256743947Y-14214405D03*
X253333651Y-15001733D03*
D13*
X211804964Y-20717151D03*
D14*
X217163999Y-19479920D03*
D13*
X222523034Y-18242689D03*
D19*
X217744392Y-14214407D03*
X214334096Y-15001735D03*
D13*
X216079035Y-39230182D03*
D14*
X221438070Y-37992951D03*
D13*
X226797105Y-36755720D03*
D19*
X222018461Y-32727436D03*
X218608165Y-33514764D03*
X213470322Y4298624D03*
X210060026Y3511296D03*
D14*
X212889930Y-966889D03*
D13*
X218248965Y270342D03*
X207530895Y-2204120D03*
X188031116Y-2204123D03*
D14*
X193390151Y-966892D03*
D13*
X198749186Y270339D03*
D19*
X193970546Y4298628D03*
X190560250Y3511300D03*
D13*
X192305185Y-20717151D03*
D14*
X197664220Y-19479920D03*
D13*
X203023255Y-18242689D03*
D19*
X198244614Y-14214403D03*
X194834318Y-15001731D03*
D14*
X201938291Y-37992953D03*
D13*
X196579256Y-39230184D03*
X207297326Y-36755722D03*
D19*
X202518683Y-32727437D03*
X199108387Y-33514765D03*
X184992401Y-41275577D03*
X181582105Y-42062905D03*
D13*
X179052970Y-47778322D03*
D14*
X184412005Y-46541091D03*
D13*
X189771040Y-45303860D03*
X181222900Y-8277799D03*
X170504830Y-10752261D03*
D14*
X175863865Y-9515030D03*
D19*
X176444258Y-4249515D03*
X173033962Y-5036843D03*
X180718329Y-22762544D03*
X177308033Y-23549872D03*
D13*
X185496971Y-26790826D03*
D14*
X180137936Y-28028057D03*
D13*
X174778901Y-29265288D03*
D19*
X163192045Y-31310687D03*
X159781749Y-32098015D03*
D13*
X167970689Y-35338969D03*
D14*
X162611654Y-36576200D03*
D13*
X157252619Y-37813431D03*
D19*
X167466117Y-49823716D03*
X164055821Y-50611044D03*
D13*
X161526688Y-56326464D03*
D14*
X166885723Y-55089233D03*
D13*
X172244758Y-53852002D03*
D19*
X158917976Y-12797654D03*
X155507680Y-13584982D03*
D14*
X158337582Y-18063166D03*
D13*
X152978547Y-19300397D03*
X163696617Y-16825935D03*
D20*
X174900000Y5000000D03*
X168566594Y6462182D03*
D16*
X150813654Y-34630174D03*
X148273654Y-34630174D03*
X145733654Y-34630174D03*
X143193654Y-34630174D03*
X140653654Y-34630174D03*
D21*
X132548034Y10287924D03*
X131873180Y7364814D03*
M02*
