G04 #@! TF.GenerationSoftware,KiCad,Pcbnew,(6.0.8-1)-1*
G04 #@! TF.CreationDate,2023-02-22T13:24:54+02:00*
G04 #@! TF.ProjectId,r41l2,7234316c-322e-46b6-9963-61645f706362,rev?*
G04 #@! TF.SameCoordinates,Original*
G04 #@! TF.FileFunction,Copper,L1,Top*
G04 #@! TF.FilePolarity,Positive*
%FSLAX46Y46*%
G04 Gerber Fmt 4.6, Leading zero omitted, Abs format (unit mm)*
G04 Created by KiCad (PCBNEW (6.0.8-1)-1) date 2023-02-22 13:24:54*
%MOMM*%
%LPD*%
G01*
G04 APERTURE LIST*
G04 Aperture macros list*
%AMHorizOval*
0 Thick line with rounded ends*
0 $1 width*
0 $2 $3 position (X,Y) of the first rounded end (center of the circle)*
0 $4 $5 position (X,Y) of the second rounded end (center of the circle)*
0 Add line between two ends*
20,1,$1,$2,$3,$4,$5,0*
0 Add two circle primitives to create the rounded ends*
1,1,$1,$2,$3*
1,1,$1,$4,$5*%
%AMRotRect*
0 Rectangle, with rotation*
0 The origin of the aperture is its center*
0 $1 length*
0 $2 width*
0 $3 Rotation angle, in degrees counterclockwise*
0 Add horizontal line*
21,1,$1,$2,0,0,$3*%
G04 Aperture macros list end*
G04 #@! TA.AperFunction,ComponentPad*
%ADD10R,1.300000X1.700000*%
G04 #@! TD*
G04 #@! TA.AperFunction,ComponentPad*
%ADD11C,2.500000*%
G04 #@! TD*
G04 #@! TA.AperFunction,ComponentPad*
%ADD12O,2.000000X1.500000*%
G04 #@! TD*
G04 #@! TA.AperFunction,ComponentPad*
%ADD13C,2.200000*%
G04 #@! TD*
G04 #@! TA.AperFunction,ComponentPad*
%ADD14C,1.524000*%
G04 #@! TD*
G04 #@! TA.AperFunction,ComponentPad*
%ADD15RotRect,1.524000X1.524000X347.000000*%
G04 #@! TD*
G04 #@! TA.AperFunction,ComponentPad*
%ADD16HorizOval,1.500000X0.243593X-0.056238X-0.243593X0.056238X0*%
G04 #@! TD*
G04 #@! TA.AperFunction,ComponentPad*
%ADD17RotRect,1.300000X1.700000X167.000000*%
G04 #@! TD*
G04 #@! TA.AperFunction,ComponentPad*
%ADD18RotRect,1.300000X1.700000X193.000000*%
G04 #@! TD*
G04 #@! TA.AperFunction,ComponentPad*
%ADD19HorizOval,1.500000X0.243593X0.056238X-0.243593X-0.056238X0*%
G04 #@! TD*
G04 #@! TA.AperFunction,ComponentPad*
%ADD20C,2.000000*%
G04 #@! TD*
G04 #@! TA.AperFunction,ViaPad*
%ADD21C,0.800000*%
G04 #@! TD*
G04 #@! TA.AperFunction,Conductor*
%ADD22C,0.250000*%
G04 #@! TD*
G04 APERTURE END LIST*
D10*
X147707283Y-71310418D03*
X144207283Y-71310418D03*
D11*
X80226390Y-37992954D03*
X167100724Y-13789101D03*
X88774530Y-966891D03*
X124813846Y-13789101D03*
X211688180Y-37992954D03*
X164957284Y-66310642D03*
X41226834Y-37992954D03*
X126957285Y-66310642D03*
X49774974Y-966891D03*
X250687736Y-37992954D03*
X242139596Y-966891D03*
X203140040Y-966891D03*
D12*
X150957285Y-70760419D03*
D13*
X140957285Y-80110419D03*
X145957285Y-82210419D03*
D10*
X197673144Y-60326672D03*
X194173144Y-60326672D03*
D12*
X200923139Y-59776673D03*
D13*
X190923139Y-69126673D03*
X195923139Y-71226673D03*
D12*
X100991426Y-59776672D03*
D13*
X90991426Y-69126672D03*
X95991426Y-71226672D03*
D10*
X97741427Y-60326673D03*
X94241427Y-60326673D03*
D14*
X129849345Y3115159D03*
D15*
X131486440Y1173118D03*
D14*
X133961340Y601742D03*
X136436240Y30367D03*
X138911140Y-541009D03*
X141386040Y-1112385D03*
X143860940Y-1683760D03*
X146335840Y-2255136D03*
X148810740Y-2826512D03*
X151285640Y-3397887D03*
X153760540Y-3969263D03*
X156235440Y-4540639D03*
X158710340Y-5112014D03*
X162138594Y9737385D03*
X159663694Y10308761D03*
X157188794Y10880137D03*
X154713894Y11451512D03*
X152238994Y12022888D03*
X149764094Y12594264D03*
X147289194Y13165639D03*
X144814294Y13737015D03*
X142339394Y14308391D03*
X139864494Y14879766D03*
X137389594Y15451142D03*
X134914694Y16022518D03*
X132591949Y14994678D03*
D16*
X135423244Y-32293200D03*
D13*
X123576251Y-39154050D03*
X127975704Y-42324982D03*
D17*
X132132824Y-32098013D03*
X128722528Y-31310685D03*
X127858752Y-50611044D03*
X124448456Y-49823716D03*
D16*
X131149174Y-50806229D03*
D13*
X119302181Y-57667079D03*
X123701634Y-60838011D03*
D16*
X139697315Y-13780171D03*
D13*
X127850322Y-20641021D03*
X132249775Y-23811953D03*
D17*
X136406895Y-13584982D03*
X132996599Y-12797654D03*
X114606534Y-23549872D03*
X111196238Y-22762544D03*
D16*
X117896962Y-23745058D03*
D13*
X106049969Y-30605908D03*
X110449422Y-33776840D03*
D17*
X110332467Y-42062908D03*
X106922171Y-41275580D03*
D16*
X113622893Y-42258094D03*
D13*
X101775900Y-49118944D03*
X106175353Y-52289876D03*
D17*
X118880605Y-5036840D03*
X115470309Y-4249512D03*
D16*
X122171032Y-5232032D03*
D13*
X110324039Y-12092882D03*
X114723492Y-15263814D03*
D16*
X96096607Y-33709953D03*
D13*
X84249614Y-40570803D03*
X88649067Y-43741735D03*
D17*
X92806181Y-33514765D03*
X89395885Y-32727437D03*
D16*
X104644748Y3316109D03*
D13*
X92797755Y-3544741D03*
X97197208Y-6715673D03*
D17*
X101354322Y3511298D03*
X97944026Y4298626D03*
D16*
X100370678Y-15196922D03*
D13*
X88523685Y-22057772D03*
X92923138Y-25228704D03*
D17*
X97080251Y-15001730D03*
X93669955Y-14214402D03*
D16*
X85144971Y3316110D03*
D13*
X73297978Y-3544740D03*
X77697431Y-6715672D03*
D17*
X81854544Y3511296D03*
X78444248Y4298624D03*
D16*
X80870896Y-15196920D03*
D13*
X69023903Y-22057770D03*
X73423356Y-25228702D03*
D17*
X77580474Y-15001733D03*
X74170178Y-14214405D03*
D16*
X76596827Y-33709951D03*
D13*
X64749834Y-40570801D03*
X69149287Y-43741733D03*
D17*
X73306404Y-33514764D03*
X69896108Y-32727436D03*
D16*
X61371121Y-15196921D03*
D13*
X49524128Y-22057771D03*
X53923581Y-25228703D03*
D17*
X58080696Y-15001733D03*
X54670400Y-14214405D03*
D16*
X65645193Y3316113D03*
D13*
X53798200Y-3544737D03*
X58197653Y-6715669D03*
D17*
X62354766Y3511297D03*
X58944470Y4298625D03*
X53806627Y-33514765D03*
X50396331Y-32727437D03*
D16*
X57097050Y-33709949D03*
D13*
X45250057Y-40570799D03*
X49649510Y-43741731D03*
D16*
X41871339Y-15196920D03*
D13*
X30024346Y-22057770D03*
X34423799Y-25228702D03*
D17*
X34306847Y-33514765D03*
X30896551Y-32727437D03*
D16*
X37597270Y-33709949D03*
D13*
X25750277Y-40570799D03*
X30149730Y-43741731D03*
D16*
X46145409Y3316108D03*
D13*
X34298416Y-3544742D03*
X38697869Y-6715674D03*
D17*
X42854989Y3511298D03*
X39444693Y4298626D03*
X118393637Y-68951933D03*
X114983341Y-68164605D03*
D16*
X121684065Y-69147121D03*
D13*
X109837072Y-76007971D03*
X114236525Y-79178903D03*
D18*
X176836986Y-68186362D03*
X173426690Y-68973690D03*
D19*
X179974207Y-66897609D03*
D13*
X172333799Y-78257480D03*
X177678046Y-79178901D03*
D17*
X38580918Y-15001733D03*
X35170622Y-14214405D03*
D19*
X264060997Y-31460446D03*
D13*
X256420589Y-42820317D03*
X261764836Y-43741738D03*
D18*
X261018018Y-32727437D03*
X257607722Y-33514765D03*
D19*
X236013079Y5565622D03*
D13*
X228372671Y-5794249D03*
X233716918Y-6715670D03*
D18*
X232970102Y4298626D03*
X229559806Y3511298D03*
D19*
X244561220Y-31460444D03*
D13*
X236920812Y-42820315D03*
X242265059Y-43741736D03*
D18*
X241518240Y-32727436D03*
X238107944Y-33514764D03*
D19*
X240287150Y-12947412D03*
D13*
X232646742Y-24307283D03*
X237990989Y-25228704D03*
D18*
X237244169Y-14214403D03*
X233833873Y-15001731D03*
D19*
X255512857Y5565619D03*
D13*
X247872449Y-5794252D03*
X253216696Y-6715673D03*
D18*
X252469878Y4298625D03*
X249059582Y3511297D03*
D19*
X259786928Y-12947408D03*
D13*
X252146520Y-24307279D03*
X257490767Y-25228700D03*
D18*
X256743947Y-14214405D03*
X253333651Y-15001733D03*
D19*
X220787371Y-12947411D03*
D13*
X213146963Y-24307282D03*
X218491210Y-25228703D03*
D18*
X217744392Y-14214407D03*
X214334096Y-15001735D03*
D19*
X225061442Y-31460442D03*
D13*
X217421034Y-42820313D03*
X222765281Y-43741734D03*
D18*
X222018461Y-32727436D03*
X218608165Y-33514764D03*
X213470322Y4298624D03*
X210060026Y3511296D03*
D19*
X216513302Y5565620D03*
D13*
X208872894Y-5794251D03*
X214217141Y-6715672D03*
D19*
X197013523Y5565617D03*
D13*
X189373115Y-5794254D03*
X194717362Y-6715675D03*
D18*
X193970546Y4298628D03*
X190560250Y3511300D03*
D19*
X201287592Y-12947411D03*
D13*
X193647184Y-24307282D03*
X198991431Y-25228703D03*
D18*
X198244614Y-14214403D03*
X194834318Y-15001731D03*
D19*
X205561663Y-31460444D03*
D13*
X197921255Y-42820315D03*
X203265502Y-43741736D03*
D18*
X202518683Y-32727437D03*
X199108387Y-33514765D03*
X184992401Y-41275577D03*
X181582105Y-42062905D03*
D19*
X188035377Y-40008582D03*
D13*
X180394969Y-51368453D03*
X185739216Y-52289874D03*
D19*
X179487237Y-2982521D03*
D13*
X171846829Y-14342392D03*
X177191076Y-15263813D03*
D18*
X176444258Y-4249515D03*
X173033962Y-5036843D03*
X180718329Y-22762544D03*
X177308033Y-23549872D03*
D19*
X183761308Y-21495548D03*
D13*
X176120900Y-32855419D03*
X181465147Y-33776840D03*
D18*
X163192045Y-31310687D03*
X159781749Y-32098015D03*
D19*
X166235026Y-30043691D03*
D13*
X158594618Y-41403562D03*
X163938865Y-42324983D03*
D18*
X167466117Y-49823716D03*
X164055821Y-50611044D03*
D19*
X170509095Y-48556724D03*
D13*
X162868687Y-59916595D03*
X168212934Y-60838016D03*
D18*
X158917976Y-12797654D03*
X155507680Y-13584982D03*
D19*
X161960954Y-11530657D03*
D13*
X154320546Y-22890528D03*
X159664793Y-23811949D03*
D20*
X174900000Y5000000D03*
X168566594Y6462182D03*
D14*
X150813654Y-34630174D03*
X148273654Y-34630174D03*
X145733654Y-34630174D03*
X143193654Y-34630174D03*
X140653654Y-34630174D03*
D21*
X147973654Y5669826D03*
X154864471Y-20801119D03*
X145976892Y-6802444D03*
X153739090Y-9258434D03*
X155088170Y-8433825D03*
X146726310Y-8001763D03*
X156437248Y-7609213D03*
X157786329Y-6784603D03*
X154173654Y3669826D03*
X147973654Y2569826D03*
X124673654Y-27130174D03*
X132973654Y-1230174D03*
X161421575Y-6971643D03*
X165283652Y-28145550D03*
X169557722Y-46658578D03*
X168673654Y-21230174D03*
X164873654Y-830174D03*
X123973654Y-22930174D03*
X137773654Y-3830174D03*
X137873654Y-29230174D03*
X157973654Y3469826D03*
D22*
X147973654Y5669826D02*
X140073654Y13469826D01*
X140073654Y13469826D02*
X139864494Y14879766D01*
X50658666Y-9477040D02*
X38697871Y-6715673D01*
X110762501Y429436D02*
X101903718Y-5106147D01*
X159664793Y-23811953D02*
X154867510Y-20814277D01*
X142978760Y-7008273D02*
X110762501Y429436D01*
X154867510Y-20814277D02*
X154864471Y-20801119D01*
X145619445Y-5358190D02*
X142978760Y-7008273D01*
X101903718Y-5106147D02*
X96745495Y-3915276D01*
X90777560Y-7644456D02*
X77179162Y-4505019D01*
X96745495Y-3915276D02*
X90777560Y-7644456D01*
X146335842Y-2255138D02*
X145619445Y-5358190D01*
X71242504Y-8214653D02*
X57687158Y-5085151D01*
X57687158Y-5085151D02*
X50658666Y-9477040D01*
X77179162Y-4505019D02*
X71242504Y-8214653D01*
X156737392Y-11131984D02*
X153739090Y-9258434D01*
X59365661Y-5985816D02*
X58197652Y-6715671D01*
X165019537Y-9219902D02*
X156737392Y-11131984D01*
X77281607Y-5066357D02*
X71373621Y-8758076D01*
X148215816Y-5403407D02*
X144327839Y-7832884D01*
X96919390Y-4468575D02*
X90922784Y-8215670D01*
X172241471Y-12170952D02*
X170416482Y-12592283D01*
X110893615Y-113987D02*
X102034833Y-5649569D01*
X144327839Y-7832884D02*
X110893615Y-113987D01*
X170416482Y-12592283D02*
X165019537Y-9219902D01*
X148810740Y-2826513D02*
X148215816Y-5403407D01*
X71373621Y-8758076D02*
X59365661Y-5985816D01*
X90922784Y-8215670D02*
X77281607Y-5066357D01*
X102034833Y-5649569D02*
X96919390Y-4468575D01*
X177191076Y-15263808D02*
X172241471Y-12170952D01*
X177948607Y-6748142D02*
X176749286Y-5998723D01*
X158086471Y-10307371D02*
X155088170Y-8433825D01*
X111024733Y-657409D02*
X145676917Y-8657497D01*
X147206039Y-7701995D02*
X146726310Y-8001763D01*
X150812191Y-5448621D02*
X147206039Y-7701995D01*
X151285643Y-3397885D02*
X150812191Y-5448621D01*
X176749286Y-5998723D02*
X158086471Y-10307371D01*
X91053904Y-8759093D02*
X97050509Y-5011999D01*
X145676917Y-8657497D02*
X146726310Y-8001763D01*
X97050509Y-5011999D02*
X102165950Y-6192991D01*
X77697429Y-6715670D02*
X78912945Y-5956132D01*
X190465633Y-3858357D02*
X177948607Y-6748142D01*
X194663257Y-6481320D02*
X190465633Y-3858357D01*
X102165950Y-6192991D02*
X111024733Y-657409D01*
X78912945Y-5956132D02*
X91053904Y-8759093D01*
X194717362Y-6715674D02*
X194663257Y-6481320D01*
X147025997Y-9482107D02*
X111155852Y-1200833D01*
X193838647Y-5132244D02*
X190840344Y-3258695D01*
X98548854Y-5871071D02*
X97197208Y-6715674D01*
X214217142Y-6715674D02*
X202311051Y-9464410D01*
X196712889Y-69581861D02*
X183428910Y-72648709D01*
X206123385Y-51675179D02*
X203500420Y-55872800D01*
X222752123Y-43744771D02*
X219764566Y-48525863D01*
X190840344Y-3258695D02*
X178173534Y-6183062D01*
X176974213Y-5433643D02*
X159435552Y-9482760D01*
X111155852Y-1200833D02*
X102297070Y-6736415D01*
X153408564Y-5493838D02*
X147025997Y-9482107D01*
X203500420Y-55872800D02*
X203980331Y-57951524D01*
X222765281Y-43741733D02*
X222752123Y-43744771D01*
X153760540Y-3969264D02*
X153408564Y-5493838D01*
X219764566Y-48525863D02*
X206123385Y-51675179D01*
X102297070Y-6736415D02*
X98548854Y-5871071D01*
X179629983Y-78728262D02*
X177678048Y-79178901D01*
X178173534Y-6183062D02*
X176974213Y-5433643D01*
X203980331Y-57951524D02*
X196712889Y-69581861D01*
X159435552Y-9482760D02*
X156437248Y-7609213D01*
X194962801Y-4872712D02*
X193838647Y-5132244D01*
X202311051Y-9464410D02*
X194962801Y-4872712D01*
X183428910Y-72648709D02*
X179629983Y-78728262D01*
X130960268Y-20718705D02*
X129714286Y-18724710D01*
X161196623Y-5997271D02*
X157786329Y-6784603D01*
X134857748Y-21618508D02*
X130960268Y-20718705D01*
X220438725Y3677240D02*
X209378278Y1123733D01*
X129714286Y-18724710D02*
X114723493Y-15263813D01*
X195923140Y-71226672D02*
X196275563Y-71145309D01*
X228805638Y-3224233D02*
X228354219Y-1268914D01*
X196275563Y-71145309D02*
X204500624Y-57982458D01*
X156235440Y-4540639D02*
X156037040Y-5400011D01*
X206406237Y-52071723D02*
X240711816Y-44151656D01*
X233716919Y-6715674D02*
X233602925Y-6221909D01*
X240711816Y-44151656D02*
X240749296Y-44091677D01*
X204018290Y-55893240D02*
X206406237Y-52071723D01*
X233602925Y-6221909D02*
X228805638Y-3224233D01*
X156037040Y-5400011D02*
X137521791Y-16969622D01*
X204500624Y-57982458D02*
X204018290Y-55893240D01*
X209378278Y1123733D02*
X204101242Y4421191D01*
X136716684Y-20456915D02*
X134857748Y-21618508D01*
X240749296Y-44091677D02*
X242265060Y-43741736D01*
X228354219Y-1268914D02*
X220438725Y3677240D01*
X204101242Y4421191D02*
X161571332Y-5397609D01*
X161571332Y-5397609D02*
X161196623Y-5997271D01*
X137521791Y-16969622D02*
X136716684Y-20456915D01*
X132321702Y-23828561D02*
X132249777Y-23811952D01*
X228728930Y-669254D02*
X229213081Y-2766342D01*
X137688520Y-18247906D02*
X137087677Y-20850445D01*
X209668131Y1652498D02*
X220873386Y4239434D01*
X232028786Y-4525790D02*
X239484909Y-2804408D01*
X158910456Y-4985618D02*
X159510117Y-5360326D01*
X229213081Y-2766342D02*
X232028786Y-4525790D01*
X204331140Y4987420D02*
X209668131Y1652498D01*
X239484909Y-2804408D02*
X247760224Y-7975400D01*
X158710341Y-5112012D02*
X137688520Y-18247906D01*
X159510117Y-5360326D02*
X204331140Y4987420D01*
X220873386Y4239434D02*
X228728930Y-669254D01*
X247760224Y-7975400D02*
X253216696Y-6715672D01*
X137087677Y-20850445D02*
X132321702Y-23828561D01*
X137673654Y-30130174D02*
X124673654Y-27130174D01*
X167906951Y6000917D02*
X154173654Y3669826D01*
X140653654Y-34630174D02*
X137673654Y-30130174D01*
X136673654Y-2030174D02*
X132973654Y-1230174D01*
X140073654Y1069826D02*
X138911140Y-541009D01*
X147973654Y2569826D02*
X140073654Y1069826D01*
X138911140Y-541009D02*
X136673654Y-2030174D01*
X176444257Y-4249514D02*
X174373022Y-2955260D01*
X236298938Y2104726D02*
X229103011Y6601240D01*
X174373022Y-2955260D02*
X162170994Y-5772321D01*
X229103011Y6601240D02*
X214974645Y3339450D01*
X195449335Y3450047D02*
X194250012Y4199467D01*
X252469877Y4298625D02*
X250670897Y5422754D01*
X209577701Y6711833D02*
X195449335Y3450047D01*
X214974645Y3339450D02*
X209577701Y6711833D01*
X250670897Y5422754D02*
X236298938Y2104726D01*
X162170994Y-5772321D02*
X161421575Y-6971643D01*
X254944965Y-13090276D02*
X240573008Y-16408306D01*
X197399955Y-16112549D02*
X182784405Y-19486815D01*
X179412016Y-24883760D02*
X165283652Y-28145550D01*
X240573008Y-16408306D02*
X233377081Y-11911789D01*
X165283652Y-28145550D02*
X163410105Y-31143852D01*
X198524083Y-14313569D02*
X197399955Y-16112549D01*
X256743947Y-14214403D02*
X254944965Y-13090276D01*
X200922724Y-15812404D02*
X198524083Y-14313569D01*
X215051091Y-12550615D02*
X200922724Y-15812404D01*
X233377081Y-11911789D02*
X219248716Y-15173582D01*
X219248716Y-15173582D02*
X215051091Y-12550615D01*
X182784405Y-19486815D02*
X179412016Y-24883760D01*
X258975445Y-31659547D02*
X260774426Y-32783675D01*
X239583130Y-31518246D02*
X225321766Y-34810739D01*
X183686088Y-43396788D02*
X169557722Y-46658578D01*
X169557722Y-46658578D02*
X167684174Y-49656885D01*
X201674024Y-34625579D02*
X187058473Y-37999845D01*
X202798154Y-32826595D02*
X201674024Y-34625579D01*
X241518238Y-32727438D02*
X239583130Y-31518246D01*
X241518238Y-32727438D02*
X244980076Y-34890630D01*
X204597134Y-33950724D02*
X202798154Y-32826595D01*
X244980076Y-34890630D02*
X258975445Y-31659547D01*
X218725502Y-30688937D02*
X204597134Y-33950724D01*
X225321766Y-34810739D02*
X218725502Y-30688937D01*
X187058473Y-37999845D02*
X183686088Y-43396788D01*
X196945360Y-61491372D02*
X178335822Y-65787723D01*
X151302142Y-67931820D02*
X171652262Y-67931822D01*
X171652262Y-67931822D02*
X172152261Y-67431818D01*
X147802142Y-71431822D02*
X151302142Y-67931820D01*
X118393638Y-68951936D02*
X119402314Y-67943261D01*
X175802144Y-67431821D02*
X176802144Y-68431821D01*
X172152261Y-67431818D02*
X175802144Y-67431821D01*
X178335822Y-65787723D02*
X176836985Y-68186363D01*
X97741424Y-60326672D02*
X99059249Y-62435630D01*
X197673145Y-60326673D02*
X196945360Y-61491372D01*
X99059249Y-62435630D02*
X116894799Y-66553292D01*
X144313582Y-67943261D02*
X147802142Y-71431822D01*
X116894799Y-66553292D02*
X118393637Y-68951935D01*
X119402314Y-67943261D02*
X144313582Y-67943261D01*
X140957288Y-80110418D02*
X142770997Y-72254369D01*
X142770997Y-72254369D02*
X144501706Y-71172903D01*
X62354764Y3511298D02*
X62385469Y3644297D01*
X42860163Y3533703D02*
X46195065Y5617582D01*
X118880609Y-5036843D02*
X120565310Y-7732931D01*
X42854988Y3511297D02*
X42860163Y3533703D01*
X46195065Y5617582D02*
X60456430Y2325086D01*
X134804273Y-11020256D02*
X136406889Y-13584981D01*
X80092338Y2410148D02*
X84852848Y5384846D01*
X60456430Y2325086D02*
X62354764Y3511298D01*
X120565310Y-7732931D02*
X134804273Y-11020256D01*
X62385469Y3644297D02*
X65720377Y5728177D01*
X99091809Y2097523D02*
X101354321Y3511297D01*
X65720377Y5728177D02*
X80092338Y2410148D01*
X84852848Y5384846D02*
X99091809Y2097523D01*
X116291241Y-26245962D02*
X130530200Y-29533287D01*
X56145587Y-16210922D02*
X58080695Y-15001734D01*
X41906626Y-12923600D02*
X56145587Y-16210922D01*
X113293561Y-21448679D02*
X114606539Y-23549873D01*
X38580919Y-15001734D02*
X41906626Y-12923600D01*
X114606539Y-23549873D02*
X116291241Y-26245962D01*
X97080252Y-15001733D02*
X99054603Y-18161357D01*
X61542533Y-12838538D02*
X75781492Y-16125862D01*
X99054603Y-18161357D02*
X113293561Y-21448679D01*
X130530200Y-29533287D02*
X132132819Y-32098012D01*
X95417396Y-16040800D02*
X97080253Y-15001732D01*
X75781492Y-16125862D02*
X77580473Y-15001733D01*
X81178438Y-12753477D02*
X95417396Y-16040800D01*
X58080695Y-15001734D02*
X61542533Y-12838538D01*
X77580473Y-15001733D02*
X81178438Y-12753477D01*
X76304708Y-31641215D02*
X90543670Y-34928539D01*
X51871518Y-34723955D02*
X53806626Y-33514765D01*
X92806181Y-33514763D02*
X94780531Y-36674387D01*
X109019492Y-39961709D02*
X110332465Y-42062905D01*
X90543670Y-34928539D02*
X92806181Y-33514764D01*
X71507423Y-34638891D02*
X73306404Y-33514767D01*
X57268461Y-31351569D02*
X71507423Y-34638891D01*
X94780531Y-36674387D02*
X109019492Y-39961709D01*
X112120949Y-44925081D02*
X126359910Y-48212401D01*
X73306404Y-33514767D02*
X76304708Y-31641215D01*
X126359910Y-48212401D02*
X127858747Y-50611043D01*
X37632557Y-31436632D02*
X51871518Y-34723955D01*
X110332465Y-42062905D02*
X112120949Y-44925081D01*
X53806626Y-33514765D02*
X57268461Y-31351569D01*
X34306847Y-33514763D02*
X37632557Y-31436632D01*
X142339394Y14308391D02*
X142339394Y12804086D01*
X168673654Y-21230174D02*
X167073654Y-21230174D01*
X142339394Y12804086D02*
X153473654Y1669826D01*
X153673654Y-34630174D02*
X150813654Y-34630174D01*
X153473654Y1669826D02*
X155973654Y-830174D01*
X155973654Y-830174D02*
X164873654Y-830174D01*
X167073654Y-21230174D02*
X153673654Y-34630174D01*
X143173654Y-29030174D02*
X124873654Y-24830174D01*
X148273654Y-34630174D02*
X143173654Y-29030174D01*
X141386040Y-1112385D02*
X137773654Y-3830174D01*
X124873654Y-24830174D02*
X123973654Y-22930174D01*
X143833654Y-32730174D02*
X145733654Y-34630174D01*
X141373654Y-32730174D02*
X143833654Y-32730174D01*
X137873654Y-29230174D02*
X141373654Y-32730174D01*
X163373654Y1069826D02*
X157973654Y3469826D01*
X174240357Y4538735D02*
X163373654Y1069826D01*
M02*
