G04 #@! TF.GenerationSoftware,KiCad,Pcbnew,(6.0.8-1)-1*
G04 #@! TF.CreationDate,2023-02-22T13:24:55+02:00*
G04 #@! TF.ProjectId,r41l2,7234316c-322e-46b6-9963-61645f706362,rev?*
G04 #@! TF.SameCoordinates,Original*
G04 #@! TF.FileFunction,Legend,Top*
G04 #@! TF.FilePolarity,Positive*
%FSLAX46Y46*%
G04 Gerber Fmt 4.6, Leading zero omitted, Abs format (unit mm)*
G04 Created by KiCad (PCBNEW (6.0.8-1)-1) date 2023-02-22 13:24:55*
%MOMM*%
%LPD*%
G01*
G04 APERTURE LIST*
G04 Aperture macros list*
%AMRotRect*
0 Rectangle, with rotation*
0 The origin of the aperture is its center*
0 $1 length*
0 $2 width*
0 $3 Rotation angle, in degrees counterclockwise*
0 Add horizontal line*
21,1,$1,$2,0,0,$3*%
G04 Aperture macros list end*
%ADD10C,0.150000*%
%ADD11C,0.100000*%
%ADD12C,0.381000*%
%ADD13C,2.000000*%
%ADD14R,1.300000X1.700000*%
%ADD15C,2.500000*%
%ADD16O,2.000000X1.500000*%
%ADD17C,1.800000*%
%ADD18C,4.900000*%
%ADD19C,2.200000*%
%ADD20C,1.524000*%
%ADD21RotRect,1.524000X1.524000X347.000000*%
%ADD22RotRect,1.300000X1.700000X167.000000*%
%ADD23RotRect,1.300000X1.700000X193.000000*%
%ADD24C,0.900000*%
G04 APERTURE END LIST*
D10*
X148001570Y-83395179D02*
X148144427Y-83442798D01*
X148382523Y-83442798D01*
X148477761Y-83395179D01*
X148525380Y-83347560D01*
X148572999Y-83252322D01*
X148572999Y-83157084D01*
X148525380Y-83061846D01*
X148477761Y-83014227D01*
X148382523Y-82966608D01*
X148192046Y-82918989D01*
X148096808Y-82871370D01*
X148049189Y-82823751D01*
X148001570Y-82728513D01*
X148001570Y-82633275D01*
X148049189Y-82538037D01*
X148096808Y-82490418D01*
X148192046Y-82442798D01*
X148430142Y-82442798D01*
X148572999Y-82490418D01*
X148906332Y-82776132D02*
X149096808Y-83442798D01*
X149287285Y-82966608D01*
X149477761Y-83442798D01*
X149668237Y-82776132D01*
X150572999Y-82490418D02*
X150477761Y-82442798D01*
X150334904Y-82442798D01*
X150192046Y-82490418D01*
X150096808Y-82585656D01*
X150049189Y-82680894D01*
X150001570Y-82871370D01*
X150001570Y-83014227D01*
X150049189Y-83204703D01*
X150096808Y-83299941D01*
X150192046Y-83395179D01*
X150334904Y-83442798D01*
X150430142Y-83442798D01*
X150572999Y-83395179D01*
X150620618Y-83347560D01*
X150620618Y-83014227D01*
X150430142Y-83014227D01*
X151001570Y-82538037D02*
X151049189Y-82490418D01*
X151144427Y-82442798D01*
X151382523Y-82442798D01*
X151477761Y-82490418D01*
X151525380Y-82538037D01*
X151572999Y-82633275D01*
X151572999Y-82728513D01*
X151525380Y-82871370D01*
X150953951Y-83442798D01*
X151572999Y-83442798D01*
X197967424Y-72411434D02*
X198110281Y-72459053D01*
X198348377Y-72459053D01*
X198443615Y-72411434D01*
X198491234Y-72363815D01*
X198538853Y-72268577D01*
X198538853Y-72173339D01*
X198491234Y-72078101D01*
X198443615Y-72030482D01*
X198348377Y-71982863D01*
X198157900Y-71935244D01*
X198062662Y-71887625D01*
X198015043Y-71840006D01*
X197967424Y-71744768D01*
X197967424Y-71649530D01*
X198015043Y-71554292D01*
X198062662Y-71506673D01*
X198157900Y-71459053D01*
X198395996Y-71459053D01*
X198538853Y-71506673D01*
X198872186Y-71792387D02*
X199062662Y-72459053D01*
X199253139Y-71982863D01*
X199443615Y-72459053D01*
X199634091Y-71792387D01*
X200538853Y-71506673D02*
X200443615Y-71459053D01*
X200300758Y-71459053D01*
X200157900Y-71506673D01*
X200062662Y-71601911D01*
X200015043Y-71697149D01*
X199967424Y-71887625D01*
X199967424Y-72030482D01*
X200015043Y-72220958D01*
X200062662Y-72316196D01*
X200157900Y-72411434D01*
X200300758Y-72459053D01*
X200395996Y-72459053D01*
X200538853Y-72411434D01*
X200586472Y-72363815D01*
X200586472Y-72030482D01*
X200395996Y-72030482D01*
X201443615Y-71792387D02*
X201443615Y-72459053D01*
X201205519Y-71411434D02*
X200967424Y-72125720D01*
X201586472Y-72125720D01*
X98035711Y-72411433D02*
X98178568Y-72459052D01*
X98416664Y-72459052D01*
X98511902Y-72411433D01*
X98559521Y-72363814D01*
X98607140Y-72268576D01*
X98607140Y-72173338D01*
X98559521Y-72078100D01*
X98511902Y-72030481D01*
X98416664Y-71982862D01*
X98226187Y-71935243D01*
X98130949Y-71887624D01*
X98083330Y-71840005D01*
X98035711Y-71744767D01*
X98035711Y-71649529D01*
X98083330Y-71554291D01*
X98130949Y-71506672D01*
X98226187Y-71459052D01*
X98464283Y-71459052D01*
X98607140Y-71506672D01*
X98940473Y-71792386D02*
X99130949Y-72459052D01*
X99321426Y-71982862D01*
X99511902Y-72459052D01*
X99702378Y-71792386D01*
X100607140Y-71506672D02*
X100511902Y-71459052D01*
X100369045Y-71459052D01*
X100226187Y-71506672D01*
X100130949Y-71601910D01*
X100083330Y-71697148D01*
X100035711Y-71887624D01*
X100035711Y-72030481D01*
X100083330Y-72220957D01*
X100130949Y-72316195D01*
X100226187Y-72411433D01*
X100369045Y-72459052D01*
X100464283Y-72459052D01*
X100607140Y-72411433D01*
X100654759Y-72363814D01*
X100654759Y-72030481D01*
X100464283Y-72030481D01*
X101273806Y-71459052D02*
X101369045Y-71459052D01*
X101464283Y-71506672D01*
X101511902Y-71554291D01*
X101559521Y-71649529D01*
X101607140Y-71840005D01*
X101607140Y-72078100D01*
X101559521Y-72268576D01*
X101511902Y-72363814D01*
X101464283Y-72411433D01*
X101369045Y-72459052D01*
X101273806Y-72459052D01*
X101178568Y-72411433D01*
X101130949Y-72363814D01*
X101083330Y-72268576D01*
X101035711Y-72078100D01*
X101035711Y-71840005D01*
X101083330Y-71649529D01*
X101130949Y-71554291D01*
X101178568Y-71506672D01*
X101273806Y-71459052D01*
X136395047Y1630110D02*
X136340789Y1564442D01*
X136315081Y1453085D01*
X136326491Y1333159D01*
X136383590Y1241782D01*
X136449258Y1187524D01*
X136589164Y1116127D01*
X136700520Y1090419D01*
X136857565Y1093259D01*
X136940372Y1113239D01*
X137031749Y1170338D01*
X137094577Y1273125D01*
X137111716Y1347362D01*
X137100306Y1467288D01*
X137071756Y1512977D01*
X136811924Y1572964D01*
X136777646Y1424488D01*
X137223120Y1829907D02*
X136443624Y2009868D01*
X137325955Y2275334D01*
X136546459Y2455295D01*
X137411651Y2646522D02*
X136632155Y2826483D01*
X136675002Y3012078D01*
X136737830Y3114865D01*
X136829207Y3171963D01*
X136912014Y3191943D01*
X137069059Y3194783D01*
X137180416Y3169075D01*
X137320322Y3097678D01*
X137385990Y3043420D01*
X137443088Y2952043D01*
X137454499Y2832117D01*
X137411651Y2646522D01*
X159067489Y-3311004D02*
X159130316Y-3208217D01*
X159176005Y-3179668D01*
X159258812Y-3159688D01*
X159370169Y-3185397D01*
X159435837Y-3239655D01*
X159464386Y-3285344D01*
X159484366Y-3368151D01*
X159415809Y-3665102D01*
X158636313Y-3485141D01*
X158696300Y-3225309D01*
X158750558Y-3159641D01*
X158796247Y-3131091D01*
X158879054Y-3111112D01*
X158953292Y-3128251D01*
X159018960Y-3182509D01*
X159047509Y-3228197D01*
X159067489Y-3311004D01*
X159007502Y-3570836D01*
X158901970Y-2334456D02*
X158816274Y-2705645D01*
X159178893Y-2828459D01*
X159150344Y-2782771D01*
X159130364Y-2699964D01*
X159173212Y-2514369D01*
X159227470Y-2448701D01*
X159273158Y-2420152D01*
X159355966Y-2400172D01*
X159541560Y-2443020D01*
X159607228Y-2497278D01*
X159635777Y-2542966D01*
X159655757Y-2625774D01*
X159612909Y-2811368D01*
X159558651Y-2877036D01*
X159512963Y-2905585D01*
X151637658Y9672245D02*
X151577671Y9412413D01*
X151985979Y9318148D02*
X151206483Y9498108D01*
X151292178Y9869297D01*
X151343596Y10092010D02*
X151463570Y10611674D01*
X152165940Y10097644D01*
X130113660Y4577562D02*
X130192195Y4706046D01*
X130249305Y4741732D01*
X130352814Y4766707D01*
X130492010Y4734571D01*
X130574095Y4666749D01*
X130609782Y4609638D01*
X130634756Y4506129D01*
X130549061Y4134940D01*
X129574691Y4359891D01*
X129649674Y4684681D01*
X129717497Y4766767D01*
X129774607Y4802453D01*
X129878117Y4827428D01*
X129970914Y4806004D01*
X130052999Y4738181D01*
X130088685Y4681071D01*
X130113660Y4577562D01*
X130038676Y4252772D01*
X130402823Y5195006D02*
X130574215Y5937383D01*
X146687860Y10814996D02*
X146627873Y10555164D01*
X147036181Y10460899D02*
X146256685Y10640859D01*
X146342380Y11012048D01*
X146496633Y11680188D02*
X146410937Y11308999D01*
X146773556Y11186184D01*
X146745007Y11231873D01*
X146725027Y11314680D01*
X146767875Y11500274D01*
X146822133Y11565943D01*
X146867821Y11594492D01*
X146950628Y11614472D01*
X147136223Y11571624D01*
X147201891Y11517366D01*
X147230440Y11471677D01*
X147250420Y11388870D01*
X147207572Y11203276D01*
X147153314Y11137608D01*
X147107626Y11109058D01*
X134657395Y13299218D02*
X134226219Y13125082D01*
X134554560Y12853792D02*
X133775064Y13033753D01*
X133843621Y13330704D01*
X133897879Y13396372D01*
X133943567Y13424921D01*
X134026374Y13444901D01*
X134137731Y13419192D01*
X134203399Y13364934D01*
X134231948Y13319246D01*
X134251928Y13236438D01*
X134183372Y12939488D01*
X134503238Y13647586D02*
X134588934Y14018775D01*
X134708812Y13521931D02*
X133989303Y13961724D01*
X134828786Y14041595D01*
X134092138Y14407151D02*
X134914482Y14412784D01*
X134391977Y14689803D01*
X134983038Y14709735D01*
X134246390Y15075290D01*
X149162759Y10243621D02*
X149102772Y9983789D01*
X149511080Y9889524D02*
X148731584Y10069484D01*
X148817279Y10440673D01*
X148962962Y11071694D02*
X148928684Y10923218D01*
X148948663Y10840411D01*
X148977213Y10794723D01*
X149071430Y10694776D01*
X149211336Y10623379D01*
X149508287Y10554822D01*
X149591094Y10574802D01*
X149636783Y10603352D01*
X149691041Y10669020D01*
X149725319Y10817495D01*
X149705339Y10900302D01*
X149676790Y10945991D01*
X149611122Y11000249D01*
X149425527Y11043097D01*
X149342720Y11023117D01*
X149297032Y10994568D01*
X149242774Y10928899D01*
X149208495Y10780424D01*
X149228475Y10697617D01*
X149257024Y10651928D01*
X149322693Y10597670D01*
X156592590Y-2739629D02*
X156655417Y-2636842D01*
X156701106Y-2608293D01*
X156783913Y-2588313D01*
X156895270Y-2614022D01*
X156960938Y-2668280D01*
X156989487Y-2713969D01*
X157009467Y-2796776D01*
X156940910Y-3093727D01*
X156161414Y-2913766D01*
X156221401Y-2653934D01*
X156275659Y-2588266D01*
X156321348Y-2559716D01*
X156404155Y-2539737D01*
X156478393Y-2556876D01*
X156544061Y-2611134D01*
X156572610Y-2656822D01*
X156592590Y-2739629D01*
X156532603Y-2999461D01*
X156678333Y-1860187D02*
X157197997Y-1980161D01*
X156338535Y-1977225D02*
X156852470Y-2291363D01*
X156963874Y-1808817D01*
X131942062Y12497242D02*
X132020597Y12625726D01*
X132077707Y12661412D01*
X132181216Y12686387D01*
X132320412Y12654251D01*
X132402497Y12586429D01*
X132438184Y12529318D01*
X132463158Y12425809D01*
X132377463Y12054620D01*
X131403093Y12279571D01*
X131478076Y12604361D01*
X131545899Y12686447D01*
X131603009Y12722133D01*
X131706519Y12747108D01*
X131799316Y12725684D01*
X131881401Y12657861D01*
X131917087Y12600751D01*
X131942062Y12497242D01*
X131867078Y12172452D01*
X132231225Y13114686D02*
X132402617Y13857063D01*
X132688109Y13400179D02*
X131945732Y13571570D01*
X151991109Y-1950975D02*
X151211613Y-1771014D01*
X151254461Y-1585420D01*
X151317289Y-1482633D01*
X151408666Y-1425534D01*
X151491473Y-1405554D01*
X151648518Y-1402714D01*
X151759874Y-1428422D01*
X151899780Y-1499819D01*
X151965448Y-1554077D01*
X152022547Y-1645454D01*
X152033957Y-1765380D01*
X151991109Y-1950975D01*
X151374435Y-1065756D02*
X151494409Y-546091D01*
X152196779Y-1060122D01*
X131477455Y3081708D02*
X131580289Y3527134D01*
X132308368Y3124460D02*
X131528872Y3304421D01*
X131623137Y3712729D02*
X132522607Y4052432D01*
X131743111Y4232393D02*
X132402633Y3532768D01*
X131845946Y4677819D02*
X131863085Y4752057D01*
X131917343Y4817725D01*
X131963031Y4846274D01*
X132045839Y4866254D01*
X132202884Y4869095D01*
X132388478Y4826247D01*
X132528384Y4754850D01*
X132594052Y4700592D01*
X132622601Y4654903D01*
X132642581Y4572096D01*
X132625442Y4497858D01*
X132571184Y4432190D01*
X132525496Y4403641D01*
X132442688Y4383661D01*
X132285643Y4380820D01*
X132100049Y4423668D01*
X131960143Y4495065D01*
X131894475Y4549323D01*
X131865926Y4595012D01*
X131845946Y4677819D01*
X132074484Y5837073D02*
X132922441Y4937556D01*
X132951085Y5908375D02*
X132171589Y6088336D01*
X132214437Y6273930D01*
X132277265Y6376717D01*
X132368642Y6433816D01*
X132451449Y6453795D01*
X132608494Y6456636D01*
X132719850Y6430927D01*
X132859756Y6359530D01*
X132925424Y6305272D01*
X132982523Y6213895D01*
X132993933Y6093969D01*
X132951085Y5908375D01*
X132334411Y6793594D02*
X132445815Y7276139D01*
X132682779Y6947751D01*
X132708488Y7059107D01*
X132762746Y7124775D01*
X132808434Y7153325D01*
X132891242Y7173304D01*
X133076836Y7130457D01*
X133142504Y7076199D01*
X133171053Y7030510D01*
X133191033Y6947703D01*
X133139616Y6724990D01*
X133085358Y6659322D01*
X133039669Y6630772D01*
X161524404Y7331064D02*
X161587231Y7433851D01*
X161632920Y7462400D01*
X161715727Y7482380D01*
X161827084Y7456671D01*
X161892752Y7402413D01*
X161921301Y7356724D01*
X161941281Y7273917D01*
X161872724Y6976966D01*
X161093228Y7156927D01*
X161153215Y7416759D01*
X161207473Y7482427D01*
X161253162Y7510977D01*
X161335969Y7530956D01*
X161410207Y7513817D01*
X161475875Y7459559D01*
X161504424Y7413871D01*
X161524404Y7331064D01*
X161464417Y7071232D01*
X161350315Y8270493D02*
X161316037Y8122018D01*
X161336017Y8039210D01*
X161364566Y7993522D01*
X161458784Y7893575D01*
X161598689Y7822178D01*
X161895640Y7753622D01*
X161978448Y7773601D01*
X162024136Y7802151D01*
X162078394Y7867819D01*
X162112672Y8016294D01*
X162092692Y8099102D01*
X162064143Y8144790D01*
X161998475Y8199048D01*
X161812881Y8241896D01*
X161730073Y8221916D01*
X161684385Y8193367D01*
X161630127Y8127699D01*
X161595849Y7979223D01*
X161615829Y7896416D01*
X161644378Y7850728D01*
X161710046Y7796470D01*
X159049504Y7902440D02*
X159112331Y8005227D01*
X159158020Y8033776D01*
X159240827Y8053756D01*
X159352184Y8028047D01*
X159417852Y7973789D01*
X159446401Y7928100D01*
X159466381Y7845293D01*
X159397824Y7548342D01*
X158618328Y7728303D01*
X158678315Y7988135D01*
X158732573Y8053803D01*
X158778262Y8082353D01*
X158861069Y8102332D01*
X158935307Y8085193D01*
X159000975Y8030935D01*
X159029524Y7985247D01*
X159049504Y7902440D01*
X158989517Y7642608D01*
X158863957Y8453541D02*
X158835408Y8499230D01*
X158815428Y8582037D01*
X158858276Y8767631D01*
X158912534Y8833299D01*
X158958223Y8861849D01*
X159041030Y8881828D01*
X159115268Y8864689D01*
X159218055Y8801862D01*
X159560646Y8253601D01*
X159672050Y8736146D01*
X139661472Y12391567D02*
X139230296Y12217430D01*
X139558637Y11946140D02*
X138779141Y12126101D01*
X138847697Y12423052D01*
X138901955Y12488720D01*
X138947644Y12517270D01*
X139030451Y12537249D01*
X139141808Y12511541D01*
X139207476Y12457283D01*
X139236025Y12411594D01*
X139256005Y12328787D01*
X139187448Y12031836D01*
X139692909Y12697087D02*
X139755737Y12799874D01*
X139798585Y12985469D01*
X139778605Y13068276D01*
X139750056Y13113964D01*
X139684388Y13168222D01*
X139610150Y13185361D01*
X139527343Y13165382D01*
X139481654Y13136832D01*
X139427396Y13071164D01*
X139355999Y12931258D01*
X139301741Y12865590D01*
X139256053Y12837041D01*
X139173245Y12817061D01*
X139099008Y12834200D01*
X139033339Y12888458D01*
X139004790Y12934147D01*
X138984810Y13016954D01*
X139027658Y13202548D01*
X139090486Y13305335D01*
X139104784Y13536618D02*
X139207619Y13982044D01*
X139935698Y13579370D02*
X139156202Y13759331D01*
X142115836Y439898D02*
X141336340Y619858D01*
X141379188Y805453D01*
X141442015Y908240D01*
X141533392Y965338D01*
X141616200Y985318D01*
X141773245Y988159D01*
X141884601Y962450D01*
X142024507Y891053D01*
X142090175Y836795D01*
X142147274Y745418D01*
X142158684Y625492D01*
X142115836Y439898D01*
X142390062Y1627701D02*
X142287227Y1182275D01*
X142338645Y1404988D02*
X141559149Y1584949D01*
X141653366Y1485002D01*
X141710465Y1393625D01*
X141730444Y1310818D01*
X141779117Y2707084D02*
X142627074Y1807566D01*
X142610030Y2749836D02*
X142672858Y2852623D01*
X142715706Y3038218D01*
X142695726Y3121025D01*
X142667177Y3166713D01*
X142601508Y3220971D01*
X142527271Y3238110D01*
X142444463Y3218131D01*
X142398775Y3189581D01*
X142344517Y3123913D01*
X142273120Y2984007D01*
X142218862Y2918339D01*
X142173173Y2889790D01*
X142090366Y2869810D01*
X142016128Y2886949D01*
X141950460Y2941207D01*
X141921911Y2986896D01*
X141901931Y3069703D01*
X141944779Y3255297D01*
X142007607Y3358084D01*
X142827110Y3520763D02*
X142047614Y3700724D01*
X142090462Y3886318D01*
X142153289Y3989105D01*
X142244666Y4046204D01*
X142327473Y4066183D01*
X142484518Y4069024D01*
X142595875Y4043315D01*
X142735781Y3971918D01*
X142801449Y3917660D01*
X142858548Y3826283D01*
X142869958Y3706357D01*
X142827110Y3520763D01*
X142775788Y4314557D02*
X142861484Y4685746D01*
X142981362Y4188902D02*
X142261853Y4628695D01*
X143101336Y4708566D01*
X144212959Y11386372D02*
X144152972Y11126540D01*
X144561280Y11032275D02*
X143781784Y11212235D01*
X143867479Y11583424D01*
X144272994Y12154458D02*
X144792658Y12034484D01*
X143933195Y12037420D02*
X144447130Y11723282D01*
X144558535Y12205827D01*
X154099704Y9045191D02*
X154162531Y9147978D01*
X154208220Y9176527D01*
X154291027Y9196507D01*
X154402384Y9170798D01*
X154468052Y9116540D01*
X154496601Y9070851D01*
X154516581Y8988044D01*
X154448024Y8691093D01*
X153668528Y8871054D01*
X153728515Y9130886D01*
X153782773Y9196554D01*
X153828462Y9225104D01*
X153911269Y9245083D01*
X153985507Y9227944D01*
X154051175Y9173686D01*
X154079724Y9127998D01*
X154099704Y9045191D01*
X154039717Y8785359D01*
X154722250Y9878897D02*
X154619416Y9433471D01*
X154670833Y9656184D02*
X153891337Y9836145D01*
X153985554Y9736198D01*
X154042653Y9644821D01*
X154062633Y9562014D01*
X144595021Y-112917D02*
X143815525Y67043D01*
X143858373Y252637D01*
X143921200Y355424D01*
X144012577Y412523D01*
X144095384Y432502D01*
X144252429Y435343D01*
X144363786Y409634D01*
X144503692Y338237D01*
X144569360Y283979D01*
X144626459Y192602D01*
X144637869Y72676D01*
X144595021Y-112917D01*
X144029764Y995014D02*
X144046903Y1069252D01*
X144101161Y1134920D01*
X144146849Y1163469D01*
X144229657Y1183449D01*
X144386702Y1186290D01*
X144572296Y1143442D01*
X144712202Y1072045D01*
X144777870Y1017787D01*
X144806419Y972098D01*
X144826399Y889291D01*
X144809260Y815053D01*
X144755002Y749385D01*
X144709314Y720836D01*
X144626506Y700856D01*
X144469461Y698016D01*
X144283867Y740863D01*
X144143961Y812261D01*
X144078293Y866519D01*
X144049744Y912207D01*
X144029764Y995014D01*
X144258302Y2154268D02*
X145106259Y1254751D01*
X145089215Y2197021D02*
X145152043Y2299808D01*
X145194890Y2485402D01*
X145174911Y2568209D01*
X145146361Y2613898D01*
X145080693Y2668156D01*
X145006455Y2685295D01*
X144923648Y2665315D01*
X144877960Y2636766D01*
X144823702Y2571098D01*
X144752305Y2431192D01*
X144698047Y2365524D01*
X144652358Y2336974D01*
X144569551Y2316995D01*
X144495313Y2334134D01*
X144429645Y2388392D01*
X144401096Y2434080D01*
X144381116Y2516888D01*
X144423964Y2702482D01*
X144486791Y2805269D01*
X145334892Y3430513D02*
X145363441Y3384824D01*
X145374851Y3264898D01*
X145357712Y3190660D01*
X145294885Y3087873D01*
X145203508Y3030775D01*
X145120700Y3010795D01*
X144963655Y3007954D01*
X144852299Y3033663D01*
X144712393Y3105060D01*
X144646725Y3159318D01*
X144589626Y3250695D01*
X144578216Y3370621D01*
X144595355Y3444859D01*
X144658183Y3547646D01*
X144703871Y3576195D01*
X145571951Y4118632D02*
X145486256Y3747443D01*
X144706759Y3927404D01*
X149544806Y-917034D02*
X149573356Y-962723D01*
X149584766Y-1082649D01*
X149567627Y-1156887D01*
X149504799Y-1259674D01*
X149413422Y-1316772D01*
X149330615Y-1336752D01*
X149173570Y-1339592D01*
X149062214Y-1313884D01*
X148922308Y-1242487D01*
X148856640Y-1188229D01*
X148799541Y-1096852D01*
X148788131Y-976926D01*
X148805270Y-902688D01*
X148868097Y-799901D01*
X148913786Y-771352D01*
X148993800Y-86073D02*
X148959522Y-234548D01*
X148979502Y-317356D01*
X149008051Y-363044D01*
X149102269Y-462991D01*
X149242174Y-534388D01*
X149539125Y-602944D01*
X149621933Y-582965D01*
X149667621Y-554415D01*
X149721879Y-488747D01*
X149756157Y-340272D01*
X149736177Y-257464D01*
X149707628Y-211776D01*
X149641960Y-157518D01*
X149456366Y-114670D01*
X149373558Y-134650D01*
X149327870Y-163199D01*
X149273612Y-228867D01*
X149239334Y-377343D01*
X149259314Y-460150D01*
X149287863Y-505838D01*
X149353531Y-560096D01*
X141186910Y11263947D02*
X142026393Y11343819D01*
X141306884Y11783611D01*
X142174964Y12326048D02*
X142203513Y12280360D01*
X142214923Y12160434D01*
X142197784Y12086196D01*
X142134957Y11983409D01*
X142043580Y11926310D01*
X141960772Y11906330D01*
X141803727Y11903490D01*
X141692371Y11929199D01*
X141552465Y12000596D01*
X141486797Y12054854D01*
X141429698Y12146230D01*
X141418288Y12266157D01*
X141435427Y12340394D01*
X141498255Y12443181D01*
X141543943Y12471731D01*
X142354925Y13105544D02*
X142383474Y13059856D01*
X142394884Y12939930D01*
X142377745Y12865692D01*
X142314917Y12762905D01*
X142223541Y12705806D01*
X142140733Y12685826D01*
X141983688Y12682986D01*
X141872332Y12708695D01*
X141732426Y12780092D01*
X141666758Y12834350D01*
X141609659Y12925727D01*
X141598249Y13045653D01*
X141615388Y13119890D01*
X141678216Y13222677D01*
X141723904Y13251227D01*
X134666809Y2048653D02*
X133887313Y2228614D01*
X133930161Y2414208D01*
X133992989Y2516995D01*
X134084366Y2574094D01*
X134167173Y2594074D01*
X134324218Y2596914D01*
X134435574Y2571206D01*
X134575480Y2499809D01*
X134641148Y2445551D01*
X134698247Y2354174D01*
X134709657Y2234248D01*
X134666809Y2048653D01*
X134132942Y2953852D02*
X134104393Y2999541D01*
X134084413Y3082348D01*
X134127261Y3267942D01*
X134181519Y3333610D01*
X134227208Y3362160D01*
X134310015Y3382139D01*
X134384253Y3365000D01*
X134487040Y3302173D01*
X134829631Y2753912D01*
X134941035Y3236457D01*
X147041309Y-808224D02*
X146261813Y-628263D01*
X146304661Y-442669D01*
X146367489Y-339882D01*
X146458866Y-282783D01*
X146541673Y-262803D01*
X146698718Y-259963D01*
X146810074Y-285671D01*
X146949980Y-357068D01*
X147015648Y-411326D01*
X147072747Y-502703D01*
X147084157Y-622629D01*
X147041309Y-808224D01*
X146778732Y425315D02*
X147298396Y305341D01*
X146438934Y308277D02*
X146952869Y-5860D01*
X147064273Y476685D01*
X156574604Y8473816D02*
X156637431Y8576603D01*
X156683120Y8605152D01*
X156765927Y8625132D01*
X156877284Y8599423D01*
X156942952Y8545165D01*
X156971501Y8499476D01*
X156991481Y8416669D01*
X156922924Y8119718D01*
X156143428Y8299679D01*
X156203415Y8559511D01*
X156257673Y8625179D01*
X156303362Y8653729D01*
X156386169Y8673708D01*
X156460407Y8656569D01*
X156526075Y8602311D01*
X156554624Y8556623D01*
X156574604Y8473816D01*
X156514617Y8213984D01*
X156306250Y9004937D02*
X156417654Y9487483D01*
X156654618Y9159094D01*
X156680327Y9270451D01*
X156734585Y9336119D01*
X156780273Y9364668D01*
X156863081Y9384648D01*
X157048675Y9341800D01*
X157114343Y9287542D01*
X157142892Y9241854D01*
X157162872Y9159046D01*
X157111455Y8936333D01*
X157057197Y8870665D01*
X157011508Y8842116D01*
X138869947Y1058734D02*
X138815689Y993066D01*
X138789981Y881709D01*
X138801391Y761783D01*
X138858490Y670406D01*
X138924158Y616148D01*
X139064064Y544751D01*
X139175420Y519043D01*
X139332465Y521883D01*
X139415272Y541863D01*
X139506649Y598962D01*
X139569477Y701749D01*
X139586616Y775986D01*
X139575206Y895912D01*
X139546656Y941601D01*
X139286824Y1001588D01*
X139252546Y853112D01*
X139698020Y1258531D02*
X138918524Y1438492D01*
X139800855Y1703958D01*
X139021359Y1883919D01*
X139886551Y2075146D02*
X139107055Y2255107D01*
X139149902Y2440702D01*
X139212730Y2543489D01*
X139304107Y2600587D01*
X139386914Y2620567D01*
X139543959Y2623407D01*
X139655316Y2597699D01*
X139795222Y2526302D01*
X139860890Y2472044D01*
X139917988Y2380667D01*
X139929399Y2260741D01*
X139886551Y2075146D01*
X136377063Y12843555D02*
X136322805Y12777887D01*
X136297097Y12666530D01*
X136308507Y12546604D01*
X136365606Y12455227D01*
X136431274Y12400969D01*
X136571180Y12329572D01*
X136682536Y12303864D01*
X136839581Y12306704D01*
X136922388Y12326684D01*
X137013765Y12383783D01*
X137076593Y12486570D01*
X137093732Y12560807D01*
X137082322Y12680733D01*
X137053772Y12726422D01*
X136793940Y12786409D01*
X136759662Y12637933D01*
X137205136Y13043352D02*
X136425640Y13223313D01*
X137307971Y13488779D01*
X136528475Y13668740D01*
X137393667Y13859967D02*
X136614171Y14039928D01*
X136657018Y14225523D01*
X136719846Y14328310D01*
X136811223Y14385408D01*
X136894030Y14405388D01*
X137051075Y14408228D01*
X137162432Y14382520D01*
X137302338Y14311123D01*
X137368006Y14256865D01*
X137425104Y14165488D01*
X137436515Y14045562D01*
X137393667Y13859967D01*
X154066272Y-2390967D02*
X154126258Y-2131135D01*
X154560275Y-2114043D02*
X154474579Y-2485232D01*
X153695083Y-2305271D01*
X153780779Y-1934082D01*
X153935031Y-1265943D02*
X153900752Y-1414418D01*
X153920732Y-1497226D01*
X153949281Y-1542914D01*
X154043499Y-1642860D01*
X154183405Y-1714258D01*
X154480356Y-1782814D01*
X154563163Y-1762834D01*
X154608851Y-1734285D01*
X154663109Y-1668617D01*
X154697388Y-1520141D01*
X154677408Y-1437334D01*
X154648859Y-1391646D01*
X154583190Y-1337388D01*
X154397596Y-1294540D01*
X154314789Y-1314520D01*
X154269100Y-1343069D01*
X154214842Y-1408737D01*
X154180564Y-1557213D01*
X154200544Y-1640020D01*
X154229093Y-1685708D01*
X154294761Y-1739966D01*
X133363077Y-43953864D02*
X133234593Y-43875329D01*
X133002600Y-43821770D01*
X132899091Y-43846744D01*
X132841980Y-43882431D01*
X132774158Y-43964516D01*
X132752734Y-44057313D01*
X132777709Y-44160822D01*
X132813395Y-44217933D01*
X132895480Y-44285755D01*
X133070363Y-44375002D01*
X133152448Y-44442824D01*
X133188135Y-44499935D01*
X133213109Y-44603444D01*
X133191685Y-44696241D01*
X133123863Y-44778326D01*
X133066752Y-44814013D01*
X132963243Y-44838988D01*
X132731250Y-44785428D01*
X132602767Y-44706893D01*
X132342248Y-44353518D02*
X132306621Y-43661090D01*
X132013908Y-44082228D01*
X131935433Y-43575395D01*
X131599871Y-44182127D01*
X130936028Y-43882252D02*
X130807545Y-43803717D01*
X130771858Y-43746607D01*
X130746883Y-43643098D01*
X130779019Y-43503902D01*
X130846842Y-43421817D01*
X130903952Y-43386130D01*
X131007461Y-43361156D01*
X131378650Y-43446851D01*
X131153699Y-44421221D01*
X130828909Y-44346238D01*
X130746824Y-44278415D01*
X130711137Y-44221305D01*
X130686162Y-44117796D01*
X130707586Y-44024998D01*
X130775409Y-43942913D01*
X130832519Y-43907227D01*
X130936028Y-43882252D01*
X131260818Y-43957236D01*
X129715343Y-44089151D02*
X130179329Y-44196270D01*
X130332847Y-43742997D01*
X130275736Y-43778683D01*
X130172227Y-43803658D01*
X129940234Y-43750098D01*
X129858149Y-43682276D01*
X129822463Y-43625165D01*
X129797488Y-43521656D01*
X129851048Y-43289663D01*
X129918870Y-43207578D01*
X129975981Y-43171891D01*
X130079490Y-43146917D01*
X130311483Y-43200476D01*
X130393568Y-43268299D01*
X130429255Y-43325409D01*
X129089007Y-62466893D02*
X128960523Y-62388358D01*
X128728530Y-62334799D01*
X128625021Y-62359773D01*
X128567910Y-62395460D01*
X128500088Y-62477545D01*
X128478664Y-62570342D01*
X128503639Y-62673851D01*
X128539325Y-62730962D01*
X128621410Y-62798784D01*
X128796293Y-62888031D01*
X128878378Y-62955853D01*
X128914065Y-63012964D01*
X128939039Y-63116473D01*
X128917615Y-63209270D01*
X128849793Y-63291355D01*
X128792682Y-63327042D01*
X128689173Y-63352017D01*
X128457180Y-63298457D01*
X128328697Y-63219922D01*
X128068178Y-62866547D02*
X128032551Y-62174119D01*
X127739838Y-62595257D01*
X127661363Y-62088424D01*
X127325801Y-62695156D01*
X126526373Y-61924134D02*
X126583484Y-61888447D01*
X126733391Y-61874185D01*
X126826188Y-61895609D01*
X126954672Y-61974143D01*
X127026045Y-62088364D01*
X127051020Y-62191873D01*
X127054571Y-62388179D01*
X127022435Y-62527375D01*
X126933189Y-62702257D01*
X126865366Y-62784343D01*
X126751145Y-62855716D01*
X126601237Y-62869979D01*
X126508440Y-62848555D01*
X126379956Y-62770020D01*
X126344270Y-62712910D01*
X125441273Y-62602180D02*
X125905259Y-62709299D01*
X126058777Y-62256026D01*
X126001666Y-62291712D01*
X125898157Y-62316687D01*
X125666164Y-62263127D01*
X125584079Y-62195305D01*
X125548393Y-62138194D01*
X125523418Y-62034685D01*
X125576978Y-61802692D01*
X125644800Y-61720607D01*
X125701911Y-61684920D01*
X125805420Y-61659946D01*
X126037413Y-61713505D01*
X126119498Y-61781328D01*
X126155185Y-61838438D01*
X137567550Y-25424767D02*
X137439066Y-25346233D01*
X137207073Y-25292673D01*
X137103564Y-25317647D01*
X137046454Y-25353334D01*
X136978631Y-25435419D01*
X136957207Y-25528216D01*
X136982182Y-25631726D01*
X137017868Y-25688836D01*
X137099954Y-25756659D01*
X137274836Y-25845905D01*
X137356921Y-25913727D01*
X137392608Y-25970838D01*
X137417582Y-26074347D01*
X137396159Y-26167144D01*
X137328336Y-26249229D01*
X137271226Y-26284916D01*
X137167716Y-26309891D01*
X136935724Y-26256331D01*
X136807240Y-26177796D01*
X136546721Y-25824421D02*
X136511095Y-25131993D01*
X136218381Y-25553131D01*
X136139906Y-25046298D01*
X135804344Y-25653030D01*
X135565250Y-25206858D02*
X135101264Y-25099738D01*
X135722319Y-24949890D02*
X135172578Y-25849277D01*
X135072739Y-24799923D01*
X134059012Y-25592190D02*
X134522998Y-25699309D01*
X134676516Y-25246035D01*
X134619405Y-25281722D01*
X134515896Y-25306697D01*
X134283903Y-25253137D01*
X134201818Y-25185314D01*
X134166131Y-25128204D01*
X134141157Y-25024695D01*
X134194717Y-24792702D01*
X134262539Y-24710617D01*
X134319650Y-24674930D01*
X134423159Y-24649955D01*
X134655152Y-24703515D01*
X134737237Y-24771338D01*
X134772923Y-24828448D01*
X115836795Y-35405722D02*
X115708311Y-35327187D01*
X115476318Y-35273628D01*
X115372809Y-35298602D01*
X115315698Y-35334289D01*
X115247876Y-35416374D01*
X115226452Y-35509171D01*
X115251427Y-35612680D01*
X115287113Y-35669791D01*
X115369198Y-35737613D01*
X115544081Y-35826860D01*
X115626166Y-35894682D01*
X115661853Y-35951793D01*
X115686827Y-36055302D01*
X115665403Y-36148099D01*
X115597581Y-36230184D01*
X115540470Y-36265871D01*
X115436961Y-36290846D01*
X115204968Y-36237286D01*
X115076485Y-36158751D01*
X114815966Y-35805376D02*
X114780339Y-35112948D01*
X114487626Y-35534086D01*
X114409151Y-35027253D01*
X114073589Y-35633985D01*
X113409746Y-35334110D02*
X113281263Y-35255575D01*
X113245576Y-35198465D01*
X113220601Y-35094956D01*
X113252737Y-34955760D01*
X113320560Y-34873675D01*
X113377670Y-34837988D01*
X113481179Y-34813014D01*
X113852368Y-34898709D01*
X113627417Y-35873079D01*
X113302627Y-35798096D01*
X113220542Y-35730273D01*
X113184855Y-35673163D01*
X113159880Y-35569654D01*
X113181304Y-35476856D01*
X113249127Y-35394771D01*
X113306237Y-35359085D01*
X113409746Y-35334110D01*
X113734536Y-35409094D01*
X112310443Y-35226931D02*
X112460411Y-34577351D01*
X112456741Y-35651679D02*
X112849413Y-35009260D01*
X112246231Y-34870005D01*
X111562726Y-53918758D02*
X111434242Y-53840223D01*
X111202249Y-53786664D01*
X111098740Y-53811638D01*
X111041629Y-53847325D01*
X110973807Y-53929410D01*
X110952383Y-54022207D01*
X110977358Y-54125716D01*
X111013044Y-54182827D01*
X111095129Y-54250649D01*
X111270012Y-54339896D01*
X111352097Y-54407718D01*
X111387784Y-54464829D01*
X111412758Y-54568338D01*
X111391334Y-54661135D01*
X111323512Y-54743220D01*
X111266401Y-54778907D01*
X111162892Y-54803882D01*
X110930899Y-54750322D01*
X110802416Y-54671787D01*
X110541897Y-54318412D02*
X110506270Y-53625984D01*
X110213557Y-54047122D01*
X110135082Y-53540289D01*
X109799520Y-54147021D01*
X109000092Y-53375999D02*
X109057203Y-53340312D01*
X109207110Y-53326050D01*
X109299907Y-53347474D01*
X109428391Y-53426008D01*
X109499764Y-53540229D01*
X109524739Y-53643738D01*
X109528290Y-53840044D01*
X109496154Y-53979240D01*
X109406908Y-54154122D01*
X109339085Y-54236208D01*
X109224864Y-54307581D01*
X109074956Y-54321844D01*
X108982159Y-54300420D01*
X108853675Y-54221885D01*
X108817989Y-54164775D01*
X108036374Y-53739967D02*
X108186342Y-53090387D01*
X108182672Y-54164715D02*
X108575344Y-53522296D01*
X107972162Y-53383041D01*
X120041267Y-16876628D02*
X119912783Y-16798094D01*
X119680790Y-16744534D01*
X119577281Y-16769508D01*
X119520171Y-16805195D01*
X119452348Y-16887280D01*
X119430924Y-16980077D01*
X119455899Y-17083587D01*
X119491585Y-17140697D01*
X119573671Y-17208520D01*
X119748553Y-17297766D01*
X119830638Y-17365588D01*
X119866325Y-17422699D01*
X119891299Y-17526208D01*
X119869876Y-17619005D01*
X119802053Y-17701090D01*
X119744943Y-17736777D01*
X119641433Y-17761752D01*
X119409441Y-17708192D01*
X119280957Y-17629657D01*
X119020438Y-17276282D02*
X118984812Y-16583854D01*
X118692098Y-17004992D01*
X118613623Y-16498159D01*
X118278061Y-17104891D01*
X118038967Y-16658719D02*
X117574981Y-16551599D01*
X118196036Y-16401751D02*
X117646295Y-17301138D01*
X117546456Y-16251784D01*
X116654111Y-16729973D02*
X116804079Y-16080393D01*
X116800408Y-17154721D02*
X117193081Y-16512302D01*
X116589899Y-16373047D01*
X94036440Y-45370617D02*
X93907956Y-45292082D01*
X93675963Y-45238523D01*
X93572454Y-45263497D01*
X93515343Y-45299184D01*
X93447521Y-45381269D01*
X93426097Y-45474066D01*
X93451072Y-45577575D01*
X93486758Y-45634686D01*
X93568843Y-45702508D01*
X93743726Y-45791755D01*
X93825811Y-45859577D01*
X93861498Y-45916688D01*
X93886472Y-46020197D01*
X93865048Y-46112994D01*
X93797226Y-46195079D01*
X93740115Y-46230766D01*
X93636606Y-46255741D01*
X93404613Y-46202181D01*
X93276130Y-46123646D01*
X93015611Y-45770271D02*
X92979984Y-45077843D01*
X92687271Y-45498981D01*
X92608796Y-44992148D01*
X92273234Y-45598880D01*
X91473806Y-44827858D02*
X91530917Y-44792171D01*
X91680824Y-44777909D01*
X91773621Y-44799333D01*
X91902105Y-44877867D01*
X91973478Y-44992088D01*
X91998453Y-45095597D01*
X92002004Y-45291903D01*
X91969868Y-45431099D01*
X91880622Y-45605981D01*
X91812799Y-45688067D01*
X91698578Y-45759440D01*
X91548670Y-45773703D01*
X91455873Y-45752279D01*
X91327389Y-45673744D01*
X91291703Y-45616634D01*
X90945489Y-45634447D02*
X90342307Y-45495192D01*
X90752793Y-45198987D01*
X90613597Y-45166851D01*
X90531512Y-45099029D01*
X90495826Y-45041918D01*
X90470851Y-44938409D01*
X90524411Y-44706416D01*
X90592233Y-44624331D01*
X90649344Y-44588644D01*
X90752853Y-44563670D01*
X91031244Y-44627941D01*
X91113329Y-44695764D01*
X91149016Y-44752874D01*
X102514983Y-8328487D02*
X102386499Y-8249953D01*
X102154506Y-8196393D01*
X102050997Y-8221367D01*
X101993887Y-8257054D01*
X101926064Y-8339139D01*
X101904640Y-8431936D01*
X101929615Y-8535446D01*
X101965301Y-8592556D01*
X102047387Y-8660379D01*
X102222269Y-8749625D01*
X102304354Y-8817447D01*
X102340041Y-8874558D01*
X102365015Y-8978067D01*
X102343592Y-9070864D01*
X102275769Y-9152949D01*
X102218659Y-9188636D01*
X102115149Y-9213611D01*
X101883157Y-9160051D01*
X101754673Y-9081516D01*
X101494154Y-8728141D02*
X101458528Y-8035713D01*
X101165814Y-8456851D01*
X101087339Y-7950018D01*
X100751777Y-8556750D01*
X100512683Y-8110578D02*
X100048697Y-8003458D01*
X100669752Y-7853610D02*
X100120011Y-8752997D01*
X100020172Y-7703643D01*
X99563228Y-8624453D02*
X98960046Y-8485198D01*
X99370532Y-8188993D01*
X99231336Y-8156857D01*
X99149251Y-8089034D01*
X99113564Y-8031924D01*
X99088590Y-7928415D01*
X99142150Y-7696422D01*
X99209972Y-7614337D01*
X99267083Y-7578650D01*
X99370592Y-7553675D01*
X99648983Y-7617947D01*
X99731068Y-7685770D01*
X99766755Y-7742880D01*
X98310511Y-26857586D02*
X98182027Y-26779051D01*
X97950034Y-26725492D01*
X97846525Y-26750466D01*
X97789414Y-26786153D01*
X97721592Y-26868238D01*
X97700168Y-26961035D01*
X97725143Y-27064544D01*
X97760829Y-27121655D01*
X97842914Y-27189477D01*
X98017797Y-27278724D01*
X98099882Y-27346546D01*
X98135569Y-27403657D01*
X98160543Y-27507166D01*
X98139119Y-27599963D01*
X98071297Y-27682048D01*
X98014186Y-27717735D01*
X97910677Y-27742710D01*
X97678684Y-27689150D01*
X97550201Y-27610615D01*
X97289682Y-27257240D02*
X97254055Y-26564812D01*
X96961342Y-26985950D01*
X96882867Y-26479117D01*
X96547305Y-27085849D01*
X95883462Y-26785974D02*
X95754979Y-26707439D01*
X95719292Y-26650329D01*
X95694317Y-26546820D01*
X95726453Y-26407624D01*
X95794276Y-26325539D01*
X95851386Y-26289852D01*
X95954895Y-26264878D01*
X96326084Y-26350573D01*
X96101133Y-27324943D01*
X95776343Y-27249960D01*
X95694258Y-27182137D01*
X95658571Y-27125027D01*
X95633596Y-27021518D01*
X95655020Y-26928720D01*
X95722843Y-26846635D01*
X95779953Y-26810949D01*
X95883462Y-26785974D01*
X96208252Y-26860958D01*
X95219560Y-27121416D02*
X94616378Y-26982161D01*
X95026864Y-26685956D01*
X94887668Y-26653820D01*
X94805583Y-26585998D01*
X94769897Y-26528887D01*
X94744922Y-26425378D01*
X94798482Y-26193385D01*
X94866304Y-26111300D01*
X94923415Y-26075613D01*
X95026924Y-26050639D01*
X95305315Y-26114910D01*
X95387400Y-26182733D01*
X95423087Y-26239843D01*
X83015206Y-8328486D02*
X82886722Y-8249952D01*
X82654729Y-8196392D01*
X82551220Y-8221366D01*
X82494110Y-8257053D01*
X82426287Y-8339138D01*
X82404863Y-8431935D01*
X82429838Y-8535445D01*
X82465524Y-8592555D01*
X82547610Y-8660378D01*
X82722492Y-8749624D01*
X82804577Y-8817446D01*
X82840264Y-8874557D01*
X82865238Y-8978066D01*
X82843815Y-9070863D01*
X82775992Y-9152948D01*
X82718882Y-9188635D01*
X82615372Y-9213610D01*
X82383380Y-9160050D01*
X82254896Y-9081515D01*
X81994377Y-8728140D02*
X81958751Y-8035712D01*
X81666037Y-8456850D01*
X81587562Y-7950017D01*
X81252000Y-8556749D01*
X81012906Y-8110577D02*
X80548920Y-8003457D01*
X81169975Y-7853609D02*
X80620234Y-8752996D01*
X80520395Y-7703642D01*
X80038476Y-8520943D02*
X79981366Y-8556630D01*
X79877857Y-8581604D01*
X79645864Y-8528045D01*
X79563778Y-8460222D01*
X79528092Y-8403112D01*
X79503117Y-8299602D01*
X79524541Y-8206805D01*
X79603076Y-8078322D01*
X80288402Y-7650082D01*
X79685220Y-7510827D01*
X78810729Y-26857584D02*
X78682245Y-26779049D01*
X78450252Y-26725490D01*
X78346743Y-26750464D01*
X78289632Y-26786151D01*
X78221810Y-26868236D01*
X78200386Y-26961033D01*
X78225361Y-27064542D01*
X78261047Y-27121653D01*
X78343132Y-27189475D01*
X78518015Y-27278722D01*
X78600100Y-27346544D01*
X78635787Y-27403655D01*
X78660761Y-27507164D01*
X78639337Y-27599961D01*
X78571515Y-27682046D01*
X78514404Y-27717733D01*
X78410895Y-27742708D01*
X78178902Y-27689148D01*
X78050419Y-27610613D01*
X77789900Y-27257238D02*
X77754273Y-26564810D01*
X77461560Y-26985948D01*
X77383085Y-26479115D01*
X77047523Y-27085847D01*
X76383680Y-26785972D02*
X76255197Y-26707437D01*
X76219510Y-26650327D01*
X76194535Y-26546818D01*
X76226671Y-26407622D01*
X76294494Y-26325537D01*
X76351604Y-26289850D01*
X76455113Y-26264876D01*
X76826302Y-26350571D01*
X76601351Y-27324941D01*
X76276561Y-27249958D01*
X76194476Y-27182135D01*
X76158789Y-27125025D01*
X76133814Y-27021516D01*
X76155238Y-26928718D01*
X76223061Y-26846633D01*
X76280171Y-26810947D01*
X76383680Y-26785972D01*
X76708470Y-26860956D01*
X75694803Y-27017905D02*
X75637693Y-27053592D01*
X75534184Y-27078566D01*
X75302191Y-27025007D01*
X75220106Y-26957184D01*
X75184419Y-26900074D01*
X75159444Y-26796564D01*
X75180868Y-26703767D01*
X75259403Y-26575284D01*
X75944729Y-26147044D01*
X75341548Y-26007789D01*
X74536660Y-45370615D02*
X74408176Y-45292080D01*
X74176183Y-45238521D01*
X74072674Y-45263495D01*
X74015563Y-45299182D01*
X73947741Y-45381267D01*
X73926317Y-45474064D01*
X73951292Y-45577573D01*
X73986978Y-45634684D01*
X74069063Y-45702506D01*
X74243946Y-45791753D01*
X74326031Y-45859575D01*
X74361718Y-45916686D01*
X74386692Y-46020195D01*
X74365268Y-46112992D01*
X74297446Y-46195077D01*
X74240335Y-46230764D01*
X74136826Y-46255739D01*
X73904833Y-46202179D01*
X73776350Y-46123644D01*
X73515831Y-45770269D02*
X73480204Y-45077841D01*
X73187491Y-45498979D01*
X73109016Y-44992146D01*
X72773454Y-45598878D01*
X71974026Y-44827856D02*
X72031137Y-44792169D01*
X72181044Y-44777907D01*
X72273841Y-44799331D01*
X72402325Y-44877865D01*
X72473698Y-44992086D01*
X72498673Y-45095595D01*
X72502224Y-45291901D01*
X72470088Y-45431097D01*
X72380842Y-45605979D01*
X72313019Y-45688065D01*
X72198798Y-45759438D01*
X72048890Y-45773701D01*
X71956093Y-45752277D01*
X71827609Y-45673742D01*
X71791923Y-45616632D01*
X71420734Y-45530936D02*
X71363624Y-45566623D01*
X71260115Y-45591597D01*
X71028122Y-45538038D01*
X70946037Y-45470215D01*
X70910350Y-45413105D01*
X70885375Y-45309595D01*
X70906799Y-45216798D01*
X70985334Y-45088315D01*
X71670660Y-44660075D01*
X71067479Y-44520820D01*
X59310954Y-26857585D02*
X59182470Y-26779050D01*
X58950477Y-26725491D01*
X58846968Y-26750465D01*
X58789857Y-26786152D01*
X58722035Y-26868237D01*
X58700611Y-26961034D01*
X58725586Y-27064543D01*
X58761272Y-27121654D01*
X58843357Y-27189476D01*
X59018240Y-27278723D01*
X59100325Y-27346545D01*
X59136012Y-27403656D01*
X59160986Y-27507165D01*
X59139562Y-27599962D01*
X59071740Y-27682047D01*
X59014629Y-27717734D01*
X58911120Y-27742709D01*
X58679127Y-27689149D01*
X58550644Y-27610614D01*
X58290125Y-27257239D02*
X58254498Y-26564811D01*
X57961785Y-26985949D01*
X57883310Y-26479116D01*
X57547748Y-27085848D01*
X56883905Y-26785973D02*
X56755422Y-26707438D01*
X56719735Y-26650328D01*
X56694760Y-26546819D01*
X56726896Y-26407623D01*
X56794719Y-26325538D01*
X56851829Y-26289851D01*
X56955338Y-26264877D01*
X57326527Y-26350572D01*
X57101576Y-27324942D01*
X56776786Y-27249959D01*
X56694701Y-27182136D01*
X56659014Y-27125026D01*
X56634039Y-27021517D01*
X56655463Y-26928719D01*
X56723286Y-26846634D01*
X56780396Y-26810948D01*
X56883905Y-26785973D01*
X57208695Y-26860957D01*
X55841773Y-26007790D02*
X56398555Y-26136333D01*
X56120164Y-26072061D02*
X55895213Y-27046432D01*
X56020146Y-26928660D01*
X56134367Y-26857286D01*
X56237876Y-26832312D01*
X63515428Y-8328483D02*
X63386944Y-8249949D01*
X63154951Y-8196389D01*
X63051442Y-8221363D01*
X62994332Y-8257050D01*
X62926509Y-8339135D01*
X62905085Y-8431932D01*
X62930060Y-8535442D01*
X62965746Y-8592552D01*
X63047832Y-8660375D01*
X63222714Y-8749621D01*
X63304799Y-8817443D01*
X63340486Y-8874554D01*
X63365460Y-8978063D01*
X63344037Y-9070860D01*
X63276214Y-9152945D01*
X63219104Y-9188632D01*
X63115594Y-9213607D01*
X62883602Y-9160047D01*
X62755118Y-9081512D01*
X62494599Y-8728137D02*
X62458973Y-8035709D01*
X62166259Y-8456847D01*
X62087784Y-7950014D01*
X61752222Y-8556746D01*
X61513128Y-8110574D02*
X61049142Y-8003454D01*
X61670197Y-7853606D02*
X61120456Y-8752993D01*
X61020617Y-7703639D01*
X60185442Y-7510824D02*
X60742225Y-7639367D01*
X60463834Y-7575095D02*
X60238883Y-8549465D01*
X60363816Y-8431694D01*
X60478037Y-8360320D01*
X60581546Y-8335346D01*
X55036883Y-45370613D02*
X54908399Y-45292078D01*
X54676406Y-45238519D01*
X54572897Y-45263493D01*
X54515786Y-45299180D01*
X54447964Y-45381265D01*
X54426540Y-45474062D01*
X54451515Y-45577571D01*
X54487201Y-45634682D01*
X54569286Y-45702504D01*
X54744169Y-45791751D01*
X54826254Y-45859573D01*
X54861941Y-45916684D01*
X54886915Y-46020193D01*
X54865491Y-46112990D01*
X54797669Y-46195075D01*
X54740558Y-46230762D01*
X54637049Y-46255737D01*
X54405056Y-46202177D01*
X54276573Y-46123642D01*
X54016054Y-45770267D02*
X53980427Y-45077839D01*
X53687714Y-45498977D01*
X53609239Y-44992144D01*
X53273677Y-45598876D01*
X52474249Y-44827854D02*
X52531360Y-44792167D01*
X52681267Y-44777905D01*
X52774064Y-44799329D01*
X52902548Y-44877863D01*
X52973921Y-44992084D01*
X52998896Y-45095593D01*
X53002447Y-45291899D01*
X52970311Y-45431095D01*
X52881065Y-45605977D01*
X52813242Y-45688063D01*
X52699021Y-45759436D01*
X52549113Y-45773699D01*
X52456316Y-45752275D01*
X52327832Y-45673740D01*
X52292146Y-45616630D01*
X51567702Y-44520818D02*
X52124484Y-44649361D01*
X51846093Y-44585089D02*
X51621142Y-45559460D01*
X51746075Y-45441688D01*
X51860296Y-45370314D01*
X51963805Y-45345340D01*
X39811172Y-26857584D02*
X39682688Y-26779049D01*
X39450695Y-26725490D01*
X39347186Y-26750464D01*
X39290075Y-26786151D01*
X39222253Y-26868236D01*
X39200829Y-26961033D01*
X39225804Y-27064542D01*
X39261490Y-27121653D01*
X39343575Y-27189475D01*
X39518458Y-27278722D01*
X39600543Y-27346544D01*
X39636230Y-27403655D01*
X39661204Y-27507164D01*
X39639780Y-27599961D01*
X39571958Y-27682046D01*
X39514847Y-27717733D01*
X39411338Y-27742708D01*
X39179345Y-27689148D01*
X39050862Y-27610613D01*
X38790343Y-27257238D02*
X38754716Y-26564810D01*
X38462003Y-26985948D01*
X38383528Y-26479115D01*
X38047966Y-27085847D01*
X37384123Y-26785972D02*
X37255640Y-26707437D01*
X37219953Y-26650327D01*
X37194978Y-26546818D01*
X37227114Y-26407622D01*
X37294937Y-26325537D01*
X37352047Y-26289850D01*
X37455556Y-26264876D01*
X37826745Y-26350571D01*
X37601794Y-27324941D01*
X37277004Y-27249958D01*
X37194919Y-27182135D01*
X37159232Y-27125025D01*
X37134257Y-27021516D01*
X37155681Y-26928718D01*
X37223504Y-26846633D01*
X37280614Y-26810947D01*
X37384123Y-26785972D01*
X37708913Y-26860956D01*
X36441829Y-27057142D02*
X36349032Y-27035719D01*
X36266947Y-26967896D01*
X36231261Y-26910786D01*
X36206286Y-26807276D01*
X36202735Y-26610970D01*
X36256295Y-26378977D01*
X36345541Y-26204095D01*
X36413364Y-26122010D01*
X36470474Y-26086323D01*
X36573983Y-26061349D01*
X36666781Y-26082772D01*
X36748866Y-26150595D01*
X36784552Y-26207705D01*
X36809527Y-26311215D01*
X36813078Y-26507521D01*
X36759518Y-26739514D01*
X36670272Y-26914396D01*
X36602449Y-26996481D01*
X36545339Y-27032168D01*
X36441829Y-27057142D01*
X35537103Y-45370613D02*
X35408619Y-45292078D01*
X35176626Y-45238519D01*
X35073117Y-45263493D01*
X35016006Y-45299180D01*
X34948184Y-45381265D01*
X34926760Y-45474062D01*
X34951735Y-45577571D01*
X34987421Y-45634682D01*
X35069506Y-45702504D01*
X35244389Y-45791751D01*
X35326474Y-45859573D01*
X35362161Y-45916684D01*
X35387135Y-46020193D01*
X35365711Y-46112990D01*
X35297889Y-46195075D01*
X35240778Y-46230762D01*
X35137269Y-46255737D01*
X34905276Y-46202177D01*
X34776793Y-46123642D01*
X34516274Y-45770267D02*
X34480647Y-45077839D01*
X34187934Y-45498977D01*
X34109459Y-44992144D01*
X33773897Y-45598876D01*
X32974469Y-44827854D02*
X33031580Y-44792167D01*
X33181487Y-44777905D01*
X33274284Y-44799329D01*
X33402768Y-44877863D01*
X33474141Y-44992084D01*
X33499116Y-45095593D01*
X33502667Y-45291899D01*
X33470531Y-45431095D01*
X33381285Y-45605977D01*
X33313462Y-45688063D01*
X33199241Y-45759436D01*
X33049333Y-45773699D01*
X32956536Y-45752275D01*
X32828052Y-45673740D01*
X32792366Y-45616630D01*
X32167760Y-45570171D02*
X32074963Y-45548748D01*
X31992878Y-45480925D01*
X31957192Y-45423815D01*
X31932217Y-45320305D01*
X31928666Y-45123999D01*
X31982226Y-44892006D01*
X32071472Y-44717124D01*
X32139295Y-44635039D01*
X32196405Y-44599352D01*
X32299914Y-44574378D01*
X32392712Y-44595801D01*
X32474797Y-44663624D01*
X32510483Y-44720734D01*
X32535458Y-44824244D01*
X32539009Y-45020550D01*
X32485449Y-45252543D01*
X32396203Y-45427425D01*
X32328380Y-45509510D01*
X32271270Y-45545197D01*
X32167760Y-45570171D01*
X44015644Y-8328488D02*
X43887160Y-8249954D01*
X43655167Y-8196394D01*
X43551658Y-8221368D01*
X43494548Y-8257055D01*
X43426725Y-8339140D01*
X43405301Y-8431937D01*
X43430276Y-8535447D01*
X43465962Y-8592557D01*
X43548048Y-8660380D01*
X43722930Y-8749626D01*
X43805015Y-8817448D01*
X43840702Y-8874559D01*
X43865676Y-8978068D01*
X43844253Y-9070865D01*
X43776430Y-9152950D01*
X43719320Y-9188637D01*
X43615810Y-9213612D01*
X43383818Y-9160052D01*
X43255334Y-9081517D01*
X42994815Y-8728142D02*
X42959189Y-8035714D01*
X42666475Y-8456852D01*
X42588000Y-7950019D01*
X42252438Y-8556751D01*
X42013344Y-8110579D02*
X41549358Y-8003459D01*
X42170413Y-7853611D02*
X41620672Y-8752998D01*
X41520833Y-7703644D01*
X40785497Y-8560182D02*
X40692700Y-8538759D01*
X40610615Y-8470936D01*
X40574928Y-8413825D01*
X40549954Y-8310316D01*
X40546403Y-8114010D01*
X40599963Y-7882017D01*
X40689209Y-7707135D01*
X40757032Y-7625050D01*
X40814142Y-7589363D01*
X40917651Y-7564388D01*
X41010448Y-7585812D01*
X41092534Y-7653635D01*
X41128220Y-7710745D01*
X41153195Y-7814254D01*
X41156746Y-8010561D01*
X41103186Y-8242554D01*
X41013939Y-8417436D01*
X40946117Y-8499521D01*
X40889006Y-8535208D01*
X40785497Y-8560182D01*
X119623898Y-80807785D02*
X119495414Y-80729250D01*
X119263421Y-80675691D01*
X119159912Y-80700665D01*
X119102801Y-80736352D01*
X119034979Y-80818437D01*
X119013555Y-80911234D01*
X119038530Y-81014743D01*
X119074216Y-81071854D01*
X119156301Y-81139676D01*
X119331184Y-81228923D01*
X119413269Y-81296745D01*
X119448956Y-81353856D01*
X119473930Y-81457365D01*
X119452506Y-81550162D01*
X119384684Y-81632247D01*
X119327573Y-81667934D01*
X119224064Y-81692909D01*
X118992071Y-81639349D01*
X118863588Y-81560814D01*
X118603069Y-81207439D02*
X118567442Y-80515011D01*
X118274729Y-80936149D01*
X118196254Y-80429316D01*
X117860692Y-81036048D01*
X116914847Y-81110912D02*
X116996933Y-81178735D01*
X117136128Y-81210871D01*
X117286036Y-81196608D01*
X117400257Y-81125235D01*
X117468080Y-81043149D01*
X117557326Y-80868267D01*
X117589462Y-80729071D01*
X117585911Y-80532765D01*
X117560936Y-80429256D01*
X117489563Y-80315035D01*
X117361079Y-80236501D01*
X117268282Y-80215077D01*
X117118375Y-80229339D01*
X117061264Y-80265026D01*
X116986280Y-80589816D01*
X117171875Y-80632664D01*
X116154717Y-79957990D02*
X116711499Y-80086533D01*
X116433108Y-80022261D02*
X116208157Y-80996632D01*
X116333090Y-80878860D01*
X116447311Y-80807486D01*
X116550820Y-80782512D01*
X179936450Y-79873433D02*
X180086357Y-79887695D01*
X180318350Y-79834136D01*
X180400435Y-79766313D01*
X180436122Y-79709203D01*
X180461097Y-79605694D01*
X180439673Y-79512896D01*
X180371850Y-79430811D01*
X180314740Y-79395125D01*
X180211231Y-79370150D01*
X180014924Y-79366599D01*
X179911415Y-79341624D01*
X179854305Y-79305938D01*
X179786482Y-79223853D01*
X179765058Y-79131056D01*
X179790033Y-79027546D01*
X179825720Y-78970436D01*
X179907805Y-78902613D01*
X180139798Y-78849054D01*
X180289705Y-78863316D01*
X180678767Y-79066724D02*
X181014329Y-79673456D01*
X181092803Y-79166623D01*
X181385517Y-79587761D01*
X181421144Y-78895333D01*
X182238445Y-78413414D02*
X182134936Y-78388440D01*
X181995741Y-78420575D01*
X181867257Y-78499110D01*
X181795884Y-78613331D01*
X181770909Y-78716840D01*
X181767358Y-78913146D01*
X181799494Y-79052342D01*
X181888740Y-79227224D01*
X181956563Y-79309310D01*
X182070784Y-79380683D01*
X182220692Y-79394945D01*
X182313489Y-79373522D01*
X182441973Y-79294987D01*
X182477659Y-79237877D01*
X182402676Y-78913087D01*
X182217081Y-78955934D01*
X182598922Y-78281320D02*
X183202104Y-78142065D01*
X182963009Y-78588237D01*
X183102205Y-78556101D01*
X183205714Y-78581076D01*
X183262825Y-78616762D01*
X183330647Y-78698847D01*
X183384207Y-78930840D01*
X183359232Y-79034349D01*
X183323546Y-79091460D01*
X183241460Y-79159282D01*
X182963069Y-79223554D01*
X182859560Y-79198580D01*
X182802449Y-79162893D01*
X264092837Y-44420202D02*
X264242745Y-44434464D01*
X264474738Y-44380905D01*
X264556823Y-44313082D01*
X264592510Y-44255972D01*
X264617484Y-44152463D01*
X264596061Y-44059665D01*
X264528238Y-43977580D01*
X264471128Y-43941894D01*
X264367618Y-43916919D01*
X264171312Y-43913368D01*
X264067803Y-43888394D01*
X264010693Y-43852707D01*
X263942870Y-43770622D01*
X263921446Y-43677825D01*
X263946421Y-43574315D01*
X263982107Y-43517205D01*
X264064193Y-43449382D01*
X264296186Y-43395823D01*
X264446093Y-43410085D01*
X264835155Y-43613493D02*
X265170717Y-44220225D01*
X265249191Y-43713392D01*
X265541905Y-44134530D01*
X265577532Y-43442102D01*
X266305647Y-43420618D02*
X265980857Y-43495602D01*
X266098688Y-44005986D02*
X265873737Y-43031616D01*
X266337723Y-42924497D01*
X267172897Y-42731681D02*
X266708911Y-42838801D01*
X266769632Y-43313499D01*
X266805319Y-43256388D01*
X266887404Y-43188566D01*
X267119397Y-43135006D01*
X267222906Y-43159981D01*
X267280017Y-43195667D01*
X267347839Y-43277752D01*
X267401399Y-43509745D01*
X267376424Y-43613254D01*
X267340738Y-43670365D01*
X267258652Y-43738187D01*
X267026660Y-43791747D01*
X266923150Y-43766773D01*
X266866040Y-43731086D01*
X235975322Y-7410202D02*
X236125229Y-7424464D01*
X236357222Y-7370905D01*
X236439307Y-7303082D01*
X236474994Y-7245972D01*
X236499969Y-7142463D01*
X236478545Y-7049665D01*
X236410722Y-6967580D01*
X236353612Y-6931894D01*
X236250103Y-6906919D01*
X236053796Y-6903368D01*
X235950287Y-6878393D01*
X235893177Y-6842707D01*
X235825354Y-6760622D01*
X235803930Y-6667825D01*
X235828905Y-6564315D01*
X235864592Y-6507205D01*
X235946677Y-6439382D01*
X236178670Y-6385823D01*
X236328577Y-6400085D01*
X236717639Y-6603493D02*
X237053201Y-7210225D01*
X237131675Y-6703392D01*
X237424389Y-7124530D01*
X237460016Y-6432102D01*
X237981172Y-6995986D02*
X237756221Y-6021616D01*
X237988214Y-5968056D01*
X238138122Y-5982319D01*
X238252343Y-6053692D01*
X238320165Y-6135778D01*
X238409412Y-6310660D01*
X238441548Y-6449856D01*
X238437997Y-6646162D01*
X238413022Y-6749671D01*
X238341649Y-6863892D01*
X238213165Y-6942426D01*
X237981172Y-6995986D01*
X239223162Y-6025048D02*
X239373129Y-6674628D01*
X238905474Y-5707419D02*
X238834160Y-6456957D01*
X239437342Y-6317702D01*
X244593060Y-44420200D02*
X244742968Y-44434462D01*
X244974961Y-44380903D01*
X245057046Y-44313080D01*
X245092733Y-44255970D01*
X245117707Y-44152461D01*
X245096284Y-44059663D01*
X245028461Y-43977578D01*
X244971351Y-43941892D01*
X244867841Y-43916917D01*
X244671535Y-43913366D01*
X244568026Y-43888392D01*
X244510916Y-43852705D01*
X244443093Y-43770620D01*
X244421669Y-43677823D01*
X244446644Y-43574313D01*
X244482330Y-43517203D01*
X244564416Y-43449380D01*
X244796409Y-43395821D01*
X244946316Y-43410083D01*
X245335378Y-43613491D02*
X245670940Y-44220223D01*
X245749414Y-43713390D01*
X246042128Y-44134528D01*
X246077755Y-43442100D01*
X246805870Y-43420616D02*
X246481080Y-43495600D01*
X246598911Y-44005984D02*
X246373960Y-43031614D01*
X246837946Y-42924495D01*
X247701705Y-43067181D02*
X247851673Y-43716761D01*
X247384017Y-42749553D02*
X247312703Y-43499091D01*
X247915885Y-43359836D01*
X240295791Y-25912524D02*
X240445699Y-25926786D01*
X240677692Y-25873227D01*
X240759777Y-25805404D01*
X240795464Y-25748294D01*
X240820438Y-25644785D01*
X240799014Y-25551987D01*
X240731192Y-25469902D01*
X240674081Y-25434216D01*
X240570572Y-25409241D01*
X240374266Y-25405690D01*
X240270757Y-25380716D01*
X240213646Y-25345029D01*
X240145824Y-25262944D01*
X240124400Y-25170147D01*
X240149375Y-25066637D01*
X240185061Y-25009527D01*
X240267146Y-24941704D01*
X240499139Y-24888145D01*
X240649047Y-24902407D01*
X241038109Y-25105815D02*
X241373670Y-25712547D01*
X241452145Y-25205714D01*
X241744859Y-25626852D01*
X241780486Y-24934424D01*
X242183810Y-24987924D02*
X242508600Y-24912940D01*
X242765628Y-25391189D02*
X242301642Y-25498308D01*
X242076691Y-24523938D01*
X242540676Y-24416819D01*
X243450835Y-24548793D02*
X243600802Y-25198374D01*
X243133146Y-24231165D02*
X243061832Y-24980703D01*
X243665014Y-24841448D01*
X255475100Y-7410205D02*
X255625007Y-7424467D01*
X255857000Y-7370908D01*
X255939085Y-7303085D01*
X255974772Y-7245975D01*
X255999747Y-7142466D01*
X255978323Y-7049668D01*
X255910500Y-6967583D01*
X255853390Y-6931897D01*
X255749881Y-6906922D01*
X255553574Y-6903371D01*
X255450065Y-6878396D01*
X255392955Y-6842710D01*
X255325132Y-6760625D01*
X255303708Y-6667828D01*
X255328683Y-6564318D01*
X255364370Y-6507208D01*
X255446455Y-6439385D01*
X255678448Y-6385826D01*
X255828355Y-6400088D01*
X256217417Y-6603496D02*
X256552979Y-7210228D01*
X256631453Y-6703395D01*
X256924167Y-7124533D01*
X256959794Y-6432105D01*
X257480950Y-6995989D02*
X257255999Y-6021619D01*
X257487992Y-5968059D01*
X257637900Y-5982322D01*
X257752121Y-6053695D01*
X257819943Y-6135781D01*
X257909190Y-6310663D01*
X257941326Y-6449859D01*
X257937775Y-6646165D01*
X257912800Y-6749674D01*
X257841427Y-6863895D01*
X257712943Y-6942429D01*
X257480950Y-6995989D01*
X258694355Y-5689549D02*
X258230369Y-5796668D01*
X258291090Y-6271366D01*
X258326777Y-6214255D01*
X258408862Y-6146433D01*
X258640855Y-6092873D01*
X258744364Y-6117848D01*
X258801475Y-6153534D01*
X258869297Y-6235619D01*
X258922857Y-6467612D01*
X258897882Y-6571121D01*
X258862196Y-6628232D01*
X258780110Y-6696054D01*
X258548117Y-6749614D01*
X258444608Y-6724640D01*
X258387498Y-6688953D01*
X259795569Y-25912520D02*
X259945477Y-25926782D01*
X260177470Y-25873223D01*
X260259555Y-25805400D01*
X260295242Y-25748290D01*
X260320216Y-25644781D01*
X260298792Y-25551983D01*
X260230970Y-25469898D01*
X260173859Y-25434212D01*
X260070350Y-25409237D01*
X259874044Y-25405686D01*
X259770535Y-25380712D01*
X259713424Y-25345025D01*
X259645602Y-25262940D01*
X259624178Y-25170143D01*
X259649153Y-25066633D01*
X259684839Y-25009523D01*
X259766924Y-24941700D01*
X259998917Y-24888141D01*
X260148825Y-24902403D01*
X260537887Y-25105811D02*
X260873448Y-25712543D01*
X260951923Y-25205710D01*
X261244637Y-25626848D01*
X261280264Y-24934420D01*
X261683588Y-24987920D02*
X262008378Y-24912936D01*
X262265406Y-25391185D02*
X261801420Y-25498304D01*
X261576469Y-24523934D01*
X262040454Y-24416815D01*
X262922027Y-24213287D02*
X262458042Y-24320407D01*
X262518763Y-24795105D01*
X262554449Y-24737994D01*
X262636534Y-24670172D01*
X262868527Y-24616612D01*
X262972036Y-24641587D01*
X263029147Y-24677273D01*
X263096969Y-24759358D01*
X263150529Y-24991351D01*
X263125555Y-25094860D01*
X263089868Y-25151971D01*
X263007783Y-25219793D01*
X262775790Y-25273353D01*
X262672281Y-25248379D01*
X262615170Y-25212692D01*
X220796012Y-25912523D02*
X220945920Y-25926785D01*
X221177913Y-25873226D01*
X221259998Y-25805403D01*
X221295685Y-25748293D01*
X221320659Y-25644784D01*
X221299235Y-25551986D01*
X221231413Y-25469901D01*
X221174302Y-25434215D01*
X221070793Y-25409240D01*
X220874487Y-25405689D01*
X220770978Y-25380715D01*
X220713867Y-25345028D01*
X220646045Y-25262943D01*
X220624621Y-25170146D01*
X220649596Y-25066636D01*
X220685282Y-25009526D01*
X220767367Y-24941703D01*
X220999360Y-24888144D01*
X221149268Y-24902406D01*
X221538330Y-25105814D02*
X221873891Y-25712546D01*
X221952366Y-25205713D01*
X222245080Y-25626851D01*
X222280707Y-24934423D01*
X222684031Y-24987923D02*
X223008821Y-24912939D01*
X223265849Y-25391188D02*
X222801863Y-25498307D01*
X222576912Y-24523937D01*
X223040897Y-24416818D01*
X223365688Y-24341834D02*
X223968869Y-24202579D01*
X223729775Y-24648751D01*
X223868970Y-24616615D01*
X223972479Y-24641590D01*
X224029590Y-24677276D01*
X224097412Y-24759361D01*
X224150972Y-24991354D01*
X224125998Y-25094863D01*
X224090311Y-25151974D01*
X224008226Y-25219796D01*
X223729834Y-25284068D01*
X223626325Y-25259093D01*
X223569215Y-25223407D01*
X225093282Y-44420198D02*
X225243190Y-44434460D01*
X225475183Y-44380901D01*
X225557268Y-44313078D01*
X225592955Y-44255968D01*
X225617929Y-44152459D01*
X225596506Y-44059661D01*
X225528683Y-43977576D01*
X225471573Y-43941890D01*
X225368063Y-43916915D01*
X225171757Y-43913364D01*
X225068248Y-43888390D01*
X225011138Y-43852703D01*
X224943315Y-43770618D01*
X224921891Y-43677821D01*
X224946866Y-43574311D01*
X224982552Y-43517201D01*
X225064638Y-43449378D01*
X225296631Y-43395819D01*
X225446538Y-43410081D01*
X225835600Y-43613489D02*
X226171162Y-44220221D01*
X226249636Y-43713388D01*
X226542350Y-44134526D01*
X226577977Y-43442098D01*
X227306092Y-43420614D02*
X226981302Y-43495598D01*
X227099133Y-44005982D02*
X226874182Y-43031612D01*
X227338168Y-42924493D01*
X227616559Y-42860221D02*
X228219741Y-42720966D01*
X227980646Y-43167138D01*
X228119842Y-43135002D01*
X228223351Y-43159977D01*
X228280462Y-43195663D01*
X228348284Y-43277748D01*
X228401844Y-43509741D01*
X228376869Y-43613250D01*
X228341183Y-43670361D01*
X228259097Y-43738183D01*
X227980706Y-43802455D01*
X227877197Y-43777480D01*
X227820086Y-43741794D01*
X216475545Y-7410204D02*
X216625452Y-7424466D01*
X216857445Y-7370907D01*
X216939530Y-7303084D01*
X216975217Y-7245974D01*
X217000192Y-7142465D01*
X216978768Y-7049667D01*
X216910945Y-6967582D01*
X216853835Y-6931896D01*
X216750326Y-6906921D01*
X216554019Y-6903370D01*
X216450510Y-6878395D01*
X216393400Y-6842709D01*
X216325577Y-6760624D01*
X216304153Y-6667827D01*
X216329128Y-6564317D01*
X216364815Y-6507207D01*
X216446900Y-6439384D01*
X216678893Y-6385825D01*
X216828800Y-6400087D01*
X217217862Y-6603495D02*
X217553424Y-7210227D01*
X217631898Y-6703394D01*
X217924612Y-7124532D01*
X217960239Y-6432104D01*
X218481395Y-6995988D02*
X218256444Y-6021618D01*
X218488437Y-5968058D01*
X218638345Y-5982321D01*
X218752566Y-6053694D01*
X218820388Y-6135780D01*
X218909635Y-6310662D01*
X218941771Y-6449858D01*
X218938220Y-6646164D01*
X218913245Y-6749673D01*
X218841872Y-6863894D01*
X218713388Y-6942428D01*
X218481395Y-6995988D01*
X219138017Y-5818091D02*
X219741199Y-5678836D01*
X219502104Y-6125008D01*
X219641300Y-6092872D01*
X219744809Y-6117847D01*
X219801920Y-6153533D01*
X219869742Y-6235618D01*
X219923302Y-6467611D01*
X219898327Y-6571120D01*
X219862641Y-6628231D01*
X219780555Y-6696053D01*
X219502164Y-6760325D01*
X219398655Y-6735351D01*
X219341544Y-6699664D01*
X196975766Y-7410207D02*
X197125673Y-7424469D01*
X197357666Y-7370910D01*
X197439751Y-7303087D01*
X197475438Y-7245977D01*
X197500413Y-7142468D01*
X197478989Y-7049670D01*
X197411166Y-6967585D01*
X197354056Y-6931899D01*
X197250547Y-6906924D01*
X197054240Y-6903373D01*
X196950731Y-6878398D01*
X196893621Y-6842712D01*
X196825798Y-6760627D01*
X196804374Y-6667830D01*
X196829349Y-6564320D01*
X196865036Y-6507210D01*
X196947121Y-6439387D01*
X197179114Y-6385828D01*
X197329021Y-6400090D01*
X197718083Y-6603498D02*
X198053645Y-7210230D01*
X198132119Y-6703397D01*
X198424833Y-7124535D01*
X198460460Y-6432107D01*
X198981616Y-6995991D02*
X198756665Y-6021621D01*
X198988658Y-5968061D01*
X199138566Y-5982324D01*
X199252787Y-6053697D01*
X199320609Y-6135783D01*
X199409856Y-6310665D01*
X199441992Y-6449861D01*
X199438441Y-6646167D01*
X199413466Y-6749676D01*
X199342093Y-6863897D01*
X199213609Y-6942431D01*
X198981616Y-6995991D01*
X199706061Y-5900179D02*
X199741747Y-5843069D01*
X199823832Y-5775246D01*
X200055825Y-5721686D01*
X200159334Y-5746661D01*
X200216445Y-5782348D01*
X200284267Y-5864433D01*
X200305691Y-5957230D01*
X200291429Y-6107138D01*
X199863189Y-6792464D01*
X200466371Y-6653209D01*
X201296233Y-25912523D02*
X201446141Y-25926785D01*
X201678134Y-25873226D01*
X201760219Y-25805403D01*
X201795906Y-25748293D01*
X201820880Y-25644784D01*
X201799456Y-25551986D01*
X201731634Y-25469901D01*
X201674523Y-25434215D01*
X201571014Y-25409240D01*
X201374708Y-25405689D01*
X201271199Y-25380715D01*
X201214088Y-25345028D01*
X201146266Y-25262943D01*
X201124842Y-25170146D01*
X201149817Y-25066636D01*
X201185503Y-25009526D01*
X201267588Y-24941703D01*
X201499581Y-24888144D01*
X201649489Y-24902406D01*
X202038551Y-25105814D02*
X202374112Y-25712546D01*
X202452587Y-25205713D01*
X202745301Y-25626851D01*
X202780928Y-24934423D01*
X203184252Y-24987923D02*
X203509042Y-24912939D01*
X203766070Y-25391188D02*
X203302084Y-25498307D01*
X203077133Y-24523937D01*
X203541118Y-24416818D01*
X203933731Y-24423919D02*
X203969418Y-24366809D01*
X204051503Y-24298986D01*
X204283496Y-24245426D01*
X204387005Y-24270401D01*
X204444115Y-24306088D01*
X204511938Y-24388173D01*
X204533362Y-24480970D01*
X204519099Y-24630878D01*
X204090860Y-25316204D01*
X204694041Y-25176949D01*
X205593503Y-44420200D02*
X205743411Y-44434462D01*
X205975404Y-44380903D01*
X206057489Y-44313080D01*
X206093176Y-44255970D01*
X206118150Y-44152461D01*
X206096727Y-44059663D01*
X206028904Y-43977578D01*
X205971794Y-43941892D01*
X205868284Y-43916917D01*
X205671978Y-43913366D01*
X205568469Y-43888392D01*
X205511359Y-43852705D01*
X205443536Y-43770620D01*
X205422112Y-43677823D01*
X205447087Y-43574313D01*
X205482773Y-43517203D01*
X205564859Y-43449380D01*
X205796852Y-43395821D01*
X205946759Y-43410083D01*
X206335821Y-43613491D02*
X206671383Y-44220223D01*
X206749857Y-43713390D01*
X207042571Y-44134528D01*
X207078198Y-43442100D01*
X207806313Y-43420616D02*
X207481523Y-43495600D01*
X207599354Y-44005984D02*
X207374403Y-43031614D01*
X207838389Y-42924495D01*
X208184603Y-42942308D02*
X208220289Y-42885198D01*
X208302375Y-42817375D01*
X208534367Y-42763815D01*
X208637877Y-42788790D01*
X208694987Y-42824477D01*
X208762810Y-42906562D01*
X208784233Y-42999359D01*
X208769971Y-43149267D01*
X208341731Y-43834593D01*
X208944913Y-43695338D01*
X188067217Y-52968338D02*
X188217125Y-52982600D01*
X188449118Y-52929041D01*
X188531203Y-52861218D01*
X188566890Y-52804108D01*
X188591864Y-52700599D01*
X188570441Y-52607801D01*
X188502618Y-52525716D01*
X188445508Y-52490030D01*
X188341998Y-52465055D01*
X188145692Y-52461504D01*
X188042183Y-52436530D01*
X187985073Y-52400843D01*
X187917250Y-52318758D01*
X187895826Y-52225961D01*
X187920801Y-52122451D01*
X187956487Y-52065341D01*
X188038573Y-51997518D01*
X188270566Y-51943959D01*
X188420473Y-51958221D01*
X188809535Y-52161629D02*
X189145097Y-52768361D01*
X189223571Y-52261528D01*
X189516285Y-52682666D01*
X189551912Y-51990238D01*
X190280027Y-51968754D02*
X189955237Y-52043738D01*
X190073068Y-52554122D02*
X189848117Y-51579752D01*
X190312103Y-51472633D01*
X191418627Y-52243476D02*
X190861844Y-52372019D01*
X191140235Y-52307747D02*
X190915284Y-51333377D01*
X190854623Y-51493997D01*
X190783250Y-51608218D01*
X190701165Y-51676040D01*
X179449480Y-15958345D02*
X179599387Y-15972607D01*
X179831380Y-15919048D01*
X179913465Y-15851225D01*
X179949152Y-15794115D01*
X179974127Y-15690606D01*
X179952703Y-15597808D01*
X179884880Y-15515723D01*
X179827770Y-15480037D01*
X179724261Y-15455062D01*
X179527954Y-15451511D01*
X179424445Y-15426536D01*
X179367335Y-15390850D01*
X179299512Y-15308765D01*
X179278088Y-15215968D01*
X179303063Y-15112458D01*
X179338750Y-15055348D01*
X179420835Y-14987525D01*
X179652828Y-14933966D01*
X179802735Y-14948228D01*
X180191797Y-15151636D02*
X180527359Y-15758368D01*
X180605833Y-15251535D01*
X180898547Y-15672673D01*
X180934174Y-14980245D01*
X181455330Y-15544129D02*
X181230379Y-14569759D01*
X181462372Y-14516199D01*
X181612280Y-14530462D01*
X181726501Y-14601835D01*
X181794323Y-14683921D01*
X181883570Y-14858803D01*
X181915706Y-14997999D01*
X181912155Y-15194305D01*
X181887180Y-15297814D01*
X181815807Y-15412035D01*
X181687323Y-15490569D01*
X181455330Y-15544129D01*
X182940085Y-15201347D02*
X182383302Y-15329890D01*
X182661693Y-15265618D02*
X182436742Y-14291248D01*
X182376081Y-14451868D01*
X182304708Y-14566089D01*
X182222622Y-14633911D01*
X183769949Y-34460660D02*
X183919857Y-34474922D01*
X184151850Y-34421363D01*
X184233935Y-34353540D01*
X184269622Y-34296430D01*
X184294596Y-34192921D01*
X184273172Y-34100123D01*
X184205350Y-34018038D01*
X184148239Y-33982352D01*
X184044730Y-33957377D01*
X183848424Y-33953826D01*
X183744915Y-33928852D01*
X183687804Y-33893165D01*
X183619982Y-33811080D01*
X183598558Y-33718283D01*
X183623533Y-33614773D01*
X183659219Y-33557663D01*
X183741304Y-33489840D01*
X183973297Y-33436281D01*
X184123205Y-33450543D01*
X184512267Y-33653951D02*
X184847828Y-34260683D01*
X184926303Y-33753850D01*
X185219017Y-34174988D01*
X185254644Y-33482560D01*
X185657968Y-33536060D02*
X185982758Y-33461076D01*
X186239786Y-33939325D02*
X185775800Y-34046444D01*
X185550849Y-33072074D01*
X186014834Y-32964955D01*
X187167757Y-33725086D02*
X186610974Y-33853629D01*
X186889366Y-33789357D02*
X186664415Y-32814987D01*
X186603753Y-32975607D01*
X186532380Y-33089828D01*
X186450295Y-33157650D01*
X166243667Y-43008803D02*
X166393575Y-43023065D01*
X166625568Y-42969506D01*
X166707653Y-42901683D01*
X166743340Y-42844573D01*
X166768314Y-42741064D01*
X166746890Y-42648266D01*
X166679068Y-42566181D01*
X166621957Y-42530495D01*
X166518448Y-42505520D01*
X166322142Y-42501969D01*
X166218633Y-42476995D01*
X166161522Y-42441308D01*
X166093700Y-42359223D01*
X166072276Y-42266426D01*
X166097251Y-42162916D01*
X166132937Y-42105806D01*
X166215022Y-42037983D01*
X166447015Y-41984424D01*
X166596923Y-41998686D01*
X166985985Y-42202094D02*
X167321546Y-42808826D01*
X167400021Y-42301993D01*
X167692735Y-42723131D01*
X167728362Y-42030703D01*
X168131686Y-42084203D02*
X168456476Y-42009219D01*
X168713504Y-42487468D02*
X168249518Y-42594587D01*
X168024567Y-41620217D01*
X168488552Y-41513098D01*
X169091734Y-41373842D02*
X169184531Y-41352418D01*
X169288040Y-41377393D01*
X169345151Y-41413080D01*
X169412973Y-41495165D01*
X169502220Y-41670047D01*
X169555779Y-41902040D01*
X169552229Y-42098346D01*
X169527254Y-42201855D01*
X169491567Y-42258966D01*
X169409482Y-42326788D01*
X169316685Y-42348212D01*
X169213176Y-42323238D01*
X169156065Y-42287551D01*
X169088243Y-42205466D01*
X168998997Y-42030583D01*
X168945437Y-41798591D01*
X168948987Y-41602284D01*
X168973962Y-41498775D01*
X169009649Y-41441665D01*
X169091734Y-41373842D01*
X170540935Y-61516480D02*
X170690843Y-61530742D01*
X170922836Y-61477183D01*
X171004921Y-61409360D01*
X171040608Y-61352250D01*
X171065582Y-61248741D01*
X171044159Y-61155943D01*
X170976336Y-61073858D01*
X170919226Y-61038172D01*
X170815716Y-61013197D01*
X170619410Y-61009646D01*
X170515901Y-60984672D01*
X170458791Y-60948985D01*
X170390968Y-60866900D01*
X170369544Y-60774103D01*
X170394519Y-60670593D01*
X170430205Y-60613483D01*
X170512291Y-60545660D01*
X170744284Y-60492101D01*
X170894191Y-60506363D01*
X171283253Y-60709771D02*
X171618815Y-61316503D01*
X171697289Y-60809670D01*
X171990003Y-61230808D01*
X172025630Y-60538380D01*
X172753745Y-60516896D02*
X172428955Y-60591880D01*
X172546786Y-61102264D02*
X172321835Y-60127894D01*
X172785821Y-60020775D01*
X173342604Y-59892231D02*
X173435401Y-59870807D01*
X173538910Y-59895782D01*
X173596020Y-59931469D01*
X173663843Y-60013554D01*
X173753089Y-60188436D01*
X173806649Y-60420429D01*
X173803098Y-60616735D01*
X173778124Y-60720244D01*
X173742437Y-60777355D01*
X173660352Y-60845177D01*
X173567555Y-60866601D01*
X173464046Y-60841627D01*
X173406935Y-60805940D01*
X173339113Y-60723855D01*
X173249866Y-60548972D01*
X173196306Y-60316980D01*
X173199857Y-60120673D01*
X173224832Y-60017164D01*
X173260518Y-59960054D01*
X173342604Y-59892231D01*
X161923197Y-24506481D02*
X162073104Y-24520743D01*
X162305097Y-24467184D01*
X162387182Y-24399361D01*
X162422869Y-24342251D01*
X162447844Y-24238742D01*
X162426420Y-24145944D01*
X162358597Y-24063859D01*
X162301487Y-24028173D01*
X162197978Y-24003198D01*
X162001671Y-23999647D01*
X161898162Y-23974672D01*
X161841052Y-23938986D01*
X161773229Y-23856901D01*
X161751805Y-23764104D01*
X161776780Y-23660594D01*
X161812467Y-23603484D01*
X161894552Y-23535661D01*
X162126545Y-23482102D01*
X162276452Y-23496364D01*
X162665514Y-23699772D02*
X163001076Y-24306504D01*
X163079550Y-23799671D01*
X163372264Y-24220809D01*
X163407891Y-23528381D01*
X163929047Y-24092265D02*
X163704096Y-23117895D01*
X163936089Y-23064335D01*
X164085997Y-23078598D01*
X164200218Y-23149971D01*
X164268040Y-23232057D01*
X164357287Y-23406939D01*
X164389423Y-23546135D01*
X164385872Y-23742441D01*
X164360897Y-23845950D01*
X164289524Y-23960171D01*
X164161040Y-24038705D01*
X163929047Y-24092265D01*
X164864061Y-22850096D02*
X164956858Y-22828672D01*
X165060367Y-22853647D01*
X165117477Y-22889334D01*
X165185300Y-22971419D01*
X165274546Y-23146301D01*
X165328106Y-23378294D01*
X165324555Y-23574600D01*
X165299581Y-23678109D01*
X165263894Y-23735220D01*
X165181809Y-23803042D01*
X165089012Y-23824466D01*
X164985502Y-23799492D01*
X164928392Y-23763805D01*
X164860569Y-23681720D01*
X164771323Y-23506838D01*
X164717763Y-23274845D01*
X164721314Y-23078538D01*
X164746289Y-22975029D01*
X164781975Y-22917919D01*
X164864061Y-22850096D01*
X170216376Y5617019D02*
X169998706Y6155988D01*
X169659594Y5745562D02*
X169884545Y6719932D01*
X170255733Y6634237D01*
X170337818Y6566414D01*
X170373505Y6509304D01*
X170398480Y6405794D01*
X170366344Y6266599D01*
X170298521Y6184514D01*
X170241411Y6148827D01*
X170137902Y6123852D01*
X169766713Y6209548D01*
X170751795Y6030995D02*
X171076585Y5956012D01*
X171097949Y5413492D02*
X170633964Y5520611D01*
X170858915Y6494981D01*
X171322900Y6387862D01*
X171479850Y5374194D02*
X171608334Y5295660D01*
X171840327Y5242100D01*
X171943836Y5267075D01*
X172000946Y5302762D01*
X172068769Y5384847D01*
X172090193Y5477644D01*
X172065218Y5581153D01*
X172029531Y5638264D01*
X171947446Y5706086D01*
X171772564Y5795332D01*
X171690479Y5863155D01*
X171654792Y5920265D01*
X171629817Y6023775D01*
X171651241Y6116572D01*
X171719064Y6198657D01*
X171776174Y6234343D01*
X171879683Y6259318D01*
X172111676Y6205758D01*
X172240160Y6127224D01*
X172561339Y5613229D02*
X172886130Y5538245D01*
X172907494Y4995725D02*
X172443508Y5102845D01*
X172668459Y6077215D01*
X173132445Y5970095D01*
X173410836Y5905824D02*
X173967619Y5777280D01*
X173464277Y4867182D02*
X173689228Y5841552D01*
X143363654Y-37672554D02*
X143363654Y-36672554D01*
X143744606Y-36672554D01*
X143839844Y-36720174D01*
X143887463Y-36767793D01*
X143935082Y-36863031D01*
X143935082Y-37005888D01*
X143887463Y-37101126D01*
X143839844Y-37148745D01*
X143744606Y-37196364D01*
X143363654Y-37196364D01*
X144363654Y-37672554D02*
X144363654Y-36672554D01*
X144839844Y-37672554D02*
X144839844Y-36672554D01*
X145173177Y-37386840D01*
X145506511Y-36672554D01*
X145506511Y-37672554D01*
X146411273Y-37005888D02*
X146411273Y-37672554D01*
X146173177Y-36624935D02*
X145935082Y-37339221D01*
X146554130Y-37339221D01*
X147363654Y-37005888D02*
X147363654Y-37672554D01*
X147125558Y-36624935D02*
X146887463Y-37339221D01*
X147506511Y-37339221D01*
X147792225Y-36672554D02*
X148458892Y-36672554D01*
X148030320Y-37672554D01*
D11*
X145707283Y-71310418D02*
X145207283Y-71310418D01*
X146307283Y-71310418D02*
X145707283Y-71710418D01*
X146707283Y-71310418D02*
X146307283Y-71310418D01*
X146307283Y-71310418D02*
X146307283Y-70760418D01*
X145707283Y-71710418D02*
X145707283Y-70910418D01*
X145707283Y-70910418D02*
X146307283Y-71310418D01*
X146307283Y-71310418D02*
X146307283Y-71860418D01*
X196273144Y-60326672D02*
X195673144Y-60726672D01*
X195673144Y-60326672D02*
X195173144Y-60326672D01*
X196273144Y-60326672D02*
X196273144Y-60876672D01*
X196273144Y-60326672D02*
X196273144Y-59776672D01*
X195673144Y-60726672D02*
X195673144Y-59926672D01*
X195673144Y-59926672D02*
X196273144Y-60326672D01*
X196673144Y-60326672D02*
X196273144Y-60326672D01*
X95741427Y-60326673D02*
X95241427Y-60326673D01*
X95741427Y-59926673D02*
X96341427Y-60326673D01*
X96341427Y-60326673D02*
X95741427Y-60726673D01*
X96341427Y-60326673D02*
X96341427Y-60876673D01*
X96341427Y-60326673D02*
X96341427Y-59776673D01*
X96741427Y-60326673D02*
X96341427Y-60326673D01*
X95741427Y-60726673D02*
X95741427Y-59926673D01*
D12*
X159662102Y-6635152D02*
X157187202Y-6063777D01*
X163661731Y10689147D02*
X163090356Y8214248D01*
X160233477Y-4160252D02*
X159662102Y-6635152D01*
X131488032Y18117031D02*
X130916656Y15642131D01*
X133962932Y17545656D02*
X131488032Y18117031D01*
X128059778Y3267631D02*
X127488402Y792732D01*
X127488402Y792732D02*
X129963302Y221356D01*
X163661731Y10689147D02*
X161186832Y11260523D01*
D11*
X130768706Y-31783082D02*
X130094103Y-32037859D01*
X131158454Y-31873062D02*
X130768706Y-31783082D01*
X130184083Y-31648111D02*
X129696898Y-31535636D01*
X130768706Y-31783082D02*
X130644982Y-32318985D01*
X130274064Y-31258363D02*
X130768706Y-31783082D01*
X130768706Y-31783082D02*
X130892429Y-31247178D01*
X130094103Y-32037859D02*
X130274064Y-31258363D01*
X125820031Y-50550890D02*
X125999992Y-49771394D01*
X126494634Y-50296113D02*
X126370910Y-50832016D01*
X125999992Y-49771394D02*
X126494634Y-50296113D01*
X125910011Y-50161142D02*
X125422826Y-50048667D01*
X126494634Y-50296113D02*
X125820031Y-50550890D01*
X126494634Y-50296113D02*
X126618357Y-49760209D01*
X126884382Y-50386093D02*
X126494634Y-50296113D01*
X135042777Y-13270051D02*
X134919053Y-13805954D01*
X135042777Y-13270051D02*
X134368174Y-13524828D01*
X134548135Y-12745332D02*
X135042777Y-13270051D01*
X135432525Y-13360031D02*
X135042777Y-13270051D01*
X135042777Y-13270051D02*
X135166500Y-12734147D01*
X134368174Y-13524828D02*
X134548135Y-12745332D01*
X134458154Y-13135080D02*
X133970969Y-13022605D01*
X113242416Y-23234941D02*
X112567813Y-23489718D01*
X112657793Y-23099970D02*
X112170608Y-22987495D01*
X112747774Y-22710222D02*
X113242416Y-23234941D01*
X113242416Y-23234941D02*
X113366139Y-22699037D01*
X113632164Y-23324921D02*
X113242416Y-23234941D01*
X113242416Y-23234941D02*
X113118692Y-23770844D01*
X112567813Y-23489718D02*
X112747774Y-22710222D01*
X108968349Y-41747977D02*
X108293746Y-42002754D01*
X108383726Y-41613006D02*
X107896541Y-41500531D01*
X108968349Y-41747977D02*
X108844625Y-42283880D01*
X109358097Y-41837957D02*
X108968349Y-41747977D01*
X108968349Y-41747977D02*
X109092072Y-41212073D01*
X108293746Y-42002754D02*
X108473707Y-41223258D01*
X108473707Y-41223258D02*
X108968349Y-41747977D01*
X117906235Y-4811889D02*
X117516487Y-4721909D01*
X117021845Y-4197190D02*
X117516487Y-4721909D01*
X117516487Y-4721909D02*
X117640210Y-4186005D01*
X116931864Y-4586938D02*
X116444679Y-4474463D01*
X117516487Y-4721909D02*
X116841884Y-4976686D01*
X116841884Y-4976686D02*
X117021845Y-4197190D01*
X117516487Y-4721909D02*
X117392763Y-5257812D01*
X91442063Y-33199834D02*
X90767460Y-33454611D01*
X90857440Y-33064863D02*
X90370255Y-32952388D01*
X90767460Y-33454611D02*
X90947421Y-32675115D01*
X91442063Y-33199834D02*
X91565786Y-32663930D01*
X90947421Y-32675115D02*
X91442063Y-33199834D01*
X91831811Y-33289814D02*
X91442063Y-33199834D01*
X91442063Y-33199834D02*
X91318339Y-33735737D01*
X100379952Y3736249D02*
X99990204Y3826229D01*
X99990204Y3826229D02*
X100113927Y4362133D01*
X99405581Y3961200D02*
X98918396Y4073675D01*
X99315601Y3571452D02*
X99495562Y4350948D01*
X99990204Y3826229D02*
X99866480Y3290326D01*
X99495562Y4350948D02*
X99990204Y3826229D01*
X99990204Y3826229D02*
X99315601Y3571452D01*
X95131510Y-14551828D02*
X94644325Y-14439353D01*
X96105881Y-14776779D02*
X95716133Y-14686799D01*
X95716133Y-14686799D02*
X95592409Y-15222702D01*
X95041530Y-14941576D02*
X95221491Y-14162080D01*
X95221491Y-14162080D02*
X95716133Y-14686799D01*
X95716133Y-14686799D02*
X95041530Y-14941576D01*
X95716133Y-14686799D02*
X95839856Y-14150895D01*
X80880174Y3736247D02*
X80490426Y3826227D01*
X80490426Y3826227D02*
X80614149Y4362131D01*
X80490426Y3826227D02*
X79815823Y3571450D01*
X79905803Y3961198D02*
X79418618Y4073673D01*
X79815823Y3571450D02*
X79995784Y4350946D01*
X79995784Y4350946D02*
X80490426Y3826227D01*
X80490426Y3826227D02*
X80366702Y3290324D01*
X75631733Y-14551831D02*
X75144548Y-14439356D01*
X75721714Y-14162083D02*
X76216356Y-14686802D01*
X76216356Y-14686802D02*
X76340079Y-14150898D01*
X76216356Y-14686802D02*
X75541753Y-14941579D01*
X76606104Y-14776782D02*
X76216356Y-14686802D01*
X76216356Y-14686802D02*
X76092632Y-15222705D01*
X75541753Y-14941579D02*
X75721714Y-14162083D01*
X71942286Y-33199833D02*
X71267683Y-33454610D01*
X71357663Y-33064862D02*
X70870478Y-32952387D01*
X71447644Y-32675114D02*
X71942286Y-33199833D01*
X71267683Y-33454610D02*
X71447644Y-32675114D01*
X71942286Y-33199833D02*
X72066009Y-32663929D01*
X72332034Y-33289813D02*
X71942286Y-33199833D01*
X71942286Y-33199833D02*
X71818562Y-33735736D01*
X56716578Y-14686802D02*
X56592854Y-15222705D01*
X56221936Y-14162083D02*
X56716578Y-14686802D01*
X56041975Y-14941579D02*
X56221936Y-14162083D01*
X57106326Y-14776782D02*
X56716578Y-14686802D01*
X56716578Y-14686802D02*
X56840301Y-14150898D01*
X56716578Y-14686802D02*
X56041975Y-14941579D01*
X56131955Y-14551831D02*
X55644770Y-14439356D01*
X60406025Y3961199D02*
X59918840Y4073674D01*
X61380396Y3736248D02*
X60990648Y3826228D01*
X60990648Y3826228D02*
X61114371Y4362132D01*
X60990648Y3826228D02*
X60316045Y3571451D01*
X60496006Y4350947D02*
X60990648Y3826228D01*
X60316045Y3571451D02*
X60496006Y4350947D01*
X60990648Y3826228D02*
X60866924Y3290325D01*
X52442509Y-33199834D02*
X51767906Y-33454611D01*
X52442509Y-33199834D02*
X52566232Y-32663930D01*
X51857886Y-33064863D02*
X51370701Y-32952388D01*
X51767906Y-33454611D02*
X51947867Y-32675115D01*
X51947867Y-32675115D02*
X52442509Y-33199834D01*
X52442509Y-33199834D02*
X52318785Y-33735737D01*
X52832257Y-33289814D02*
X52442509Y-33199834D01*
X32358106Y-33064863D02*
X31870921Y-32952388D01*
X32448087Y-32675115D02*
X32942729Y-33199834D01*
X32942729Y-33199834D02*
X32819005Y-33735737D01*
X33332477Y-33289814D02*
X32942729Y-33199834D01*
X32942729Y-33199834D02*
X32268126Y-33454611D01*
X32268126Y-33454611D02*
X32448087Y-32675115D01*
X32942729Y-33199834D02*
X33066452Y-32663930D01*
X41490871Y3826229D02*
X41367147Y3290326D01*
X41880619Y3736249D02*
X41490871Y3826229D01*
X40996229Y4350948D02*
X41490871Y3826229D01*
X41490871Y3826229D02*
X40816268Y3571452D01*
X40906248Y3961200D02*
X40419063Y4073675D01*
X40816268Y3571452D02*
X40996229Y4350948D01*
X41490871Y3826229D02*
X41614594Y4362133D01*
X117029519Y-68637002D02*
X116905795Y-69172905D01*
X117029519Y-68637002D02*
X116354916Y-68891779D01*
X117419267Y-68726982D02*
X117029519Y-68637002D01*
X116534877Y-68112283D02*
X117029519Y-68637002D01*
X116354916Y-68891779D02*
X116534877Y-68112283D01*
X117029519Y-68637002D02*
X117153242Y-68101098D01*
X116444896Y-68502031D02*
X115957711Y-68389556D01*
X175472868Y-68501293D02*
X175349144Y-67965390D01*
X174978226Y-69026012D02*
X174798265Y-68246516D01*
X174888245Y-68636264D02*
X174401060Y-68748739D01*
X175472868Y-68501293D02*
X174978226Y-69026012D01*
X175862616Y-68411313D02*
X175472868Y-68501293D01*
X174798265Y-68246516D02*
X175472868Y-68501293D01*
X175472868Y-68501293D02*
X175596591Y-69037197D01*
X37216800Y-14686802D02*
X37093076Y-15222705D01*
X36632177Y-14551831D02*
X36144992Y-14439356D01*
X36722158Y-14162083D02*
X37216800Y-14686802D01*
X37216800Y-14686802D02*
X37340523Y-14150898D01*
X37606548Y-14776782D02*
X37216800Y-14686802D01*
X36542197Y-14941579D02*
X36722158Y-14162083D01*
X37216800Y-14686802D02*
X36542197Y-14941579D01*
X259653900Y-33042368D02*
X259777623Y-33578272D01*
X259653900Y-33042368D02*
X259530176Y-32506465D01*
X258979297Y-32787591D02*
X259653900Y-33042368D01*
X259159258Y-33567087D02*
X258979297Y-32787591D01*
X259069277Y-33177339D02*
X258582092Y-33289814D01*
X260043648Y-32952388D02*
X259653900Y-33042368D01*
X259653900Y-33042368D02*
X259159258Y-33567087D01*
X231995732Y4073675D02*
X231605984Y3983695D01*
X231605984Y3983695D02*
X231482260Y4519598D01*
X230931381Y4238472D02*
X231605984Y3983695D01*
X231605984Y3983695D02*
X231111342Y3458976D01*
X231605984Y3983695D02*
X231729707Y3447791D01*
X231021361Y3848724D02*
X230534176Y3736249D01*
X231111342Y3458976D02*
X230931381Y4238472D01*
X240154122Y-33042367D02*
X239659480Y-33567086D01*
X240154122Y-33042367D02*
X240277845Y-33578271D01*
X239569499Y-33177338D02*
X239082314Y-33289813D01*
X240154122Y-33042367D02*
X240030398Y-32506464D01*
X240543870Y-32952387D02*
X240154122Y-33042367D01*
X239659480Y-33567086D02*
X239479519Y-32787590D01*
X239479519Y-32787590D02*
X240154122Y-33042367D01*
X235205448Y-14274557D02*
X235880051Y-14529334D01*
X235880051Y-14529334D02*
X236003774Y-15065238D01*
X235295428Y-14664305D02*
X234808243Y-14776780D01*
X235880051Y-14529334D02*
X235756327Y-13993431D01*
X235880051Y-14529334D02*
X235385409Y-15054053D01*
X235385409Y-15054053D02*
X235205448Y-14274557D01*
X236269799Y-14439354D02*
X235880051Y-14529334D01*
X251105760Y3983694D02*
X251229483Y3447790D01*
X250431157Y4238471D02*
X251105760Y3983694D01*
X251495508Y4073674D02*
X251105760Y3983694D01*
X251105760Y3983694D02*
X250611118Y3458975D01*
X250611118Y3458975D02*
X250431157Y4238471D01*
X251105760Y3983694D02*
X250982036Y4519597D01*
X250521137Y3848723D02*
X250033952Y3736248D01*
X254705226Y-14274559D02*
X255379829Y-14529336D01*
X255379829Y-14529336D02*
X255256105Y-13993433D01*
X255379829Y-14529336D02*
X254885187Y-15054055D01*
X254885187Y-15054055D02*
X254705226Y-14274559D01*
X254795206Y-14664307D02*
X254308021Y-14776782D01*
X255769577Y-14439356D02*
X255379829Y-14529336D01*
X255379829Y-14529336D02*
X255503552Y-15065240D01*
X215705671Y-14274561D02*
X216380274Y-14529338D01*
X216380274Y-14529338D02*
X215885632Y-15054057D01*
X215885632Y-15054057D02*
X215705671Y-14274561D01*
X216770022Y-14439358D02*
X216380274Y-14529338D01*
X216380274Y-14529338D02*
X216256550Y-13993435D01*
X215795651Y-14664309D02*
X215308466Y-14776784D01*
X216380274Y-14529338D02*
X216503997Y-15065242D01*
X220654343Y-33042367D02*
X220778066Y-33578271D01*
X220654343Y-33042367D02*
X220530619Y-32506464D01*
X219979740Y-32787590D02*
X220654343Y-33042367D01*
X221044091Y-32952387D02*
X220654343Y-33042367D01*
X220069720Y-33177338D02*
X219582535Y-33289813D01*
X220159701Y-33567086D02*
X219979740Y-32787590D01*
X220654343Y-33042367D02*
X220159701Y-33567086D01*
X211431601Y4238470D02*
X212106204Y3983693D01*
X212106204Y3983693D02*
X211982480Y4519596D01*
X212495952Y4073673D02*
X212106204Y3983693D01*
X211611562Y3458974D02*
X211431601Y4238470D01*
X212106204Y3983693D02*
X211611562Y3458974D01*
X211521581Y3848722D02*
X211034396Y3736247D01*
X212106204Y3983693D02*
X212229927Y3447789D01*
X192021805Y3848726D02*
X191534620Y3736251D01*
X192111786Y3458978D02*
X191931825Y4238474D01*
X192996176Y4073677D02*
X192606428Y3983697D01*
X192606428Y3983697D02*
X192111786Y3458978D01*
X192606428Y3983697D02*
X192482704Y4519600D01*
X191931825Y4238474D02*
X192606428Y3983697D01*
X192606428Y3983697D02*
X192730151Y3447793D01*
X196880496Y-14529334D02*
X196756772Y-13993431D01*
X196385854Y-15054053D02*
X196205893Y-14274557D01*
X196880496Y-14529334D02*
X196385854Y-15054053D01*
X197270244Y-14439354D02*
X196880496Y-14529334D01*
X196880496Y-14529334D02*
X197004219Y-15065238D01*
X196205893Y-14274557D02*
X196880496Y-14529334D01*
X196295873Y-14664305D02*
X195808688Y-14776780D01*
X201544313Y-32952388D02*
X201154565Y-33042368D01*
X200659923Y-33567087D02*
X200479962Y-32787591D01*
X201154565Y-33042368D02*
X201030841Y-32506465D01*
X201154565Y-33042368D02*
X200659923Y-33567087D01*
X200569942Y-33177339D02*
X200082757Y-33289814D01*
X200479962Y-32787591D02*
X201154565Y-33042368D01*
X201154565Y-33042368D02*
X201278288Y-33578272D01*
X182953680Y-41335731D02*
X183628283Y-41590508D01*
X183043660Y-41725479D02*
X182556475Y-41837954D01*
X183628283Y-41590508D02*
X183133641Y-42115227D01*
X183133641Y-42115227D02*
X182953680Y-41335731D01*
X183628283Y-41590508D02*
X183752006Y-42126412D01*
X184018031Y-41500528D02*
X183628283Y-41590508D01*
X183628283Y-41590508D02*
X183504559Y-41054605D01*
X174585498Y-5089165D02*
X174405537Y-4309669D01*
X174495517Y-4699417D02*
X174008332Y-4811892D01*
X175080140Y-4564446D02*
X174956416Y-4028543D01*
X175080140Y-4564446D02*
X175203863Y-5100350D01*
X175080140Y-4564446D02*
X174585498Y-5089165D01*
X174405537Y-4309669D02*
X175080140Y-4564446D01*
X175469888Y-4474466D02*
X175080140Y-4564446D01*
X179354211Y-23077475D02*
X179477934Y-23613379D01*
X178859569Y-23602194D02*
X178679608Y-22822698D01*
X179743959Y-22987495D02*
X179354211Y-23077475D01*
X178769588Y-23212446D02*
X178282403Y-23324921D01*
X179354211Y-23077475D02*
X179230487Y-22541572D01*
X179354211Y-23077475D02*
X178859569Y-23602194D01*
X178679608Y-22822698D02*
X179354211Y-23077475D01*
X161827927Y-31625618D02*
X161951650Y-32161522D01*
X161333285Y-32150337D02*
X161153324Y-31370841D01*
X161153324Y-31370841D02*
X161827927Y-31625618D01*
X161243304Y-31760589D02*
X160756119Y-31873064D01*
X161827927Y-31625618D02*
X161333285Y-32150337D01*
X161827927Y-31625618D02*
X161704203Y-31089715D01*
X162217675Y-31535638D02*
X161827927Y-31625618D01*
X165607357Y-50663366D02*
X165427396Y-49883870D01*
X165427396Y-49883870D02*
X166101999Y-50138647D01*
X166101999Y-50138647D02*
X165607357Y-50663366D01*
X166101999Y-50138647D02*
X166225722Y-50674551D01*
X165517376Y-50273618D02*
X165030191Y-50386093D01*
X166491747Y-50048667D02*
X166101999Y-50138647D01*
X166101999Y-50138647D02*
X165978275Y-49602744D01*
X157553858Y-13112585D02*
X157430134Y-12576682D01*
X157943606Y-13022605D02*
X157553858Y-13112585D01*
X157553858Y-13112585D02*
X157677581Y-13648489D01*
X156879255Y-12857808D02*
X157553858Y-13112585D01*
X156969235Y-13247556D02*
X156482050Y-13360031D01*
X157553858Y-13112585D02*
X157059216Y-13637304D01*
X157059216Y-13637304D02*
X156879255Y-12857808D01*
D10*
X174262743Y3351090D02*
X174318981Y3594683D01*
X168416522Y4700797D02*
X174262743Y3351090D01*
X169203851Y8111092D02*
X169147613Y7867499D01*
X168416522Y4700797D02*
X168472760Y4944389D01*
X175050072Y6761385D02*
X174993834Y6517793D01*
X169203851Y8111092D02*
X175050072Y6761385D01*
X151963654Y-33480174D02*
X151963654Y-35780174D01*
X151963654Y-35780174D02*
X139523654Y-35780174D01*
X151963654Y-33480174D02*
X139523654Y-33480174D01*
X139523654Y-35780174D02*
X139523654Y-33480174D01*
D13*
X174900000Y5000000D03*
X168566594Y6462182D03*
%LPC*%
D14*
X147707283Y-71310418D03*
X144207283Y-71310418D03*
D15*
X80226390Y-37992954D03*
X167100724Y-13789101D03*
X88774530Y-966891D03*
X124813846Y-13789101D03*
X211688180Y-37992954D03*
X164957284Y-66310642D03*
X41226834Y-37992954D03*
X126957285Y-66310642D03*
X49774974Y-966891D03*
X250687736Y-37992954D03*
X242139596Y-966891D03*
X203140040Y-966891D03*
D16*
X150957285Y-70760419D03*
D17*
X151457285Y-76310419D03*
D18*
X145957285Y-76310419D03*
D17*
X140457285Y-76310419D03*
D19*
X140957285Y-80110419D03*
X145957285Y-82210419D03*
D14*
X197673144Y-60326672D03*
X194173144Y-60326672D03*
D17*
X190423139Y-65326673D03*
D18*
X195923139Y-65326673D03*
D17*
X201423139Y-65326673D03*
X101491426Y-65326672D03*
D18*
X95991426Y-65326672D03*
D17*
X90491426Y-65326672D03*
D14*
X97741427Y-60326673D03*
X94241427Y-60326673D03*
D20*
X129849345Y3115159D03*
D21*
X131486440Y1173118D03*
D20*
X133961340Y601742D03*
X136436240Y30367D03*
X138911140Y-541009D03*
X141386040Y-1112385D03*
X143860940Y-1683760D03*
X146335840Y-2255136D03*
X148810740Y-2826512D03*
X151285640Y-3397887D03*
X153760540Y-3969263D03*
X156235440Y-4540639D03*
X158710340Y-5112014D03*
X162138594Y9737385D03*
X159663694Y10308761D03*
X157188794Y10880137D03*
X154713894Y11451512D03*
X152238994Y12022888D03*
X149764094Y12594264D03*
X147289194Y13165639D03*
X144814294Y13737015D03*
X142339394Y14308391D03*
X139864494Y14879766D03*
X137389594Y15451142D03*
X134914694Y16022518D03*
X132591949Y14994678D03*
D18*
X129302915Y-36576199D03*
D17*
X134661950Y-37813430D03*
X123943880Y-35338968D03*
D22*
X132132824Y-32098013D03*
X128722528Y-31310685D03*
X127858752Y-50611044D03*
X124448456Y-49823716D03*
D17*
X119669810Y-53851997D03*
D18*
X125028845Y-55089228D03*
D17*
X130387880Y-56326459D03*
X138936021Y-19300401D03*
X128217951Y-16825939D03*
D18*
X133576986Y-18063170D03*
D22*
X136406895Y-13584982D03*
X132996599Y-12797654D03*
X114606534Y-23549872D03*
X111196238Y-22762544D03*
D18*
X111776633Y-28028057D03*
D17*
X117135668Y-29265288D03*
X106417598Y-26790826D03*
D22*
X110332467Y-42062908D03*
X106922171Y-41275580D03*
D17*
X112861599Y-47778324D03*
X102143529Y-45303862D03*
D18*
X107502564Y-46541093D03*
D22*
X118880605Y-5036840D03*
X115470309Y-4249512D03*
D17*
X121409738Y-10752262D03*
X110691668Y-8277800D03*
D18*
X116050703Y-9515031D03*
X89976278Y-37992952D03*
D17*
X95335313Y-39230183D03*
X84617243Y-36755721D03*
D22*
X92806181Y-33514765D03*
X89395885Y-32727437D03*
D17*
X93165384Y270341D03*
X103883454Y-2204121D03*
D18*
X98524419Y-966890D03*
D22*
X101354322Y3511298D03*
X97944026Y4298626D03*
D17*
X88891314Y-18242690D03*
D18*
X94250349Y-19479921D03*
D17*
X99609384Y-20717152D03*
D22*
X97080251Y-15001730D03*
X93669955Y-14214402D03*
D18*
X79024642Y-966889D03*
D17*
X73665607Y270342D03*
X84383677Y-2204120D03*
D22*
X81854544Y3511296D03*
X78444248Y4298624D03*
D17*
X80109602Y-20717150D03*
D18*
X74750567Y-19479919D03*
D17*
X69391532Y-18242688D03*
D22*
X77580474Y-15001733D03*
X74170178Y-14214405D03*
D18*
X70476498Y-37992950D03*
D17*
X75835533Y-39230181D03*
X65117463Y-36755719D03*
D22*
X73306404Y-33514764D03*
X69896108Y-32727436D03*
D17*
X49891757Y-18242689D03*
D18*
X55250792Y-19479920D03*
D17*
X60609827Y-20717151D03*
D22*
X58080696Y-15001733D03*
X54670400Y-14214405D03*
D18*
X59524864Y-966886D03*
D17*
X64883899Y-2204117D03*
X54165829Y270345D03*
D22*
X62354766Y3511297D03*
X58944470Y4298625D03*
X53806627Y-33514765D03*
X50396331Y-32727437D03*
D18*
X50976721Y-37992948D03*
D17*
X56335756Y-39230179D03*
X45617686Y-36755717D03*
X41110045Y-20717150D03*
X30391975Y-18242688D03*
D18*
X35751010Y-19479919D03*
D22*
X34306847Y-33514765D03*
X30896551Y-32727437D03*
D17*
X26117906Y-36755717D03*
D18*
X31476941Y-37992948D03*
D17*
X36835976Y-39230179D03*
X34666045Y270340D03*
X45384115Y-2204122D03*
D18*
X40025080Y-966891D03*
D22*
X42854989Y3511298D03*
X39444693Y4298626D03*
X118393637Y-68951933D03*
X114983341Y-68164605D03*
D18*
X115563736Y-73430120D03*
D17*
X120922771Y-74667351D03*
X110204701Y-72192889D03*
D23*
X176836986Y-68186362D03*
X173426690Y-68973690D03*
D17*
X170991800Y-74667349D03*
D18*
X176350835Y-73430118D03*
D17*
X181709870Y-72192887D03*
D22*
X38580918Y-15001733D03*
X35170622Y-14214405D03*
D17*
X255078590Y-39230186D03*
X265796660Y-36755724D03*
D18*
X260437625Y-37992955D03*
D23*
X261018018Y-32727437D03*
X257607722Y-33514765D03*
D17*
X227030672Y-2204118D03*
X237748742Y270344D03*
D18*
X232389707Y-966887D03*
D23*
X232970102Y4298626D03*
X229559806Y3511298D03*
D17*
X246296883Y-36755722D03*
X235578813Y-39230184D03*
D18*
X240937848Y-37992953D03*
D23*
X241518240Y-32727436D03*
X238107944Y-33514764D03*
D18*
X236663778Y-19479921D03*
D17*
X242022813Y-18242690D03*
X231304743Y-20717152D03*
D23*
X237244169Y-14214403D03*
X233833873Y-15001731D03*
D17*
X257248520Y270341D03*
D18*
X251889485Y-966890D03*
D17*
X246530450Y-2204121D03*
D23*
X252469878Y4298625D03*
X249059582Y3511297D03*
D17*
X250804521Y-20717148D03*
D18*
X256163556Y-19479917D03*
D17*
X261522591Y-18242686D03*
D23*
X256743947Y-14214405D03*
X253333651Y-15001733D03*
D17*
X211804964Y-20717151D03*
D18*
X217163999Y-19479920D03*
D17*
X222523034Y-18242689D03*
D23*
X217744392Y-14214407D03*
X214334096Y-15001735D03*
D17*
X216079035Y-39230182D03*
D18*
X221438070Y-37992951D03*
D17*
X226797105Y-36755720D03*
D23*
X222018461Y-32727436D03*
X218608165Y-33514764D03*
X213470322Y4298624D03*
X210060026Y3511296D03*
D18*
X212889930Y-966889D03*
D17*
X218248965Y270342D03*
X207530895Y-2204120D03*
X188031116Y-2204123D03*
D18*
X193390151Y-966892D03*
D17*
X198749186Y270339D03*
D23*
X193970546Y4298628D03*
X190560250Y3511300D03*
D17*
X192305185Y-20717151D03*
D18*
X197664220Y-19479920D03*
D17*
X203023255Y-18242689D03*
D23*
X198244614Y-14214403D03*
X194834318Y-15001731D03*
D18*
X201938291Y-37992953D03*
D17*
X196579256Y-39230184D03*
X207297326Y-36755722D03*
D23*
X202518683Y-32727437D03*
X199108387Y-33514765D03*
X184992401Y-41275577D03*
X181582105Y-42062905D03*
D17*
X179052970Y-47778322D03*
D18*
X184412005Y-46541091D03*
D17*
X189771040Y-45303860D03*
X181222900Y-8277799D03*
X170504830Y-10752261D03*
D18*
X175863865Y-9515030D03*
D23*
X176444258Y-4249515D03*
X173033962Y-5036843D03*
X180718329Y-22762544D03*
X177308033Y-23549872D03*
D17*
X185496971Y-26790826D03*
D18*
X180137936Y-28028057D03*
D17*
X174778901Y-29265288D03*
D23*
X163192045Y-31310687D03*
X159781749Y-32098015D03*
D17*
X167970689Y-35338969D03*
D18*
X162611654Y-36576200D03*
D17*
X157252619Y-37813431D03*
D23*
X167466117Y-49823716D03*
X164055821Y-50611044D03*
D17*
X161526688Y-56326464D03*
D18*
X166885723Y-55089233D03*
D17*
X172244758Y-53852002D03*
D23*
X158917976Y-12797654D03*
X155507680Y-13584982D03*
D18*
X158337582Y-18063166D03*
D17*
X152978547Y-19300397D03*
X163696617Y-16825935D03*
D13*
X174900000Y5000000D03*
X168566594Y6462182D03*
D20*
X150813654Y-34630174D03*
X148273654Y-34630174D03*
X145733654Y-34630174D03*
X143193654Y-34630174D03*
X140653654Y-34630174D03*
D24*
X132548034Y10287924D03*
X131873180Y7364814D03*
M02*
