0
SECTION
2
HEADER
9
$INSUNITS
70
4
9
$ACADVER
1
AC1014
9
$HANDSEED
5
FFFF
0
ENDSEC
0
SECTION
2
TABLES
0
TABLE
2
VPORT
5
8
100
AcDbSymbolTable
0
ENDTAB
0
TABLE
2
LTYPE
5
5
100
AcDbSymbolTable
0
LTYPE
5
14
100
AcDbSymbolTableRecord
100
AcDbLinetypeTableRecord
2
BYBLOCK
70
0
0
LTYPE
5
15
100
AcDbSymbolTableRecord
100
AcDbLinetypeTableRecord
2
BYLAYER
70
0
0
ENDTAB
0
TABLE
2
LAYER
5
2
100
AcDbSymbolTable
70
2
0
LAYER
5
50
100
AcDbSymbolTableRecord
100
AcDbLayerTableRecord
2
0
70
0
6
CONTINUOUS
0
ENDTAB
0
TABLE
2
STYLE
5
3
100
AcDbSymbolTable
70
1
0
STYLE
5
11
100
AcDbSymbolTableRecord
100
AcDbTextStyleTableRecord
2
STANDARD
70
0
0
ENDTAB
0
TABLE
2
VIEW
5
6
100
AcDbSymbolTable
70
0
0
ENDTAB
0
TABLE
2
UCS
5
7
100
AcDbSymbolTable
70
0
0
ENDTAB
0
TABLE
2
APPID
5
9
100
AcDbSymbolTable
70
2
0
APPID
5
12
100
AcDbSymbolTableRecord
100
AcDbRegAppTableRecord
2
ACAD
70
0
0
ENDTAB
0
TABLE
2
DIMSTYLE
5
A
100
AcDbSymbolTable
70
1
0
ENDTAB
0
TABLE
2
BLOCK_RECORD
5
1
100
AcDbSymbolTable
70
1
0
BLOCK_RECORD
5
1F
100
AcDbSymbolTableRecord
100
AcDbBlockTableRecord
2
*MODEL_SPACE
0
BLOCK_RECORD
5
1B
100
AcDbSymbolTableRecord
100
AcDbBlockTableRecord
2
*PAPER_SPACE
0
ENDTAB
0
ENDSEC
0
SECTION
2
BLOCKS
0
BLOCK
5
20
100
AcDbEntity
100
AcDbBlockBegin
2
*MODEL_SPACE
0
ENDBLK
5
21
100
AcDbEntity
100
AcDbBlockEnd
0
BLOCK
5
1C
100
AcDbEntity
100
AcDbBlockBegin
2
*PAPER_SPACE
0
ENDBLK
5
1D
100
AcDbEntity
100
AcDbBlockEnd
0
ENDSEC
0
SECTION
2
ENTITIES
0
LWPOLYLINE
5
100
100
AcDbEntity
8
0
100
AcDbPolyline
90
4
70
1
43
0.0
10
-137.24654058457716
20
61.78506981862828
10
-137.24654058457719
20
37.529266113425805
42
-1.0000000678780219
10
-139.24654058457716
20
37.529266249066026
10
-139.24654058457716
20
61.785069954384319
42
-0.99999993212198257
0
LWPOLYLINE
5
101
100
AcDbEntity
8
0
100
AcDbPolyline
90
4
70
1
43
0.0
10
-145.24654058457713
20
61.785069700853853
42
1.0000000586659319
10
-147.24654058457716
20
61.78506981862828
10
-147.24654058457716
20
37.529266113367896
42
0.99999994133407133
10
-145.24654058457713
20
37.529265995593462
0
CIRCLE
5
102
100
AcDbEntity
8
0
100
AcDbCircle
10
-147.7469401879095
20
21.926287986915803
30
0
40
0.099999430552024648
210
-0
220
0
230
1
0
CIRCLE
5
103
100
AcDbEntity
8
0
100
AcDbCircle
10
-136.74614098124482
20
21.926287986915803
30
0
40
0.099999430552024648
210
0
220
0
230
1
0
LWPOLYLINE
5
104
100
AcDbEntity
8
0
100
AcDbPolyline
90
254
70
1
43
0.0
10
-139.24654058457716
20
67.785069954319809
42
1.0000000678780219
10
-137.24654058457716
20
67.785069818628301
10
-137.24654058457716
20
77.284669261621588
10
-137.21864084168178
20
77.452370987435756
10
-137.14754060473621
20
77.581868519081667
10
-137.04844048908973
20
77.683469168854984
10
-136.9189410500949
20
77.75457131314883
10
-136.63484050973196
20
77.785069818628301
10
-99.748538452293175
20
77.785069818628301
10
-99.575839472923263
20
77.81306969732978
10
-99.446338126580059
20
77.884171841623768
10
-99.347239918281957
20
77.985768676699678
10
-99.276141588685377
20
78.115270023042996
10
-99.248240892115518
20
78.282971748857165
10
-99.248240892115518
20
82.034471028294462
10
-99.217738571938753
20
82.202168939411308
10
-99.149138869120037
20
82.331670285754484
10
-99.047538219346691
20
82.433270935527787
10
-98.918040687700866
20
82.504369265124382
10
-98.747840335108805
20
82.534871585301175
10
-80.746836573521279
20
82.534871585301175
10
-80.57664003562661
20
82.562871464002711
10
-80.447138689283378
20
82.633969793599277
10
-80.345538039510103
20
82.735570443372552
10
-80.276942151388738
20
82.865069882367123
10
-80.264080105257278
20
82.93683900595974
42
1.0928426673766374
10
-80.246439831211958
20
83.135269665511004
10
-80.246439831211958
20
84.184971385120463
42
0.92074424915260922
10
-80.230018776463197
20
84.383612769584758
10
-80.2185391346421
20
84.452571452006282
10
-80.147440805045534
20
84.582170073132374
10
-80.048342596747403
20
84.683770722905791
10
-79.918841250404228
20
84.754870959851019
10
-79.748637083114787
20
84.785371372679066
10
-62.848437680789935
20
84.785371372679066
42
0.91504799976505224
10
-62.6500068983554
20
84.767731784325633
10
-62.578241712343292
20
84.754870959851019
10
-62.448740366000109
20
84.686271257032359
10
-62.347139716226785
20
84.584670607258971
10
-62.275942204498556
20
84.455171168264513
10
-62.248041507928669
20
84.284970815672409
10
-62.248041507928669
20
83.035270234959057
10
-62.217539187751939
20
82.862571255589259
10
-62.146440858155358
20
82.732970727114363
10
-62.047335020462512
20
82.633969793599277
10
-61.915338862038816
20
82.562871464002711
10
-61.846270292374889
20
82.551339611463405
42
1.0863382996450688
10
-61.647638659347024
20
82.534871585301175
10
-43.746736371466156
20
82.534871585301175
10
-43.579034645651937
20
82.504369265124382
10
-43.449540928703442
20
82.435868744437244
10
-43.347940278930125
20
82.334271909361334
10
-43.27684194933353
20
82.204671380886509
10
-43.246339629156836
20
82.034471028294462
10
-43.246339629156836
20
80.533372354103363
10
-43.218339750455321
20
80.363172001511344
10
-43.147241420858734
20
80.233670655168197
10
-43.045640771085317
20
80.134568632172687
10
-42.916139424742227
20
80.063470302576079
10
-42.748437698928043
20
80.035569606006305
10
-24.74753693416945
20
80.035569606006305
10
-24.579835208355316
20
80.005071100526834
10
-24.447839049931659
20
79.933968956232889
10
-24.348740841633543
20
79.834870747934758
10
-24.277634882642136
20
79.705369401591568
10
-24.247140191860144
20
79.535169048999592
10
-24.247140191860144
20
78.285470375634986
10
-24.216637871683435
20
78.112771396265089
10
-24.148034354167329
20
77.983170867790193
10
-24.046441333788735
20
77.884171841623768
10
-23.916939987445538
20
77.81306969732978
10
-23.845408039389547
20
77.801302148386952
42
1.085036977696143
10
-23.646737343278534
20
77.785069818628301
10
-3.9982306371068255
20
77.785069818628301
10
-3.8306433522137162
20
77.75457131314883
10
-3.6985327528689282
20
77.686070792461834
10
-3.5995337267025462
20
77.584470142688502
10
-3.5283362149742281
20
77.454869614213663
10
-3.4979407063238277
20
77.284669261621588
10
-3.4979407063238277
20
17.724265703305377
10
-3.5156409021243284
20
17.538871411085601
10
-3.5487372165131426
20
17.371268867402989
10
-3.5969397324903163
20
17.213767642358277
10
-3.6553351198422313
20
17.071570983165074
10
-3.7239386373583194
20
16.936866389608181
10
-16.94973856248092
20
-5.9967356219625856
10
-16.952241003956239
20
-6.0018320576499384
10
-17.008133949832835
20
-6.0780344523286267
10
-17.102143351838333
20
-6.187233979264537
10
-17.206238813692138
20
-6.2837305639557606
10
-17.328232835609629
20
-6.3777323365664884
10
-17.452637746265545
20
-6.4514322897699472
10
-17.597443658460339
20
-6.5174341836791605
10
-17.749833189028141
20
-6.5682306938684576
10
-17.917435732710718
20
-6.6012354555204311
10
-18.105439277932227
20
-6.6139307683703841
10
-18.293442823153647
20
-6.6012354555204311
10
-18.461030108046721
20
-6.5657282523932281
10
-18.613434897404151
20
-6.514931742203931
10
-18.753144373911521
20
-6.4514322897699472
10
-18.877640837304241
20
-6.3777323365664884
10
-33.172738582430021
20
1.8848716509619479
10
-33.330140625343141
20
1.9280692839886449
10
-33.495240727550438
20
1.966170481327989
10
-33.668038889051942
20
1.9940711778978581
10
-33.828034926177146
20
2.0144645500420744
10
-70.497942553212425
20
6.7845681361221821
10
-70.586840260741056
20
6.7921670132847822
10
-70.736742608623189
20
6.8454659649492733
10
-70.851038571246477
20
6.931868860397401
10
-81.394541669500597
20
21.386970272043087
10
-81.511439255730778
20
21.473365538096481
10
-81.658739980006033
20
21.526672119155776
10
-81.747637687534635
20
21.554565186330983
10
-87.706439121323228
20
21.554565186330983
10
-125.69713993662232
20
21.529266113367882
10
-136.64614156095189
20
21.534225699427601
42
0.91527239013031947
10
-136.84457295913836
20
21.551907091087283
10
-136.91634038016252
20
21.564765687100387
10
-137.04594090863739
20
21.633369204616475
10
-137.14754060473621
20
21.734969854389767
10
-137.21864084168178
20
21.864471200732982
10
-137.24654058457716
20
22.0346677386277
10
-137.24654058457716
20
31.529266113367882
42
0.99999993212198257
10
-139.24654058457716
20
31.529266249066012
10
-139.24654058457716
20
21.529266113367882
10
-145.24654058457716
20
21.529266113367882
10
-145.24654058457713
20
31.529265995593452
42
1.0000000586659319
10
-147.24654058457716
20
31.529266113367882
10
-147.24654058457716
20
22.0346677386277
10
-147.27444032747255
20
21.864471200732982
10
-147.34554056441812
20
21.734969854389767
10
-147.44714026051693
20
21.633369204616475
10
-147.5767407889918
20
21.564765687100387
10
-147.64850821001596
20
21.551907091087283
42
0.9152723901302382
10
-147.84693960820243
20
21.534225699427601
10
-158.79594123253202
20
21.529266113367882
10
-196.78664204783109
20
21.554565186330983
10
-202.74544348161967
20
21.554565186330983
10
-202.83434118914829
20
21.526672119155776
10
-202.98164191342354
20
21.473365538096481
10
-203.09853949965373
20
21.386970272043087
10
-213.64204259790785
20
6.931868860397401
10
-213.75633856053113
20
6.8454659649492733
10
-213.90624090841328
20
6.7921670132847822
10
-213.9951386159419
20
6.7845681361221821
10
-250.66504624297718
20
2.0144645500420744
10
-250.82504228010237
20
1.9940711778978581
10
-250.99784044160387
20
1.966170481327989
10
-251.16294054381117
20
1.9280692839886449
10
-251.32034258672431
20
1.8848716509619479
10
-265.6154403318501
20
-6.3777323365664884
10
-265.73993679524278
20
-6.4514322897699472
10
-265.87964627175018
20
-6.514931742203931
10
-266.03205106110761
20
-6.5657282523932281
10
-266.19963834600065
20
-6.6012354555204311
10
-266.38764189122207
20
-6.6139307683703841
10
-266.57564543644361
20
-6.6012354555204311
10
-266.74324798012617
20
-6.5682306938684576
10
-266.89563751069397
20
-6.5174341836791605
10
-267.04044342288876
20
-6.4514322897699472
10
-267.16484833354468
20
-6.3777323365664884
10
-267.28684235546217
20
-6.2837305639557606
10
-267.39093781731594
20
-6.187233979264537
10
-267.4849472193215
20
-6.0780344523286267
10
-267.54084016519806
20
-6.0018320576499384
10
-267.54334260667343
20
-5.9967356219625856
10
-280.76914253179604
20
16.936866389608181
10
-280.83774604931205
20
17.071570983165074
10
-280.89614143666404
20
17.213767642358277
10
-280.94434395264113
20
17.371268867402989
10
-280.97744026702998
20
17.538871411085601
10
-280.99514046283048
20
17.724265703305377
10
-280.99514046283048
20
77.284669261621588
10
-280.96474495418011
20
77.454869614213663
10
-280.89354744245179
20
77.584470142688502
10
-280.79454841628541
20
77.686070792461834
10
-280.66243781694061
20
77.75457131314883
10
-280.49485053204751
20
77.785069818628301
10
-260.84634382587575
20
77.785069818628301
42
1.0850369776962467
10
-260.64767312976477
20
77.801302148386952
10
-260.57614118170881
20
77.81306969732978
10
-260.4466398353656
20
77.884171841623768
10
-260.34504681498697
20
77.983170867790193
10
-260.27644329747091
20
78.112771396265089
10
-260.2459409772942
20
78.285470375634986
10
-260.2459409772942
20
79.535169048999592
10
-260.21544628651219
20
79.705369401591568
10
-260.14434032752081
20
79.834870747934758
10
-260.04524211922268
20
79.933968956232889
10
-259.91324596079897
20
80.005071100526834
10
-259.74554423498489
20
80.035569606006305
10
-241.74464347022626
20
80.035569606006305
10
-241.57694174441212
20
80.063470302576079
10
-241.44744039806903
20
80.134568632172687
10
-241.34583974829559
20
80.233670655168197
10
-241.27474141869899
20
80.363172001511344
10
-241.24674153999749
20
80.533372354103363
10
-241.24674153999749
20
82.034471028294462
10
-241.21623921982078
20
82.204671380886509
10
-241.14514089022421
20
82.334271909361334
10
-241.04354024045085
20
82.435868744437244
10
-240.91404652350238
20
82.504369265124382
10
-240.74634479768818
20
82.534871585301175
10
-222.8454425098073
20
82.534871585301175
42
1.086338299645045
10
-222.64681087677943
20
82.551339611463405
10
-222.5777423071155
20
82.562871464002711
10
-222.4457461486918
20
82.633969793599277
10
-222.34664031099896
20
82.732970727114363
10
-222.2755419814024
20
82.862571255589259
10
-222.24503966122566
20
83.035270234959057
10
-222.24503966122566
20
84.284970815672409
10
-222.21713896465576
20
84.455171168264513
10
-222.14594145292753
20
84.584670607258971
10
-222.04434080315423
20
84.686271257032359
10
-221.91483945681102
20
84.754870959851019
10
-221.84307427079889
20
84.767731784325633
42
0.91504799976505224
10
-221.64464348836441
20
84.785371372679066
10
-204.74444408603955
20
84.785371372679066
10
-204.5742399187501
20
84.754870959851019
10
-204.44473857240692
20
84.683770722905791
10
-204.34564036410879
20
84.582170073132374
10
-204.27454203451222
20
84.452571452006282
10
-204.26306239269115
20
84.383612769584758
42
0.92074424915254205
10
-204.24664133794238
20
84.184971385120463
10
-204.24664133794238
20
83.135269665511004
42
1.0928426673769436
10
-204.22900106389704
20
82.93683900595974
10
-204.21613901776561
20
82.865069882367123
10
-204.14754312964422
20
82.735570443372552
10
-204.04594247987094
20
82.633969793599277
10
-203.91644113352771
20
82.562871464002711
10
-203.74624459563304
20
82.534871585301175
10
-185.74524083404552
20
82.534871585301175
10
-185.57504048145347
20
82.504369265124382
10
-185.44554294980765
20
82.433270935527787
10
-185.34394230003429
20
82.331670285754484
10
-185.27534259721557
20
82.202168939411308
10
-185.2448402770388
20
82.034471028294462
10
-185.2448402770388
20
78.282971748857165
10
-185.21693958046896
20
78.115270023042996
10
-185.14584125087237
20
77.985768676699678
10
-185.04674304257429
20
77.884171841623768
10
-184.91724169623103
20
77.81306969732978
10
-184.74454271686113
20
77.785069818628301
10
-147.85824065942236
20
77.785069818628301
10
-147.57414011905942
20
77.75457131314883
10
-147.44464068006459
20
77.683469168854984
10
-147.34554056441812
20
77.581868519081667
10
-147.27444032747255
20
77.452370987435756
10
-147.24654058457716
20
77.284669261621588
10
-147.24654058457716
20
67.785069818628301
42
0.99999994133407133
10
-145.24654058457713
20
67.785069700853867
10
-145.24654058457716
20
77.785069818628301
10
-139.24654058457716
20
77.785069818628301
0
ENDSEC
0
SECTION
2
OBJECTS
0
DICTIONARY
5
C
100
AcDbDictionary
3
ACAD_GROUP
350
D
3
ACAD_MLINESTYLE
350
17
0
DICTIONARY
5
D
100
AcDbDictionary
0
DICTIONARY
5
1A
330
C
100
AcDbDictionary
0
DICTIONARY
5
17
100
AcDbDictionary
0
ENDSEC
0
EOF
