M48
; DRILL file {KiCad (7.0.0-0)} date Sunday, 07 May 2023 at 20:22:35
; FORMAT={-:-/ absolute / inch / decimal}
; #@! TF.CreationDate,2023-05-07T20:22:35+03:00
; #@! TF.GenerationSoftware,Kicad,Pcbnew,(7.0.0-0)
; #@! TF.FileFunction,NonPlated,1,2,NPTH
FMAT,2
INCH
; #@! TA.AperFunction,NonPlated,NPTH,ComponentDrill
T1C0.0670
; #@! TA.AperFunction,NonPlated,NPTH,ComponentDrill
T2C0.1181
; #@! TA.AperFunction,NonPlated,NPTH,ComponentDrill
T3C0.1350
%
G90
G05
T1
X1.4215Y-3.4753
X1.5721Y-2.8231
X1.7226Y-2.171
X1.8435Y-3.5727
X1.994Y-2.9206
X2.1446Y-2.2684
X2.1488Y-3.4753
X2.2994Y-2.8231
X2.4499Y-2.171
X2.5708Y-3.5727
X2.7213Y-2.9206
X2.8719Y-2.2684
X2.8761Y-3.4753
X3.0267Y-2.8231
X3.1772Y-2.171
X3.2981Y-3.5727
X3.4486Y-2.9206
X3.5992Y-2.2684
X3.6034Y-3.4753
X3.754Y-2.8231
X3.8092Y-4.5006
X3.9045Y-2.171
X4.0254Y-3.5727
X4.176Y-2.9206
X4.2423Y-4.5006
X4.2571Y-3.7941
X4.3265Y-2.2684
X4.4077Y-3.142
X4.5401Y-4.7547
X4.5582Y-2.4898
X4.6791Y-3.8915
X4.8296Y-3.2394
X4.9108Y-4.1129
X4.962Y-4.8521
X4.9802Y-2.5873
X5.0614Y-3.4608
X5.2119Y-2.8087
X5.3328Y-4.2104
X5.4833Y-3.5582
X5.6339Y-2.9061
X5.6637Y-4.9021
X6.0968Y-4.9021
X6.1266Y-2.9061
X6.2771Y-3.5582
X6.4277Y-4.2104
X6.5486Y-2.8087
X6.6991Y-3.4608
X6.7803Y-2.5873
X6.7984Y-4.8521
X6.8497Y-4.1129
X6.9308Y-3.2394
X7.0814Y-3.8915
X7.2023Y-2.4898
X7.2204Y-4.7547
X7.3528Y-3.142
X7.434Y-2.2684
X7.5034Y-3.7941
X7.5182Y-4.5006
X7.5845Y-2.9206
X7.7351Y-3.5727
X7.856Y-2.171
X7.9513Y-4.5006
X8.0065Y-2.8231
X8.1571Y-3.4753
X8.1613Y-2.2684
X8.3118Y-2.9206
X8.4624Y-3.5727
X8.5833Y-2.171
X8.7338Y-2.8231
X8.8844Y-3.4753
X8.8886Y-2.2684
X9.0391Y-2.9206
X9.1897Y-3.5727
X9.3106Y-2.171
X9.4611Y-2.8231
X9.6117Y-3.4753
X9.6159Y-2.2684
X9.7664Y-2.9206
X9.917Y-3.5727
X10.0379Y-2.171
X10.1884Y-2.8231
X10.339Y-3.4753
T2
X1.6852Y-3.2957
X1.8358Y-2.6436
X1.8575Y-3.4244
X1.9863Y-1.9915
X2.0081Y-2.7723
X2.1586Y-2.1201
X2.4125Y-3.2957
X2.5631Y-2.6436
X2.5848Y-3.4244
X2.7136Y-1.9915
X2.7354Y-2.7723
X2.8859Y-2.1201
X3.1398Y-3.2957
X3.2904Y-2.6436
X3.3121Y-3.4244
X3.4409Y-1.9915
X3.4627Y-2.7723
X3.6132Y-2.1201
X3.8671Y-3.2957
X4.0177Y-2.6436
X4.0257Y-4.2663
X4.0394Y-3.4244
X4.1682Y-1.9915
X4.19Y-2.7723
X4.2226Y-4.353
X4.3405Y-2.1201
X4.5208Y-3.6146
X4.6714Y-2.9624
X4.6931Y-3.7433
X4.8038Y-4.5751
X4.8219Y-2.3103
X4.8437Y-3.0911
X4.8968Y-4.2612
X4.9761Y-4.7038
X4.9942Y-2.439
X5.0691Y-4.3899
X5.3251Y-3.2813
X5.4756Y-2.6291
X5.4974Y-3.4099
X5.6479Y-2.7578
X5.8802Y-4.6678
X6.0771Y-4.7544
X6.2849Y-2.6291
X6.4354Y-3.2813
X6.4962Y-2.6692
X6.586Y-3.9334
X6.6467Y-3.3214
X6.7973Y-3.9735
X6.9386Y-2.3103
X6.9567Y-4.5751
X7.0891Y-2.9624
X7.1499Y-2.3504
X7.168Y-4.6152
X7.2397Y-3.6146
X7.3004Y-3.0026
X7.451Y-3.6547
X7.5923Y-1.9915
X7.7348Y-4.2663
X7.7428Y-2.6436
X7.8036Y-2.0316
X7.8934Y-3.2957
X7.9316Y-4.353
X7.9541Y-2.6837
X8.1047Y-3.3359
X8.3196Y-1.9915
X8.4701Y-2.6436
X8.5309Y-2.0316
X8.6207Y-3.2957
X8.6814Y-2.6837
X8.832Y-3.3359
X9.0469Y-1.9915
X9.1974Y-2.6436
X9.2582Y-2.0316
X9.348Y-3.2957
X9.4087Y-2.6837
X9.5593Y-3.3359
X9.7742Y-1.9915
X9.9247Y-2.6436
X9.9855Y-2.0316
X10.0753Y-3.2957
X10.136Y-2.6837
X10.2866Y-3.3359
T3
X1.6325Y-3.524
X1.7831Y-2.8719
X1.9336Y-2.2197
X2.3598Y-3.524
X2.5104Y-2.8719
X2.6609Y-2.2197
X3.0871Y-3.524
X3.2377Y-2.8719
X3.3882Y-2.2197
X3.8144Y-3.524
X3.965Y-2.8719
X4.0257Y-4.5006
X4.1155Y-2.2197
X4.4681Y-3.8428
X4.6187Y-3.1907
X4.7511Y-4.8034
X4.7692Y-2.5385
X5.1218Y-4.1617
X5.2724Y-3.5095
X5.4229Y-2.8574
X5.8802Y-4.9021
X6.3376Y-2.8574
X6.4881Y-3.5095
X6.6387Y-4.1617
X6.9913Y-2.5385
X7.0094Y-4.8034
X7.1418Y-3.1907
X7.2924Y-3.8428
X7.645Y-2.2197
X7.7348Y-4.5006
X7.7955Y-2.8719
X7.9461Y-3.524
X8.3723Y-2.2197
X8.5228Y-2.8719
X8.6734Y-3.524
X9.0996Y-2.2197
X9.2501Y-2.8719
X9.4007Y-3.524
X9.8269Y-2.2197
X9.9774Y-2.8719
X10.128Y-3.524
T0
M30
