%TF.GenerationSoftware,KiCad,Pcbnew,(7.0.0-0)*%
%TF.CreationDate,2023-05-07T20:22:33+03:00*%
%TF.ProjectId,41_1350_pcb,34315f31-3335-4305-9f70-63622e6b6963,rev?*%
%TF.SameCoordinates,Original*%
%TF.FileFunction,Copper,L2,Bot*%
%TF.FilePolarity,Positive*%
%FSLAX46Y46*%
G04 Gerber Fmt 4.6, Leading zero omitted, Abs format (unit mm)*
G04 Created by KiCad (PCBNEW (7.0.0-0)) date 2023-05-07 20:22:33*
%MOMM*%
%LPD*%
G01*
G04 APERTURE LIST*
G04 Aperture macros list*
%AMRotRect*
0 Rectangle, with rotation*
0 The origin of the aperture is its center*
0 $1 length*
0 $2 width*
0 $3 Rotation angle, in degrees counterclockwise*
0 Add horizontal line*
21,1,$1,$2,0,0,$3*%
G04 Aperture macros list end*
%TA.AperFunction,ComponentPad*%
%ADD10C,1.700000*%
%TD*%
%TA.AperFunction,ComponentPad*%
%ADD11C,2.000000*%
%TD*%
%TA.AperFunction,SMDPad,CuDef*%
%ADD12RotRect,1.400000X1.000000X167.000000*%
%TD*%
%TA.AperFunction,SMDPad,CuDef*%
%ADD13RotRect,1.400000X1.000000X193.000000*%
%TD*%
%TA.AperFunction,SMDPad,CuDef*%
%ADD14R,1.400000X1.000000*%
%TD*%
%TA.AperFunction,SMDPad,CuDef*%
%ADD15RotRect,2.600000X2.600000X347.000000*%
%TD*%
%TA.AperFunction,ComponentPad*%
%ADD16C,2.032000*%
%TD*%
%TA.AperFunction,SMDPad,CuDef*%
%ADD17RotRect,2.600000X2.600000X13.000000*%
%TD*%
%TA.AperFunction,SMDPad,CuDef*%
%ADD18RotRect,2.600000X2.600000X167.000000*%
%TD*%
%TA.AperFunction,SMDPad,CuDef*%
%ADD19R,2.600000X2.600000*%
%TD*%
%TA.AperFunction,ComponentPad*%
%ADD20RotRect,1.752600X1.752600X347.000000*%
%TD*%
%TA.AperFunction,ComponentPad*%
%ADD21C,1.752600*%
%TD*%
%TA.AperFunction,ViaPad*%
%ADD22C,0.800000*%
%TD*%
%TA.AperFunction,Conductor*%
%ADD23C,0.250000*%
%TD*%
G04 APERTURE END LIST*
D10*
%TO.P,J3,5,Pin_5*%
%TO.N,GND*%
X144274222Y-93714219D03*
%TO.P,J3,4,Pin_4*%
%TO.N,unconnected-(J3-Pin_4-Pad4)*%
X146814222Y-93714219D03*
%TO.P,J3,3,Pin_3*%
%TO.N,SCL*%
X149354222Y-93714219D03*
%TO.P,J3,2,Pin_2*%
%TO.N,SDA*%
X151894222Y-93714219D03*
%TO.P,J3,1,Pin_1*%
%TO.N,VCC*%
X154434222Y-93714219D03*
%TD*%
D11*
%TO.P,RSW1,1,1*%
%TO.N,RST*%
X172765519Y-48788909D03*
%TO.P,RSW1,2,2*%
%TO.N,GND*%
X179098925Y-50251091D03*
%TD*%
D12*
%TO.P,D_E5,1,K*%
%TO.N,rowE*%
X128561728Y-102219287D03*
%TO.P,D_E5,2,A*%
%TO.N,Net-(D_E5-A)*%
X125102714Y-101420711D03*
%TD*%
%TO.P,D_E3,1,K*%
%TO.N,rowE*%
X101731728Y-94889287D03*
%TO.P,D_E3,2,A*%
%TO.N,Net-(D_E3-A)*%
X98272714Y-94090711D03*
%TD*%
%TO.P,D_E2,1,K*%
%TO.N,rowE*%
X83141728Y-95089287D03*
%TO.P,D_E2,2,A*%
%TO.N,Net-(D_E2-A)*%
X79682714Y-94290711D03*
%TD*%
%TO.P,D_E1,1,K*%
%TO.N,rowE*%
X65001728Y-94219287D03*
%TO.P,D_E1,2,A*%
%TO.N,Net-(D_E1-A)*%
X61542714Y-93420711D03*
%TD*%
%TO.P,D_E0,1,K*%
%TO.N,rowE*%
X46441728Y-93739287D03*
%TO.P,D_E0,2,A*%
%TO.N,Net-(D_E0-A)*%
X42982714Y-92940711D03*
%TD*%
D13*
%TO.P,D_D5,2,A*%
%TO.N,Net-(D_D5-A)*%
X256322714Y-75199287D03*
%TO.P,D_D5,1,K*%
%TO.N,rowD*%
X259781728Y-74400711D03*
%TD*%
%TO.P,D_D4,1,K*%
%TO.N,rowD*%
X241311728Y-74330711D03*
%TO.P,D_D4,2,A*%
%TO.N,Net-(D_D4-A)*%
X237852714Y-75129287D03*
%TD*%
%TO.P,D_D3,1,K*%
%TO.N,rowD*%
X222911728Y-74330711D03*
%TO.P,D_D3,2,A*%
%TO.N,Net-(D_D3-A)*%
X219452714Y-75129287D03*
%TD*%
%TO.P,D_D2,1,K*%
%TO.N,rowD*%
X204311728Y-74260711D03*
%TO.P,D_D2,2,A*%
%TO.N,Net-(D_D2-A)*%
X200852714Y-75059287D03*
%TD*%
%TO.P,D_D1,1,K*%
%TO.N,rowD*%
X187731728Y-82400711D03*
%TO.P,D_D1,2,A*%
%TO.N,Net-(D_D1-A)*%
X184272714Y-83199287D03*
%TD*%
%TO.P,D_D0,1,K*%
%TO.N,rowD*%
X171091728Y-90480711D03*
%TO.P,D_D0,2,A*%
%TO.N,Net-(D_D0-A)*%
X167632714Y-91279287D03*
%TD*%
D12*
%TO.P,D_C5,1,K*%
%TO.N,rowC*%
X139071728Y-93319287D03*
%TO.P,D_C5,2,A*%
%TO.N,Net-(D_C5-A)*%
X135612714Y-92520711D03*
%TD*%
%TO.P,D_C4,1,K*%
%TO.N,rowC*%
X122421728Y-85139287D03*
%TO.P,D_C4,2,A*%
%TO.N,Net-(D_C4-A)*%
X118962714Y-84340711D03*
%TD*%
%TO.P,D_C3,1,K*%
%TO.N,rowC*%
X105751728Y-76909287D03*
%TO.P,D_C3,2,A*%
%TO.N,Net-(D_C3-A)*%
X102292714Y-76110711D03*
%TD*%
%TO.P,D_C2,1,K*%
%TO.N,rowC*%
X87291728Y-77189287D03*
%TO.P,D_C2,2,A*%
%TO.N,Net-(D_C2-A)*%
X83832714Y-76390711D03*
%TD*%
%TO.P,D_C1,1,K*%
%TO.N,rowC*%
X68561728Y-78369287D03*
%TO.P,D_C1,2,A*%
%TO.N,Net-(D_C1-A)*%
X65102714Y-77570711D03*
%TD*%
%TO.P,D_C0,1,K*%
%TO.N,rowC*%
X50201728Y-78129287D03*
%TO.P,D_C0,2,A*%
%TO.N,Net-(D_C0-A)*%
X46742714Y-77330711D03*
%TD*%
D13*
%TO.P,D_B5,1,K*%
%TO.N,rowB*%
X256061728Y-57610711D03*
%TO.P,D_B5,2,A*%
%TO.N,Net-(D_B5-A)*%
X252602714Y-58409287D03*
%TD*%
%TO.P,D_B4,1,K*%
%TO.N,rowB*%
X237521728Y-57820711D03*
%TO.P,D_B4,2,A*%
%TO.N,Net-(D_B4-A)*%
X234062714Y-58619287D03*
%TD*%
%TO.P,D_B3,1,K*%
%TO.N,rowB*%
X218981728Y-57750711D03*
%TO.P,D_B3,2,A*%
%TO.N,Net-(D_B3-A)*%
X215522714Y-58549287D03*
%TD*%
%TO.P,D_B2,1,K*%
%TO.N,rowB*%
X200511728Y-57750711D03*
%TO.P,D_B2,2,A*%
%TO.N,Net-(D_B2-A)*%
X197052714Y-58549287D03*
%TD*%
%TO.P,D_B1,1,K*%
%TO.N,rowB*%
X183941728Y-65830711D03*
%TO.P,D_B1,2,A*%
%TO.N,Net-(D_B1-A)*%
X180482714Y-66629287D03*
%TD*%
%TO.P,D_B0,1,K*%
%TO.N,rowB*%
X167231728Y-73900711D03*
%TO.P,D_B0,2,A*%
%TO.N,Net-(D_B0-A)*%
X163772714Y-74699287D03*
%TD*%
D12*
%TO.P,D_A5,1,K*%
%TO.N,rowA*%
X142911728Y-76889287D03*
%TO.P,D_A5,2,A*%
%TO.N,Net-(D_A5-A)*%
X139452714Y-76090711D03*
%TD*%
%TO.P,D_A4,1,K*%
%TO.N,rowA*%
X125961728Y-68709287D03*
%TO.P,D_A4,2,A*%
%TO.N,Net-(D_A4-A)*%
X122502714Y-67910711D03*
%TD*%
%TO.P,D_A3,1,K*%
%TO.N,rowA*%
X109231728Y-61949287D03*
%TO.P,D_A3,2,A*%
%TO.N,Net-(D_A3-A)*%
X105772714Y-61150711D03*
%TD*%
%TO.P,D_A2,1,K*%
%TO.N,rowA*%
X90811728Y-61779287D03*
%TO.P,D_A2,2,A*%
%TO.N,Net-(D_A2-A)*%
X87352714Y-60980711D03*
%TD*%
%TO.P,D_A1,1,K*%
%TO.N,rowA*%
X72491728Y-61689287D03*
%TO.P,D_A1,2,A*%
%TO.N,Net-(D_A1-A)*%
X69032714Y-60890711D03*
%TD*%
%TO.P,D_A0,1,K*%
%TO.N,rowA*%
X53801728Y-61919287D03*
%TO.P,D_A0,2,A*%
%TO.N,Net-(D_A0-A)*%
X50342714Y-61120711D03*
%TD*%
D14*
%TO.P,D_G4,1,K*%
%TO.N,rowG*%
X202387221Y-117279999D03*
%TO.P,D_G4,2,A*%
%TO.N,Net-(D_G4-A)*%
X198837221Y-117279999D03*
%TD*%
D13*
%TO.P,D_G3,1,K*%
%TO.N,rowG*%
X184361728Y-123340711D03*
%TO.P,D_G3,2,A*%
%TO.N,Net-(D_G3-A)*%
X180902714Y-124139287D03*
%TD*%
D14*
%TO.P,D_G2,2,A*%
%TO.N,Net-(D_G2-A)*%
X152527221Y-130089999D03*
%TO.P,D_G2,1,K*%
%TO.N,rowG*%
X156077221Y-130089999D03*
%TD*%
D12*
%TO.P,D_G1,2,A*%
%TO.N,Net-(D_G1-A)*%
X122312714Y-125360711D03*
%TO.P,D_G1,1,K*%
%TO.N,rowG*%
X125771728Y-126159287D03*
%TD*%
D14*
%TO.P,D_G0,2,A*%
%TO.N,Net-(D_G0-A)*%
X104607221Y-117259999D03*
%TO.P,D_G0,1,K*%
%TO.N,rowG*%
X108157221Y-117259999D03*
%TD*%
D13*
%TO.P,D_F5,2,A*%
%TO.N,Net-(D_F5-A)*%
X259972714Y-91629287D03*
%TO.P,D_F5,1,K*%
%TO.N,rowF*%
X263431728Y-90830711D03*
%TD*%
%TO.P,D_F4,1,K*%
%TO.N,rowF*%
X245241728Y-90900711D03*
%TO.P,D_F4,2,A*%
%TO.N,Net-(D_F4-A)*%
X241782714Y-91699287D03*
%TD*%
%TO.P,D_F3,1,K*%
%TO.N,rowF*%
X226781728Y-90900711D03*
%TO.P,D_F3,2,A*%
%TO.N,Net-(D_F3-A)*%
X223322714Y-91699287D03*
%TD*%
%TO.P,D_F2,1,K*%
%TO.N,rowF*%
X208171728Y-90900711D03*
%TO.P,D_F2,2,A*%
%TO.N,Net-(D_F2-A)*%
X204712714Y-91699287D03*
%TD*%
%TO.P,D_F1,1,K*%
%TO.N,rowF*%
X191521728Y-98970711D03*
%TO.P,D_F1,2,A*%
%TO.N,Net-(D_F1-A)*%
X188062714Y-99769287D03*
%TD*%
%TO.P,D_F0,1,K*%
%TO.N,rowF*%
X174881728Y-106980711D03*
%TO.P,D_F0,2,A*%
%TO.N,Net-(D_F0-A)*%
X171422714Y-107779287D03*
%TD*%
D12*
%TO.P,D_E4,1,K*%
%TO.N,rowE*%
X118541728Y-101869287D03*
%TO.P,D_E4,2,A*%
%TO.N,Net-(D_E4-A)*%
X115082714Y-101070711D03*
%TD*%
D15*
%TO.P,SwE3,1,1*%
%TO.N,Net-(D_E3-A)*%
X95033359Y-82975291D03*
D16*
X95558752Y-95258292D03*
%TO.P,SwE3,2,2*%
%TO.N,col3*%
X91159299Y-92087360D03*
D15*
X105792441Y-87717090D03*
%TD*%
%TO.P,SwE2,1,1*%
%TO.N,Net-(D_E2-A)*%
X76559880Y-82975291D03*
D16*
X77085273Y-95258292D03*
%TO.P,SwE2,2,2*%
%TO.N,col2*%
X72685820Y-92087360D03*
D15*
X87318962Y-87717090D03*
%TD*%
%TO.P,SwE1,1,1*%
%TO.N,Net-(D_E1-A)*%
X58086408Y-82975290D03*
D16*
X58611801Y-95258291D03*
%TO.P,SwE1,2,2*%
%TO.N,col1*%
X54212348Y-92087359D03*
D15*
X68845490Y-87717089D03*
%TD*%
%TO.P,SwE0,1,1*%
%TO.N,Net-(D_E0-A)*%
X39612935Y-82975287D03*
D16*
X40138328Y-95258288D03*
%TO.P,SwE0,2,2*%
%TO.N,col0*%
X35738875Y-92087356D03*
D15*
X50372017Y-87717086D03*
%TD*%
D17*
%TO.P,SwD5,2,2*%
%TO.N,col5*%
X260646081Y-67429857D03*
D16*
X249409700Y-77772578D03*
%TO.P,SwD5,1,1*%
%TO.N,Net-(D_D5-A)*%
X254753947Y-78693999D03*
D17*
X248897214Y-67884428D03*
%TD*%
%TO.P,SwD4,1,1*%
%TO.N,Net-(D_D4-A)*%
X230423733Y-67884429D03*
D16*
X236280466Y-78694000D03*
%TO.P,SwD4,2,2*%
%TO.N,col4*%
X230936219Y-77772579D03*
D17*
X242172600Y-67429858D03*
%TD*%
%TO.P,SwD3,1,1*%
%TO.N,Net-(D_D3-A)*%
X211950265Y-67884422D03*
D16*
X217806998Y-78693993D03*
%TO.P,SwD3,2,2*%
%TO.N,col3*%
X212462751Y-77772572D03*
D17*
X223699132Y-67429851D03*
%TD*%
%TO.P,SwD1,1,1*%
%TO.N,Net-(D_D1-A)*%
X176872941Y-75982664D03*
D16*
X182729674Y-86792235D03*
%TO.P,SwD1,2,2*%
%TO.N,col1*%
X177385427Y-85870814D03*
D17*
X188621808Y-75528093D03*
%TD*%
%TO.P,SwD0,1,1*%
%TO.N,Net-(D_D0-A)*%
X160269091Y-84080909D03*
D16*
X166125824Y-94890480D03*
%TO.P,SwD0,2,2*%
%TO.N,col0*%
X160781577Y-93969059D03*
D17*
X172017958Y-83626338D03*
%TD*%
D15*
%TO.P,SwC5,1,1*%
%TO.N,Net-(D_C5-A)*%
X132065222Y-82607469D03*
D16*
X132590615Y-94890470D03*
%TO.P,SwC5,2,2*%
%TO.N,col5*%
X128191162Y-91719538D03*
D15*
X142824304Y-87349268D03*
%TD*%
D17*
%TO.P,SwB0,1,1*%
%TO.N,Net-(D_B0-A)*%
X156444925Y-67516616D03*
D16*
X162301658Y-78326187D03*
%TO.P,SwB0,2,2*%
%TO.N,col0*%
X156957411Y-77404766D03*
D17*
X168193792Y-67062045D03*
%TD*%
%TO.P,SwD2,1,1*%
%TO.N,Net-(D_D2-A)*%
X193476784Y-67884430D03*
D16*
X199333517Y-78694001D03*
%TO.P,SwD2,2,2*%
%TO.N,col2*%
X193989270Y-77772580D03*
D17*
X205225651Y-67429859D03*
%TD*%
D15*
%TO.P,SwC4,1,1*%
%TO.N,Net-(D_C4-A)*%
X115461370Y-74509234D03*
D16*
X115986763Y-86792235D03*
%TO.P,SwC4,2,2*%
%TO.N,col4*%
X111587310Y-83621303D03*
D15*
X126220452Y-79251033D03*
%TD*%
%TO.P,SwC3,1,1*%
%TO.N,Net-(D_C3-A)*%
X98857524Y-66410997D03*
D16*
X99382917Y-78693998D03*
%TO.P,SwC3,2,2*%
%TO.N,col3*%
X94983464Y-75523066D03*
D15*
X109616606Y-71152796D03*
%TD*%
%TO.P,SwC2,1,1*%
%TO.N,Net-(D_C2-A)*%
X80384048Y-66410997D03*
D16*
X80909441Y-78693998D03*
%TO.P,SwC2,2,2*%
%TO.N,col2*%
X76509988Y-75523066D03*
D15*
X91143130Y-71152796D03*
%TD*%
%TO.P,SwC1,1,1*%
%TO.N,Net-(D_C1-A)*%
X61910578Y-66410997D03*
D16*
X62435971Y-78693998D03*
%TO.P,SwC1,2,2*%
%TO.N,col1*%
X58036518Y-75523066D03*
D15*
X72669660Y-71152796D03*
%TD*%
%TO.P,SwC0,1,1*%
%TO.N,Net-(D_C0-A)*%
X43437099Y-66410993D03*
D16*
X43962492Y-78693994D03*
%TO.P,SwC0,2,2*%
%TO.N,col0*%
X39563039Y-75523062D03*
D15*
X54196181Y-71152792D03*
%TD*%
D17*
%TO.P,SwB5,1,1*%
%TO.N,Net-(D_B5-A)*%
X245073040Y-51320135D03*
D16*
X250929773Y-62129706D03*
%TO.P,SwB5,2,2*%
%TO.N,col5*%
X245585526Y-61208285D03*
D17*
X256821907Y-50865564D03*
%TD*%
D15*
%TO.P,SwG1,1,1*%
%TO.N,Net-(D_G1-A)*%
X118824202Y-115471185D03*
D16*
X119349595Y-127754186D03*
%TO.P,SwG1,2,2*%
%TO.N,col1*%
X114950142Y-124583254D03*
D15*
X129583284Y-120212984D03*
%TD*%
D17*
%TO.P,SwB4,1,1*%
%TO.N,Net-(D_B4-A)*%
X226599568Y-51320139D03*
D16*
X232456301Y-62129710D03*
%TO.P,SwB4,2,2*%
%TO.N,col4*%
X227112054Y-61208289D03*
D17*
X238348435Y-50865568D03*
%TD*%
D15*
%TO.P,SwA0,1,1*%
%TO.N,Net-(D_A0-A)*%
X47261275Y-49846701D03*
D16*
X47786668Y-62129702D03*
%TO.P,SwA0,2,2*%
%TO.N,col0*%
X43387215Y-58958770D03*
D15*
X58020357Y-54588500D03*
%TD*%
%TO.P,SwA4,1,1*%
%TO.N,Net-(D_A4-A)*%
X119285543Y-57944945D03*
D16*
X119810936Y-70227946D03*
%TO.P,SwA4,2,2*%
%TO.N,col4*%
X115411483Y-67057014D03*
D15*
X130044625Y-62686744D03*
%TD*%
%TO.P,SwA3,1,1*%
%TO.N,Net-(D_A3-A)*%
X102681689Y-49846710D03*
D16*
X103207082Y-62129711D03*
%TO.P,SwA3,2,2*%
%TO.N,col3*%
X98807629Y-58958779D03*
D15*
X113440771Y-54588509D03*
%TD*%
D17*
%TO.P,SwB1,1,1*%
%TO.N,Net-(D_B1-A)*%
X173048772Y-59418378D03*
D16*
X178905505Y-70227949D03*
%TO.P,SwB1,2,2*%
%TO.N,col1*%
X173561258Y-69306528D03*
D17*
X184797639Y-58963807D03*
%TD*%
%TO.P,SwF0,1,1*%
%TO.N,Net-(D_F0-A)*%
X164093261Y-100645192D03*
D16*
X169949994Y-111454763D03*
%TO.P,SwF0,2,2*%
%TO.N,col0*%
X164605747Y-110533342D03*
D17*
X175842128Y-100190621D03*
%TD*%
D15*
%TO.P,SwA1,1,1*%
%TO.N,Net-(D_A1-A)*%
X65734740Y-49846714D03*
D16*
X66260133Y-62129715D03*
%TO.P,SwA1,2,2*%
%TO.N,col1*%
X61860680Y-58958783D03*
D15*
X76493822Y-54588513D03*
%TD*%
D17*
%TO.P,SwB3,1,1*%
%TO.N,Net-(D_B3-A)*%
X208126101Y-51320139D03*
D16*
X213982834Y-62129710D03*
%TO.P,SwB3,2,2*%
%TO.N,col3*%
X208638587Y-61208289D03*
D17*
X219874968Y-50865568D03*
%TD*%
%TO.P,SwB2,1,1*%
%TO.N,Net-(D_B2-A)*%
X189652622Y-51320139D03*
D16*
X195509355Y-62129710D03*
%TO.P,SwB2,2,2*%
%TO.N,col2*%
X190165108Y-61208289D03*
D17*
X201401489Y-50865568D03*
%TD*%
%TO.P,SwF5,1,1*%
%TO.N,Net-(D_F5-A)*%
X252721378Y-84448724D03*
D16*
X258578111Y-95258295D03*
%TO.P,SwF5,2,2*%
%TO.N,col5*%
X253233864Y-94336874D03*
D17*
X264470245Y-83994153D03*
%TD*%
%TO.P,SwF4,1,1*%
%TO.N,Net-(D_F4-A)*%
X234247905Y-84448720D03*
D16*
X240104638Y-95258291D03*
%TO.P,SwF4,2,2*%
%TO.N,col4*%
X234760391Y-94336870D03*
D17*
X245996772Y-83994149D03*
%TD*%
%TO.P,SwF3,1,1*%
%TO.N,Net-(D_F3-A)*%
X215774431Y-84448722D03*
D16*
X221631164Y-95258293D03*
%TO.P,SwF3,2,2*%
%TO.N,col3*%
X216286917Y-94336872D03*
D17*
X227523298Y-83994151D03*
%TD*%
%TO.P,SwF2,1,1*%
%TO.N,Net-(D_F2-A)*%
X197300956Y-84448721D03*
D16*
X203157689Y-95258292D03*
%TO.P,SwF2,2,2*%
%TO.N,col2*%
X197813442Y-94336871D03*
D17*
X209049823Y-83994150D03*
%TD*%
%TO.P,SwF1,1,1*%
%TO.N,Net-(D_F1-A)*%
X180697107Y-92546953D03*
D16*
X186553840Y-103356524D03*
%TO.P,SwF1,2,2*%
%TO.N,col1*%
X181209593Y-102435103D03*
D17*
X192445974Y-92092382D03*
%TD*%
D18*
%TO.P,SwE5,1,1*%
%TO.N,Net-(D_E5-A)*%
X131946259Y-112240195D03*
D16*
X131420868Y-99957196D03*
%TO.P,SwE5,2,2*%
%TO.N,col5*%
X135820321Y-103128128D03*
D18*
X121187177Y-107498396D03*
%TD*%
D15*
%TO.P,SwE4,1,1*%
%TO.N,Net-(D_E4-A)*%
X111637202Y-91073528D03*
D16*
X112162595Y-103356529D03*
%TO.P,SwE4,2,2*%
%TO.N,col4*%
X107763142Y-100185597D03*
D15*
X122396284Y-95815327D03*
%TD*%
%TO.P,SwA2,1,1*%
%TO.N,Net-(D_A2-A)*%
X84208216Y-49846709D03*
D16*
X84733609Y-62129710D03*
%TO.P,SwA2,2,2*%
%TO.N,col2*%
X80334156Y-58958778D03*
D15*
X94967298Y-54588508D03*
%TD*%
%TO.P,SwA5,1,1*%
%TO.N,Net-(D_A5-A)*%
X135889389Y-66043181D03*
D16*
X136414782Y-78326182D03*
%TO.P,SwA5,2,2*%
%TO.N,col5*%
X132015329Y-75155250D03*
D15*
X146648471Y-70784980D03*
%TD*%
D19*
%TO.P,SwG0,1,1*%
%TO.N,Net-(D_G0-A)*%
X98978165Y-108364959D03*
D16*
X102253166Y-120214960D03*
%TO.P,SwG0,2,2*%
%TO.N,col0*%
X97253166Y-118114960D03*
D19*
X110528165Y-110564959D03*
%TD*%
D17*
%TO.P,SwG3,1,1*%
%TO.N,Net-(D_G3-A)*%
X173510114Y-116944619D03*
D16*
X179366847Y-127754190D03*
%TO.P,SwG3,2,2*%
%TO.N,col3*%
X174022600Y-126832769D03*
D17*
X185258981Y-116490048D03*
%TD*%
D19*
%TO.P,SwG4,1,1*%
%TO.N,Net-(D_G4-A)*%
X193188274Y-108364958D03*
D16*
X196463275Y-120214959D03*
%TO.P,SwG4,2,2*%
%TO.N,col4*%
X191463275Y-118114959D03*
D19*
X204738274Y-110564958D03*
%TD*%
%TO.P,SwG2,1,1*%
%TO.N,Net-(D_G2-A)*%
X146083221Y-118562686D03*
D16*
X149358222Y-130412687D03*
%TO.P,SwG2,2,2*%
%TO.N,col2*%
X144358222Y-128312687D03*
D19*
X157633221Y-120762686D03*
%TD*%
D20*
%TO.P,U1,1,TX0/PD3*%
%TO.N,unconnected-(U1-TX0{slash}PD3-Pad1)*%
X137287077Y-39588302D03*
D21*
%TO.P,U1,2,RX1/PD2*%
%TO.N,unconnected-(U1-RX1{slash}PD2-Pad2)*%
X139761978Y-40159679D03*
%TO.P,U1,3,GND*%
%TO.N,unconnected-(U1-GND-Pad3)*%
X142236878Y-40731054D03*
%TO.P,U1,4,GND*%
%TO.N,unconnected-(U1-GND-Pad4)*%
X144711778Y-41302430D03*
%TO.P,U1,5,2/PD1*%
%TO.N,SDA*%
X147186678Y-41873806D03*
%TO.P,U1,6,3/PD0*%
%TO.N,SCL*%
X149661578Y-42445181D03*
%TO.P,U1,7,4/PD4*%
%TO.N,col0*%
X152136478Y-43016557D03*
%TO.P,U1,8,5/PC6*%
%TO.N,col1*%
X154611378Y-43587933D03*
%TO.P,U1,9,6/PD7*%
%TO.N,col2*%
X157086278Y-44159308D03*
%TO.P,U1,10,7/PE6*%
%TO.N,col3*%
X159561178Y-44730684D03*
%TO.P,U1,11,8/PB4*%
%TO.N,col4*%
X162036078Y-45302060D03*
%TO.P,U1,12,9/PB5*%
%TO.N,col5*%
X164510978Y-45873435D03*
%TO.P,U1,13,10/PB6*%
%TO.N,unconnected-(U1-10{slash}PB6-Pad13)*%
X161082724Y-60722835D03*
%TO.P,U1,14,16/PB2*%
%TO.N,rowB*%
X158607824Y-60151460D03*
%TO.P,U1,15,14/PB3*%
%TO.N,rowD*%
X156132924Y-59580084D03*
%TO.P,U1,16,15/PB1*%
%TO.N,rowF*%
X153658024Y-59008708D03*
%TO.P,U1,17,A0/PF7*%
%TO.N,rowG*%
X151183124Y-58437333D03*
%TO.P,U1,18,A1/PF6*%
%TO.N,rowE*%
X148708224Y-57865957D03*
%TO.P,U1,19,A2/PF5*%
%TO.N,rowC*%
X146233324Y-57294581D03*
%TO.P,U1,20,A3/PF4*%
%TO.N,rowA*%
X143758424Y-56723205D03*
%TO.P,U1,21,VCC*%
%TO.N,VCC*%
X141283524Y-56151830D03*
%TO.P,U1,22,RST*%
%TO.N,RST*%
X138808624Y-55580454D03*
%TO.P,U1,23,GND*%
%TO.N,GND*%
X136333724Y-55009078D03*
%TO.P,U1,24*%
%TO.N,unconnected-(U1-Pad24)*%
X133858824Y-54437703D03*
%TD*%
D22*
%TO.N,GND*%
X159402222Y-57760000D03*
X152412222Y-56180000D03*
X166502222Y-53900000D03*
%TO.N,RST*%
X162952222Y-53740000D03*
%TO.N,GND*%
X134382222Y-63630000D03*
X142572222Y-82450000D03*
X133642222Y-78250000D03*
%TO.N,SDA*%
X147932222Y-87360000D03*
X145582222Y-61840000D03*
%TO.N,SCL*%
X146282222Y-62850000D03*
%TO.N,VCC*%
X146862222Y-65300000D03*
X142662222Y-58560000D03*
%TO.N,rowE*%
X125176086Y-95416136D03*
%TO.N,rowC*%
X128942222Y-75340000D03*
%TO.N,col5*%
X155192222Y-53260000D03*
X161862222Y-49140000D03*
%TO.N,col4*%
X145062222Y-46340000D03*
%TO.N,col3*%
X146012222Y-45780000D03*
X111392222Y-63030000D03*
%TO.N,col2*%
X93082222Y-63100000D03*
%TO.N,col1*%
X74522222Y-63050000D03*
%TO.N,col4*%
X181432222Y-110240000D03*
%TO.N,col2*%
X157633222Y-120762687D03*
%TO.N,col1*%
X129583285Y-120212985D03*
%TO.N,col0*%
X110528166Y-110564960D03*
%TO.N,col5*%
X121187178Y-107498397D03*
X142824305Y-87349269D03*
X146648472Y-70784981D03*
%TO.N,col4*%
X122396285Y-95815328D03*
X126220453Y-79251034D03*
X130044626Y-62686745D03*
%TO.N,col3*%
X113440772Y-54588510D03*
X109616607Y-71152797D03*
X105792442Y-87717091D03*
%TO.N,col2*%
X87318963Y-87717091D03*
X91143131Y-71152797D03*
X94967299Y-54588509D03*
%TO.N,col1*%
X76493823Y-54588514D03*
X72669661Y-71152797D03*
X68845491Y-87717090D03*
%TO.N,col0*%
X50372018Y-87717087D03*
X54196182Y-71152793D03*
X58020358Y-54588501D03*
%TO.N,col1*%
X192445975Y-92092383D03*
X188621809Y-75528094D03*
%TO.N,col3*%
X185258982Y-116490049D03*
%TO.N,col4*%
X204738275Y-110564959D03*
%TO.N,col0*%
X175842129Y-100190622D03*
X172017959Y-83626339D03*
X168193793Y-67062046D03*
%TO.N,col1*%
X184797640Y-58963808D03*
%TO.N,col2*%
X201401490Y-50865569D03*
X205225652Y-67429860D03*
X209049824Y-83994151D03*
%TO.N,col3*%
X227523299Y-83994152D03*
X223699133Y-67429852D03*
X219874969Y-50865569D03*
%TO.N,col4*%
X238348436Y-50865569D03*
X242172601Y-67429859D03*
X245996773Y-83994150D03*
%TO.N,col5*%
X264470246Y-83994154D03*
X260646082Y-67429858D03*
X256821908Y-50865565D03*
%TD*%
D23*
%TO.N,GND*%
X174942222Y-49280000D02*
X166502222Y-53900000D01*
X159402222Y-57760000D02*
X152412222Y-56180000D01*
%TO.N,RST*%
X162952222Y-53740000D02*
X171482222Y-48440000D01*
X171482222Y-48440000D02*
X172765519Y-48788909D01*
%TO.N,GND*%
X179098925Y-50251091D02*
X174942222Y-49280000D01*
X133232222Y-68970000D02*
X134862222Y-71680000D01*
X145552222Y-87390000D02*
X144274222Y-93714219D01*
X134382222Y-63630000D02*
X133232222Y-68970000D01*
X134862222Y-71680000D02*
X133642222Y-78250000D01*
X142572222Y-82450000D02*
X145552222Y-87390000D01*
%TO.N,SDA*%
X147932222Y-87360000D02*
X151894222Y-93714219D01*
X144292222Y-59630000D02*
X145582222Y-61840000D01*
X147186678Y-41873806D02*
X148532222Y-44000000D01*
X148532222Y-44000000D02*
X144292222Y-59630000D01*
%TO.N,SCL*%
X146712222Y-55720000D02*
X147592222Y-57120000D01*
X147592222Y-57120000D02*
X146282222Y-62850000D01*
X149661578Y-42445181D02*
X146712222Y-55720000D01*
%TO.N,VCC*%
X142662222Y-58560000D02*
X146862222Y-65300000D01*
%TO.N,rowE*%
X125176086Y-95416136D02*
X128782222Y-101270000D01*
X128782222Y-101270000D02*
X128561729Y-102219288D01*
%TO.N,rowC*%
X122421729Y-85139288D02*
X127552222Y-81850000D01*
X127552222Y-81850000D02*
X128942222Y-75340000D01*
%TO.N,rowA*%
X127972222Y-66540000D02*
X127712222Y-67610000D01*
X143758424Y-56723205D02*
X127972222Y-66540000D01*
X127712222Y-67610000D02*
X125961729Y-68709288D01*
%TO.N,col5*%
X146648472Y-70784981D02*
X149352222Y-59450000D01*
X149352222Y-59450000D02*
X149722222Y-59220000D01*
X149722222Y-59220000D02*
X150372222Y-56350000D01*
X150372222Y-56350000D02*
X155192222Y-53260000D01*
X161862222Y-49140000D02*
X164082222Y-47690000D01*
X164082222Y-47690000D02*
X164510978Y-45873435D01*
%TO.N,col4*%
X132302222Y-52950000D02*
X143182222Y-45900000D01*
X143182222Y-45900000D02*
X145062222Y-46340000D01*
X130044626Y-62686745D02*
X132302222Y-52950000D01*
%TO.N,col3*%
X127442222Y-55320000D02*
X143372222Y-45180000D01*
X113440772Y-54588510D02*
X116032222Y-52910000D01*
X116032222Y-52910000D02*
X127442222Y-55320000D01*
X143372222Y-45180000D02*
X146012222Y-45780000D01*
%TO.N,Net-(D_C1-A)*%
X65102715Y-77570712D02*
X64272222Y-77370000D01*
X64272222Y-77370000D02*
X62435971Y-78693998D01*
X61910579Y-66410998D02*
X64862222Y-71070000D01*
X64862222Y-71070000D02*
X65732222Y-71290000D01*
X65732222Y-71290000D02*
X66422222Y-72480000D01*
X66422222Y-72480000D02*
X65102715Y-77570712D01*
%TO.N,Net-(D_E1-A)*%
X61542715Y-93420712D02*
X58611801Y-95258291D01*
X62592222Y-88720000D02*
X61542715Y-93420712D01*
X58086409Y-82975291D02*
X60762222Y-87350000D01*
X61902222Y-87640000D02*
X62592222Y-88720000D01*
X60762222Y-87350000D02*
X61902222Y-87640000D01*
%TO.N,Net-(D_E2-A)*%
X79682715Y-94290712D02*
X78782222Y-94080000D01*
X78782222Y-94080000D02*
X77085273Y-95258292D01*
X80272222Y-87820000D02*
X80932222Y-88820000D01*
X80932222Y-88820000D02*
X79682715Y-94290712D01*
%TO.N,Net-(D_E3-A)*%
X99382222Y-88630000D02*
X98322222Y-93280000D01*
%TO.N,rowG*%
X202387222Y-117280000D02*
X198111263Y-121555959D01*
X198111263Y-121555959D02*
X186146482Y-121555959D01*
X186146482Y-121555959D02*
X184361729Y-123340712D01*
%TO.N,Net-(D_G4-A)*%
X193188275Y-108364959D02*
X193468274Y-108364959D01*
X193468274Y-108364959D02*
X198837222Y-113733907D01*
X198837222Y-113733907D02*
X198837222Y-117280000D01*
X196463275Y-120214959D02*
X198837222Y-117841012D01*
X198837222Y-117841012D02*
X198837222Y-117280000D01*
%TO.N,Net-(D_G0-A)*%
X98978166Y-108364960D02*
X99258165Y-108364960D01*
X99258165Y-108364960D02*
X104607222Y-113714017D01*
X104607222Y-113714017D02*
X104607222Y-117260000D01*
X102253166Y-120214960D02*
X104607222Y-117860904D01*
X104607222Y-117860904D02*
X104607222Y-117260000D01*
%TO.N,rowG*%
X115222222Y-128570000D02*
X120202222Y-129660000D01*
X108157222Y-117260000D02*
X115222222Y-128570000D01*
X120202222Y-129660000D02*
X125771729Y-126159288D01*
%TO.N,rowA*%
X113902222Y-64850000D02*
X113132222Y-68190000D01*
X110622222Y-61180000D02*
X111882222Y-61510000D01*
X109231729Y-61949288D02*
X110622222Y-61180000D01*
X111882222Y-61510000D02*
X113902222Y-64850000D01*
X113132222Y-68190000D02*
X114952222Y-71110000D01*
%TO.N,col3*%
X109616607Y-71152797D02*
X111392222Y-63030000D01*
%TO.N,col2*%
X91143131Y-71152797D02*
X93082222Y-63100000D01*
%TO.N,col1*%
X72669661Y-71152797D02*
X74522222Y-63050000D01*
%TO.N,Net-(D_A2-A)*%
X87352715Y-60980712D02*
X86732222Y-60830000D01*
X86732222Y-60830000D02*
X84733609Y-62129710D01*
X84208217Y-49846710D02*
X87032222Y-54380000D01*
X87032222Y-54380000D02*
X87842222Y-54590000D01*
X87842222Y-54590000D02*
X88572222Y-55740000D01*
X88572222Y-55740000D02*
X87352715Y-60980712D01*
%TO.N,rowA*%
X125961729Y-68709288D02*
X132542222Y-79240000D01*
X132542222Y-79240000D02*
X137522222Y-80360000D01*
X137522222Y-80360000D02*
X142911729Y-76889288D01*
X114952222Y-71110000D02*
X120232222Y-72310000D01*
X120232222Y-72310000D02*
X125961729Y-68709288D01*
X90811729Y-61779288D02*
X104492222Y-64900000D01*
X104492222Y-64900000D02*
X109231729Y-61949288D01*
X72491729Y-61689288D02*
X86032222Y-64780000D01*
X86032222Y-64780000D02*
X90811729Y-61779288D01*
X53801729Y-61919288D02*
X67172222Y-65010000D01*
X67172222Y-65010000D02*
X72491729Y-61689288D01*
%TO.N,Net-(D_A3-A)*%
X103207082Y-62129711D02*
X104942222Y-61010000D01*
X104942222Y-61010000D02*
X105772715Y-61150712D01*
X102681690Y-49846711D02*
X105362222Y-54350000D01*
X105362222Y-54350000D02*
X106552222Y-54610000D01*
X106552222Y-54610000D02*
X107152222Y-55560000D01*
X107152222Y-55560000D02*
X105772715Y-61150712D01*
%TO.N,Net-(D_A1-A)*%
X66260133Y-62129715D02*
X68172222Y-60750000D01*
X68172222Y-60750000D02*
X69032715Y-60890712D01*
X65734741Y-49846715D02*
X68642222Y-54180000D01*
X68642222Y-54180000D02*
X69492222Y-54430000D01*
X69492222Y-54430000D02*
X70192222Y-55570000D01*
X70192222Y-55570000D02*
X69032715Y-60890712D01*
%TO.N,Net-(D_A0-A)*%
X50342715Y-61120712D02*
X47786668Y-62129702D01*
X47261276Y-49846702D02*
X49582222Y-53700000D01*
X49582222Y-53700000D02*
X51072222Y-54020000D01*
X51072222Y-54020000D02*
X51792222Y-55350000D01*
X51792222Y-55350000D02*
X50342715Y-61120712D01*
%TO.N,rowC*%
X129372222Y-96150000D02*
X132982222Y-97060000D01*
X122421729Y-85139288D02*
X129372222Y-96150000D01*
X132982222Y-97060000D02*
X139071729Y-93319288D01*
X105751729Y-76909288D02*
X112772222Y-88260000D01*
X112772222Y-88260000D02*
X116142222Y-89000000D01*
X116142222Y-89000000D02*
X122421729Y-85139288D01*
X87291729Y-77189288D02*
X100212222Y-80290000D01*
X100212222Y-80290000D02*
X105751729Y-76909288D01*
X68561729Y-78369288D02*
X80802222Y-81210000D01*
X80802222Y-81210000D02*
X87291729Y-77189288D01*
%TO.N,Net-(D_C0-A)*%
X43962492Y-78693994D02*
X45992222Y-77220000D01*
X45992222Y-77220000D02*
X46742715Y-77330712D01*
X47982222Y-72230000D02*
X46902222Y-76880000D01*
%TO.N,rowC*%
X50201729Y-78129288D02*
X63982222Y-81270000D01*
X63982222Y-81270000D02*
X68561729Y-78369288D01*
%TO.N,rowE*%
X122552222Y-99580000D02*
X127562222Y-100590000D01*
X118541729Y-101869288D02*
X122552222Y-99580000D01*
X127562222Y-100590000D02*
X128561729Y-102219288D01*
%TO.N,Net-(D_E5-A)*%
X127772222Y-103870000D02*
X126682222Y-101710000D01*
X130862222Y-102510000D02*
X128572222Y-104030000D01*
X131420868Y-99957196D02*
X130862222Y-102510000D01*
X126682222Y-101710000D02*
X125102715Y-101420712D01*
X128572222Y-104030000D02*
X127772222Y-103870000D01*
%TO.N,rowE*%
X107562222Y-104310000D02*
X112792222Y-105490000D01*
X112792222Y-105490000D02*
X118541729Y-101869288D01*
X101731729Y-94889288D02*
X107562222Y-104310000D01*
X83141729Y-95089288D02*
X96432222Y-98230000D01*
X96432222Y-98230000D02*
X101731729Y-94889288D01*
X65001729Y-94219288D02*
X79202222Y-97670000D01*
X79202222Y-97670000D02*
X83141729Y-95089288D01*
X46441729Y-93739288D02*
X60342222Y-97110000D01*
X60342222Y-97110000D02*
X65001729Y-94219288D01*
%TO.N,Net-(D_C0-A)*%
X43437100Y-66410994D02*
X46132222Y-70840000D01*
X47302222Y-71080000D02*
X47982222Y-72230000D01*
X46132222Y-70840000D02*
X47302222Y-71080000D01*
%TO.N,Net-(D_E0-A)*%
X43432222Y-87340000D02*
X44072222Y-88320000D01*
X39612936Y-82975288D02*
X42112222Y-87050000D01*
X42112222Y-87050000D02*
X43432222Y-87340000D01*
X44072222Y-88320000D02*
X42982715Y-92940712D01*
%TO.N,Net-(D_C2-A)*%
X84052222Y-70750000D02*
X84852222Y-71930000D01*
X84852222Y-71930000D02*
X83832715Y-76390712D01*
X80384049Y-66410998D02*
X82872222Y-70520000D01*
X82872222Y-70520000D02*
X84052222Y-70750000D01*
%TO.N,Net-(D_C3-A)*%
X102412222Y-70960000D02*
X103242222Y-72110000D01*
X98857525Y-66410998D02*
X101422222Y-70720000D01*
X103242222Y-72110000D02*
X102292715Y-76110712D01*
X101422222Y-70720000D02*
X102412222Y-70960000D01*
%TO.N,Net-(D_E2-A)*%
X76559881Y-82975292D02*
X79322222Y-87610000D01*
X79322222Y-87610000D02*
X80272222Y-87820000D01*
%TO.N,Net-(D_E3-A)*%
X98402222Y-87060000D02*
X99382222Y-88630000D01*
X95033360Y-82975292D02*
X97482222Y-86870000D01*
X97482222Y-86870000D02*
X98402222Y-87060000D01*
%TO.N,Net-(D_C4-A)*%
X115461371Y-74509235D02*
X117922222Y-78570000D01*
X119072222Y-78870000D02*
X119912222Y-80240000D01*
X117922222Y-78570000D02*
X119072222Y-78870000D01*
X119912222Y-80240000D02*
X118962715Y-84340712D01*
%TO.N,Net-(D_E4-A)*%
X111637203Y-91073529D02*
X114422222Y-95670000D01*
X115342222Y-95960000D02*
X116052222Y-97020000D01*
X114422222Y-95670000D02*
X115342222Y-95960000D01*
X116052222Y-97020000D02*
X115082715Y-101070712D01*
%TO.N,Net-(D_G1-A)*%
X122182222Y-119610000D02*
X123192222Y-121220000D01*
X118824203Y-115471186D02*
X121302222Y-119390000D01*
X123192222Y-121220000D02*
X122312715Y-125360712D01*
X121302222Y-119390000D02*
X122182222Y-119610000D01*
X122312715Y-125360712D02*
X122172222Y-125950000D01*
X122172222Y-125950000D02*
X119349595Y-127754186D01*
%TO.N,Net-(D_E5-A)*%
X126262222Y-105530000D02*
X126662222Y-103750000D01*
X129962222Y-109330000D02*
X128702222Y-109050000D01*
X131946260Y-112240196D02*
X129962222Y-109330000D01*
X128702222Y-109050000D02*
X126262222Y-105530000D01*
X126662222Y-103750000D02*
X125102715Y-101420712D01*
%TO.N,Net-(D_C5-A)*%
X135742222Y-87350000D02*
X136532222Y-88630000D01*
X132065223Y-82607470D02*
X134862222Y-87090000D01*
X134862222Y-87090000D02*
X135742222Y-87350000D01*
X136532222Y-88630000D02*
X135612715Y-92520712D01*
%TO.N,Net-(D_A5-A)*%
X139692222Y-70610000D02*
X140402222Y-71850000D01*
X135889390Y-66043182D02*
X138582222Y-70320000D01*
X138582222Y-70320000D02*
X139692222Y-70610000D01*
X140402222Y-71850000D02*
X139452715Y-76090712D01*
%TO.N,Net-(D_A4-A)*%
X122732222Y-62300000D02*
X123552222Y-63600000D01*
X119285544Y-57944946D02*
X121742222Y-62030000D01*
X121742222Y-62030000D02*
X122732222Y-62300000D01*
X123552222Y-63600000D02*
X122502715Y-67910712D01*
%TO.N,Net-(D_C2-A)*%
X83832715Y-76390712D02*
X83732222Y-76830000D01*
X83732222Y-76830000D02*
X80909441Y-78693998D01*
%TO.N,Net-(D_C3-A)*%
X102292715Y-76110712D02*
X102152222Y-76780000D01*
X102152222Y-76780000D02*
X99382917Y-78693998D01*
%TO.N,Net-(D_C4-A)*%
X118962715Y-84340712D02*
X118842222Y-84870000D01*
X118842222Y-84870000D02*
X115986763Y-86792235D01*
%TO.N,Net-(D_A4-A)*%
X122502715Y-67910712D02*
X122322222Y-68660000D01*
X122322222Y-68660000D02*
X119810936Y-70227946D01*
%TO.N,Net-(D_A5-A)*%
X139452715Y-76090712D02*
X139362222Y-76500000D01*
X139362222Y-76500000D02*
X136414782Y-78326182D01*
%TO.N,Net-(D_C5-A)*%
X135612715Y-92520712D02*
X135512222Y-93000000D01*
X135512222Y-93000000D02*
X132590615Y-94890470D01*
%TO.N,Net-(D_E4-A)*%
X115082715Y-101070712D02*
X114972222Y-101580000D01*
X114972222Y-101580000D02*
X112162595Y-103356529D01*
%TO.N,Net-(D_E0-A)*%
X42982715Y-92940712D02*
X42872222Y-93430000D01*
X42872222Y-93430000D02*
X40138328Y-95258288D01*
%TO.N,Net-(D_G2-A)*%
X149358222Y-130412687D02*
X152204535Y-130412687D01*
X152204535Y-130412687D02*
X152527222Y-130090000D01*
X146083222Y-118562687D02*
X146083222Y-127137687D01*
X146083222Y-127137687D02*
X149358222Y-130412687D01*
%TO.N,rowG*%
X184361729Y-123340712D02*
X180952222Y-121250000D01*
X180952222Y-121250000D02*
X179452222Y-114940000D01*
X179452222Y-114940000D02*
X175092222Y-112350000D01*
X175092222Y-112350000D02*
X163872222Y-114940000D01*
X163872222Y-114940000D02*
X163342222Y-114580000D01*
X163342222Y-114580000D02*
X160658535Y-102200000D01*
X160658535Y-102200000D02*
X161242222Y-101310000D01*
X161242222Y-101310000D02*
X160712222Y-99060000D01*
X160712222Y-99060000D02*
X158102222Y-97360000D01*
X158102222Y-97360000D02*
X149902222Y-60710000D01*
X149902222Y-60710000D02*
X151183124Y-58437333D01*
%TO.N,rowF*%
X171542222Y-105030000D02*
X169472222Y-97190000D01*
X168452222Y-96590000D02*
X160592222Y-98340000D01*
X158592222Y-97040000D02*
X151012222Y-63460000D01*
X160592222Y-98340000D02*
X158592222Y-97040000D01*
X169472222Y-97190000D02*
X168452222Y-96590000D01*
X174881729Y-106980712D02*
X171542222Y-105030000D01*
X151012222Y-63460000D02*
X153658024Y-59008708D01*
%TO.N,rowD*%
X156132924Y-59580084D02*
X152102222Y-66140000D01*
X152102222Y-66140000D02*
X155562222Y-81220000D01*
X155562222Y-81220000D02*
X156892222Y-81810000D01*
X156892222Y-81810000D02*
X164232222Y-80160000D01*
X164232222Y-80160000D02*
X166082222Y-81290000D01*
X166082222Y-81290000D02*
X167772222Y-88510000D01*
X167772222Y-88510000D02*
X171091729Y-90480712D01*
%TO.N,rowB*%
X158607824Y-60151460D02*
X159592222Y-64320000D01*
X163992222Y-71930000D02*
X167231729Y-73900712D01*
X162712222Y-66440000D02*
X163992222Y-71930000D01*
X159592222Y-64320000D02*
X162712222Y-66440000D01*
%TO.N,col4*%
X187432222Y-109940000D02*
X186112222Y-109130000D01*
X189112222Y-116760000D02*
X187432222Y-109940000D01*
X191463275Y-118114959D02*
X189112222Y-116760000D01*
X186112222Y-109130000D02*
X181432222Y-110240000D01*
%TO.N,col3*%
X208638587Y-61208289D02*
X204892222Y-58940000D01*
X204892222Y-58940000D02*
X202612222Y-48750000D01*
X202612222Y-48750000D02*
X199622222Y-47020000D01*
X159561178Y-44730684D02*
X161740260Y-54200897D01*
X161740260Y-54200897D02*
X163632222Y-55340000D01*
X163632222Y-55340000D02*
X199622222Y-47020000D01*
%TO.N,col2*%
X190165108Y-61208289D02*
X187032222Y-59230000D01*
X187032222Y-59230000D02*
X186492222Y-56770000D01*
X186492222Y-56770000D02*
X182642222Y-54600000D01*
X182642222Y-54600000D02*
X167112222Y-58060000D01*
X167112222Y-58060000D02*
X159142222Y-53120000D01*
X159142222Y-53120000D02*
X157086278Y-44159308D01*
%TO.N,col1*%
X182562222Y-55120000D02*
X184032222Y-56010000D01*
X156572222Y-52090000D02*
X167012222Y-58570000D01*
X154611378Y-43587933D02*
X156572222Y-52090000D01*
X167012222Y-58570000D02*
X182562222Y-55120000D01*
X184032222Y-56010000D02*
X184797640Y-58963808D01*
%TO.N,col0*%
X166222222Y-58660000D02*
X154032222Y-51110000D01*
X168193793Y-67062046D02*
X166222222Y-58660000D01*
X154032222Y-51110000D02*
X152136478Y-43016557D01*
%TO.N,Net-(D_B2-A)*%
X197052715Y-58549288D02*
X197192222Y-59160000D01*
X197192222Y-59160000D02*
X195509355Y-62129710D01*
%TO.N,Net-(D_D1-A)*%
X184272715Y-83199288D02*
X184432222Y-83930000D01*
X184432222Y-83930000D02*
X182729674Y-86792235D01*
%TO.N,Net-(D_F1-A)*%
X188062715Y-99769288D02*
X188252222Y-100600000D01*
X188252222Y-100600000D02*
X186553840Y-103356524D01*
%TO.N,Net-(D_B0-A)*%
X163772715Y-74699288D02*
X163932222Y-75510000D01*
X163932222Y-75510000D02*
X162301658Y-78326187D01*
%TO.N,Net-(D_B1-A)*%
X180482715Y-66629288D02*
X180632222Y-67410000D01*
X180632222Y-67410000D02*
X178905505Y-70227949D01*
%TO.N,Net-(D_D2-A)*%
X200852715Y-75059288D02*
X201012222Y-75890000D01*
X201012222Y-75890000D02*
X199333517Y-78694001D01*
%TO.N,Net-(D_D3-A)*%
X219452715Y-75129288D02*
X219562222Y-75640000D01*
X219562222Y-75640000D02*
X217806998Y-78693993D01*
%TO.N,Net-(D_B3-A)*%
X215522715Y-58549288D02*
X215672222Y-59290000D01*
X215672222Y-59290000D02*
X213982834Y-62129710D01*
%TO.N,Net-(D_B4-A)*%
X232456301Y-62129710D02*
X234222222Y-59310000D01*
X234222222Y-59310000D02*
X234062715Y-58619288D01*
%TO.N,Net-(D_D4-A)*%
X236280466Y-78694000D02*
X238022222Y-75870000D01*
X238022222Y-75870000D02*
X237852715Y-75129288D01*
%TO.N,Net-(D_B5-A)*%
X250929773Y-62129706D02*
X252802222Y-59260000D01*
X252802222Y-59260000D02*
X252602715Y-58409288D01*
%TO.N,col5*%
X260646082Y-67429858D02*
X264470246Y-83994154D01*
X256821908Y-50865565D02*
X260646082Y-67429858D01*
%TO.N,Net-(D_F0-A)*%
X169949994Y-111454763D02*
X171652222Y-108770000D01*
X171652222Y-108770000D02*
X171422715Y-107779288D01*
%TO.N,Net-(D_D0-A)*%
X166125824Y-94890480D02*
X167812222Y-92040000D01*
X167812222Y-92040000D02*
X167632715Y-91279288D01*
X160269092Y-84080910D02*
X164172222Y-86420000D01*
X165422222Y-86120000D02*
X166582222Y-86980000D01*
X164172222Y-86420000D02*
X165422222Y-86120000D01*
X166582222Y-86980000D02*
X167632715Y-91279288D01*
%TO.N,Net-(D_B0-A)*%
X162002222Y-69860000D02*
X162682222Y-70290000D01*
X162682222Y-70290000D02*
X163772715Y-74699288D01*
X156444926Y-67516617D02*
X160552222Y-70190000D01*
X160552222Y-70190000D02*
X162002222Y-69860000D01*
%TO.N,Net-(D_G3-A)*%
X179366847Y-127754190D02*
X181072222Y-124960000D01*
X181072222Y-124960000D02*
X180902715Y-124139288D01*
X179132222Y-119480000D02*
X179952222Y-120010000D01*
X173510115Y-116944620D02*
X178172222Y-119710000D01*
X178172222Y-119710000D02*
X179132222Y-119480000D01*
X179952222Y-120010000D02*
X180902715Y-124139288D01*
%TO.N,Net-(D_F0-A)*%
X170282222Y-103790000D02*
X170482222Y-103870000D01*
X164093262Y-100645193D02*
X169802222Y-103920000D01*
X169802222Y-103920000D02*
X170282222Y-103790000D01*
X170482222Y-103870000D02*
X171422715Y-107779288D01*
%TO.N,Net-(D_F1-A)*%
X180697108Y-92546954D02*
X185122222Y-95120000D01*
X186282222Y-94840000D02*
X187092222Y-95400000D01*
X185122222Y-95120000D02*
X186282222Y-94840000D01*
X187092222Y-95400000D02*
X188062715Y-99769288D01*
%TO.N,Net-(D_D1-A)*%
X176872942Y-75982665D02*
X181322222Y-78590000D01*
X181322222Y-78590000D02*
X182512222Y-78310000D01*
X182512222Y-78310000D02*
X183172222Y-78660000D01*
X183172222Y-78660000D02*
X184272715Y-83199288D01*
%TO.N,Net-(D_B1-A)*%
X178922222Y-61800000D02*
X179432222Y-62150000D01*
X173048773Y-59418379D02*
X177332222Y-62150000D01*
X177332222Y-62150000D02*
X178922222Y-61800000D01*
X179432222Y-62150000D02*
X180482715Y-66629288D01*
%TO.N,Net-(D_D2-A)*%
X199102222Y-70570000D02*
X199932222Y-71180000D01*
X193476785Y-67884431D02*
X198112222Y-70800000D01*
X198112222Y-70800000D02*
X199102222Y-70570000D01*
X199932222Y-71180000D02*
X200852715Y-75059288D01*
%TO.N,Net-(D_F2-A)*%
X202742222Y-86700000D02*
X203672222Y-87330000D01*
X197300957Y-84448722D02*
X201402222Y-87010000D01*
X201402222Y-87010000D02*
X202742222Y-86700000D01*
X203672222Y-87330000D02*
X204712715Y-91699288D01*
%TO.N,Net-(D_F3-A)*%
X215774432Y-84448723D02*
X219802222Y-86800000D01*
X221192222Y-86470000D02*
X222302222Y-87230000D01*
X219802222Y-86800000D02*
X221192222Y-86470000D01*
X222302222Y-87230000D02*
X223322715Y-91699288D01*
%TO.N,Net-(D_D3-A)*%
X217552222Y-70450000D02*
X218512222Y-71100000D01*
X211950266Y-67884423D02*
X216492222Y-70670000D01*
X218512222Y-71100000D02*
X219452715Y-75129288D01*
X216492222Y-70670000D02*
X217552222Y-70450000D01*
%TO.N,Net-(D_B2-A)*%
X194772222Y-53730000D02*
X196102222Y-54570000D01*
X189652623Y-51320140D02*
X193792222Y-53950000D01*
X193792222Y-53950000D02*
X194772222Y-53730000D01*
X196102222Y-54570000D02*
X197052715Y-58549288D01*
%TO.N,Net-(D_B3-A)*%
X213732222Y-53840000D02*
X214612222Y-54480000D01*
X208126102Y-51320140D02*
X212482222Y-54070000D01*
X214612222Y-54480000D02*
X215522715Y-58549288D01*
X212482222Y-54070000D02*
X213732222Y-53840000D01*
%TO.N,Net-(D_B4-A)*%
X231942222Y-53880000D02*
X233172222Y-54650000D01*
X226599569Y-51320140D02*
X230882222Y-54110000D01*
X230882222Y-54110000D02*
X231942222Y-53880000D01*
X233172222Y-54650000D02*
X234062715Y-58619288D01*
%TO.N,Net-(D_D4-A)*%
X235592222Y-70280000D02*
X236992222Y-71380000D01*
X236992222Y-71380000D02*
X237852715Y-75129288D01*
X230423734Y-67884430D02*
X234692222Y-70450000D01*
X234692222Y-70450000D02*
X235592222Y-70280000D01*
%TO.N,Net-(D_F4-A)*%
X234247906Y-84448721D02*
X240922222Y-88310000D01*
X240922222Y-88310000D02*
X241782715Y-91699288D01*
%TO.N,Net-(D_F5-A)*%
X252721379Y-84448725D02*
X259162222Y-87900000D01*
X259162222Y-87900000D02*
X259972715Y-91629288D01*
%TO.N,Net-(D_B5-A)*%
X245073041Y-51320136D02*
X251882222Y-55130000D01*
X251882222Y-55130000D02*
X252602715Y-58409288D01*
%TO.N,Net-(D_D5-A)*%
X248897215Y-67884429D02*
X255582222Y-71650000D01*
X255582222Y-71650000D02*
X256322715Y-75199288D01*
%TO.N,rowB*%
X179432222Y-73230000D02*
X169782222Y-75460000D01*
X183941729Y-65830712D02*
X179432222Y-73230000D01*
X169782222Y-75460000D02*
X167231729Y-73900712D01*
X196502222Y-64410000D02*
X185452222Y-66870000D01*
X200511729Y-57750712D02*
X196502222Y-64410000D01*
X185452222Y-66870000D02*
X183941729Y-65830712D01*
X215262222Y-63880000D02*
X211552222Y-64760000D01*
X218981729Y-57750712D02*
X215262222Y-63880000D01*
X211552222Y-64760000D02*
X200511729Y-57750712D01*
X232902222Y-65060000D02*
X230892222Y-65450000D01*
X237521729Y-57820712D02*
X232902222Y-65060000D01*
X230892222Y-65450000D02*
X218981729Y-57750712D01*
X251762222Y-64620000D02*
X249142222Y-65240000D01*
X256061729Y-57610712D02*
X251762222Y-64620000D01*
X249142222Y-65240000D02*
X237521729Y-57820712D01*
%TO.N,rowD*%
X183462222Y-89350000D02*
X173092222Y-91750000D01*
X187731729Y-82400712D02*
X183462222Y-89350000D01*
X173092222Y-91750000D02*
X171091729Y-90480712D01*
X199872222Y-81600000D02*
X190192222Y-83860000D01*
X204311729Y-74260712D02*
X199872222Y-81600000D01*
X190192222Y-83860000D02*
X187731729Y-82400712D01*
X218472222Y-81240000D02*
X216072222Y-81740000D01*
X222911729Y-74330712D02*
X218472222Y-81240000D01*
X216072222Y-81740000D02*
X204311729Y-74260712D01*
X237072222Y-80940000D02*
X234122222Y-81640000D01*
X241311729Y-74330712D02*
X237072222Y-80940000D01*
X234122222Y-81640000D02*
X222911729Y-74330712D01*
X255962222Y-80470000D02*
X252252222Y-81310000D01*
X259781729Y-74400712D02*
X255962222Y-80470000D01*
X252252222Y-81310000D02*
X241311729Y-74330712D01*
%TO.N,rowF*%
X186172222Y-107690000D02*
X178772222Y-109340000D01*
X191521729Y-98970712D02*
X186172222Y-107690000D01*
X178772222Y-109340000D02*
X174881729Y-106980712D01*
X203832222Y-97670000D02*
X193322222Y-100120000D01*
X208171729Y-90900712D02*
X203832222Y-97670000D01*
X193322222Y-100120000D02*
X191521729Y-98970712D01*
X222772222Y-97210000D02*
X219572222Y-98110000D01*
X226781729Y-90900712D02*
X222772222Y-97210000D01*
X219572222Y-98110000D02*
X208171729Y-90900712D01*
X240792222Y-98020000D02*
X238792222Y-98520000D01*
X245241729Y-90900712D02*
X240792222Y-98020000D01*
X238792222Y-98520000D02*
X226781729Y-90900712D01*
X262752222Y-95990000D02*
X255622222Y-97710000D01*
X263431729Y-90830712D02*
X264142222Y-93650000D01*
X255622222Y-97710000D02*
X245241729Y-90900712D01*
X264142222Y-93650000D02*
X262752222Y-95990000D01*
%TO.N,Net-(D_F2-A)*%
X203157689Y-95258292D02*
X203157689Y-93254314D01*
X203157689Y-93254314D02*
X204712715Y-91699288D01*
%TO.N,Net-(D_F3-A)*%
X221631164Y-95258293D02*
X221631164Y-93390839D01*
X221631164Y-93390839D02*
X223322715Y-91699288D01*
%TO.N,Net-(D_F4-A)*%
X240104638Y-95258291D02*
X240104638Y-93377365D01*
X240104638Y-93377365D02*
X241782715Y-91699288D01*
%TO.N,Net-(D_D5-A)*%
X254753947Y-78693999D02*
X254753947Y-76768056D01*
X254753947Y-76768056D02*
X256322715Y-75199288D01*
%TO.N,Net-(D_F5-A)*%
X258578111Y-95258295D02*
X258578111Y-93023892D01*
X258578111Y-93023892D02*
X259972715Y-91629288D01*
%TD*%
M02*
