%TF.GenerationSoftware,KiCad,Pcbnew,(7.0.0-0)*%
%TF.CreationDate,2023-05-07T20:22:33+03:00*%
%TF.ProjectId,41_1350_pcb,34315f31-3335-4305-9f70-63622e6b6963,rev?*%
%TF.SameCoordinates,Original*%
%TF.FileFunction,Copper,L1,Top*%
%TF.FilePolarity,Positive*%
%FSLAX46Y46*%
G04 Gerber Fmt 4.6, Leading zero omitted, Abs format (unit mm)*
G04 Created by KiCad (PCBNEW (7.0.0-0)) date 2023-05-07 20:22:33*
%MOMM*%
%LPD*%
G01*
G04 APERTURE LIST*
G04 Aperture macros list*
%AMRotRect*
0 Rectangle, with rotation*
0 The origin of the aperture is its center*
0 $1 length*
0 $2 width*
0 $3 Rotation angle, in degrees counterclockwise*
0 Add horizontal line*
21,1,$1,$2,0,0,$3*%
G04 Aperture macros list end*
%TA.AperFunction,ComponentPad*%
%ADD10C,1.700000*%
%TD*%
%TA.AperFunction,ComponentPad*%
%ADD11C,2.000000*%
%TD*%
%TA.AperFunction,ComponentPad*%
%ADD12C,2.032000*%
%TD*%
%TA.AperFunction,ComponentPad*%
%ADD13RotRect,1.752600X1.752600X347.000000*%
%TD*%
%TA.AperFunction,ComponentPad*%
%ADD14C,1.752600*%
%TD*%
%TA.AperFunction,ViaPad*%
%ADD15C,0.800000*%
%TD*%
%TA.AperFunction,Conductor*%
%ADD16C,0.250000*%
%TD*%
G04 APERTURE END LIST*
D10*
%TO.P,J3,5,Pin_5*%
%TO.N,GND*%
X144274222Y-93714219D03*
%TO.P,J3,4,Pin_4*%
%TO.N,unconnected-(J3-Pin_4-Pad4)*%
X146814222Y-93714219D03*
%TO.P,J3,3,Pin_3*%
%TO.N,SCL*%
X149354222Y-93714219D03*
%TO.P,J3,2,Pin_2*%
%TO.N,SDA*%
X151894222Y-93714219D03*
%TO.P,J3,1,Pin_1*%
%TO.N,VCC*%
X154434222Y-93714219D03*
%TD*%
D11*
%TO.P,RSW1,1,1*%
%TO.N,RST*%
X172765519Y-48788909D03*
%TO.P,RSW1,2,2*%
%TO.N,GND*%
X179098925Y-50251091D03*
%TD*%
D12*
%TO.P,SwE3,1,1*%
%TO.N,Net-(D_E3-A)*%
X95558752Y-95258292D03*
%TO.P,SwE3,2,2*%
%TO.N,col3*%
X91159299Y-92087360D03*
%TD*%
%TO.P,SwE2,1,1*%
%TO.N,Net-(D_E2-A)*%
X77085273Y-95258292D03*
%TO.P,SwE2,2,2*%
%TO.N,col2*%
X72685820Y-92087360D03*
%TD*%
%TO.P,SwE1,1,1*%
%TO.N,Net-(D_E1-A)*%
X58611801Y-95258291D03*
%TO.P,SwE1,2,2*%
%TO.N,col1*%
X54212348Y-92087359D03*
%TD*%
%TO.P,SwE0,1,1*%
%TO.N,Net-(D_E0-A)*%
X40138328Y-95258288D03*
%TO.P,SwE0,2,2*%
%TO.N,col0*%
X35738875Y-92087356D03*
%TD*%
%TO.P,SwD5,2,2*%
%TO.N,col5*%
X249409700Y-77772578D03*
%TO.P,SwD5,1,1*%
%TO.N,Net-(D_D5-A)*%
X254753947Y-78693999D03*
%TD*%
%TO.P,SwD4,1,1*%
%TO.N,Net-(D_D4-A)*%
X236280466Y-78694000D03*
%TO.P,SwD4,2,2*%
%TO.N,col4*%
X230936219Y-77772579D03*
%TD*%
%TO.P,SwD3,1,1*%
%TO.N,Net-(D_D3-A)*%
X217806998Y-78693993D03*
%TO.P,SwD3,2,2*%
%TO.N,col3*%
X212462751Y-77772572D03*
%TD*%
%TO.P,SwD1,1,1*%
%TO.N,Net-(D_D1-A)*%
X182729674Y-86792235D03*
%TO.P,SwD1,2,2*%
%TO.N,col1*%
X177385427Y-85870814D03*
%TD*%
%TO.P,SwD0,1,1*%
%TO.N,Net-(D_D0-A)*%
X166125824Y-94890480D03*
%TO.P,SwD0,2,2*%
%TO.N,col0*%
X160781577Y-93969059D03*
%TD*%
%TO.P,SwC5,1,1*%
%TO.N,Net-(D_C5-A)*%
X132590615Y-94890470D03*
%TO.P,SwC5,2,2*%
%TO.N,col5*%
X128191162Y-91719538D03*
%TD*%
%TO.P,SwB0,1,1*%
%TO.N,Net-(D_B0-A)*%
X162301658Y-78326187D03*
%TO.P,SwB0,2,2*%
%TO.N,col0*%
X156957411Y-77404766D03*
%TD*%
%TO.P,SwD2,1,1*%
%TO.N,Net-(D_D2-A)*%
X199333517Y-78694001D03*
%TO.P,SwD2,2,2*%
%TO.N,col2*%
X193989270Y-77772580D03*
%TD*%
%TO.P,SwC4,1,1*%
%TO.N,Net-(D_C4-A)*%
X115986763Y-86792235D03*
%TO.P,SwC4,2,2*%
%TO.N,col4*%
X111587310Y-83621303D03*
%TD*%
%TO.P,SwC3,1,1*%
%TO.N,Net-(D_C3-A)*%
X99382917Y-78693998D03*
%TO.P,SwC3,2,2*%
%TO.N,col3*%
X94983464Y-75523066D03*
%TD*%
%TO.P,SwC2,1,1*%
%TO.N,Net-(D_C2-A)*%
X80909441Y-78693998D03*
%TO.P,SwC2,2,2*%
%TO.N,col2*%
X76509988Y-75523066D03*
%TD*%
%TO.P,SwC1,1,1*%
%TO.N,Net-(D_C1-A)*%
X62435971Y-78693998D03*
%TO.P,SwC1,2,2*%
%TO.N,col1*%
X58036518Y-75523066D03*
%TD*%
%TO.P,SwC0,1,1*%
%TO.N,Net-(D_C0-A)*%
X43962492Y-78693994D03*
%TO.P,SwC0,2,2*%
%TO.N,col0*%
X39563039Y-75523062D03*
%TD*%
%TO.P,SwB5,1,1*%
%TO.N,Net-(D_B5-A)*%
X250929773Y-62129706D03*
%TO.P,SwB5,2,2*%
%TO.N,col5*%
X245585526Y-61208285D03*
%TD*%
%TO.P,SwG1,1,1*%
%TO.N,Net-(D_G1-A)*%
X119349595Y-127754186D03*
%TO.P,SwG1,2,2*%
%TO.N,col1*%
X114950142Y-124583254D03*
%TD*%
%TO.P,SwB4,1,1*%
%TO.N,Net-(D_B4-A)*%
X232456301Y-62129710D03*
%TO.P,SwB4,2,2*%
%TO.N,col4*%
X227112054Y-61208289D03*
%TD*%
%TO.P,SwA0,1,1*%
%TO.N,Net-(D_A0-A)*%
X47786668Y-62129702D03*
%TO.P,SwA0,2,2*%
%TO.N,col0*%
X43387215Y-58958770D03*
%TD*%
%TO.P,SwA4,1,1*%
%TO.N,Net-(D_A4-A)*%
X119810936Y-70227946D03*
%TO.P,SwA4,2,2*%
%TO.N,col4*%
X115411483Y-67057014D03*
%TD*%
%TO.P,SwA3,1,1*%
%TO.N,Net-(D_A3-A)*%
X103207082Y-62129711D03*
%TO.P,SwA3,2,2*%
%TO.N,col3*%
X98807629Y-58958779D03*
%TD*%
%TO.P,SwB1,1,1*%
%TO.N,Net-(D_B1-A)*%
X178905505Y-70227949D03*
%TO.P,SwB1,2,2*%
%TO.N,col1*%
X173561258Y-69306528D03*
%TD*%
%TO.P,SwF0,1,1*%
%TO.N,Net-(D_F0-A)*%
X169949994Y-111454763D03*
%TO.P,SwF0,2,2*%
%TO.N,col0*%
X164605747Y-110533342D03*
%TD*%
%TO.P,SwA1,1,1*%
%TO.N,Net-(D_A1-A)*%
X66260133Y-62129715D03*
%TO.P,SwA1,2,2*%
%TO.N,col1*%
X61860680Y-58958783D03*
%TD*%
%TO.P,SwB3,1,1*%
%TO.N,Net-(D_B3-A)*%
X213982834Y-62129710D03*
%TO.P,SwB3,2,2*%
%TO.N,col3*%
X208638587Y-61208289D03*
%TD*%
%TO.P,SwB2,1,1*%
%TO.N,Net-(D_B2-A)*%
X195509355Y-62129710D03*
%TO.P,SwB2,2,2*%
%TO.N,col2*%
X190165108Y-61208289D03*
%TD*%
%TO.P,SwF5,1,1*%
%TO.N,Net-(D_F5-A)*%
X258578111Y-95258295D03*
%TO.P,SwF5,2,2*%
%TO.N,col5*%
X253233864Y-94336874D03*
%TD*%
%TO.P,SwF4,1,1*%
%TO.N,Net-(D_F4-A)*%
X240104638Y-95258291D03*
%TO.P,SwF4,2,2*%
%TO.N,col4*%
X234760391Y-94336870D03*
%TD*%
%TO.P,SwF3,1,1*%
%TO.N,Net-(D_F3-A)*%
X221631164Y-95258293D03*
%TO.P,SwF3,2,2*%
%TO.N,col3*%
X216286917Y-94336872D03*
%TD*%
%TO.P,SwF2,1,1*%
%TO.N,Net-(D_F2-A)*%
X203157689Y-95258292D03*
%TO.P,SwF2,2,2*%
%TO.N,col2*%
X197813442Y-94336871D03*
%TD*%
%TO.P,SwF1,1,1*%
%TO.N,Net-(D_F1-A)*%
X186553840Y-103356524D03*
%TO.P,SwF1,2,2*%
%TO.N,col1*%
X181209593Y-102435103D03*
%TD*%
%TO.P,SwE5,1,1*%
%TO.N,Net-(D_E5-A)*%
X131420868Y-99957196D03*
%TO.P,SwE5,2,2*%
%TO.N,col5*%
X135820321Y-103128128D03*
%TD*%
%TO.P,SwE4,1,1*%
%TO.N,Net-(D_E4-A)*%
X112162595Y-103356529D03*
%TO.P,SwE4,2,2*%
%TO.N,col4*%
X107763142Y-100185597D03*
%TD*%
%TO.P,SwA2,1,1*%
%TO.N,Net-(D_A2-A)*%
X84733609Y-62129710D03*
%TO.P,SwA2,2,2*%
%TO.N,col2*%
X80334156Y-58958778D03*
%TD*%
%TO.P,SwA5,1,1*%
%TO.N,Net-(D_A5-A)*%
X136414782Y-78326182D03*
%TO.P,SwA5,2,2*%
%TO.N,col5*%
X132015329Y-75155250D03*
%TD*%
%TO.P,SwG0,1,1*%
%TO.N,Net-(D_G0-A)*%
X102253166Y-120214960D03*
%TO.P,SwG0,2,2*%
%TO.N,col0*%
X97253166Y-118114960D03*
%TD*%
%TO.P,SwG3,1,1*%
%TO.N,Net-(D_G3-A)*%
X179366847Y-127754190D03*
%TO.P,SwG3,2,2*%
%TO.N,col3*%
X174022600Y-126832769D03*
%TD*%
%TO.P,SwG4,1,1*%
%TO.N,Net-(D_G4-A)*%
X196463275Y-120214959D03*
%TO.P,SwG4,2,2*%
%TO.N,col4*%
X191463275Y-118114959D03*
%TD*%
%TO.P,SwG2,1,1*%
%TO.N,Net-(D_G2-A)*%
X149358222Y-130412687D03*
%TO.P,SwG2,2,2*%
%TO.N,col2*%
X144358222Y-128312687D03*
%TD*%
D13*
%TO.P,U1,1,TX0/PD3*%
%TO.N,unconnected-(U1-TX0{slash}PD3-Pad1)*%
X137287077Y-39588302D03*
D14*
%TO.P,U1,2,RX1/PD2*%
%TO.N,unconnected-(U1-RX1{slash}PD2-Pad2)*%
X139761978Y-40159679D03*
%TO.P,U1,3,GND*%
%TO.N,unconnected-(U1-GND-Pad3)*%
X142236878Y-40731054D03*
%TO.P,U1,4,GND*%
%TO.N,unconnected-(U1-GND-Pad4)*%
X144711778Y-41302430D03*
%TO.P,U1,5,2/PD1*%
%TO.N,SDA*%
X147186678Y-41873806D03*
%TO.P,U1,6,3/PD0*%
%TO.N,SCL*%
X149661578Y-42445181D03*
%TO.P,U1,7,4/PD4*%
%TO.N,col0*%
X152136478Y-43016557D03*
%TO.P,U1,8,5/PC6*%
%TO.N,col1*%
X154611378Y-43587933D03*
%TO.P,U1,9,6/PD7*%
%TO.N,col2*%
X157086278Y-44159308D03*
%TO.P,U1,10,7/PE6*%
%TO.N,col3*%
X159561178Y-44730684D03*
%TO.P,U1,11,8/PB4*%
%TO.N,col4*%
X162036078Y-45302060D03*
%TO.P,U1,12,9/PB5*%
%TO.N,col5*%
X164510978Y-45873435D03*
%TO.P,U1,13,10/PB6*%
%TO.N,unconnected-(U1-10{slash}PB6-Pad13)*%
X161082724Y-60722835D03*
%TO.P,U1,14,16/PB2*%
%TO.N,rowB*%
X158607824Y-60151460D03*
%TO.P,U1,15,14/PB3*%
%TO.N,rowD*%
X156132924Y-59580084D03*
%TO.P,U1,16,15/PB1*%
%TO.N,rowF*%
X153658024Y-59008708D03*
%TO.P,U1,17,A0/PF7*%
%TO.N,rowG*%
X151183124Y-58437333D03*
%TO.P,U1,18,A1/PF6*%
%TO.N,rowE*%
X148708224Y-57865957D03*
%TO.P,U1,19,A2/PF5*%
%TO.N,rowC*%
X146233324Y-57294581D03*
%TO.P,U1,20,A3/PF4*%
%TO.N,rowA*%
X143758424Y-56723205D03*
%TO.P,U1,21,VCC*%
%TO.N,VCC*%
X141283524Y-56151830D03*
%TO.P,U1,22,RST*%
%TO.N,RST*%
X138808624Y-55580454D03*
%TO.P,U1,23,GND*%
%TO.N,GND*%
X136333724Y-55009078D03*
%TO.P,U1,24*%
%TO.N,unconnected-(U1-Pad24)*%
X133858824Y-54437703D03*
%TD*%
D15*
%TO.N,GND*%
X159402222Y-57760000D03*
X152412222Y-56180000D03*
X166502222Y-53900000D03*
%TO.N,RST*%
X162952222Y-53740000D03*
%TO.N,GND*%
X134382222Y-63630000D03*
X142572222Y-82450000D03*
X133642222Y-78250000D03*
%TO.N,SDA*%
X147932222Y-87360000D03*
X145582222Y-61840000D03*
%TO.N,SCL*%
X146282222Y-62850000D03*
%TO.N,VCC*%
X146862222Y-65300000D03*
X142662222Y-58560000D03*
%TO.N,rowE*%
X125176086Y-95416136D03*
%TO.N,rowC*%
X128942222Y-75340000D03*
%TO.N,col5*%
X155192222Y-53260000D03*
X161862222Y-49140000D03*
%TO.N,col4*%
X145062222Y-46340000D03*
%TO.N,col3*%
X146012222Y-45780000D03*
X111392222Y-63030000D03*
%TO.N,col2*%
X93082222Y-63100000D03*
%TO.N,col1*%
X74522222Y-63050000D03*
%TO.N,col4*%
X181432222Y-110240000D03*
%TO.N,col2*%
X157633222Y-120762687D03*
%TO.N,col1*%
X129583285Y-120212985D03*
%TO.N,col0*%
X110528166Y-110564960D03*
%TO.N,col5*%
X121187178Y-107498397D03*
X142824305Y-87349269D03*
X146648472Y-70784981D03*
%TO.N,col4*%
X122396285Y-95815328D03*
X126220453Y-79251034D03*
X130044626Y-62686745D03*
%TO.N,col3*%
X113440772Y-54588510D03*
X109616607Y-71152797D03*
X105792442Y-87717091D03*
%TO.N,col2*%
X87318963Y-87717091D03*
X91143131Y-71152797D03*
X94967299Y-54588509D03*
%TO.N,col1*%
X76493823Y-54588514D03*
X72669661Y-71152797D03*
X68845491Y-87717090D03*
%TO.N,col0*%
X50372018Y-87717087D03*
X54196182Y-71152793D03*
X58020358Y-54588501D03*
%TO.N,col1*%
X192445975Y-92092383D03*
X188621809Y-75528094D03*
%TO.N,col3*%
X185258982Y-116490049D03*
%TO.N,col4*%
X204738275Y-110564959D03*
%TO.N,col0*%
X175842129Y-100190622D03*
X172017959Y-83626339D03*
X168193793Y-67062046D03*
%TO.N,col1*%
X184797640Y-58963808D03*
%TO.N,col2*%
X201401490Y-50865569D03*
X205225652Y-67429860D03*
X209049824Y-83994151D03*
%TO.N,col3*%
X227523299Y-83994152D03*
X223699133Y-67429852D03*
X219874969Y-50865569D03*
%TO.N,col4*%
X238348436Y-50865569D03*
X242172601Y-67429859D03*
X245996773Y-83994150D03*
%TO.N,col5*%
X264470246Y-83994154D03*
X260646082Y-67429858D03*
X256821908Y-50865565D03*
%TD*%
D16*
%TO.N,GND*%
X166502222Y-53900000D02*
X159402222Y-57760000D01*
X152412222Y-56180000D02*
X139222222Y-53310000D01*
X139222222Y-53310000D02*
X136333724Y-55009078D01*
%TO.N,RST*%
X162952222Y-53740000D02*
X155862222Y-57880000D01*
X155862222Y-57880000D02*
X140342222Y-54420000D01*
X140342222Y-54420000D02*
X138808624Y-55580454D01*
%TO.N,GND*%
X133642222Y-78250000D02*
X134932222Y-80620000D01*
X136333724Y-55009078D02*
X134382222Y-63630000D01*
X134932222Y-80620000D02*
X142572222Y-82450000D01*
%TO.N,SDA*%
X151002222Y-75470000D02*
X147932222Y-87360000D01*
X145582222Y-61840000D02*
X144592222Y-65470000D01*
X144592222Y-65470000D02*
X151002222Y-75470000D01*
%TO.N,SCL*%
X151892222Y-75100000D02*
X147812222Y-91670000D01*
X145602222Y-65550000D02*
X151892222Y-75100000D01*
X146282222Y-62850000D02*
X145602222Y-65550000D01*
X147812222Y-91670000D02*
X149354222Y-93714219D01*
%TO.N,VCC*%
X141283524Y-56151830D02*
X142662222Y-58560000D01*
X146862222Y-65300000D02*
X152732222Y-74890000D01*
X152732222Y-74890000D02*
X150142222Y-86830000D01*
X150142222Y-86830000D02*
X154434222Y-93714219D01*
%TO.N,rowE*%
X125176086Y-95416136D02*
X131972222Y-66810000D01*
X146242222Y-59330000D02*
X148708224Y-57865957D01*
X131972222Y-66810000D02*
X144622222Y-58980000D01*
X144622222Y-58980000D02*
X146242222Y-59330000D01*
%TO.N,rowC*%
X128942222Y-75340000D02*
X130892222Y-66930000D01*
X130892222Y-66930000D02*
X146233324Y-57294581D01*
%TO.N,col5*%
X155192222Y-53260000D02*
X161862222Y-49140000D01*
%TO.N,col4*%
X145062222Y-46340000D02*
X146872222Y-46780000D01*
X146872222Y-46780000D02*
X147132222Y-46680000D01*
X156332222Y-48820000D02*
X147132222Y-46680000D01*
X162036078Y-45302060D02*
X156332222Y-48820000D01*
%TO.N,col3*%
X146012222Y-45780000D02*
X154742222Y-47820000D01*
X154742222Y-47820000D02*
X159561178Y-44730684D01*
%TO.N,col0*%
X65462222Y-98480000D02*
X51052222Y-95160000D01*
X70362222Y-95340000D02*
X65462222Y-98480000D01*
X51052222Y-95160000D02*
X49302222Y-92450000D01*
X110528166Y-110564960D02*
X106372222Y-103770000D01*
X106372222Y-103770000D02*
X70362222Y-95340000D01*
%TO.N,col3*%
X111392222Y-63030000D02*
X112272222Y-58960000D01*
%TO.N,col2*%
X93082222Y-63100000D02*
X93642222Y-60510000D01*
%TO.N,col1*%
X74522222Y-63050000D02*
X75072222Y-60370000D01*
%TO.N,col5*%
X137472222Y-96160000D02*
X141112222Y-93890000D01*
X135820321Y-103128128D02*
X137472222Y-96160000D01*
X141962222Y-90740000D02*
X141987647Y-90640000D01*
X141987647Y-90640000D02*
X142824305Y-87349269D01*
X141112222Y-93890000D02*
X141987647Y-90640000D01*
X145452222Y-75770000D02*
X145545810Y-75380000D01*
X145545810Y-75380000D02*
X146648472Y-70784981D01*
X142824305Y-87349269D02*
X145545810Y-75380000D01*
%TO.N,col4*%
X128982222Y-67400000D02*
X129004763Y-67300000D01*
X129004763Y-67300000D02*
X130044626Y-62686745D01*
X126220453Y-79251034D02*
X129004763Y-67300000D01*
X125172222Y-83930000D02*
X125199106Y-83810000D01*
X125199106Y-83810000D02*
X126220453Y-79251034D01*
X122396285Y-95815328D02*
X125199106Y-83810000D01*
%TO.N,col3*%
X108172222Y-76830000D02*
X108202752Y-76710000D01*
X108202752Y-76710000D02*
X109616607Y-71152797D01*
X105792442Y-87717091D02*
X108202752Y-76710000D01*
%TO.N,col2*%
X91143131Y-71152797D02*
X89963945Y-76240000D01*
X89963945Y-76240000D02*
X89922222Y-76420000D01*
X87318963Y-87717091D02*
X89963945Y-76240000D01*
%TO.N,col1*%
X68845491Y-87717090D02*
X71412222Y-76220000D01*
%TO.N,col0*%
X53042222Y-76160000D02*
X53072182Y-76030000D01*
X53072182Y-76030000D02*
X54196182Y-71152793D01*
X50372018Y-87717087D02*
X53072182Y-76030000D01*
X60372222Y-62414615D02*
X72702222Y-65260000D01*
X59312222Y-62170000D02*
X60372222Y-62414615D01*
X56932222Y-59170000D02*
X57333608Y-57480000D01*
X57333608Y-57480000D02*
X58020358Y-54588501D01*
X60372222Y-62414615D02*
X57333608Y-57480000D01*
X53252222Y-61210000D02*
X56932222Y-59170000D01*
X55762222Y-64290000D02*
X59312222Y-62170000D01*
%TO.N,col2*%
X141304270Y-47590000D02*
X145508673Y-44892270D01*
X145508673Y-44892270D02*
X152712222Y-46580000D01*
X152712222Y-46580000D02*
X157086278Y-44159308D01*
%TO.N,col0*%
X96782222Y-62100000D02*
X109522222Y-65030000D01*
X54196182Y-71152793D02*
X55762222Y-64290000D01*
X72702222Y-65260000D02*
X77782222Y-62170000D01*
X109522222Y-65030000D02*
X113062222Y-62980000D01*
X113062222Y-62980000D02*
X115212222Y-54500000D01*
X115212222Y-54500000D02*
X117262222Y-53100000D01*
X117262222Y-53100000D02*
X127482222Y-55360000D01*
X91182222Y-65200000D02*
X96782222Y-62100000D01*
X77782222Y-62170000D02*
X91182222Y-65200000D01*
X127482222Y-55360000D02*
X145342222Y-43930000D01*
X145342222Y-43930000D02*
X149242222Y-44810000D01*
X149242222Y-44810000D02*
X152136478Y-43016557D01*
%TO.N,col1*%
X83608073Y-63960966D02*
X83662324Y-63960966D01*
X83592222Y-63945115D02*
X83608073Y-63960966D01*
X117355195Y-53581431D02*
X127582222Y-55860000D01*
X74152222Y-64920000D02*
X77860541Y-62649070D01*
X77860541Y-62649070D02*
X83592222Y-63945115D01*
X72669661Y-71152797D02*
X74152222Y-64920000D01*
X83662324Y-63960966D02*
X91070363Y-65636067D01*
X91070363Y-65636067D02*
X91114325Y-65680029D01*
X91114325Y-65680029D02*
X91264780Y-65680029D01*
X91264780Y-65680029D02*
X91411471Y-65587443D01*
X91411471Y-65587443D02*
X96849354Y-62577186D01*
X96849354Y-62577186D02*
X109612222Y-65550000D01*
X109612222Y-65550000D02*
X113452222Y-63340000D01*
X113452222Y-63340000D02*
X115606584Y-54775604D01*
X115606584Y-54775604D02*
X117355195Y-53581431D01*
X127582222Y-55860000D02*
X145425835Y-44410754D01*
X145425835Y-44410754D02*
X151212222Y-45750000D01*
X151212222Y-45750000D02*
X154611378Y-43587933D01*
%TO.N,col2*%
X127702222Y-56360000D02*
X141304270Y-47590000D01*
X91143131Y-71152797D02*
X92562222Y-65510000D01*
X92562222Y-65510000D02*
X96915855Y-63054721D01*
X96915855Y-63054721D02*
X109691674Y-66030553D01*
X113872222Y-63660000D02*
X116001343Y-55050937D01*
X109691674Y-66030553D02*
X109843369Y-65936174D01*
X109843369Y-65936174D02*
X113872222Y-63660000D01*
X116001343Y-55050937D02*
X117447819Y-54063101D01*
X117447819Y-54063101D02*
X127702222Y-56360000D01*
X89922222Y-76420000D02*
X87202222Y-78060000D01*
X87202222Y-78060000D02*
X76509988Y-75523066D01*
%TO.N,col4*%
X181432222Y-110240000D02*
X180212222Y-109530000D01*
X180212222Y-109530000D02*
X166522222Y-50130000D01*
X166522222Y-50130000D02*
X162672222Y-47690000D01*
X162672222Y-47690000D02*
X162036078Y-45302060D01*
%TO.N,col5*%
X164510978Y-45873435D02*
X175632222Y-52540000D01*
X243152222Y-59860000D02*
X245585526Y-61208285D01*
X175632222Y-52540000D02*
X199392222Y-47050000D01*
X240812222Y-49610000D02*
X243152222Y-59860000D01*
X199392222Y-47050000D02*
X204342222Y-50050000D01*
X217962222Y-46970000D02*
X222502222Y-49830000D01*
X204342222Y-50050000D02*
X217962222Y-46970000D01*
X222502222Y-49830000D02*
X236232222Y-46680000D01*
X236232222Y-46680000D02*
X240812222Y-49610000D01*
%TO.N,col4*%
X206302222Y-103880000D02*
X204782222Y-106500000D01*
X204782222Y-106500000D02*
X204738275Y-110564959D01*
X234760391Y-94336870D02*
X232712222Y-97700000D01*
X232712222Y-97700000D02*
X206302222Y-103880000D01*
%TO.N,col3*%
X185258982Y-116490049D02*
X192972222Y-104110000D01*
X192972222Y-104110000D02*
X213122222Y-99420000D01*
X213122222Y-99420000D02*
X216286917Y-94336872D01*
%TO.N,col0*%
X175842129Y-100190622D02*
X173412222Y-89650000D01*
X172017959Y-83626339D02*
X169602222Y-73440000D01*
%TO.N,col1*%
X188621809Y-75528094D02*
X186052222Y-64670000D01*
X192445975Y-92092383D02*
X189932222Y-81540000D01*
%TO.N,col2*%
X209049824Y-83994151D02*
X206622222Y-73610000D01*
X205225652Y-67429860D02*
X202752222Y-56730000D01*
%TO.N,col3*%
X223699133Y-67429852D02*
X221242222Y-56890000D01*
X227523299Y-83994152D02*
X225242222Y-74040000D01*
%TO.N,col4*%
X245996773Y-83994150D02*
X243432222Y-73430000D01*
X242172601Y-67429859D02*
X239792222Y-56950000D01*
X191463275Y-118114959D02*
X203887263Y-118114959D01*
X203887263Y-118114959D02*
X204738275Y-117263947D01*
X204738275Y-117263947D02*
X204738275Y-110564959D01*
%TO.N,col2*%
X144358222Y-128312687D02*
X157099535Y-128312687D01*
X157099535Y-128312687D02*
X157633222Y-127779000D01*
X157633222Y-127779000D02*
X157633222Y-120762687D01*
%TO.N,col0*%
X97253166Y-118114960D02*
X107847262Y-118114960D01*
X107847262Y-118114960D02*
X110528166Y-115434056D01*
X110528166Y-115434056D02*
X110528166Y-110564960D01*
%TO.N,col5*%
X142302222Y-77600000D02*
X145452222Y-75770000D01*
X132015329Y-75155250D02*
X142302222Y-77600000D01*
X128191162Y-91719538D02*
X136872222Y-93740000D01*
X136872222Y-93740000D02*
X141962222Y-90740000D01*
X135820321Y-103128128D02*
X125822222Y-100950000D01*
X122272222Y-103160000D02*
X121187178Y-107498397D01*
X125822222Y-100950000D02*
X122272222Y-103160000D01*
%TO.N,col1*%
X114950142Y-124583254D02*
X125352222Y-126960000D01*
X125352222Y-126960000D02*
X128502222Y-124970000D01*
X128502222Y-124970000D02*
X129583285Y-120212985D01*
%TO.N,col4*%
X119072222Y-102760000D02*
X121102222Y-101540000D01*
X107763142Y-100185597D02*
X119072222Y-102760000D01*
X121102222Y-101540000D02*
X122396285Y-95815328D01*
X122002222Y-85890000D02*
X125172222Y-83930000D01*
X111587310Y-83621303D02*
X122002222Y-85890000D01*
X125682222Y-69440000D02*
X128982222Y-67400000D01*
X115411483Y-67057014D02*
X125682222Y-69440000D01*
%TO.N,col3*%
X108582222Y-61300000D02*
X112272222Y-58960000D01*
X98807629Y-58958779D02*
X108582222Y-61300000D01*
X112272222Y-58960000D02*
X113440772Y-54588510D01*
X106102222Y-78090000D02*
X108172222Y-76830000D01*
X94983464Y-75523066D02*
X106102222Y-78090000D01*
X91159299Y-92087360D02*
X101562222Y-94380000D01*
X101562222Y-94380000D02*
X104662222Y-92420000D01*
X104662222Y-92420000D02*
X105792442Y-87717091D01*
%TO.N,col2*%
X72685820Y-92087360D02*
X84372222Y-94700000D01*
X85952222Y-93760000D02*
X87318963Y-87717091D01*
X84372222Y-94700000D02*
X85952222Y-93760000D01*
X91682222Y-61590000D02*
X93642222Y-60510000D01*
X80334156Y-58958778D02*
X91682222Y-61590000D01*
X93642222Y-60510000D02*
X94967299Y-54588509D01*
%TO.N,col1*%
X73142222Y-61590000D02*
X75072222Y-60370000D01*
X61860680Y-58958783D02*
X73142222Y-61590000D01*
X75072222Y-60370000D02*
X76493823Y-54588514D01*
X58036518Y-75523066D02*
X68782222Y-77850000D01*
X68782222Y-77850000D02*
X71412222Y-76220000D01*
X71412222Y-76220000D02*
X72669661Y-71152797D01*
X54212348Y-92087359D02*
X65302222Y-94610000D01*
X65302222Y-94610000D02*
X67402222Y-93360000D01*
X67402222Y-93360000D02*
X68845491Y-87717090D01*
%TO.N,col0*%
X35738875Y-92087356D02*
X46112222Y-94550000D01*
X46112222Y-94550000D02*
X49302222Y-92450000D01*
X49302222Y-92450000D02*
X50372018Y-87717087D01*
X49942222Y-77910000D02*
X53042222Y-76160000D01*
X39563039Y-75523062D02*
X49942222Y-77910000D01*
X43387215Y-58958770D02*
X53252222Y-61210000D01*
X168762222Y-74790000D02*
X169602222Y-73440000D01*
X156957411Y-77404766D02*
X168762222Y-74790000D01*
X169602222Y-73440000D02*
X168193793Y-67062046D01*
X172292222Y-91300000D02*
X173412222Y-89650000D01*
X160781577Y-93969059D02*
X172292222Y-91300000D01*
X173412222Y-89650000D02*
X172017959Y-83626339D01*
X176392222Y-107810000D02*
X177272222Y-106450000D01*
X164605747Y-110533342D02*
X176392222Y-107810000D01*
X177272222Y-106450000D02*
X175842129Y-100190622D01*
%TO.N,col1*%
X193102222Y-99680000D02*
X193852222Y-98600000D01*
X181209593Y-102435103D02*
X193102222Y-99680000D01*
X193852222Y-98600000D02*
X192445975Y-92092383D01*
X188912222Y-83210000D02*
X189932222Y-81540000D01*
X177385427Y-85870814D02*
X188912222Y-83210000D01*
X189932222Y-81540000D02*
X188621809Y-75528094D01*
X184792222Y-66720000D02*
X186052222Y-64670000D01*
X173561258Y-69306528D02*
X184792222Y-66720000D01*
X186052222Y-64670000D02*
X184797640Y-58963808D01*
%TO.N,col3*%
X185852222Y-124060000D02*
X186692222Y-122800000D01*
X174022600Y-126832769D02*
X185852222Y-124060000D01*
X186692222Y-122800000D02*
X185258982Y-116490049D01*
%TO.N,col2*%
X197813442Y-94336871D02*
X209902222Y-91540000D01*
X209902222Y-91540000D02*
X210552222Y-90560000D01*
X210552222Y-90560000D02*
X209049824Y-83994151D01*
X193989270Y-77772580D02*
X205692222Y-75060000D01*
X205692222Y-75060000D02*
X206622222Y-73610000D01*
X206622222Y-73610000D02*
X205225652Y-67429860D01*
X190165108Y-61208289D02*
X201592222Y-58650000D01*
X201592222Y-58650000D02*
X202752222Y-56730000D01*
X202752222Y-56730000D02*
X201401490Y-50865569D01*
%TO.N,col3*%
X208638587Y-61208289D02*
X220292222Y-58490000D01*
X220292222Y-58490000D02*
X221242222Y-56890000D01*
X221242222Y-56890000D02*
X219874969Y-50865569D01*
X224612222Y-75010000D02*
X225242222Y-74040000D01*
X212462751Y-77772572D02*
X224612222Y-75010000D01*
X225242222Y-74040000D02*
X223699133Y-67429852D01*
X228102222Y-91590000D02*
X228982222Y-90250000D01*
X216286917Y-94336872D02*
X228102222Y-91590000D01*
X228982222Y-90250000D02*
X227523299Y-83994152D01*
%TO.N,col4*%
X246762222Y-91520000D02*
X247452222Y-90440000D01*
X234760391Y-94336870D02*
X246762222Y-91520000D01*
X247452222Y-90440000D02*
X245996773Y-83994150D01*
X242312222Y-75090000D02*
X243432222Y-73430000D01*
X230936219Y-77772579D02*
X242312222Y-75090000D01*
X243432222Y-73430000D02*
X242172601Y-67429859D01*
X238632222Y-58530000D02*
X239792222Y-56950000D01*
X239792222Y-56950000D02*
X238348436Y-50865569D01*
X227112054Y-61208289D02*
X238632222Y-58530000D01*
%TO.N,col5*%
X264632222Y-91730000D02*
X265852222Y-89830000D01*
X253233864Y-94336874D02*
X264632222Y-91730000D01*
X265852222Y-89830000D02*
X264470246Y-83994154D01*
X261802222Y-74870000D02*
X262202222Y-74350000D01*
X262202222Y-74350000D02*
X260646082Y-67429858D01*
X249409700Y-77772578D02*
X261802222Y-74870000D01*
X258222222Y-57150000D02*
X257412222Y-58520000D01*
X257412222Y-58520000D02*
X256532222Y-58700000D01*
X256821908Y-50865565D02*
X258222222Y-57150000D01*
X245585526Y-61208285D02*
X256532222Y-58700000D01*
%TD*%
M02*
