%TF.GenerationSoftware,KiCad,Pcbnew,(7.0.0-0)*%
%TF.CreationDate,2023-05-07T20:22:33+03:00*%
%TF.ProjectId,41_1350_pcb,34315f31-3335-4305-9f70-63622e6b6963,rev?*%
%TF.SameCoordinates,Original*%
%TF.FileFunction,Paste,Bot*%
%TF.FilePolarity,Positive*%
%FSLAX46Y46*%
G04 Gerber Fmt 4.6, Leading zero omitted, Abs format (unit mm)*
G04 Created by KiCad (PCBNEW (7.0.0-0)) date 2023-05-07 20:22:33*
%MOMM*%
%LPD*%
G01*
G04 APERTURE LIST*
G04 Aperture macros list*
%AMRotRect*
0 Rectangle, with rotation*
0 The origin of the aperture is its center*
0 $1 length*
0 $2 width*
0 $3 Rotation angle, in degrees counterclockwise*
0 Add horizontal line*
21,1,$1,$2,0,0,$3*%
G04 Aperture macros list end*
%ADD10RotRect,1.400000X1.000000X167.000000*%
%ADD11RotRect,1.400000X1.000000X193.000000*%
%ADD12R,1.400000X1.000000*%
%ADD13RotRect,2.600000X2.600000X347.000000*%
%ADD14RotRect,2.600000X2.600000X13.000000*%
%ADD15RotRect,2.600000X2.600000X167.000000*%
%ADD16R,2.600000X2.600000*%
G04 APERTURE END LIST*
D10*
%TO.C,D_E5*%
X128561728Y-102219287D03*
X125102714Y-101420711D03*
%TD*%
%TO.C,D_E3*%
X101731728Y-94889287D03*
X98272714Y-94090711D03*
%TD*%
%TO.C,D_E2*%
X83141728Y-95089287D03*
X79682714Y-94290711D03*
%TD*%
%TO.C,D_E1*%
X65001728Y-94219287D03*
X61542714Y-93420711D03*
%TD*%
%TO.C,D_E0*%
X46441728Y-93739287D03*
X42982714Y-92940711D03*
%TD*%
D11*
%TO.C,D_D5*%
X256322714Y-75199287D03*
X259781728Y-74400711D03*
%TD*%
%TO.C,D_D4*%
X241311728Y-74330711D03*
X237852714Y-75129287D03*
%TD*%
%TO.C,D_D3*%
X222911728Y-74330711D03*
X219452714Y-75129287D03*
%TD*%
%TO.C,D_D2*%
X204311728Y-74260711D03*
X200852714Y-75059287D03*
%TD*%
%TO.C,D_D1*%
X187731728Y-82400711D03*
X184272714Y-83199287D03*
%TD*%
%TO.C,D_D0*%
X171091728Y-90480711D03*
X167632714Y-91279287D03*
%TD*%
D10*
%TO.C,D_C5*%
X139071728Y-93319287D03*
X135612714Y-92520711D03*
%TD*%
%TO.C,D_C4*%
X122421728Y-85139287D03*
X118962714Y-84340711D03*
%TD*%
%TO.C,D_C3*%
X105751728Y-76909287D03*
X102292714Y-76110711D03*
%TD*%
%TO.C,D_C2*%
X87291728Y-77189287D03*
X83832714Y-76390711D03*
%TD*%
%TO.C,D_C1*%
X68561728Y-78369287D03*
X65102714Y-77570711D03*
%TD*%
%TO.C,D_C0*%
X50201728Y-78129287D03*
X46742714Y-77330711D03*
%TD*%
D11*
%TO.C,D_B5*%
X256061728Y-57610711D03*
X252602714Y-58409287D03*
%TD*%
%TO.C,D_B4*%
X237521728Y-57820711D03*
X234062714Y-58619287D03*
%TD*%
%TO.C,D_B3*%
X218981728Y-57750711D03*
X215522714Y-58549287D03*
%TD*%
%TO.C,D_B2*%
X200511728Y-57750711D03*
X197052714Y-58549287D03*
%TD*%
%TO.C,D_B1*%
X183941728Y-65830711D03*
X180482714Y-66629287D03*
%TD*%
%TO.C,D_B0*%
X167231728Y-73900711D03*
X163772714Y-74699287D03*
%TD*%
D10*
%TO.C,D_A5*%
X142911728Y-76889287D03*
X139452714Y-76090711D03*
%TD*%
%TO.C,D_A4*%
X125961728Y-68709287D03*
X122502714Y-67910711D03*
%TD*%
%TO.C,D_A3*%
X109231728Y-61949287D03*
X105772714Y-61150711D03*
%TD*%
%TO.C,D_A2*%
X90811728Y-61779287D03*
X87352714Y-60980711D03*
%TD*%
%TO.C,D_A1*%
X72491728Y-61689287D03*
X69032714Y-60890711D03*
%TD*%
%TO.C,D_A0*%
X53801728Y-61919287D03*
X50342714Y-61120711D03*
%TD*%
D12*
%TO.C,D_G4*%
X202387221Y-117279999D03*
X198837221Y-117279999D03*
%TD*%
D11*
%TO.C,D_G3*%
X184361728Y-123340711D03*
X180902714Y-124139287D03*
%TD*%
D12*
%TO.C,D_G2*%
X152527221Y-130089999D03*
X156077221Y-130089999D03*
%TD*%
D10*
%TO.C,D_G1*%
X122312714Y-125360711D03*
X125771728Y-126159287D03*
%TD*%
D12*
%TO.C,D_G0*%
X104607221Y-117259999D03*
X108157221Y-117259999D03*
%TD*%
D11*
%TO.C,D_F5*%
X259972714Y-91629287D03*
X263431728Y-90830711D03*
%TD*%
%TO.C,D_F4*%
X245241728Y-90900711D03*
X241782714Y-91699287D03*
%TD*%
%TO.C,D_F3*%
X226781728Y-90900711D03*
X223322714Y-91699287D03*
%TD*%
%TO.C,D_F2*%
X208171728Y-90900711D03*
X204712714Y-91699287D03*
%TD*%
%TO.C,D_F1*%
X191521728Y-98970711D03*
X188062714Y-99769287D03*
%TD*%
%TO.C,D_F0*%
X174881728Y-106980711D03*
X171422714Y-107779287D03*
%TD*%
D10*
%TO.C,D_E4*%
X118541728Y-101869287D03*
X115082714Y-101070711D03*
%TD*%
D13*
%TO.C,SwE3*%
X95033359Y-82975291D03*
X105792441Y-87717090D03*
%TD*%
%TO.C,SwE2*%
X76559880Y-82975291D03*
X87318962Y-87717090D03*
%TD*%
%TO.C,SwE1*%
X58086408Y-82975290D03*
X68845490Y-87717089D03*
%TD*%
%TO.C,SwE0*%
X39612935Y-82975287D03*
X50372017Y-87717086D03*
%TD*%
D14*
%TO.C,SwD5*%
X260646081Y-67429857D03*
X248897214Y-67884428D03*
%TD*%
%TO.C,SwD4*%
X230423733Y-67884429D03*
X242172600Y-67429858D03*
%TD*%
%TO.C,SwD3*%
X211950265Y-67884422D03*
X223699132Y-67429851D03*
%TD*%
%TO.C,SwD1*%
X176872941Y-75982664D03*
X188621808Y-75528093D03*
%TD*%
%TO.C,SwD0*%
X160269091Y-84080909D03*
X172017958Y-83626338D03*
%TD*%
D13*
%TO.C,SwC5*%
X132065222Y-82607469D03*
X142824304Y-87349268D03*
%TD*%
D14*
%TO.C,SwB0*%
X156444925Y-67516616D03*
X168193792Y-67062045D03*
%TD*%
%TO.C,SwD2*%
X193476784Y-67884430D03*
X205225651Y-67429859D03*
%TD*%
D13*
%TO.C,SwC4*%
X115461370Y-74509234D03*
X126220452Y-79251033D03*
%TD*%
%TO.C,SwC3*%
X98857524Y-66410997D03*
X109616606Y-71152796D03*
%TD*%
%TO.C,SwC2*%
X80384048Y-66410997D03*
X91143130Y-71152796D03*
%TD*%
%TO.C,SwC1*%
X61910578Y-66410997D03*
X72669660Y-71152796D03*
%TD*%
%TO.C,SwC0*%
X43437099Y-66410993D03*
X54196181Y-71152792D03*
%TD*%
D14*
%TO.C,SwB5*%
X245073040Y-51320135D03*
X256821907Y-50865564D03*
%TD*%
D13*
%TO.C,SwG1*%
X118824202Y-115471185D03*
X129583284Y-120212984D03*
%TD*%
D14*
%TO.C,SwB4*%
X226599568Y-51320139D03*
X238348435Y-50865568D03*
%TD*%
D13*
%TO.C,SwA0*%
X47261275Y-49846701D03*
X58020357Y-54588500D03*
%TD*%
%TO.C,SwA4*%
X119285543Y-57944945D03*
X130044625Y-62686744D03*
%TD*%
%TO.C,SwA3*%
X102681689Y-49846710D03*
X113440771Y-54588509D03*
%TD*%
D14*
%TO.C,SwB1*%
X173048772Y-59418378D03*
X184797639Y-58963807D03*
%TD*%
%TO.C,SwF0*%
X164093261Y-100645192D03*
X175842128Y-100190621D03*
%TD*%
D13*
%TO.C,SwA1*%
X65734740Y-49846714D03*
X76493822Y-54588513D03*
%TD*%
D14*
%TO.C,SwB3*%
X208126101Y-51320139D03*
X219874968Y-50865568D03*
%TD*%
%TO.C,SwB2*%
X189652622Y-51320139D03*
X201401489Y-50865568D03*
%TD*%
%TO.C,SwF5*%
X252721378Y-84448724D03*
X264470245Y-83994153D03*
%TD*%
%TO.C,SwF4*%
X234247905Y-84448720D03*
X245996772Y-83994149D03*
%TD*%
%TO.C,SwF3*%
X215774431Y-84448722D03*
X227523298Y-83994151D03*
%TD*%
%TO.C,SwF2*%
X197300956Y-84448721D03*
X209049823Y-83994150D03*
%TD*%
%TO.C,SwF1*%
X180697107Y-92546953D03*
X192445974Y-92092382D03*
%TD*%
D15*
%TO.C,SwE5*%
X131946259Y-112240195D03*
X121187177Y-107498396D03*
%TD*%
D13*
%TO.C,SwE4*%
X111637202Y-91073528D03*
X122396284Y-95815327D03*
%TD*%
%TO.C,SwA2*%
X84208216Y-49846709D03*
X94967298Y-54588508D03*
%TD*%
%TO.C,SwA5*%
X135889389Y-66043181D03*
X146648471Y-70784980D03*
%TD*%
D16*
%TO.C,SwG0*%
X98978165Y-108364959D03*
X110528165Y-110564959D03*
%TD*%
D14*
%TO.C,SwG3*%
X173510114Y-116944619D03*
X185258981Y-116490048D03*
%TD*%
D16*
%TO.C,SwG4*%
X193188274Y-108364958D03*
X204738274Y-110564958D03*
%TD*%
%TO.C,SwG2*%
X146083221Y-118562686D03*
X157633221Y-120762686D03*
%TD*%
M02*
