%TF.GenerationSoftware,KiCad,Pcbnew,(7.0.0-0)*%
%TF.CreationDate,2023-05-07T20:22:33+03:00*%
%TF.ProjectId,41_1350_pcb,34315f31-3335-4305-9f70-63622e6b6963,rev?*%
%TF.SameCoordinates,Original*%
%TF.FileFunction,Soldermask,Top*%
%TF.FilePolarity,Negative*%
%FSLAX46Y46*%
G04 Gerber Fmt 4.6, Leading zero omitted, Abs format (unit mm)*
G04 Created by KiCad (PCBNEW (7.0.0-0)) date 2023-05-07 20:22:33*
%MOMM*%
%LPD*%
G01*
G04 APERTURE LIST*
G04 Aperture macros list*
%AMRotRect*
0 Rectangle, with rotation*
0 The origin of the aperture is its center*
0 $1 length*
0 $2 width*
0 $3 Rotation angle, in degrees counterclockwise*
0 Add horizontal line*
21,1,$1,$2,0,0,$3*%
G04 Aperture macros list end*
%ADD10C,1.700000*%
%ADD11C,2.000000*%
%ADD12C,1.701800*%
%ADD13C,3.000000*%
%ADD14C,3.429000*%
%ADD15C,2.032000*%
%ADD16RotRect,1.752600X1.752600X347.000000*%
%ADD17C,1.752600*%
G04 APERTURE END LIST*
D10*
%TO.C,J3*%
X144274222Y-93714219D03*
X146814222Y-93714219D03*
X149354222Y-93714219D03*
X151894222Y-93714219D03*
X154434222Y-93714219D03*
%TD*%
D11*
%TO.C,RSW1*%
X172765519Y-48788909D03*
X179098925Y-50251091D03*
%TD*%
D12*
%TO.C,SwE3*%
X91526928Y-88272278D03*
D13*
X98224422Y-83712007D03*
D14*
X96885963Y-89509509D03*
D13*
X102601380Y-86980377D03*
D12*
X102244998Y-90746740D03*
D15*
X95558752Y-95258292D03*
X91159299Y-92087360D03*
%TD*%
D12*
%TO.C,SwE2*%
X73053449Y-88272278D03*
D13*
X79750943Y-83712007D03*
D14*
X78412484Y-89509509D03*
D13*
X84127901Y-86980377D03*
D12*
X83771519Y-90746740D03*
D15*
X77085273Y-95258292D03*
X72685820Y-92087360D03*
%TD*%
D12*
%TO.C,SwE1*%
X54579977Y-88272277D03*
D13*
X61277471Y-83712006D03*
D14*
X59939012Y-89509508D03*
D13*
X65654429Y-86980376D03*
D12*
X65298047Y-90746739D03*
D15*
X58611801Y-95258291D03*
X54212348Y-92087359D03*
%TD*%
D12*
%TO.C,SwE0*%
X36106504Y-88272274D03*
D13*
X42803998Y-83712003D03*
D14*
X41465539Y-89509505D03*
D13*
X47180956Y-86980373D03*
D12*
X46824574Y-90746736D03*
D15*
X40138328Y-95258288D03*
X35738875Y-92087356D03*
%TD*%
%TO.C,SwD5*%
X249409700Y-77772578D03*
X254753947Y-78693999D03*
D12*
X258785771Y-71707985D03*
D13*
X257455020Y-68166573D03*
D14*
X253426736Y-72945216D03*
D13*
X252088277Y-67147714D03*
D12*
X248067701Y-74182447D03*
%TD*%
%TO.C,SwD4*%
X229594220Y-74182448D03*
D13*
X233614796Y-67147715D03*
D14*
X234953255Y-72945217D03*
D13*
X238981539Y-68166574D03*
D12*
X240312290Y-71707986D03*
D15*
X236280466Y-78694000D03*
X230936219Y-77772579D03*
%TD*%
D12*
%TO.C,SwD3*%
X211120752Y-74182441D03*
D13*
X215141328Y-67147708D03*
D14*
X216479787Y-72945210D03*
D13*
X220508071Y-68166567D03*
D12*
X221838822Y-71707979D03*
D15*
X217806998Y-78693993D03*
X212462751Y-77772572D03*
%TD*%
D12*
%TO.C,SwD1*%
X176043428Y-82280683D03*
D13*
X180064004Y-75245950D03*
D14*
X181402463Y-81043452D03*
D13*
X185430747Y-76264809D03*
D12*
X186761498Y-79806221D03*
D15*
X182729674Y-86792235D03*
X177385427Y-85870814D03*
%TD*%
D12*
%TO.C,SwD0*%
X159439578Y-90378928D03*
D13*
X163460154Y-83344195D03*
D14*
X164798613Y-89141697D03*
D13*
X168826897Y-84363054D03*
D12*
X170157648Y-87904466D03*
D15*
X166125824Y-94890480D03*
X160781577Y-93969059D03*
%TD*%
D12*
%TO.C,SwC5*%
X128558791Y-87904456D03*
D13*
X135256285Y-83344185D03*
D14*
X133917826Y-89141687D03*
D13*
X139633243Y-86612555D03*
D12*
X139276861Y-90378918D03*
D15*
X132590615Y-94890470D03*
X128191162Y-91719538D03*
%TD*%
D12*
%TO.C,SwB0*%
X155615412Y-73814635D03*
D13*
X159635988Y-66779902D03*
D14*
X160974447Y-72577404D03*
D13*
X165002731Y-67798761D03*
D12*
X166333482Y-71340173D03*
D15*
X162301658Y-78326187D03*
X156957411Y-77404766D03*
%TD*%
D12*
%TO.C,SwD2*%
X192647271Y-74182449D03*
D13*
X196667847Y-67147716D03*
D14*
X198006306Y-72945218D03*
D13*
X202034590Y-68166575D03*
D12*
X203365341Y-71707987D03*
D15*
X199333517Y-78694001D03*
X193989270Y-77772580D03*
%TD*%
D12*
%TO.C,SwC4*%
X111954939Y-79806221D03*
D13*
X118652433Y-75245950D03*
D14*
X117313974Y-81043452D03*
D13*
X123029391Y-78514320D03*
D12*
X122673009Y-82280683D03*
D15*
X115986763Y-86792235D03*
X111587310Y-83621303D03*
%TD*%
D12*
%TO.C,SwC3*%
X95351093Y-71707984D03*
D13*
X102048587Y-67147713D03*
D14*
X100710128Y-72945215D03*
D13*
X106425545Y-70416083D03*
D12*
X106069163Y-74182446D03*
D15*
X99382917Y-78693998D03*
X94983464Y-75523066D03*
%TD*%
D12*
%TO.C,SwC2*%
X76877617Y-71707984D03*
D13*
X83575111Y-67147713D03*
D14*
X82236652Y-72945215D03*
D13*
X87952069Y-70416083D03*
D12*
X87595687Y-74182446D03*
D15*
X80909441Y-78693998D03*
X76509988Y-75523066D03*
%TD*%
D12*
%TO.C,SwC1*%
X58404147Y-71707984D03*
D13*
X65101641Y-67147713D03*
D14*
X63763182Y-72945215D03*
D13*
X69478599Y-70416083D03*
D12*
X69122217Y-74182446D03*
D15*
X62435971Y-78693998D03*
X58036518Y-75523066D03*
%TD*%
D12*
%TO.C,SwC0*%
X39930668Y-71707980D03*
D13*
X46628162Y-67147709D03*
D14*
X45289703Y-72945211D03*
D13*
X51005120Y-70416079D03*
D12*
X50648738Y-74182442D03*
D15*
X43962492Y-78693994D03*
X39563039Y-75523062D03*
%TD*%
D12*
%TO.C,SwB5*%
X244243527Y-57618154D03*
D13*
X248264103Y-50583421D03*
D14*
X249602562Y-56380923D03*
D13*
X253630846Y-51602280D03*
D12*
X254961597Y-55143692D03*
D15*
X250929773Y-62129706D03*
X245585526Y-61208285D03*
%TD*%
D12*
%TO.C,SwG1*%
X115317771Y-120768172D03*
D13*
X122015265Y-116207901D03*
D14*
X120676806Y-122005403D03*
D13*
X126392223Y-119476271D03*
D12*
X126035841Y-123242634D03*
D15*
X119349595Y-127754186D03*
X114950142Y-124583254D03*
%TD*%
D12*
%TO.C,SwB4*%
X225770055Y-57618158D03*
D13*
X229790631Y-50583425D03*
D14*
X231129090Y-56380927D03*
D13*
X235157374Y-51602284D03*
D12*
X236488125Y-55143696D03*
D15*
X232456301Y-62129710D03*
X227112054Y-61208289D03*
%TD*%
D12*
%TO.C,SwA0*%
X43754844Y-55143688D03*
D13*
X50452338Y-50583417D03*
D14*
X49113879Y-56380919D03*
D13*
X54829296Y-53851787D03*
D12*
X54472914Y-57618150D03*
D15*
X47786668Y-62129702D03*
X43387215Y-58958770D03*
%TD*%
D12*
%TO.C,SwA4*%
X115779112Y-63241932D03*
D13*
X122476606Y-58681661D03*
D14*
X121138147Y-64479163D03*
D13*
X126853564Y-61950031D03*
D12*
X126497182Y-65716394D03*
D15*
X119810936Y-70227946D03*
X115411483Y-67057014D03*
%TD*%
D12*
%TO.C,SwA3*%
X99175258Y-55143697D03*
D13*
X105872752Y-50583426D03*
D14*
X104534293Y-56380928D03*
D13*
X110249710Y-53851796D03*
D12*
X109893328Y-57618159D03*
D15*
X103207082Y-62129711D03*
X98807629Y-58958779D03*
%TD*%
D12*
%TO.C,SwB1*%
X172219259Y-65716397D03*
D13*
X176239835Y-58681664D03*
D14*
X177578294Y-64479166D03*
D13*
X181606578Y-59700523D03*
D12*
X182937329Y-63241935D03*
D15*
X178905505Y-70227949D03*
X173561258Y-69306528D03*
%TD*%
D12*
%TO.C,SwF0*%
X163263748Y-106943211D03*
D13*
X167284324Y-99908478D03*
D14*
X168622783Y-105705980D03*
D13*
X172651067Y-100927337D03*
D12*
X173981818Y-104468749D03*
D15*
X169949994Y-111454763D03*
X164605747Y-110533342D03*
%TD*%
D12*
%TO.C,SwA1*%
X62228309Y-55143701D03*
D13*
X68925803Y-50583430D03*
D14*
X67587344Y-56380932D03*
D13*
X73302761Y-53851800D03*
D12*
X72946379Y-57618163D03*
D15*
X66260133Y-62129715D03*
X61860680Y-58958783D03*
%TD*%
D12*
%TO.C,SwB3*%
X207296588Y-57618158D03*
D13*
X211317164Y-50583425D03*
D14*
X212655623Y-56380927D03*
D13*
X216683907Y-51602284D03*
D12*
X218014658Y-55143696D03*
D15*
X213982834Y-62129710D03*
X208638587Y-61208289D03*
%TD*%
D12*
%TO.C,SwB2*%
X188823109Y-57618158D03*
D13*
X192843685Y-50583425D03*
D14*
X194182144Y-56380927D03*
D13*
X198210428Y-51602284D03*
D12*
X199541179Y-55143696D03*
D15*
X195509355Y-62129710D03*
X190165108Y-61208289D03*
%TD*%
D12*
%TO.C,SwF5*%
X251891865Y-90746743D03*
D13*
X255912441Y-83712010D03*
D14*
X257250900Y-89509512D03*
D13*
X261279184Y-84730869D03*
D12*
X262609935Y-88272281D03*
D15*
X258578111Y-95258295D03*
X253233864Y-94336874D03*
%TD*%
D12*
%TO.C,SwF4*%
X233418392Y-90746739D03*
D13*
X237438968Y-83712006D03*
D14*
X238777427Y-89509508D03*
D13*
X242805711Y-84730865D03*
D12*
X244136462Y-88272277D03*
D15*
X240104638Y-95258291D03*
X234760391Y-94336870D03*
%TD*%
D12*
%TO.C,SwF3*%
X214944918Y-90746741D03*
D13*
X218965494Y-83712008D03*
D14*
X220303953Y-89509510D03*
D13*
X224332237Y-84730867D03*
D12*
X225662988Y-88272279D03*
D15*
X221631164Y-95258293D03*
X216286917Y-94336872D03*
%TD*%
D12*
%TO.C,SwF2*%
X196471443Y-90746740D03*
D13*
X200492019Y-83712007D03*
D14*
X201830478Y-89509509D03*
D13*
X205858762Y-84730866D03*
D12*
X207189513Y-88272278D03*
D15*
X203157689Y-95258292D03*
X197813442Y-94336871D03*
%TD*%
D12*
%TO.C,SwF1*%
X179867594Y-98844972D03*
D13*
X183888170Y-91810239D03*
D14*
X185226629Y-97607741D03*
D13*
X189254913Y-92829098D03*
D12*
X190585664Y-96370510D03*
D15*
X186553840Y-103356524D03*
X181209593Y-102435103D03*
%TD*%
D12*
%TO.C,SwE5*%
X135452692Y-106943210D03*
D13*
X128755198Y-111503481D03*
D14*
X130093657Y-105705979D03*
D13*
X124378240Y-108235111D03*
D12*
X124734622Y-104468748D03*
D15*
X131420868Y-99957196D03*
X135820321Y-103128128D03*
%TD*%
D12*
%TO.C,SwE4*%
X108130771Y-96370515D03*
D13*
X114828265Y-91810244D03*
D14*
X113489806Y-97607746D03*
D13*
X119205223Y-95078614D03*
D12*
X118848841Y-98844977D03*
D15*
X112162595Y-103356529D03*
X107763142Y-100185597D03*
%TD*%
D12*
%TO.C,SwA2*%
X80701785Y-55143696D03*
D13*
X87399279Y-50583425D03*
D14*
X86060820Y-56380927D03*
D13*
X91776237Y-53851795D03*
D12*
X91419855Y-57618158D03*
D15*
X84733609Y-62129710D03*
X80334156Y-58958778D03*
%TD*%
D12*
%TO.C,SwA5*%
X132382958Y-71340168D03*
D13*
X139080452Y-66779897D03*
D14*
X137741993Y-72577399D03*
D13*
X143457410Y-70048267D03*
D12*
X143101028Y-73814630D03*
D15*
X136414782Y-78326182D03*
X132015329Y-75155250D03*
%TD*%
D12*
%TO.C,SwG0*%
X96753166Y-114314960D03*
D13*
X102253166Y-108364960D03*
D14*
X102253166Y-114314960D03*
D13*
X107253166Y-110564960D03*
D12*
X107753166Y-114314960D03*
D15*
X102253166Y-120214960D03*
X97253166Y-118114960D03*
%TD*%
D12*
%TO.C,SwG3*%
X172680601Y-123242638D03*
D13*
X176701177Y-116207905D03*
D14*
X178039636Y-122005407D03*
D13*
X182067920Y-117226764D03*
D12*
X183398671Y-120768176D03*
D15*
X179366847Y-127754190D03*
X174022600Y-126832769D03*
%TD*%
D12*
%TO.C,SwG4*%
X190963275Y-114314959D03*
D13*
X196463275Y-108364959D03*
D14*
X196463275Y-114314959D03*
D13*
X201463275Y-110564959D03*
D12*
X201963275Y-114314959D03*
D15*
X196463275Y-120214959D03*
X191463275Y-118114959D03*
%TD*%
D12*
%TO.C,SwG2*%
X143858222Y-124512687D03*
D13*
X149358222Y-118562687D03*
D14*
X149358222Y-124512687D03*
D13*
X154358222Y-120762687D03*
D12*
X154858222Y-124512687D03*
D15*
X149358222Y-130412687D03*
X144358222Y-128312687D03*
%TD*%
D16*
%TO.C,U1*%
X137287077Y-39588302D03*
D17*
X139761978Y-40159679D03*
X142236878Y-40731054D03*
X144711778Y-41302430D03*
X147186678Y-41873806D03*
X149661578Y-42445181D03*
X152136478Y-43016557D03*
X154611378Y-43587933D03*
X157086278Y-44159308D03*
X159561178Y-44730684D03*
X162036078Y-45302060D03*
X164510978Y-45873435D03*
X161082724Y-60722835D03*
X158607824Y-60151460D03*
X156132924Y-59580084D03*
X153658024Y-59008708D03*
X151183124Y-58437333D03*
X148708224Y-57865957D03*
X146233324Y-57294581D03*
X143758424Y-56723205D03*
X141283524Y-56151830D03*
X138808624Y-55580454D03*
X136333724Y-55009078D03*
X133858824Y-54437703D03*
%TD*%
M02*
