M48
; DRILL file {KiCad (7.0.0-0)} date Sunday, 07 May 2023 at 20:22:35
; FORMAT={-:-/ absolute / inch / decimal}
; #@! TF.CreationDate,2023-05-07T20:22:35+03:00
; #@! TF.GenerationSoftware,Kicad,Pcbnew,(7.0.0-0)
; #@! TF.FileFunction,Plated,1,2,PTH
FMAT,2
INCH
; #@! TA.AperFunction,Plated,PTH,ViaDrill
T1C0.0157
; #@! TA.AperFunction,Plated,PTH,ComponentDrill
T2C0.0394
; #@! TA.AperFunction,Plated,PTH,ComponentDrill
T3C0.0430
; #@! TA.AperFunction,Plated,PTH,ComponentDrill
T4C0.0500
; #@! TA.AperFunction,Plated,PTH,ComponentDrill
T5C0.0512
%
G90
G05
T1
X1.9832Y-3.4534
X2.1337Y-2.8013
X2.2843Y-2.1492
X2.7105Y-3.4534
X2.861Y-2.8013
X2.9339Y-2.4823
X3.0116Y-2.1492
X3.4378Y-3.4534
X3.5883Y-2.8013
X3.6647Y-2.4843
X3.7389Y-2.1492
X4.1651Y-3.4534
X4.3156Y-2.8013
X4.3515Y-4.353
X4.3855Y-2.4815
X4.4662Y-2.1492
X4.7711Y-4.2322
X4.8188Y-3.7723
X4.9282Y-3.7565
X4.9693Y-3.1201
X5.0765Y-2.9661
X5.1017Y-4.7328
X5.1199Y-2.468
X5.2615Y-3.0807
X5.2906Y-2.5051
X5.6131Y-3.2461
X5.6166Y-2.3055
X5.623Y-3.4389
X5.7111Y-1.8244
X5.7316Y-2.4346
X5.7485Y-1.8024
X5.7591Y-2.4744
X5.7736Y-2.7868
X5.782Y-2.5709
X5.8241Y-3.4394
X6.0005Y-2.2118
X6.1099Y-2.0969
X6.206Y-4.7544
X6.2757Y-2.274
X6.3725Y-1.9346
X6.4154Y-2.1157
X6.5552Y-2.122
X6.6218Y-2.6402
X6.7724Y-3.2924
X6.9229Y-3.9445
X7.143Y-4.3402
X7.2755Y-2.3214
X7.2937Y-4.5862
X7.4261Y-2.9735
X7.5766Y-3.6257
X7.9292Y-2.0026
X8.0606Y-4.353
X8.0798Y-2.6547
X8.2303Y-3.3069
X8.6565Y-2.0026
X8.8071Y-2.6547
X8.9576Y-3.3069
X9.3838Y-2.0026
X9.5344Y-2.6547
X9.6849Y-3.3069
X10.1111Y-2.0026
X10.2617Y-2.6547
X10.4122Y-3.3069
T2
X5.6801Y-3.6895
X5.7801Y-3.6895
X5.8801Y-3.6895
X5.9801Y-3.6895
X6.0801Y-3.6895
T3
X5.27Y-2.1432
X5.3675Y-2.1657
X5.405Y-1.5586
X5.4649Y-2.1882
X5.5024Y-1.5811
X5.5623Y-2.2107
X5.5999Y-1.6036
X5.6598Y-2.2332
X5.6973Y-1.6261
X5.7572Y-2.2557
X5.7948Y-1.6486
X5.8547Y-2.2782
X5.8922Y-1.6711
X5.9521Y-2.3007
X5.9896Y-1.6936
X6.0495Y-2.3232
X6.0871Y-1.7161
X6.147Y-2.3457
X6.1845Y-1.7386
X6.2444Y-2.3682
X6.2819Y-1.7611
X6.3418Y-2.3907
X6.3794Y-1.7835
X6.4768Y-1.806
T4
X1.407Y-3.6255
X1.5576Y-2.9733
X1.5802Y-3.7503
X1.7082Y-2.3212
X1.7308Y-3.0982
X1.8814Y-2.4461
X2.1343Y-3.6255
X2.2849Y-2.9733
X2.3076Y-3.7503
X2.4355Y-2.3212
X2.4581Y-3.0982
X2.6087Y-2.4461
X2.8616Y-3.6255
X3.0122Y-2.9733
X3.0349Y-3.7503
X3.1628Y-2.3212
X3.1854Y-3.0982
X3.336Y-2.4461
X3.5889Y-3.6255
X3.7395Y-2.9733
X3.7622Y-3.7503
X3.8289Y-4.6502
X3.8901Y-2.3212
X3.9127Y-3.0982
X4.0257Y-4.7329
X4.0633Y-2.4461
X4.2426Y-3.9443
X4.3932Y-3.2922
X4.4159Y-4.0692
X4.5256Y-4.9049
X4.5438Y-2.64
X4.5664Y-3.417
X4.6988Y-5.0297
X4.717Y-2.7649
X5.0469Y-3.611
X5.174Y-3.9353
X5.1975Y-2.9589
X5.2201Y-3.7358
X5.3473Y-4.0602
X5.3707Y-3.0837
X5.6834Y-5.0517
X5.8802Y-5.1344
X6.1794Y-3.0474
X6.33Y-3.6996
X6.3898Y-3.0837
X6.4805Y-4.3517
X6.5404Y-3.7358
X6.6909Y-4.388
X6.8331Y-2.7286
X6.8513Y-4.9934
X6.9837Y-3.3807
X7.0435Y-2.7649
X7.0617Y-5.0297
X7.1342Y-4.0329
X7.1941Y-3.417
X7.3446Y-4.0692
X7.4868Y-2.4098
X7.5379Y-4.6502
X7.6374Y-3.0619
X7.6972Y-2.4461
X7.7348Y-4.7329
X7.7879Y-3.7141
X7.8478Y-3.0982
X7.9983Y-3.7503
X8.2141Y-2.4098
X8.3647Y-3.0619
X8.4245Y-2.4461
X8.5152Y-3.7141
X8.5751Y-3.0982
X8.7256Y-3.7503
X8.9414Y-2.4098
X9.092Y-3.0619
X9.1518Y-2.4461
X9.2425Y-3.714
X9.3024Y-3.0982
X9.4529Y-3.7503
X9.6687Y-2.4098
X9.8193Y-3.0619
X9.8791Y-2.4461
X9.9698Y-3.7141
X10.0297Y-3.0982
X10.1802Y-3.7503
T5
X6.8018Y-1.9208
X7.0511Y-1.9784
T0
M30
