0
SECTION
2
HEADER
9
$INSUNITS
70
4
9
$ACADVER
1
AC1014
9
$HANDSEED
5
FFFF
0
ENDSEC
0
SECTION
2
TABLES
0
TABLE
2
VPORT
5
8
100
AcDbSymbolTable
0
ENDTAB
0
TABLE
2
LTYPE
5
5
100
AcDbSymbolTable
0
LTYPE
5
14
100
AcDbSymbolTableRecord
100
AcDbLinetypeTableRecord
2
BYBLOCK
70
0
0
LTYPE
5
15
100
AcDbSymbolTableRecord
100
AcDbLinetypeTableRecord
2
BYLAYER
70
0
0
ENDTAB
0
TABLE
2
LAYER
5
2
100
AcDbSymbolTable
70
2
0
LAYER
5
50
100
AcDbSymbolTableRecord
100
AcDbLayerTableRecord
2
0
70
0
6
CONTINUOUS
0
ENDTAB
0
TABLE
2
STYLE
5
3
100
AcDbSymbolTable
70
1
0
STYLE
5
11
100
AcDbSymbolTableRecord
100
AcDbTextStyleTableRecord
2
STANDARD
70
0
0
ENDTAB
0
TABLE
2
VIEW
5
6
100
AcDbSymbolTable
70
0
0
ENDTAB
0
TABLE
2
UCS
5
7
100
AcDbSymbolTable
70
0
0
ENDTAB
0
TABLE
2
APPID
5
9
100
AcDbSymbolTable
70
2
0
APPID
5
12
100
AcDbSymbolTableRecord
100
AcDbRegAppTableRecord
2
ACAD
70
0
0
ENDTAB
0
TABLE
2
DIMSTYLE
5
A
100
AcDbSymbolTable
70
1
0
ENDTAB
0
TABLE
2
BLOCK_RECORD
5
1
100
AcDbSymbolTable
70
1
0
BLOCK_RECORD
5
1F
100
AcDbSymbolTableRecord
100
AcDbBlockTableRecord
2
*MODEL_SPACE
0
BLOCK_RECORD
5
1B
100
AcDbSymbolTableRecord
100
AcDbBlockTableRecord
2
*PAPER_SPACE
0
ENDTAB
0
ENDSEC
0
SECTION
2
BLOCKS
0
BLOCK
5
20
100
AcDbEntity
100
AcDbBlockBegin
2
*MODEL_SPACE
0
ENDBLK
5
21
100
AcDbEntity
100
AcDbBlockEnd
0
BLOCK
5
1C
100
AcDbEntity
100
AcDbBlockBegin
2
*PAPER_SPACE
0
ENDBLK
5
1D
100
AcDbEntity
100
AcDbBlockEnd
0
ENDSEC
0
SECTION
2
ENTITIES
0
LWPOLYLINE
5
100
100
AcDbEntity
8
0
100
AcDbPolyline
90
16
70
1
43
0.0
10
0.44761699999999727
20
58.269137000000001
42
0.41421356237309681
10
0.94761699999999738
20
57.769137000000008
10
4.7976169999999927
20
57.769137000000008
42
-0.4142135623730947
10
5.2976169999999918
20
57.269137000000008
10
5.29761699999999
20
40.869137000000002
42
-0.41421356237309509
10
4.7976169999999918
20
40.369137000000002
10
-20.202383000000008
20
40.369137000000002
42
-0.41421356237309509
10
-20.702383000000005
20
40.869137000000002
10
-20.702383000000005
20
57.269137000000008
42
-0.41421356237309509
10
-20.202383000000008
20
57.769137000000008
10
-16.352382999999996
20
57.769137000000001
42
0.41421356237309637
10
-15.852382999999996
20
58.269137000000001
10
-15.852382999999994
20
62.869137000000002
42
-0.41421356237309509
10
-15.352382999999996
20
63.369137000000002
10
-0.052383000000002497
20
63.369137000000002
42
-0.4142135623730952
10
0.44761699999999782
20
62.869137000000002
0
LWPOLYLINE
5
101
100
AcDbEntity
8
0
100
AcDbPolyline
90
168
70
1
43
0.0
10
-21.58726399999999
20
123.40330399999996
10
-21.776506999999992
20
123.35215299999999
10
-21.952134999999995
20
123.265066
10
-22.107399000000019
20
123.14538900000001
10
-22.236330999999989
20
122.99772099999998
10
-22.333978000000059
20
122.82773700000001
10
-22.396586000006664
20
122.64196900000157
10
-25.660626000000057
20
108.50386000000002
10
-25.723233999999984
20
108.31809199999998
10
-25.820881000000018
20
108.14810800000001
10
-25.949812999999988
20
108.00044
10
-26.105076999999977
20
107.88076299999997
10
-26.28070499999998
20
107.79367599999995
10
-26.469947999999999
20
107.74252500000001
10
-26.665533999999997
20
107.72927699999998
10
-26.859946999998101
20
107.75444100000824
10
-60.034419999999962
20
115.41337200000021
10
-60.923057999999997
20
115.59739999999999
10
-61.81913000000003
20
115.74092799999976
10
-62.720789000000003
20
115.84365900000002
10
-63.626181000000003
20
115.905382
10
-64.53344199999998
20
115.92597000000001
10
-119.95862799999999
20
115.92596999999999
10
-120.14943700000005
20
115.90759700000005
10
-120.33323399999999
20
115.85315399999999
10
-120.503266
20
115.76464100000001
10
-120.65328500000001
20
115.64531000000004
10
-120.777779
20
115.49954700000001
10
-120.87217199999999
20
115.33270700000001
10
-120.93299799999394
20
115.15092199999859
10
-133.35132300000001
20
61.361246999999999
10
-133.376487
20
61.166834000000001
10
-133.36323899999991
20
60.971248000000024
10
-133.3120889999999
20
60.782004000000043
10
-133.22500099999996
20
60.606376000000004
10
-133.10532399999997
20
60.451112000000023
10
-132.95765599999999
20
60.322179000000006
10
-132.78767100000002
20
60.224532999999944
10
-132.60190399999891
20
60.161926000004684
10
-117.28355100000003
20
56.625404999999809
10
-116.39491300000002
20
56.44137700000001
10
-115.49884099999994
20
56.297849000000255
10
-114.59718199999999
20
56.195118000000008
10
-113.69179000000001
20
56.133395000000007
10
-112.78453
20
56.112807000000004
10
-97.842175999999995
20
56.112807000000004
10
-96.93491600000003
20
56.09221800000001
10
-96.029523999999938
20
56.030495000000258
10
-95.127864999999986
20
55.92776400000001
10
-94.231793000000025
20
55.784235999999801
10
-93.343154999997481
20
55.600208000010916
10
-67.943291000000002
20
49.736187000000037
10
-67.761504999999985
20
49.675363000000019
10
-67.594665000000035
20
49.580969999999986
10
-67.448901000000006
20
49.456476000000016
10
-67.329570999999945
20
49.30645700000003
10
-67.241057000000112
20
49.136423999999977
10
-67.186614000000034
20
48.952626000000009
10
-67.168241999999992
20
48.761817000000001
10
-67.168241999999992
20
31.672636000000001
10
-67.149026999999975
20
31.477546000000007
10
-67.092121999999975
20
31.289952000000021
10
-66.999711999999946
20
31.117066000000044
10
-66.875349000000043
20
30.965528999999957
10
-66.723812000000024
20
30.841165999999976
10
-66.550926000000018
20
30.748755999999993
10
-66.363332000000014
20
30.691851
10
-66.168242000000021
20
30.672636000000004
10
-51.606161999999998
20
30.672636000000008
10
-51.415353000000025
20
30.654263999999934
10
-51.231555000000014
20
30.59981999999998
10
-51.061522999999966
20
30.511307000000066
10
-50.911502999999968
20
30.391976000000021
10
-50.787010000000009
20
30.246212999999997
10
-50.692616000000044
20
30.079372999999986
10
-50.63179199999972
20
29.897587000000069
10
-49.630049000000028
20
25.558561999999981
10
-49.571574999999996
20
25.382098000000013
10
-49.481450000000024
20
25.219505999999996
10
-49.362786
20
25.076406000000013
10
-49.21968600000001
20
24.957741999999989
10
-49.057093999999992
20
24.867617000000031
10
-48.880630000000963
20
24.809142999995739
10
-28.922691000000036
20
20.201489999999794
10
-28.034052999999997
20
20.017462000000002
10
-27.137980999999964
20
19.873934000000261
10
-26.236322000000012
20
19.771203
10
-25.330929999999992
20
19.709480000000006
10
-24.423669999999991
20
19.688891000000002
10
9.018903999999992
20
19.688891000000002
10
9.9261639999999929
20
19.709483000000006
10
10.831555000000019
20
19.771207999999909
10
11.733214999999948
20
19.87393900000037
10
12.629285999999968
20
20.017465000000144
10
13.517924999999025
20
20.201490000004263
10
33.475863999999987
20
24.809143000000027
10
33.652253000000023
20
24.867757999999974
10
33.814787000000031
20
24.957925999999972
10
33.957851999999988
20
25.076583000000021
10
34.076520000000045
20
25.219639999999977
10
34.166699000000058
20
25.382166999999988
10
34.225283000000289
20
25.558561999999931
10
35.227025999999988
20
29.897587000000012
10
35.28777299999993
20
30.079405000000044
10
35.382167000000038
20
30.24625899999997
10
35.506670000000007
20
30.392030999999999
10
35.656703999999976
20
30.511363000000049
10
35.82675500000002
20
30.599867999999923
10
36.010572000000003
20
30.654292000000009
10
36.201396000000003
20
30.672636000000004
10
50.763475999999997
20
30.672636000000001
10
50.958462999999988
20
30.692148000000063
10
51.145931000000061
20
30.749186999999903
10
51.318702000000059
20
30.841642999999941
10
51.470159000000031
20
30.965974999999979
10
51.594503000000003
20
31.117422999999999
10
51.686970999999943
20
31.29018600000002
10
51.744023999999996
20
31.477650000000001
10
51.763475999999997
20
31.672636000000001
10
51.763476000000004
20
48.761817000000001
10
51.781842999999988
20
48.952625000000012
10
51.836291999999951
20
49.136421000000034
10
51.924807999999942
20
49.30645100000006
10
52.04413999999997
20
49.456469000000027
10
52.189903000000008
20
49.580963000000004
10
52.356741000000035
20
49.675357999999925
10
52.538524999998373
20
49.736187000007078
10
77.938389999999956
20
55.600208000000208
10
78.827028000000013
20
55.784235999999943
10
79.723100000000045
20
55.927762999999722
10
80.624759000000012
20
56.030495000000002
10
81.530151000000018
20
56.092218000000003
10
82.437410999999997
20
56.112807000000004
10
97.379764000000009
20
56.112807000000004
10
98.287024000000002
20
56.133387000000027
10
99.192415999999952
20
56.195112000000258
10
100.09407600000004
20
56.297845999999836
10
100.99014699999998
20
56.44137500000005
10
101.87878500000109
20
56.625404999995311
10
117.19713800000001
20
60.16192600000003
10
117.38291099999995
20
60.224523000000083
10
117.55289800000001
20
60.322168999999981
10
117.70056899999999
20
60.45110200000002
10
117.82024700000001
20
60.60636800000001
10
117.90733400000006
20
60.781998999999985
10
117.958482
20
60.971245000000003
10
117.97172599999996
20
61.166833999999994
10
117.94655700000605
20
61.361247000001399
10
105.52823199999995
20
115.15092199999998
10
105.46736899999992
20
115.33269399999996
10
105.37298100000007
20
115.49953100000008
10
105.24849400000005
20
115.64529300000005
10
105.09848100000001
20
115.764625
10
104.92845600000001
20
115.85314200000001
10
104.744665
20
115.90759100000001
10
104.553862
20
115.92597000000001
10
49.128675999999999
20
115.92597000000001
10
48.221416000000005
20
115.90538700000005
10
47.316024000000034
20
115.84366599999967
10
46.41436299999998
20
115.74093500000018
10
45.518292000000031
20
115.5974049999999
10
44.62965400000158
20
115.4133719999932
10
29.444390000000009
20
111.90757699999997
10
29.145605999999997
20
111.86203399999999
10
28.843370000000004
20
111.86203400000004
10
28.544586000003189
20
111.90757700001376
10
-21.197265000000005
20
123.39138800000001
10
-21.39167800000001
20
123.416552
0
CIRCLE
5
102
100
AcDbEntity
8
0
100
AcDbCircle
10
55.253914000000002
20
80.116050000000016
30
0
40
1.1500000000000021
210
0
220
0
230
1
0
CIRCLE
5
103
100
AcDbEntity
8
0
100
AcDbCircle
10
-24.446086000000005
20
34.536050000000003
30
0
40
1.1500000000000021
210
0
220
0
230
1
0
CIRCLE
5
104
100
AcDbEntity
8
0
100
AcDbCircle
10
90.153914
20
96.536050000000003
30
0
40
1.1500000000000021
210
0
220
0
230
1
0
CIRCLE
5
105
100
AcDbEntity
8
0
100
AcDbCircle
10
-112.726086
20
66.08605
30
0
40
1.1500000000000021
210
0
220
0
230
1
0
CIRCLE
5
106
100
AcDbEntity
8
0
100
AcDbCircle
10
-30.866085999999999
20
82.316050000000004
30
0
40
1.1500000000000021
210
0
220
0
230
1
0
CIRCLE
5
107
100
AcDbEntity
8
0
100
AcDbCircle
10
15.463914000000001
20
82.326049999999995
30
0
40
1.1499999999999999
210
0
220
0
230
1
0
CIRCLE
5
108
100
AcDbEntity
8
0
100
AcDbCircle
10
-70.656086000000016
20
80.106049999999996
30
0
40
1.1500000000000021
210
0
220
0
230
1
0
CIRCLE
5
109
100
AcDbEntity
8
0
100
AcDbCircle
10
10.733914
20
109.86605
30
0
40
1.1499999999999999
210
0
220
0
230
1
0
CIRCLE
5
110
100
AcDbEntity
8
0
100
AcDbCircle
10
-7.7023830000000002
20
69.296049999999994
30
0
40
1.1499999999999999
210
0
220
0
230
1
0
CIRCLE
5
111
100
AcDbEntity
8
0
100
AcDbCircle
10
9.0439139999999991
20
34.546050000000001
30
0
40
1.1499999999999999
210
0
220
0
230
1
0
CIRCLE
5
112
100
AcDbEntity
8
0
100
AcDbCircle
10
-105.55608599999999
20
96.526050000000012
30
0
40
1.1500000000000021
210
0
220
0
230
1
0
CIRCLE
5
113
100
AcDbEntity
8
0
100
AcDbCircle
10
97.323914000000002
20
66.096050000000005
30
0
40
1.1500000000000021
210
0
220
0
230
1
0
CIRCLE
5
114
100
AcDbEntity
8
0
100
AcDbCircle
10
32.203913999999997
20
40.706049999999998
30
0
40
1.1499999999999977
210
0
220
0
230
1
0
CIRCLE
5
115
100
AcDbEntity
8
0
100
AcDbCircle
10
-47.606086000000005
20
40.69605
30
0
40
1.1500000000000021
210
0
220
0
230
1
0
ENDSEC
0
SECTION
2
OBJECTS
0
DICTIONARY
5
C
100
AcDbDictionary
3
ACAD_GROUP
350
D
3
ACAD_MLINESTYLE
350
17
0
DICTIONARY
5
D
100
AcDbDictionary
0
DICTIONARY
5
1A
330
C
100
AcDbDictionary
0
DICTIONARY
5
17
100
AcDbDictionary
0
ENDSEC
0
EOF
