0
SECTION
2
HEADER
9
$INSUNITS
70
4
9
$ACADVER
1
AC1014
9
$HANDSEED
5
FFFF
0
ENDSEC
0
SECTION
2
TABLES
0
TABLE
2
VPORT
5
8
100
AcDbSymbolTable
0
ENDTAB
0
TABLE
2
LTYPE
5
5
100
AcDbSymbolTable
0
LTYPE
5
14
100
AcDbSymbolTableRecord
100
AcDbLinetypeTableRecord
2
BYBLOCK
70
0
0
LTYPE
5
15
100
AcDbSymbolTableRecord
100
AcDbLinetypeTableRecord
2
BYLAYER
70
0
0
ENDTAB
0
TABLE
2
LAYER
5
2
100
AcDbSymbolTable
70
2
0
LAYER
5
50
100
AcDbSymbolTableRecord
100
AcDbLayerTableRecord
2
0
70
0
6
CONTINUOUS
0
ENDTAB
0
TABLE
2
STYLE
5
3
100
AcDbSymbolTable
70
1
0
STYLE
5
11
100
AcDbSymbolTableRecord
100
AcDbTextStyleTableRecord
2
STANDARD
70
0
0
ENDTAB
0
TABLE
2
VIEW
5
6
100
AcDbSymbolTable
70
0
0
ENDTAB
0
TABLE
2
UCS
5
7
100
AcDbSymbolTable
70
0
0
ENDTAB
0
TABLE
2
APPID
5
9
100
AcDbSymbolTable
70
2
0
APPID
5
12
100
AcDbSymbolTableRecord
100
AcDbRegAppTableRecord
2
ACAD
70
0
0
ENDTAB
0
TABLE
2
DIMSTYLE
5
A
100
AcDbSymbolTable
70
1
0
ENDTAB
0
TABLE
2
BLOCK_RECORD
5
1
100
AcDbSymbolTable
70
1
0
BLOCK_RECORD
5
1F
100
AcDbSymbolTableRecord
100
AcDbBlockTableRecord
2
*MODEL_SPACE
0
BLOCK_RECORD
5
1B
100
AcDbSymbolTableRecord
100
AcDbBlockTableRecord
2
*PAPER_SPACE
0
ENDTAB
0
ENDSEC
0
SECTION
2
BLOCKS
0
BLOCK
5
20
100
AcDbEntity
100
AcDbBlockBegin
2
*MODEL_SPACE
0
ENDBLK
5
21
100
AcDbEntity
100
AcDbBlockEnd
0
BLOCK
5
1C
100
AcDbEntity
100
AcDbBlockBegin
2
*PAPER_SPACE
0
ENDBLK
5
1D
100
AcDbEntity
100
AcDbBlockEnd
0
ENDSEC
0
SECTION
2
ENTITIES
0
LWPOLYLINE
5
100
100
AcDbEntity
8
0
100
AcDbPolyline
90
4
70
1
43
0.0
10
150.45999999999998
20
-67.78973481391715
10
150.46000000000004
20
-22.436754999999984
42
-0.99999999999999989
10
152.46000000000004
20
-22.436755000000002
10
152.45999999999995
20
-67.789734999967393
42
-1.000000093057726
0
LWPOLYLINE
5
101
100
AcDbEntity
8
0
100
AcDbPolyline
90
4
70
1
43
0.0
10
142.46000000000009
20
-67.789734999999993
42
0.99999988676098506
10
144.46000000000006
20
-67.789735226478044
10
144.46000000000001
20
-22.436755000000002
42
0.99999999999999989
10
142.46000000000004
20
-22.436755000000002
0
LWPOLYLINE
5
102
100
AcDbEntity
8
0
100
AcDbPolyline
90
172
70
1
43
0.0
10
142.46000000000004
20
-16.436755000000005
10
142.46000000000004
20
-6.4367550000000051
10
141.90000000000001
20
-5.7000000000000028
10
141.278471
20
-5.1561900000000005
10
137.889319
20
-3.9638470000000048
10
132.52569700000004
20
-2.8851590000000016
10
125.42075800000001
20
-1.9455609999999979
10
116.807654
20
-1.1704880000000006
10
106.919538
20
-0.58537399999999629
10
95.989563000000004
20
-0.21565400000000068
10
84.250881000000021
20
-0.086762000000000228
10
0.9882099999999916
20
-0.086762000000000228
10
0.77646200000000221
20
-0.10807500000000303
10
0.57930300000000656
20
-0.16920999999999964
10
0.40093699999999899
20
-0.265960999999999
10
0.24556999999999718
20
-0.394123000000004
10
0.11740899999999499
20
-0.549489000000003
10
0.02065699999999282
20
-0.7278550000000017
10
-0.040476999999992103
20
-0.92501500000000014
10
-0.061789999999994905
20
-1.1367620000000045
10
-0.062472000000006744
20
-7.4436950000000035
10
-0.062472000000006744
20
-51.592229000000003
10
0.13569000000000386
20
-55.617561000000002
10
0.49029700000000176
20
-59.657662999999999
10
1.0209719999999933
20
-63.690825000000004
10
1.747083000000007
20
-67.695245999999997
10
2.6880039999999994
20
-71.649126999999993
10
3.8631050000000045
20
-75.530670000000001
10
5.2917579999999909
20
-79.318072999999998
10
6.9933329999999927
20
-82.989540000000005
10
8.6685630000000025
20
-85.854742000000002
10
10.344257999999993
20
-88.721062000000018
10
12.019952000000007
20
-91.587380999999993
10
13.695646999999997
20
-94.453700999999995
10
15.371340999999994
20
-97.320020000000014
10
17.047036000000002
20
-100.18634
10
18.722729999999999
20
-103.05265900000002
10
20.398425000000007
20
-105.91897899999999
10
20.491837000000004
20
-106.08815
10
20.597294999999995
20
-106.22288400000001
10
20.714328000000002
20
-106.32253200000001
10
20.842469999999995
20
-106.38644499999999
10
20.981252000000001
20
-106.41397400000001
10
21.130206000000005
20
-106.40446799999999
10
21.288864000000007
20
-106.35727799999999
10
21.456758000000011
20
-106.27175600000001
10
23.132452000000008
20
-105.30161700000001
10
24.808146999999998
20
-104.33147900000002
10
26.483840999999995
20
-103.36134000000001
10
28.159536000000003
20
-102.39120100000001
10
29.835229999999999
20
-101.42106200000001
10
31.510925000000007
20
-100.450923
10
34.862313
20
-98.510644999999997
10
42.232694999999993
20
-98.511658000000011
10
93.819348000000019
20
-98.511658000000011
10
94.121843999999996
20
-98.481211000000002
10
94.403500000000008
20
-98.39387600000002
10
94.658308000000005
20
-98.25566000000002
10
94.880261000000004
20
-98.072571000000011
10
95.063349000000002
20
-97.850619000000009
10
95.201565000000002
20
-97.59581
10
95.288900999999996
20
-97.314154000000016
10
95.319348000000005
20
-97.011657999999997
10
95.319348000000005
20
-87.289735000000007
10
95.390390999999994
20
-86.583911000000015
10
95.594173999999995
20
-85.926713000000007
10
95.916678000000019
20
-85.332160000000016
10
96.343884000000003
20
-84.814271000000019
10
96.861772999999999
20
-84.387065000000007
10
97.456326000000004
20
-84.064560999999998
10
98.113524000000012
20
-83.86077800000001
10
98.819348000000019
20
-83.789734999999993
10
140.95999900000004
20
-83.789734999999993
10
141.262495
20
-83.759287999999998
10
141.544152
20
-83.671952000000005
10
141.79895999999999
20
-83.533736000000005
10
142.02091200000001
20
-83.350648000000007
10
142.20400100000001
20
-83.128696000000005
10
142.34221700000001
20
-82.873886999999996
10
142.429552
20
-82.592230999999998
10
142.45999900000001
20
-82.289735000000007
10
142.46000000000009
20
-73.789734912917467
42
-1.0000000722360614
10
144.46000000000006
20
-73.789735231554616
10
144.46000000000001
20
-83.789734999999993
10
150.46000000000001
20
-83.789734999999993
10
150.45999999999995
20
-73.789734774288235
42
-0.99999984424901511
10
152.45999999999992
20
-73.78973491420976
10
152.46000100000003
20
-82.289735000000007
10
152.49044800000004
20
-82.592230999999998
10
152.57778300000004
20
-82.873886999999996
10
152.71599900000004
20
-83.128696000000005
10
152.89908800000003
20
-83.350648000000007
10
153.12104000000005
20
-83.533736000000005
10
153.37584800000005
20
-83.671952000000005
10
153.65750500000004
20
-83.759287999999998
10
153.96000100000003
20
-83.789734999999993
10
196.10065200000003
20
-83.789734999999993
10
196.80647600000003
20
-83.86077800000001
10
197.46367400000003
20
-84.064560999999998
10
198.05822700000004
20
-84.387065000000007
10
198.57611600000007
20
-84.814271000000019
10
199.00332200000003
20
-85.332160000000016
10
199.32582600000003
20
-85.926713000000007
10
199.52960900000005
20
-86.583911000000015
10
199.60065200000003
20
-87.289735000000007
10
199.60065200000003
20
-97.011657999999997
10
199.63109900000006
20
-97.314154000000016
10
199.71843500000006
20
-97.59581
10
199.85665100000006
20
-97.850619000000009
10
200.03973900000005
20
-98.072571000000011
10
200.26169200000004
20
-98.25566000000002
10
200.51650000000001
20
-98.39387600000002
10
200.79815600000003
20
-98.481211000000002
10
201.10065200000003
20
-98.511658000000011
10
252.68730500000004
20
-98.511658000000011
10
260.05768700000004
20
-98.510644999999997
10
263.40907500000003
20
-100.450923
10
265.08477000000005
20
-101.42106200000001
10
266.76046400000007
20
-102.39120100000001
10
268.43615900000003
20
-103.36134000000001
10
270.11185300000005
20
-104.33147900000002
10
271.78754800000002
20
-105.30161700000001
10
273.46324200000004
20
-106.27175600000001
10
273.63113600000008
20
-106.35727799999999
10
273.78979400000003
20
-106.40446799999999
10
273.93874800000003
20
-106.41397400000001
10
274.07753000000008
20
-106.38644499999999
10
274.20567200000005
20
-106.32253200000001
10
274.32270500000004
20
-106.22288400000001
10
274.42816300000004
20
-106.08815
10
274.52157500000004
20
-105.91897899999999
10
276.19727000000006
20
-103.05265900000002
10
277.87296400000002
20
-100.18634
10
279.54865900000004
20
-97.320020000000014
10
281.22435300000006
20
-94.453700999999995
10
282.90004800000008
20
-91.587380999999993
10
284.57574200000005
20
-88.721062000000018
10
286.25143700000001
20
-85.854742000000002
10
287.92666700000007
20
-82.989540000000005
10
289.62824200000006
20
-79.318072999999998
10
291.05689500000005
20
-75.530670000000001
10
292.23199600000004
20
-71.649126999999993
10
293.17291700000004
20
-67.695245999999997
10
293.89902800000004
20
-63.690825000000004
10
294.42970300000007
20
-59.657662999999999
10
294.78431000000006
20
-55.617561000000002
10
294.98247200000003
20
-51.592229000000003
10
294.98247200000003
20
-7.4436949999999946
10
294.98179000000005
20
-1.1367620000000045
10
294.96047700000008
20
-0.92501500000000014
10
294.89934300000004
20
-0.7278550000000017
10
294.80259100000006
20
-0.549489000000003
10
294.67443000000003
20
-0.394123000000004
10
294.51906300000007
20
-0.265960999999999
10
294.34069700000003
20
-0.16920999999999964
10
294.14353800000004
20
-0.10807500000000303
10
293.93179000000003
20
-0.086762000000000228
10
210.66911900000002
20
-0.086762000000000228
10
198.93043700000004
20
-0.21565400000000068
10
188.00046200000003
20
-0.58537399999999629
10
178.11234600000006
20
-1.1704880000000006
10
169.49924200000004
20
-1.9455609999999979
10
162.39430300000004
20
-2.8851590000000016
10
157.03068100000002
20
-3.9638470000000048
10
153.64152900000005
20
-5.1561900000000005
10
153.02000000000004
20
-5.7000000000000028
10
152.46000000000004
20
-6.4367550000000051
10
152.46000000000004
20
-16.436755000000019
42
-0.99999999999999989
10
150.46000000000004
20
-16.436755000000002
10
150.46000000000001
20
-6.4367550000000051
10
144.46000000000001
20
-6.4367550000000051
10
144.46000000000001
20
-16.436755000000012
42
-0.99999999999999989
0
ENDSEC
0
SECTION
2
OBJECTS
0
DICTIONARY
5
C
100
AcDbDictionary
3
ACAD_GROUP
350
D
3
ACAD_MLINESTYLE
350
17
0
DICTIONARY
5
D
100
AcDbDictionary
0
DICTIONARY
5
1A
330
C
100
AcDbDictionary
0
DICTIONARY
5
17
100
AcDbDictionary
0
ENDSEC
0
EOF
