0
SECTION
2
HEADER
9
$INSUNITS
70
4
9
$ACADVER
1
AC1014
9
$HANDSEED
5
FFFF
0
ENDSEC
0
SECTION
2
TABLES
0
TABLE
2
VPORT
5
8
100
AcDbSymbolTable
0
ENDTAB
0
TABLE
2
LTYPE
5
5
100
AcDbSymbolTable
0
LTYPE
5
14
100
AcDbSymbolTableRecord
100
AcDbLinetypeTableRecord
2
BYBLOCK
70
0
0
LTYPE
5
15
100
AcDbSymbolTableRecord
100
AcDbLinetypeTableRecord
2
BYLAYER
70
0
0
ENDTAB
0
TABLE
2
LAYER
5
2
100
AcDbSymbolTable
70
2
0
LAYER
5
50
100
AcDbSymbolTableRecord
100
AcDbLayerTableRecord
2
0
70
0
6
CONTINUOUS
0
ENDTAB
0
TABLE
2
STYLE
5
3
100
AcDbSymbolTable
70
1
0
STYLE
5
11
100
AcDbSymbolTableRecord
100
AcDbTextStyleTableRecord
2
STANDARD
70
0
0
ENDTAB
0
TABLE
2
VIEW
5
6
100
AcDbSymbolTable
70
0
0
ENDTAB
0
TABLE
2
UCS
5
7
100
AcDbSymbolTable
70
0
0
ENDTAB
0
TABLE
2
APPID
5
9
100
AcDbSymbolTable
70
2
0
APPID
5
12
100
AcDbSymbolTableRecord
100
AcDbRegAppTableRecord
2
ACAD
70
0
0
ENDTAB
0
TABLE
2
DIMSTYLE
5
A
100
AcDbSymbolTable
70
1
0
ENDTAB
0
TABLE
2
BLOCK_RECORD
5
1
100
AcDbSymbolTable
70
1
0
BLOCK_RECORD
5
1F
100
AcDbSymbolTableRecord
100
AcDbBlockTableRecord
2
*MODEL_SPACE
0
BLOCK_RECORD
5
1B
100
AcDbSymbolTableRecord
100
AcDbBlockTableRecord
2
*PAPER_SPACE
0
ENDTAB
0
ENDSEC
0
SECTION
2
BLOCKS
0
BLOCK
5
20
100
AcDbEntity
100
AcDbBlockBegin
2
*MODEL_SPACE
0
ENDBLK
5
21
100
AcDbEntity
100
AcDbBlockEnd
0
BLOCK
5
1C
100
AcDbEntity
100
AcDbBlockBegin
2
*PAPER_SPACE
0
ENDBLK
5
1D
100
AcDbEntity
100
AcDbBlockEnd
0
ENDSEC
0
SECTION
2
ENTITIES
0
LWPOLYLINE
5
100
100
AcDbEntity
8
0
100
AcDbPolyline
90
153
70
1
43
0.0
10
-25.973238569570039
20
106.87724858697055
42
0.3144983341403742
10
-26.740474444684786
20
107.72685858573637
10
-60.034419999999962
20
115.41337200000021
10
-60.923057999999997
20
115.59739999999999
10
-61.81913000000003
20
115.74092799999976
10
-62.720789000000003
20
115.84365900000002
10
-63.626181000000003
20
115.905382
10
-64.533442000000008
20
115.92597000000001
10
-119.958628
20
115.92596999999999
10
-120.14943700000003
20
115.90759700000005
10
-120.33323399999999
20
115.85315399999999
10
-120.503266
20
115.76464100000001
10
-120.65328500000004
20
115.64531000000004
10
-120.777779
20
115.49954700000001
10
-120.87217199999999
20
115.33270700000001
10
-120.93299799999397
20
115.15092199999859
10
-133.35132299999998
20
61.361246999999999
10
-133.376487
20
61.166834000000001
10
-133.36323899999991
20
60.971248000000024
10
-133.3120889999999
20
60.782004000000043
10
-133.22500099999996
20
60.606376000000004
10
-133.10532399999997
20
60.451112000000023
10
-132.95765599999999
20
60.322179000000006
10
-132.78767100000002
20
60.224532999999944
10
-132.60190399999891
20
60.161926000004684
10
-117.28355100000005
20
56.625404999999809
10
-116.39491300000002
20
56.44137700000001
10
-115.49884099999997
20
56.297849000000255
10
-114.597182
20
56.195118000000008
10
-113.69179000000001
20
56.133395000000007
10
-112.78453
20
56.112807000000004
10
-97.842175999999995
20
56.112807000000004
10
-96.934916000000015
20
56.09221800000001
10
-96.029523999999952
20
56.030495000000258
10
-95.127865000000014
20
55.92776400000001
10
-94.231793000000025
20
55.784235999999801
10
-93.343154999997481
20
55.600208000010916
10
-67.943291000000002
20
49.736187000000037
10
-67.761504999999985
20
49.675363000000019
10
-67.594665000000035
20
49.580969999999986
10
-67.448900999999992
20
49.456476000000016
10
-67.329570999999959
20
49.30645700000003
10
-67.241057000000097
20
49.136423999999977
10
-67.18661400000002
20
48.952626000000009
10
-67.168242000000021
20
48.761817000000001
10
-67.168242000000006
20
31.672636000000001
10
-67.14902699999999
20
31.477546000000007
10
-67.092121999999975
20
31.289952000000021
10
-66.99971199999996
20
31.117066000000044
10
-66.875349000000043
20
30.965528999999957
10
-66.723812000000024
20
30.841165999999976
10
-66.550926000000004
20
30.748755999999993
10
-66.363332
20
30.691851
10
-66.168242000000006
20
30.672636000000004
10
-51.606161999999998
20
30.672636000000008
10
-51.415353000000025
20
30.654263999999934
10
-51.231555000000014
20
30.59981999999998
10
-51.061522999999951
20
30.511307000000066
10
-50.911502999999982
20
30.391976000000021
10
-50.787010000000016
20
30.246212999999997
10
-50.692616000000044
20
30.079372999999986
10
-50.63179199999972
20
29.897587000000069
10
-49.630049000000042
20
25.558561999999988
10
-49.571574999999996
20
25.38209800000001
10
-49.481450000000024
20
25.219505999999988
10
-49.362786
20
25.076406000000016
10
-49.219686000000003
20
24.957741999999993
10
-49.057093999999992
20
24.867617000000031
10
-48.880630000000977
20
24.809142999995739
10
-28.922691000000039
20
20.201489999999801
10
-28.034053
20
20.017461999999998
10
-27.137980999999968
20
19.873934000000254
10
-26.236322000000001
20
19.771203
10
-25.330930000000002
20
19.709480000000013
10
-24.423670000000001
20
19.688891000000002
10
9.0189039999999991
20
19.688891000000002
10
9.926164
20
19.709483000000013
10
10.83155500000001
20
19.771207999999913
10
11.733214999999939
20
19.87393900000037
10
12.629285999999972
20
20.01746500000014
10
13.517924999999023
20
20.201490000004263
10
33.47586400000003
20
24.809142999999942
10
33.652265000000007
20
24.867737999999989
10
33.81480999999998
20
24.957896000000034
10
33.957882999999988
20
25.076552000000014
10
34.076550000000083
20
25.219616999999957
10
34.166719999999962
20
25.382155000000015
10
34.225283000000289
20
25.558561999999934
10
35.227026000000031
20
29.897586999999994
10
35.287888000000052
20
30.079359999999976
10
35.382274000000024
20
30.246199999999988
10
35.506760000000035
20
30.391963999999952
10
35.656773000000044
20
30.511296999999921
10
35.826799000000022
20
30.599812999999941
10
36.010592000000003
20
30.654259000000003
10
36.201396000000003
20
30.672636000000004
10
50.763475999999997
20
30.672636000000008
10
50.958476999999995
20
30.692115000000037
10
51.145961999999983
20
30.74913400000003
10
51.31874899999999
20
30.841581000000005
10
51.47021699999997
20
30.965917000000026
10
51.594564000000062
20
31.117375999999972
10
51.687025000000105
20
31.29015499999997
10
51.744056999999998
20
31.477637000000005
10
51.763475999999997
20
31.672636000000001
10
51.763476000000004
20
48.761817000000001
10
51.781842999999988
20
48.952625000000012
10
51.836291999999951
20
49.136421000000034
10
51.924807999999942
20
49.30645100000006
10
52.04413999999997
20
49.456469000000027
10
52.189903000000008
20
49.580963000000004
10
52.356741000000035
20
49.675357999999925
10
52.538524999998373
20
49.736187000007078
10
77.938389999999956
20
55.600208000000208
10
78.827028000000013
20
55.784235999999943
10
79.723100000000045
20
55.927762999999722
10
80.624759000000012
20
56.030495000000002
10
81.530151000000018
20
56.092218000000003
10
82.437410999999997
20
56.112807000000004
10
97.379764000000009
20
56.112806999999989
10
98.287024000000002
20
56.133392999999984
10
99.192414999999983
20
56.195120000000159
10
100.09407499999998
20
56.297853000000188
10
100.99014599999997
20
56.441380000000137
10
101.87878500000109
20
56.625404999995311
10
117.19713800000001
20
60.16192600000003
10
117.38291099999995
20
60.224523000000083
10
117.55289800000001
20
60.322168999999981
10
117.70056899999999
20
60.45110200000002
10
117.82024700000001
20
60.60636800000001
10
117.90733400000006
20
60.781998999999985
10
117.958482
20
60.971245000000003
10
117.97172599999996
20
61.166833999999994
10
117.94655700000605
20
61.361247000001399
10
105.52823199999995
20
115.15092199999998
10
105.46736899999992
20
115.33269399999996
10
105.37298100000007
20
115.49953100000008
10
105.24849400000005
20
115.64529300000005
10
105.09848100000001
20
115.764625
10
104.92845600000001
20
115.85314200000001
10
104.744665
20
115.90759100000001
10
104.553862
20
115.92597000000001
10
49.128675999999999
20
115.92597000000001
10
48.221416000000005
20
115.90538700000005
10
47.316024000000034
20
115.84366599999967
10
46.41436299999998
20
115.74093500000018
10
45.518292000000031
20
115.5974049999999
10
44.62965400000158
20
115.4133719999932
10
8.5183895584121299
20
107.07642834707123
42
0.28674536979660559
10
7.7689705878813866
20
106.32700936747659
10
6.2596717542043612
20
99.789518581794312
42
-0.41421356237310381
10
5.0603506175001689
20
99.040099599478992
10
-25.206002705400778
20
106.02763859073173
42
-0.31449833105427077
0
LWPOLYLINE
5
101
100
AcDbEntity
8
0
100
AcDbPolyline
90
4
70
1
43
0.0
10
-118.88052100000002
20
112.92766800000001
10
-105.2393399999998
20
109.77835299999995
10
-108.38865500000006
20
96.137171999999765
10
-122.02983600000024
20
99.286487000000051
0
LWPOLYLINE
5
102
100
AcDbEntity
8
0
100
AcDbPolyline
90
4
70
1
43
0.0
10
-79.880959000000018
20
112.92767000000001
10
-66.239777999999788
20
109.77835499999996
10
-69.389093000000059
20
96.137173999999774
10
-83.030274000000247
20
99.28648900000006
0
LWPOLYLINE
5
103
100
AcDbEntity
8
0
100
AcDbPolyline
90
4
70
1
43
0.0
10
-99.380737000000011
20
112.92767300000001
10
-85.739555999999766
20
109.77835799999995
10
-88.888871000000051
20
96.137176999999781
10
-102.53005200000024
20
99.286492000000067
0
LWPOLYLINE
5
104
100
AcDbEntity
8
0
100
AcDbPolyline
90
4
70
1
43
0.0
10
-14.702383000000001
20
36.188892000000003
10
-0.70238299999999976
20
36.188892000000003
10
-0.70238299999999976
20
22.188891999999999
10
-14.702383000000001
20
22.188891999999999
0
LWPOLYLINE
5
105
100
AcDbEntity
8
0
100
AcDbPolyline
90
4
70
1
43
0.0
10
-84.155034000000001
20
94.41464000000002
10
-70.51385299999977
20
91.265324999999962
10
-73.663168000000056
20
77.624143999999788
10
-87.304349000000229
20
80.773459000000059
0
CIRCLE
5
106
100
AcDbEntity
8
0
100
AcDbCircle
10
-105.55608599999999
20
96.526050000000012
30
0
40
1.1500000000000021
210
0
220
-0
230
1
0
LWPOLYLINE
5
107
100
AcDbEntity
8
0
100
AcDbPolyline
90
4
70
1
43
0.0
10
-123.154591
20
94.41464000000002
10
-109.51340999999977
20
91.265324999999962
10
-112.66272500000005
20
77.624143999999788
10
-126.30390600000024
20
80.773459000000059
0
LWPOLYLINE
5
108
100
AcDbEntity
8
0
100
AcDbPolyline
90
4
70
1
43
0.0
10
-14.702383000000001
20
55.869137000000002
10
-0.70238299999999976
20
55.869137000000002
10
-0.70238299999999976
20
41.869137000000009
10
-14.702383000000001
20
41.869137000000009
0
LWPOLYLINE
5
109
100
AcDbEntity
8
0
100
AcDbPolyline
90
4
70
1
43
0.0
10
-103.65480900000001
20
94.414639000000008
10
-90.013627999999784
20
91.26532399999995
10
-93.16294300000007
20
77.624142999999791
10
-106.80412400000023
20
80.773458000000062
0
CIRCLE
5
110
100
AcDbEntity
8
0
100
AcDbCircle
10
-70.656086000000016
20
80.106049999999996
30
0
40
1.1500000000000021
210
0
220
-0
230
1
0
LWPOLYLINE
5
111
100
AcDbEntity
8
0
100
AcDbPolyline
90
4
70
1
43
0.0
10
-60.381182000000003
20
112.92766900000001
10
-46.740000999999786
20
109.77835399999995
10
-49.889316000000065
20
96.137172999999791
10
-63.530497000000224
20
99.286488000000062
0
LWPOLYLINE
5
112
100
AcDbEntity
8
0
100
AcDbPolyline
90
4
70
1
43
0.0
10
35.26347100000001
20
47.172638000000006
10
49.26347100000001
20
47.172638000000006
10
49.26347100000001
20
33.172637999999999
10
35.26347100000001
20
33.172637999999999
0
LWPOLYLINE
5
113
100
AcDbEntity
8
0
100
AcDbPolyline
90
4
70
1
43
0.0
10
-42.854897999999999
20
104.37952799999999
10
-29.213716999999775
20
101.23021299999996
10
-32.363032000000054
20
87.589031999999776
10
-46.00421300000022
20
90.738347000000061
0
LWPOLYLINE
5
114
100
AcDbEntity
8
0
100
AcDbPolyline
90
4
70
1
43
0.0
10
-64.655252000000004
20
94.414637999999997
10
-51.014070999999781
20
91.265322999999938
10
-54.16338600000006
20
77.624141999999779
10
-67.804567000000233
20
80.773457000000064
0
CIRCLE
5
115
100
AcDbEntity
8
0
100
AcDbCircle
10
-30.866085999999999
20
82.316050000000004
30
0
40
1.1500000000000021
210
0
220
-0
230
1
0
LWPOLYLINE
5
116
100
AcDbEntity
8
0
100
AcDbPolyline
90
4
70
1
43
0.0
10
64.476195000000004
20
112.92767000000001
10
67.625509999999963
20
99.286489000000245
10
53.98432900000023
20
96.137174000000059
10
50.835014000000058
20
109.77835499999978
0
LWPOLYLINE
5
117
100
AcDbEntity
8
0
100
AcDbPolyline
90
4
70
1
43
0.0
10
44.976416000000008
20
112.92766700000001
10
48.125730999999952
20
99.286486000000238
10
34.484550000000226
20
96.137171000000052
10
31.335235000000058
20
109.77835199999978
0
LWPOLYLINE
5
118
100
AcDbEntity
8
0
100
AcDbPolyline
90
4
70
1
43
0.0
10
-47.128968
20
85.866501999999997
10
-33.487786999999784
20
82.717186999999939
10
-36.637102000000056
20
69.076005999999779
10
-50.278283000000229
20
72.225321000000051
0
LWPOLYLINE
5
119
100
AcDbEntity
8
0
100
AcDbPolyline
90
4
70
1
43
0.0
10
-25.328614999999999
20
95.831389000000001
10
-11.687433999999776
20
92.682073999999943
10
-14.836749000000054
20
79.040892999999784
10
-28.477930000000224
20
82.190208000000069
0
LWPOLYLINE
5
120
100
AcDbEntity
8
0
100
AcDbPolyline
90
4
70
1
43
0.0
10
103.47575000000001
20
112.92766900000001
10
106.62506499999995
20
99.286488000000247
10
92.983884000000216
20
96.137173000000061
10
89.834569000000059
20
109.77835399999977
0
LWPOLYLINE
5
121
100
AcDbEntity
8
0
100
AcDbPolyline
90
4
70
1
43
0.0
10
27.450130000000001
20
104.37952900000001
10
30.59944499999995
20
90.738348000000229
10
16.958264000000227
20
87.589033000000057
10
13.808949000000055
20
101.23021399999978
0
LWPOLYLINE
5
122
100
AcDbEntity
8
0
100
AcDbPolyline
90
4
70
1
43
0.0
10
83.975971999999999
20
112.927672
10
87.125286999999943
20
99.286491000000225
10
73.484106000000224
20
96.137176000000068
10
70.334791000000052
20
109.77835699999979
0
LWPOLYLINE
5
123
100
AcDbEntity
8
0
100
AcDbPolyline
90
4
70
1
43
0.0
10
49.250484999999998
20
94.414639000000008
10
52.399799999999949
20
80.773458000000232
10
38.758619000000223
20
77.624143000000061
10
35.609304000000051
20
91.265323999999765
0
CIRCLE
5
124
100
AcDbEntity
8
0
100
AcDbCircle
10
90.153914
20
96.536050000000003
30
0
40
1.1500000000000021
210
0
220
-0
230
1
0
LWPOLYLINE
5
125
100
AcDbEntity
8
0
100
AcDbPolyline
90
4
70
1
43
0.0
10
88.250043000000019
20
94.414637999999997
10
91.399357999999964
20
80.773457000000235
10
77.758177000000231
20
77.624142000000063
10
74.608862000000059
20
91.265322999999768
0
LWPOLYLINE
5
126
100
AcDbEntity
8
0
100
AcDbPolyline
90
4
70
1
43
0.0
10
31.724201000000001
20
85.866501999999997
10
34.873515999999945
20
72.225321000000235
10
21.232335000000223
20
69.076006000000064
10
18.083020000000054
20
82.717186999999768
0
CIRCLE
5
127
100
AcDbEntity
8
0
100
AcDbCircle
10
15.463914000000001
20
82.326049999999995
30
0
40
1.1499999999999999
210
0
220
-0
230
1
0
LWPOLYLINE
5
128
100
AcDbEntity
8
0
100
AcDbPolyline
90
4
70
1
43
0.0
10
68.750264000000001
20
94.414639000000008
10
71.899578999999946
20
80.773458000000232
10
58.258398000000227
20
77.624143000000061
10
55.109083000000055
20
91.265323999999765
0
LWPOLYLINE
5
129
100
AcDbEntity
8
0
100
AcDbPolyline
90
4
70
1
43
0.0
10
9.9238470000000021
20
95.831393000000006
10
13.073161999999947
20
82.19021200000023
10
-0.56801899999977534
20
79.040897000000058
10
-3.7173339999999477
20
92.682077999999777
0
LWPOLYLINE
5
130
100
AcDbEntity
8
0
100
AcDbPolyline
90
4
70
1
43
0.0
10
107.74982100000001
20
94.414642000000001
10
110.89913599999996
20
80.773461000000225
10
97.257955000000237
20
77.624146000000053
10
94.108640000000051
20
91.265326999999772
0
CIRCLE
5
131
100
AcDbEntity
8
0
100
AcDbCircle
10
55.253914000000002
20
80.116050000000016
30
0
40
1.1500000000000021
210
0
220
-0
230
1
0
LWPOLYLINE
5
132
100
AcDbEntity
8
0
100
AcDbPolyline
90
35
70
1
43
0.0
10
-17.588463999999998
20
55.76787800000001
10
-17.364591000000019
20
55.757823999999935
10
-17.146111999999953
20
55.707958000000119
10
-16.940047000000007
20
55.619880999999999
10
-16.753021000000004
20
55.496425999999992
10
-16.591043999999961
20
55.34156000000003
10
-16.45932199999994
20
55.160261000000034
10
-16.362088999999898
20
54.95835600000003
10
-16.302471000000004
20
54.742333000000009
10
-16.282382999999996
20
54.519137000000001
10
-16.302471000000104
20
54.295941000000028
10
-16.362089000000065
20
54.079918000000035
10
-16.459322000000039
20
53.878013000000031
10
-16.591043999999997
20
53.696714
10
-16.753020999999993
20
53.541847999999995
10
-16.94004700000005
20
53.418393000000115
10
-17.146111999999984
20
53.330315999999939
10
-17.364591000000004
20
53.280450000000002
10
-17.588464000000009
20
53.270395999999927
10
-17.810533999999986
20
53.300477000000058
10
-18.023664000000018
20
53.369726999999969
10
-18.221003999999986
20
53.475920000000023
10
-18.39621100000004
20
53.61564299999997
10
-18.543654000000046
20
53.784404999999971
10
-18.658593999999983
20
53.976782000000014
10
-18.737337000000011
20
54.186591
10
-18.777350999999999
20
54.407088000000002
10
-18.777350999999992
20
54.631186000000007
10
-18.737337000000021
20
54.851683000000016
10
-18.658593999999958
20
55.061491999999973
10
-18.543653999999961
20
55.253868999999973
10
-18.396211000000019
20
55.422631000000024
10
-18.221003999999983
20
55.562353999999971
10
-18.023664000000018
20
55.668547000000061
10
-17.810533999999993
20
55.737796999999929
0
LWPOLYLINE
5
133
100
AcDbEntity
8
0
100
AcDbPolyline
90
4
70
1
43
0.0
10
-33.876756
20
58.80533100000001
10
-20.235574999999777
20
55.656015999999951
10
-23.384890000000055
20
42.014834999999778
10
-37.026071000000222
20
45.164150000000056
0
LWPOLYLINE
5
134
100
AcDbEntity
8
0
100
AcDbPolyline
90
4
70
1
43
0.0
10
-64.668242000000021
20
47.172638999999997
10
-50.668241999999999
20
47.172638999999997
10
-50.668241999999999
20
33.172638999999997
10
-64.668242000000021
20
33.172638999999997
0
CIRCLE
5
135
100
AcDbEntity
8
0
100
AcDbCircle
10
-47.606086000000005
20
40.69605
30
0
40
1.1500000000000021
210
0
220
-0
230
1
0
LWPOLYLINE
5
136
100
AcDbEntity
8
0
100
AcDbPolyline
90
4
70
1
43
0.0
10
27.937100000000004
20
40.464441000000008
10
31.086414999999946
20
26.823260000000225
10
17.445234000000227
20
23.673945000000053
10
14.295919000000055
20
37.315125999999779
0
CIRCLE
5
137
100
AcDbEntity
8
0
100
AcDbCircle
10
9.0439139999999991
20
34.546050000000001
30
0
40
1.1499999999999999
210
0
220
-0
230
1
0
CIRCLE
5
138
100
AcDbEntity
8
0
100
AcDbCircle
10
32.203913999999997
20
40.706049999999998
30
0
40
1.1499999999999977
210
0
220
-0
230
1
0
LWPOLYLINE
5
139
100
AcDbEntity
8
0
100
AcDbPolyline
90
35
70
1
43
0.0
10
-17.608464000000001
20
44.867878000000005
10
-17.384591000000015
20
44.857823999999937
10
-17.166111999999956
20
44.807958000000106
10
-16.960047000000003
20
44.719881000000001
10
-16.773021000000007
20
44.596425999999994
10
-16.611043999999961
20
44.441560000000031
10
-16.479321999999939
20
44.260261000000028
10
-16.382088999999901
20
44.058356000000032
10
-16.322471000000004
20
43.842333000000011
10
-16.302382999999995
20
43.619137000000009
10
-16.322471000000103
20
43.395941000000029
10
-16.382089000000061
20
43.179918000000029
10
-16.479321999999897
20
42.978012999999926
10
-16.611043999999996
20
42.796713999999994
10
-16.773020999999993
20
42.641847999999996
10
-16.960047000000046
20
42.51839300000011
10
-17.166111999999988
20
42.430315999999941
10
-17.384591
20
42.380450000000003
10
-17.608464000000012
20
42.370395999999928
10
-17.830533999999986
20
42.400477000000052
10
-18.043664000000014
20
42.46972699999997
10
-18.241003999999986
20
42.575920000000025
10
-18.41621100000004
20
42.715642999999972
10
-18.563654000000046
20
42.884404999999973
10
-18.678593999999983
20
43.076782000000016
10
-18.75733700000001
20
43.286591000000001
10
-18.797350999999999
20
43.507088000000003
10
-18.797350999999992
20
43.731186000000008
10
-18.757337000000021
20
43.951683000000017
10
-18.678593999999954
20
44.161491999999981
10
-18.563653999999964
20
44.353868999999968
10
-18.416211000000022
20
44.522631000000025
10
-18.241003999999979
20
44.662353999999958
10
-18.043664000000021
20
44.768547000000048
10
-17.830533999999989
20
44.837796999999924
0
LWPOLYLINE
5
140
100
AcDbEntity
8
0
100
AcDbPolyline
90
35
70
1
43
0.0
10
2.011536
20
55.76787800000001
10
2.2354089999999842
20
55.757823999999935
10
2.453888000000048
20
55.707958000000119
10
2.6599529999999931
20
55.619880999999999
10
2.8469789999999957
20
55.496425999999992
10
3.0089560000000395
20
55.34156000000003
10
3.1406780000000629
20
55.160261000000034
10
3.2379110000001021
20
54.95835600000003
10
3.2975289999999982
20
54.742333000000009
10
3.317617000000002
20
54.519137000000001
10
3.2975289999998978
20
54.295941000000028
10
3.2379109999999374
20
54.079918000000035
10
3.1406779999999612
20
53.878013000000031
10
3.0089560000000048
20
53.696714
10
2.8469790000000068
20
53.541847999999995
10
2.6599529999999523
20
53.418393000000115
10
2.4538880000000165
20
53.330315999999939
10
2.2354090000000006
20
53.280450000000002
10
2.0115359999999902
20
53.270395999999927
10
1.789466000000016
20
53.300477000000058
10
1.5763359999999818
20
53.369726999999969
10
1.3789960000000168
20
53.475920000000023
10
1.2037889999999609
20
53.61564299999997
10
1.0563459999999569
20
53.784404999999971
10
0.94140600000001962
20
53.976782000000014
10
0.86266299999999141
20
54.186591
10
0.82264899999999996
20
54.407088000000002
10
0.82264900000000862
20
54.631186000000007
10
0.86266299999998042
20
54.851683000000016
10
0.94140600000004326
20
55.061491999999973
10
1.0563460000000393
20
55.253868999999973
10
1.2037889999999836
20
55.422631000000024
10
1.3789960000000185
20
55.562353999999971
10
1.5763359999999844
20
55.668547000000061
10
1.7894660000000102
20
55.737796999999929
0
LWPOLYLINE
5
141
100
AcDbEntity
8
0
100
AcDbPolyline
90
4
70
1
43
0.0
10
-29.602685999999999
20
77.318359999999998
10
-15.961504999999779
20
74.169044999999954
10
-19.110820000000054
20
60.527863999999781
10
-32.75200100000022
20
63.677179000000059
0
LWPOLYLINE
5
142
100
AcDbEntity
8
0
100
AcDbPolyline
90
4
70
1
43
0.0
10
-127.42865999999999
20
75.901611000000003
10
-113.78747899999979
20
72.752295999999944
10
-116.93679400000006
20
59.111114999999785
10
-130.57797500000024
20
62.260430000000056
0
LWPOLYLINE
5
143
100
AcDbEntity
8
0
100
AcDbPolyline
90
4
70
1
43
0.0
10
-68.929322999999997
20
75.901606999999998
10
-55.28814199999978
20
72.752291999999954
10
-58.437457000000059
20
59.111110999999781
10
-72.078638000000225
20
62.260426000000059
0
LWPOLYLINE
5
144
100
AcDbEntity
8
0
100
AcDbPolyline
90
4
70
1
43
0.0
10
-107.92888000000002
20
75.901611000000003
10
-94.287698999999776
20
72.752295999999944
10
-97.437014000000062
20
59.111114999999785
10
-111.07819500000022
20
62.260430000000056
0
LWPOLYLINE
5
145
100
AcDbEntity
8
0
100
AcDbPolyline
90
4
70
1
43
0.0
10
-51.403037000000005
20
67.353465999999997
10
-37.761855999999781
20
64.204150999999939
10
-40.91117100000006
20
50.562969999999787
10
-54.552352000000226
20
53.712285000000065
0
LWPOLYLINE
5
146
100
AcDbEntity
8
0
100
AcDbPolyline
90
4
70
1
43
0.0
10
-88.429102999999998
20
75.901608999999993
10
-74.787921999999782
20
72.752293999999949
10
-77.937237000000053
20
59.111112999999776
10
-91.578418000000212
20
62.260428000000054
0
CIRCLE
5
147
100
AcDbEntity
8
0
100
AcDbCircle
10
-112.726086
20
66.08605
30
0
40
1.1500000000000021
210
0
220
-0
230
1
0
LWPOLYLINE
5
148
100
AcDbEntity
8
0
100
AcDbPolyline
90
4
70
1
43
0.0
10
-43.341865000000006
20
40.464438999999999
10
-29.700683999999775
20
37.31512399999994
10
-32.849999000000054
20
23.673942999999777
10
-46.491180000000227
20
26.823258000000052
0
LWPOLYLINE
5
149
100
AcDbEntity
8
0
100
AcDbPolyline
90
4
70
1
43
0.0
10
18.471988000000003
20
58.805326000000008
10
21.621302999999948
20
45.164145000000232
10
7.9801220000002235
20
42.01483000000006
10
4.8308070000000525
20
55.656010999999779
0
LWPOLYLINE
5
150
100
AcDbEntity
8
0
100
AcDbPolyline
90
4
70
1
43
0.0
10
14.197919000000001
20
77.318359000000001
10
17.347233999999943
20
63.677178000000232
10
3.706053000000221
20
60.527863000000067
10
0.55673800000005214
20
74.169043999999772
0
LWPOLYLINE
5
151
100
AcDbEntity
8
0
100
AcDbPolyline
90
4
70
1
43
0.0
10
53.524555999999997
20
75.901606000000015
10
56.673870999999949
20
62.260425000000225
10
43.032690000000223
20
59.111110000000053
10
39.883375000000058
20
72.752290999999786
0
CIRCLE
5
152
100
AcDbEntity
8
0
100
AcDbCircle
10
-24.446086000000005
20
34.536050000000003
30
0
40
1.1500000000000021
210
0
220
-0
230
1
0
LWPOLYLINE
5
153
100
AcDbEntity
8
0
100
AcDbPolyline
90
4
70
1
43
0.0
10
112.02388999999999
20
75.901604000000006
10
115.17320499999995
20
62.26042300000023
10
101.53202400000025
20
59.111108000000058
10
98.382709000000062
20
72.752288999999791
0
LWPOLYLINE
5
154
100
AcDbEntity
8
0
100
AcDbPolyline
90
4
70
1
43
0.0
10
73.024334999999994
20
75.901607999999996
10
76.173649999999938
20
62.260427000000227
10
62.532469000000226
20
59.111112000000062
10
59.383154000000062
20
72.752292999999767
0
LWPOLYLINE
5
155
100
AcDbEntity
8
0
100
AcDbPolyline
90
4
70
1
43
0.0
10
92.524113
20
75.901606000000015
10
95.673427999999944
20
62.260425000000225
10
82.032247000000226
20
59.111110000000053
10
78.882932000000054
20
72.752290999999786
0
CIRCLE
5
156
100
AcDbEntity
8
0
100
AcDbCircle
10
-7.7023830000000002
20
69.296049999999994
30
0
40
1.1499999999999999
210
0
220
-0
230
1
0
LWPOLYLINE
5
157
100
AcDbEntity
8
0
100
AcDbPolyline
90
4
70
1
43
0.0
10
35.998269999999998
20
67.353468000000007
10
39.14758499999995
20
53.712287000000231
10
25.506404000000224
20
50.562972000000059
10
22.357089000000055
20
64.204152999999792
0
LWPOLYLINE
5
158
100
AcDbEntity
8
0
100
AcDbPolyline
90
35
70
1
43
0.0
10
1.9915360000000002
20
44.867878000000005
10
2.2154089999999842
20
44.857823999999937
10
2.4338880000000449
20
44.807958000000106
10
2.6399529999999976
20
44.719881000000001
10
2.8269789999999957
20
44.596425999999994
10
2.988956000000039
20
44.441560000000031
10
3.1206780000000629
20
44.260261000000028
10
3.2179110000001021
20
44.058356000000032
10
3.2775289999999977
20
43.842333000000011
10
3.297617000000002
20
43.619137000000009
10
3.2775289999998982
20
43.395941000000029
10
3.2179109999999405
20
43.179918000000029
10
3.1206780000001033
20
42.978012999999926
10
2.9889560000000044
20
42.796713999999994
10
2.8269790000000068
20
42.641847999999996
10
2.6399529999999558
20
42.51839300000011
10
2.4338880000000147
20
42.430315999999941
10
2.2154090000000006
20
42.380450000000003
10
1.9915359999999902
20
42.370395999999928
10
1.7694660000000133
20
42.400477000000052
10
1.5563359999999857
20
42.46972699999997
10
1.3589960000000167
20
42.575920000000025
10
1.1837889999999609
20
42.715642999999972
10
1.0363459999999569
20
42.884404999999973
10
0.92140600000001971
20
43.076782000000016
10
0.84266299999999139
20
43.286591000000001
10
0.80264899999999995
20
43.507088000000003
10
0.80264900000000872
20
43.731186000000008
10
0.8426629999999804
20
43.951683000000017
10
0.92140600000004702
20
44.161491999999981
10
1.0363460000000393
20
44.353868999999968
10
1.1837889999999791
20
44.522631000000025
10
1.3589960000000221
20
44.662353999999958
10
1.5563359999999815
20
44.768547000000048
10
1.7694660000000111
20
44.837796999999924
0
CIRCLE
5
159
100
AcDbEntity
8
0
100
AcDbCircle
10
97.323914000000002
20
66.096050000000005
30
0
40
1.1500000000000021
210
0
220
-0
230
1
0
ENDSEC
0
SECTION
2
OBJECTS
0
DICTIONARY
5
C
100
AcDbDictionary
3
ACAD_GROUP
350
D
3
ACAD_MLINESTYLE
350
17
0
DICTIONARY
5
D
100
AcDbDictionary
0
DICTIONARY
5
1A
330
C
100
AcDbDictionary
0
DICTIONARY
5
17
100
AcDbDictionary
0
ENDSEC
0
EOF
