0
SECTION
2
HEADER
9
$INSUNITS
70
4
9
$ACADVER
1
AC1014
9
$HANDSEED
5
FFFF
0
ENDSEC
0
SECTION
2
TABLES
0
TABLE
2
VPORT
5
8
100
AcDbSymbolTable
0
ENDTAB
0
TABLE
2
LTYPE
5
5
100
AcDbSymbolTable
0
LTYPE
5
14
100
AcDbSymbolTableRecord
100
AcDbLinetypeTableRecord
2
BYBLOCK
70
0
0
LTYPE
5
15
100
AcDbSymbolTableRecord
100
AcDbLinetypeTableRecord
2
BYLAYER
70
0
0
ENDTAB
0
TABLE
2
LAYER
5
2
100
AcDbSymbolTable
70
2
0
LAYER
5
50
100
AcDbSymbolTableRecord
100
AcDbLayerTableRecord
2
0
70
0
6
CONTINUOUS
0
ENDTAB
0
TABLE
2
STYLE
5
3
100
AcDbSymbolTable
70
1
0
STYLE
5
11
100
AcDbSymbolTableRecord
100
AcDbTextStyleTableRecord
2
STANDARD
70
0
0
ENDTAB
0
TABLE
2
VIEW
5
6
100
AcDbSymbolTable
70
0
0
ENDTAB
0
TABLE
2
UCS
5
7
100
AcDbSymbolTable
70
0
0
ENDTAB
0
TABLE
2
APPID
5
9
100
AcDbSymbolTable
70
2
0
APPID
5
12
100
AcDbSymbolTableRecord
100
AcDbRegAppTableRecord
2
ACAD
70
0
0
ENDTAB
0
TABLE
2
DIMSTYLE
5
A
100
AcDbSymbolTable
70
1
0
ENDTAB
0
TABLE
2
BLOCK_RECORD
5
1
100
AcDbSymbolTable
70
1
0
BLOCK_RECORD
5
1F
100
AcDbSymbolTableRecord
100
AcDbBlockTableRecord
2
*MODEL_SPACE
0
BLOCK_RECORD
5
1B
100
AcDbSymbolTableRecord
100
AcDbBlockTableRecord
2
*PAPER_SPACE
0
ENDTAB
0
ENDSEC
0
SECTION
2
BLOCKS
0
BLOCK
5
20
100
AcDbEntity
100
AcDbBlockBegin
2
*MODEL_SPACE
0
ENDBLK
5
21
100
AcDbEntity
100
AcDbBlockEnd
0
BLOCK
5
1C
100
AcDbEntity
100
AcDbBlockBegin
2
*PAPER_SPACE
0
ENDBLK
5
1D
100
AcDbEntity
100
AcDbBlockEnd
0
ENDSEC
0
SECTION
2
ENTITIES
0
LWPOLYLINE
5
100
100
AcDbEntity
8
0
100
AcDbPolyline
90
111
70
1
43
0.0
10
78.812984
20
-38.881000999999998
10
78.692391000000001
20
-38.831052999999997
10
78.562979999999996
20
-38.814019999999999
10
59.602980000000009
20
-38.814019999999999
10
59.473571999999997
20
-38.831097999999997
10
59.352980000000002
20
-38.881033000000002
10
59.249423999999998
20
-38.960481999999999
10
59.16996300000001
20
-39.064028000000008
10
59.120013
20
-39.184614000000003
10
59.102980000000009
20
-39.314019999999999
10
59.102980000000009
20
-40.564019999999999
10
59.085881000000001
20
-40.693418000000001
10
59.035937000000004
20
-40.813997999999998
10
58.956489000000005
20
-40.917546000000009
10
58.85295
20
-40.997007000000004
10
58.732376000000002
20
-41.046965999999998
10
58.602980000000002
20
-41.064019999999999
10
41.592979999999997
20
-41.064019999999999
10
41.463571999999999
20
-41.081098000000004
10
41.342980000000004
20
-41.131033000000002
10
41.239424
20
-41.210481999999999
10
41.159962999999998
20
-41.314028
10
41.110013000000009
20
-41.434614000000003
10
41.092979999999997
20
-41.564019999999999
10
41.092979999999997
20
-43.064019999999999
10
41.075881000000003
20
-43.193418000000001
10
41.025936999999999
20
-43.313997999999998
10
40.946489
20
-43.417546000000009
10
40.842950000000002
20
-43.497007000000004
10
40.722376000000004
20
-43.546965999999998
10
40.592979999999997
20
-43.564019999999999
10
23.962499999999999
20
-43.549999999999997
10
23.827258
20
-43.568638
10
23.702097999999999
20
-43.623162000000008
10
23.596352
20
-43.709507000000009
10
23.517901999999999
20
-43.821235999999999
10
23.472598000000001
20
-43.950020000000009
10
23.421142000000003
20
-44.067605999999998
10
23.341463999999998
20
-44.168227000000002
10
23.238789000000001
20
-44.24524000000001
10
23.119887000000002
20
-44.293567000000003
10
22.992598000000001
20
-44.310020000000002
10
3.3725000000000005
20
-44.299999999999997
10
3.24309
20
-44.317036999999999
10
3.1225000000000005
20
-44.366987000000002
10
3.0189470000000003
20
-44.446447000000006
10
2.9394870000000002
20
-44.549999999999997
10
2.8895369999999998
20
-44.670589999999997
10
2.8725000000000001
20
-44.799999999999997
10
2.7925
20
-104.74000000000001
10
15.0425
20
-125.92
10
15.194217999999999
20
-126.108957
10
15.376524
20
-126.26860700000002
10
15.583838
20
-126.39408500000002
10
15.809829000000002
20
-126.481559
10
16.047597
20
-126.528357
10
16.289881000000001
20
-126.533052
10
16.529283
20
-126.49549800000001
10
16.758493000000001
20
-126.41684400000001
10
16.970511999999999
20
-126.29949100000002
10
30.527979999999999
20
-118.47402000000001
10
30.852029000000005
20
-118.39317700000001
10
31.182424000000001
20
-118.34436400000001
10
66.146636999999998
20
-113.77497700000001
10
66.295580999999999
20
-113.72344200000001
10
66.422500000000014
20
-113.63
10
77.959693000000001
20
-101.236852
10
78.059155000000004
20
-101.167789
10
78.172302999999999
20
-101.124662
10
78.292500000000004
20
-101.11000000000001
10
113.17298000000001
20
-101.08402
10
132.2825
20
-101.08000000000001
10
132.41191000000001
20
-101.062963
10
132.53250000000003
20
-101.01301300000002
10
132.636053
20
-100.933553
10
132.71551299999999
20
-100.83
10
132.76546300000001
20
-100.70941000000002
10
132.7825
20
-100.58
10
132.7825
20
-48.260000000000005
10
132.76546300000001
20
-48.130589999999998
10
132.71551299999999
20
-48.010000000000005
10
132.636053
20
-47.906447000000007
10
132.53250000000003
20
-47.826987000000003
10
132.41191000000001
20
-47.777037
10
132.2825
20
-47.759999999999998
10
113.11750000000002
20
-47.764020000000002
10
97.602500000000006
20
-47.759999999999998
10
97.473090000000013
20
-47.742963000000003
10
97.352500000000006
20
-47.693013000000008
10
97.248947000000001
20
-47.61355300000001
10
97.169487000000018
20
-47.510000000000005
10
97.119537000000008
20
-47.389409999999998
10
97.10250000000002
20
-47.259999999999998
10
97.092980000000011
20
-41.564019999999999
10
97.075947000000014
20
-41.434609000000002
10
97.025999000000013
20
-41.314016000000002
10
96.946539000000001
20
-41.210461000000002
10
96.842984000000015
20
-41.131000999999998
10
96.722391000000002
20
-41.081052999999997
10
96.592979999999997
20
-41.064019999999999
10
79.56298000000001
20
-41.064019999999999
10
79.433571999999998
20
-41.046979000000007
10
79.312984
20
-40.99702700000001
10
79.209432000000007
20
-40.917568000000003
10
79.129973000000007
20
-40.814016000000002
10
79.080021000000016
20
-40.693428000000004
10
79.062979999999996
20
-40.564019999999999
10
79.062979999999996
20
-39.314019999999999
10
79.045947000000012
20
-39.184609000000002
10
78.995998999999998
20
-39.064016000000009
10
78.916539
20
-38.960461000000002
0
CIRCLE
5
101
100
AcDbEntity
8
0
100
AcDbCircle
10
114.1225
20
-83.160000000000011
30
0
40
1.5500000000000003
210
0
220
-0
230
1
0
CIRCLE
5
102
100
AcDbEntity
8
0
100
AcDbCircle
10
73.172499999999999
20
-96.52000000000001
30
0
40
1.5500000000000003
210
0
220
-0
230
1
0
CIRCLE
5
103
100
AcDbEntity
8
0
100
AcDbCircle
10
23.852499999999999
20
-101.06999999999999
30
0
40
1.5500000000000003
210
0
220
-0
230
1
0
CIRCLE
5
104
100
AcDbEntity
8
0
100
AcDbCircle
10
114.1225
20
-66.02000000000001
30
0
40
1.5500000000000003
210
0
220
-0
230
1
0
CIRCLE
5
105
100
AcDbEntity
8
0
100
AcDbCircle
10
42.329999999999998
20
-59.390000000000001
30
0
40
1.5500000000000003
210
0
220
-0
230
1
0
ENDSEC
0
SECTION
2
OBJECTS
0
DICTIONARY
5
C
100
AcDbDictionary
3
ACAD_GROUP
350
D
3
ACAD_MLINESTYLE
350
17
0
DICTIONARY
5
D
100
AcDbDictionary
0
DICTIONARY
5
1A
330
C
100
AcDbDictionary
0
DICTIONARY
5
17
100
AcDbDictionary
0
ENDSEC
0
EOF
