%TF.GenerationSoftware,KiCad,Pcbnew,(6.0.8-1)-1*%
%TF.CreationDate,2023-02-27T10:47:16+02:00*%
%TF.ProjectId,sweepv2,73776565-7076-4322-9e6b-696361645f70,rev?*%
%TF.SameCoordinates,Original*%
%TF.FileFunction,Legend,Top*%
%TF.FilePolarity,Positive*%
%FSLAX46Y46*%
G04 Gerber Fmt 4.6, Leading zero omitted, Abs format (unit mm)*
G04 Created by KiCad (PCBNEW (6.0.8-1)-1) date 2023-02-27 10:47:16*
%MOMM*%
%LPD*%
G01*
G04 APERTURE LIST*
%ADD10C,0.300000*%
%ADD11C,0.100000*%
%ADD12C,0.150000*%
%ADD13C,0.010000*%
%ADD14C,0.200000*%
%ADD15C,0.120000*%
%ADD16C,1.397000*%
G04 APERTURE END LIST*
D10*
X29610857Y-71690857D02*
X29610857Y-72190857D01*
X30396571Y-72190857D02*
X28896571Y-72190857D01*
X28896571Y-71476571D01*
X30396571Y-70262285D02*
X29610857Y-70262285D01*
X29468000Y-70333714D01*
X29396571Y-70476571D01*
X29396571Y-70762285D01*
X29468000Y-70905142D01*
X30325142Y-70262285D02*
X30396571Y-70405142D01*
X30396571Y-70762285D01*
X30325142Y-70905142D01*
X30182285Y-70976571D01*
X30039428Y-70976571D01*
X29896571Y-70905142D01*
X29825142Y-70762285D01*
X29825142Y-70405142D01*
X29753714Y-70262285D01*
X30325142Y-68905142D02*
X30396571Y-69048000D01*
X30396571Y-69333714D01*
X30325142Y-69476571D01*
X30253714Y-69548000D01*
X30110857Y-69619428D01*
X29682285Y-69619428D01*
X29539428Y-69548000D01*
X29468000Y-69476571D01*
X29396571Y-69333714D01*
X29396571Y-69048000D01*
X29468000Y-68905142D01*
X30325142Y-67690857D02*
X30396571Y-67833714D01*
X30396571Y-68119428D01*
X30325142Y-68262285D01*
X30182285Y-68333714D01*
X29610857Y-68333714D01*
X29468000Y-68262285D01*
X29396571Y-68119428D01*
X29396571Y-67833714D01*
X29468000Y-67690857D01*
X29610857Y-67619428D01*
X29753714Y-67619428D01*
X29896571Y-68333714D01*
X30396571Y-65190857D02*
X28896571Y-65190857D01*
X30325142Y-65190857D02*
X30396571Y-65333714D01*
X30396571Y-65619428D01*
X30325142Y-65762285D01*
X30253714Y-65833714D01*
X30110857Y-65905142D01*
X29682285Y-65905142D01*
X29539428Y-65833714D01*
X29468000Y-65762285D01*
X29396571Y-65619428D01*
X29396571Y-65333714D01*
X29468000Y-65190857D01*
X30396571Y-64262285D02*
X30325142Y-64405142D01*
X30253714Y-64476571D01*
X30110857Y-64548000D01*
X29682285Y-64548000D01*
X29539428Y-64476571D01*
X29468000Y-64405142D01*
X29396571Y-64262285D01*
X29396571Y-64048000D01*
X29468000Y-63905142D01*
X29539428Y-63833714D01*
X29682285Y-63762285D01*
X30110857Y-63762285D01*
X30253714Y-63833714D01*
X30325142Y-63905142D01*
X30396571Y-64048000D01*
X30396571Y-64262285D01*
X29396571Y-63262285D02*
X30396571Y-62976571D01*
X29682285Y-62690857D01*
X30396571Y-62405142D01*
X29396571Y-62119428D01*
X29396571Y-61548000D02*
X30396571Y-61548000D01*
X29539428Y-61548000D02*
X29468000Y-61476571D01*
X29396571Y-61333714D01*
X29396571Y-61119428D01*
X29468000Y-60976571D01*
X29610857Y-60905142D01*
X30396571Y-60905142D01*
D11*
%TO.C,REF\u002A\u002A*%
X75223714Y-41749500D02*
X76223714Y-41749500D01*
X75271333Y-41749500D02*
X75223714Y-41654261D01*
X75223714Y-41463785D01*
X75271333Y-41368547D01*
X75318952Y-41320928D01*
X75414190Y-41273309D01*
X75699904Y-41273309D01*
X75795142Y-41320928D01*
X75842761Y-41368547D01*
X75890380Y-41463785D01*
X75890380Y-41654261D01*
X75842761Y-41749500D01*
X75223714Y-40416166D02*
X75890380Y-40416166D01*
X75223714Y-40844738D02*
X75747523Y-40844738D01*
X75842761Y-40797119D01*
X75890380Y-40701880D01*
X75890380Y-40559023D01*
X75842761Y-40463785D01*
X75795142Y-40416166D01*
X75842761Y-39511404D02*
X75890380Y-39606642D01*
X75890380Y-39797119D01*
X75842761Y-39892357D01*
X75795142Y-39939976D01*
X75699904Y-39987595D01*
X75414190Y-39987595D01*
X75318952Y-39939976D01*
X75271333Y-39892357D01*
X75223714Y-39797119D01*
X75223714Y-39606642D01*
X75271333Y-39511404D01*
X75890380Y-39082833D02*
X74890380Y-39082833D01*
X75509428Y-38987595D02*
X75890380Y-38701880D01*
X75223714Y-38701880D02*
X75604666Y-39082833D01*
X75287214Y-55640000D02*
X75287214Y-55259047D01*
X74953880Y-55497142D02*
X75811023Y-55497142D01*
X75906261Y-55449523D01*
X75953880Y-55354285D01*
X75953880Y-55259047D01*
X75906261Y-54544761D02*
X75953880Y-54640000D01*
X75953880Y-54830476D01*
X75906261Y-54925714D01*
X75811023Y-54973333D01*
X75430071Y-54973333D01*
X75334833Y-54925714D01*
X75287214Y-54830476D01*
X75287214Y-54640000D01*
X75334833Y-54544761D01*
X75430071Y-54497142D01*
X75525309Y-54497142D01*
X75620547Y-54973333D01*
X75287214Y-54068571D02*
X75953880Y-54068571D01*
X75382452Y-54068571D02*
X75334833Y-54020952D01*
X75287214Y-53925714D01*
X75287214Y-53782857D01*
X75334833Y-53687619D01*
X75430071Y-53640000D01*
X75953880Y-53640000D01*
X75287214Y-53306666D02*
X75287214Y-52925714D01*
X74953880Y-53163809D02*
X75811023Y-53163809D01*
X75906261Y-53116190D01*
X75953880Y-53020952D01*
X75953880Y-52925714D01*
X75953880Y-52592380D02*
X75287214Y-52592380D01*
X74953880Y-52592380D02*
X75001500Y-52640000D01*
X75049119Y-52592380D01*
X75001500Y-52544761D01*
X74953880Y-52592380D01*
X75049119Y-52592380D01*
X75287214Y-52116190D02*
X75953880Y-52116190D01*
X75382452Y-52116190D02*
X75334833Y-52068571D01*
X75287214Y-51973333D01*
X75287214Y-51830476D01*
X75334833Y-51735238D01*
X75430071Y-51687619D01*
X75953880Y-51687619D01*
X75287214Y-50782857D02*
X76096738Y-50782857D01*
X76191976Y-50830476D01*
X76239595Y-50878095D01*
X76287214Y-50973333D01*
X76287214Y-51116190D01*
X76239595Y-51211428D01*
X75906261Y-50782857D02*
X75953880Y-50878095D01*
X75953880Y-51068571D01*
X75906261Y-51163809D01*
X75858642Y-51211428D01*
X75763404Y-51259047D01*
X75477690Y-51259047D01*
X75382452Y-51211428D01*
X75334833Y-51163809D01*
X75287214Y-51068571D01*
X75287214Y-50878095D01*
X75334833Y-50782857D01*
D12*
%TO.C,BatGND4*%
X35932533Y-50741942D02*
X36048647Y-50780647D01*
X36087352Y-50819352D01*
X36126057Y-50896761D01*
X36126057Y-51012876D01*
X36087352Y-51090285D01*
X36048647Y-51128990D01*
X35971238Y-51167695D01*
X35661600Y-51167695D01*
X35661600Y-50354895D01*
X35932533Y-50354895D01*
X36009942Y-50393600D01*
X36048647Y-50432304D01*
X36087352Y-50509714D01*
X36087352Y-50587123D01*
X36048647Y-50664533D01*
X36009942Y-50703238D01*
X35932533Y-50741942D01*
X35661600Y-50741942D01*
X36822742Y-51167695D02*
X36822742Y-50741942D01*
X36784038Y-50664533D01*
X36706628Y-50625828D01*
X36551809Y-50625828D01*
X36474400Y-50664533D01*
X36822742Y-51128990D02*
X36745333Y-51167695D01*
X36551809Y-51167695D01*
X36474400Y-51128990D01*
X36435695Y-51051580D01*
X36435695Y-50974171D01*
X36474400Y-50896761D01*
X36551809Y-50858057D01*
X36745333Y-50858057D01*
X36822742Y-50819352D01*
X37093676Y-50625828D02*
X37403314Y-50625828D01*
X37209790Y-50354895D02*
X37209790Y-51051580D01*
X37248495Y-51128990D01*
X37325904Y-51167695D01*
X37403314Y-51167695D01*
X38100000Y-50393600D02*
X38022590Y-50354895D01*
X37906476Y-50354895D01*
X37790361Y-50393600D01*
X37712952Y-50471009D01*
X37674247Y-50548419D01*
X37635542Y-50703238D01*
X37635542Y-50819352D01*
X37674247Y-50974171D01*
X37712952Y-51051580D01*
X37790361Y-51128990D01*
X37906476Y-51167695D01*
X37983885Y-51167695D01*
X38100000Y-51128990D01*
X38138704Y-51090285D01*
X38138704Y-50819352D01*
X37983885Y-50819352D01*
X38487047Y-51167695D02*
X38487047Y-50354895D01*
X38951504Y-51167695D01*
X38951504Y-50354895D01*
X39338552Y-51167695D02*
X39338552Y-50354895D01*
X39532076Y-50354895D01*
X39648190Y-50393600D01*
X39725600Y-50471009D01*
X39764304Y-50548419D01*
X39803009Y-50703238D01*
X39803009Y-50819352D01*
X39764304Y-50974171D01*
X39725600Y-51051580D01*
X39648190Y-51128990D01*
X39532076Y-51167695D01*
X39338552Y-51167695D01*
X40499695Y-50625828D02*
X40499695Y-51167695D01*
X40306171Y-50316190D02*
X40112647Y-50896761D01*
X40615809Y-50896761D01*
%TO.C,B+*%
X22287895Y-50741942D02*
X22404009Y-50780647D01*
X22442714Y-50819352D01*
X22481419Y-50896761D01*
X22481419Y-51012876D01*
X22442714Y-51090285D01*
X22404009Y-51128990D01*
X22326600Y-51167695D01*
X22016961Y-51167695D01*
X22016961Y-50354895D01*
X22287895Y-50354895D01*
X22365304Y-50393600D01*
X22404009Y-50432304D01*
X22442714Y-50509714D01*
X22442714Y-50587123D01*
X22404009Y-50664533D01*
X22365304Y-50703238D01*
X22287895Y-50741942D01*
X22016961Y-50741942D01*
X22829761Y-50858057D02*
X23449038Y-50858057D01*
X23139400Y-51167695D02*
X23139400Y-50548419D01*
%TO.C,RSW2*%
X41185714Y-81527380D02*
X40852380Y-81051190D01*
X40614285Y-81527380D02*
X40614285Y-80527380D01*
X40995238Y-80527380D01*
X41090476Y-80575000D01*
X41138095Y-80622619D01*
X41185714Y-80717857D01*
X41185714Y-80860714D01*
X41138095Y-80955952D01*
X41090476Y-81003571D01*
X40995238Y-81051190D01*
X40614285Y-81051190D01*
X41566666Y-81479761D02*
X41709523Y-81527380D01*
X41947619Y-81527380D01*
X42042857Y-81479761D01*
X42090476Y-81432142D01*
X42138095Y-81336904D01*
X42138095Y-81241666D01*
X42090476Y-81146428D01*
X42042857Y-81098809D01*
X41947619Y-81051190D01*
X41757142Y-81003571D01*
X41661904Y-80955952D01*
X41614285Y-80908333D01*
X41566666Y-80813095D01*
X41566666Y-80717857D01*
X41614285Y-80622619D01*
X41661904Y-80575000D01*
X41757142Y-80527380D01*
X41995238Y-80527380D01*
X42138095Y-80575000D01*
X42471428Y-80527380D02*
X42709523Y-81527380D01*
X42900000Y-80813095D01*
X43090476Y-81527380D01*
X43328571Y-80527380D01*
X43661904Y-80622619D02*
X43709523Y-80575000D01*
X43804761Y-80527380D01*
X44042857Y-80527380D01*
X44138095Y-80575000D01*
X44185714Y-80622619D01*
X44233333Y-80717857D01*
X44233333Y-80813095D01*
X44185714Y-80955952D01*
X43614285Y-81527380D01*
X44233333Y-81527380D01*
%TO.C,*%
D11*
%TO.C,U2*%
X25875980Y-51410000D02*
X25875980Y-49810000D01*
X22000980Y-82310000D02*
X38800980Y-82310000D01*
X25875980Y-51410000D02*
X25870490Y-54510490D01*
X21500980Y-49810000D02*
X21500980Y-81810000D01*
X25375980Y-49310000D02*
X22000980Y-49310000D01*
X35425980Y-49310000D02*
X38800980Y-49310000D01*
X34925980Y-51410000D02*
X34925980Y-49810000D01*
X34925980Y-51410000D02*
X34930490Y-54510490D01*
X26370490Y-55010490D02*
X34430490Y-55010490D01*
X39300980Y-81810000D02*
X39300980Y-49810000D01*
X25875980Y-49810000D02*
G75*
G03*
X25375980Y-49310000I-499984J16D01*
G01*
X35425980Y-49310000D02*
G75*
G03*
X34925980Y-49810000I30J-500030D01*
G01*
X21500980Y-81810000D02*
G75*
G03*
X22000980Y-82310000I500018J18D01*
G01*
X38800980Y-82309990D02*
G75*
G03*
X39300980Y-81810000I10J499990D01*
G01*
X34430490Y-55010490D02*
G75*
G03*
X34930490Y-54510490I0J500000D01*
G01*
X39300990Y-49810000D02*
G75*
G03*
X38800980Y-49310000I-500000J0D01*
G01*
X25870490Y-54510490D02*
G75*
G03*
X26370490Y-55010490I500001J1D01*
G01*
X22000980Y-49310000D02*
G75*
G03*
X21500980Y-49810000I-5J-499995D01*
G01*
D12*
%TO.C,J1*%
X35976000Y-83002000D02*
X35976000Y-89102000D01*
X23876000Y-83002000D02*
X23876000Y-89102000D01*
X23876000Y-83002000D02*
X35976000Y-83002000D01*
X23876000Y-88852000D02*
X21876000Y-88852000D01*
X23876000Y-89102000D02*
X35976000Y-89102000D01*
X21876000Y-83252000D02*
X21876000Y-88852000D01*
X23876000Y-83252000D02*
X21876000Y-83252000D01*
%TO.C,G\u002A\u002A\u002A*%
G36*
X90234922Y-87233675D02*
G01*
X90293936Y-87252149D01*
X90362998Y-87279698D01*
X90370408Y-87282939D01*
X90408714Y-87300565D01*
X90451928Y-87321628D01*
X90495763Y-87343916D01*
X90535936Y-87365217D01*
X90568157Y-87383319D01*
X90584338Y-87393338D01*
X90598981Y-87399568D01*
X90603625Y-87399897D01*
X90614628Y-87403981D01*
X90615258Y-87404867D01*
X90624178Y-87411911D01*
X90644479Y-87424849D01*
X90672601Y-87441601D01*
X90704983Y-87460089D01*
X90738067Y-87478236D01*
X90765330Y-87492472D01*
X90791243Y-87506276D01*
X90822971Y-87524206D01*
X90857181Y-87544245D01*
X90890541Y-87564380D01*
X90919717Y-87582591D01*
X90941378Y-87596863D01*
X90952191Y-87605179D01*
X90952712Y-87605858D01*
X90963120Y-87611624D01*
X90963947Y-87611563D01*
X90974238Y-87615184D01*
X90995161Y-87625648D01*
X91022885Y-87640989D01*
X91034415Y-87647694D01*
X91067796Y-87667307D01*
X91099638Y-87685920D01*
X91124079Y-87700106D01*
X91127930Y-87702321D01*
X91148793Y-87714361D01*
X91179753Y-87732315D01*
X91216290Y-87753550D01*
X91253881Y-87775439D01*
X91288005Y-87795349D01*
X91314141Y-87810650D01*
X91316387Y-87811970D01*
X91323358Y-87816018D01*
X91332652Y-87821289D01*
X91346006Y-87828737D01*
X91365151Y-87839319D01*
X91391823Y-87853989D01*
X91427754Y-87873703D01*
X91474680Y-87899416D01*
X91534336Y-87932083D01*
X91549802Y-87940550D01*
X91591882Y-87963700D01*
X91636443Y-87988400D01*
X91676650Y-88010853D01*
X91694137Y-88020703D01*
X91722222Y-88036275D01*
X91761448Y-88057585D01*
X91807939Y-88082549D01*
X91857816Y-88109083D01*
X91897081Y-88129791D01*
X91942041Y-88153447D01*
X91982093Y-88174603D01*
X92014720Y-88191923D01*
X92037403Y-88204068D01*
X92047621Y-88209703D01*
X92047643Y-88209716D01*
X92068631Y-88221796D01*
X92100943Y-88239363D01*
X92140720Y-88260409D01*
X92184103Y-88282924D01*
X92227233Y-88304900D01*
X92266250Y-88324330D01*
X92289124Y-88335375D01*
X92348573Y-88363769D01*
X92403937Y-88390669D01*
X92453268Y-88415091D01*
X92494620Y-88436050D01*
X92526046Y-88452563D01*
X92545598Y-88463647D01*
X92551350Y-88467884D01*
X92561758Y-88472664D01*
X92566144Y-88472588D01*
X92578826Y-88475203D01*
X92580950Y-88477382D01*
X92589690Y-88483399D01*
X92610352Y-88494664D01*
X92639476Y-88509347D01*
X92661529Y-88519964D01*
X92704312Y-88540386D01*
X92749646Y-88562340D01*
X92794844Y-88584488D01*
X92837222Y-88605495D01*
X92874094Y-88624023D01*
X92902774Y-88638737D01*
X92920577Y-88648300D01*
X92925006Y-88651085D01*
X92933975Y-88656196D01*
X92955336Y-88667207D01*
X92986224Y-88682672D01*
X93023774Y-88701147D01*
X93038672Y-88708402D01*
X93076025Y-88726543D01*
X93105520Y-88740920D01*
X93130132Y-88753062D01*
X93152839Y-88764497D01*
X93176614Y-88776754D01*
X93204435Y-88791360D01*
X93239277Y-88809845D01*
X93284117Y-88833736D01*
X93320908Y-88853356D01*
X93363121Y-88876128D01*
X93399889Y-88896465D01*
X93428687Y-88912928D01*
X93446991Y-88924080D01*
X93452361Y-88928173D01*
X93462817Y-88933895D01*
X93464437Y-88933819D01*
X93474831Y-88937473D01*
X93495640Y-88947912D01*
X93522936Y-88962921D01*
X93552791Y-88980286D01*
X93581276Y-88997790D01*
X93601108Y-89010870D01*
X93617130Y-89021508D01*
X93640980Y-89036853D01*
X93656565Y-89046712D01*
X93693018Y-89071446D01*
X93735608Y-89103213D01*
X93780438Y-89138812D01*
X93823606Y-89175047D01*
X93861215Y-89208719D01*
X93889365Y-89236630D01*
X93892910Y-89240550D01*
X93947388Y-89309212D01*
X93987853Y-89375739D01*
X94013736Y-89438968D01*
X94024475Y-89497732D01*
X94024714Y-89512209D01*
X94024009Y-89543712D01*
X94023274Y-89573599D01*
X94023088Y-89580529D01*
X94019713Y-89612680D01*
X94011969Y-89654286D01*
X94001325Y-89699357D01*
X93989249Y-89741893D01*
X93977208Y-89775904D01*
X93972931Y-89785378D01*
X93949292Y-89823368D01*
X93921239Y-89847627D01*
X93884658Y-89860817D01*
X93850017Y-89865000D01*
X93810346Y-89864800D01*
X93771950Y-89858246D01*
X93729818Y-89845099D01*
X93689998Y-89829562D01*
X93644610Y-89809824D01*
X93599604Y-89788641D01*
X93560928Y-89768773D01*
X93542932Y-89758445D01*
X93532660Y-89752157D01*
X93510843Y-89738813D01*
X93480384Y-89720189D01*
X93444186Y-89698059D01*
X93432259Y-89690767D01*
X93394367Y-89667595D01*
X93360825Y-89647067D01*
X93334704Y-89631064D01*
X93319078Y-89621468D01*
X93316962Y-89620161D01*
X93281060Y-89598669D01*
X93238268Y-89574262D01*
X93191953Y-89548732D01*
X93145479Y-89523865D01*
X93102213Y-89501456D01*
X93065522Y-89483292D01*
X93038771Y-89471165D01*
X93031721Y-89468444D01*
X93025453Y-89468445D01*
X93031151Y-89476456D01*
X93046789Y-89490941D01*
X93070341Y-89510368D01*
X93099784Y-89533203D01*
X93133094Y-89557913D01*
X93168245Y-89582965D01*
X93203213Y-89606824D01*
X93235974Y-89627959D01*
X93264503Y-89644834D01*
X93264827Y-89645012D01*
X93288316Y-89658510D01*
X93324541Y-89680053D01*
X93371898Y-89708681D01*
X93416474Y-89735886D01*
X93432656Y-89745179D01*
X93455724Y-89757769D01*
X93462237Y-89761233D01*
X93483105Y-89772741D01*
X93496934Y-89781249D01*
X93499015Y-89782874D01*
X93508281Y-89788605D01*
X93528984Y-89799919D01*
X93557422Y-89814817D01*
X93572102Y-89822333D01*
X93611640Y-89843030D01*
X93655258Y-89866818D01*
X93698135Y-89890979D01*
X93735452Y-89912799D01*
X93761869Y-89929222D01*
X93777022Y-89935285D01*
X93781837Y-89935537D01*
X93790927Y-89939666D01*
X93791453Y-89941445D01*
X93799112Y-89949280D01*
X93814224Y-89956909D01*
X93832563Y-89966905D01*
X93841872Y-89976175D01*
X93838500Y-89985727D01*
X93825798Y-90006835D01*
X93805018Y-90037838D01*
X93777413Y-90077077D01*
X93744239Y-90122889D01*
X93706749Y-90173615D01*
X93666196Y-90227593D01*
X93623835Y-90283162D01*
X93580919Y-90338661D01*
X93538702Y-90392430D01*
X93498438Y-90442808D01*
X93461379Y-90488133D01*
X93428782Y-90526745D01*
X93410819Y-90547191D01*
X93382312Y-90580191D01*
X93362547Y-90607834D01*
X93350246Y-90634370D01*
X93344131Y-90664051D01*
X93342925Y-90701128D01*
X93345350Y-90749853D01*
X93346215Y-90762155D01*
X93349351Y-90816524D01*
X93349167Y-90856362D01*
X93344764Y-90883893D01*
X93335248Y-90901343D01*
X93319721Y-90910940D01*
X93297287Y-90914911D01*
X93284496Y-90915458D01*
X93244029Y-90911433D01*
X93192953Y-90897693D01*
X93160246Y-90886053D01*
X93097022Y-90861634D01*
X93049440Y-90842324D01*
X93017057Y-90827932D01*
X92999433Y-90818269D01*
X92995927Y-90815002D01*
X92985535Y-90809617D01*
X92984524Y-90809688D01*
X92973409Y-90806471D01*
X92952484Y-90797153D01*
X92931463Y-90786468D01*
X92907636Y-90773790D01*
X92879915Y-90759141D01*
X92845736Y-90741173D01*
X92802534Y-90718537D01*
X92747744Y-90689889D01*
X92726114Y-90678589D01*
X92695868Y-90662161D01*
X92654265Y-90638676D01*
X92604381Y-90609935D01*
X92549293Y-90577736D01*
X92492073Y-90543880D01*
X92435800Y-90510169D01*
X92383547Y-90478401D01*
X92371837Y-90471198D01*
X92334945Y-90448044D01*
X92291867Y-90420345D01*
X92244642Y-90389483D01*
X92195316Y-90356841D01*
X92145927Y-90323796D01*
X92098520Y-90291733D01*
X92055135Y-90262029D01*
X92017814Y-90236066D01*
X91988598Y-90215226D01*
X91969532Y-90200890D01*
X91962659Y-90194480D01*
X91955342Y-90186965D01*
X91938789Y-90176145D01*
X91936813Y-90175030D01*
X91911923Y-90161182D01*
X91934382Y-90183858D01*
X91947946Y-90196345D01*
X91972126Y-90217401D01*
X92004415Y-90244892D01*
X92042308Y-90276685D01*
X92083072Y-90310459D01*
X92124487Y-90344758D01*
X92163208Y-90377201D01*
X92196610Y-90405560D01*
X92222068Y-90427606D01*
X92236713Y-90440874D01*
X92254818Y-90457510D01*
X92281826Y-90481293D01*
X92313579Y-90508593D01*
X92335992Y-90527508D01*
X92398368Y-90580714D01*
X92469174Y-90642843D01*
X92544938Y-90710774D01*
X92622189Y-90781387D01*
X92697452Y-90851560D01*
X92715303Y-90868434D01*
X92740870Y-90892671D01*
X92759152Y-90909973D01*
X92774588Y-90924523D01*
X92791618Y-90940503D01*
X92814685Y-90962092D01*
X92827406Y-90973993D01*
X92870400Y-91016362D01*
X92908334Y-91057883D01*
X92938961Y-91095846D01*
X92960033Y-91127542D01*
X92967250Y-91142682D01*
X92972962Y-91174817D01*
X92971738Y-91214145D01*
X92964443Y-91252880D01*
X92951945Y-91283243D01*
X92951530Y-91283894D01*
X92922955Y-91327551D01*
X92899381Y-91361716D01*
X92877045Y-91391389D01*
X92852188Y-91421569D01*
X92821568Y-91456670D01*
X92747091Y-91536639D01*
X92669216Y-91612675D01*
X92590297Y-91682816D01*
X92512687Y-91745100D01*
X92438741Y-91797563D01*
X92370812Y-91838246D01*
X92352600Y-91847548D01*
X92254599Y-91888982D01*
X92160947Y-91914919D01*
X92069574Y-91925530D01*
X91978405Y-91920989D01*
X91885368Y-91901466D01*
X91846888Y-91889406D01*
X91811073Y-91877194D01*
X91780960Y-91866953D01*
X91760328Y-91859964D01*
X91753423Y-91857654D01*
X91751927Y-91858769D01*
X91757949Y-91866043D01*
X91772680Y-91880638D01*
X91797306Y-91903712D01*
X91833017Y-91936429D01*
X91848395Y-91950409D01*
X91871047Y-91971567D01*
X91889356Y-91989733D01*
X91898160Y-91999529D01*
X91909213Y-92010762D01*
X91931110Y-92030328D01*
X91961353Y-92056132D01*
X91997448Y-92086074D01*
X92036901Y-92118057D01*
X92075705Y-92148803D01*
X92114962Y-92180357D01*
X92154415Y-92213546D01*
X92191838Y-92246328D01*
X92225002Y-92276665D01*
X92251675Y-92302516D01*
X92269630Y-92321843D01*
X92276637Y-92332605D01*
X92276643Y-92332644D01*
X92276328Y-92344876D01*
X92274765Y-92346977D01*
X92265700Y-92349612D01*
X92244149Y-92356358D01*
X92213719Y-92366076D01*
X92190591Y-92373545D01*
X92151273Y-92386123D01*
X92113526Y-92397910D01*
X92083191Y-92407091D01*
X92072892Y-92410065D01*
X92021335Y-92426540D01*
X91961720Y-92448825D01*
X91900670Y-92474289D01*
X91844807Y-92500302D01*
X91841088Y-92502163D01*
X91776818Y-92534505D01*
X91603145Y-92752678D01*
X91429472Y-92970853D01*
X91374826Y-92977691D01*
X91320179Y-92984531D01*
X91286118Y-92949961D01*
X91262389Y-92926166D01*
X91232835Y-92896928D01*
X91203829Y-92868552D01*
X91203658Y-92868386D01*
X91179960Y-92845258D01*
X91160722Y-92826276D01*
X91149415Y-92814869D01*
X91148323Y-92813702D01*
X91138446Y-92803873D01*
X91120824Y-92787195D01*
X91108661Y-92775920D01*
X91085304Y-92753718D01*
X91057083Y-92725804D01*
X91026332Y-92694622D01*
X90995383Y-92662613D01*
X90966568Y-92632217D01*
X90942222Y-92605877D01*
X90924675Y-92586034D01*
X90916262Y-92575128D01*
X90915863Y-92574138D01*
X90908563Y-92564833D01*
X90907795Y-92564580D01*
X90898812Y-92557575D01*
X90882774Y-92541403D01*
X90867131Y-92524078D01*
X90848328Y-92502993D01*
X90833742Y-92487598D01*
X90827576Y-92482019D01*
X90819659Y-92474229D01*
X90803027Y-92455771D01*
X90779550Y-92428872D01*
X90751101Y-92395756D01*
X90719550Y-92358647D01*
X90686770Y-92319771D01*
X90654635Y-92281353D01*
X90625013Y-92245618D01*
X90599778Y-92214791D01*
X90580801Y-92191095D01*
X90569954Y-92176756D01*
X90568130Y-92173641D01*
X90561457Y-92164016D01*
X90560506Y-92163648D01*
X90549639Y-92155647D01*
X90534185Y-92139695D01*
X90519149Y-92121560D01*
X90509539Y-92107008D01*
X90508346Y-92103578D01*
X90501819Y-92095811D01*
X90499848Y-92095746D01*
X90490447Y-92089964D01*
X90485670Y-92082559D01*
X90477453Y-92070025D01*
X90461146Y-92048350D01*
X90439625Y-92021296D01*
X90428588Y-92007867D01*
X90406473Y-91980570D01*
X90389085Y-91957840D01*
X90378916Y-91942995D01*
X90377309Y-91939523D01*
X90370309Y-91932650D01*
X90368934Y-91932685D01*
X90359361Y-91926967D01*
X90354314Y-91919552D01*
X90346360Y-91906259D01*
X90333256Y-91888298D01*
X90312827Y-91862835D01*
X90289333Y-91834654D01*
X90268812Y-91809750D01*
X90241897Y-91776371D01*
X90211879Y-91738673D01*
X90182045Y-91700811D01*
X90155683Y-91666943D01*
X90136083Y-91641222D01*
X90133297Y-91637468D01*
X90099264Y-91591622D01*
X90074720Y-91559365D01*
X90059747Y-91540804D01*
X90055224Y-91536161D01*
X90050801Y-91531995D01*
X90043245Y-91522800D01*
X90030686Y-91506122D01*
X90011255Y-91479510D01*
X89996255Y-91458771D01*
X89976525Y-91431797D01*
X89952684Y-91399682D01*
X89936090Y-91377594D01*
X89918725Y-91354221D01*
X89906250Y-91336641D01*
X89901389Y-91328707D01*
X89896179Y-91320846D01*
X89882996Y-91303812D01*
X89865890Y-91282751D01*
X89847795Y-91260251D01*
X89834907Y-91243026D01*
X89830194Y-91235190D01*
X89824692Y-91226356D01*
X89811341Y-91209519D01*
X89801323Y-91197807D01*
X89787510Y-91181343D01*
X89765400Y-91154165D01*
X89737095Y-91118929D01*
X89704693Y-91078288D01*
X89670296Y-91034894D01*
X89636004Y-90991404D01*
X89603915Y-90950472D01*
X89576131Y-90914748D01*
X89554750Y-90886890D01*
X89544908Y-90873749D01*
X89528797Y-90853025D01*
X89514812Y-90837010D01*
X89512821Y-90835037D01*
X89504104Y-90825292D01*
X89486526Y-90804459D01*
X89461834Y-90774654D01*
X89431776Y-90737989D01*
X89398097Y-90696577D01*
X89386106Y-90681759D01*
X89344401Y-90630153D01*
X89311714Y-90589733D01*
X89286413Y-90558524D01*
X89266864Y-90534549D01*
X89251433Y-90515832D01*
X89238485Y-90500397D01*
X89226387Y-90486267D01*
X89213506Y-90471467D01*
X89198208Y-90454021D01*
X89191697Y-90446600D01*
X89168884Y-90420389D01*
X89150303Y-90398659D01*
X89138848Y-90384808D01*
X89136870Y-90382178D01*
X89127125Y-90369382D01*
X89112399Y-90351724D01*
X89097645Y-90334967D01*
X89087816Y-90324867D01*
X89087114Y-90324311D01*
X89076889Y-90314182D01*
X89059986Y-90294782D01*
X89039914Y-90270363D01*
X89020177Y-90245181D01*
X89005713Y-90225545D01*
X88993877Y-90212481D01*
X88986252Y-90208741D01*
X88978569Y-90203198D01*
X88978204Y-90201524D01*
X88972435Y-90192219D01*
X88957634Y-90173460D01*
X88936246Y-90148246D01*
X88917941Y-90127561D01*
X88893421Y-90099964D01*
X88873735Y-90077152D01*
X88861278Y-90061944D01*
X88858126Y-90057241D01*
X88852405Y-90048958D01*
X88838765Y-90033642D01*
X88833190Y-90027832D01*
X88817803Y-90011135D01*
X88808967Y-89999716D01*
X88808195Y-89997953D01*
X88802801Y-89989512D01*
X88789203Y-89971997D01*
X88770291Y-89949123D01*
X88769401Y-89948075D01*
X88746424Y-89920398D01*
X88724914Y-89893446D01*
X88711464Y-89875681D01*
X88697700Y-89857356D01*
X88687994Y-89845847D01*
X88686621Y-89844610D01*
X88678867Y-89836369D01*
X88663500Y-89818258D01*
X88643336Y-89793749D01*
X88621191Y-89766309D01*
X88599880Y-89739412D01*
X88582221Y-89716526D01*
X88576961Y-89709476D01*
X88537459Y-89653946D01*
X88508950Y-89609651D01*
X88490787Y-89575528D01*
X88483444Y-89555516D01*
X88480564Y-89541460D01*
X88480887Y-89528288D01*
X88485673Y-89512828D01*
X88496184Y-89491912D01*
X88513676Y-89462371D01*
X88532499Y-89432065D01*
X88556237Y-89394325D01*
X88578533Y-89359221D01*
X88596890Y-89330661D01*
X88608814Y-89312551D01*
X88608857Y-89312487D01*
X88652122Y-89249092D01*
X88686521Y-89199114D01*
X88711846Y-89162858D01*
X88717480Y-89154929D01*
X88733847Y-89131322D01*
X88754417Y-89100709D01*
X88771588Y-89074551D01*
X88802613Y-89028066D01*
X88839478Y-88975004D01*
X88877996Y-88921249D01*
X88913978Y-88872685D01*
X88931224Y-88850251D01*
X88949767Y-88825874D01*
X88974605Y-88792268D01*
X89002328Y-88754085D01*
X89026623Y-88720082D01*
X89054524Y-88680974D01*
X89082990Y-88641557D01*
X89108425Y-88606787D01*
X89125121Y-88584393D01*
X89140226Y-88564300D01*
X89163582Y-88533030D01*
X89193376Y-88493021D01*
X89227791Y-88446714D01*
X89265015Y-88396547D01*
X89297037Y-88353325D01*
X89337365Y-88299039D01*
X89378432Y-88244083D01*
X89417943Y-88191509D01*
X89453601Y-88144364D01*
X89483110Y-88105698D01*
X89498733Y-88085495D01*
X89523498Y-88053344D01*
X89555758Y-88010840D01*
X89593024Y-87961301D01*
X89632800Y-87908047D01*
X89672597Y-87854395D01*
X89689276Y-87831783D01*
X89727419Y-87780131D01*
X89765783Y-87728467D01*
X89802091Y-87679835D01*
X89834066Y-87637279D01*
X89859433Y-87603846D01*
X89868787Y-87591682D01*
X89895055Y-87557375D01*
X89920377Y-87523623D01*
X89941074Y-87495362D01*
X89949580Y-87483330D01*
X89978062Y-87442273D01*
X90008175Y-87399310D01*
X90038219Y-87356816D01*
X90066495Y-87317166D01*
X90091302Y-87282739D01*
X90110941Y-87255909D01*
X90123713Y-87239053D01*
X90127532Y-87234565D01*
X90150783Y-87224696D01*
X90186892Y-87224462D01*
X90234922Y-87233675D01*
G37*
D13*
X90234922Y-87233675D02*
X90293936Y-87252149D01*
X90362998Y-87279698D01*
X90370408Y-87282939D01*
X90408714Y-87300565D01*
X90451928Y-87321628D01*
X90495763Y-87343916D01*
X90535936Y-87365217D01*
X90568157Y-87383319D01*
X90584338Y-87393338D01*
X90598981Y-87399568D01*
X90603625Y-87399897D01*
X90614628Y-87403981D01*
X90615258Y-87404867D01*
X90624178Y-87411911D01*
X90644479Y-87424849D01*
X90672601Y-87441601D01*
X90704983Y-87460089D01*
X90738067Y-87478236D01*
X90765330Y-87492472D01*
X90791243Y-87506276D01*
X90822971Y-87524206D01*
X90857181Y-87544245D01*
X90890541Y-87564380D01*
X90919717Y-87582591D01*
X90941378Y-87596863D01*
X90952191Y-87605179D01*
X90952712Y-87605858D01*
X90963120Y-87611624D01*
X90963947Y-87611563D01*
X90974238Y-87615184D01*
X90995161Y-87625648D01*
X91022885Y-87640989D01*
X91034415Y-87647694D01*
X91067796Y-87667307D01*
X91099638Y-87685920D01*
X91124079Y-87700106D01*
X91127930Y-87702321D01*
X91148793Y-87714361D01*
X91179753Y-87732315D01*
X91216290Y-87753550D01*
X91253881Y-87775439D01*
X91288005Y-87795349D01*
X91314141Y-87810650D01*
X91316387Y-87811970D01*
X91323358Y-87816018D01*
X91332652Y-87821289D01*
X91346006Y-87828737D01*
X91365151Y-87839319D01*
X91391823Y-87853989D01*
X91427754Y-87873703D01*
X91474680Y-87899416D01*
X91534336Y-87932083D01*
X91549802Y-87940550D01*
X91591882Y-87963700D01*
X91636443Y-87988400D01*
X91676650Y-88010853D01*
X91694137Y-88020703D01*
X91722222Y-88036275D01*
X91761448Y-88057585D01*
X91807939Y-88082549D01*
X91857816Y-88109083D01*
X91897081Y-88129791D01*
X91942041Y-88153447D01*
X91982093Y-88174603D01*
X92014720Y-88191923D01*
X92037403Y-88204068D01*
X92047621Y-88209703D01*
X92047643Y-88209716D01*
X92068631Y-88221796D01*
X92100943Y-88239363D01*
X92140720Y-88260409D01*
X92184103Y-88282924D01*
X92227233Y-88304900D01*
X92266250Y-88324330D01*
X92289124Y-88335375D01*
X92348573Y-88363769D01*
X92403937Y-88390669D01*
X92453268Y-88415091D01*
X92494620Y-88436050D01*
X92526046Y-88452563D01*
X92545598Y-88463647D01*
X92551350Y-88467884D01*
X92561758Y-88472664D01*
X92566144Y-88472588D01*
X92578826Y-88475203D01*
X92580950Y-88477382D01*
X92589690Y-88483399D01*
X92610352Y-88494664D01*
X92639476Y-88509347D01*
X92661529Y-88519964D01*
X92704312Y-88540386D01*
X92749646Y-88562340D01*
X92794844Y-88584488D01*
X92837222Y-88605495D01*
X92874094Y-88624023D01*
X92902774Y-88638737D01*
X92920577Y-88648300D01*
X92925006Y-88651085D01*
X92933975Y-88656196D01*
X92955336Y-88667207D01*
X92986224Y-88682672D01*
X93023774Y-88701147D01*
X93038672Y-88708402D01*
X93076025Y-88726543D01*
X93105520Y-88740920D01*
X93130132Y-88753062D01*
X93152839Y-88764497D01*
X93176614Y-88776754D01*
X93204435Y-88791360D01*
X93239277Y-88809845D01*
X93284117Y-88833736D01*
X93320908Y-88853356D01*
X93363121Y-88876128D01*
X93399889Y-88896465D01*
X93428687Y-88912928D01*
X93446991Y-88924080D01*
X93452361Y-88928173D01*
X93462817Y-88933895D01*
X93464437Y-88933819D01*
X93474831Y-88937473D01*
X93495640Y-88947912D01*
X93522936Y-88962921D01*
X93552791Y-88980286D01*
X93581276Y-88997790D01*
X93601108Y-89010870D01*
X93617130Y-89021508D01*
X93640980Y-89036853D01*
X93656565Y-89046712D01*
X93693018Y-89071446D01*
X93735608Y-89103213D01*
X93780438Y-89138812D01*
X93823606Y-89175047D01*
X93861215Y-89208719D01*
X93889365Y-89236630D01*
X93892910Y-89240550D01*
X93947388Y-89309212D01*
X93987853Y-89375739D01*
X94013736Y-89438968D01*
X94024475Y-89497732D01*
X94024714Y-89512209D01*
X94024009Y-89543712D01*
X94023274Y-89573599D01*
X94023088Y-89580529D01*
X94019713Y-89612680D01*
X94011969Y-89654286D01*
X94001325Y-89699357D01*
X93989249Y-89741893D01*
X93977208Y-89775904D01*
X93972931Y-89785378D01*
X93949292Y-89823368D01*
X93921239Y-89847627D01*
X93884658Y-89860817D01*
X93850017Y-89865000D01*
X93810346Y-89864800D01*
X93771950Y-89858246D01*
X93729818Y-89845099D01*
X93689998Y-89829562D01*
X93644610Y-89809824D01*
X93599604Y-89788641D01*
X93560928Y-89768773D01*
X93542932Y-89758445D01*
X93532660Y-89752157D01*
X93510843Y-89738813D01*
X93480384Y-89720189D01*
X93444186Y-89698059D01*
X93432259Y-89690767D01*
X93394367Y-89667595D01*
X93360825Y-89647067D01*
X93334704Y-89631064D01*
X93319078Y-89621468D01*
X93316962Y-89620161D01*
X93281060Y-89598669D01*
X93238268Y-89574262D01*
X93191953Y-89548732D01*
X93145479Y-89523865D01*
X93102213Y-89501456D01*
X93065522Y-89483292D01*
X93038771Y-89471165D01*
X93031721Y-89468444D01*
X93025453Y-89468445D01*
X93031151Y-89476456D01*
X93046789Y-89490941D01*
X93070341Y-89510368D01*
X93099784Y-89533203D01*
X93133094Y-89557913D01*
X93168245Y-89582965D01*
X93203213Y-89606824D01*
X93235974Y-89627959D01*
X93264503Y-89644834D01*
X93264827Y-89645012D01*
X93288316Y-89658510D01*
X93324541Y-89680053D01*
X93371898Y-89708681D01*
X93416474Y-89735886D01*
X93432656Y-89745179D01*
X93455724Y-89757769D01*
X93462237Y-89761233D01*
X93483105Y-89772741D01*
X93496934Y-89781249D01*
X93499015Y-89782874D01*
X93508281Y-89788605D01*
X93528984Y-89799919D01*
X93557422Y-89814817D01*
X93572102Y-89822333D01*
X93611640Y-89843030D01*
X93655258Y-89866818D01*
X93698135Y-89890979D01*
X93735452Y-89912799D01*
X93761869Y-89929222D01*
X93777022Y-89935285D01*
X93781837Y-89935537D01*
X93790927Y-89939666D01*
X93791453Y-89941445D01*
X93799112Y-89949280D01*
X93814224Y-89956909D01*
X93832563Y-89966905D01*
X93841872Y-89976175D01*
X93838500Y-89985727D01*
X93825798Y-90006835D01*
X93805018Y-90037838D01*
X93777413Y-90077077D01*
X93744239Y-90122889D01*
X93706749Y-90173615D01*
X93666196Y-90227593D01*
X93623835Y-90283162D01*
X93580919Y-90338661D01*
X93538702Y-90392430D01*
X93498438Y-90442808D01*
X93461379Y-90488133D01*
X93428782Y-90526745D01*
X93410819Y-90547191D01*
X93382312Y-90580191D01*
X93362547Y-90607834D01*
X93350246Y-90634370D01*
X93344131Y-90664051D01*
X93342925Y-90701128D01*
X93345350Y-90749853D01*
X93346215Y-90762155D01*
X93349351Y-90816524D01*
X93349167Y-90856362D01*
X93344764Y-90883893D01*
X93335248Y-90901343D01*
X93319721Y-90910940D01*
X93297287Y-90914911D01*
X93284496Y-90915458D01*
X93244029Y-90911433D01*
X93192953Y-90897693D01*
X93160246Y-90886053D01*
X93097022Y-90861634D01*
X93049440Y-90842324D01*
X93017057Y-90827932D01*
X92999433Y-90818269D01*
X92995927Y-90815002D01*
X92985535Y-90809617D01*
X92984524Y-90809688D01*
X92973409Y-90806471D01*
X92952484Y-90797153D01*
X92931463Y-90786468D01*
X92907636Y-90773790D01*
X92879915Y-90759141D01*
X92845736Y-90741173D01*
X92802534Y-90718537D01*
X92747744Y-90689889D01*
X92726114Y-90678589D01*
X92695868Y-90662161D01*
X92654265Y-90638676D01*
X92604381Y-90609935D01*
X92549293Y-90577736D01*
X92492073Y-90543880D01*
X92435800Y-90510169D01*
X92383547Y-90478401D01*
X92371837Y-90471198D01*
X92334945Y-90448044D01*
X92291867Y-90420345D01*
X92244642Y-90389483D01*
X92195316Y-90356841D01*
X92145927Y-90323796D01*
X92098520Y-90291733D01*
X92055135Y-90262029D01*
X92017814Y-90236066D01*
X91988598Y-90215226D01*
X91969532Y-90200890D01*
X91962659Y-90194480D01*
X91955342Y-90186965D01*
X91938789Y-90176145D01*
X91936813Y-90175030D01*
X91911923Y-90161182D01*
X91934382Y-90183858D01*
X91947946Y-90196345D01*
X91972126Y-90217401D01*
X92004415Y-90244892D01*
X92042308Y-90276685D01*
X92083072Y-90310459D01*
X92124487Y-90344758D01*
X92163208Y-90377201D01*
X92196610Y-90405560D01*
X92222068Y-90427606D01*
X92236713Y-90440874D01*
X92254818Y-90457510D01*
X92281826Y-90481293D01*
X92313579Y-90508593D01*
X92335992Y-90527508D01*
X92398368Y-90580714D01*
X92469174Y-90642843D01*
X92544938Y-90710774D01*
X92622189Y-90781387D01*
X92697452Y-90851560D01*
X92715303Y-90868434D01*
X92740870Y-90892671D01*
X92759152Y-90909973D01*
X92774588Y-90924523D01*
X92791618Y-90940503D01*
X92814685Y-90962092D01*
X92827406Y-90973993D01*
X92870400Y-91016362D01*
X92908334Y-91057883D01*
X92938961Y-91095846D01*
X92960033Y-91127542D01*
X92967250Y-91142682D01*
X92972962Y-91174817D01*
X92971738Y-91214145D01*
X92964443Y-91252880D01*
X92951945Y-91283243D01*
X92951530Y-91283894D01*
X92922955Y-91327551D01*
X92899381Y-91361716D01*
X92877045Y-91391389D01*
X92852188Y-91421569D01*
X92821568Y-91456670D01*
X92747091Y-91536639D01*
X92669216Y-91612675D01*
X92590297Y-91682816D01*
X92512687Y-91745100D01*
X92438741Y-91797563D01*
X92370812Y-91838246D01*
X92352600Y-91847548D01*
X92254599Y-91888982D01*
X92160947Y-91914919D01*
X92069574Y-91925530D01*
X91978405Y-91920989D01*
X91885368Y-91901466D01*
X91846888Y-91889406D01*
X91811073Y-91877194D01*
X91780960Y-91866953D01*
X91760328Y-91859964D01*
X91753423Y-91857654D01*
X91751927Y-91858769D01*
X91757949Y-91866043D01*
X91772680Y-91880638D01*
X91797306Y-91903712D01*
X91833017Y-91936429D01*
X91848395Y-91950409D01*
X91871047Y-91971567D01*
X91889356Y-91989733D01*
X91898160Y-91999529D01*
X91909213Y-92010762D01*
X91931110Y-92030328D01*
X91961353Y-92056132D01*
X91997448Y-92086074D01*
X92036901Y-92118057D01*
X92075705Y-92148803D01*
X92114962Y-92180357D01*
X92154415Y-92213546D01*
X92191838Y-92246328D01*
X92225002Y-92276665D01*
X92251675Y-92302516D01*
X92269630Y-92321843D01*
X92276637Y-92332605D01*
X92276643Y-92332644D01*
X92276328Y-92344876D01*
X92274765Y-92346977D01*
X92265700Y-92349612D01*
X92244149Y-92356358D01*
X92213719Y-92366076D01*
X92190591Y-92373545D01*
X92151273Y-92386123D01*
X92113526Y-92397910D01*
X92083191Y-92407091D01*
X92072892Y-92410065D01*
X92021335Y-92426540D01*
X91961720Y-92448825D01*
X91900670Y-92474289D01*
X91844807Y-92500302D01*
X91841088Y-92502163D01*
X91776818Y-92534505D01*
X91603145Y-92752678D01*
X91429472Y-92970853D01*
X91374826Y-92977691D01*
X91320179Y-92984531D01*
X91286118Y-92949961D01*
X91262389Y-92926166D01*
X91232835Y-92896928D01*
X91203829Y-92868552D01*
X91203658Y-92868386D01*
X91179960Y-92845258D01*
X91160722Y-92826276D01*
X91149415Y-92814869D01*
X91148323Y-92813702D01*
X91138446Y-92803873D01*
X91120824Y-92787195D01*
X91108661Y-92775920D01*
X91085304Y-92753718D01*
X91057083Y-92725804D01*
X91026332Y-92694622D01*
X90995383Y-92662613D01*
X90966568Y-92632217D01*
X90942222Y-92605877D01*
X90924675Y-92586034D01*
X90916262Y-92575128D01*
X90915863Y-92574138D01*
X90908563Y-92564833D01*
X90907795Y-92564580D01*
X90898812Y-92557575D01*
X90882774Y-92541403D01*
X90867131Y-92524078D01*
X90848328Y-92502993D01*
X90833742Y-92487598D01*
X90827576Y-92482019D01*
X90819659Y-92474229D01*
X90803027Y-92455771D01*
X90779550Y-92428872D01*
X90751101Y-92395756D01*
X90719550Y-92358647D01*
X90686770Y-92319771D01*
X90654635Y-92281353D01*
X90625013Y-92245618D01*
X90599778Y-92214791D01*
X90580801Y-92191095D01*
X90569954Y-92176756D01*
X90568130Y-92173641D01*
X90561457Y-92164016D01*
X90560506Y-92163648D01*
X90549639Y-92155647D01*
X90534185Y-92139695D01*
X90519149Y-92121560D01*
X90509539Y-92107008D01*
X90508346Y-92103578D01*
X90501819Y-92095811D01*
X90499848Y-92095746D01*
X90490447Y-92089964D01*
X90485670Y-92082559D01*
X90477453Y-92070025D01*
X90461146Y-92048350D01*
X90439625Y-92021296D01*
X90428588Y-92007867D01*
X90406473Y-91980570D01*
X90389085Y-91957840D01*
X90378916Y-91942995D01*
X90377309Y-91939523D01*
X90370309Y-91932650D01*
X90368934Y-91932685D01*
X90359361Y-91926967D01*
X90354314Y-91919552D01*
X90346360Y-91906259D01*
X90333256Y-91888298D01*
X90312827Y-91862835D01*
X90289333Y-91834654D01*
X90268812Y-91809750D01*
X90241897Y-91776371D01*
X90211879Y-91738673D01*
X90182045Y-91700811D01*
X90155683Y-91666943D01*
X90136083Y-91641222D01*
X90133297Y-91637468D01*
X90099264Y-91591622D01*
X90074720Y-91559365D01*
X90059747Y-91540804D01*
X90055224Y-91536161D01*
X90050801Y-91531995D01*
X90043245Y-91522800D01*
X90030686Y-91506122D01*
X90011255Y-91479510D01*
X89996255Y-91458771D01*
X89976525Y-91431797D01*
X89952684Y-91399682D01*
X89936090Y-91377594D01*
X89918725Y-91354221D01*
X89906250Y-91336641D01*
X89901389Y-91328707D01*
X89896179Y-91320846D01*
X89882996Y-91303812D01*
X89865890Y-91282751D01*
X89847795Y-91260251D01*
X89834907Y-91243026D01*
X89830194Y-91235190D01*
X89824692Y-91226356D01*
X89811341Y-91209519D01*
X89801323Y-91197807D01*
X89787510Y-91181343D01*
X89765400Y-91154165D01*
X89737095Y-91118929D01*
X89704693Y-91078288D01*
X89670296Y-91034894D01*
X89636004Y-90991404D01*
X89603915Y-90950472D01*
X89576131Y-90914748D01*
X89554750Y-90886890D01*
X89544908Y-90873749D01*
X89528797Y-90853025D01*
X89514812Y-90837010D01*
X89512821Y-90835037D01*
X89504104Y-90825292D01*
X89486526Y-90804459D01*
X89461834Y-90774654D01*
X89431776Y-90737989D01*
X89398097Y-90696577D01*
X89386106Y-90681759D01*
X89344401Y-90630153D01*
X89311714Y-90589733D01*
X89286413Y-90558524D01*
X89266864Y-90534549D01*
X89251433Y-90515832D01*
X89238485Y-90500397D01*
X89226387Y-90486267D01*
X89213506Y-90471467D01*
X89198208Y-90454021D01*
X89191697Y-90446600D01*
X89168884Y-90420389D01*
X89150303Y-90398659D01*
X89138848Y-90384808D01*
X89136870Y-90382178D01*
X89127125Y-90369382D01*
X89112399Y-90351724D01*
X89097645Y-90334967D01*
X89087816Y-90324867D01*
X89087114Y-90324311D01*
X89076889Y-90314182D01*
X89059986Y-90294782D01*
X89039914Y-90270363D01*
X89020177Y-90245181D01*
X89005713Y-90225545D01*
X88993877Y-90212481D01*
X88986252Y-90208741D01*
X88978569Y-90203198D01*
X88978204Y-90201524D01*
X88972435Y-90192219D01*
X88957634Y-90173460D01*
X88936246Y-90148246D01*
X88917941Y-90127561D01*
X88893421Y-90099964D01*
X88873735Y-90077152D01*
X88861278Y-90061944D01*
X88858126Y-90057241D01*
X88852405Y-90048958D01*
X88838765Y-90033642D01*
X88833190Y-90027832D01*
X88817803Y-90011135D01*
X88808967Y-89999716D01*
X88808195Y-89997953D01*
X88802801Y-89989512D01*
X88789203Y-89971997D01*
X88770291Y-89949123D01*
X88769401Y-89948075D01*
X88746424Y-89920398D01*
X88724914Y-89893446D01*
X88711464Y-89875681D01*
X88697700Y-89857356D01*
X88687994Y-89845847D01*
X88686621Y-89844610D01*
X88678867Y-89836369D01*
X88663500Y-89818258D01*
X88643336Y-89793749D01*
X88621191Y-89766309D01*
X88599880Y-89739412D01*
X88582221Y-89716526D01*
X88576961Y-89709476D01*
X88537459Y-89653946D01*
X88508950Y-89609651D01*
X88490787Y-89575528D01*
X88483444Y-89555516D01*
X88480564Y-89541460D01*
X88480887Y-89528288D01*
X88485673Y-89512828D01*
X88496184Y-89491912D01*
X88513676Y-89462371D01*
X88532499Y-89432065D01*
X88556237Y-89394325D01*
X88578533Y-89359221D01*
X88596890Y-89330661D01*
X88608814Y-89312551D01*
X88608857Y-89312487D01*
X88652122Y-89249092D01*
X88686521Y-89199114D01*
X88711846Y-89162858D01*
X88717480Y-89154929D01*
X88733847Y-89131322D01*
X88754417Y-89100709D01*
X88771588Y-89074551D01*
X88802613Y-89028066D01*
X88839478Y-88975004D01*
X88877996Y-88921249D01*
X88913978Y-88872685D01*
X88931224Y-88850251D01*
X88949767Y-88825874D01*
X88974605Y-88792268D01*
X89002328Y-88754085D01*
X89026623Y-88720082D01*
X89054524Y-88680974D01*
X89082990Y-88641557D01*
X89108425Y-88606787D01*
X89125121Y-88584393D01*
X89140226Y-88564300D01*
X89163582Y-88533030D01*
X89193376Y-88493021D01*
X89227791Y-88446714D01*
X89265015Y-88396547D01*
X89297037Y-88353325D01*
X89337365Y-88299039D01*
X89378432Y-88244083D01*
X89417943Y-88191509D01*
X89453601Y-88144364D01*
X89483110Y-88105698D01*
X89498733Y-88085495D01*
X89523498Y-88053344D01*
X89555758Y-88010840D01*
X89593024Y-87961301D01*
X89632800Y-87908047D01*
X89672597Y-87854395D01*
X89689276Y-87831783D01*
X89727419Y-87780131D01*
X89765783Y-87728467D01*
X89802091Y-87679835D01*
X89834066Y-87637279D01*
X89859433Y-87603846D01*
X89868787Y-87591682D01*
X89895055Y-87557375D01*
X89920377Y-87523623D01*
X89941074Y-87495362D01*
X89949580Y-87483330D01*
X89978062Y-87442273D01*
X90008175Y-87399310D01*
X90038219Y-87356816D01*
X90066495Y-87317166D01*
X90091302Y-87282739D01*
X90110941Y-87255909D01*
X90123713Y-87239053D01*
X90127532Y-87234565D01*
X90150783Y-87224696D01*
X90186892Y-87224462D01*
X90234922Y-87233675D01*
G36*
X86037962Y-86020327D02*
G01*
X86100837Y-86044619D01*
X86150567Y-86064163D01*
X86189893Y-86080080D01*
X86221552Y-86093490D01*
X86248285Y-86105514D01*
X86261625Y-86111819D01*
X86287135Y-86124089D01*
X86322619Y-86141176D01*
X86362799Y-86160537D01*
X86392077Y-86174652D01*
X86433899Y-86194251D01*
X86476544Y-86213278D01*
X86514062Y-86229124D01*
X86533703Y-86236785D01*
X86563380Y-86248353D01*
X86588010Y-86259148D01*
X86601298Y-86266251D01*
X86616743Y-86274383D01*
X86641901Y-86285095D01*
X86662654Y-86292923D01*
X86694892Y-86306043D01*
X86725603Y-86321154D01*
X86739648Y-86329472D01*
X86767315Y-86343885D01*
X86799835Y-86355636D01*
X86808748Y-86357907D01*
X86842095Y-86363115D01*
X86882996Y-86366191D01*
X86928107Y-86367275D01*
X86974082Y-86366510D01*
X87017577Y-86364037D01*
X87055246Y-86360000D01*
X87083743Y-86354539D01*
X87099722Y-86347796D01*
X87101610Y-86345472D01*
X87111061Y-86343339D01*
X87130829Y-86350124D01*
X87157757Y-86364483D01*
X87179564Y-86378591D01*
X87199218Y-86391396D01*
X87216679Y-86402037D01*
X87267520Y-86431227D01*
X87311004Y-86454266D01*
X87351499Y-86472913D01*
X87393376Y-86488925D01*
X87441003Y-86504059D01*
X87498747Y-86520073D01*
X87531159Y-86528541D01*
X87589997Y-86544849D01*
X87648121Y-86562983D01*
X87701756Y-86581620D01*
X87747127Y-86599432D01*
X87780461Y-86615097D01*
X87785068Y-86617688D01*
X87816069Y-86629210D01*
X87861362Y-86635695D01*
X87921375Y-86637144D01*
X87996532Y-86633562D01*
X88087260Y-86624951D01*
X88128994Y-86619976D01*
X88246748Y-86607966D01*
X88352008Y-86603199D01*
X88447563Y-86605618D01*
X88516182Y-86612329D01*
X88600346Y-86624244D01*
X88687039Y-86638047D01*
X88772904Y-86653101D01*
X88854591Y-86668771D01*
X88928747Y-86684420D01*
X88992018Y-86699411D01*
X89031481Y-86710185D01*
X89053262Y-86716289D01*
X89084607Y-86724649D01*
X89117961Y-86733257D01*
X89167343Y-86746712D01*
X89219157Y-86762449D01*
X89270651Y-86779455D01*
X89319069Y-86796716D01*
X89361655Y-86813220D01*
X89395657Y-86827951D01*
X89418318Y-86839897D01*
X89426424Y-86846755D01*
X89436932Y-86852167D01*
X89439886Y-86852183D01*
X89455141Y-86856713D01*
X89477038Y-86869612D01*
X89500360Y-86887164D01*
X89519888Y-86905650D01*
X89526429Y-86913830D01*
X89538126Y-86936432D01*
X89543560Y-86955483D01*
X89541339Y-86980252D01*
X89530937Y-87016821D01*
X89513403Y-87062789D01*
X89489784Y-87115758D01*
X89461130Y-87173332D01*
X89428488Y-87233107D01*
X89404307Y-87274186D01*
X89385890Y-87304639D01*
X89369769Y-87331515D01*
X89358870Y-87349932D01*
X89357414Y-87352451D01*
X89338375Y-87384700D01*
X89312515Y-87427120D01*
X89282333Y-87475746D01*
X89250327Y-87526609D01*
X89218994Y-87575742D01*
X89190832Y-87619179D01*
X89168338Y-87652952D01*
X89166825Y-87655167D01*
X89153133Y-87675450D01*
X89134830Y-87702937D01*
X89120914Y-87724025D01*
X89085248Y-87777863D01*
X89047318Y-87834346D01*
X89009760Y-87889602D01*
X88975210Y-87939761D01*
X88946303Y-87980955D01*
X88937920Y-87992658D01*
X88918641Y-88019430D01*
X88892335Y-88056042D01*
X88861825Y-88098563D01*
X88829932Y-88143060D01*
X88813704Y-88165720D01*
X88785231Y-88204878D01*
X88750101Y-88252203D01*
X88709668Y-88305948D01*
X88665288Y-88364370D01*
X88618318Y-88425724D01*
X88570112Y-88488265D01*
X88522025Y-88550248D01*
X88475414Y-88609928D01*
X88431633Y-88665563D01*
X88392038Y-88715405D01*
X88357985Y-88757711D01*
X88330828Y-88790736D01*
X88311923Y-88812734D01*
X88306658Y-88818380D01*
X88280437Y-88845637D01*
X88253342Y-88874664D01*
X88241145Y-88888105D01*
X88223473Y-88907058D01*
X88210378Y-88919587D01*
X88206171Y-88922459D01*
X88197878Y-88928717D01*
X88183522Y-88943274D01*
X88179428Y-88947812D01*
X88153453Y-88973611D01*
X88123270Y-88998327D01*
X88093338Y-89018775D01*
X88068115Y-89031770D01*
X88058022Y-89034566D01*
X88035889Y-89031129D01*
X88017170Y-89020469D01*
X88000874Y-89004452D01*
X87979793Y-88981393D01*
X87956838Y-88954795D01*
X87934921Y-88928160D01*
X87916952Y-88904987D01*
X87905843Y-88888780D01*
X87903694Y-88883976D01*
X87898148Y-88875580D01*
X87896190Y-88875382D01*
X87888125Y-88869360D01*
X87876568Y-88853552D01*
X87874602Y-88850309D01*
X87862952Y-88832059D01*
X87854479Y-88821400D01*
X87853803Y-88820874D01*
X87845152Y-88810800D01*
X87829264Y-88787766D01*
X87807242Y-88753546D01*
X87780194Y-88709915D01*
X87749227Y-88658645D01*
X87715446Y-88601512D01*
X87693245Y-88563356D01*
X87662177Y-88507866D01*
X87628357Y-88444406D01*
X87593130Y-88375774D01*
X87557842Y-88304772D01*
X87523839Y-88234196D01*
X87492466Y-88166849D01*
X87465070Y-88105529D01*
X87442997Y-88053035D01*
X87427592Y-88012169D01*
X87426057Y-88007575D01*
X87414805Y-87973137D01*
X87404628Y-87941927D01*
X87397453Y-87919854D01*
X87396643Y-87917353D01*
X87392666Y-87901705D01*
X87386190Y-87872354D01*
X87377827Y-87832239D01*
X87368189Y-87784303D01*
X87357883Y-87731487D01*
X87355830Y-87720773D01*
X87342026Y-87650361D01*
X87330137Y-87594667D01*
X87319477Y-87551673D01*
X87309360Y-87519364D01*
X87299103Y-87495723D01*
X87288020Y-87478738D01*
X87275425Y-87466387D01*
X87267469Y-87460753D01*
X87251668Y-87448112D01*
X87234722Y-87429105D01*
X87215801Y-87402312D01*
X87194074Y-87366314D01*
X87168711Y-87319692D01*
X87138881Y-87261027D01*
X87103755Y-87188899D01*
X87083319Y-87146023D01*
X87054414Y-87085042D01*
X87031640Y-87037112D01*
X87013873Y-86999981D01*
X86999986Y-86971400D01*
X86988855Y-86949121D01*
X86979354Y-86930893D01*
X86970357Y-86914467D01*
X86960739Y-86897593D01*
X86949374Y-86878021D01*
X86948348Y-86876260D01*
X86927863Y-86844825D01*
X86899600Y-86806530D01*
X86866421Y-86764763D01*
X86831185Y-86722909D01*
X86796754Y-86684356D01*
X86765988Y-86652489D01*
X86741749Y-86630698D01*
X86739444Y-86628942D01*
X86731174Y-86621353D01*
X86715030Y-86605622D01*
X86700709Y-86591367D01*
X86674088Y-86565918D01*
X86645436Y-86540363D01*
X86633755Y-86530588D01*
X86615172Y-86515456D01*
X86586899Y-86492337D01*
X86552321Y-86464007D01*
X86514824Y-86433236D01*
X86502059Y-86422750D01*
X86470382Y-86396945D01*
X86427987Y-86362745D01*
X86377463Y-86322220D01*
X86321402Y-86277442D01*
X86262393Y-86230485D01*
X86203029Y-86183418D01*
X86180452Y-86165568D01*
X85957387Y-85989361D01*
X86037962Y-86020327D01*
G37*
X86037962Y-86020327D02*
X86100837Y-86044619D01*
X86150567Y-86064163D01*
X86189893Y-86080080D01*
X86221552Y-86093490D01*
X86248285Y-86105514D01*
X86261625Y-86111819D01*
X86287135Y-86124089D01*
X86322619Y-86141176D01*
X86362799Y-86160537D01*
X86392077Y-86174652D01*
X86433899Y-86194251D01*
X86476544Y-86213278D01*
X86514062Y-86229124D01*
X86533703Y-86236785D01*
X86563380Y-86248353D01*
X86588010Y-86259148D01*
X86601298Y-86266251D01*
X86616743Y-86274383D01*
X86641901Y-86285095D01*
X86662654Y-86292923D01*
X86694892Y-86306043D01*
X86725603Y-86321154D01*
X86739648Y-86329472D01*
X86767315Y-86343885D01*
X86799835Y-86355636D01*
X86808748Y-86357907D01*
X86842095Y-86363115D01*
X86882996Y-86366191D01*
X86928107Y-86367275D01*
X86974082Y-86366510D01*
X87017577Y-86364037D01*
X87055246Y-86360000D01*
X87083743Y-86354539D01*
X87099722Y-86347796D01*
X87101610Y-86345472D01*
X87111061Y-86343339D01*
X87130829Y-86350124D01*
X87157757Y-86364483D01*
X87179564Y-86378591D01*
X87199218Y-86391396D01*
X87216679Y-86402037D01*
X87267520Y-86431227D01*
X87311004Y-86454266D01*
X87351499Y-86472913D01*
X87393376Y-86488925D01*
X87441003Y-86504059D01*
X87498747Y-86520073D01*
X87531159Y-86528541D01*
X87589997Y-86544849D01*
X87648121Y-86562983D01*
X87701756Y-86581620D01*
X87747127Y-86599432D01*
X87780461Y-86615097D01*
X87785068Y-86617688D01*
X87816069Y-86629210D01*
X87861362Y-86635695D01*
X87921375Y-86637144D01*
X87996532Y-86633562D01*
X88087260Y-86624951D01*
X88128994Y-86619976D01*
X88246748Y-86607966D01*
X88352008Y-86603199D01*
X88447563Y-86605618D01*
X88516182Y-86612329D01*
X88600346Y-86624244D01*
X88687039Y-86638047D01*
X88772904Y-86653101D01*
X88854591Y-86668771D01*
X88928747Y-86684420D01*
X88992018Y-86699411D01*
X89031481Y-86710185D01*
X89053262Y-86716289D01*
X89084607Y-86724649D01*
X89117961Y-86733257D01*
X89167343Y-86746712D01*
X89219157Y-86762449D01*
X89270651Y-86779455D01*
X89319069Y-86796716D01*
X89361655Y-86813220D01*
X89395657Y-86827951D01*
X89418318Y-86839897D01*
X89426424Y-86846755D01*
X89436932Y-86852167D01*
X89439886Y-86852183D01*
X89455141Y-86856713D01*
X89477038Y-86869612D01*
X89500360Y-86887164D01*
X89519888Y-86905650D01*
X89526429Y-86913830D01*
X89538126Y-86936432D01*
X89543560Y-86955483D01*
X89541339Y-86980252D01*
X89530937Y-87016821D01*
X89513403Y-87062789D01*
X89489784Y-87115758D01*
X89461130Y-87173332D01*
X89428488Y-87233107D01*
X89404307Y-87274186D01*
X89385890Y-87304639D01*
X89369769Y-87331515D01*
X89358870Y-87349932D01*
X89357414Y-87352451D01*
X89338375Y-87384700D01*
X89312515Y-87427120D01*
X89282333Y-87475746D01*
X89250327Y-87526609D01*
X89218994Y-87575742D01*
X89190832Y-87619179D01*
X89168338Y-87652952D01*
X89166825Y-87655167D01*
X89153133Y-87675450D01*
X89134830Y-87702937D01*
X89120914Y-87724025D01*
X89085248Y-87777863D01*
X89047318Y-87834346D01*
X89009760Y-87889602D01*
X88975210Y-87939761D01*
X88946303Y-87980955D01*
X88937920Y-87992658D01*
X88918641Y-88019430D01*
X88892335Y-88056042D01*
X88861825Y-88098563D01*
X88829932Y-88143060D01*
X88813704Y-88165720D01*
X88785231Y-88204878D01*
X88750101Y-88252203D01*
X88709668Y-88305948D01*
X88665288Y-88364370D01*
X88618318Y-88425724D01*
X88570112Y-88488265D01*
X88522025Y-88550248D01*
X88475414Y-88609928D01*
X88431633Y-88665563D01*
X88392038Y-88715405D01*
X88357985Y-88757711D01*
X88330828Y-88790736D01*
X88311923Y-88812734D01*
X88306658Y-88818380D01*
X88280437Y-88845637D01*
X88253342Y-88874664D01*
X88241145Y-88888105D01*
X88223473Y-88907058D01*
X88210378Y-88919587D01*
X88206171Y-88922459D01*
X88197878Y-88928717D01*
X88183522Y-88943274D01*
X88179428Y-88947812D01*
X88153453Y-88973611D01*
X88123270Y-88998327D01*
X88093338Y-89018775D01*
X88068115Y-89031770D01*
X88058022Y-89034566D01*
X88035889Y-89031129D01*
X88017170Y-89020469D01*
X88000874Y-89004452D01*
X87979793Y-88981393D01*
X87956838Y-88954795D01*
X87934921Y-88928160D01*
X87916952Y-88904987D01*
X87905843Y-88888780D01*
X87903694Y-88883976D01*
X87898148Y-88875580D01*
X87896190Y-88875382D01*
X87888125Y-88869360D01*
X87876568Y-88853552D01*
X87874602Y-88850309D01*
X87862952Y-88832059D01*
X87854479Y-88821400D01*
X87853803Y-88820874D01*
X87845152Y-88810800D01*
X87829264Y-88787766D01*
X87807242Y-88753546D01*
X87780194Y-88709915D01*
X87749227Y-88658645D01*
X87715446Y-88601512D01*
X87693245Y-88563356D01*
X87662177Y-88507866D01*
X87628357Y-88444406D01*
X87593130Y-88375774D01*
X87557842Y-88304772D01*
X87523839Y-88234196D01*
X87492466Y-88166849D01*
X87465070Y-88105529D01*
X87442997Y-88053035D01*
X87427592Y-88012169D01*
X87426057Y-88007575D01*
X87414805Y-87973137D01*
X87404628Y-87941927D01*
X87397453Y-87919854D01*
X87396643Y-87917353D01*
X87392666Y-87901705D01*
X87386190Y-87872354D01*
X87377827Y-87832239D01*
X87368189Y-87784303D01*
X87357883Y-87731487D01*
X87355830Y-87720773D01*
X87342026Y-87650361D01*
X87330137Y-87594667D01*
X87319477Y-87551673D01*
X87309360Y-87519364D01*
X87299103Y-87495723D01*
X87288020Y-87478738D01*
X87275425Y-87466387D01*
X87267469Y-87460753D01*
X87251668Y-87448112D01*
X87234722Y-87429105D01*
X87215801Y-87402312D01*
X87194074Y-87366314D01*
X87168711Y-87319692D01*
X87138881Y-87261027D01*
X87103755Y-87188899D01*
X87083319Y-87146023D01*
X87054414Y-87085042D01*
X87031640Y-87037112D01*
X87013873Y-86999981D01*
X86999986Y-86971400D01*
X86988855Y-86949121D01*
X86979354Y-86930893D01*
X86970357Y-86914467D01*
X86960739Y-86897593D01*
X86949374Y-86878021D01*
X86948348Y-86876260D01*
X86927863Y-86844825D01*
X86899600Y-86806530D01*
X86866421Y-86764763D01*
X86831185Y-86722909D01*
X86796754Y-86684356D01*
X86765988Y-86652489D01*
X86741749Y-86630698D01*
X86739444Y-86628942D01*
X86731174Y-86621353D01*
X86715030Y-86605622D01*
X86700709Y-86591367D01*
X86674088Y-86565918D01*
X86645436Y-86540363D01*
X86633755Y-86530588D01*
X86615172Y-86515456D01*
X86586899Y-86492337D01*
X86552321Y-86464007D01*
X86514824Y-86433236D01*
X86502059Y-86422750D01*
X86470382Y-86396945D01*
X86427987Y-86362745D01*
X86377463Y-86322220D01*
X86321402Y-86277442D01*
X86262393Y-86230485D01*
X86203029Y-86183418D01*
X86180452Y-86165568D01*
X85957387Y-85989361D01*
X86037962Y-86020327D01*
G36*
X81579654Y-81964682D02*
G01*
X81625784Y-82001836D01*
X81681556Y-82046858D01*
X81743480Y-82096925D01*
X81808069Y-82149213D01*
X81871832Y-82200902D01*
X81927903Y-82246421D01*
X82134469Y-82413805D01*
X82329205Y-82570656D01*
X82511787Y-82716717D01*
X82623527Y-82805534D01*
X82668552Y-82841328D01*
X82723286Y-82885012D01*
X82785527Y-82934813D01*
X82853070Y-82988958D01*
X82923713Y-83045676D01*
X82995252Y-83103195D01*
X83065483Y-83159742D01*
X83132202Y-83213546D01*
X83193208Y-83262834D01*
X83246295Y-83305834D01*
X83289262Y-83340774D01*
X83303530Y-83352431D01*
X83373310Y-83409349D01*
X83446904Y-83468970D01*
X83526068Y-83532697D01*
X83612557Y-83601938D01*
X83708125Y-83678099D01*
X83814524Y-83762588D01*
X83866945Y-83804126D01*
X83937950Y-83860480D01*
X84014405Y-83921380D01*
X84093114Y-83984263D01*
X84170882Y-84046570D01*
X84244512Y-84105742D01*
X84310809Y-84159217D01*
X84359927Y-84199026D01*
X84419323Y-84247137D01*
X84488564Y-84302923D01*
X84564172Y-84363604D01*
X84642676Y-84426399D01*
X84720599Y-84488527D01*
X84794466Y-84547205D01*
X84835290Y-84579517D01*
X84892930Y-84625186D01*
X84946218Y-84667643D01*
X84993731Y-84705736D01*
X85034043Y-84738312D01*
X85065729Y-84764218D01*
X85087364Y-84782299D01*
X85097523Y-84791404D01*
X85098119Y-84792199D01*
X85091688Y-84799419D01*
X85073662Y-84812971D01*
X85047195Y-84830860D01*
X85015435Y-84851095D01*
X84981535Y-84871680D01*
X84948645Y-84890620D01*
X84919917Y-84905923D01*
X84913194Y-84909215D01*
X84884678Y-84924330D01*
X84860792Y-84939643D01*
X84848767Y-84949799D01*
X84833769Y-84963200D01*
X84809796Y-84980998D01*
X84786273Y-84996621D01*
X84759788Y-85014034D01*
X84738042Y-85029727D01*
X84726867Y-85039241D01*
X84718983Y-85044551D01*
X84708518Y-85042929D01*
X84692115Y-85032926D01*
X84666545Y-85013197D01*
X84640213Y-84992605D01*
X84604875Y-84965686D01*
X84565262Y-84936013D01*
X84528136Y-84908643D01*
X84486778Y-84878249D01*
X84443198Y-84845915D01*
X84402954Y-84815784D01*
X84375067Y-84794647D01*
X84350627Y-84776188D01*
X84315188Y-84749748D01*
X84271438Y-84717318D01*
X84222068Y-84680886D01*
X84169765Y-84642442D01*
X84129228Y-84612751D01*
X84076873Y-84574353D01*
X84025743Y-84536637D01*
X83978440Y-84501541D01*
X83937570Y-84471004D01*
X83905737Y-84446961D01*
X83888729Y-84433861D01*
X83858327Y-84410504D01*
X83819348Y-84381232D01*
X83777017Y-84349942D01*
X83739989Y-84322995D01*
X83700468Y-84294377D01*
X83660760Y-84265411D01*
X83625568Y-84239539D01*
X83600288Y-84220725D01*
X83562114Y-84192231D01*
X83512263Y-84155403D01*
X83452829Y-84111765D01*
X83385902Y-84062841D01*
X83313573Y-84010159D01*
X83237933Y-83955241D01*
X83161075Y-83899612D01*
X83085087Y-83844799D01*
X83060297Y-83826962D01*
X83006565Y-83788222D01*
X82955171Y-83750981D01*
X82908344Y-83716865D01*
X82868313Y-83687506D01*
X82837307Y-83664532D01*
X82817556Y-83649575D01*
X82815946Y-83648316D01*
X82786783Y-83626073D01*
X82757078Y-83604528D01*
X82739905Y-83592765D01*
X82713704Y-83575049D01*
X82677117Y-83549597D01*
X82633390Y-83518724D01*
X82585765Y-83484744D01*
X82537485Y-83449969D01*
X82491795Y-83416717D01*
X82452211Y-83387503D01*
X82413442Y-83358658D01*
X82371147Y-83327264D01*
X82332522Y-83298661D01*
X82320444Y-83289738D01*
X82254700Y-83240895D01*
X82177184Y-83182758D01*
X82089433Y-83116499D01*
X81992986Y-83043292D01*
X81889380Y-82964307D01*
X81780154Y-82880719D01*
X81666845Y-82793699D01*
X81550992Y-82704420D01*
X81434372Y-82614239D01*
X81342019Y-82542489D01*
X81262807Y-82480485D01*
X81196293Y-82427866D01*
X81142033Y-82384270D01*
X81099585Y-82349337D01*
X81068504Y-82322704D01*
X81048347Y-82304008D01*
X81038671Y-82292888D01*
X81037635Y-82290460D01*
X81040384Y-82276404D01*
X81054446Y-82263147D01*
X81071445Y-82253198D01*
X81092291Y-82240588D01*
X81104817Y-82229958D01*
X81106530Y-82226308D01*
X81112836Y-82218722D01*
X81130543Y-82204886D01*
X81156478Y-82187173D01*
X81171854Y-82177410D01*
X81206108Y-82155093D01*
X81229708Y-82136201D01*
X81247080Y-82116456D01*
X81262652Y-82091587D01*
X81264839Y-82087640D01*
X81284914Y-82053976D01*
X81309627Y-82016532D01*
X81328676Y-81990069D01*
X81354143Y-81956429D01*
X81381818Y-81919699D01*
X81400473Y-81894827D01*
X81435131Y-81848478D01*
X81579654Y-81964682D01*
G37*
X81579654Y-81964682D02*
X81625784Y-82001836D01*
X81681556Y-82046858D01*
X81743480Y-82096925D01*
X81808069Y-82149213D01*
X81871832Y-82200902D01*
X81927903Y-82246421D01*
X82134469Y-82413805D01*
X82329205Y-82570656D01*
X82511787Y-82716717D01*
X82623527Y-82805534D01*
X82668552Y-82841328D01*
X82723286Y-82885012D01*
X82785527Y-82934813D01*
X82853070Y-82988958D01*
X82923713Y-83045676D01*
X82995252Y-83103195D01*
X83065483Y-83159742D01*
X83132202Y-83213546D01*
X83193208Y-83262834D01*
X83246295Y-83305834D01*
X83289262Y-83340774D01*
X83303530Y-83352431D01*
X83373310Y-83409349D01*
X83446904Y-83468970D01*
X83526068Y-83532697D01*
X83612557Y-83601938D01*
X83708125Y-83678099D01*
X83814524Y-83762588D01*
X83866945Y-83804126D01*
X83937950Y-83860480D01*
X84014405Y-83921380D01*
X84093114Y-83984263D01*
X84170882Y-84046570D01*
X84244512Y-84105742D01*
X84310809Y-84159217D01*
X84359927Y-84199026D01*
X84419323Y-84247137D01*
X84488564Y-84302923D01*
X84564172Y-84363604D01*
X84642676Y-84426399D01*
X84720599Y-84488527D01*
X84794466Y-84547205D01*
X84835290Y-84579517D01*
X84892930Y-84625186D01*
X84946218Y-84667643D01*
X84993731Y-84705736D01*
X85034043Y-84738312D01*
X85065729Y-84764218D01*
X85087364Y-84782299D01*
X85097523Y-84791404D01*
X85098119Y-84792199D01*
X85091688Y-84799419D01*
X85073662Y-84812971D01*
X85047195Y-84830860D01*
X85015435Y-84851095D01*
X84981535Y-84871680D01*
X84948645Y-84890620D01*
X84919917Y-84905923D01*
X84913194Y-84909215D01*
X84884678Y-84924330D01*
X84860792Y-84939643D01*
X84848767Y-84949799D01*
X84833769Y-84963200D01*
X84809796Y-84980998D01*
X84786273Y-84996621D01*
X84759788Y-85014034D01*
X84738042Y-85029727D01*
X84726867Y-85039241D01*
X84718983Y-85044551D01*
X84708518Y-85042929D01*
X84692115Y-85032926D01*
X84666545Y-85013197D01*
X84640213Y-84992605D01*
X84604875Y-84965686D01*
X84565262Y-84936013D01*
X84528136Y-84908643D01*
X84486778Y-84878249D01*
X84443198Y-84845915D01*
X84402954Y-84815784D01*
X84375067Y-84794647D01*
X84350627Y-84776188D01*
X84315188Y-84749748D01*
X84271438Y-84717318D01*
X84222068Y-84680886D01*
X84169765Y-84642442D01*
X84129228Y-84612751D01*
X84076873Y-84574353D01*
X84025743Y-84536637D01*
X83978440Y-84501541D01*
X83937570Y-84471004D01*
X83905737Y-84446961D01*
X83888729Y-84433861D01*
X83858327Y-84410504D01*
X83819348Y-84381232D01*
X83777017Y-84349942D01*
X83739989Y-84322995D01*
X83700468Y-84294377D01*
X83660760Y-84265411D01*
X83625568Y-84239539D01*
X83600288Y-84220725D01*
X83562114Y-84192231D01*
X83512263Y-84155403D01*
X83452829Y-84111765D01*
X83385902Y-84062841D01*
X83313573Y-84010159D01*
X83237933Y-83955241D01*
X83161075Y-83899612D01*
X83085087Y-83844799D01*
X83060297Y-83826962D01*
X83006565Y-83788222D01*
X82955171Y-83750981D01*
X82908344Y-83716865D01*
X82868313Y-83687506D01*
X82837307Y-83664532D01*
X82817556Y-83649575D01*
X82815946Y-83648316D01*
X82786783Y-83626073D01*
X82757078Y-83604528D01*
X82739905Y-83592765D01*
X82713704Y-83575049D01*
X82677117Y-83549597D01*
X82633390Y-83518724D01*
X82585765Y-83484744D01*
X82537485Y-83449969D01*
X82491795Y-83416717D01*
X82452211Y-83387503D01*
X82413442Y-83358658D01*
X82371147Y-83327264D01*
X82332522Y-83298661D01*
X82320444Y-83289738D01*
X82254700Y-83240895D01*
X82177184Y-83182758D01*
X82089433Y-83116499D01*
X81992986Y-83043292D01*
X81889380Y-82964307D01*
X81780154Y-82880719D01*
X81666845Y-82793699D01*
X81550992Y-82704420D01*
X81434372Y-82614239D01*
X81342019Y-82542489D01*
X81262807Y-82480485D01*
X81196293Y-82427866D01*
X81142033Y-82384270D01*
X81099585Y-82349337D01*
X81068504Y-82322704D01*
X81048347Y-82304008D01*
X81038671Y-82292888D01*
X81037635Y-82290460D01*
X81040384Y-82276404D01*
X81054446Y-82263147D01*
X81071445Y-82253198D01*
X81092291Y-82240588D01*
X81104817Y-82229958D01*
X81106530Y-82226308D01*
X81112836Y-82218722D01*
X81130543Y-82204886D01*
X81156478Y-82187173D01*
X81171854Y-82177410D01*
X81206108Y-82155093D01*
X81229708Y-82136201D01*
X81247080Y-82116456D01*
X81262652Y-82091587D01*
X81264839Y-82087640D01*
X81284914Y-82053976D01*
X81309627Y-82016532D01*
X81328676Y-81990069D01*
X81354143Y-81956429D01*
X81381818Y-81919699D01*
X81400473Y-81894827D01*
X81435131Y-81848478D01*
X81579654Y-81964682D01*
G36*
X76669904Y-78093937D02*
G01*
X76686043Y-78099438D01*
X76705908Y-78110176D01*
X76731659Y-78127235D01*
X76765459Y-78151700D01*
X76809471Y-78184655D01*
X76838313Y-78206415D01*
X76863220Y-78225387D01*
X76899440Y-78253228D01*
X76945771Y-78289002D01*
X77001011Y-78331769D01*
X77063959Y-78380594D01*
X77133412Y-78434538D01*
X77208169Y-78492663D01*
X77287029Y-78554033D01*
X77368789Y-78617711D01*
X77452247Y-78682758D01*
X77536203Y-78748236D01*
X77619454Y-78813210D01*
X77700797Y-78876740D01*
X77779033Y-78937890D01*
X77852958Y-78995723D01*
X77921371Y-79049301D01*
X77983071Y-79097686D01*
X78036855Y-79139941D01*
X78081523Y-79175128D01*
X78115871Y-79202311D01*
X78138698Y-79220550D01*
X78145826Y-79226363D01*
X78176621Y-79251526D01*
X78205780Y-79274668D01*
X78228668Y-79292137D01*
X78235545Y-79297076D01*
X78249027Y-79307121D01*
X78273739Y-79326254D01*
X78307733Y-79352937D01*
X78349058Y-79385630D01*
X78395761Y-79422796D01*
X78445892Y-79462893D01*
X78455423Y-79470539D01*
X78504582Y-79509912D01*
X78564417Y-79557700D01*
X78632316Y-79611825D01*
X78705666Y-79670208D01*
X78781853Y-79730769D01*
X78858268Y-79791431D01*
X78932294Y-79850113D01*
X78961209Y-79873007D01*
X79040389Y-79935708D01*
X79128867Y-80005823D01*
X79222904Y-80080390D01*
X79318769Y-80156444D01*
X79412724Y-80231023D01*
X79501037Y-80301164D01*
X79579971Y-80363902D01*
X79583303Y-80366552D01*
X79892443Y-80612397D01*
X79863006Y-80664564D01*
X79833571Y-80716055D01*
X79809599Y-80756274D01*
X79788759Y-80788977D01*
X79768722Y-80817927D01*
X79763416Y-80825220D01*
X79745458Y-80852201D01*
X79730676Y-80878751D01*
X79725677Y-80890075D01*
X79716332Y-80910654D01*
X79701057Y-80939653D01*
X79682974Y-80971182D01*
X79680915Y-80974605D01*
X79664680Y-81002976D01*
X79652878Y-81026534D01*
X79647603Y-81041017D01*
X79647528Y-81042584D01*
X79643998Y-81055210D01*
X79633532Y-81076346D01*
X79623826Y-81092704D01*
X79610140Y-81116060D01*
X79601518Y-81134142D01*
X79599876Y-81140804D01*
X79598570Y-81150659D01*
X79590309Y-81151711D01*
X79573742Y-81143269D01*
X79547522Y-81124643D01*
X79510298Y-81095146D01*
X79509897Y-81094818D01*
X79483544Y-81073484D01*
X79446267Y-81043495D01*
X79400404Y-81006727D01*
X79348294Y-80965050D01*
X79292279Y-80920336D01*
X79234695Y-80874458D01*
X79207472Y-80852800D01*
X79124018Y-80786284D01*
X79030528Y-80711489D01*
X78929550Y-80630473D01*
X78823634Y-80545293D01*
X78715329Y-80458006D01*
X78607187Y-80370669D01*
X78501754Y-80285339D01*
X78401580Y-80204073D01*
X78309216Y-80128929D01*
X78227209Y-80061962D01*
X78216669Y-80053331D01*
X78202203Y-80041488D01*
X78176830Y-80020719D01*
X78142746Y-79992827D01*
X78102154Y-79959610D01*
X78057248Y-79922865D01*
X78025843Y-79897170D01*
X77978958Y-79858715D01*
X77934658Y-79822207D01*
X77895208Y-79789525D01*
X77862877Y-79762553D01*
X77839932Y-79743173D01*
X77831127Y-79735541D01*
X77812265Y-79718963D01*
X77790856Y-79700604D01*
X77765030Y-79678911D01*
X77732916Y-79652337D01*
X77692645Y-79619329D01*
X77642346Y-79578336D01*
X77600581Y-79544395D01*
X77535729Y-79491618D01*
X77470859Y-79438610D01*
X77407574Y-79386695D01*
X77347472Y-79337199D01*
X77292154Y-79291445D01*
X77243222Y-79250759D01*
X77202275Y-79216465D01*
X77170914Y-79189887D01*
X77150739Y-79172351D01*
X77147878Y-79169760D01*
X77114789Y-79140248D01*
X77073836Y-79104967D01*
X77030500Y-79068573D01*
X76990261Y-79035722D01*
X76986408Y-79032641D01*
X76970220Y-79019282D01*
X76943175Y-78996441D01*
X76907183Y-78965760D01*
X76864152Y-78928883D01*
X76815990Y-78887452D01*
X76764606Y-78843110D01*
X76711909Y-78797502D01*
X76659807Y-78752268D01*
X76610210Y-78709054D01*
X76590865Y-78692146D01*
X76561390Y-78666012D01*
X76535528Y-78642451D01*
X76516737Y-78624649D01*
X76509865Y-78617572D01*
X76495802Y-78603408D01*
X76474102Y-78583462D01*
X76455920Y-78567596D01*
X76414899Y-78530481D01*
X76386417Y-78498892D01*
X76368370Y-78469850D01*
X76358656Y-78440374D01*
X76356495Y-78426627D01*
X76358638Y-78376493D01*
X76374611Y-78323483D01*
X76402249Y-78270276D01*
X76439384Y-78219550D01*
X76483850Y-78173986D01*
X76533483Y-78136262D01*
X76586115Y-78109057D01*
X76622205Y-78098000D01*
X76640147Y-78094302D01*
X76655325Y-78092586D01*
X76669904Y-78093937D01*
G37*
X76669904Y-78093937D02*
X76686043Y-78099438D01*
X76705908Y-78110176D01*
X76731659Y-78127235D01*
X76765459Y-78151700D01*
X76809471Y-78184655D01*
X76838313Y-78206415D01*
X76863220Y-78225387D01*
X76899440Y-78253228D01*
X76945771Y-78289002D01*
X77001011Y-78331769D01*
X77063959Y-78380594D01*
X77133412Y-78434538D01*
X77208169Y-78492663D01*
X77287029Y-78554033D01*
X77368789Y-78617711D01*
X77452247Y-78682758D01*
X77536203Y-78748236D01*
X77619454Y-78813210D01*
X77700797Y-78876740D01*
X77779033Y-78937890D01*
X77852958Y-78995723D01*
X77921371Y-79049301D01*
X77983071Y-79097686D01*
X78036855Y-79139941D01*
X78081523Y-79175128D01*
X78115871Y-79202311D01*
X78138698Y-79220550D01*
X78145826Y-79226363D01*
X78176621Y-79251526D01*
X78205780Y-79274668D01*
X78228668Y-79292137D01*
X78235545Y-79297076D01*
X78249027Y-79307121D01*
X78273739Y-79326254D01*
X78307733Y-79352937D01*
X78349058Y-79385630D01*
X78395761Y-79422796D01*
X78445892Y-79462893D01*
X78455423Y-79470539D01*
X78504582Y-79509912D01*
X78564417Y-79557700D01*
X78632316Y-79611825D01*
X78705666Y-79670208D01*
X78781853Y-79730769D01*
X78858268Y-79791431D01*
X78932294Y-79850113D01*
X78961209Y-79873007D01*
X79040389Y-79935708D01*
X79128867Y-80005823D01*
X79222904Y-80080390D01*
X79318769Y-80156444D01*
X79412724Y-80231023D01*
X79501037Y-80301164D01*
X79579971Y-80363902D01*
X79583303Y-80366552D01*
X79892443Y-80612397D01*
X79863006Y-80664564D01*
X79833571Y-80716055D01*
X79809599Y-80756274D01*
X79788759Y-80788977D01*
X79768722Y-80817927D01*
X79763416Y-80825220D01*
X79745458Y-80852201D01*
X79730676Y-80878751D01*
X79725677Y-80890075D01*
X79716332Y-80910654D01*
X79701057Y-80939653D01*
X79682974Y-80971182D01*
X79680915Y-80974605D01*
X79664680Y-81002976D01*
X79652878Y-81026534D01*
X79647603Y-81041017D01*
X79647528Y-81042584D01*
X79643998Y-81055210D01*
X79633532Y-81076346D01*
X79623826Y-81092704D01*
X79610140Y-81116060D01*
X79601518Y-81134142D01*
X79599876Y-81140804D01*
X79598570Y-81150659D01*
X79590309Y-81151711D01*
X79573742Y-81143269D01*
X79547522Y-81124643D01*
X79510298Y-81095146D01*
X79509897Y-81094818D01*
X79483544Y-81073484D01*
X79446267Y-81043495D01*
X79400404Y-81006727D01*
X79348294Y-80965050D01*
X79292279Y-80920336D01*
X79234695Y-80874458D01*
X79207472Y-80852800D01*
X79124018Y-80786284D01*
X79030528Y-80711489D01*
X78929550Y-80630473D01*
X78823634Y-80545293D01*
X78715329Y-80458006D01*
X78607187Y-80370669D01*
X78501754Y-80285339D01*
X78401580Y-80204073D01*
X78309216Y-80128929D01*
X78227209Y-80061962D01*
X78216669Y-80053331D01*
X78202203Y-80041488D01*
X78176830Y-80020719D01*
X78142746Y-79992827D01*
X78102154Y-79959610D01*
X78057248Y-79922865D01*
X78025843Y-79897170D01*
X77978958Y-79858715D01*
X77934658Y-79822207D01*
X77895208Y-79789525D01*
X77862877Y-79762553D01*
X77839932Y-79743173D01*
X77831127Y-79735541D01*
X77812265Y-79718963D01*
X77790856Y-79700604D01*
X77765030Y-79678911D01*
X77732916Y-79652337D01*
X77692645Y-79619329D01*
X77642346Y-79578336D01*
X77600581Y-79544395D01*
X77535729Y-79491618D01*
X77470859Y-79438610D01*
X77407574Y-79386695D01*
X77347472Y-79337199D01*
X77292154Y-79291445D01*
X77243222Y-79250759D01*
X77202275Y-79216465D01*
X77170914Y-79189887D01*
X77150739Y-79172351D01*
X77147878Y-79169760D01*
X77114789Y-79140248D01*
X77073836Y-79104967D01*
X77030500Y-79068573D01*
X76990261Y-79035722D01*
X76986408Y-79032641D01*
X76970220Y-79019282D01*
X76943175Y-78996441D01*
X76907183Y-78965760D01*
X76864152Y-78928883D01*
X76815990Y-78887452D01*
X76764606Y-78843110D01*
X76711909Y-78797502D01*
X76659807Y-78752268D01*
X76610210Y-78709054D01*
X76590865Y-78692146D01*
X76561390Y-78666012D01*
X76535528Y-78642451D01*
X76516737Y-78624649D01*
X76509865Y-78617572D01*
X76495802Y-78603408D01*
X76474102Y-78583462D01*
X76455920Y-78567596D01*
X76414899Y-78530481D01*
X76386417Y-78498892D01*
X76368370Y-78469850D01*
X76358656Y-78440374D01*
X76356495Y-78426627D01*
X76358638Y-78376493D01*
X76374611Y-78323483D01*
X76402249Y-78270276D01*
X76439384Y-78219550D01*
X76483850Y-78173986D01*
X76533483Y-78136262D01*
X76586115Y-78109057D01*
X76622205Y-78098000D01*
X76640147Y-78094302D01*
X76655325Y-78092586D01*
X76669904Y-78093937D01*
D14*
%TO.C,REF\u002A\u002A*%
X96012000Y-43424500D02*
G75*
G03*
X94978135Y-39273955I-20320019J-2857506D01*
G01*
X68683954Y-65568135D02*
G75*
G03*
X72834500Y-66602000I7008046J19286135D01*
G01*
X72834500Y-25962000D02*
G75*
G03*
X68683952Y-26995866I2857496J-20319983D01*
G01*
X55372000Y-49139500D02*
G75*
G03*
X56405866Y-53290047I20319953J2857490D01*
G01*
X75692000Y-35487000D02*
G75*
G03*
X74563615Y-35546136I-6J-10794921D01*
G01*
X94978135Y-53290046D02*
G75*
G03*
X96012000Y-49139500I-19286185J7008058D01*
G01*
X75692000Y-57077001D02*
G75*
G03*
X76820385Y-57017864I0J10794901D01*
G01*
X78549500Y-66602000D02*
G75*
G03*
X82700047Y-65568134I-2857500J20320000D01*
G01*
X76820385Y-35546137D02*
G75*
G03*
X75692000Y-35487000I-1128385J-10735763D01*
G01*
X82700047Y-26995866D02*
G75*
G03*
X78549500Y-25962000I-7008047J-19286134D01*
G01*
X56405866Y-39273952D02*
G75*
G03*
X55372000Y-43424500I19286117J-7008044D01*
G01*
X74563615Y-57017864D02*
G75*
G03*
X75692000Y-57077000I1128379J10735785D01*
G01*
G36*
X74065245Y-60363867D02*
G01*
X74868191Y-59561167D01*
X75156559Y-59564261D01*
X75444927Y-59567354D01*
X74597703Y-60427491D01*
X74479778Y-60547214D01*
X74364979Y-60663763D01*
X74254525Y-60775903D01*
X74149633Y-60882396D01*
X74051521Y-60982007D01*
X73961406Y-61073500D01*
X73880507Y-61155637D01*
X73810040Y-61227182D01*
X73751224Y-61286900D01*
X73705277Y-61333554D01*
X73673416Y-61365907D01*
X73659635Y-61379903D01*
X73568791Y-61472179D01*
X73568791Y-58730309D01*
X74065245Y-58730309D01*
X74065245Y-60363867D01*
G37*
D13*
X74065245Y-60363867D02*
X74868191Y-59561167D01*
X75156559Y-59564261D01*
X75444927Y-59567354D01*
X74597703Y-60427491D01*
X74479778Y-60547214D01*
X74364979Y-60663763D01*
X74254525Y-60775903D01*
X74149633Y-60882396D01*
X74051521Y-60982007D01*
X73961406Y-61073500D01*
X73880507Y-61155637D01*
X73810040Y-61227182D01*
X73751224Y-61286900D01*
X73705277Y-61333554D01*
X73673416Y-61365907D01*
X73659635Y-61379903D01*
X73568791Y-61472179D01*
X73568791Y-58730309D01*
X74065245Y-58730309D01*
X74065245Y-60363867D01*
G36*
X74872025Y-60770398D02*
G01*
X74894728Y-60793261D01*
X74929207Y-60828792D01*
X74973476Y-60874884D01*
X75025543Y-60929430D01*
X75083422Y-60990324D01*
X75145121Y-61055459D01*
X75208654Y-61122729D01*
X75272029Y-61190027D01*
X75333259Y-61255246D01*
X75390355Y-61316281D01*
X75441327Y-61371024D01*
X75484187Y-61417369D01*
X75516945Y-61453209D01*
X75537613Y-61476438D01*
X75539906Y-61479129D01*
X75568207Y-61512764D01*
X74948193Y-61512764D01*
X74774843Y-61336695D01*
X74721101Y-61281952D01*
X74670818Y-61230439D01*
X74627002Y-61185259D01*
X74592656Y-61149513D01*
X74570788Y-61126304D01*
X74567611Y-61122812D01*
X74533729Y-61084997D01*
X74694764Y-60923653D01*
X74744477Y-60874198D01*
X74788701Y-60830873D01*
X74824848Y-60796160D01*
X74850330Y-60772540D01*
X74862559Y-60762492D01*
X74863090Y-60762309D01*
X74872025Y-60770398D01*
G37*
X74872025Y-60770398D02*
X74894728Y-60793261D01*
X74929207Y-60828792D01*
X74973476Y-60874884D01*
X75025543Y-60929430D01*
X75083422Y-60990324D01*
X75145121Y-61055459D01*
X75208654Y-61122729D01*
X75272029Y-61190027D01*
X75333259Y-61255246D01*
X75390355Y-61316281D01*
X75441327Y-61371024D01*
X75484187Y-61417369D01*
X75516945Y-61453209D01*
X75537613Y-61476438D01*
X75539906Y-61479129D01*
X75568207Y-61512764D01*
X74948193Y-61512764D01*
X74774843Y-61336695D01*
X74721101Y-61281952D01*
X74670818Y-61230439D01*
X74627002Y-61185259D01*
X74592656Y-61149513D01*
X74570788Y-61126304D01*
X74567611Y-61122812D01*
X74533729Y-61084997D01*
X74694764Y-60923653D01*
X74744477Y-60874198D01*
X74788701Y-60830873D01*
X74824848Y-60796160D01*
X74850330Y-60772540D01*
X74862559Y-60762492D01*
X74863090Y-60762309D01*
X74872025Y-60770398D01*
G36*
X75765889Y-60466589D02*
G01*
X75764486Y-60359960D01*
X75763442Y-60237304D01*
X75762778Y-60100032D01*
X75762517Y-59949558D01*
X75762514Y-59937822D01*
X75762427Y-59246108D01*
X76270131Y-58736082D01*
X76270279Y-59229650D01*
X76270471Y-59333890D01*
X76270960Y-59430635D01*
X76271710Y-59517521D01*
X76272686Y-59592183D01*
X76273855Y-59652258D01*
X76275182Y-59695381D01*
X76276631Y-59719188D01*
X76277539Y-59723218D01*
X76289970Y-59716904D01*
X76314816Y-59700561D01*
X76338950Y-59683359D01*
X76453647Y-59612637D01*
X76575863Y-59563533D01*
X76706246Y-59535857D01*
X76845447Y-59529419D01*
X76863259Y-59530087D01*
X76952894Y-59536639D01*
X77029377Y-59548576D01*
X77101029Y-59568068D01*
X77176167Y-59597285D01*
X77246018Y-59629924D01*
X77373951Y-59705217D01*
X77486871Y-59797197D01*
X77583765Y-59904186D01*
X77663623Y-60024511D01*
X77725433Y-60156496D01*
X77768185Y-60298465D01*
X77790866Y-60448744D01*
X77794427Y-60538414D01*
X77784136Y-60690892D01*
X77752780Y-60835456D01*
X77699635Y-60974692D01*
X77642380Y-61081611D01*
X77556668Y-61201904D01*
X77455055Y-61306753D01*
X77339722Y-61395075D01*
X77212847Y-61465789D01*
X77076611Y-61517812D01*
X76933192Y-61550065D01*
X76784771Y-61561464D01*
X76684525Y-61556981D01*
X76539917Y-61532100D01*
X76399349Y-61485825D01*
X76266176Y-61419846D01*
X76143756Y-61335849D01*
X76035444Y-61235523D01*
X76027050Y-61226357D01*
X75945919Y-61122237D01*
X75876227Y-61004055D01*
X75821061Y-60878192D01*
X75783508Y-60751032D01*
X75774639Y-60704582D01*
X75772026Y-60676187D01*
X75769681Y-60626115D01*
X75768212Y-60575781D01*
X76264550Y-60575781D01*
X76275122Y-60673330D01*
X76305554Y-60767349D01*
X76334208Y-60821494D01*
X76401142Y-60909777D01*
X76480623Y-60980654D01*
X76570055Y-61033147D01*
X76666841Y-61066279D01*
X76768382Y-61079073D01*
X76872083Y-61070552D01*
X76944910Y-61051264D01*
X76987907Y-61035178D01*
X77028812Y-61017818D01*
X77044979Y-61010042D01*
X77090265Y-60979038D01*
X77139588Y-60932844D01*
X77187645Y-60877388D01*
X77229130Y-60818594D01*
X77250618Y-60780267D01*
X77270799Y-60736021D01*
X77283444Y-60697413D01*
X77290801Y-60655121D01*
X77295119Y-60599818D01*
X77295401Y-60594528D01*
X77292033Y-60487283D01*
X77269177Y-60389391D01*
X77225525Y-60295968D01*
X77207755Y-60267439D01*
X77143213Y-60189535D01*
X77064396Y-60127365D01*
X76974760Y-60081869D01*
X76877761Y-60053991D01*
X76776857Y-60044671D01*
X76675505Y-60054853D01*
X76577159Y-60085478D01*
X76563156Y-60091764D01*
X76475204Y-60144713D01*
X76401214Y-60212927D01*
X76342171Y-60293273D01*
X76299058Y-60382620D01*
X76272856Y-60477833D01*
X76264550Y-60575781D01*
X75768212Y-60575781D01*
X75767628Y-60555778D01*
X75765889Y-60466589D01*
G37*
X75765889Y-60466589D02*
X75764486Y-60359960D01*
X75763442Y-60237304D01*
X75762778Y-60100032D01*
X75762517Y-59949558D01*
X75762514Y-59937822D01*
X75762427Y-59246108D01*
X76270131Y-58736082D01*
X76270279Y-59229650D01*
X76270471Y-59333890D01*
X76270960Y-59430635D01*
X76271710Y-59517521D01*
X76272686Y-59592183D01*
X76273855Y-59652258D01*
X76275182Y-59695381D01*
X76276631Y-59719188D01*
X76277539Y-59723218D01*
X76289970Y-59716904D01*
X76314816Y-59700561D01*
X76338950Y-59683359D01*
X76453647Y-59612637D01*
X76575863Y-59563533D01*
X76706246Y-59535857D01*
X76845447Y-59529419D01*
X76863259Y-59530087D01*
X76952894Y-59536639D01*
X77029377Y-59548576D01*
X77101029Y-59568068D01*
X77176167Y-59597285D01*
X77246018Y-59629924D01*
X77373951Y-59705217D01*
X77486871Y-59797197D01*
X77583765Y-59904186D01*
X77663623Y-60024511D01*
X77725433Y-60156496D01*
X77768185Y-60298465D01*
X77790866Y-60448744D01*
X77794427Y-60538414D01*
X77784136Y-60690892D01*
X77752780Y-60835456D01*
X77699635Y-60974692D01*
X77642380Y-61081611D01*
X77556668Y-61201904D01*
X77455055Y-61306753D01*
X77339722Y-61395075D01*
X77212847Y-61465789D01*
X77076611Y-61517812D01*
X76933192Y-61550065D01*
X76784771Y-61561464D01*
X76684525Y-61556981D01*
X76539917Y-61532100D01*
X76399349Y-61485825D01*
X76266176Y-61419846D01*
X76143756Y-61335849D01*
X76035444Y-61235523D01*
X76027050Y-61226357D01*
X75945919Y-61122237D01*
X75876227Y-61004055D01*
X75821061Y-60878192D01*
X75783508Y-60751032D01*
X75774639Y-60704582D01*
X75772026Y-60676187D01*
X75769681Y-60626115D01*
X75768212Y-60575781D01*
X76264550Y-60575781D01*
X76275122Y-60673330D01*
X76305554Y-60767349D01*
X76334208Y-60821494D01*
X76401142Y-60909777D01*
X76480623Y-60980654D01*
X76570055Y-61033147D01*
X76666841Y-61066279D01*
X76768382Y-61079073D01*
X76872083Y-61070552D01*
X76944910Y-61051264D01*
X76987907Y-61035178D01*
X77028812Y-61017818D01*
X77044979Y-61010042D01*
X77090265Y-60979038D01*
X77139588Y-60932844D01*
X77187645Y-60877388D01*
X77229130Y-60818594D01*
X77250618Y-60780267D01*
X77270799Y-60736021D01*
X77283444Y-60697413D01*
X77290801Y-60655121D01*
X77295119Y-60599818D01*
X77295401Y-60594528D01*
X77292033Y-60487283D01*
X77269177Y-60389391D01*
X77225525Y-60295968D01*
X77207755Y-60267439D01*
X77143213Y-60189535D01*
X77064396Y-60127365D01*
X76974760Y-60081869D01*
X76877761Y-60053991D01*
X76776857Y-60044671D01*
X76675505Y-60054853D01*
X76577159Y-60085478D01*
X76563156Y-60091764D01*
X76475204Y-60144713D01*
X76401214Y-60212927D01*
X76342171Y-60293273D01*
X76299058Y-60382620D01*
X76272856Y-60477833D01*
X76264550Y-60575781D01*
X75768212Y-60575781D01*
X75767628Y-60555778D01*
X75765889Y-60466589D01*
D12*
%TO.C,BatGND4*%
X35068000Y-49800000D02*
X35068000Y-51800000D01*
X35068000Y-51800000D02*
X37068000Y-51800000D01*
X37068000Y-49800000D02*
X35068000Y-49800000D01*
X37068000Y-51800000D02*
X37068000Y-49800000D01*
%TO.C,B+*%
X23638000Y-49800000D02*
X23638000Y-51800000D01*
X25638000Y-51800000D02*
X25638000Y-49800000D01*
X25638000Y-49800000D02*
X23638000Y-49800000D01*
X23638000Y-51800000D02*
X25638000Y-51800000D01*
D15*
%TO.C,RSW2*%
X40750000Y-84675000D02*
X40750000Y-84975000D01*
X44050000Y-84975000D02*
X44050000Y-84675000D01*
X40750000Y-84975000D02*
X44050000Y-84975000D01*
X44050000Y-82175000D02*
X44050000Y-82475000D01*
X40750000Y-82475000D02*
X40750000Y-82175000D01*
X40750000Y-82175000D02*
X44050000Y-82175000D01*
%TD*%
D16*
%TO.C,BatGND4*%
X36068000Y-50800000D03*
%TD*%
%TO.C,B+*%
X24638000Y-50800000D03*
%TD*%
M02*
