M48
; DRILL file {KiCad (6.0.8-1)-1} date 2023 February 27, Monday 10:47:18
; FORMAT={-:-/ absolute / inch / decimal}
; #@! TF.CreationDate,2023-02-27T10:47:18+02:00
; #@! TF.GenerationSoftware,Kicad,Pcbnew,(6.0.8-1)-1
; #@! TF.FileFunction,NonPlated,1,2,NPTH
FMAT,2
INCH
; #@! TA.AperFunction,NonPlated,NPTH,ComponentDrill
T1C0.0315
; #@! TA.AperFunction,NonPlated,NPTH,ComponentDrill
T2C0.0354
; #@! TA.AperFunction,NonPlated,NPTH,ComponentDrill
T3C0.0390
; #@! TA.AperFunction,NonPlated,NPTH,ComponentDrill
T4C0.0670
; #@! TA.AperFunction,NonPlated,NPTH,ComponentDrill
T5C0.1350
%
G90
G05
T1
X1.003Y-3.3879
X1.2786Y-3.3879
T2
X1.1409Y-2.04
X1.2591Y-2.04
T3
X1.4093Y-4.1075
X1.7113Y-1.3457
X1.7113Y-2.0146
X1.7113Y-2.6846
X1.7653Y-3.9019
X2.0796Y-3.7594
X2.1223Y-1.3457
X2.1223Y-2.0146
X2.1223Y-2.6846
X2.4205Y-1.2473
X2.4205Y-1.9146
X2.4205Y-2.5846
X2.4767Y-3.6531
X2.8315Y-1.2473
X2.8315Y-1.9146
X2.8315Y-2.5846
X3.1287Y-1.0308
X3.1287Y-1.7046
X3.1287Y-2.3746
X3.5397Y-1.0308
X3.5397Y-1.7046
X3.5397Y-2.3746
X3.8383Y-1.3064
X3.8383Y-1.9746
X3.8383Y-2.6446
X4.2494Y-1.3064
X4.2494Y-1.9746
X4.2494Y-2.6446
X4.5477Y-1.7788
X4.5477Y-2.4481
X4.5477Y-3.1174
X4.9587Y-1.7788
X4.9587Y-2.4481
X4.9587Y-3.1174
T4
X1.3171Y-3.9698
X1.6922Y-3.7532
X1.7002Y-1.5111
X1.7002Y-2.18
X1.7002Y-2.85
X2.0262Y-3.6026
X2.1333Y-1.5111
X2.1333Y-2.18
X2.1333Y-2.85
X2.4094Y-1.4127
X2.4094Y-2.08
X2.4094Y-2.75
X2.4445Y-3.4905
X2.8425Y-1.4127
X2.8425Y-2.08
X2.8425Y-2.75
X3.1176Y-1.1961
X3.1176Y-1.87
X3.1176Y-2.54
X3.5507Y-1.1961
X3.5507Y-1.87
X3.5507Y-2.54
X3.8273Y-1.4717
X3.8273Y-2.14
X3.8273Y-2.81
X4.2604Y-1.4717
X4.2604Y-2.14
X4.2604Y-2.81
X4.5367Y-1.9442
X4.5367Y-2.6135
X4.5367Y-3.2828
X4.9698Y-1.9442
X4.9698Y-2.6135
X4.9698Y-3.2828
T5
X1.5046Y-3.8615
X1.9168Y-1.5111
X1.9168Y-2.18
X1.9168Y-2.85
X2.2354Y-3.5465
X2.626Y-1.4127
X2.626Y-2.08
X2.626Y-2.75
X3.3342Y-1.1961
X3.3342Y-1.87
X3.3342Y-2.54
X4.0439Y-1.4717
X4.0439Y-2.14
X4.0439Y-2.81
X4.7532Y-1.9442
X4.7532Y-2.6135
X4.7532Y-3.2828
T0
M30
