M48
; DRILL file {KiCad (6.0.8-1)-1} date 2023 February 27, Monday 10:47:18
; FORMAT={-:-/ absolute / inch / decimal}
; #@! TF.CreationDate,2023-02-27T10:47:18+02:00
; #@! TF.GenerationSoftware,Kicad,Pcbnew,(6.0.8-1)-1
; #@! TF.FileFunction,Plated,1,2,PTH
FMAT,2
INCH
; #@! TA.AperFunction,Plated,PTH,ViaDrill
T1C0.0157
; #@! TA.AperFunction,Plated,PTH,ComponentDrill
T2C0.0320
; #@! TA.AperFunction,Plated,PTH,ComponentDrill
T3C0.0354
; #@! TA.AperFunction,Plated,PTH,ComponentDrill
T4C0.0394
; #@! TA.AperFunction,Plated,PTH,ComponentDrill
T5C0.0598
; #@! TA.AperFunction,Plated,PTH,ComponentDrill
T6C0.0866
%
G90
G05
T1
X1.16Y-2.95
X1.272Y-3.0657
X1.3252Y-2.8717
X1.3917Y-2.9362
X1.7352Y-3.4598
X2.06Y-2.5
X2.2059Y-3.2276
T2
X0.97Y-2.0
X1.42Y-2.0
T4
X0.8937Y-1.9902
X0.8937Y-2.0902
X0.8937Y-2.1902
X0.8937Y-2.2902
X0.8937Y-2.3902
X0.8937Y-2.4902
X0.8937Y-2.5902
X0.8937Y-2.6902
X0.8937Y-2.7902
X0.8937Y-2.8902
X0.8937Y-2.9902
X0.8937Y-3.0902
X0.8937Y-3.1902
X0.9937Y-2.2902
X0.9937Y-3.1902
X1.0937Y-3.1902
X1.1937Y-3.1902
X1.2937Y-3.1902
X1.3937Y-3.1902
X1.4937Y-1.9902
X1.4937Y-2.0902
X1.4937Y-2.1902
X1.4937Y-2.2902
X1.4937Y-2.3902
X1.4937Y-2.4902
X1.4937Y-2.5902
X1.4937Y-2.6902
X1.4937Y-2.7902
X1.4937Y-2.8902
X1.4937Y-2.9902
X1.4937Y-3.0902
X1.4937Y-3.1902
T5
X1.3885Y-3.6603
X1.6003Y-3.6335
X1.7199Y-1.6607
X1.7199Y-2.3296
X1.7199Y-2.9996
X1.9168Y-1.7434
X1.9168Y-2.4123
X1.9168Y-3.0823
X2.1752Y-3.3222
X2.3868Y-3.3511
X2.4291Y-1.5623
X2.4291Y-2.2296
X2.4291Y-2.8996
X2.626Y-1.645
X2.626Y-2.3123
X2.626Y-2.9823
X3.1373Y-1.3457
X3.1373Y-2.0196
X3.1373Y-2.6896
X3.3342Y-1.4284
X3.3342Y-2.1023
X3.3342Y-2.7723
X3.847Y-1.6213
X3.847Y-2.2896
X3.847Y-2.9596
X4.0439Y-1.704
X4.0439Y-2.3723
X4.0439Y-3.0423
X4.5564Y-2.0938
X4.5564Y-2.7631
X4.5564Y-3.4324
X4.7532Y-2.1765
X4.7532Y-2.8457
X4.7532Y-3.515
T6
X1.875Y-3.7136
X2.23Y-1.8221
X2.98Y-1.0721
X2.98Y-2.5721
X3.73Y-1.8221
T3
G00X1.0581Y-3.2973
M15
G01X1.0739Y-3.2973
M16
G05
G00X1.1762Y-3.2973
M15
G01X1.192Y-3.2973
M16
G05
G00X1.3337Y-3.2973
M15
G01X1.3494Y-3.2973
M16
G05
G00X1.377Y-3.4784
M15
G01X1.3928Y-3.4784
M16
G05
T0
M30
