%TF.GenerationSoftware,KiCad,Pcbnew,(6.0.8-1)-1*%
%TF.CreationDate,2023-02-27T10:47:16+02:00*%
%TF.ProjectId,sweepv2,73776565-7076-4322-9e6b-696361645f70,rev?*%
%TF.SameCoordinates,Original*%
%TF.FileFunction,Soldermask,Bot*%
%TF.FilePolarity,Negative*%
%FSLAX46Y46*%
G04 Gerber Fmt 4.6, Leading zero omitted, Abs format (unit mm)*
G04 Created by KiCad (PCBNEW (6.0.8-1)-1) date 2023-02-27 10:47:16*
%MOMM*%
%LPD*%
G01*
G04 APERTURE LIST*
G04 Aperture macros list*
%AMRoundRect*
0 Rectangle with rounded corners*
0 $1 Rounding radius*
0 $2 $3 $4 $5 $6 $7 $8 $9 X,Y pos of 4 corners*
0 Add a 4 corners polygon primitive as box body*
4,1,4,$2,$3,$4,$5,$6,$7,$8,$9,$2,$3,0*
0 Add four circle primitives for the rounded corners*
1,1,$1+$1,$2,$3*
1,1,$1+$1,$4,$5*
1,1,$1+$1,$6,$7*
1,1,$1+$1,$8,$9*
0 Add four rect primitives between the rounded corners*
20,1,$1+$1,$2,$3,$4,$5,0*
20,1,$1+$1,$4,$5,$6,$7,0*
20,1,$1+$1,$6,$7,$8,$9,0*
20,1,$1+$1,$8,$9,$2,$3,0*%
G04 Aperture macros list end*
%ADD10C,1.700000*%
%ADD11RoundRect,0.425000X0.425000X0.425000X-0.425000X0.425000X-0.425000X-0.425000X0.425000X-0.425000X0*%
%ADD12O,1.700000X1.700000*%
%ADD13RoundRect,0.425000X0.000000X-0.601041X0.601041X0.000000X0.000000X0.601041X-0.601041X0.000000X0*%
%ADD14RoundRect,0.425000X-0.425000X-0.425000X0.425000X-0.425000X0.425000X0.425000X-0.425000X0.425000X0*%
%ADD15C,0.800000*%
%ADD16O,2.000000X1.600000*%
%ADD17C,1.701800*%
%ADD18C,0.990600*%
%ADD19C,3.429000*%
%ADD20C,2.282000*%
%ADD21C,4.400000*%
%ADD22C,1.397000*%
%ADD23C,3.600000*%
%ADD24C,1.000000*%
%ADD25R,0.900000X0.900000*%
%ADD26R,0.900000X1.250000*%
G04 APERTURE END LIST*
D10*
%TO.C,U2*%
X37940000Y-50550000D03*
X37940000Y-53090000D03*
X37940000Y-55630000D03*
D11*
X37940000Y-58170000D03*
X37940000Y-60710000D03*
D10*
X37940000Y-63250000D03*
X37940000Y-65790000D03*
X37940000Y-68330000D03*
X37940000Y-70870000D03*
X37940000Y-73410000D03*
X37940000Y-75950000D03*
X37940000Y-78490000D03*
X37940000Y-81030000D03*
X35400000Y-81030000D03*
D12*
X32860000Y-81030000D03*
X30320000Y-81030000D03*
X27780000Y-81030000D03*
X25240000Y-81030000D03*
D10*
X22700000Y-81030000D03*
X22700000Y-78490000D03*
X22700000Y-75950000D03*
X22700000Y-73410000D03*
X22700000Y-70870000D03*
X22700000Y-68330000D03*
X22700000Y-65790000D03*
X22700000Y-63250000D03*
D13*
X22700000Y-60710000D03*
D10*
X22700000Y-58170000D03*
D14*
X22700000Y-55630000D03*
D13*
X22700000Y-53090000D03*
D10*
X22700000Y-50550000D03*
X25240000Y-58170000D03*
%TD*%
D15*
%TO.C,J1*%
X32476000Y-86052000D03*
X25476000Y-86052000D03*
D16*
X30076000Y-83752000D03*
X27076000Y-83752000D03*
X35176000Y-88352000D03*
X34076000Y-83752000D03*
%TD*%
D17*
%TO.C,SW17_r1*%
X43186000Y-72390000D03*
D18*
X53906000Y-68190000D03*
X43466000Y-68190000D03*
D17*
X54186000Y-72390000D03*
D19*
X48686000Y-72390000D03*
D20*
X48686000Y-78290000D03*
X43686000Y-76190000D03*
%TD*%
D18*
%TO.C,SW11_r1*%
X61480000Y-48632000D03*
D17*
X72200000Y-52832000D03*
D19*
X66700000Y-52832000D03*
D18*
X71920000Y-48632000D03*
D17*
X61200000Y-52832000D03*
D20*
X66700000Y-58732000D03*
X61700000Y-56632000D03*
%TD*%
D19*
%TO.C,SW15_r1*%
X84688000Y-64516000D03*
D18*
X79468000Y-60316000D03*
X89908000Y-60316000D03*
D17*
X90188000Y-64516000D03*
X79188000Y-64516000D03*
D20*
X84688000Y-70416000D03*
X79688000Y-68316000D03*
%TD*%
D18*
%TO.C,SW18_r1*%
X107934000Y-67174000D03*
X97494000Y-67174000D03*
D17*
X108214000Y-71374000D03*
X97214000Y-71374000D03*
D19*
X102714000Y-71374000D03*
D20*
X102714000Y-77274000D03*
X97714000Y-75174000D03*
%TD*%
D17*
%TO.C,SW6_r1*%
X54186000Y-38382000D03*
D18*
X43466000Y-34182000D03*
X53906000Y-34182000D03*
D17*
X43186000Y-38382000D03*
D19*
X48686000Y-38382000D03*
D20*
X48686000Y-44282000D03*
X43686000Y-42182000D03*
%TD*%
D17*
%TO.C,SW5_r1*%
X61200000Y-35882000D03*
D18*
X61480000Y-31682000D03*
D19*
X66700000Y-35882000D03*
D18*
X71920000Y-31682000D03*
D17*
X72200000Y-35882000D03*
D20*
X66700000Y-41782000D03*
X61700000Y-39682000D03*
%TD*%
D17*
%TO.C,SW2_r1*%
X126232000Y-49382000D03*
D18*
X115512000Y-45182000D03*
X125952000Y-45182000D03*
D17*
X115232000Y-49382000D03*
D19*
X120732000Y-49382000D03*
D20*
X120732000Y-55282000D03*
X115732000Y-53182000D03*
%TD*%
D19*
%TO.C,SW16_r1*%
X66700000Y-69850000D03*
D17*
X61200000Y-69850000D03*
X72200000Y-69850000D03*
D18*
X71920000Y-65650000D03*
X61480000Y-65650000D03*
D20*
X66700000Y-75750000D03*
X61700000Y-73650000D03*
%TD*%
D18*
%TO.C,SW4_r1*%
X89908000Y-26182000D03*
D19*
X84688000Y-30382000D03*
D17*
X90188000Y-30382000D03*
D18*
X79468000Y-26182000D03*
D17*
X79188000Y-30382000D03*
D20*
X84688000Y-36282000D03*
X79688000Y-34182000D03*
%TD*%
D18*
%TO.C,SW13_r1*%
X115512000Y-79182000D03*
D17*
X126232000Y-83382000D03*
X115232000Y-83382000D03*
D19*
X120732000Y-83382000D03*
D18*
X125952000Y-79182000D03*
D20*
X120732000Y-89282000D03*
X115732000Y-87182000D03*
%TD*%
D19*
%TO.C,SW12_r1*%
X48686000Y-55372000D03*
D17*
X54186000Y-55372000D03*
X43186000Y-55372000D03*
D18*
X53906000Y-51172000D03*
X43466000Y-51172000D03*
D20*
X48686000Y-61272000D03*
X43686000Y-59172000D03*
%TD*%
D17*
%TO.C,SW3_r1*%
X108214000Y-37382000D03*
X97214000Y-37382000D03*
D19*
X102714000Y-37382000D03*
D18*
X107934000Y-33182000D03*
X97494000Y-33182000D03*
D20*
X102714000Y-43282000D03*
X97714000Y-41182000D03*
%TD*%
D18*
%TO.C,SW8_r1*%
X107934000Y-50156000D03*
D19*
X102714000Y-54356000D03*
D18*
X97494000Y-50156000D03*
D17*
X97214000Y-54356000D03*
X108214000Y-54356000D03*
D20*
X102714000Y-60256000D03*
X97714000Y-58156000D03*
%TD*%
D19*
%TO.C,SW21_r1*%
X56778000Y-90082000D03*
D17*
X51465408Y-91505505D03*
X62090592Y-88658495D03*
D18*
X52822907Y-95489924D03*
X62907173Y-92787853D03*
D20*
X55250968Y-84383038D03*
X60624117Y-85117387D03*
%TD*%
D18*
%TO.C,SW9_r1*%
X79468000Y-43298000D03*
D17*
X79188000Y-47498000D03*
D18*
X89908000Y-43298000D03*
D19*
X84688000Y-47498000D03*
D17*
X90188000Y-47498000D03*
D20*
X84688000Y-53398000D03*
X79688000Y-51298000D03*
%TD*%
D18*
%TO.C,SW20_r1*%
X35797347Y-104329307D03*
D17*
X33454860Y-100832000D03*
D18*
X44838653Y-99109307D03*
D19*
X38218000Y-98082000D03*
D17*
X42981140Y-95332000D03*
D20*
X35268000Y-92972450D03*
X40648127Y-92291103D03*
%TD*%
D19*
%TO.C,SW7_r1*%
X120732000Y-66382000D03*
D17*
X126232000Y-66382000D03*
X115232000Y-66382000D03*
D18*
X125952000Y-62182000D03*
X115512000Y-62182000D03*
D20*
X120732000Y-72282000D03*
X115732000Y-70182000D03*
%TD*%
D21*
%TO.C,REF\u002A\u002A*%
X94742000Y-46282000D03*
X56642000Y-46282000D03*
X75692000Y-65332000D03*
X75692000Y-27232000D03*
%TD*%
D22*
%TO.C,BatGND4*%
X36068000Y-50800000D03*
%TD*%
%TO.C,B+*%
X24638000Y-50800000D03*
%TD*%
D23*
%TO.C,*%
X47625000Y-94325000D03*
%TD*%
D24*
%TO.C,POWER SW*%
X28980000Y-51816000D03*
X31980000Y-51816000D03*
D25*
X26780000Y-52916000D03*
X26780000Y-50716000D03*
X34180000Y-50716000D03*
X34180000Y-52916000D03*
D26*
X28230000Y-53891000D03*
X31230000Y-53891000D03*
X32730000Y-53891000D03*
%TD*%
M02*
