0
SECTION
2
HEADER
9
$INSUNITS
70
4
9
$ACADVER
1
AC1014
9
$HANDSEED
5
FFFF
0
ENDSEC
0
SECTION
2
TABLES
0
TABLE
2
VPORT
5
8
100
AcDbSymbolTable
0
ENDTAB
0
TABLE
2
LTYPE
5
5
100
AcDbSymbolTable
0
LTYPE
5
14
100
AcDbSymbolTableRecord
100
AcDbLinetypeTableRecord
2
BYBLOCK
70
0
0
LTYPE
5
15
100
AcDbSymbolTableRecord
100
AcDbLinetypeTableRecord
2
BYLAYER
70
0
0
ENDTAB
0
TABLE
2
LAYER
5
2
100
AcDbSymbolTable
70
2
0
LAYER
5
50
100
AcDbSymbolTableRecord
100
AcDbLayerTableRecord
2
0
70
0
6
CONTINUOUS
0
ENDTAB
0
TABLE
2
STYLE
5
3
100
AcDbSymbolTable
70
1
0
STYLE
5
11
100
AcDbSymbolTableRecord
100
AcDbTextStyleTableRecord
2
STANDARD
70
0
0
ENDTAB
0
TABLE
2
VIEW
5
6
100
AcDbSymbolTable
70
0
0
ENDTAB
0
TABLE
2
UCS
5
7
100
AcDbSymbolTable
70
0
0
ENDTAB
0
TABLE
2
APPID
5
9
100
AcDbSymbolTable
70
2
0
APPID
5
12
100
AcDbSymbolTableRecord
100
AcDbRegAppTableRecord
2
ACAD
70
0
0
ENDTAB
0
TABLE
2
DIMSTYLE
5
A
100
AcDbSymbolTable
70
1
0
ENDTAB
0
TABLE
2
BLOCK_RECORD
5
1
100
AcDbSymbolTable
70
1
0
BLOCK_RECORD
5
1F
100
AcDbSymbolTableRecord
100
AcDbBlockTableRecord
2
*MODEL_SPACE
0
BLOCK_RECORD
5
1B
100
AcDbSymbolTableRecord
100
AcDbBlockTableRecord
2
*PAPER_SPACE
0
ENDTAB
0
ENDSEC
0
SECTION
2
BLOCKS
0
BLOCK
5
20
100
AcDbEntity
100
AcDbBlockBegin
2
*MODEL_SPACE
0
ENDBLK
5
21
100
AcDbEntity
100
AcDbBlockEnd
0
BLOCK
5
1C
100
AcDbEntity
100
AcDbBlockBegin
2
*PAPER_SPACE
0
ENDBLK
5
1D
100
AcDbEntity
100
AcDbBlockEnd
0
ENDSEC
0
SECTION
2
ENTITIES
0
LWPOLYLINE
5
100
100
AcDbEntity
8
0
100
AcDbPolyline
90
110
70
1
43
0.0
10
2.7933978195852127
20
-104.06730867577799
42
0.13218752267324585
10
3.1292937560179679
20
-105.3223095308166
10
15.0425
20
-125.92
10
15.194228999999948
20
-126.10894600000007
10
15.37653300000002
20
-126.26859499999998
10
15.583845000000004
20
-126.394071
10
15.809832999999982
20
-126.4815440000001
10
16.047599000000005
20
-126.52834200000001
10
16.289880000000011
20
-126.53303600000007
10
16.529279999999989
20
-126.49548299999995
10
16.758486999999977
20
-126.41682999999998
10
16.970512000004582
20
-126.29949100000795
10
30.527980000000028
20
-118.47402000000011
10
30.852029000000005
20
-118.39317699999998
10
31.182423999999905
20
-118.34436399999932
10
66.146637000000041
20
-113.77497700000012
10
66.295581000000027
20
-113.72344300000003
10
66.422500000004035
20
-113.63000000000375
10
77.959692999999987
20
-101.23685199999997
10
78.059155000000004
20
-101.16779000000001
10
78.172302999999999
20
-101.124662
10
78.292500000000004
20
-101.11000000000001
10
113.17298000000001
20
-101.08402
10
132.2825
20
-101.07999999999997
10
132.41191000000003
20
-101.06296300000005
10
132.53250000000003
20
-101.01301300000002
10
132.636053
20
-100.93355299999999
10
132.71551299999996
20
-100.82999999999998
10
132.76546300000004
20
-100.70941000000002
10
132.7825
20
-100.58
10
132.78249999999997
20
-48.260000000000005
10
132.76546300000004
20
-48.130589999999991
10
132.71551300000002
20
-48.009999999999984
10
132.636053
20
-47.906447000000007
10
132.5325
20
-47.826987000000052
10
132.41191000000001
20
-47.777036999999964
10
132.2825
20
-47.759999999999998
10
113.11750000000002
20
-47.764020000000002
10
97.602500000000006
20
-47.75999999999997
10
97.473089999999999
20
-47.74296300000006
10
97.352500000000006
20
-47.693013000000015
10
97.248947000000015
20
-47.613552999999996
10
97.169487000000046
20
-47.509999999999984
10
97.11953699999998
20
-47.389409999999998
10
97.102500000000006
20
-47.259999999999998
10
97.092980000000026
20
-41.564019999999999
10
97.075946999999985
20
-41.434609000000009
10
97.025998999999985
20
-41.314016000000024
10
96.94653900000003
20
-41.210460999999974
10
96.842984000000015
20
-41.131000999999976
10
96.722391000000002
20
-41.081053000000011
10
96.592979999999997
20
-41.064019999999999
10
79.56298000000001
20
-41.064020000000021
10
79.433571999999984
20
-41.04697900000005
10
79.312984000000043
20
-40.997026999999946
10
79.20943199999995
20
-40.917568000000053
10
79.129973000000049
20
-40.814015999999988
10
79.080021000000016
20
-40.693428000000004
10
79.062979999999996
20
-40.564019999999999
10
79.06298000000001
20
-39.314019999999999
10
79.04594699999997
20
-39.184609000000016
10
78.995998999999983
20
-39.064016000000017
10
78.916539000000029
20
-38.960460999999981
10
78.812984000000014
20
-38.881000999999969
10
78.692391000000001
20
-38.831053000000004
10
78.562979999999996
20
-38.814019999999999
10
59.602980000000017
20
-38.814020000000063
10
59.473557000000014
20
-38.831040000000023
10
59.35295
20
-38.880981000000006
10
59.249381999999997
20
-38.960439999999998
10
59.169911000000027
20
-39.063998000000012
10
59.119956000000009
20
-39.184599000000006
10
59.102980000000009
20
-39.314019999999999
10
59.102979999999988
20
-40.564019999999999
10
59.085939000000032
20
-40.693433000000006
10
59.035989000000015
20
-40.814028000000008
10
58.956531000000012
20
-40.917589000000014
10
58.852980000000017
20
-40.997059000000007
10
58.732391
20
-41.047024000000022
10
58.602980000000002
20
-41.064019999999999
10
41.592980000000004
20
-41.064020000000056
10
41.463557000000009
20
-41.08104000000003
10
41.342950000000016
20
-41.130981000000013
10
41.239381999999992
20
-41.210439999999991
10
41.159911000000022
20
-41.313998000000005
10
41.109955999999997
20
-41.434598999999999
10
41.092979999999997
20
-41.564019999999999
10
41.09297999999999
20
-43.064019999999999
10
41.075939000000034
20
-43.193433000000006
10
41.02598900000001
20
-43.314028000000008
10
40.946531000000007
20
-43.417589000000014
10
40.842980000000004
20
-43.497059000000021
10
40.722391000000002
20
-43.547024000000022
10
40.592979999999997
20
-43.564019999999999
10
23.962499999999991
20
-43.549999999999969
10
23.827257999999972
20
-43.568637999999929
10
23.702097999999982
20
-43.623161999999979
10
23.596351999999982
20
-43.709507000000002
10
23.517901999999964
20
-43.821235999999992
10
23.472597999999934
20
-43.950019999999981
10
23.421169000000024
20
-44.067622000000021
10
23.34148600000001
20
-44.168250000000022
10
23.238804999999974
20
-44.245267999999946
10
23.119894999999996
20
-44.293597999999967
10
22.992598000000008
20
-44.310020000000002
10
22.582755350373198
20
-44.309810693025639
42
0.41436315107684268
10
22.082499999999996
20
-44.809810627821818
10
22.082499999999989
20
-91.367220279755543
10
4.0437959613839682
20
-101.7792939303783
42
0.26762030735100439
10
2.7935661932619387
20
-103.94115469849204
0
LWPOLYLINE
5
101
100
AcDbEntity
8
0
100
AcDbPolyline
90
4
70
1
43
0.0
10
18.894677999999999
20
-101.09782199999999
10
6.7703220000011406
20
-108.09782200000198
10
13.770322000001977
20
-120.22217799999886
10
25.894677999998855
20
-113.22217799999802
0
ENDSEC
0
SECTION
2
OBJECTS
0
DICTIONARY
5
C
100
AcDbDictionary
3
ACAD_GROUP
350
D
3
ACAD_MLINESTYLE
350
17
0
DICTIONARY
5
D
100
AcDbDictionary
0
DICTIONARY
5
1A
330
C
100
AcDbDictionary
0
DICTIONARY
5
17
100
AcDbDictionary
0
ENDSEC
0
EOF
