  0
SECTION
  2
HEADER
  9
$ANGBASE
  50
0.0
  9
$ANGDIR
  70
1
  9
$MEASUREMENT
  70
1
  0
ENDSEC
  0
SECTION
  2
TABLES
  0
TABLE
  2
LTYPE
  70
4
  0
LTYPE
  5
40F
  2
CONTINUOUS
  70
0
  3
Solid line
  72
65
  73
0
  40
0.0
  0
LTYPE
  5
410
  2
DASHDOT
 70
0
  3
Dash Dot ____ _ ____ _
 72
65
 73
4
 40
2.0
 49
1.25
 49
-0.25
 49
0.25
 49
-0.25
  0
LTYPE
  5
411
  2
DASHED
 70
0
  3
Dashed __ __ __ __ __
 72
65
 73
2
 40
0.75
 49
0.5
 49
-0.25
  0
LTYPE
  5
43B
  2
DOTTED
 70
0
  3
Dotted .  .  .  .
 72
65
 73
2
 40
0.2
 49
0.0
 49
-0.2
  0
ENDTAB
  0
TABLE
  2
STYLE
  70
4
  0
STYLE
  2
KICAD
  70
0
  40
0
  41
1
  42
1
  50
0
  71
0
  3
isocp.shx
  0
STYLE
  2
KICADB
  70
0
  40
0
  41
1
  42
1
  50
0
  71
0
  3
isocp.shx
  0
STYLE
  2
KICADI
  70
0
  40
0
  41
1
  42
1
  50
15
  71
0
  3
isocp.shx
  0
STYLE
  2
KICADBI
  70
0
  40
0
  41
1
  42
1
  50
15
  71
0
  3
isocp.shx
  0
ENDTAB
  0
TABLE
  2
LAYER
  70
1
  0
LAYER
  2
BLACK
  70
0
  62
7
  6
CONTINUOUS
  0
ENDTAB
  0
ENDSEC
  0
SECTION
  2
ENTITIES
0
LINE
8
BLACK
6
CONTINUOUS
10
160.323
20
-129.607
11
158.071
21
-130.907
0
LINE
8
BLACK
6
CONTINUOUS
10
158.071
20
-130.907
11
156.771
21
-128.655
0
LINE
8
BLACK
6
CONTINUOUS
10
156.771
20
-128.655
11
159.023
21
-127.355
0
LINE
8
BLACK
6
CONTINUOUS
10
159.023
20
-127.355
11
160.323
21
-129.607
0
LINE
8
BLACK
6
CONTINUOUS
10
177.232
20
-126.793
11
174.721
21
-127.466
0
LINE
8
BLACK
6
CONTINUOUS
10
174.721
20
-127.466
11
174.048
21
-124.955
0
LINE
8
BLACK
6
CONTINUOUS
10
174.048
20
-124.955
11
176.559
21
-124.282
0
LINE
8
BLACK
6
CONTINUOUS
10
176.559
20
-124.282
11
177.232
21
-126.793
0
LINE
8
BLACK
6
CONTINUOUS
10
188.958
20
-125.929
11
186.447
21
-126.602
0
LINE
8
BLACK
6
CONTINUOUS
10
186.447
20
-126.602
11
185.774
21
-124.09
0
LINE
8
BLACK
6
CONTINUOUS
10
185.774
20
-124.09
11
188.285
21
-123.417
0
LINE
8
BLACK
6
CONTINUOUS
10
188.285
20
-123.417
11
188.958
21
-125.929
0
LINE
8
BLACK
6
CONTINUOUS
10
207.287
20
-124.77
11
204.688
21
-124.77
0
LINE
8
BLACK
6
CONTINUOUS
10
204.688
20
-124.77
11
204.688
21
-122.17
0
LINE
8
BLACK
6
CONTINUOUS
10
204.688
20
-122.17
11
207.287
21
-122.17
0
LINE
8
BLACK
6
CONTINUOUS
10
207.287
20
-122.17
11
207.287
21
-124.77
0
LINE
8
BLACK
6
CONTINUOUS
10
195.737
20
-122.57
11
193.137
21
-122.57
0
LINE
8
BLACK
6
CONTINUOUS
10
193.137
20
-122.57
11
193.137
21
-119.97
0
LINE
8
BLACK
6
CONTINUOUS
10
193.137
20
-119.97
11
195.737
21
-119.97
0
LINE
8
BLACK
6
CONTINUOUS
10
195.737
20
-119.97
11
195.737
21
-122.57
0
LINE
8
BLACK
6
CONTINUOUS
10
156.453
20
-118.504
11
154.202
21
-119.804
0
LINE
8
BLACK
6
CONTINUOUS
10
154.202
20
-119.804
11
152.902
21
-117.553
0
LINE
8
BLACK
6
CONTINUOUS
10
152.902
20
-117.553
11
155.153
21
-116.253
0
LINE
8
BLACK
6
CONTINUOUS
10
155.153
20
-116.253
11
156.453
21
-118.504
0
LINE
8
BLACK
6
CONTINUOUS
10
260.32
20
-108.466
11
259.32
21
-108.466
0
LINE
8
BLACK
6
CONTINUOUS
10
259.32
20
-108.466
11
259.32
21
-107.066
0
LINE
8
BLACK
6
CONTINUOUS
10
259.32
20
-107.066
11
260.32
21
-107.066
0
LINE
8
BLACK
6
CONTINUOUS
10
260.32
20
-107.066
11
260.32
21
-108.466
0
LINE
8
BLACK
6
CONTINUOUS
10
189.46
20
-105.736
11
188.46
21
-105.736
0
LINE
8
BLACK
6
CONTINUOUS
10
188.46
20
-105.736
11
188.46
21
-104.336
0
LINE
8
BLACK
6
CONTINUOUS
10
188.46
20
-104.336
11
189.46
21
-104.336
0
LINE
8
BLACK
6
CONTINUOUS
10
189.46
20
-104.336
11
189.46
21
-105.736
0
LINE
8
BLACK
6
CONTINUOUS
10
260.32
20
-104.916
11
259.32
21
-104.916
0
LINE
8
BLACK
6
CONTINUOUS
10
259.32
20
-104.916
11
259.32
21
-103.516
0
LINE
8
BLACK
6
CONTINUOUS
10
259.32
20
-103.516
11
260.32
21
-103.516
0
LINE
8
BLACK
6
CONTINUOUS
10
260.32
20
-103.516
11
260.32
21
-104.916
0
LINE
8
BLACK
6
CONTINUOUS
10
207.57
20
-103.746
11
206.57
21
-103.746
0
LINE
8
BLACK
6
CONTINUOUS
10
206.57
20
-103.746
11
206.57
21
-102.346
0
LINE
8
BLACK
6
CONTINUOUS
10
206.57
20
-102.346
11
207.57
21
-102.346
0
LINE
8
BLACK
6
CONTINUOUS
10
207.57
20
-102.346
11
207.57
21
-103.746
0
LINE
8
BLACK
6
CONTINUOUS
10
205.13
20
-103.726
11
204.13
21
-103.726
0
LINE
8
BLACK
6
CONTINUOUS
10
204.13
20
-103.726
11
204.13
21
-102.326
0
LINE
8
BLACK
6
CONTINUOUS
10
204.13
20
-102.326
11
205.13
21
-102.326
0
LINE
8
BLACK
6
CONTINUOUS
10
205.13
20
-102.326
11
205.13
21
-103.726
0
LINE
8
BLACK
6
CONTINUOUS
10
242.24
20
-103.626
11
241.24
21
-103.626
0
LINE
8
BLACK
6
CONTINUOUS
10
241.24
20
-103.626
11
241.24
21
-102.226
0
LINE
8
BLACK
6
CONTINUOUS
10
241.24
20
-102.226
11
242.24
21
-102.226
0
LINE
8
BLACK
6
CONTINUOUS
10
242.24
20
-102.226
11
242.24
21
-103.626
0
LINE
8
BLACK
6
CONTINUOUS
10
189.46
20
-102.186
11
188.46
21
-102.186
0
LINE
8
BLACK
6
CONTINUOUS
10
188.46
20
-102.186
11
188.46
21
-100.786
0
LINE
8
BLACK
6
CONTINUOUS
10
188.46
20
-100.786
11
189.46
21
-100.786
0
LINE
8
BLACK
6
CONTINUOUS
10
189.46
20
-100.786
11
189.46
21
-102.186
0
LINE
8
BLACK
6
CONTINUOUS
10
278.387
20
-101.68
11
275.787
21
-101.68
0
LINE
8
BLACK
6
CONTINUOUS
10
275.787
20
-101.68
11
275.787
21
-99.08
0
LINE
8
BLACK
6
CONTINUOUS
10
275.787
20
-99.08
11
278.387
21
-99.08
0
LINE
8
BLACK
6
CONTINUOUS
10
278.387
20
-99.08
11
278.387
21
-101.68
0
LINE
8
BLACK
6
CONTINUOUS
10
260.387
20
-101.665
11
257.787
21
-101.665
0
LINE
8
BLACK
6
CONTINUOUS
10
257.787
20
-101.665
11
257.787
21
-99.065
0
LINE
8
BLACK
6
CONTINUOUS
10
257.787
20
-99.065
11
260.387
21
-99.065
0
LINE
8
BLACK
6
CONTINUOUS
10
260.387
20
-99.065
11
260.387
21
-101.665
0
LINE
8
BLACK
6
CONTINUOUS
10
224.34
20
-100.796
11
223.34
21
-100.796
0
LINE
8
BLACK
6
CONTINUOUS
10
223.34
20
-100.796
11
223.34
21
-99.396
0
LINE
8
BLACK
6
CONTINUOUS
10
223.34
20
-99.396
11
224.34
21
-99.396
0
LINE
8
BLACK
6
CONTINUOUS
10
224.34
20
-99.396
11
224.34
21
-100.796
0
LINE
8
BLACK
6
CONTINUOUS
10
207.57
20
-100.196
11
206.57
21
-100.196
0
LINE
8
BLACK
6
CONTINUOUS
10
206.57
20
-100.196
11
206.57
21
-98.796
0
LINE
8
BLACK
6
CONTINUOUS
10
206.57
20
-98.796
11
207.57
21
-98.796
0
LINE
8
BLACK
6
CONTINUOUS
10
207.57
20
-98.796
11
207.57
21
-100.196
0
LINE
8
BLACK
6
CONTINUOUS
10
205.13
20
-100.176
11
204.13
21
-100.176
0
LINE
8
BLACK
6
CONTINUOUS
10
204.13
20
-100.176
11
204.13
21
-98.776
0
LINE
8
BLACK
6
CONTINUOUS
10
204.13
20
-98.776
11
205.13
21
-98.776
0
LINE
8
BLACK
6
CONTINUOUS
10
205.13
20
-98.776
11
205.13
21
-100.176
0
LINE
8
BLACK
6
CONTINUOUS
10
242.24
20
-100.076
11
241.24
21
-100.076
0
LINE
8
BLACK
6
CONTINUOUS
10
241.24
20
-100.076
11
241.24
21
-98.676
0
LINE
8
BLACK
6
CONTINUOUS
10
241.24
20
-98.676
11
242.24
21
-98.676
0
LINE
8
BLACK
6
CONTINUOUS
10
242.24
20
-98.676
11
242.24
21
-100.076
0
LINE
8
BLACK
6
CONTINUOUS
10
170.57
20
-99.776
11
169.57
21
-99.776
0
LINE
8
BLACK
6
CONTINUOUS
10
169.57
20
-99.776
11
169.57
21
-98.376
0
LINE
8
BLACK
6
CONTINUOUS
10
169.57
20
-98.376
11
170.57
21
-98.376
0
LINE
8
BLACK
6
CONTINUOUS
10
170.57
20
-98.376
11
170.57
21
-99.776
0
LINE
8
BLACK
6
CONTINUOUS
10
266.837
20
-99.48
11
264.238
21
-99.48
0
LINE
8
BLACK
6
CONTINUOUS
10
264.238
20
-99.48
11
264.238
21
-96.88
0
LINE
8
BLACK
6
CONTINUOUS
10
264.238
20
-96.88
11
266.837
21
-96.88
0
LINE
8
BLACK
6
CONTINUOUS
10
266.837
20
-96.88
11
266.837
21
-99.48
0
LINE
8
BLACK
6
CONTINUOUS
10
248.837
20
-99.465
11
246.237
21
-99.465
0
LINE
8
BLACK
6
CONTINUOUS
10
246.237
20
-99.465
11
246.237
21
-96.865
0
LINE
8
BLACK
6
CONTINUOUS
10
246.237
20
-96.865
11
248.837
21
-96.865
0
LINE
8
BLACK
6
CONTINUOUS
10
248.837
20
-96.865
11
248.837
21
-99.465
0
LINE
8
BLACK
6
CONTINUOUS
10
188.387
20
-97.48
11
185.787
21
-97.48
0
LINE
8
BLACK
6
CONTINUOUS
10
185.787
20
-97.48
11
185.787
21
-94.88
0
LINE
8
BLACK
6
CONTINUOUS
10
185.787
20
-94.88
11
188.387
21
-94.88
0
LINE
8
BLACK
6
CONTINUOUS
10
188.387
20
-94.88
11
188.387
21
-97.48
0
LINE
8
BLACK
6
CONTINUOUS
10
224.34
20
-97.246
11
223.34
21
-97.246
0
LINE
8
BLACK
6
CONTINUOUS
10
223.34
20
-97.246
11
223.34
21
-95.846
0
LINE
8
BLACK
6
CONTINUOUS
10
223.34
20
-95.846
11
224.34
21
-95.846
0
LINE
8
BLACK
6
CONTINUOUS
10
224.34
20
-95.846
11
224.34
21
-97.246
0
LINE
8
BLACK
6
CONTINUOUS
10
170.57
20
-96.226
11
169.57
21
-96.226
0
LINE
8
BLACK
6
CONTINUOUS
10
169.57
20
-96.226
11
169.57
21
-94.826
0
LINE
8
BLACK
6
CONTINUOUS
10
169.57
20
-94.826
11
170.57
21
-94.826
0
LINE
8
BLACK
6
CONTINUOUS
10
170.57
20
-94.826
11
170.57
21
-96.226
0
LINE
8
BLACK
6
CONTINUOUS
10
176.838
20
-95.28
11
174.237
21
-95.28
0
LINE
8
BLACK
6
CONTINUOUS
10
174.237
20
-95.28
11
174.237
21
-92.68
0
LINE
8
BLACK
6
CONTINUOUS
10
174.237
20
-92.68
11
176.838
21
-92.68
0
LINE
8
BLACK
6
CONTINUOUS
10
176.838
20
-92.68
11
176.838
21
-95.28
0
LINE
8
BLACK
6
CONTINUOUS
10
242.387
20
-95.105
11
239.787
21
-95.105
0
LINE
8
BLACK
6
CONTINUOUS
10
239.787
20
-95.105
11
239.787
21
-92.505
0
LINE
8
BLACK
6
CONTINUOUS
10
239.787
20
-92.505
11
242.387
21
-92.505
0
LINE
8
BLACK
6
CONTINUOUS
10
242.387
20
-92.505
11
242.387
21
-95.105
0
LINE
8
BLACK
6
CONTINUOUS
10
206.387
20
-95.105
11
203.787
21
-95.105
0
LINE
8
BLACK
6
CONTINUOUS
10
203.787
20
-95.105
11
203.787
21
-92.505
0
LINE
8
BLACK
6
CONTINUOUS
10
203.787
20
-92.505
11
206.387
21
-92.505
0
LINE
8
BLACK
6
CONTINUOUS
10
206.387
20
-92.505
11
206.387
21
-95.105
0
LINE
8
BLACK
6
CONTINUOUS
10
170.57
20
-93.336
11
169.57
21
-93.336
0
LINE
8
BLACK
6
CONTINUOUS
10
169.57
20
-93.336
11
169.57
21
-91.936
0
LINE
8
BLACK
6
CONTINUOUS
10
169.57
20
-91.936
11
170.57
21
-91.936
0
LINE
8
BLACK
6
CONTINUOUS
10
170.57
20
-91.936
11
170.57
21
-93.336
0
LINE
8
BLACK
6
CONTINUOUS
10
230.837
20
-92.905
11
228.237
21
-92.905
0
LINE
8
BLACK
6
CONTINUOUS
10
228.237
20
-92.905
11
228.237
21
-90.305
0
LINE
8
BLACK
6
CONTINUOUS
10
228.237
20
-90.305
11
230.837
21
-90.305
0
LINE
8
BLACK
6
CONTINUOUS
10
230.837
20
-90.305
11
230.837
21
-92.905
0
LINE
8
BLACK
6
CONTINUOUS
10
194.837
20
-92.905
11
192.237
21
-92.905
0
LINE
8
BLACK
6
CONTINUOUS
10
192.237
20
-92.905
11
192.237
21
-90.305
0
LINE
8
BLACK
6
CONTINUOUS
10
192.237
20
-90.305
11
194.837
21
-90.305
0
LINE
8
BLACK
6
CONTINUOUS
10
194.837
20
-90.305
11
194.837
21
-92.905
0
LINE
8
BLACK
6
CONTINUOUS
10
224.387
20
-92.73
11
221.787
21
-92.73
0
LINE
8
BLACK
6
CONTINUOUS
10
221.787
20
-92.73
11
221.787
21
-90.13
0
LINE
8
BLACK
6
CONTINUOUS
10
221.787
20
-90.13
11
224.387
21
-90.13
0
LINE
8
BLACK
6
CONTINUOUS
10
224.387
20
-90.13
11
224.387
21
-92.73
0
LINE
8
BLACK
6
CONTINUOUS
10
260.32
20
-91.556
11
259.32
21
-91.556
0
LINE
8
BLACK
6
CONTINUOUS
10
259.32
20
-91.556
11
259.32
21
-90.156
0
LINE
8
BLACK
6
CONTINUOUS
10
259.32
20
-90.156
11
260.32
21
-90.156
0
LINE
8
BLACK
6
CONTINUOUS
10
260.32
20
-90.156
11
260.32
21
-91.556
0
LINE
8
BLACK
6
CONTINUOUS
10
206.31
20
-91.326
11
205.31
21
-91.326
0
LINE
8
BLACK
6
CONTINUOUS
10
205.31
20
-91.326
11
205.31
21
-89.926
0
LINE
8
BLACK
6
CONTINUOUS
10
205.31
20
-89.926
11
206.31
21
-89.926
0
LINE
8
BLACK
6
CONTINUOUS
10
206.31
20
-89.926
11
206.31
21
-91.326
0
LINE
8
BLACK
6
CONTINUOUS
10
212.837
20
-90.53
11
210.237
21
-90.53
0
LINE
8
BLACK
6
CONTINUOUS
10
210.237
20
-90.53
11
210.237
21
-87.93
0
LINE
8
BLACK
6
CONTINUOUS
10
210.237
20
-87.93
11
212.837
21
-87.93
0
LINE
8
BLACK
6
CONTINUOUS
10
212.837
20
-87.93
11
212.837
21
-90.53
0
LINE
8
BLACK
6
CONTINUOUS
10
170.57
20
-89.786
11
169.57
21
-89.786
0
LINE
8
BLACK
6
CONTINUOUS
10
169.57
20
-89.786
11
169.57
21
-88.386
0
LINE
8
BLACK
6
CONTINUOUS
10
169.57
20
-88.386
11
170.57
21
-88.386
0
LINE
8
BLACK
6
CONTINUOUS
10
170.57
20
-88.386
11
170.57
21
-89.786
0
LINE
8
BLACK
6
CONTINUOUS
10
260.32
20
-88.006
11
259.32
21
-88.006
0
LINE
8
BLACK
6
CONTINUOUS
10
259.32
20
-88.006
11
259.32
21
-86.606
0
LINE
8
BLACK
6
CONTINUOUS
10
259.32
20
-86.606
11
260.32
21
-86.606
0
LINE
8
BLACK
6
CONTINUOUS
10
260.32
20
-86.606
11
260.32
21
-88.006
0
LINE
8
BLACK
6
CONTINUOUS
10
206.31
20
-87.776
11
205.31
21
-87.776
0
LINE
8
BLACK
6
CONTINUOUS
10
205.31
20
-87.776
11
205.31
21
-86.376
0
LINE
8
BLACK
6
CONTINUOUS
10
205.31
20
-86.376
11
206.31
21
-86.376
0
LINE
8
BLACK
6
CONTINUOUS
10
206.31
20
-86.376
11
206.31
21
-87.776
0
LINE
8
BLACK
6
CONTINUOUS
10
242.24
20
-87.566
11
241.24
21
-87.566
0
LINE
8
BLACK
6
CONTINUOUS
10
241.24
20
-87.566
11
241.24
21
-86.166
0
LINE
8
BLACK
6
CONTINUOUS
10
241.24
20
-86.166
11
242.24
21
-86.166
0
LINE
8
BLACK
6
CONTINUOUS
10
242.24
20
-86.166
11
242.24
21
-87.566
0
LINE
8
BLACK
6
CONTINUOUS
10
170.57
20
-86.966
11
169.57
21
-86.966
0
LINE
8
BLACK
6
CONTINUOUS
10
169.57
20
-86.966
11
169.57
21
-85.566
0
LINE
8
BLACK
6
CONTINUOUS
10
169.57
20
-85.566
11
170.57
21
-85.566
0
LINE
8
BLACK
6
CONTINUOUS
10
170.57
20
-85.566
11
170.57
21
-86.966
0
LINE
8
BLACK
6
CONTINUOUS
10
188.2
20
-86.766
11
187.2
21
-86.766
0
LINE
8
BLACK
6
CONTINUOUS
10
187.2
20
-86.766
11
187.2
21
-85.366
0
LINE
8
BLACK
6
CONTINUOUS
10
187.2
20
-85.366
11
188.2
21
-85.366
0
LINE
8
BLACK
6
CONTINUOUS
10
188.2
20
-85.366
11
188.2
21
-86.766
0
LINE
8
BLACK
6
CONTINUOUS
10
278.387
20
-84.66
11
275.787
21
-84.66
0
LINE
8
BLACK
6
CONTINUOUS
10
275.787
20
-84.66
11
275.787
21
-82.06
0
LINE
8
BLACK
6
CONTINUOUS
10
275.787
20
-82.06
11
278.387
21
-82.06
0
LINE
8
BLACK
6
CONTINUOUS
10
278.387
20
-82.06
11
278.387
21
-84.66
0
LINE
8
BLACK
6
CONTINUOUS
10
260.387
20
-84.66
11
257.787
21
-84.66
0
LINE
8
BLACK
6
CONTINUOUS
10
257.787
20
-84.66
11
257.787
21
-82.06
0
LINE
8
BLACK
6
CONTINUOUS
10
257.787
20
-82.06
11
260.387
21
-82.06
0
LINE
8
BLACK
6
CONTINUOUS
10
260.387
20
-82.06
11
260.387
21
-84.66
0
LINE
8
BLACK
6
CONTINUOUS
10
242.24
20
-84.016
11
241.24
21
-84.016
0
LINE
8
BLACK
6
CONTINUOUS
10
241.24
20
-84.016
11
241.24
21
-82.616
0
LINE
8
BLACK
6
CONTINUOUS
10
241.24
20
-82.616
11
242.24
21
-82.616
0
LINE
8
BLACK
6
CONTINUOUS
10
242.24
20
-82.616
11
242.24
21
-84.016
0
LINE
8
BLACK
6
CONTINUOUS
10
170.57
20
-83.416
11
169.57
21
-83.416
0
LINE
8
BLACK
6
CONTINUOUS
10
169.57
20
-83.416
11
169.57
21
-82.016
0
LINE
8
BLACK
6
CONTINUOUS
10
169.57
20
-82.016
11
170.57
21
-82.016
0
LINE
8
BLACK
6
CONTINUOUS
10
170.57
20
-82.016
11
170.57
21
-83.416
0
LINE
8
BLACK
6
CONTINUOUS
10
188.2
20
-83.216
11
187.2
21
-83.216
0
LINE
8
BLACK
6
CONTINUOUS
10
187.2
20
-83.216
11
187.2
21
-81.816
0
LINE
8
BLACK
6
CONTINUOUS
10
187.2
20
-81.816
11
188.2
21
-81.816
0
LINE
8
BLACK
6
CONTINUOUS
10
188.2
20
-81.816
11
188.2
21
-83.216
0
LINE
8
BLACK
6
CONTINUOUS
10
266.837
20
-82.46
11
264.238
21
-82.46
0
LINE
8
BLACK
6
CONTINUOUS
10
264.238
20
-82.46
11
264.238
21
-79.86
0
LINE
8
BLACK
6
CONTINUOUS
10
264.238
20
-79.86
11
266.837
21
-79.86
0
LINE
8
BLACK
6
CONTINUOUS
10
266.837
20
-79.86
11
266.837
21
-82.46
0
LINE
8
BLACK
6
CONTINUOUS
10
248.837
20
-82.46
11
246.237
21
-82.46
0
LINE
8
BLACK
6
CONTINUOUS
10
246.237
20
-82.46
11
246.237
21
-79.86
0
LINE
8
BLACK
6
CONTINUOUS
10
246.237
20
-79.86
11
248.837
21
-79.86
0
LINE
8
BLACK
6
CONTINUOUS
10
248.837
20
-79.86
11
248.837
21
-82.46
0
LINE
8
BLACK
6
CONTINUOUS
10
224.34
20
-82.286
11
223.34
21
-82.286
0
LINE
8
BLACK
6
CONTINUOUS
10
223.34
20
-82.286
11
223.34
21
-80.886
0
LINE
8
BLACK
6
CONTINUOUS
10
223.34
20
-80.886
11
224.34
21
-80.886
0
LINE
8
BLACK
6
CONTINUOUS
10
224.34
20
-80.886
11
224.34
21
-82.286
0
LINE
8
BLACK
6
CONTINUOUS
10
188.387
20
-80.48
11
185.787
21
-80.48
0
LINE
8
BLACK
6
CONTINUOUS
10
185.787
20
-80.48
11
185.787
21
-77.88
0
LINE
8
BLACK
6
CONTINUOUS
10
185.787
20
-77.88
11
188.387
21
-77.88
0
LINE
8
BLACK
6
CONTINUOUS
10
188.387
20
-77.88
11
188.387
21
-80.48
0
LINE
8
BLACK
6
CONTINUOUS
10
170.57
20
-80.096
11
169.57
21
-80.096
0
LINE
8
BLACK
6
CONTINUOUS
10
169.57
20
-80.096
11
169.57
21
-78.696
0
LINE
8
BLACK
6
CONTINUOUS
10
169.57
20
-78.696
11
170.57
21
-78.696
0
LINE
8
BLACK
6
CONTINUOUS
10
170.57
20
-78.696
11
170.57
21
-80.096
0
LINE
8
BLACK
6
CONTINUOUS
10
224.34
20
-78.736
11
223.34
21
-78.736
0
LINE
8
BLACK
6
CONTINUOUS
10
223.34
20
-78.736
11
223.34
21
-77.336
0
LINE
8
BLACK
6
CONTINUOUS
10
223.34
20
-77.336
11
224.34
21
-77.336
0
LINE
8
BLACK
6
CONTINUOUS
10
224.34
20
-77.336
11
224.34
21
-78.736
0
LINE
8
BLACK
6
CONTINUOUS
10
176.838
20
-78.28
11
174.237
21
-78.28
0
LINE
8
BLACK
6
CONTINUOUS
10
174.237
20
-78.28
11
174.237
21
-75.68
0
LINE
8
BLACK
6
CONTINUOUS
10
174.237
20
-75.68
11
176.838
21
-75.68
0
LINE
8
BLACK
6
CONTINUOUS
10
176.838
20
-75.68
11
176.838
21
-78.28
0
LINE
8
BLACK
6
CONTINUOUS
10
242.387
20
-78.1
11
239.787
21
-78.1
0
LINE
8
BLACK
6
CONTINUOUS
10
239.787
20
-78.1
11
239.787
21
-75.5
0
LINE
8
BLACK
6
CONTINUOUS
10
239.787
20
-75.5
11
242.387
21
-75.5
0
LINE
8
BLACK
6
CONTINUOUS
10
242.387
20
-75.5
11
242.387
21
-78.1
0
LINE
8
BLACK
6
CONTINUOUS
10
206.387
20
-78.1
11
203.787
21
-78.1
0
LINE
8
BLACK
6
CONTINUOUS
10
203.787
20
-78.1
11
203.787
21
-75.5
0
LINE
8
BLACK
6
CONTINUOUS
10
203.787
20
-75.5
11
206.387
21
-75.5
0
LINE
8
BLACK
6
CONTINUOUS
10
206.387
20
-75.5
11
206.387
21
-78.1
0
LINE
8
BLACK
6
CONTINUOUS
10
170.57
20
-76.546
11
169.57
21
-76.546
0
LINE
8
BLACK
6
CONTINUOUS
10
169.57
20
-76.546
11
169.57
21
-75.146
0
LINE
8
BLACK
6
CONTINUOUS
10
169.57
20
-75.146
11
170.57
21
-75.146
0
LINE
8
BLACK
6
CONTINUOUS
10
170.57
20
-75.146
11
170.57
21
-76.546
0
LINE
8
BLACK
6
CONTINUOUS
10
230.837
20
-75.9
11
228.237
21
-75.9
0
LINE
8
BLACK
6
CONTINUOUS
10
228.237
20
-75.9
11
228.237
21
-73.3
0
LINE
8
BLACK
6
CONTINUOUS
10
228.237
20
-73.3
11
230.837
21
-73.3
0
LINE
8
BLACK
6
CONTINUOUS
10
230.837
20
-73.3
11
230.837
21
-75.9
0
LINE
8
BLACK
6
CONTINUOUS
10
194.837
20
-75.9
11
192.237
21
-75.9
0
LINE
8
BLACK
6
CONTINUOUS
10
192.237
20
-75.9
11
192.237
21
-73.3
0
LINE
8
BLACK
6
CONTINUOUS
10
192.237
20
-73.3
11
194.837
21
-73.3
0
LINE
8
BLACK
6
CONTINUOUS
10
194.837
20
-73.3
11
194.837
21
-75.9
0
LINE
8
BLACK
6
CONTINUOUS
10
224.387
20
-75.73
11
221.787
21
-75.73
0
LINE
8
BLACK
6
CONTINUOUS
10
221.787
20
-75.73
11
221.787
21
-73.13
0
LINE
8
BLACK
6
CONTINUOUS
10
221.787
20
-73.13
11
224.387
21
-73.13
0
LINE
8
BLACK
6
CONTINUOUS
10
224.387
20
-73.13
11
224.387
21
-75.73
0
LINE
8
BLACK
6
CONTINUOUS
10
260.32
20
-74.216
11
259.32
21
-74.216
0
LINE
8
BLACK
6
CONTINUOUS
10
259.32
20
-74.216
11
259.32
21
-72.816
0
LINE
8
BLACK
6
CONTINUOUS
10
259.32
20
-72.816
11
260.32
21
-72.816
0
LINE
8
BLACK
6
CONTINUOUS
10
260.32
20
-72.816
11
260.32
21
-74.216
0
LINE
8
BLACK
6
CONTINUOUS
10
206.31
20
-73.966
11
205.31
21
-73.966
0
LINE
8
BLACK
6
CONTINUOUS
10
205.31
20
-73.966
11
205.31
21
-72.566
0
LINE
8
BLACK
6
CONTINUOUS
10
205.31
20
-72.566
11
206.31
21
-72.566
0
LINE
8
BLACK
6
CONTINUOUS
10
206.31
20
-72.566
11
206.31
21
-73.966
0
LINE
8
BLACK
6
CONTINUOUS
10
212.837
20
-73.53
11
210.237
21
-73.53
0
LINE
8
BLACK
6
CONTINUOUS
10
210.237
20
-73.53
11
210.237
21
-70.93
0
LINE
8
BLACK
6
CONTINUOUS
10
210.237
20
-70.93
11
212.837
21
-70.93
0
LINE
8
BLACK
6
CONTINUOUS
10
212.837
20
-70.93
11
212.837
21
-73.53
0
LINE
8
BLACK
6
CONTINUOUS
10
260.32
20
-70.666
11
259.32
21
-70.666
0
LINE
8
BLACK
6
CONTINUOUS
10
259.32
20
-70.666
11
259.32
21
-69.266
0
LINE
8
BLACK
6
CONTINUOUS
10
259.32
20
-69.266
11
260.32
21
-69.266
0
LINE
8
BLACK
6
CONTINUOUS
10
260.32
20
-69.266
11
260.32
21
-70.666
0
LINE
8
BLACK
6
CONTINUOUS
10
206.31
20
-70.416
11
205.31
21
-70.416
0
LINE
8
BLACK
6
CONTINUOUS
10
205.31
20
-70.416
11
205.31
21
-69.016
0
LINE
8
BLACK
6
CONTINUOUS
10
205.31
20
-69.016
11
206.31
21
-69.016
0
LINE
8
BLACK
6
CONTINUOUS
10
206.31
20
-69.016
11
206.31
21
-70.416
0
LINE
8
BLACK
6
CONTINUOUS
10
188.22
20
-69.566
11
187.22
21
-69.566
0
LINE
8
BLACK
6
CONTINUOUS
10
187.22
20
-69.566
11
187.22
21
-68.166
0
LINE
8
BLACK
6
CONTINUOUS
10
187.22
20
-68.166
11
188.22
21
-68.166
0
LINE
8
BLACK
6
CONTINUOUS
10
188.22
20
-68.166
11
188.22
21
-69.566
0
LINE
8
BLACK
6
CONTINUOUS
10
242.24
20
-69.336
11
241.24
21
-69.336
0
LINE
8
BLACK
6
CONTINUOUS
10
241.24
20
-69.336
11
241.24
21
-67.936
0
LINE
8
BLACK
6
CONTINUOUS
10
241.24
20
-67.936
11
242.24
21
-67.936
0
LINE
8
BLACK
6
CONTINUOUS
10
242.24
20
-67.936
11
242.24
21
-69.336
0
LINE
8
BLACK
6
CONTINUOUS
10
278.387
20
-67.66
11
275.787
21
-67.66
0
LINE
8
BLACK
6
CONTINUOUS
10
275.787
20
-67.66
11
275.787
21
-65.06
0
LINE
8
BLACK
6
CONTINUOUS
10
275.787
20
-65.06
11
278.387
21
-65.06
0
LINE
8
BLACK
6
CONTINUOUS
10
278.387
20
-65.06
11
278.387
21
-67.66
0
LINE
8
BLACK
6
CONTINUOUS
10
260.387
20
-67.66
11
257.787
21
-67.66
0
LINE
8
BLACK
6
CONTINUOUS
10
257.787
20
-67.66
11
257.787
21
-65.06
0
LINE
8
BLACK
6
CONTINUOUS
10
257.787
20
-65.06
11
260.387
21
-65.06
0
LINE
8
BLACK
6
CONTINUOUS
10
260.387
20
-65.06
11
260.387
21
-67.66
0
LINE
8
BLACK
6
CONTINUOUS
10
206.31
20
-67.496
11
205.31
21
-67.496
0
LINE
8
BLACK
6
CONTINUOUS
10
205.31
20
-67.496
11
205.31
21
-66.096
0
LINE
8
BLACK
6
CONTINUOUS
10
205.31
20
-66.096
11
206.31
21
-66.096
0
LINE
8
BLACK
6
CONTINUOUS
10
206.31
20
-66.096
11
206.31
21
-67.496
0
LINE
8
BLACK
6
CONTINUOUS
10
224.15
20
-66.955
11
223.15
21
-66.955
0
LINE
8
BLACK
6
CONTINUOUS
10
223.15
20
-66.955
11
223.15
21
-65.555
0
LINE
8
BLACK
6
CONTINUOUS
10
223.15
20
-65.555
11
224.15
21
-65.555
0
LINE
8
BLACK
6
CONTINUOUS
10
224.15
20
-65.555
11
224.15
21
-66.955
0
LINE
8
BLACK
6
CONTINUOUS
10
188.22
20
-66.016
11
187.22
21
-66.016
0
LINE
8
BLACK
6
CONTINUOUS
10
187.22
20
-66.016
11
187.22
21
-64.616
0
LINE
8
BLACK
6
CONTINUOUS
10
187.22
20
-64.616
11
188.22
21
-64.616
0
LINE
8
BLACK
6
CONTINUOUS
10
188.22
20
-64.616
11
188.22
21
-66.016
0
LINE
8
BLACK
6
CONTINUOUS
10
242.24
20
-65.786
11
241.24
21
-65.786
0
LINE
8
BLACK
6
CONTINUOUS
10
241.24
20
-65.786
11
241.24
21
-64.386
0
LINE
8
BLACK
6
CONTINUOUS
10
241.24
20
-64.386
11
242.24
21
-64.386
0
LINE
8
BLACK
6
CONTINUOUS
10
242.24
20
-64.386
11
242.24
21
-65.786
0
LINE
8
BLACK
6
CONTINUOUS
10
266.837
20
-65.46
11
264.238
21
-65.46
0
LINE
8
BLACK
6
CONTINUOUS
10
264.238
20
-65.46
11
264.238
21
-62.86
0
LINE
8
BLACK
6
CONTINUOUS
10
264.238
20
-62.86
11
266.837
21
-62.86
0
LINE
8
BLACK
6
CONTINUOUS
10
266.837
20
-62.86
11
266.837
21
-65.46
0
LINE
8
BLACK
6
CONTINUOUS
10
248.837
20
-65.46
11
246.237
21
-65.46
0
LINE
8
BLACK
6
CONTINUOUS
10
246.237
20
-65.46
11
246.237
21
-62.86
0
LINE
8
BLACK
6
CONTINUOUS
10
246.237
20
-62.86
11
248.837
21
-62.86
0
LINE
8
BLACK
6
CONTINUOUS
10
248.837
20
-62.86
11
248.837
21
-65.46
0
LINE
8
BLACK
6
CONTINUOUS
10
206.31
20
-63.946
11
205.31
21
-63.946
0
LINE
8
BLACK
6
CONTINUOUS
10
205.31
20
-63.946
11
205.31
21
-62.546
0
LINE
8
BLACK
6
CONTINUOUS
10
205.31
20
-62.546
11
206.31
21
-62.546
0
LINE
8
BLACK
6
CONTINUOUS
10
206.31
20
-62.546
11
206.31
21
-63.946
0
LINE
8
BLACK
6
CONTINUOUS
10
188.387
20
-63.48
11
185.787
21
-63.48
0
LINE
8
BLACK
6
CONTINUOUS
10
185.787
20
-63.48
11
185.787
21
-60.88
0
LINE
8
BLACK
6
CONTINUOUS
10
185.787
20
-60.88
11
188.387
21
-60.88
0
LINE
8
BLACK
6
CONTINUOUS
10
188.387
20
-60.88
11
188.387
21
-63.48
0
LINE
8
BLACK
6
CONTINUOUS
10
224.15
20
-63.405
11
223.15
21
-63.405
0
LINE
8
BLACK
6
CONTINUOUS
10
223.15
20
-63.405
11
223.15
21
-62.005
0
LINE
8
BLACK
6
CONTINUOUS
10
223.15
20
-62.005
11
224.15
21
-62.005
0
LINE
8
BLACK
6
CONTINUOUS
10
224.15
20
-62.005
11
224.15
21
-63.405
0
LINE
8
BLACK
6
CONTINUOUS
10
176.838
20
-61.28
11
174.237
21
-61.28
0
LINE
8
BLACK
6
CONTINUOUS
10
174.237
20
-61.28
11
174.237
21
-58.68
0
LINE
8
BLACK
6
CONTINUOUS
10
174.237
20
-58.68
11
176.838
21
-58.68
0
LINE
8
BLACK
6
CONTINUOUS
10
176.838
20
-58.68
11
176.838
21
-61.28
0
LINE
8
BLACK
6
CONTINUOUS
10
242.387
20
-61.1
11
239.787
21
-61.1
0
LINE
8
BLACK
6
CONTINUOUS
10
239.787
20
-61.1
11
239.787
21
-58.5
0
LINE
8
BLACK
6
CONTINUOUS
10
239.787
20
-58.5
11
242.387
21
-58.5
0
LINE
8
BLACK
6
CONTINUOUS
10
242.387
20
-58.5
11
242.387
21
-61.1
0
LINE
8
BLACK
6
CONTINUOUS
10
206.387
20
-61.1
11
203.787
21
-61.1
0
LINE
8
BLACK
6
CONTINUOUS
10
203.787
20
-61.1
11
203.787
21
-58.5
0
LINE
8
BLACK
6
CONTINUOUS
10
203.787
20
-58.5
11
206.387
21
-58.5
0
LINE
8
BLACK
6
CONTINUOUS
10
206.387
20
-58.5
11
206.387
21
-61.1
0
LINE
8
BLACK
6
CONTINUOUS
10
230.837
20
-58.9
11
228.237
21
-58.9
0
LINE
8
BLACK
6
CONTINUOUS
10
228.237
20
-58.9
11
228.237
21
-56.3
0
LINE
8
BLACK
6
CONTINUOUS
10
228.237
20
-56.3
11
230.837
21
-56.3
0
LINE
8
BLACK
6
CONTINUOUS
10
230.837
20
-56.3
11
230.837
21
-58.9
0
LINE
8
BLACK
6
CONTINUOUS
10
194.837
20
-58.9
11
192.237
21
-58.9
0
LINE
8
BLACK
6
CONTINUOUS
10
192.237
20
-58.9
11
192.237
21
-56.3
0
LINE
8
BLACK
6
CONTINUOUS
10
192.237
20
-56.3
11
194.837
21
-56.3
0
LINE
8
BLACK
6
CONTINUOUS
10
194.837
20
-56.3
11
194.837
21
-58.9
0
LINE
8
BLACK
6
CONTINUOUS
10
224.387
20
-58.74
11
221.787
21
-58.74
0
LINE
8
BLACK
6
CONTINUOUS
10
221.787
20
-58.74
11
221.787
21
-56.14
0
LINE
8
BLACK
6
CONTINUOUS
10
221.787
20
-56.14
11
224.387
21
-56.14
0
LINE
8
BLACK
6
CONTINUOUS
10
224.387
20
-56.14
11
224.387
21
-58.74
0
LINE
8
BLACK
6
CONTINUOUS
10
212.837
20
-56.54
11
210.237
21
-56.54
0
LINE
8
BLACK
6
CONTINUOUS
10
210.237
20
-56.54
11
210.237
21
-53.94
0
LINE
8
BLACK
6
CONTINUOUS
10
210.237
20
-53.94
11
212.837
21
-53.94
0
LINE
8
BLACK
6
CONTINUOUS
10
212.837
20
-53.94
11
212.837
21
-56.54
  0
ENDSEC
  0
EOF
