  0
SECTION
  2
HEADER
  9
$ANGBASE
  50
0.0
  9
$ANGDIR
  70
1
  9
$MEASUREMENT
  70
1
  0
ENDSEC
  0
SECTION
  2
TABLES
  0
TABLE
  2
LTYPE
  70
4
  0
LTYPE
  5
40F
  2
CONTINUOUS
  70
0
  3
Solid line
  72
65
  73
0
  40
0.0
  0
LTYPE
  5
410
  2
DASHDOT
 70
0
  3
Dash Dot ____ _ ____ _
 72
65
 73
4
 40
2.0
 49
1.25
 49
-0.25
 49
0.25
 49
-0.25
  0
LTYPE
  5
411
  2
DASHED
 70
0
  3
Dashed __ __ __ __ __
 72
65
 73
2
 40
0.75
 49
0.5
 49
-0.25
  0
LTYPE
  5
43B
  2
DOTTED
 70
0
  3
Dotted .  .  .  .
 72
65
 73
2
 40
0.2
 49
0.0
 49
-0.2
  0
ENDTAB
  0
TABLE
  2
STYLE
  70
4
  0
STYLE
  2
KICAD
  70
0
  40
0
  41
1
  42
1
  50
0
  71
0
  3
isocp.shx
  0
STYLE
  2
KICADB
  70
0
  40
0
  41
1
  42
1
  50
0
  71
0
  3
isocp.shx
  0
STYLE
  2
KICADI
  70
0
  40
0
  41
1
  42
1
  50
15
  71
0
  3
isocp.shx
  0
STYLE
  2
KICADBI
  70
0
  40
0
  41
1
  42
1
  50
15
  71
0
  3
isocp.shx
  0
ENDTAB
  0
TABLE
  2
LAYER
  70
1
  0
LAYER
  2
BLACK
  70
0
  62
7
  6
CONTINUOUS
  0
ENDTAB
  0
ENDSEC
  0
SECTION
  2
ENTITIES
0
LINE
8
BLACK
6
CONTINUOUS
10
224.293
20
-51.399
11
224.421
21
-51.4134
0
LINE
8
BLACK
6
CONTINUOUS
10
224.421
20
-51.4134
11
224.542
21
-51.456
0
LINE
8
BLACK
6
CONTINUOUS
10
224.542
20
-51.456
11
224.651
21
-51.5245
0
LINE
8
BLACK
6
CONTINUOUS
10
224.651
20
-51.5245
11
224.743
21
-51.6155
0
LINE
8
BLACK
6
CONTINUOUS
10
224.743
20
-51.6155
11
224.811
21
-51.7245
0
LINE
8
BLACK
6
CONTINUOUS
10
224.811
20
-51.7245
11
224.854
21
-51.8461
0
LINE
8
BLACK
6
CONTINUOUS
10
224.854
20
-51.8461
11
224.868
21
-51.974
0
LINE
8
BLACK
6
CONTINUOUS
10
224.868
20
-51.974
11
224.868
21
-51.974
0
LINE
8
BLACK
6
CONTINUOUS
10
224.868
20
-51.974
11
224.868
21
-53.224
0
LINE
8
BLACK
6
CONTINUOUS
10
224.868
20
-53.224
11
224.868
21
-53.28
0
LINE
8
BLACK
6
CONTINUOUS
10
224.868
20
-53.28
11
224.897
21
-53.3881
0
LINE
8
BLACK
6
CONTINUOUS
10
224.897
20
-53.3881
11
224.953
21
-53.485
0
LINE
8
BLACK
6
CONTINUOUS
10
224.953
20
-53.485
11
225.032
21
-53.5641
0
LINE
8
BLACK
6
CONTINUOUS
10
225.032
20
-53.5641
11
225.129
21
-53.6201
0
LINE
8
BLACK
6
CONTINUOUS
10
225.129
20
-53.6201
11
225.237
21
-53.649
0
LINE
8
BLACK
6
CONTINUOUS
10
225.237
20
-53.649
11
225.293
21
-53.649
0
LINE
8
BLACK
6
CONTINUOUS
10
225.293
20
-53.649
11
242.323
21
-53.649
0
LINE
8
BLACK
6
CONTINUOUS
10
242.323
20
-53.649
11
242.323
21
-53.649
0
LINE
8
BLACK
6
CONTINUOUS
10
242.323
20
-53.649
11
242.451
21
-53.6634
0
LINE
8
BLACK
6
CONTINUOUS
10
242.451
20
-53.6634
11
242.572
21
-53.706
0
LINE
8
BLACK
6
CONTINUOUS
10
242.572
20
-53.706
11
242.681
21
-53.7745
0
LINE
8
BLACK
6
CONTINUOUS
10
242.681
20
-53.7745
11
242.773
21
-53.8655
0
LINE
8
BLACK
6
CONTINUOUS
10
242.773
20
-53.8655
11
242.841
21
-53.9745
0
LINE
8
BLACK
6
CONTINUOUS
10
242.841
20
-53.9745
11
242.884
21
-54.0961
0
LINE
8
BLACK
6
CONTINUOUS
10
242.884
20
-54.0961
11
242.898
21
-54.2238
0
LINE
8
BLACK
6
CONTINUOUS
10
242.898
20
-54.2238
11
242.898
21
-54.2239
0
LINE
8
BLACK
6
CONTINUOUS
10
242.898
20
-54.2239
11
242.907
21
-59.9199
0
LINE
8
BLACK
6
CONTINUOUS
10
242.907
20
-59.9199
11
242.907
21
-59.92
0
LINE
8
BLACK
6
CONTINUOUS
10
242.907
20
-59.92
11
242.907
21
-59.92
0
LINE
8
BLACK
6
CONTINUOUS
10
242.907
20
-59.92
11
242.907
21
-59.976
0
LINE
8
BLACK
6
CONTINUOUS
10
242.907
20
-59.976
11
242.936
21
-60.084
0
LINE
8
BLACK
6
CONTINUOUS
10
242.936
20
-60.084
11
242.992
21
-60.181
0
LINE
8
BLACK
6
CONTINUOUS
10
242.992
20
-60.181
11
243.072
21
-60.2601
0
LINE
8
BLACK
6
CONTINUOUS
10
243.072
20
-60.2601
11
243.168
21
-60.316
0
LINE
8
BLACK
6
CONTINUOUS
10
243.168
20
-60.316
11
243.277
21
-60.345
0
LINE
8
BLACK
6
CONTINUOUS
10
243.277
20
-60.345
11
243.332
21
-60.345
0
LINE
8
BLACK
6
CONTINUOUS
10
243.332
20
-60.345
11
243.333
21
-60.345
0
LINE
8
BLACK
6
CONTINUOUS
10
243.333
20
-60.345
11
243.333
21
-60.345
0
LINE
8
BLACK
6
CONTINUOUS
10
243.333
20
-60.345
11
258.848
21
-60.349
0
LINE
8
BLACK
6
CONTINUOUS
10
258.848
20
-60.349
11
278.012
21
-60.345
0
LINE
8
BLACK
6
CONTINUOUS
10
278.012
20
-60.345
11
278.012
21
-60.345
0
LINE
8
BLACK
6
CONTINUOUS
10
278.012
20
-60.345
11
278.012
21
-60.345
0
LINE
8
BLACK
6
CONTINUOUS
10
278.012
20
-60.345
11
278.14
21
-60.3594
0
LINE
8
BLACK
6
CONTINUOUS
10
278.14
20
-60.3594
11
278.262
21
-60.4019
0
LINE
8
BLACK
6
CONTINUOUS
10
278.262
20
-60.4019
11
278.371
21
-60.4704
0
LINE
8
BLACK
6
CONTINUOUS
10
278.371
20
-60.4704
11
278.462
21
-60.5615
0
LINE
8
BLACK
6
CONTINUOUS
10
278.462
20
-60.5615
11
278.531
21
-60.6705
0
LINE
8
BLACK
6
CONTINUOUS
10
278.531
20
-60.6705
11
278.573
21
-60.792
0
LINE
8
BLACK
6
CONTINUOUS
10
278.573
20
-60.792
11
278.587
21
-60.92
0
LINE
8
BLACK
6
CONTINUOUS
10
278.587
20
-60.92
11
278.587
21
-113.24
0
LINE
8
BLACK
6
CONTINUOUS
10
278.587
20
-113.24
11
278.573
21
-113.368
0
LINE
8
BLACK
6
CONTINUOUS
10
278.573
20
-113.368
11
278.531
21
-113.489
0
LINE
8
BLACK
6
CONTINUOUS
10
278.531
20
-113.489
11
278.462
21
-113.599
0
LINE
8
BLACK
6
CONTINUOUS
10
278.462
20
-113.599
11
278.371
21
-113.69
0
LINE
8
BLACK
6
CONTINUOUS
10
278.371
20
-113.69
11
278.262
21
-113.758
0
LINE
8
BLACK
6
CONTINUOUS
10
278.262
20
-113.758
11
278.14
21
-113.801
0
LINE
8
BLACK
6
CONTINUOUS
10
278.14
20
-113.801
11
278.013
21
-113.815
0
LINE
8
BLACK
6
CONTINUOUS
10
278.013
20
-113.815
11
278.013
21
-113.815
0
LINE
8
BLACK
6
CONTINUOUS
10
278.013
20
-113.815
11
258.903
21
-113.819
0
LINE
8
BLACK
6
CONTINUOUS
10
258.903
20
-113.819
11
258.903
21
-113.819
0
LINE
8
BLACK
6
CONTINUOUS
10
258.903
20
-113.819
11
224.023
21
-113.845
0
LINE
8
BLACK
6
CONTINUOUS
10
224.023
20
-113.845
11
224.023
21
-113.845
0
LINE
8
BLACK
6
CONTINUOUS
10
224.023
20
-113.845
11
224.022
21
-113.845
0
LINE
8
BLACK
6
CONTINUOUS
10
224.022
20
-113.845
11
224.022
21
-113.845
0
LINE
8
BLACK
6
CONTINUOUS
10
224.022
20
-113.845
11
223.971
21
-113.845
0
LINE
8
BLACK
6
CONTINUOUS
10
223.971
20
-113.845
11
223.87
21
-113.87
0
LINE
8
BLACK
6
CONTINUOUS
10
223.87
20
-113.87
11
223.778
21
-113.918
0
LINE
8
BLACK
6
CONTINUOUS
10
223.778
20
-113.918
11
223.742
21
-113.951
0
LINE
8
BLACK
6
CONTINUOUS
10
223.742
20
-113.951
11
212.207
21
-126.341
0
LINE
8
BLACK
6
CONTINUOUS
10
212.207
20
-126.341
11
212.206
21
-126.342
0
LINE
8
BLACK
6
CONTINUOUS
10
212.206
20
-126.342
11
212.206
21
-126.343
0
LINE
8
BLACK
6
CONTINUOUS
10
212.206
20
-126.343
11
212.112
21
-126.419
0
LINE
8
BLACK
6
CONTINUOUS
10
212.112
20
-126.419
11
212.006
21
-126.475
0
LINE
8
BLACK
6
CONTINUOUS
10
212.006
20
-126.475
11
211.89
21
-126.509
0
LINE
8
BLACK
6
CONTINUOUS
10
211.89
20
-126.509
11
211.89
21
-126.509
0
LINE
8
BLACK
6
CONTINUOUS
10
211.89
20
-126.509
11
211.888
21
-126.508
0
LINE
8
BLACK
6
CONTINUOUS
10
211.888
20
-126.508
11
211.886
21
-126.509
0
LINE
8
BLACK
6
CONTINUOUS
10
211.886
20
-126.509
11
176.922
21
-131.079
0
LINE
8
BLACK
6
CONTINUOUS
10
176.922
20
-131.079
11
176.921
21
-131.079
0
LINE
8
BLACK
6
CONTINUOUS
10
176.921
20
-131.079
11
176.92
21
-131.079
0
LINE
8
BLACK
6
CONTINUOUS
10
176.92
20
-131.079
11
176.92
21
-131.079
0
LINE
8
BLACK
6
CONTINUOUS
10
176.92
20
-131.079
11
176.811
21
-131.09
0
LINE
8
BLACK
6
CONTINUOUS
10
176.811
20
-131.09
11
176.596
21
-131.125
0
LINE
8
BLACK
6
CONTINUOUS
10
176.596
20
-131.125
11
176.384
21
-131.174
0
LINE
8
BLACK
6
CONTINUOUS
10
176.384
20
-131.174
11
176.288
21
-131.203
0
LINE
8
BLACK
6
CONTINUOUS
10
176.288
20
-131.203
11
162.738
21
-139.024
0
LINE
8
BLACK
6
CONTINUOUS
10
162.738
20
-139.024
11
162.737
21
-139.025
0
LINE
8
BLACK
6
CONTINUOUS
10
162.737
20
-139.025
11
162.561
21
-139.126
0
LINE
8
BLACK
6
CONTINUOUS
10
162.561
20
-139.126
11
162.367
21
-139.203
0
LINE
8
BLACK
6
CONTINUOUS
10
162.367
20
-139.203
11
162.164
21
-139.252
0
LINE
8
BLACK
6
CONTINUOUS
10
162.164
20
-139.252
11
161.955
21
-139.271
0
LINE
8
BLACK
6
CONTINUOUS
10
161.955
20
-139.271
11
161.746
21
-139.26
0
LINE
8
BLACK
6
CONTINUOUS
10
161.746
20
-139.26
11
161.541
21
-139.22
0
LINE
8
BLACK
6
CONTINUOUS
10
161.541
20
-139.22
11
161.344
21
-139.151
0
LINE
8
BLACK
6
CONTINUOUS
10
161.344
20
-139.151
11
161.159
21
-139.054
0
LINE
8
BLACK
6
CONTINUOUS
10
161.159
20
-139.054
11
160.989
21
-138.932
0
LINE
8
BLACK
6
CONTINUOUS
10
160.989
20
-138.932
11
160.838
21
-138.787
0
LINE
8
BLACK
6
CONTINUOUS
10
160.838
20
-138.787
11
160.71
21
-138.622
0
LINE
8
BLACK
6
CONTINUOUS
10
160.71
20
-138.622
11
160.71
21
-138.622
0
LINE
8
BLACK
6
CONTINUOUS
10
160.71
20
-138.622
11
160.709
21
-138.619
0
LINE
8
BLACK
6
CONTINUOUS
10
160.709
20
-138.619
11
160.708
21
-138.618
0
LINE
8
BLACK
6
CONTINUOUS
10
160.708
20
-138.618
11
148.458
21
-117.438
0
LINE
8
BLACK
6
CONTINUOUS
10
148.458
20
-117.438
11
148.449
21
-117.413
0
LINE
8
BLACK
6
CONTINUOUS
10
148.449
20
-117.413
11
148.45
21
-117.406
0
LINE
8
BLACK
6
CONTINUOUS
10
148.45
20
-117.406
11
148.447
21
-117.4
0
LINE
8
BLACK
6
CONTINUOUS
10
148.447
20
-117.4
11
148.528
21
-57.4599
0
LINE
8
BLACK
6
CONTINUOUS
10
148.528
20
-57.4599
11
148.528
21
-57.4597
0
LINE
8
BLACK
6
CONTINUOUS
10
148.528
20
-57.4597
11
148.542
21
-57.332
0
LINE
8
BLACK
6
CONTINUOUS
10
148.542
20
-57.332
11
148.584
21
-57.2105
0
LINE
8
BLACK
6
CONTINUOUS
10
148.584
20
-57.2105
11
148.653
21
-57.1015
0
LINE
8
BLACK
6
CONTINUOUS
10
148.653
20
-57.1015
11
148.744
21
-57.0104
0
LINE
8
BLACK
6
CONTINUOUS
10
148.744
20
-57.0104
11
148.853
21
-56.9419
0
LINE
8
BLACK
6
CONTINUOUS
10
148.853
20
-56.9419
11
148.975
21
-56.8994
0
LINE
8
BLACK
6
CONTINUOUS
10
148.975
20
-56.8994
11
149.102
21
-56.885
0
LINE
8
BLACK
6
CONTINUOUS
10
149.102
20
-56.885
11
149.103
21
-56.885
0
LINE
8
BLACK
6
CONTINUOUS
10
149.103
20
-56.885
11
149.103
21
-56.885
0
LINE
8
BLACK
6
CONTINUOUS
10
149.103
20
-56.885
11
168.723
21
-56.895
0
LINE
8
BLACK
6
CONTINUOUS
10
168.723
20
-56.895
11
168.723
21
-56.8951
0
LINE
8
BLACK
6
CONTINUOUS
10
168.723
20
-56.8951
11
168.778
21
-56.8952
0
LINE
8
BLACK
6
CONTINUOUS
10
168.778
20
-56.8952
11
168.884
21
-56.8672
0
LINE
8
BLACK
6
CONTINUOUS
10
168.884
20
-56.8672
11
168.98
21
-56.813
0
LINE
8
BLACK
6
CONTINUOUS
10
168.98
20
-56.813
11
169.059
21
-56.7362
0
LINE
8
BLACK
6
CONTINUOUS
10
169.059
20
-56.7362
11
169.115
21
-56.6419
0
LINE
8
BLACK
6
CONTINUOUS
10
169.115
20
-56.6419
11
169.131
21
-56.589
0
LINE
8
BLACK
6
CONTINUOUS
10
169.131
20
-56.589
11
169.131
21
-56.589
0
LINE
8
BLACK
6
CONTINUOUS
10
169.131
20
-56.589
11
169.132
21
-56.5877
0
LINE
8
BLACK
6
CONTINUOUS
10
169.132
20
-56.5877
11
169.17
21
-56.4705
0
LINE
8
BLACK
6
CONTINUOUS
10
169.17
20
-56.4705
11
169.237
21
-56.3585
0
LINE
8
BLACK
6
CONTINUOUS
10
169.237
20
-56.3585
11
169.329
21
-56.2646
0
LINE
8
BLACK
6
CONTINUOUS
10
169.329
20
-56.2646
11
169.439
21
-56.1939
0
LINE
8
BLACK
6
CONTINUOUS
10
169.439
20
-56.1939
11
169.562
21
-56.1499
0
LINE
8
BLACK
6
CONTINUOUS
10
169.562
20
-56.1499
11
169.692
21
-56.135
0
LINE
8
BLACK
6
CONTINUOUS
10
169.692
20
-56.135
11
169.692
21
-56.135
0
LINE
8
BLACK
6
CONTINUOUS
10
169.692
20
-56.135
11
169.693
21
-56.135
0
LINE
8
BLACK
6
CONTINUOUS
10
169.693
20
-56.135
11
169.693
21
-56.135
0
LINE
8
BLACK
6
CONTINUOUS
10
169.693
20
-56.135
11
186.323
21
-56.149
0
LINE
8
BLACK
6
CONTINUOUS
10
186.323
20
-56.149
11
186.323
21
-56.1491
0
LINE
8
BLACK
6
CONTINUOUS
10
186.323
20
-56.1491
11
186.379
21
-56.1491
0
LINE
8
BLACK
6
CONTINUOUS
10
186.379
20
-56.1491
11
186.487
21
-56.1201
0
LINE
8
BLACK
6
CONTINUOUS
10
186.487
20
-56.1201
11
186.584
21
-56.0641
0
LINE
8
BLACK
6
CONTINUOUS
10
186.584
20
-56.0641
11
186.663
21
-55.985
0
LINE
8
BLACK
6
CONTINUOUS
10
186.663
20
-55.985
11
186.719
21
-55.8881
0
LINE
8
BLACK
6
CONTINUOUS
10
186.719
20
-55.8881
11
186.748
21
-55.78
0
LINE
8
BLACK
6
CONTINUOUS
10
186.748
20
-55.78
11
186.748
21
-55.724
0
LINE
8
BLACK
6
CONTINUOUS
10
186.748
20
-55.724
11
186.748
21
-54.224
0
LINE
8
BLACK
6
CONTINUOUS
10
186.748
20
-54.224
11
186.748
21
-54.224
0
LINE
8
BLACK
6
CONTINUOUS
10
186.748
20
-54.224
11
186.762
21
-54.0961
0
LINE
8
BLACK
6
CONTINUOUS
10
186.762
20
-54.0961
11
186.805
21
-53.9745
0
LINE
8
BLACK
6
CONTINUOUS
10
186.805
20
-53.9745
11
186.873
21
-53.8655
0
LINE
8
BLACK
6
CONTINUOUS
10
186.873
20
-53.8655
11
186.964
21
-53.7745
0
LINE
8
BLACK
6
CONTINUOUS
10
186.964
20
-53.7745
11
187.074
21
-53.706
0
LINE
8
BLACK
6
CONTINUOUS
10
187.074
20
-53.706
11
187.195
21
-53.6635
0
LINE
8
BLACK
6
CONTINUOUS
10
187.195
20
-53.6635
11
187.323
21
-53.6491
0
LINE
8
BLACK
6
CONTINUOUS
10
187.323
20
-53.6491
11
187.323
21
-53.649
0
LINE
8
BLACK
6
CONTINUOUS
10
187.323
20
-53.649
11
204.333
21
-53.649
0
LINE
8
BLACK
6
CONTINUOUS
10
204.333
20
-53.649
11
204.333
21
-53.6491
0
LINE
8
BLACK
6
CONTINUOUS
10
204.333
20
-53.6491
11
204.389
21
-53.6491
0
LINE
8
BLACK
6
CONTINUOUS
10
204.389
20
-53.6491
11
204.497
21
-53.6201
0
LINE
8
BLACK
6
CONTINUOUS
10
204.497
20
-53.6201
11
204.594
21
-53.5641
0
LINE
8
BLACK
6
CONTINUOUS
10
204.594
20
-53.5641
11
204.673
21
-53.485
0
LINE
8
BLACK
6
CONTINUOUS
10
204.673
20
-53.485
11
204.729
21
-53.3881
0
LINE
8
BLACK
6
CONTINUOUS
10
204.729
20
-53.3881
11
204.758
21
-53.28
0
LINE
8
BLACK
6
CONTINUOUS
10
204.758
20
-53.28
11
204.758
21
-53.224
0
LINE
8
BLACK
6
CONTINUOUS
10
204.758
20
-53.224
11
204.758
21
-51.974
0
LINE
8
BLACK
6
CONTINUOUS
10
204.758
20
-51.974
11
204.758
21
-51.974
0
LINE
8
BLACK
6
CONTINUOUS
10
204.758
20
-51.974
11
204.772
21
-51.8461
0
LINE
8
BLACK
6
CONTINUOUS
10
204.772
20
-51.8461
11
204.815
21
-51.7245
0
LINE
8
BLACK
6
CONTINUOUS
10
204.815
20
-51.7245
11
204.883
21
-51.6155
0
LINE
8
BLACK
6
CONTINUOUS
10
204.883
20
-51.6155
11
204.974
21
-51.5245
0
LINE
8
BLACK
6
CONTINUOUS
10
204.974
20
-51.5245
11
205.084
21
-51.456
0
LINE
8
BLACK
6
CONTINUOUS
10
205.084
20
-51.456
11
205.205
21
-51.4135
0
LINE
8
BLACK
6
CONTINUOUS
10
205.205
20
-51.4135
11
205.333
21
-51.3991
0
LINE
8
BLACK
6
CONTINUOUS
10
205.333
20
-51.3991
11
205.333
21
-51.399
0
LINE
8
BLACK
6
CONTINUOUS
10
205.333
20
-51.399
11
224.293
21
-51.399
0
LINE
8
BLACK
6
CONTINUOUS
10
224.293
20
-51.399
11
224.293
21
-51.399
0
LINE
8
BLACK
6
CONTINUOUS
10
224.293
20
-51.549
11
224.293
21
-51.549
0
LINE
8
BLACK
6
CONTINUOUS
10
224.293
20
-51.549
11
224.293
21
-51.549
0
LINE
8
BLACK
6
CONTINUOUS
10
224.293
20
-51.549
11
205.333
21
-51.549
0
LINE
8
BLACK
6
CONTINUOUS
10
205.333
20
-51.549
11
205.333
21
-51.549
0
LINE
8
BLACK
6
CONTINUOUS
10
205.333
20
-51.549
11
205.333
21
-51.549
0
LINE
8
BLACK
6
CONTINUOUS
10
205.333
20
-51.549
11
205.333
21
-51.5491
0
LINE
8
BLACK
6
CONTINUOUS
10
205.333
20
-51.5491
11
205.277
21
-51.5491
0
LINE
8
BLACK
6
CONTINUOUS
10
205.277
20
-51.5491
11
205.169
21
-51.578
0
LINE
8
BLACK
6
CONTINUOUS
10
205.169
20
-51.578
11
205.072
21
-51.634
0
LINE
8
BLACK
6
CONTINUOUS
10
205.072
20
-51.634
11
204.993
21
-51.7131
0
LINE
8
BLACK
6
CONTINUOUS
10
204.993
20
-51.7131
11
204.937
21
-51.81
0
LINE
8
BLACK
6
CONTINUOUS
10
204.937
20
-51.81
11
204.908
21
-51.9181
0
LINE
8
BLACK
6
CONTINUOUS
10
204.908
20
-51.9181
11
204.908
21
-51.974
0
LINE
8
BLACK
6
CONTINUOUS
10
204.908
20
-51.974
11
204.908
21
-51.974
0
LINE
8
BLACK
6
CONTINUOUS
10
204.908
20
-51.974
11
204.908
21
-51.974
0
LINE
8
BLACK
6
CONTINUOUS
10
204.908
20
-51.974
11
204.908
21
-53.224
0
LINE
8
BLACK
6
CONTINUOUS
10
204.908
20
-53.224
11
204.908
21
-53.224
0
LINE
8
BLACK
6
CONTINUOUS
10
204.908
20
-53.224
11
204.908
21
-53.224
0
LINE
8
BLACK
6
CONTINUOUS
10
204.908
20
-53.224
11
204.894
21
-53.352
0
LINE
8
BLACK
6
CONTINUOUS
10
204.894
20
-53.352
11
204.851
21
-53.4735
0
LINE
8
BLACK
6
CONTINUOUS
10
204.851
20
-53.4735
11
204.783
21
-53.5825
0
LINE
8
BLACK
6
CONTINUOUS
10
204.783
20
-53.5825
11
204.691
21
-53.6736
0
LINE
8
BLACK
6
CONTINUOUS
10
204.691
20
-53.6736
11
204.582
21
-53.7421
0
LINE
8
BLACK
6
CONTINUOUS
10
204.582
20
-53.7421
11
204.461
21
-53.7846
0
LINE
8
BLACK
6
CONTINUOUS
10
204.461
20
-53.7846
11
204.333
21
-53.7991
0
LINE
8
BLACK
6
CONTINUOUS
10
204.333
20
-53.7991
11
204.333
21
-53.799
0
LINE
8
BLACK
6
CONTINUOUS
10
204.333
20
-53.799
11
204.333
21
-53.799
0
LINE
8
BLACK
6
CONTINUOUS
10
204.333
20
-53.799
11
204.333
21
-53.799
0
LINE
8
BLACK
6
CONTINUOUS
10
204.333
20
-53.799
11
187.323
21
-53.799
0
LINE
8
BLACK
6
CONTINUOUS
10
187.323
20
-53.799
11
187.323
21
-53.799
0
LINE
8
BLACK
6
CONTINUOUS
10
187.323
20
-53.799
11
187.323
21
-53.799
0
LINE
8
BLACK
6
CONTINUOUS
10
187.323
20
-53.799
11
187.323
21
-53.7991
0
LINE
8
BLACK
6
CONTINUOUS
10
187.323
20
-53.7991
11
187.267
21
-53.7991
0
LINE
8
BLACK
6
CONTINUOUS
10
187.267
20
-53.7991
11
187.159
21
-53.828
0
LINE
8
BLACK
6
CONTINUOUS
10
187.159
20
-53.828
11
187.062
21
-53.884
0
LINE
8
BLACK
6
CONTINUOUS
10
187.062
20
-53.884
11
186.983
21
-53.9631
0
LINE
8
BLACK
6
CONTINUOUS
10
186.983
20
-53.9631
11
186.927
21
-54.06
0
LINE
8
BLACK
6
CONTINUOUS
10
186.927
20
-54.06
11
186.898
21
-54.1681
0
LINE
8
BLACK
6
CONTINUOUS
10
186.898
20
-54.1681
11
186.898
21
-54.224
0
LINE
8
BLACK
6
CONTINUOUS
10
186.898
20
-54.224
11
186.898
21
-54.224
0
LINE
8
BLACK
6
CONTINUOUS
10
186.898
20
-54.224
11
186.898
21
-54.224
0
LINE
8
BLACK
6
CONTINUOUS
10
186.898
20
-54.224
11
186.898
21
-55.724
0
LINE
8
BLACK
6
CONTINUOUS
10
186.898
20
-55.724
11
186.898
21
-55.724
0
LINE
8
BLACK
6
CONTINUOUS
10
186.898
20
-55.724
11
186.898
21
-55.724
0
LINE
8
BLACK
6
CONTINUOUS
10
186.898
20
-55.724
11
186.884
21
-55.852
0
LINE
8
BLACK
6
CONTINUOUS
10
186.884
20
-55.852
11
186.841
21
-55.9735
0
LINE
8
BLACK
6
CONTINUOUS
10
186.841
20
-55.9735
11
186.773
21
-56.0825
0
LINE
8
BLACK
6
CONTINUOUS
10
186.773
20
-56.0825
11
186.681
21
-56.1736
0
LINE
8
BLACK
6
CONTINUOUS
10
186.681
20
-56.1736
11
186.572
21
-56.2421
0
LINE
8
BLACK
6
CONTINUOUS
10
186.572
20
-56.2421
11
186.451
21
-56.2846
0
LINE
8
BLACK
6
CONTINUOUS
10
186.451
20
-56.2846
11
186.323
21
-56.2991
0
LINE
8
BLACK
6
CONTINUOUS
10
186.323
20
-56.2991
11
186.323
21
-56.299
0
LINE
8
BLACK
6
CONTINUOUS
10
186.323
20
-56.299
11
186.323
21
-56.299
0
LINE
8
BLACK
6
CONTINUOUS
10
186.323
20
-56.299
11
186.323
21
-56.299
0
LINE
8
BLACK
6
CONTINUOUS
10
186.323
20
-56.299
11
169.692
21
-56.285
0
LINE
8
BLACK
6
CONTINUOUS
10
169.692
20
-56.285
11
169.692
21
-56.285
0
LINE
8
BLACK
6
CONTINUOUS
10
169.692
20
-56.285
11
169.634
21
-56.285
0
LINE
8
BLACK
6
CONTINUOUS
10
169.634
20
-56.285
11
169.521
21
-56.3167
0
LINE
8
BLACK
6
CONTINUOUS
10
169.521
20
-56.3167
11
169.421
21
-56.3777
0
LINE
8
BLACK
6
CONTINUOUS
10
169.421
20
-56.3777
11
169.341
21
-56.4635
0
LINE
8
BLACK
6
CONTINUOUS
10
169.341
20
-56.4635
11
169.288
21
-56.5676
0
LINE
8
BLACK
6
CONTINUOUS
10
169.288
20
-56.5676
11
169.276
21
-56.625
0
LINE
8
BLACK
6
CONTINUOUS
10
169.276
20
-56.625
11
169.276
21
-56.625
0
LINE
8
BLACK
6
CONTINUOUS
10
169.276
20
-56.625
11
169.275
21
-56.6278
0
LINE
8
BLACK
6
CONTINUOUS
10
169.275
20
-56.6278
11
169.275
21
-56.631
0
LINE
8
BLACK
6
CONTINUOUS
10
169.275
20
-56.631
11
169.275
21
-56.631
0
LINE
8
BLACK
6
CONTINUOUS
10
169.275
20
-56.631
11
169.228
21
-56.7448
0
LINE
8
BLACK
6
CONTINUOUS
10
169.228
20
-56.7448
11
169.158
21
-56.8461
0
LINE
8
BLACK
6
CONTINUOUS
10
169.158
20
-56.8461
11
169.068
21
-56.9301
0
LINE
8
BLACK
6
CONTINUOUS
10
169.068
20
-56.9301
11
168.962
21
-56.993
0
LINE
8
BLACK
6
CONTINUOUS
10
168.962
20
-56.993
11
168.845
21
-57.0319
0
LINE
8
BLACK
6
CONTINUOUS
10
168.845
20
-57.0319
11
168.723
21
-57.0451
0
LINE
8
BLACK
6
CONTINUOUS
10
168.723
20
-57.0451
11
168.723
21
-57.045
0
LINE
8
BLACK
6
CONTINUOUS
10
168.723
20
-57.045
11
168.723
21
-57.045
0
LINE
8
BLACK
6
CONTINUOUS
10
168.723
20
-57.045
11
168.723
21
-57.045
0
LINE
8
BLACK
6
CONTINUOUS
10
168.723
20
-57.045
11
149.102
21
-57.035
0
LINE
8
BLACK
6
CONTINUOUS
10
149.102
20
-57.035
11
149.047
21
-57.035
0
LINE
8
BLACK
6
CONTINUOUS
10
149.047
20
-57.035
11
148.938
21
-57.064
0
LINE
8
BLACK
6
CONTINUOUS
10
148.938
20
-57.064
11
148.842
21
-57.1199
0
LINE
8
BLACK
6
CONTINUOUS
10
148.842
20
-57.1199
11
148.762
21
-57.199
0
LINE
8
BLACK
6
CONTINUOUS
10
148.762
20
-57.199
11
148.706
21
-57.296
0
LINE
8
BLACK
6
CONTINUOUS
10
148.706
20
-57.296
11
148.677
21
-57.404
0
LINE
8
BLACK
6
CONTINUOUS
10
148.677
20
-57.404
11
148.677
21
-57.46
0
LINE
8
BLACK
6
CONTINUOUS
10
148.677
20
-57.46
11
148.677
21
-57.4601
0
LINE
8
BLACK
6
CONTINUOUS
10
148.677
20
-57.4601
11
148.677
21
-57.4601
0
LINE
8
BLACK
6
CONTINUOUS
10
148.677
20
-57.4601
11
148.598
21
-117.38
0
LINE
8
BLACK
6
CONTINUOUS
10
148.598
20
-117.38
11
160.836
21
-138.541
0
LINE
8
BLACK
6
CONTINUOUS
10
160.836
20
-138.541
11
160.892
21
-138.624
0
LINE
8
BLACK
6
CONTINUOUS
10
160.892
20
-138.624
11
161.033
21
-138.776
0
LINE
8
BLACK
6
CONTINUOUS
10
161.033
20
-138.776
11
161.196
21
-138.904
0
LINE
8
BLACK
6
CONTINUOUS
10
161.196
20
-138.904
11
161.376
21
-139.005
0
LINE
8
BLACK
6
CONTINUOUS
10
161.376
20
-139.005
11
161.571
21
-139.077
0
LINE
8
BLACK
6
CONTINUOUS
10
161.571
20
-139.077
11
161.774
21
-139.117
0
LINE
8
BLACK
6
CONTINUOUS
10
161.774
20
-139.117
11
161.981
21
-139.124
0
LINE
8
BLACK
6
CONTINUOUS
10
161.981
20
-139.124
11
162.186
21
-139.099
0
LINE
8
BLACK
6
CONTINUOUS
10
162.186
20
-139.099
11
162.385
21
-139.042
0
LINE
8
BLACK
6
CONTINUOUS
10
162.385
20
-139.042
11
162.573
21
-138.955
0
LINE
8
BLACK
6
CONTINUOUS
10
162.573
20
-138.955
11
162.659
21
-138.897
0
LINE
8
BLACK
6
CONTINUOUS
10
162.659
20
-138.897
11
162.661
21
-138.897
0
LINE
8
BLACK
6
CONTINUOUS
10
162.661
20
-138.897
11
162.663
21
-138.895
0
LINE
8
BLACK
6
CONTINUOUS
10
162.663
20
-138.895
11
176.22
21
-131.069
0
LINE
8
BLACK
6
CONTINUOUS
10
176.22
20
-131.069
11
176.233
21
-131.065
0
LINE
8
BLACK
6
CONTINUOUS
10
176.233
20
-131.065
11
176.236
21
-131.062
0
LINE
8
BLACK
6
CONTINUOUS
10
176.236
20
-131.062
11
176.456
21
-131.004
0
LINE
8
BLACK
6
CONTINUOUS
10
176.456
20
-131.004
11
176.679
21
-130.959
0
LINE
8
BLACK
6
CONTINUOUS
10
176.679
20
-130.959
11
176.903
21
-130.93
0
LINE
8
BLACK
6
CONTINUOUS
10
176.903
20
-130.93
11
176.903
21
-130.93
0
LINE
8
BLACK
6
CONTINUOUS
10
176.903
20
-130.93
11
211.865
21
-126.361
0
LINE
8
BLACK
6
CONTINUOUS
10
211.865
20
-126.361
11
211.908
21
-126.353
0
LINE
8
BLACK
6
CONTINUOUS
10
211.908
20
-126.353
11
211.992
21
-126.319
0
LINE
8
BLACK
6
CONTINUOUS
10
211.992
20
-126.319
11
212.067
21
-126.269
0
LINE
8
BLACK
6
CONTINUOUS
10
212.067
20
-126.269
11
212.098
21
-126.238
0
LINE
8
BLACK
6
CONTINUOUS
10
212.098
20
-126.238
11
223.635
21
-113.846
0
LINE
8
BLACK
6
CONTINUOUS
10
223.635
20
-113.846
11
223.639
21
-113.843
0
LINE
8
BLACK
6
CONTINUOUS
10
223.639
20
-113.843
11
223.64
21
-113.841
0
LINE
8
BLACK
6
CONTINUOUS
10
223.64
20
-113.841
11
223.64
21
-113.841
0
LINE
8
BLACK
6
CONTINUOUS
10
223.64
20
-113.841
11
223.724
21
-113.779
0
LINE
8
BLACK
6
CONTINUOUS
10
223.724
20
-113.779
11
223.818
21
-113.733
0
LINE
8
BLACK
6
CONTINUOUS
10
223.818
20
-113.733
11
223.918
21
-113.705
0
LINE
8
BLACK
6
CONTINUOUS
10
223.918
20
-113.705
11
224.022
21
-113.695
0
LINE
8
BLACK
6
CONTINUOUS
10
224.022
20
-113.695
11
224.022
21
-113.695
0
LINE
8
BLACK
6
CONTINUOUS
10
224.022
20
-113.695
11
258.903
21
-113.669
0
LINE
8
BLACK
6
CONTINUOUS
10
258.903
20
-113.669
11
258.903
21
-113.669
0
LINE
8
BLACK
6
CONTINUOUS
10
258.903
20
-113.669
11
258.903
21
-113.669
0
LINE
8
BLACK
6
CONTINUOUS
10
258.903
20
-113.669
11
278.012
21
-113.665
0
LINE
8
BLACK
6
CONTINUOUS
10
278.012
20
-113.665
11
278.012
21
-113.665
0
LINE
8
BLACK
6
CONTINUOUS
10
278.012
20
-113.665
11
278.012
21
-113.665
0
LINE
8
BLACK
6
CONTINUOUS
10
278.012
20
-113.665
11
278.068
21
-113.665
0
LINE
8
BLACK
6
CONTINUOUS
10
278.068
20
-113.665
11
278.177
21
-113.636
0
LINE
8
BLACK
6
CONTINUOUS
10
278.177
20
-113.636
11
278.273
21
-113.58
0
LINE
8
BLACK
6
CONTINUOUS
10
278.273
20
-113.58
11
278.353
21
-113.501
0
LINE
8
BLACK
6
CONTINUOUS
10
278.353
20
-113.501
11
278.409
21
-113.404
0
LINE
8
BLACK
6
CONTINUOUS
10
278.409
20
-113.404
11
278.438
21
-113.296
0
LINE
8
BLACK
6
CONTINUOUS
10
278.438
20
-113.296
11
278.438
21
-113.24
0
LINE
8
BLACK
6
CONTINUOUS
10
278.438
20
-113.24
11
278.438
21
-60.92
0
LINE
8
BLACK
6
CONTINUOUS
10
278.438
20
-60.92
11
278.438
21
-60.864
0
LINE
8
BLACK
6
CONTINUOUS
10
278.438
20
-60.864
11
278.409
21
-60.756
0
LINE
8
BLACK
6
CONTINUOUS
10
278.409
20
-60.756
11
278.353
21
-60.659
0
LINE
8
BLACK
6
CONTINUOUS
10
278.353
20
-60.659
11
278.273
21
-60.5799
0
LINE
8
BLACK
6
CONTINUOUS
10
278.273
20
-60.5799
11
278.177
21
-60.524
0
LINE
8
BLACK
6
CONTINUOUS
10
278.177
20
-60.524
11
278.068
21
-60.495
0
LINE
8
BLACK
6
CONTINUOUS
10
278.068
20
-60.495
11
278.013
21
-60.495
0
LINE
8
BLACK
6
CONTINUOUS
10
278.013
20
-60.495
11
258.848
21
-60.499
0
LINE
8
BLACK
6
CONTINUOUS
10
258.848
20
-60.499
11
258.847
21
-60.499
0
LINE
8
BLACK
6
CONTINUOUS
10
258.847
20
-60.499
11
258.847
21
-60.499
0
LINE
8
BLACK
6
CONTINUOUS
10
258.847
20
-60.499
11
243.332
21
-60.495
0
LINE
8
BLACK
6
CONTINUOUS
10
243.332
20
-60.495
11
243.332
21
-60.495
0
LINE
8
BLACK
6
CONTINUOUS
10
243.332
20
-60.495
11
243.205
21
-60.4806
0
LINE
8
BLACK
6
CONTINUOUS
10
243.205
20
-60.4806
11
243.083
21
-60.4381
0
LINE
8
BLACK
6
CONTINUOUS
10
243.083
20
-60.4381
11
242.974
21
-60.3696
0
LINE
8
BLACK
6
CONTINUOUS
10
242.974
20
-60.3696
11
242.883
21
-60.2785
0
LINE
8
BLACK
6
CONTINUOUS
10
242.883
20
-60.2785
11
242.814
21
-60.1695
0
LINE
8
BLACK
6
CONTINUOUS
10
242.814
20
-60.1695
11
242.772
21
-60.048
0
LINE
8
BLACK
6
CONTINUOUS
10
242.772
20
-60.048
11
242.758
21
-59.9202
0
LINE
8
BLACK
6
CONTINUOUS
10
242.758
20
-59.9202
11
242.757
21
-59.9201
0
LINE
8
BLACK
6
CONTINUOUS
10
242.757
20
-59.9201
11
242.748
21
-54.2241
0
LINE
8
BLACK
6
CONTINUOUS
10
242.748
20
-54.2241
11
242.748
21
-54.2241
0
LINE
8
BLACK
6
CONTINUOUS
10
242.748
20
-54.2241
11
242.748
21
-54.224
0
LINE
8
BLACK
6
CONTINUOUS
10
242.748
20
-54.224
11
242.748
21
-54.1681
0
LINE
8
BLACK
6
CONTINUOUS
10
242.748
20
-54.1681
11
242.719
21
-54.06
0
LINE
8
BLACK
6
CONTINUOUS
10
242.719
20
-54.06
11
242.663
21
-53.9631
0
LINE
8
BLACK
6
CONTINUOUS
10
242.663
20
-53.9631
11
242.584
21
-53.8839
0
LINE
8
BLACK
6
CONTINUOUS
10
242.584
20
-53.8839
11
242.487
21
-53.828
0
LINE
8
BLACK
6
CONTINUOUS
10
242.487
20
-53.828
11
242.379
21
-53.799
0
LINE
8
BLACK
6
CONTINUOUS
10
242.379
20
-53.799
11
242.323
21
-53.799
0
LINE
8
BLACK
6
CONTINUOUS
10
242.323
20
-53.799
11
242.323
21
-53.799
0
LINE
8
BLACK
6
CONTINUOUS
10
242.323
20
-53.799
11
242.323
21
-53.799
0
LINE
8
BLACK
6
CONTINUOUS
10
242.323
20
-53.799
11
225.293
21
-53.799
0
LINE
8
BLACK
6
CONTINUOUS
10
225.293
20
-53.799
11
225.293
21
-53.799
0
LINE
8
BLACK
6
CONTINUOUS
10
225.293
20
-53.799
11
225.293
21
-53.799
0
LINE
8
BLACK
6
CONTINUOUS
10
225.293
20
-53.799
11
225.165
21
-53.7846
0
LINE
8
BLACK
6
CONTINUOUS
10
225.165
20
-53.7846
11
225.043
21
-53.7421
0
LINE
8
BLACK
6
CONTINUOUS
10
225.043
20
-53.7421
11
224.934
21
-53.6736
0
LINE
8
BLACK
6
CONTINUOUS
10
224.934
20
-53.6736
11
224.843
21
-53.5825
0
LINE
8
BLACK
6
CONTINUOUS
10
224.843
20
-53.5825
11
224.775
21
-53.4735
0
LINE
8
BLACK
6
CONTINUOUS
10
224.775
20
-53.4735
11
224.732
21
-53.352
0
LINE
8
BLACK
6
CONTINUOUS
10
224.732
20
-53.352
11
224.718
21
-53.224
0
LINE
8
BLACK
6
CONTINUOUS
10
224.718
20
-53.224
11
224.718
21
-53.224
0
LINE
8
BLACK
6
CONTINUOUS
10
224.718
20
-53.224
11
224.718
21
-53.224
0
LINE
8
BLACK
6
CONTINUOUS
10
224.718
20
-53.224
11
224.718
21
-51.974
0
LINE
8
BLACK
6
CONTINUOUS
10
224.718
20
-51.974
11
224.718
21
-51.974
0
LINE
8
BLACK
6
CONTINUOUS
10
224.718
20
-51.974
11
224.718
21
-51.974
0
LINE
8
BLACK
6
CONTINUOUS
10
224.718
20
-51.974
11
224.718
21
-51.9181
0
LINE
8
BLACK
6
CONTINUOUS
10
224.718
20
-51.9181
11
224.689
21
-51.81
0
LINE
8
BLACK
6
CONTINUOUS
10
224.689
20
-51.81
11
224.633
21
-51.7131
0
LINE
8
BLACK
6
CONTINUOUS
10
224.633
20
-51.7131
11
224.554
21
-51.6339
0
LINE
8
BLACK
6
CONTINUOUS
10
224.554
20
-51.6339
11
224.457
21
-51.578
0
LINE
8
BLACK
6
CONTINUOUS
10
224.457
20
-51.578
11
224.349
21
-51.549
0
LINE
8
BLACK
6
CONTINUOUS
10
224.349
20
-51.549
11
224.293
21
-51.549
  0
ENDSEC
  0
EOF
