G04 #@! TF.GenerationSoftware,KiCad,Pcbnew,(6.0.8-1)-1*
G04 #@! TF.CreationDate,2023-02-20T13:07:17+02:00*
G04 #@! TF.ProjectId,Lily58,4c696c79-3538-42e6-9b69-6361645f7063,rev?*
G04 #@! TF.SameCoordinates,Original*
G04 #@! TF.FileFunction,Legend,Top*
G04 #@! TF.FilePolarity,Positive*
%FSLAX46Y46*%
G04 Gerber Fmt 4.6, Leading zero omitted, Abs format (unit mm)*
G04 Created by KiCad (PCBNEW (6.0.8-1)-1) date 2023-02-20 13:07:17*
%MOMM*%
%LPD*%
G01*
G04 APERTURE LIST*
G04 #@! TA.AperFunction,Profile*
%ADD10C,0.200000*%
G04 #@! TD*
%ADD11C,0.125000*%
%ADD12C,0.150000*%
%ADD13C,0.250000*%
%ADD14C,0.010000*%
%ADD15C,1.200000*%
%ADD16R,1.200000X2.100000*%
%ADD17C,1.397000*%
G04 APERTURE END LIST*
D10*
X224900000Y-42700000D02*
X225460000Y-43436755D01*
D11*
X113266666Y-80916666D02*
X113500000Y-81616666D01*
X113733333Y-80916666D01*
X114366666Y-81550000D02*
X114333333Y-81583333D01*
X114233333Y-81616666D01*
X114166666Y-81616666D01*
X114066666Y-81583333D01*
X114000000Y-81516666D01*
X113966666Y-81450000D01*
X113933333Y-81316666D01*
X113933333Y-81216666D01*
X113966666Y-81083333D01*
X114000000Y-81016666D01*
X114066666Y-80950000D01*
X114166666Y-80916666D01*
X114233333Y-80916666D01*
X114333333Y-80950000D01*
X114366666Y-80983333D01*
X115066666Y-81550000D02*
X115033333Y-81583333D01*
X114933333Y-81616666D01*
X114866666Y-81616666D01*
X114766666Y-81583333D01*
X114700000Y-81516666D01*
X114666666Y-81450000D01*
X114633333Y-81316666D01*
X114633333Y-81216666D01*
X114666666Y-81083333D01*
X114700000Y-81016666D01*
X114766666Y-80950000D01*
X114866666Y-80916666D01*
X114933333Y-80916666D01*
X115033333Y-80950000D01*
X115066666Y-80983333D01*
X113766666Y-75850000D02*
X113700000Y-75816666D01*
X113600000Y-75816666D01*
X113500000Y-75850000D01*
X113433333Y-75916666D01*
X113400000Y-75983333D01*
X113366666Y-76116666D01*
X113366666Y-76216666D01*
X113400000Y-76350000D01*
X113433333Y-76416666D01*
X113500000Y-76483333D01*
X113600000Y-76516666D01*
X113666666Y-76516666D01*
X113766666Y-76483333D01*
X113800000Y-76450000D01*
X113800000Y-76216666D01*
X113666666Y-76216666D01*
X114100000Y-76516666D02*
X114100000Y-75816666D01*
X114500000Y-76516666D01*
X114500000Y-75816666D01*
X114833333Y-76516666D02*
X114833333Y-75816666D01*
X115000000Y-75816666D01*
X115100000Y-75850000D01*
X115166666Y-75916666D01*
X115200000Y-75983333D01*
X115233333Y-76116666D01*
X115233333Y-76216666D01*
X115200000Y-76350000D01*
X115166666Y-76416666D01*
X115100000Y-76483333D01*
X115000000Y-76516666D01*
X114833333Y-76516666D01*
X113850000Y-79016666D02*
X113516666Y-79016666D01*
X113516666Y-78316666D01*
X114083333Y-78650000D02*
X114316666Y-78650000D01*
X114416666Y-79016666D02*
X114083333Y-79016666D01*
X114083333Y-78316666D01*
X114416666Y-78316666D01*
X114716666Y-79016666D02*
X114716666Y-78316666D01*
X114883333Y-78316666D01*
X114983333Y-78350000D01*
X115050000Y-78416666D01*
X115083333Y-78483333D01*
X115116666Y-78616666D01*
X115116666Y-78716666D01*
X115083333Y-78850000D01*
X115050000Y-78916666D01*
X114983333Y-78983333D01*
X114883333Y-79016666D01*
X114716666Y-79016666D01*
D10*
X82937528Y-50750629D02*
X82937528Y-44443695D01*
X82937528Y-57057562D02*
X82937528Y-50750629D01*
X115211711Y-37086762D02*
X104803877Y-37086762D01*
X218692418Y-120789735D02*
X223959999Y-120789735D01*
X213424836Y-120789735D02*
X218692418Y-120789735D01*
X208157255Y-120789735D02*
X213424836Y-120789735D01*
X202889673Y-120789735D02*
X208157255Y-120789735D01*
X197622092Y-120789735D02*
X202889673Y-120789735D01*
X192354511Y-120789735D02*
X197622092Y-120789735D01*
X187086929Y-120789735D02*
X192354511Y-120789735D01*
X181819348Y-120789735D02*
X187086929Y-120789735D01*
X181113524Y-120860778D02*
X181819348Y-120789735D01*
X180456326Y-121064561D02*
X181113524Y-120860778D01*
X179861773Y-121387065D02*
X180456326Y-121064561D01*
X179343884Y-121814271D02*
X179861773Y-121387065D01*
X178916678Y-122332160D02*
X179343884Y-121814271D01*
X178594174Y-122926713D02*
X178916678Y-122332160D01*
X178390391Y-123583911D02*
X178594174Y-122926713D01*
X178319348Y-124289735D02*
X178390391Y-123583911D01*
X199807654Y-38170488D02*
X189919538Y-37585374D01*
X208420758Y-38945561D02*
X199807654Y-38170488D01*
X215525697Y-39885159D02*
X208420758Y-38945561D01*
X220889319Y-40963847D02*
X215525697Y-39885159D01*
X178989563Y-37215654D02*
X167250881Y-37086762D01*
X189919538Y-37585374D02*
X178989563Y-37215654D01*
X177658308Y-135255660D02*
X177403500Y-135393876D01*
X177880261Y-135072571D02*
X177658308Y-135255660D01*
X178063349Y-134850619D02*
X177880261Y-135072571D01*
X178201565Y-134595810D02*
X178063349Y-134850619D01*
X178288901Y-134314154D02*
X178201565Y-134595810D01*
X178319348Y-134011658D02*
X178288901Y-134314154D01*
X225460000Y-52918378D02*
X225460000Y-62400000D01*
X225460000Y-43436755D02*
X225460000Y-52918378D01*
X82937528Y-69671429D02*
X82937528Y-63364495D01*
X82937528Y-75978362D02*
X82937528Y-69671429D01*
X82937528Y-82285296D02*
X82937528Y-75978362D01*
X82937528Y-88592229D02*
X82937528Y-82285296D01*
X104807833Y-37086762D02*
X94400000Y-37086762D01*
X125619545Y-37086762D02*
X115211711Y-37086762D01*
X136027379Y-37086762D02*
X125619545Y-37086762D01*
X146435213Y-37086762D02*
X136027379Y-37086762D01*
X156843047Y-37086762D02*
X146435213Y-37086762D01*
X167250881Y-37086762D02*
X156843047Y-37086762D01*
X83400937Y-37265961D02*
X83579303Y-37169210D01*
X83245570Y-37394123D02*
X83400937Y-37265961D01*
X83117409Y-37549489D02*
X83245570Y-37394123D01*
X83020657Y-37727855D02*
X83117409Y-37549489D01*
X82959523Y-37925015D02*
X83020657Y-37727855D01*
X82938210Y-38136762D02*
X82959523Y-37925015D01*
X83776462Y-37108075D02*
X83988210Y-37086762D01*
X83579303Y-37169210D02*
X83776462Y-37108075D01*
X94396044Y-37086762D02*
X83988210Y-37086762D01*
X82937528Y-63364495D02*
X82937528Y-57057562D01*
X82937528Y-44443695D02*
X82937528Y-38136762D01*
X88291758Y-116318073D02*
X89993333Y-119989540D01*
X86863105Y-112530670D02*
X88291758Y-116318073D01*
X85688004Y-108649127D02*
X86863105Y-112530670D01*
X84747083Y-104695246D02*
X85688004Y-108649127D01*
X84020972Y-100690825D02*
X84747083Y-104695246D01*
X83490297Y-96657663D02*
X84020972Y-100690825D01*
X83135690Y-92617561D02*
X83490297Y-96657663D01*
X82937777Y-88592317D02*
X83135690Y-92617561D01*
X104288864Y-143357278D02*
X104456758Y-143271756D01*
X104130206Y-143404468D02*
X104288864Y-143357278D01*
X103981252Y-143413974D02*
X104130206Y-143404468D01*
X103842470Y-143386445D02*
X103981252Y-143413974D01*
X103714328Y-143322532D02*
X103842470Y-143386445D01*
X103597295Y-143222884D02*
X103714328Y-143322532D01*
X103491837Y-143088150D02*
X103597295Y-143222884D01*
X103398425Y-142918979D02*
X103491837Y-143088150D01*
X116186619Y-136480784D02*
X117862313Y-135510645D01*
X114510925Y-137450923D02*
X116186619Y-136480784D01*
X112835230Y-138421062D02*
X114510925Y-137450923D01*
X111159536Y-139391201D02*
X112835230Y-138421062D01*
X109483841Y-140361340D02*
X111159536Y-139391201D01*
X107808147Y-141331479D02*
X109483841Y-140361340D01*
X106132452Y-142301617D02*
X107808147Y-141331479D01*
X104456758Y-143271756D02*
X106132452Y-142301617D01*
X101722730Y-140052659D02*
X103398425Y-142918979D01*
X100047036Y-137186340D02*
X101722730Y-140052659D01*
X98371341Y-134320020D02*
X100047036Y-137186340D01*
X96695647Y-131453701D02*
X98371341Y-134320020D01*
X95019952Y-128587381D02*
X96695647Y-131453701D01*
X93344258Y-125721062D02*
X95019952Y-128587381D01*
X91668563Y-122854742D02*
X93344258Y-125721062D01*
X89992869Y-119988423D02*
X91668563Y-122854742D01*
X169449826Y-135511658D02*
X176819348Y-135511658D01*
X162080304Y-135511658D02*
X169449826Y-135511658D01*
X154710782Y-135511658D02*
X162080304Y-135511658D01*
X147341260Y-135511658D02*
X154710782Y-135511658D01*
X139971738Y-135511658D02*
X147341260Y-135511658D01*
X132602217Y-135511658D02*
X139971738Y-135511658D01*
X125232695Y-135511658D02*
X132602217Y-135511658D01*
X117863173Y-135511658D02*
X125232695Y-135511658D01*
X178319348Y-132816013D02*
X178319348Y-134011658D01*
X178319348Y-131597973D02*
X178319348Y-132816013D01*
X178319348Y-130379933D02*
X178319348Y-131597973D01*
X178319348Y-129161894D02*
X178319348Y-130379933D01*
X178319348Y-127943854D02*
X178319348Y-129161894D01*
X178319348Y-126725814D02*
X178319348Y-127943854D01*
X178319348Y-125507775D02*
X178319348Y-126725814D01*
X178319348Y-124289735D02*
X178319348Y-125507775D01*
X177121844Y-135481211D02*
X176819348Y-135511658D01*
X177403500Y-135393876D02*
X177121844Y-135481211D01*
X224278471Y-42156190D02*
X220889319Y-40963847D01*
X224900000Y-42700000D02*
X224278471Y-42156190D01*
X224262495Y-120759288D02*
X223959999Y-120789735D01*
X224544152Y-120671952D02*
X224262495Y-120759288D01*
X224798960Y-120533736D02*
X224544152Y-120671952D01*
X225020912Y-120350648D02*
X224798960Y-120533736D01*
X225204001Y-120128696D02*
X225020912Y-120350648D01*
X225342217Y-119873887D02*
X225204001Y-120128696D01*
X225429552Y-119592231D02*
X225342217Y-119873887D01*
X225459999Y-119289735D02*
X225429552Y-119592231D01*
X225460000Y-109808112D02*
X225460000Y-119289735D01*
X225460000Y-100326490D02*
X225460000Y-109808112D01*
X225460000Y-90844867D02*
X225460000Y-100326490D01*
X225460000Y-81363245D02*
X225460000Y-90844867D01*
X225460000Y-71881623D02*
X225460000Y-81363245D01*
X225460000Y-62400000D02*
X225460000Y-71881623D01*
D12*
X85461904Y-69661904D02*
X85080952Y-69928571D01*
X85461904Y-70119047D02*
X84661904Y-70119047D01*
X84661904Y-69814285D01*
X84700000Y-69738095D01*
X84738095Y-69700000D01*
X84814285Y-69661904D01*
X84928571Y-69661904D01*
X85004761Y-69700000D01*
X85042857Y-69738095D01*
X85080952Y-69814285D01*
X85080952Y-70119047D01*
X85042857Y-69319047D02*
X85042857Y-69052380D01*
X85461904Y-68938095D02*
X85461904Y-69319047D01*
X84661904Y-69319047D01*
X84661904Y-68938095D01*
X85423809Y-68633333D02*
X85461904Y-68519047D01*
X85461904Y-68328571D01*
X85423809Y-68252380D01*
X85385714Y-68214285D01*
X85309523Y-68176190D01*
X85233333Y-68176190D01*
X85157142Y-68214285D01*
X85119047Y-68252380D01*
X85080952Y-68328571D01*
X85042857Y-68480952D01*
X85004761Y-68557142D01*
X84966666Y-68595238D01*
X84890476Y-68633333D01*
X84814285Y-68633333D01*
X84738095Y-68595238D01*
X84700000Y-68557142D01*
X84661904Y-68480952D01*
X84661904Y-68290476D01*
X84700000Y-68176190D01*
X85042857Y-67833333D02*
X85042857Y-67566666D01*
X85461904Y-67452380D02*
X85461904Y-67833333D01*
X84661904Y-67833333D01*
X84661904Y-67452380D01*
X84661904Y-67223809D02*
X84661904Y-66766666D01*
X85461904Y-66995238D02*
X84661904Y-66995238D01*
X85067695Y-56135466D02*
X84680647Y-56406400D01*
X85067695Y-56599923D02*
X84254895Y-56599923D01*
X84254895Y-56290285D01*
X84293600Y-56212876D01*
X84332304Y-56174171D01*
X84409714Y-56135466D01*
X84525828Y-56135466D01*
X84603238Y-56174171D01*
X84641942Y-56212876D01*
X84680647Y-56290285D01*
X84680647Y-56599923D01*
X85067695Y-55361371D02*
X85067695Y-55825828D01*
X85067695Y-55593600D02*
X84254895Y-55593600D01*
X84371009Y-55671009D01*
X84448419Y-55748419D01*
X84487123Y-55825828D01*
X87267695Y-56135466D02*
X86880647Y-56406400D01*
X87267695Y-56599923D02*
X86454895Y-56599923D01*
X86454895Y-56290285D01*
X86493600Y-56212876D01*
X86532304Y-56174171D01*
X86609714Y-56135466D01*
X86725828Y-56135466D01*
X86803238Y-56174171D01*
X86841942Y-56212876D01*
X86880647Y-56290285D01*
X86880647Y-56599923D01*
X86532304Y-55825828D02*
X86493600Y-55787123D01*
X86454895Y-55709714D01*
X86454895Y-55516190D01*
X86493600Y-55438780D01*
X86532304Y-55400076D01*
X86609714Y-55361371D01*
X86687123Y-55361371D01*
X86803238Y-55400076D01*
X87267695Y-55864533D01*
X87267695Y-55361371D01*
X86300076Y-62739639D02*
X86300076Y-61926839D01*
X86609714Y-61926839D01*
X86687123Y-61965544D01*
X86725828Y-62004248D01*
X86764533Y-62081658D01*
X86764533Y-62197772D01*
X86725828Y-62275182D01*
X86687123Y-62313886D01*
X86609714Y-62352591D01*
X86300076Y-62352591D01*
X87074171Y-62004248D02*
X87112876Y-61965544D01*
X87190285Y-61926839D01*
X87383809Y-61926839D01*
X87461219Y-61965544D01*
X87499923Y-62004248D01*
X87538628Y-62081658D01*
X87538628Y-62159067D01*
X87499923Y-62275182D01*
X87035466Y-62739639D01*
X87538628Y-62739639D01*
X84100076Y-62739639D02*
X84100076Y-61926839D01*
X84409714Y-61926839D01*
X84487123Y-61965544D01*
X84525828Y-62004248D01*
X84564533Y-62081658D01*
X84564533Y-62197772D01*
X84525828Y-62275182D01*
X84487123Y-62313886D01*
X84409714Y-62352591D01*
X84100076Y-62352591D01*
X85338628Y-62739639D02*
X84874171Y-62739639D01*
X85106400Y-62739639D02*
X85106400Y-61926839D01*
X85028990Y-62042953D01*
X84951580Y-62120363D01*
X84874171Y-62159067D01*
X84900000Y-51300000D02*
X84900000Y-39300000D01*
X90900000Y-51300000D02*
X84900000Y-51300000D01*
X90900000Y-39300000D02*
X90900000Y-51300000D01*
X84900000Y-39300000D02*
X85400000Y-39300000D01*
X90400000Y-39300000D02*
X90400000Y-37400000D01*
X85400000Y-39300000D02*
X85400000Y-37400000D01*
X90900000Y-39300000D02*
X90400000Y-39300000D01*
X85400000Y-37400000D02*
X90400000Y-37400000D01*
X128750000Y-50550000D02*
X128750000Y-51550000D01*
X128750000Y-44050000D02*
X128750000Y-44950000D01*
X129450000Y-48250000D02*
X128050000Y-48250000D01*
X128050000Y-48250000D02*
X128750000Y-47350000D01*
X128750000Y-47350000D02*
X129450000Y-48250000D01*
X129450000Y-47350000D02*
X128050000Y-47350000D01*
X113700000Y-125124871D02*
X114200000Y-125990897D01*
X110450000Y-119495706D02*
X110900000Y-120275129D01*
X113156218Y-122783013D02*
X111943782Y-123483013D01*
X111943782Y-123483013D02*
X112100000Y-122353590D01*
X112100000Y-122353590D02*
X113156218Y-122783013D01*
X112706218Y-122003590D02*
X111493782Y-122703590D01*
X131250000Y-109800000D02*
X131250000Y-110800000D01*
X131250000Y-103300000D02*
X131250000Y-104200000D01*
X131950000Y-107500000D02*
X130550000Y-107500000D01*
X130550000Y-107500000D02*
X131250000Y-106600000D01*
X131250000Y-106600000D02*
X131950000Y-107500000D01*
X131950000Y-106600000D02*
X130550000Y-106600000D01*
X128750000Y-71800000D02*
X128750000Y-72800000D01*
X128750000Y-65300000D02*
X128750000Y-66200000D01*
X129450000Y-69500000D02*
X128050000Y-69500000D01*
X128050000Y-69500000D02*
X128750000Y-68600000D01*
X128750000Y-68600000D02*
X129450000Y-69500000D01*
X129450000Y-68600000D02*
X128050000Y-68600000D01*
X131250000Y-50550000D02*
X131250000Y-51550000D01*
X131250000Y-44050000D02*
X131250000Y-44950000D01*
X131950000Y-48250000D02*
X130550000Y-48250000D01*
X130550000Y-48250000D02*
X131250000Y-47350000D01*
X131250000Y-47350000D02*
X131950000Y-48250000D01*
X131950000Y-47350000D02*
X130550000Y-47350000D01*
X149250000Y-48050000D02*
X149250000Y-49050000D01*
X149250000Y-41550000D02*
X149250000Y-42450000D01*
X149950000Y-45750000D02*
X148550000Y-45750000D01*
X148550000Y-45750000D02*
X149250000Y-44850000D01*
X149250000Y-44850000D02*
X149950000Y-45750000D01*
X149950000Y-44850000D02*
X148550000Y-44850000D01*
X168250000Y-50300000D02*
X168250000Y-51300000D01*
X168250000Y-43800000D02*
X168250000Y-44700000D01*
X168950000Y-48000000D02*
X167550000Y-48000000D01*
X167550000Y-48000000D02*
X168250000Y-47100000D01*
X168250000Y-47100000D02*
X168950000Y-48000000D01*
X168950000Y-47100000D02*
X167550000Y-47100000D01*
X187250000Y-55300000D02*
X187250000Y-56300000D01*
X187250000Y-48800000D02*
X187250000Y-49700000D01*
X187950000Y-53000000D02*
X186550000Y-53000000D01*
X186550000Y-53000000D02*
X187250000Y-52100000D01*
X187250000Y-52100000D02*
X187950000Y-53000000D01*
X187950000Y-52100000D02*
X186550000Y-52100000D01*
X206250000Y-55300000D02*
X206250000Y-56300000D01*
X206250000Y-48800000D02*
X206250000Y-49700000D01*
X206950000Y-53000000D02*
X205550000Y-53000000D01*
X205550000Y-53000000D02*
X206250000Y-52100000D01*
X206250000Y-52100000D02*
X206950000Y-53000000D01*
X206950000Y-52100000D02*
X205550000Y-52100000D01*
X131252540Y-71752540D02*
X131252540Y-72752540D01*
X131252540Y-65252540D02*
X131252540Y-66152540D01*
X131952540Y-69452540D02*
X130552540Y-69452540D01*
X130552540Y-69452540D02*
X131252540Y-68552540D01*
X131252540Y-68552540D02*
X131952540Y-69452540D01*
X131952540Y-68552540D02*
X130552540Y-68552540D01*
X149000000Y-67300000D02*
X149000000Y-68300000D01*
X149000000Y-60800000D02*
X149000000Y-61700000D01*
X149700000Y-65000000D02*
X148300000Y-65000000D01*
X148300000Y-65000000D02*
X149000000Y-64100000D01*
X149000000Y-64100000D02*
X149700000Y-65000000D01*
X149700000Y-64100000D02*
X148300000Y-64100000D01*
X168250000Y-69300000D02*
X168250000Y-70300000D01*
X168250000Y-62800000D02*
X168250000Y-63700000D01*
X168950000Y-67000000D02*
X167550000Y-67000000D01*
X167550000Y-67000000D02*
X168250000Y-66100000D01*
X168250000Y-66100000D02*
X168950000Y-67000000D01*
X168950000Y-66100000D02*
X167550000Y-66100000D01*
X187250000Y-74050000D02*
X187250000Y-75050000D01*
X187250000Y-67550000D02*
X187250000Y-68450000D01*
X187950000Y-71750000D02*
X186550000Y-71750000D01*
X186550000Y-71750000D02*
X187250000Y-70850000D01*
X187250000Y-70850000D02*
X187950000Y-71750000D01*
X187950000Y-70850000D02*
X186550000Y-70850000D01*
X206250000Y-74050000D02*
X206250000Y-75050000D01*
X206250000Y-67550000D02*
X206250000Y-68450000D01*
X206950000Y-71750000D02*
X205550000Y-71750000D01*
X205550000Y-71750000D02*
X206250000Y-70850000D01*
X206250000Y-70850000D02*
X206950000Y-71750000D01*
X206950000Y-70850000D02*
X205550000Y-70850000D01*
X128750000Y-88550000D02*
X128750000Y-89550000D01*
X128750000Y-82050000D02*
X128750000Y-82950000D01*
X129450000Y-86250000D02*
X128050000Y-86250000D01*
X128050000Y-86250000D02*
X128750000Y-85350000D01*
X128750000Y-85350000D02*
X129450000Y-86250000D01*
X129450000Y-85350000D02*
X128050000Y-85350000D01*
X131250000Y-88550000D02*
X131250000Y-89550000D01*
X131250000Y-82050000D02*
X131250000Y-82950000D01*
X131950000Y-86250000D02*
X130550000Y-86250000D01*
X130550000Y-86250000D02*
X131250000Y-85350000D01*
X131250000Y-85350000D02*
X131950000Y-86250000D01*
X131950000Y-85350000D02*
X130550000Y-85350000D01*
X149000000Y-86300000D02*
X149000000Y-87300000D01*
X149000000Y-79800000D02*
X149000000Y-80700000D01*
X149700000Y-84000000D02*
X148300000Y-84000000D01*
X148300000Y-84000000D02*
X149000000Y-83100000D01*
X149000000Y-83100000D02*
X149700000Y-84000000D01*
X149700000Y-83100000D02*
X148300000Y-83100000D01*
X168250000Y-88550000D02*
X168250000Y-89550000D01*
X168250000Y-82050000D02*
X168250000Y-82950000D01*
X168950000Y-86250000D02*
X167550000Y-86250000D01*
X167550000Y-86250000D02*
X168250000Y-85350000D01*
X168250000Y-85350000D02*
X168950000Y-86250000D01*
X168950000Y-85350000D02*
X167550000Y-85350000D01*
X187250000Y-93550000D02*
X187250000Y-94550000D01*
X187250000Y-87050000D02*
X187250000Y-87950000D01*
X187950000Y-91250000D02*
X186550000Y-91250000D01*
X186550000Y-91250000D02*
X187250000Y-90350000D01*
X187250000Y-90350000D02*
X187950000Y-91250000D01*
X187950000Y-90350000D02*
X186550000Y-90350000D01*
X206250000Y-93550000D02*
X206250000Y-94550000D01*
X206250000Y-87050000D02*
X206250000Y-87950000D01*
X206950000Y-91250000D02*
X205550000Y-91250000D01*
X205550000Y-91250000D02*
X206250000Y-90350000D01*
X206250000Y-90350000D02*
X206950000Y-91250000D01*
X206950000Y-90350000D02*
X205550000Y-90350000D01*
X128800000Y-109800000D02*
X128800000Y-110800000D01*
X128800000Y-103300000D02*
X128800000Y-104200000D01*
X129500000Y-107500000D02*
X128100000Y-107500000D01*
X128100000Y-107500000D02*
X128800000Y-106600000D01*
X128800000Y-106600000D02*
X129500000Y-107500000D01*
X129500000Y-106600000D02*
X128100000Y-106600000D01*
X149000000Y-105300000D02*
X149000000Y-106300000D01*
X149000000Y-98800000D02*
X149000000Y-99700000D01*
X149700000Y-103000000D02*
X148300000Y-103000000D01*
X148300000Y-103000000D02*
X149000000Y-102100000D01*
X149000000Y-102100000D02*
X149700000Y-103000000D01*
X149700000Y-102100000D02*
X148300000Y-102100000D01*
X168250000Y-107550000D02*
X168250000Y-108550000D01*
X168250000Y-101050000D02*
X168250000Y-101950000D01*
X168950000Y-105250000D02*
X167550000Y-105250000D01*
X167550000Y-105250000D02*
X168250000Y-104350000D01*
X168250000Y-104350000D02*
X168950000Y-105250000D01*
X168950000Y-104350000D02*
X167550000Y-104350000D01*
X187250000Y-112300000D02*
X187250000Y-113300000D01*
X187250000Y-105800000D02*
X187250000Y-106700000D01*
X187950000Y-110000000D02*
X186550000Y-110000000D01*
X186550000Y-110000000D02*
X187250000Y-109100000D01*
X187250000Y-109100000D02*
X187950000Y-110000000D01*
X187950000Y-109100000D02*
X186550000Y-109100000D01*
X206250000Y-112300000D02*
X206250000Y-113300000D01*
X206250000Y-105800000D02*
X206250000Y-106700000D01*
X206950000Y-110000000D02*
X205550000Y-110000000D01*
X205550000Y-110000000D02*
X206250000Y-109100000D01*
X206250000Y-109100000D02*
X206950000Y-110000000D01*
X206950000Y-109100000D02*
X205550000Y-109100000D01*
X109800000Y-99800000D02*
X109800000Y-100800000D01*
X109800000Y-93300000D02*
X109800000Y-94200000D01*
X110500000Y-97500000D02*
X109100000Y-97500000D01*
X109100000Y-97500000D02*
X109800000Y-96600000D01*
X109800000Y-96600000D02*
X110500000Y-97500000D01*
X110500000Y-96600000D02*
X109100000Y-96600000D01*
X121700000Y-130300000D02*
X121700000Y-131300000D01*
X121700000Y-123800000D02*
X121700000Y-124700000D01*
X122400000Y-128000000D02*
X121000000Y-128000000D01*
X121000000Y-128000000D02*
X121700000Y-127100000D01*
X121700000Y-127100000D02*
X122400000Y-128000000D01*
X122400000Y-127100000D02*
X121000000Y-127100000D01*
X139200000Y-125200000D02*
X139200000Y-126200000D01*
X139200000Y-118700000D02*
X139200000Y-119600000D01*
X139900000Y-122900000D02*
X138500000Y-122900000D01*
X138500000Y-122900000D02*
X139200000Y-122000000D01*
X139200000Y-122000000D02*
X139900000Y-122900000D01*
X139900000Y-122000000D02*
X138500000Y-122000000D01*
X158700000Y-125200000D02*
X158700000Y-126200000D01*
X158700000Y-118700000D02*
X158700000Y-119600000D01*
X159400000Y-122900000D02*
X158000000Y-122900000D01*
X158000000Y-122900000D02*
X158700000Y-122000000D01*
X158700000Y-122000000D02*
X159400000Y-122900000D01*
X159400000Y-122000000D02*
X158000000Y-122000000D01*
X94833973Y-77533759D02*
X87213973Y-77533759D01*
X94833973Y-72453759D02*
X94833973Y-77533759D01*
X87213973Y-72453759D02*
X94833973Y-72453759D01*
X87213973Y-77533759D02*
X87213973Y-72453759D01*
X86900000Y-71500000D02*
X86900000Y-65500000D01*
X83400000Y-65500000D02*
X83400000Y-71500000D01*
X86900000Y-71500000D02*
X86400000Y-71500000D01*
X83400000Y-71500000D02*
X83800000Y-71500000D01*
X83400000Y-65500000D02*
X83800000Y-65500000D01*
X86900000Y-65500000D02*
X86400000Y-65500000D01*
X85688795Y-57540412D02*
X85688795Y-54538132D01*
X83687275Y-57540412D02*
X85688795Y-57540412D01*
X83687275Y-54538132D02*
X83687275Y-57540412D01*
X85688795Y-54538132D02*
X83687275Y-54538132D01*
X87938795Y-57540412D02*
X87938795Y-54538132D01*
X85937275Y-57540412D02*
X87938795Y-57540412D01*
X85937275Y-54538132D02*
X85937275Y-57540412D01*
X87938795Y-54538132D02*
X85937275Y-54538132D01*
X85900000Y-61700000D02*
X87900000Y-61700000D01*
X85900000Y-59700000D02*
X85900000Y-61700000D01*
X87900000Y-59700000D02*
X85900000Y-59700000D01*
X87900000Y-61700000D02*
X87900000Y-59700000D01*
X83700000Y-61700000D02*
X85700000Y-61700000D01*
X83700000Y-59700000D02*
X83700000Y-61700000D01*
X85700000Y-59700000D02*
X83700000Y-59700000D01*
X85700000Y-61700000D02*
X85700000Y-59700000D01*
D13*
X107448815Y-71535745D02*
X109988815Y-71535745D01*
X94748815Y-41055745D02*
X92208815Y-41055745D01*
D12*
X92208815Y-41055745D02*
X92208815Y-71535745D01*
D13*
X92208815Y-38515745D02*
X92208815Y-71535745D01*
X109988815Y-38515745D02*
X92208815Y-38515745D01*
X92208815Y-71535745D02*
X94748815Y-71535745D01*
X109988815Y-41055745D02*
X107448815Y-41055745D01*
X109988815Y-71535745D02*
X109988815Y-38515745D01*
X107448815Y-41055745D02*
X107448815Y-71535745D01*
X94748815Y-71535745D02*
X94748815Y-41055745D01*
D12*
X109988815Y-71535745D02*
X109988815Y-41055745D01*
X88111000Y-61843000D02*
X88111000Y-59557000D01*
X88111000Y-59557000D02*
X89889000Y-59557000D01*
X89889000Y-59557000D02*
X89889000Y-61843000D01*
X89889000Y-61843000D02*
X88111000Y-61843000D01*
X103411000Y-71543000D02*
X103411000Y-69257000D01*
X103411000Y-69257000D02*
X105189000Y-69257000D01*
X105189000Y-69257000D02*
X105189000Y-71543000D01*
X105189000Y-71543000D02*
X103411000Y-71543000D01*
X102689000Y-71543000D02*
X100911000Y-71543000D01*
X102689000Y-69257000D02*
X102689000Y-71543000D01*
X100911000Y-69257000D02*
X102689000Y-69257000D01*
X100911000Y-71543000D02*
X100911000Y-69257000D01*
X98311000Y-71543000D02*
X98311000Y-69257000D01*
X98311000Y-69257000D02*
X100089000Y-69257000D01*
X100089000Y-69257000D02*
X100089000Y-71543000D01*
X100089000Y-71543000D02*
X98311000Y-71543000D01*
X97589000Y-71543000D02*
X95811000Y-71543000D01*
X97589000Y-69257000D02*
X97589000Y-71543000D01*
X95811000Y-69257000D02*
X97589000Y-69257000D01*
X95811000Y-71543000D02*
X95811000Y-69257000D01*
X95430000Y-76270000D02*
X95430000Y-73730000D01*
X105590000Y-73730000D02*
X105590000Y-76270000D01*
X95430000Y-73730000D02*
X105590000Y-73730000D01*
X95430000Y-76270000D02*
X105590000Y-76270000D01*
G36*
X99691997Y-48827329D02*
G01*
X99756642Y-48850438D01*
X99853927Y-48887346D01*
X99980663Y-48936737D01*
X100133662Y-48997296D01*
X100309736Y-49067708D01*
X100505697Y-49146659D01*
X100718357Y-49232832D01*
X100944528Y-49324913D01*
X101181021Y-49421586D01*
X101424650Y-49521537D01*
X101672225Y-49623450D01*
X101920559Y-49726009D01*
X102166463Y-49827901D01*
X102406750Y-49927809D01*
X102638232Y-50024419D01*
X102857719Y-50116415D01*
X103062025Y-50202483D01*
X103247962Y-50281306D01*
X103412340Y-50351570D01*
X103551972Y-50411960D01*
X103663671Y-50461161D01*
X103744248Y-50497857D01*
X103790514Y-50520733D01*
X103797351Y-50524787D01*
X103964400Y-50657406D01*
X104098950Y-50810896D01*
X104199347Y-50980871D01*
X104263937Y-51162947D01*
X104291067Y-51352738D01*
X104279082Y-51545860D01*
X104240365Y-51699383D01*
X104195049Y-51817435D01*
X104150611Y-51899478D01*
X104103107Y-51951560D01*
X104060184Y-51975742D01*
X103980809Y-51985077D01*
X103891532Y-51961420D01*
X103803784Y-51908344D01*
X103780650Y-51888330D01*
X103737728Y-51842522D01*
X103720988Y-51800579D01*
X103722483Y-51741323D01*
X103723159Y-51735135D01*
X103737814Y-51656483D01*
X103761873Y-51571451D01*
X103769595Y-51549834D01*
X103797538Y-51420824D01*
X103784784Y-51292211D01*
X103732825Y-51167895D01*
X103643151Y-51051778D01*
X103547666Y-50969176D01*
X103485932Y-50929529D01*
X103400892Y-50882790D01*
X103300358Y-50832404D01*
X103192140Y-50781818D01*
X103084046Y-50734476D01*
X102983887Y-50693826D01*
X102899472Y-50663311D01*
X102838613Y-50646379D01*
X102812505Y-50644821D01*
X102787572Y-50654465D01*
X102726672Y-50679313D01*
X102632836Y-50718099D01*
X102509096Y-50769554D01*
X102358481Y-50832411D01*
X102184024Y-50905405D01*
X101988754Y-50987267D01*
X101775703Y-51076730D01*
X101547902Y-51172527D01*
X101308381Y-51273391D01*
X101233891Y-51304788D01*
X100944568Y-51426746D01*
X100691696Y-51533174D01*
X100472696Y-51624939D01*
X100284990Y-51702906D01*
X100125999Y-51767943D01*
X99993146Y-51820916D01*
X99883851Y-51862693D01*
X99795537Y-51894141D01*
X99725626Y-51916126D01*
X99671539Y-51929515D01*
X99630698Y-51935175D01*
X99600525Y-51933973D01*
X99578442Y-51926776D01*
X99561869Y-51914451D01*
X99548230Y-51897864D01*
X99534945Y-51877882D01*
X99533945Y-51876354D01*
X99513803Y-51819827D01*
X99504743Y-51738580D01*
X99505974Y-51646310D01*
X99516704Y-51556713D01*
X99536141Y-51483485D01*
X99558921Y-51444339D01*
X99584724Y-51429890D01*
X99645703Y-51401366D01*
X99737751Y-51360466D01*
X99856759Y-51308890D01*
X99998619Y-51248335D01*
X100159223Y-51180501D01*
X100334461Y-51107086D01*
X100520227Y-51029789D01*
X100712411Y-50950310D01*
X100906906Y-50870347D01*
X101099603Y-50791598D01*
X101286394Y-50715763D01*
X101463170Y-50644541D01*
X101625824Y-50579630D01*
X101770247Y-50522729D01*
X101892330Y-50475538D01*
X101987966Y-50439754D01*
X101990591Y-50438800D01*
X102179432Y-50370182D01*
X102096424Y-50343406D01*
X102062304Y-50330953D01*
X101992504Y-50304266D01*
X101890671Y-50264777D01*
X101760452Y-50213917D01*
X101605496Y-50153117D01*
X101429450Y-50083810D01*
X101235962Y-50007426D01*
X101028679Y-49925398D01*
X100811249Y-49839156D01*
X100790791Y-49831031D01*
X100534356Y-49729347D01*
X100314316Y-49642097D01*
X100127901Y-49567647D01*
X99972340Y-49504366D01*
X99844863Y-49450621D01*
X99742698Y-49404778D01*
X99663077Y-49365205D01*
X99603227Y-49330270D01*
X99560378Y-49298339D01*
X99531759Y-49267781D01*
X99514601Y-49236961D01*
X99506132Y-49204249D01*
X99503582Y-49168010D01*
X99504179Y-49126612D01*
X99505155Y-49078423D01*
X99505166Y-49073423D01*
X99507031Y-48990784D01*
X99514847Y-48937440D01*
X99531944Y-48900436D01*
X99557121Y-48871288D01*
X99608456Y-48835213D01*
X99661218Y-48819367D01*
X99663179Y-48819334D01*
X99691997Y-48827329D01*
G37*
D14*
X99691997Y-48827329D02*
X99756642Y-48850438D01*
X99853927Y-48887346D01*
X99980663Y-48936737D01*
X100133662Y-48997296D01*
X100309736Y-49067708D01*
X100505697Y-49146659D01*
X100718357Y-49232832D01*
X100944528Y-49324913D01*
X101181021Y-49421586D01*
X101424650Y-49521537D01*
X101672225Y-49623450D01*
X101920559Y-49726009D01*
X102166463Y-49827901D01*
X102406750Y-49927809D01*
X102638232Y-50024419D01*
X102857719Y-50116415D01*
X103062025Y-50202483D01*
X103247962Y-50281306D01*
X103412340Y-50351570D01*
X103551972Y-50411960D01*
X103663671Y-50461161D01*
X103744248Y-50497857D01*
X103790514Y-50520733D01*
X103797351Y-50524787D01*
X103964400Y-50657406D01*
X104098950Y-50810896D01*
X104199347Y-50980871D01*
X104263937Y-51162947D01*
X104291067Y-51352738D01*
X104279082Y-51545860D01*
X104240365Y-51699383D01*
X104195049Y-51817435D01*
X104150611Y-51899478D01*
X104103107Y-51951560D01*
X104060184Y-51975742D01*
X103980809Y-51985077D01*
X103891532Y-51961420D01*
X103803784Y-51908344D01*
X103780650Y-51888330D01*
X103737728Y-51842522D01*
X103720988Y-51800579D01*
X103722483Y-51741323D01*
X103723159Y-51735135D01*
X103737814Y-51656483D01*
X103761873Y-51571451D01*
X103769595Y-51549834D01*
X103797538Y-51420824D01*
X103784784Y-51292211D01*
X103732825Y-51167895D01*
X103643151Y-51051778D01*
X103547666Y-50969176D01*
X103485932Y-50929529D01*
X103400892Y-50882790D01*
X103300358Y-50832404D01*
X103192140Y-50781818D01*
X103084046Y-50734476D01*
X102983887Y-50693826D01*
X102899472Y-50663311D01*
X102838613Y-50646379D01*
X102812505Y-50644821D01*
X102787572Y-50654465D01*
X102726672Y-50679313D01*
X102632836Y-50718099D01*
X102509096Y-50769554D01*
X102358481Y-50832411D01*
X102184024Y-50905405D01*
X101988754Y-50987267D01*
X101775703Y-51076730D01*
X101547902Y-51172527D01*
X101308381Y-51273391D01*
X101233891Y-51304788D01*
X100944568Y-51426746D01*
X100691696Y-51533174D01*
X100472696Y-51624939D01*
X100284990Y-51702906D01*
X100125999Y-51767943D01*
X99993146Y-51820916D01*
X99883851Y-51862693D01*
X99795537Y-51894141D01*
X99725626Y-51916126D01*
X99671539Y-51929515D01*
X99630698Y-51935175D01*
X99600525Y-51933973D01*
X99578442Y-51926776D01*
X99561869Y-51914451D01*
X99548230Y-51897864D01*
X99534945Y-51877882D01*
X99533945Y-51876354D01*
X99513803Y-51819827D01*
X99504743Y-51738580D01*
X99505974Y-51646310D01*
X99516704Y-51556713D01*
X99536141Y-51483485D01*
X99558921Y-51444339D01*
X99584724Y-51429890D01*
X99645703Y-51401366D01*
X99737751Y-51360466D01*
X99856759Y-51308890D01*
X99998619Y-51248335D01*
X100159223Y-51180501D01*
X100334461Y-51107086D01*
X100520227Y-51029789D01*
X100712411Y-50950310D01*
X100906906Y-50870347D01*
X101099603Y-50791598D01*
X101286394Y-50715763D01*
X101463170Y-50644541D01*
X101625824Y-50579630D01*
X101770247Y-50522729D01*
X101892330Y-50475538D01*
X101987966Y-50439754D01*
X101990591Y-50438800D01*
X102179432Y-50370182D01*
X102096424Y-50343406D01*
X102062304Y-50330953D01*
X101992504Y-50304266D01*
X101890671Y-50264777D01*
X101760452Y-50213917D01*
X101605496Y-50153117D01*
X101429450Y-50083810D01*
X101235962Y-50007426D01*
X101028679Y-49925398D01*
X100811249Y-49839156D01*
X100790791Y-49831031D01*
X100534356Y-49729347D01*
X100314316Y-49642097D01*
X100127901Y-49567647D01*
X99972340Y-49504366D01*
X99844863Y-49450621D01*
X99742698Y-49404778D01*
X99663077Y-49365205D01*
X99603227Y-49330270D01*
X99560378Y-49298339D01*
X99531759Y-49267781D01*
X99514601Y-49236961D01*
X99506132Y-49204249D01*
X99503582Y-49168010D01*
X99504179Y-49126612D01*
X99505155Y-49078423D01*
X99505166Y-49073423D01*
X99507031Y-48990784D01*
X99514847Y-48937440D01*
X99531944Y-48900436D01*
X99557121Y-48871288D01*
X99608456Y-48835213D01*
X99661218Y-48819367D01*
X99663179Y-48819334D01*
X99691997Y-48827329D01*
G36*
X101485393Y-68136444D02*
G01*
X101269406Y-67865627D01*
X101072052Y-67586590D01*
X100898267Y-67306678D01*
X100752986Y-67033233D01*
X100659596Y-66821530D01*
X100624999Y-66734600D01*
X100596395Y-66663506D01*
X100577194Y-66616678D01*
X100570910Y-66602370D01*
X100550602Y-66606796D01*
X100498790Y-66624378D01*
X100423194Y-66652350D01*
X100331534Y-66687946D01*
X100326647Y-66689884D01*
X99938891Y-66824183D01*
X99530664Y-66928788D01*
X99112241Y-67001912D01*
X98693895Y-67041766D01*
X98285902Y-67046560D01*
X98279588Y-67046344D01*
X98207594Y-67043834D01*
X98220543Y-66678709D01*
X98227174Y-66537282D01*
X98236827Y-66390586D01*
X98248425Y-66252265D01*
X98260887Y-66135968D01*
X98266956Y-66091334D01*
X98309911Y-65848769D01*
X98365955Y-65598345D01*
X98431952Y-65351404D01*
X98504764Y-65119287D01*
X98581254Y-64913336D01*
X98614099Y-64836524D01*
X98675013Y-64700759D01*
X98502715Y-64631631D01*
X98191859Y-64490270D01*
X97874574Y-64314456D01*
X97558878Y-64109526D01*
X97252789Y-63880821D01*
X96964325Y-63633678D01*
X96869322Y-63544112D01*
X96680338Y-63361286D01*
X97356750Y-63361286D01*
X97441416Y-63436498D01*
X97656912Y-63616271D01*
X97894832Y-63794463D01*
X98139856Y-63960189D01*
X98376666Y-64102566D01*
X98386848Y-64108230D01*
X98454126Y-64143617D01*
X98536272Y-64184040D01*
X98624922Y-64225744D01*
X98711710Y-64264973D01*
X98788270Y-64297970D01*
X98846239Y-64320979D01*
X98877250Y-64330246D01*
X98880108Y-64329704D01*
X99082415Y-64063455D01*
X99318686Y-63815237D01*
X99582429Y-63590615D01*
X99867154Y-63395150D01*
X100148279Y-63242898D01*
X100214049Y-63213972D01*
X100303439Y-63177736D01*
X100408600Y-63137038D01*
X100521682Y-63094726D01*
X100634835Y-63053650D01*
X100740209Y-63016658D01*
X100829952Y-62986598D01*
X100896216Y-62966320D01*
X100931150Y-62958672D01*
X100931550Y-62958667D01*
X100947538Y-62975018D01*
X100977573Y-63017061D01*
X101015086Y-63074279D01*
X101053508Y-63136156D01*
X101086269Y-63192177D01*
X101106801Y-63231824D01*
X101110148Y-63244575D01*
X101086921Y-63254248D01*
X101032523Y-63272302D01*
X100956527Y-63295636D01*
X100912055Y-63308712D01*
X100562847Y-63427951D01*
X100245833Y-63574335D01*
X99960197Y-63748683D01*
X99705124Y-63951815D01*
X99479798Y-64184551D01*
X99283404Y-64447710D01*
X99115128Y-64742111D01*
X98974155Y-65068575D01*
X98881319Y-65350500D01*
X98818667Y-65596755D01*
X98766418Y-65861725D01*
X98727896Y-66126254D01*
X98707416Y-66353076D01*
X98694084Y-66583068D01*
X98798000Y-66570929D01*
X98875812Y-66562539D01*
X98972438Y-66553066D01*
X99050083Y-66546044D01*
X99250677Y-66522763D01*
X99463688Y-66487373D01*
X99679806Y-66442185D01*
X99889719Y-66389511D01*
X100084115Y-66331664D01*
X100253683Y-66270956D01*
X100374626Y-66217175D01*
X100450336Y-66178879D01*
X100420839Y-66013398D01*
X100408209Y-65907489D01*
X100401077Y-65770768D01*
X100399167Y-65614362D01*
X100402201Y-65449398D01*
X100409902Y-65287001D01*
X100421995Y-65138297D01*
X100438201Y-65014413D01*
X100446812Y-64969500D01*
X100522335Y-64690048D01*
X100627052Y-64397448D01*
X100755746Y-64103213D01*
X100903205Y-63818857D01*
X101064214Y-63555895D01*
X101129900Y-63461145D01*
X101202443Y-63360373D01*
X101307250Y-63443821D01*
X101365970Y-63488854D01*
X101413596Y-63522296D01*
X101436882Y-63535545D01*
X101437423Y-63556016D01*
X101415243Y-63605749D01*
X101372716Y-63679911D01*
X101341638Y-63729173D01*
X101156625Y-64042459D01*
X101005471Y-64357633D01*
X100889259Y-64671228D01*
X100809075Y-64979776D01*
X100766001Y-65279811D01*
X100761122Y-65567864D01*
X100761986Y-65583334D01*
X100797814Y-65874906D01*
X100869945Y-66178086D01*
X100976251Y-66486728D01*
X101114605Y-66794686D01*
X101282878Y-67095816D01*
X101289221Y-67106055D01*
X101345118Y-67191017D01*
X101420444Y-67298620D01*
X101507727Y-67418818D01*
X101599491Y-67541570D01*
X101688263Y-67656830D01*
X101766569Y-67754555D01*
X101809771Y-67805579D01*
X101893119Y-67900573D01*
X101939925Y-67858495D01*
X101985979Y-67811022D01*
X102050270Y-67736541D01*
X102126791Y-67642746D01*
X102209534Y-67537334D01*
X102292491Y-67427999D01*
X102369655Y-67322437D01*
X102435016Y-67228341D01*
X102452020Y-67202584D01*
X102607506Y-66943757D01*
X102744503Y-66676353D01*
X102859288Y-66409038D01*
X102948139Y-66150478D01*
X103007161Y-65910256D01*
X103026043Y-65763314D01*
X103034532Y-65588498D01*
X103033096Y-65398851D01*
X103022206Y-65207416D01*
X103002329Y-65027235D01*
X102973936Y-64871350D01*
X102969082Y-64851308D01*
X102874792Y-64543925D01*
X102745538Y-64234455D01*
X102579208Y-63918103D01*
X102498543Y-63783254D01*
X102400871Y-63639672D01*
X102357227Y-63590687D01*
X102305249Y-63532346D01*
X102204545Y-63456207D01*
X102091626Y-63406185D01*
X101959361Y-63377212D01*
X101920569Y-63372463D01*
X101752795Y-63341316D01*
X101611884Y-63283834D01*
X101490226Y-63195301D01*
X101380210Y-63071001D01*
X101338917Y-63011962D01*
X101299887Y-62949319D01*
X101284753Y-62908563D01*
X101297648Y-62885487D01*
X101342706Y-62875880D01*
X101424060Y-62875534D01*
X101471283Y-62877186D01*
X101659399Y-62884584D01*
X101540074Y-62804352D01*
X101464585Y-62756069D01*
X101369019Y-62698394D01*
X101270723Y-62641722D01*
X101243329Y-62626489D01*
X101159658Y-62579277D01*
X101103966Y-62542497D01*
X101066716Y-62506963D01*
X101038373Y-62463489D01*
X101009402Y-62402889D01*
X101008017Y-62399804D01*
X100972910Y-62317987D01*
X100941277Y-62238255D01*
X100923945Y-62189680D01*
X100897744Y-62132366D01*
X100855666Y-62094070D01*
X100805470Y-62069047D01*
X100712411Y-62032202D01*
X100629861Y-62005079D01*
X100566607Y-61990137D01*
X100531431Y-61989831D01*
X100528663Y-61991615D01*
X100529035Y-62016399D01*
X100541867Y-62070424D01*
X100564566Y-62143363D01*
X100572571Y-62166429D01*
X100598151Y-62242212D01*
X100615577Y-62301209D01*
X100621984Y-62333437D01*
X100621353Y-62336369D01*
X100598338Y-62335488D01*
X100544835Y-62325557D01*
X100471220Y-62308583D01*
X100449949Y-62303233D01*
X100130083Y-62241799D01*
X99809816Y-62221225D01*
X99488527Y-62241677D01*
X99165593Y-62303321D01*
X98840392Y-62406323D01*
X98512301Y-62550847D01*
X98180697Y-62737061D01*
X97844960Y-62965128D01*
X97780083Y-63013637D01*
X97684615Y-63087052D01*
X97592146Y-63159917D01*
X97512651Y-63224260D01*
X97456109Y-63272110D01*
X97452000Y-63275772D01*
X97356750Y-63361286D01*
X96680338Y-63361286D01*
X96679417Y-63360395D01*
X96869916Y-63178046D01*
X97198723Y-62884675D01*
X97534758Y-62626395D01*
X97876193Y-62403870D01*
X98221197Y-62217762D01*
X98567944Y-62068734D01*
X98914604Y-61957449D01*
X99259349Y-61884569D01*
X99600350Y-61850756D01*
X99935778Y-61856675D01*
X100263805Y-61902986D01*
X100341107Y-61920156D01*
X100422920Y-61938440D01*
X100470658Y-61945411D01*
X100490924Y-61941473D01*
X100491301Y-61929363D01*
X100481839Y-61896028D01*
X100466538Y-61833070D01*
X100448232Y-61752301D01*
X100442413Y-61725598D01*
X100427618Y-61645056D01*
X100417035Y-61556147D01*
X100410141Y-61450596D01*
X100406414Y-61320125D01*
X100406181Y-61284873D01*
X100761527Y-61284873D01*
X100776530Y-61548799D01*
X100815815Y-61800691D01*
X100855863Y-61957216D01*
X100893000Y-62079197D01*
X101188625Y-62228661D01*
X101411780Y-62345760D01*
X101598260Y-62453597D01*
X101751899Y-62555204D01*
X101876530Y-62653615D01*
X101975986Y-62751862D01*
X102054101Y-62852977D01*
X102114708Y-62959993D01*
X102115685Y-62962040D01*
X102153891Y-63037505D01*
X102185482Y-63083588D01*
X102219361Y-63110293D01*
X102262560Y-63127062D01*
X102318402Y-63139613D01*
X102357227Y-63140682D01*
X102362277Y-63138824D01*
X102386769Y-63111668D01*
X102426574Y-63054022D01*
X102477523Y-62972979D01*
X102535448Y-62875633D01*
X102596181Y-62769080D01*
X102655553Y-62660412D01*
X102709396Y-62556725D01*
X102735530Y-62503584D01*
X102853174Y-62235593D01*
X102939828Y-61983883D01*
X102997910Y-61738730D01*
X103029836Y-61490413D01*
X103038148Y-61286500D01*
X103035733Y-61149806D01*
X103027621Y-61010703D01*
X103015031Y-60887021D01*
X103007363Y-60836110D01*
X102940464Y-60553800D01*
X102837598Y-60259544D01*
X102701433Y-59958701D01*
X102534636Y-59656628D01*
X102339876Y-59358683D01*
X102140668Y-59095750D01*
X102074508Y-59015474D01*
X102013629Y-58943910D01*
X101965446Y-58889638D01*
X101940128Y-58863622D01*
X101894113Y-58821993D01*
X101820982Y-58905955D01*
X101569845Y-59215265D01*
X101348651Y-59531173D01*
X101159498Y-59849808D01*
X101004486Y-60167299D01*
X100885716Y-60479772D01*
X100806689Y-60776511D01*
X100771388Y-61022810D01*
X100761527Y-61284873D01*
X100406181Y-61284873D01*
X100405332Y-61156458D01*
X100405348Y-61138334D01*
X100407452Y-60954617D01*
X100414525Y-60800954D01*
X100428588Y-60665363D01*
X100451666Y-60535864D01*
X100485780Y-60400475D01*
X100532953Y-60247216D01*
X100578668Y-60111750D01*
X100699849Y-59809284D01*
X100856228Y-59498038D01*
X101043571Y-59184640D01*
X101257647Y-58875715D01*
X101494223Y-58577892D01*
X101714307Y-58333750D01*
X101896733Y-58143250D01*
X102118378Y-58371426D01*
X102382993Y-58665354D01*
X102621268Y-58973881D01*
X102831597Y-59293376D01*
X103012371Y-59620208D01*
X103161984Y-59950747D01*
X103278826Y-60281360D01*
X103361292Y-60608417D01*
X103407772Y-60928287D01*
X103416660Y-61237338D01*
X103413796Y-61297356D01*
X103374396Y-61627027D01*
X103297036Y-61965282D01*
X103183686Y-62306639D01*
X103036314Y-62645618D01*
X102856890Y-62976739D01*
X102748871Y-63148081D01*
X102602199Y-63369245D01*
X102670817Y-63459139D01*
X102807481Y-63657895D01*
X102940475Y-63888345D01*
X103065047Y-64139864D01*
X103176445Y-64401829D01*
X103269914Y-64663613D01*
X103340702Y-64914592D01*
X103359282Y-64998123D01*
X103383174Y-65145866D01*
X103400466Y-65316506D01*
X103410565Y-65496210D01*
X103412882Y-65671146D01*
X103406825Y-65827481D01*
X103398277Y-65911417D01*
X103347134Y-66185695D01*
X103268792Y-66474169D01*
X103167811Y-66763044D01*
X103048754Y-67038527D01*
X102981789Y-67170834D01*
X102850149Y-67398801D01*
X102695831Y-67635925D01*
X102526597Y-67871736D01*
X102350204Y-68095767D01*
X102174412Y-68297548D01*
X102056160Y-68419667D01*
X101894067Y-68578417D01*
X101893119Y-68577429D01*
X101715076Y-68391699D01*
X101485393Y-68136444D01*
G37*
X101485393Y-68136444D02*
X101269406Y-67865627D01*
X101072052Y-67586590D01*
X100898267Y-67306678D01*
X100752986Y-67033233D01*
X100659596Y-66821530D01*
X100624999Y-66734600D01*
X100596395Y-66663506D01*
X100577194Y-66616678D01*
X100570910Y-66602370D01*
X100550602Y-66606796D01*
X100498790Y-66624378D01*
X100423194Y-66652350D01*
X100331534Y-66687946D01*
X100326647Y-66689884D01*
X99938891Y-66824183D01*
X99530664Y-66928788D01*
X99112241Y-67001912D01*
X98693895Y-67041766D01*
X98285902Y-67046560D01*
X98279588Y-67046344D01*
X98207594Y-67043834D01*
X98220543Y-66678709D01*
X98227174Y-66537282D01*
X98236827Y-66390586D01*
X98248425Y-66252265D01*
X98260887Y-66135968D01*
X98266956Y-66091334D01*
X98309911Y-65848769D01*
X98365955Y-65598345D01*
X98431952Y-65351404D01*
X98504764Y-65119287D01*
X98581254Y-64913336D01*
X98614099Y-64836524D01*
X98675013Y-64700759D01*
X98502715Y-64631631D01*
X98191859Y-64490270D01*
X97874574Y-64314456D01*
X97558878Y-64109526D01*
X97252789Y-63880821D01*
X96964325Y-63633678D01*
X96869322Y-63544112D01*
X96680338Y-63361286D01*
X97356750Y-63361286D01*
X97441416Y-63436498D01*
X97656912Y-63616271D01*
X97894832Y-63794463D01*
X98139856Y-63960189D01*
X98376666Y-64102566D01*
X98386848Y-64108230D01*
X98454126Y-64143617D01*
X98536272Y-64184040D01*
X98624922Y-64225744D01*
X98711710Y-64264973D01*
X98788270Y-64297970D01*
X98846239Y-64320979D01*
X98877250Y-64330246D01*
X98880108Y-64329704D01*
X99082415Y-64063455D01*
X99318686Y-63815237D01*
X99582429Y-63590615D01*
X99867154Y-63395150D01*
X100148279Y-63242898D01*
X100214049Y-63213972D01*
X100303439Y-63177736D01*
X100408600Y-63137038D01*
X100521682Y-63094726D01*
X100634835Y-63053650D01*
X100740209Y-63016658D01*
X100829952Y-62986598D01*
X100896216Y-62966320D01*
X100931150Y-62958672D01*
X100931550Y-62958667D01*
X100947538Y-62975018D01*
X100977573Y-63017061D01*
X101015086Y-63074279D01*
X101053508Y-63136156D01*
X101086269Y-63192177D01*
X101106801Y-63231824D01*
X101110148Y-63244575D01*
X101086921Y-63254248D01*
X101032523Y-63272302D01*
X100956527Y-63295636D01*
X100912055Y-63308712D01*
X100562847Y-63427951D01*
X100245833Y-63574335D01*
X99960197Y-63748683D01*
X99705124Y-63951815D01*
X99479798Y-64184551D01*
X99283404Y-64447710D01*
X99115128Y-64742111D01*
X98974155Y-65068575D01*
X98881319Y-65350500D01*
X98818667Y-65596755D01*
X98766418Y-65861725D01*
X98727896Y-66126254D01*
X98707416Y-66353076D01*
X98694084Y-66583068D01*
X98798000Y-66570929D01*
X98875812Y-66562539D01*
X98972438Y-66553066D01*
X99050083Y-66546044D01*
X99250677Y-66522763D01*
X99463688Y-66487373D01*
X99679806Y-66442185D01*
X99889719Y-66389511D01*
X100084115Y-66331664D01*
X100253683Y-66270956D01*
X100374626Y-66217175D01*
X100450336Y-66178879D01*
X100420839Y-66013398D01*
X100408209Y-65907489D01*
X100401077Y-65770768D01*
X100399167Y-65614362D01*
X100402201Y-65449398D01*
X100409902Y-65287001D01*
X100421995Y-65138297D01*
X100438201Y-65014413D01*
X100446812Y-64969500D01*
X100522335Y-64690048D01*
X100627052Y-64397448D01*
X100755746Y-64103213D01*
X100903205Y-63818857D01*
X101064214Y-63555895D01*
X101129900Y-63461145D01*
X101202443Y-63360373D01*
X101307250Y-63443821D01*
X101365970Y-63488854D01*
X101413596Y-63522296D01*
X101436882Y-63535545D01*
X101437423Y-63556016D01*
X101415243Y-63605749D01*
X101372716Y-63679911D01*
X101341638Y-63729173D01*
X101156625Y-64042459D01*
X101005471Y-64357633D01*
X100889259Y-64671228D01*
X100809075Y-64979776D01*
X100766001Y-65279811D01*
X100761122Y-65567864D01*
X100761986Y-65583334D01*
X100797814Y-65874906D01*
X100869945Y-66178086D01*
X100976251Y-66486728D01*
X101114605Y-66794686D01*
X101282878Y-67095816D01*
X101289221Y-67106055D01*
X101345118Y-67191017D01*
X101420444Y-67298620D01*
X101507727Y-67418818D01*
X101599491Y-67541570D01*
X101688263Y-67656830D01*
X101766569Y-67754555D01*
X101809771Y-67805579D01*
X101893119Y-67900573D01*
X101939925Y-67858495D01*
X101985979Y-67811022D01*
X102050270Y-67736541D01*
X102126791Y-67642746D01*
X102209534Y-67537334D01*
X102292491Y-67427999D01*
X102369655Y-67322437D01*
X102435016Y-67228341D01*
X102452020Y-67202584D01*
X102607506Y-66943757D01*
X102744503Y-66676353D01*
X102859288Y-66409038D01*
X102948139Y-66150478D01*
X103007161Y-65910256D01*
X103026043Y-65763314D01*
X103034532Y-65588498D01*
X103033096Y-65398851D01*
X103022206Y-65207416D01*
X103002329Y-65027235D01*
X102973936Y-64871350D01*
X102969082Y-64851308D01*
X102874792Y-64543925D01*
X102745538Y-64234455D01*
X102579208Y-63918103D01*
X102498543Y-63783254D01*
X102400871Y-63639672D01*
X102357227Y-63590687D01*
X102305249Y-63532346D01*
X102204545Y-63456207D01*
X102091626Y-63406185D01*
X101959361Y-63377212D01*
X101920569Y-63372463D01*
X101752795Y-63341316D01*
X101611884Y-63283834D01*
X101490226Y-63195301D01*
X101380210Y-63071001D01*
X101338917Y-63011962D01*
X101299887Y-62949319D01*
X101284753Y-62908563D01*
X101297648Y-62885487D01*
X101342706Y-62875880D01*
X101424060Y-62875534D01*
X101471283Y-62877186D01*
X101659399Y-62884584D01*
X101540074Y-62804352D01*
X101464585Y-62756069D01*
X101369019Y-62698394D01*
X101270723Y-62641722D01*
X101243329Y-62626489D01*
X101159658Y-62579277D01*
X101103966Y-62542497D01*
X101066716Y-62506963D01*
X101038373Y-62463489D01*
X101009402Y-62402889D01*
X101008017Y-62399804D01*
X100972910Y-62317987D01*
X100941277Y-62238255D01*
X100923945Y-62189680D01*
X100897744Y-62132366D01*
X100855666Y-62094070D01*
X100805470Y-62069047D01*
X100712411Y-62032202D01*
X100629861Y-62005079D01*
X100566607Y-61990137D01*
X100531431Y-61989831D01*
X100528663Y-61991615D01*
X100529035Y-62016399D01*
X100541867Y-62070424D01*
X100564566Y-62143363D01*
X100572571Y-62166429D01*
X100598151Y-62242212D01*
X100615577Y-62301209D01*
X100621984Y-62333437D01*
X100621353Y-62336369D01*
X100598338Y-62335488D01*
X100544835Y-62325557D01*
X100471220Y-62308583D01*
X100449949Y-62303233D01*
X100130083Y-62241799D01*
X99809816Y-62221225D01*
X99488527Y-62241677D01*
X99165593Y-62303321D01*
X98840392Y-62406323D01*
X98512301Y-62550847D01*
X98180697Y-62737061D01*
X97844960Y-62965128D01*
X97780083Y-63013637D01*
X97684615Y-63087052D01*
X97592146Y-63159917D01*
X97512651Y-63224260D01*
X97456109Y-63272110D01*
X97452000Y-63275772D01*
X97356750Y-63361286D01*
X96680338Y-63361286D01*
X96679417Y-63360395D01*
X96869916Y-63178046D01*
X97198723Y-62884675D01*
X97534758Y-62626395D01*
X97876193Y-62403870D01*
X98221197Y-62217762D01*
X98567944Y-62068734D01*
X98914604Y-61957449D01*
X99259349Y-61884569D01*
X99600350Y-61850756D01*
X99935778Y-61856675D01*
X100263805Y-61902986D01*
X100341107Y-61920156D01*
X100422920Y-61938440D01*
X100470658Y-61945411D01*
X100490924Y-61941473D01*
X100491301Y-61929363D01*
X100481839Y-61896028D01*
X100466538Y-61833070D01*
X100448232Y-61752301D01*
X100442413Y-61725598D01*
X100427618Y-61645056D01*
X100417035Y-61556147D01*
X100410141Y-61450596D01*
X100406414Y-61320125D01*
X100406181Y-61284873D01*
X100761527Y-61284873D01*
X100776530Y-61548799D01*
X100815815Y-61800691D01*
X100855863Y-61957216D01*
X100893000Y-62079197D01*
X101188625Y-62228661D01*
X101411780Y-62345760D01*
X101598260Y-62453597D01*
X101751899Y-62555204D01*
X101876530Y-62653615D01*
X101975986Y-62751862D01*
X102054101Y-62852977D01*
X102114708Y-62959993D01*
X102115685Y-62962040D01*
X102153891Y-63037505D01*
X102185482Y-63083588D01*
X102219361Y-63110293D01*
X102262560Y-63127062D01*
X102318402Y-63139613D01*
X102357227Y-63140682D01*
X102362277Y-63138824D01*
X102386769Y-63111668D01*
X102426574Y-63054022D01*
X102477523Y-62972979D01*
X102535448Y-62875633D01*
X102596181Y-62769080D01*
X102655553Y-62660412D01*
X102709396Y-62556725D01*
X102735530Y-62503584D01*
X102853174Y-62235593D01*
X102939828Y-61983883D01*
X102997910Y-61738730D01*
X103029836Y-61490413D01*
X103038148Y-61286500D01*
X103035733Y-61149806D01*
X103027621Y-61010703D01*
X103015031Y-60887021D01*
X103007363Y-60836110D01*
X102940464Y-60553800D01*
X102837598Y-60259544D01*
X102701433Y-59958701D01*
X102534636Y-59656628D01*
X102339876Y-59358683D01*
X102140668Y-59095750D01*
X102074508Y-59015474D01*
X102013629Y-58943910D01*
X101965446Y-58889638D01*
X101940128Y-58863622D01*
X101894113Y-58821993D01*
X101820982Y-58905955D01*
X101569845Y-59215265D01*
X101348651Y-59531173D01*
X101159498Y-59849808D01*
X101004486Y-60167299D01*
X100885716Y-60479772D01*
X100806689Y-60776511D01*
X100771388Y-61022810D01*
X100761527Y-61284873D01*
X100406181Y-61284873D01*
X100405332Y-61156458D01*
X100405348Y-61138334D01*
X100407452Y-60954617D01*
X100414525Y-60800954D01*
X100428588Y-60665363D01*
X100451666Y-60535864D01*
X100485780Y-60400475D01*
X100532953Y-60247216D01*
X100578668Y-60111750D01*
X100699849Y-59809284D01*
X100856228Y-59498038D01*
X101043571Y-59184640D01*
X101257647Y-58875715D01*
X101494223Y-58577892D01*
X101714307Y-58333750D01*
X101896733Y-58143250D01*
X102118378Y-58371426D01*
X102382993Y-58665354D01*
X102621268Y-58973881D01*
X102831597Y-59293376D01*
X103012371Y-59620208D01*
X103161984Y-59950747D01*
X103278826Y-60281360D01*
X103361292Y-60608417D01*
X103407772Y-60928287D01*
X103416660Y-61237338D01*
X103413796Y-61297356D01*
X103374396Y-61627027D01*
X103297036Y-61965282D01*
X103183686Y-62306639D01*
X103036314Y-62645618D01*
X102856890Y-62976739D01*
X102748871Y-63148081D01*
X102602199Y-63369245D01*
X102670817Y-63459139D01*
X102807481Y-63657895D01*
X102940475Y-63888345D01*
X103065047Y-64139864D01*
X103176445Y-64401829D01*
X103269914Y-64663613D01*
X103340702Y-64914592D01*
X103359282Y-64998123D01*
X103383174Y-65145866D01*
X103400466Y-65316506D01*
X103410565Y-65496210D01*
X103412882Y-65671146D01*
X103406825Y-65827481D01*
X103398277Y-65911417D01*
X103347134Y-66185695D01*
X103268792Y-66474169D01*
X103167811Y-66763044D01*
X103048754Y-67038527D01*
X102981789Y-67170834D01*
X102850149Y-67398801D01*
X102695831Y-67635925D01*
X102526597Y-67871736D01*
X102350204Y-68095767D01*
X102174412Y-68297548D01*
X102056160Y-68419667D01*
X101894067Y-68578417D01*
X101893119Y-68577429D01*
X101715076Y-68391699D01*
X101485393Y-68136444D01*
G36*
X101514325Y-45339460D02*
G01*
X101608072Y-45342689D01*
X101680986Y-45349415D01*
X101743816Y-45360988D01*
X101807307Y-45378756D01*
X101865250Y-45398146D01*
X102107582Y-45502762D01*
X102320978Y-45638276D01*
X102505488Y-45804731D01*
X102661158Y-46002169D01*
X102775352Y-46203700D01*
X102846676Y-46385109D01*
X102900473Y-46590004D01*
X102934480Y-46804205D01*
X102946434Y-47013534D01*
X102934515Y-47200676D01*
X102886293Y-47437609D01*
X102811111Y-47665987D01*
X102712630Y-47878194D01*
X102594511Y-48066618D01*
X102460414Y-48223643D01*
X102428042Y-48254205D01*
X102359621Y-48306896D01*
X102297686Y-48329542D01*
X102232871Y-48321695D01*
X102155808Y-48282903D01*
X102090826Y-48238029D01*
X101992780Y-48160133D01*
X101931442Y-48093556D01*
X101905521Y-48030953D01*
X101913730Y-47964978D01*
X101954779Y-47888286D01*
X102015390Y-47808127D01*
X102153149Y-47611335D01*
X102249119Y-47409848D01*
X102303720Y-47202190D01*
X102317375Y-46986885D01*
X102299712Y-46811737D01*
X102249018Y-46626501D01*
X102164085Y-46452852D01*
X102050178Y-46297938D01*
X101912561Y-46168904D01*
X101756500Y-46072896D01*
X101754785Y-46072090D01*
X101698254Y-46047285D01*
X101647390Y-46030849D01*
X101591072Y-46021088D01*
X101518178Y-46016307D01*
X101417586Y-46014812D01*
X101378416Y-46014750D01*
X101268886Y-46015353D01*
X101190372Y-46018465D01*
X101131561Y-46026043D01*
X101081139Y-46040045D01*
X101027794Y-46062427D01*
X100985562Y-46082704D01*
X100821100Y-46186022D01*
X100683032Y-46320283D01*
X100573498Y-46481732D01*
X100494637Y-46666616D01*
X100448588Y-46871181D01*
X100436812Y-47045584D01*
X100442706Y-47191573D01*
X100463233Y-47325663D01*
X100501758Y-47463602D01*
X100557803Y-47611850D01*
X100596131Y-47711498D01*
X100617244Y-47786265D01*
X100624040Y-47848519D01*
X100622261Y-47887016D01*
X100596932Y-48006810D01*
X100548549Y-48102967D01*
X100481099Y-48167918D01*
X100471234Y-48173624D01*
X100453759Y-48182223D01*
X100434114Y-48188829D01*
X100408435Y-48193212D01*
X100372862Y-48195142D01*
X100323532Y-48194391D01*
X100256585Y-48190727D01*
X100168159Y-48183922D01*
X100054391Y-48173745D01*
X99911421Y-48159968D01*
X99735387Y-48142360D01*
X99522427Y-48120691D01*
X99440474Y-48112312D01*
X99195208Y-48087234D01*
X98988558Y-48066028D01*
X98817033Y-48048180D01*
X98677141Y-48033178D01*
X98565393Y-48020510D01*
X98478297Y-48009662D01*
X98412364Y-48000122D01*
X98364102Y-47991377D01*
X98330021Y-47982914D01*
X98306630Y-47974222D01*
X98290440Y-47964787D01*
X98277958Y-47954096D01*
X98265695Y-47941637D01*
X98263520Y-47939445D01*
X98213999Y-47889925D01*
X98213999Y-46821226D01*
X98214000Y-45752528D01*
X98261864Y-45696882D01*
X98320528Y-45655785D01*
X98403055Y-45631683D01*
X98497604Y-45624138D01*
X98592331Y-45632715D01*
X98675394Y-45656977D01*
X98734950Y-45696488D01*
X98748620Y-45714821D01*
X98756093Y-45740903D01*
X98762614Y-45793005D01*
X98768295Y-45873757D01*
X98773246Y-45985786D01*
X98777579Y-46131723D01*
X98781405Y-46314196D01*
X98784836Y-46535834D01*
X98785500Y-46586250D01*
X98796083Y-47411750D01*
X99388750Y-47478482D01*
X99541997Y-47495584D01*
X99680835Y-47510785D01*
X99799906Y-47523521D01*
X99893857Y-47533230D01*
X99957332Y-47539350D01*
X99984976Y-47541318D01*
X99985720Y-47541206D01*
X99981186Y-47520952D01*
X99965223Y-47471322D01*
X99941166Y-47402618D01*
X99938453Y-47395124D01*
X99881886Y-47180978D01*
X99860765Y-46946880D01*
X99868910Y-46747327D01*
X99911704Y-46490232D01*
X99989819Y-46250543D01*
X100100869Y-46031395D01*
X100242467Y-45835928D01*
X100412226Y-45667279D01*
X100607761Y-45528584D01*
X100826684Y-45422981D01*
X100894655Y-45398847D01*
X100972956Y-45374251D01*
X101039149Y-45357282D01*
X101104371Y-45346579D01*
X101179762Y-45340778D01*
X101276458Y-45338519D01*
X101389000Y-45338381D01*
X101514325Y-45339460D01*
G37*
X101514325Y-45339460D02*
X101608072Y-45342689D01*
X101680986Y-45349415D01*
X101743816Y-45360988D01*
X101807307Y-45378756D01*
X101865250Y-45398146D01*
X102107582Y-45502762D01*
X102320978Y-45638276D01*
X102505488Y-45804731D01*
X102661158Y-46002169D01*
X102775352Y-46203700D01*
X102846676Y-46385109D01*
X102900473Y-46590004D01*
X102934480Y-46804205D01*
X102946434Y-47013534D01*
X102934515Y-47200676D01*
X102886293Y-47437609D01*
X102811111Y-47665987D01*
X102712630Y-47878194D01*
X102594511Y-48066618D01*
X102460414Y-48223643D01*
X102428042Y-48254205D01*
X102359621Y-48306896D01*
X102297686Y-48329542D01*
X102232871Y-48321695D01*
X102155808Y-48282903D01*
X102090826Y-48238029D01*
X101992780Y-48160133D01*
X101931442Y-48093556D01*
X101905521Y-48030953D01*
X101913730Y-47964978D01*
X101954779Y-47888286D01*
X102015390Y-47808127D01*
X102153149Y-47611335D01*
X102249119Y-47409848D01*
X102303720Y-47202190D01*
X102317375Y-46986885D01*
X102299712Y-46811737D01*
X102249018Y-46626501D01*
X102164085Y-46452852D01*
X102050178Y-46297938D01*
X101912561Y-46168904D01*
X101756500Y-46072896D01*
X101754785Y-46072090D01*
X101698254Y-46047285D01*
X101647390Y-46030849D01*
X101591072Y-46021088D01*
X101518178Y-46016307D01*
X101417586Y-46014812D01*
X101378416Y-46014750D01*
X101268886Y-46015353D01*
X101190372Y-46018465D01*
X101131561Y-46026043D01*
X101081139Y-46040045D01*
X101027794Y-46062427D01*
X100985562Y-46082704D01*
X100821100Y-46186022D01*
X100683032Y-46320283D01*
X100573498Y-46481732D01*
X100494637Y-46666616D01*
X100448588Y-46871181D01*
X100436812Y-47045584D01*
X100442706Y-47191573D01*
X100463233Y-47325663D01*
X100501758Y-47463602D01*
X100557803Y-47611850D01*
X100596131Y-47711498D01*
X100617244Y-47786265D01*
X100624040Y-47848519D01*
X100622261Y-47887016D01*
X100596932Y-48006810D01*
X100548549Y-48102967D01*
X100481099Y-48167918D01*
X100471234Y-48173624D01*
X100453759Y-48182223D01*
X100434114Y-48188829D01*
X100408435Y-48193212D01*
X100372862Y-48195142D01*
X100323532Y-48194391D01*
X100256585Y-48190727D01*
X100168159Y-48183922D01*
X100054391Y-48173745D01*
X99911421Y-48159968D01*
X99735387Y-48142360D01*
X99522427Y-48120691D01*
X99440474Y-48112312D01*
X99195208Y-48087234D01*
X98988558Y-48066028D01*
X98817033Y-48048180D01*
X98677141Y-48033178D01*
X98565393Y-48020510D01*
X98478297Y-48009662D01*
X98412364Y-48000122D01*
X98364102Y-47991377D01*
X98330021Y-47982914D01*
X98306630Y-47974222D01*
X98290440Y-47964787D01*
X98277958Y-47954096D01*
X98265695Y-47941637D01*
X98263520Y-47939445D01*
X98213999Y-47889925D01*
X98213999Y-46821226D01*
X98214000Y-45752528D01*
X98261864Y-45696882D01*
X98320528Y-45655785D01*
X98403055Y-45631683D01*
X98497604Y-45624138D01*
X98592331Y-45632715D01*
X98675394Y-45656977D01*
X98734950Y-45696488D01*
X98748620Y-45714821D01*
X98756093Y-45740903D01*
X98762614Y-45793005D01*
X98768295Y-45873757D01*
X98773246Y-45985786D01*
X98777579Y-46131723D01*
X98781405Y-46314196D01*
X98784836Y-46535834D01*
X98785500Y-46586250D01*
X98796083Y-47411750D01*
X99388750Y-47478482D01*
X99541997Y-47495584D01*
X99680835Y-47510785D01*
X99799906Y-47523521D01*
X99893857Y-47533230D01*
X99957332Y-47539350D01*
X99984976Y-47541318D01*
X99985720Y-47541206D01*
X99981186Y-47520952D01*
X99965223Y-47471322D01*
X99941166Y-47402618D01*
X99938453Y-47395124D01*
X99881886Y-47180978D01*
X99860765Y-46946880D01*
X99868910Y-46747327D01*
X99911704Y-46490232D01*
X99989819Y-46250543D01*
X100100869Y-46031395D01*
X100242467Y-45835928D01*
X100412226Y-45667279D01*
X100607761Y-45528584D01*
X100826684Y-45422981D01*
X100894655Y-45398847D01*
X100972956Y-45374251D01*
X101039149Y-45357282D01*
X101104371Y-45346579D01*
X101179762Y-45340778D01*
X101276458Y-45338519D01*
X101389000Y-45338381D01*
X101514325Y-45339460D01*
G36*
X101267380Y-44614523D02*
G01*
X101052884Y-44547005D01*
X100845116Y-44443340D01*
X100647692Y-44303797D01*
X100464226Y-44128647D01*
X100430846Y-44090903D01*
X100373257Y-44025568D01*
X100325708Y-43974551D01*
X100294969Y-43944971D01*
X100287735Y-43940417D01*
X100268771Y-43955565D01*
X100230542Y-43995772D01*
X100180412Y-44053186D01*
X100166366Y-44069927D01*
X100015158Y-44220453D01*
X99844086Y-44335373D01*
X99657389Y-44413882D01*
X99459310Y-44455173D01*
X99357000Y-44456801D01*
X99254090Y-44458440D01*
X99045971Y-44422876D01*
X98839193Y-44347676D01*
X98801483Y-44329384D01*
X98657379Y-44237081D01*
X98519828Y-44112352D01*
X98398213Y-43965010D01*
X98303915Y-43808906D01*
X98239857Y-43666726D01*
X98193726Y-43528717D01*
X98163309Y-43383885D01*
X98146393Y-43221237D01*
X98140764Y-43029781D01*
X98140754Y-42998500D01*
X98141740Y-42953667D01*
X98706576Y-42953667D01*
X98710149Y-43129166D01*
X98741055Y-43299152D01*
X98799633Y-43455786D01*
X98886223Y-43591226D01*
X98904384Y-43612278D01*
X99019743Y-43715254D01*
X99147688Y-43779811D01*
X99294794Y-43808837D01*
X99357000Y-43811152D01*
X99476079Y-43802126D01*
X99584021Y-43773046D01*
X99683575Y-43721008D01*
X99777496Y-43643107D01*
X99868535Y-43536437D01*
X99931814Y-43440143D01*
X100568483Y-43440143D01*
X100666533Y-43555599D01*
X100823560Y-43715604D01*
X100990348Y-43839622D01*
X101163524Y-43927156D01*
X101339715Y-43977709D01*
X101515550Y-43990783D01*
X101687655Y-43965882D01*
X101852659Y-43902508D01*
X102007188Y-43800164D01*
X102052928Y-43759988D01*
X102184124Y-43609205D01*
X102280464Y-43437160D01*
X102340546Y-43248535D01*
X102362969Y-43048009D01*
X102346330Y-42840263D01*
X102339347Y-42803751D01*
X102294439Y-42657483D01*
X102224011Y-42510542D01*
X102137124Y-42380423D01*
X102095017Y-42331966D01*
X101969596Y-42227519D01*
X101827609Y-42154505D01*
X101676733Y-42114667D01*
X101524642Y-42109750D01*
X101379014Y-42141499D01*
X101335654Y-42159397D01*
X101260018Y-42201426D01*
X101189223Y-42256584D01*
X101120739Y-42328701D01*
X101052034Y-42421607D01*
X100980580Y-42539131D01*
X100903847Y-42685102D01*
X100819304Y-42863351D01*
X100724421Y-43077708D01*
X100715843Y-43097614D01*
X100568483Y-43440143D01*
X99931814Y-43440143D01*
X99959445Y-43398096D01*
X100052978Y-43225178D01*
X100151887Y-43014778D01*
X100186570Y-42935715D01*
X100233572Y-42826257D01*
X100274133Y-42730386D01*
X100305463Y-42654813D01*
X100324773Y-42606246D01*
X100329692Y-42591534D01*
X100314852Y-42571444D01*
X100275176Y-42534246D01*
X100225066Y-42492680D01*
X100020985Y-42353094D01*
X99815380Y-42255785D01*
X99608170Y-42200723D01*
X99452250Y-42187138D01*
X99287803Y-42196954D01*
X99149821Y-42232647D01*
X99029078Y-42297324D01*
X98958833Y-42353340D01*
X98856464Y-42472492D01*
X98780073Y-42617490D01*
X98729997Y-42780495D01*
X98706576Y-42953667D01*
X98141740Y-42953667D01*
X98144639Y-42821871D01*
X98156993Y-42674750D01*
X98180467Y-42544717D01*
X98217710Y-42419349D01*
X98271373Y-42286225D01*
X98310938Y-42200830D01*
X98423671Y-42010136D01*
X98564113Y-41847344D01*
X98728301Y-41715672D01*
X98912274Y-41618336D01*
X99098750Y-41561220D01*
X99242919Y-41542671D01*
X99405542Y-41539783D01*
X99565893Y-41552186D01*
X99673147Y-41571526D01*
X99791044Y-41608083D01*
X99925104Y-41662872D01*
X100066351Y-41730899D01*
X100205812Y-41807171D01*
X100334510Y-41886696D01*
X100443473Y-41964480D01*
X100523724Y-42035530D01*
X100540064Y-42053824D01*
X100558296Y-42069812D01*
X100577301Y-42065384D01*
X100604328Y-42035244D01*
X100644198Y-41977729D01*
X100722644Y-41874769D01*
X100819464Y-41769136D01*
X100923659Y-41671407D01*
X101024231Y-41592156D01*
X101084275Y-41554572D01*
X101271593Y-41477023D01*
X101470199Y-41437476D01*
X101674657Y-41435045D01*
X101879531Y-41468842D01*
X102079388Y-41537979D01*
X102268792Y-41641569D01*
X102439243Y-41775857D01*
X102606255Y-41960172D01*
X102741818Y-42171220D01*
X102844359Y-42405745D01*
X102912304Y-42660488D01*
X102933383Y-42799347D01*
X102945450Y-42915731D01*
X102950965Y-43008978D01*
X102949821Y-43096053D01*
X102941907Y-43193920D01*
X102930203Y-43294834D01*
X102885120Y-43523311D01*
X102809207Y-43747264D01*
X102706903Y-43957031D01*
X102582649Y-44142952D01*
X102493277Y-44245356D01*
X102314303Y-44400412D01*
X102120374Y-44517696D01*
X101915103Y-44597478D01*
X101702104Y-44640030D01*
X101515550Y-44644834D01*
X101484992Y-44645621D01*
X101267380Y-44614523D01*
G37*
X101267380Y-44614523D02*
X101052884Y-44547005D01*
X100845116Y-44443340D01*
X100647692Y-44303797D01*
X100464226Y-44128647D01*
X100430846Y-44090903D01*
X100373257Y-44025568D01*
X100325708Y-43974551D01*
X100294969Y-43944971D01*
X100287735Y-43940417D01*
X100268771Y-43955565D01*
X100230542Y-43995772D01*
X100180412Y-44053186D01*
X100166366Y-44069927D01*
X100015158Y-44220453D01*
X99844086Y-44335373D01*
X99657389Y-44413882D01*
X99459310Y-44455173D01*
X99357000Y-44456801D01*
X99254090Y-44458440D01*
X99045971Y-44422876D01*
X98839193Y-44347676D01*
X98801483Y-44329384D01*
X98657379Y-44237081D01*
X98519828Y-44112352D01*
X98398213Y-43965010D01*
X98303915Y-43808906D01*
X98239857Y-43666726D01*
X98193726Y-43528717D01*
X98163309Y-43383885D01*
X98146393Y-43221237D01*
X98140764Y-43029781D01*
X98140754Y-42998500D01*
X98141740Y-42953667D01*
X98706576Y-42953667D01*
X98710149Y-43129166D01*
X98741055Y-43299152D01*
X98799633Y-43455786D01*
X98886223Y-43591226D01*
X98904384Y-43612278D01*
X99019743Y-43715254D01*
X99147688Y-43779811D01*
X99294794Y-43808837D01*
X99357000Y-43811152D01*
X99476079Y-43802126D01*
X99584021Y-43773046D01*
X99683575Y-43721008D01*
X99777496Y-43643107D01*
X99868535Y-43536437D01*
X99931814Y-43440143D01*
X100568483Y-43440143D01*
X100666533Y-43555599D01*
X100823560Y-43715604D01*
X100990348Y-43839622D01*
X101163524Y-43927156D01*
X101339715Y-43977709D01*
X101515550Y-43990783D01*
X101687655Y-43965882D01*
X101852659Y-43902508D01*
X102007188Y-43800164D01*
X102052928Y-43759988D01*
X102184124Y-43609205D01*
X102280464Y-43437160D01*
X102340546Y-43248535D01*
X102362969Y-43048009D01*
X102346330Y-42840263D01*
X102339347Y-42803751D01*
X102294439Y-42657483D01*
X102224011Y-42510542D01*
X102137124Y-42380423D01*
X102095017Y-42331966D01*
X101969596Y-42227519D01*
X101827609Y-42154505D01*
X101676733Y-42114667D01*
X101524642Y-42109750D01*
X101379014Y-42141499D01*
X101335654Y-42159397D01*
X101260018Y-42201426D01*
X101189223Y-42256584D01*
X101120739Y-42328701D01*
X101052034Y-42421607D01*
X100980580Y-42539131D01*
X100903847Y-42685102D01*
X100819304Y-42863351D01*
X100724421Y-43077708D01*
X100715843Y-43097614D01*
X100568483Y-43440143D01*
X99931814Y-43440143D01*
X99959445Y-43398096D01*
X100052978Y-43225178D01*
X100151887Y-43014778D01*
X100186570Y-42935715D01*
X100233572Y-42826257D01*
X100274133Y-42730386D01*
X100305463Y-42654813D01*
X100324773Y-42606246D01*
X100329692Y-42591534D01*
X100314852Y-42571444D01*
X100275176Y-42534246D01*
X100225066Y-42492680D01*
X100020985Y-42353094D01*
X99815380Y-42255785D01*
X99608170Y-42200723D01*
X99452250Y-42187138D01*
X99287803Y-42196954D01*
X99149821Y-42232647D01*
X99029078Y-42297324D01*
X98958833Y-42353340D01*
X98856464Y-42472492D01*
X98780073Y-42617490D01*
X98729997Y-42780495D01*
X98706576Y-42953667D01*
X98141740Y-42953667D01*
X98144639Y-42821871D01*
X98156993Y-42674750D01*
X98180467Y-42544717D01*
X98217710Y-42419349D01*
X98271373Y-42286225D01*
X98310938Y-42200830D01*
X98423671Y-42010136D01*
X98564113Y-41847344D01*
X98728301Y-41715672D01*
X98912274Y-41618336D01*
X99098750Y-41561220D01*
X99242919Y-41542671D01*
X99405542Y-41539783D01*
X99565893Y-41552186D01*
X99673147Y-41571526D01*
X99791044Y-41608083D01*
X99925104Y-41662872D01*
X100066351Y-41730899D01*
X100205812Y-41807171D01*
X100334510Y-41886696D01*
X100443473Y-41964480D01*
X100523724Y-42035530D01*
X100540064Y-42053824D01*
X100558296Y-42069812D01*
X100577301Y-42065384D01*
X100604328Y-42035244D01*
X100644198Y-41977729D01*
X100722644Y-41874769D01*
X100819464Y-41769136D01*
X100923659Y-41671407D01*
X101024231Y-41592156D01*
X101084275Y-41554572D01*
X101271593Y-41477023D01*
X101470199Y-41437476D01*
X101674657Y-41435045D01*
X101879531Y-41468842D01*
X102079388Y-41537979D01*
X102268792Y-41641569D01*
X102439243Y-41775857D01*
X102606255Y-41960172D01*
X102741818Y-42171220D01*
X102844359Y-42405745D01*
X102912304Y-42660488D01*
X102933383Y-42799347D01*
X102945450Y-42915731D01*
X102950965Y-43008978D01*
X102949821Y-43096053D01*
X102941907Y-43193920D01*
X102930203Y-43294834D01*
X102885120Y-43523311D01*
X102809207Y-43747264D01*
X102706903Y-43957031D01*
X102582649Y-44142952D01*
X102493277Y-44245356D01*
X102314303Y-44400412D01*
X102120374Y-44517696D01*
X101915103Y-44597478D01*
X101702104Y-44640030D01*
X101515550Y-44644834D01*
X101484992Y-44645621D01*
X101267380Y-44614523D01*
G36*
X102785873Y-52126583D02*
G01*
X102855688Y-52146577D01*
X102897908Y-52187687D01*
X102919481Y-52256284D01*
X102926974Y-52346329D01*
X102926662Y-52434689D01*
X102920763Y-52518409D01*
X102912248Y-52571212D01*
X102857142Y-52718862D01*
X102771872Y-52854270D01*
X102664149Y-52967283D01*
X102555480Y-53040887D01*
X102524150Y-53056657D01*
X102493050Y-53070594D01*
X102459495Y-53082814D01*
X102420799Y-53093428D01*
X102374280Y-53102551D01*
X102317251Y-53110297D01*
X102247029Y-53116778D01*
X102160929Y-53122109D01*
X102056267Y-53126402D01*
X101930358Y-53129771D01*
X101780517Y-53132331D01*
X101604060Y-53134193D01*
X101398302Y-53135473D01*
X101160559Y-53136283D01*
X100888146Y-53136736D01*
X100578379Y-53136947D01*
X100281990Y-53137021D01*
X99945335Y-53137000D01*
X99648503Y-53136798D01*
X99388981Y-53136375D01*
X99164261Y-53135694D01*
X98971830Y-53134716D01*
X98809177Y-53133402D01*
X98673793Y-53131714D01*
X98563166Y-53129614D01*
X98474785Y-53127062D01*
X98406140Y-53124022D01*
X98354719Y-53120454D01*
X98318011Y-53116320D01*
X98293507Y-53111581D01*
X98279013Y-53106367D01*
X98238116Y-53080636D01*
X98212545Y-53048282D01*
X98198824Y-52999426D01*
X98193473Y-52924190D01*
X98192833Y-52861616D01*
X98195217Y-52778170D01*
X98204715Y-52722808D01*
X98224844Y-52681436D01*
X98243909Y-52656972D01*
X98294986Y-52597584D01*
X100260034Y-52587000D01*
X100594065Y-52585161D01*
X100888373Y-52583422D01*
X101145570Y-52581723D01*
X101368268Y-52580001D01*
X101559077Y-52578195D01*
X101720608Y-52576244D01*
X101855473Y-52574086D01*
X101966283Y-52571659D01*
X102055648Y-52568902D01*
X102126180Y-52565753D01*
X102180489Y-52562150D01*
X102221188Y-52558032D01*
X102250887Y-52553337D01*
X102272196Y-52548004D01*
X102287728Y-52541970D01*
X102293516Y-52539017D01*
X102365207Y-52479553D01*
X102412282Y-52390850D01*
X102432925Y-52303507D01*
X102453684Y-52235176D01*
X102487675Y-52176728D01*
X102492518Y-52171215D01*
X102524547Y-52143642D01*
X102563748Y-52128466D01*
X102623216Y-52122231D01*
X102681511Y-52121334D01*
X102785873Y-52126583D01*
G37*
X102785873Y-52126583D02*
X102855688Y-52146577D01*
X102897908Y-52187687D01*
X102919481Y-52256284D01*
X102926974Y-52346329D01*
X102926662Y-52434689D01*
X102920763Y-52518409D01*
X102912248Y-52571212D01*
X102857142Y-52718862D01*
X102771872Y-52854270D01*
X102664149Y-52967283D01*
X102555480Y-53040887D01*
X102524150Y-53056657D01*
X102493050Y-53070594D01*
X102459495Y-53082814D01*
X102420799Y-53093428D01*
X102374280Y-53102551D01*
X102317251Y-53110297D01*
X102247029Y-53116778D01*
X102160929Y-53122109D01*
X102056267Y-53126402D01*
X101930358Y-53129771D01*
X101780517Y-53132331D01*
X101604060Y-53134193D01*
X101398302Y-53135473D01*
X101160559Y-53136283D01*
X100888146Y-53136736D01*
X100578379Y-53136947D01*
X100281990Y-53137021D01*
X99945335Y-53137000D01*
X99648503Y-53136798D01*
X99388981Y-53136375D01*
X99164261Y-53135694D01*
X98971830Y-53134716D01*
X98809177Y-53133402D01*
X98673793Y-53131714D01*
X98563166Y-53129614D01*
X98474785Y-53127062D01*
X98406140Y-53124022D01*
X98354719Y-53120454D01*
X98318011Y-53116320D01*
X98293507Y-53111581D01*
X98279013Y-53106367D01*
X98238116Y-53080636D01*
X98212545Y-53048282D01*
X98198824Y-52999426D01*
X98193473Y-52924190D01*
X98192833Y-52861616D01*
X98195217Y-52778170D01*
X98204715Y-52722808D01*
X98224844Y-52681436D01*
X98243909Y-52656972D01*
X98294986Y-52597584D01*
X100260034Y-52587000D01*
X100594065Y-52585161D01*
X100888373Y-52583422D01*
X101145570Y-52581723D01*
X101368268Y-52580001D01*
X101559077Y-52578195D01*
X101720608Y-52576244D01*
X101855473Y-52574086D01*
X101966283Y-52571659D01*
X102055648Y-52568902D01*
X102126180Y-52565753D01*
X102180489Y-52562150D01*
X102221188Y-52558032D01*
X102250887Y-52553337D01*
X102272196Y-52548004D01*
X102287728Y-52541970D01*
X102293516Y-52539017D01*
X102365207Y-52479553D01*
X102412282Y-52390850D01*
X102432925Y-52303507D01*
X102453684Y-52235176D01*
X102487675Y-52176728D01*
X102492518Y-52171215D01*
X102524547Y-52143642D01*
X102563748Y-52128466D01*
X102623216Y-52122231D01*
X102681511Y-52121334D01*
X102785873Y-52126583D01*
G36*
X102737653Y-55109680D02*
G01*
X102820123Y-55140462D01*
X102843028Y-55156909D01*
X102902416Y-55207983D01*
X102908209Y-56438619D01*
X102914001Y-57669255D01*
X102789256Y-57794000D01*
X98296742Y-57794000D01*
X98244787Y-57742046D01*
X98217565Y-57709900D01*
X98201868Y-57673221D01*
X98194643Y-57619637D01*
X98192836Y-57536777D01*
X98192833Y-57531560D01*
X98194699Y-57445307D01*
X98202331Y-57388296D01*
X98218776Y-57347524D01*
X98243912Y-57313639D01*
X98294991Y-57254250D01*
X100349404Y-57248549D01*
X102403816Y-57242848D01*
X102409699Y-56225412D01*
X102415583Y-55207977D01*
X102474971Y-55156905D01*
X102548828Y-55117902D01*
X102641805Y-55102160D01*
X102737653Y-55109680D01*
G37*
X102737653Y-55109680D02*
X102820123Y-55140462D01*
X102843028Y-55156909D01*
X102902416Y-55207983D01*
X102908209Y-56438619D01*
X102914001Y-57669255D01*
X102789256Y-57794000D01*
X98296742Y-57794000D01*
X98244787Y-57742046D01*
X98217565Y-57709900D01*
X98201868Y-57673221D01*
X98194643Y-57619637D01*
X98192836Y-57536777D01*
X98192833Y-57531560D01*
X98194699Y-57445307D01*
X98202331Y-57388296D01*
X98218776Y-57347524D01*
X98243912Y-57313639D01*
X98294991Y-57254250D01*
X100349404Y-57248549D01*
X102403816Y-57242848D01*
X102409699Y-56225412D01*
X102415583Y-55207977D01*
X102474971Y-55156905D01*
X102548828Y-55117902D01*
X102641805Y-55102160D01*
X102737653Y-55109680D01*
G36*
X102842191Y-54140199D02*
G01*
X102874167Y-54172516D01*
X102892834Y-54209289D01*
X102902569Y-54263696D01*
X102907192Y-54335990D01*
X102906081Y-54444274D01*
X102890961Y-54518240D01*
X102882070Y-54537380D01*
X102839356Y-54584335D01*
X102783341Y-54616755D01*
X102751300Y-54621859D01*
X102685655Y-54626298D01*
X102585313Y-54630091D01*
X102449177Y-54633252D01*
X102276152Y-54635800D01*
X102065142Y-54637748D01*
X101815051Y-54639115D01*
X101524785Y-54639916D01*
X101205244Y-54640167D01*
X100903776Y-54640144D01*
X100641785Y-54639941D01*
X100416416Y-54639361D01*
X100224813Y-54638205D01*
X100064119Y-54636273D01*
X99931480Y-54633368D01*
X99824039Y-54629291D01*
X99738941Y-54623843D01*
X99673329Y-54616826D01*
X99624349Y-54608040D01*
X99589143Y-54597288D01*
X99564857Y-54584371D01*
X99548634Y-54569090D01*
X99537618Y-54551247D01*
X99528954Y-54530642D01*
X99526198Y-54523396D01*
X99514618Y-54471767D01*
X99506979Y-54397127D01*
X99505166Y-54340828D01*
X99507723Y-54265176D01*
X99518886Y-54215703D01*
X99543898Y-54176389D01*
X99567038Y-54151706D01*
X99628910Y-54089834D01*
X102783639Y-54089834D01*
X102842191Y-54140199D01*
G37*
X102842191Y-54140199D02*
X102874167Y-54172516D01*
X102892834Y-54209289D01*
X102902569Y-54263696D01*
X102907192Y-54335990D01*
X102906081Y-54444274D01*
X102890961Y-54518240D01*
X102882070Y-54537380D01*
X102839356Y-54584335D01*
X102783341Y-54616755D01*
X102751300Y-54621859D01*
X102685655Y-54626298D01*
X102585313Y-54630091D01*
X102449177Y-54633252D01*
X102276152Y-54635800D01*
X102065142Y-54637748D01*
X101815051Y-54639115D01*
X101524785Y-54639916D01*
X101205244Y-54640167D01*
X100903776Y-54640144D01*
X100641785Y-54639941D01*
X100416416Y-54639361D01*
X100224813Y-54638205D01*
X100064119Y-54636273D01*
X99931480Y-54633368D01*
X99824039Y-54629291D01*
X99738941Y-54623843D01*
X99673329Y-54616826D01*
X99624349Y-54608040D01*
X99589143Y-54597288D01*
X99564857Y-54584371D01*
X99548634Y-54569090D01*
X99537618Y-54551247D01*
X99528954Y-54530642D01*
X99526198Y-54523396D01*
X99514618Y-54471767D01*
X99506979Y-54397127D01*
X99505166Y-54340828D01*
X99507723Y-54265176D01*
X99518886Y-54215703D01*
X99543898Y-54176389D01*
X99567038Y-54151706D01*
X99628910Y-54089834D01*
X102783639Y-54089834D01*
X102842191Y-54140199D01*
G36*
X99836242Y-60919888D02*
G01*
X99880723Y-60958132D01*
X99939093Y-61012852D01*
X100004008Y-61076670D01*
X100068125Y-61142206D01*
X100124102Y-61202082D01*
X100164595Y-61248918D01*
X100182262Y-61275335D01*
X100182500Y-61276827D01*
X100168291Y-61299302D01*
X100129665Y-61344522D01*
X100072625Y-61405790D01*
X100007432Y-61472176D01*
X99936812Y-61540718D01*
X99875999Y-61596564D01*
X99831721Y-61633743D01*
X99811173Y-61646334D01*
X99787924Y-61631946D01*
X99743442Y-61593703D01*
X99685073Y-61538983D01*
X99620158Y-61475165D01*
X99556041Y-61409628D01*
X99500064Y-61349753D01*
X99459571Y-61302917D01*
X99441904Y-61276499D01*
X99441666Y-61275008D01*
X99456054Y-61251758D01*
X99494297Y-61207277D01*
X99549017Y-61148907D01*
X99612835Y-61083992D01*
X99678372Y-61019875D01*
X99738247Y-60963898D01*
X99785083Y-60923405D01*
X99811501Y-60905738D01*
X99812992Y-60905500D01*
X99836242Y-60919888D01*
G37*
X99836242Y-60919888D02*
X99880723Y-60958132D01*
X99939093Y-61012852D01*
X100004008Y-61076670D01*
X100068125Y-61142206D01*
X100124102Y-61202082D01*
X100164595Y-61248918D01*
X100182262Y-61275335D01*
X100182500Y-61276827D01*
X100168291Y-61299302D01*
X100129665Y-61344522D01*
X100072625Y-61405790D01*
X100007432Y-61472176D01*
X99936812Y-61540718D01*
X99875999Y-61596564D01*
X99831721Y-61633743D01*
X99811173Y-61646334D01*
X99787924Y-61631946D01*
X99743442Y-61593703D01*
X99685073Y-61538983D01*
X99620158Y-61475165D01*
X99556041Y-61409628D01*
X99500064Y-61349753D01*
X99459571Y-61302917D01*
X99441904Y-61276499D01*
X99441666Y-61275008D01*
X99456054Y-61251758D01*
X99494297Y-61207277D01*
X99549017Y-61148907D01*
X99612835Y-61083992D01*
X99678372Y-61019875D01*
X99738247Y-60963898D01*
X99785083Y-60923405D01*
X99811501Y-60905738D01*
X99812992Y-60905500D01*
X99836242Y-60919888D01*
G36*
X99837258Y-60263740D02*
G01*
X99881402Y-60301483D01*
X99937456Y-60354345D01*
X99997262Y-60414112D01*
X100052663Y-60472567D01*
X100095503Y-60521494D01*
X100117623Y-60552678D01*
X100119000Y-60557349D01*
X100104838Y-60580562D01*
X100066804Y-60625475D01*
X100011569Y-60684480D01*
X99975593Y-60720860D01*
X99911541Y-60782344D01*
X99857421Y-60830467D01*
X99820897Y-60858607D01*
X99810984Y-60863167D01*
X99786907Y-60848761D01*
X99742763Y-60811018D01*
X99686710Y-60758156D01*
X99626904Y-60698389D01*
X99571503Y-60639934D01*
X99528663Y-60591007D01*
X99506543Y-60559823D01*
X99505166Y-60555152D01*
X99519573Y-60531075D01*
X99557315Y-60486931D01*
X99610177Y-60430878D01*
X99669944Y-60371072D01*
X99728399Y-60315670D01*
X99777326Y-60272831D01*
X99808510Y-60250710D01*
X99813182Y-60249334D01*
X99837258Y-60263740D01*
G37*
X99837258Y-60263740D02*
X99881402Y-60301483D01*
X99937456Y-60354345D01*
X99997262Y-60414112D01*
X100052663Y-60472567D01*
X100095503Y-60521494D01*
X100117623Y-60552678D01*
X100119000Y-60557349D01*
X100104838Y-60580562D01*
X100066804Y-60625475D01*
X100011569Y-60684480D01*
X99975593Y-60720860D01*
X99911541Y-60782344D01*
X99857421Y-60830467D01*
X99820897Y-60858607D01*
X99810984Y-60863167D01*
X99786907Y-60848761D01*
X99742763Y-60811018D01*
X99686710Y-60758156D01*
X99626904Y-60698389D01*
X99571503Y-60639934D01*
X99528663Y-60591007D01*
X99506543Y-60559823D01*
X99505166Y-60555152D01*
X99519573Y-60531075D01*
X99557315Y-60486931D01*
X99610177Y-60430878D01*
X99669944Y-60371072D01*
X99728399Y-60315670D01*
X99777326Y-60272831D01*
X99808510Y-60250710D01*
X99813182Y-60249334D01*
X99837258Y-60263740D01*
G36*
X99852903Y-59734535D02*
G01*
X99899729Y-59771449D01*
X99954952Y-59821623D01*
X100008990Y-59875772D01*
X100052262Y-59924613D01*
X100075188Y-59958859D01*
X100076666Y-59964972D01*
X100062558Y-59989195D01*
X100025326Y-60033506D01*
X99972608Y-60088911D01*
X99964876Y-60096599D01*
X99906360Y-60150381D01*
X99855881Y-60189670D01*
X99823412Y-60206798D01*
X99821278Y-60207000D01*
X99792429Y-60192633D01*
X99745603Y-60155719D01*
X99690381Y-60105545D01*
X99636343Y-60051395D01*
X99593070Y-60002555D01*
X99570144Y-59968309D01*
X99568666Y-59962195D01*
X99583622Y-59934627D01*
X99622055Y-59889853D01*
X99674311Y-59837020D01*
X99730737Y-59785278D01*
X99781681Y-59743775D01*
X99817489Y-59721657D01*
X99824055Y-59720167D01*
X99852903Y-59734535D01*
G37*
X99852903Y-59734535D02*
X99899729Y-59771449D01*
X99954952Y-59821623D01*
X100008990Y-59875772D01*
X100052262Y-59924613D01*
X100075188Y-59958859D01*
X100076666Y-59964972D01*
X100062558Y-59989195D01*
X100025326Y-60033506D01*
X99972608Y-60088911D01*
X99964876Y-60096599D01*
X99906360Y-60150381D01*
X99855881Y-60189670D01*
X99823412Y-60206798D01*
X99821278Y-60207000D01*
X99792429Y-60192633D01*
X99745603Y-60155719D01*
X99690381Y-60105545D01*
X99636343Y-60051395D01*
X99593070Y-60002555D01*
X99570144Y-59968309D01*
X99568666Y-59962195D01*
X99583622Y-59934627D01*
X99622055Y-59889853D01*
X99674311Y-59837020D01*
X99730737Y-59785278D01*
X99781681Y-59743775D01*
X99817489Y-59721657D01*
X99824055Y-59720167D01*
X99852903Y-59734535D01*
G36*
X99244592Y-59671074D02*
G01*
X99288736Y-59708816D01*
X99344789Y-59761678D01*
X99404595Y-59821445D01*
X99459996Y-59879900D01*
X99502836Y-59928827D01*
X99524956Y-59960011D01*
X99526333Y-59964683D01*
X99512172Y-59987896D01*
X99474137Y-60032809D01*
X99418902Y-60091813D01*
X99382927Y-60128193D01*
X99318874Y-60189677D01*
X99264755Y-60237800D01*
X99228230Y-60265940D01*
X99218317Y-60270500D01*
X99194241Y-60256094D01*
X99150097Y-60218352D01*
X99094043Y-60165489D01*
X99034237Y-60105723D01*
X98978836Y-60047268D01*
X98935996Y-59998340D01*
X98913876Y-59967156D01*
X98912500Y-59962485D01*
X98926906Y-59938408D01*
X98964648Y-59894264D01*
X99017511Y-59838211D01*
X99077277Y-59778405D01*
X99135732Y-59723004D01*
X99184660Y-59680164D01*
X99215844Y-59658044D01*
X99220515Y-59656667D01*
X99244592Y-59671074D01*
G37*
X99244592Y-59671074D02*
X99288736Y-59708816D01*
X99344789Y-59761678D01*
X99404595Y-59821445D01*
X99459996Y-59879900D01*
X99502836Y-59928827D01*
X99524956Y-59960011D01*
X99526333Y-59964683D01*
X99512172Y-59987896D01*
X99474137Y-60032809D01*
X99418902Y-60091813D01*
X99382927Y-60128193D01*
X99318874Y-60189677D01*
X99264755Y-60237800D01*
X99228230Y-60265940D01*
X99218317Y-60270500D01*
X99194241Y-60256094D01*
X99150097Y-60218352D01*
X99094043Y-60165489D01*
X99034237Y-60105723D01*
X98978836Y-60047268D01*
X98935996Y-59998340D01*
X98913876Y-59967156D01*
X98912500Y-59962485D01*
X98926906Y-59938408D01*
X98964648Y-59894264D01*
X99017511Y-59838211D01*
X99077277Y-59778405D01*
X99135732Y-59723004D01*
X99184660Y-59680164D01*
X99215844Y-59658044D01*
X99220515Y-59656667D01*
X99244592Y-59671074D01*
G36*
X99134247Y-60983827D02*
G01*
X99182767Y-61022497D01*
X99241058Y-61076301D01*
X99300476Y-61136528D01*
X99352376Y-61194466D01*
X99388114Y-61241405D01*
X99399333Y-61266471D01*
X99385060Y-61294401D01*
X99346746Y-61343178D01*
X99291146Y-61404602D01*
X99255927Y-61440527D01*
X99191874Y-61502010D01*
X99137755Y-61550134D01*
X99101230Y-61578273D01*
X99091317Y-61582834D01*
X99067241Y-61568427D01*
X99023097Y-61530685D01*
X98967043Y-61477823D01*
X98907237Y-61418056D01*
X98851836Y-61359601D01*
X98808996Y-61310674D01*
X98786876Y-61279490D01*
X98785500Y-61274818D01*
X98800303Y-61248558D01*
X98839121Y-61203110D01*
X98893563Y-61146528D01*
X98955237Y-61086864D01*
X99015753Y-61032171D01*
X99066721Y-60990503D01*
X99099749Y-60969912D01*
X99104142Y-60969000D01*
X99134247Y-60983827D01*
G37*
X99134247Y-60983827D02*
X99182767Y-61022497D01*
X99241058Y-61076301D01*
X99300476Y-61136528D01*
X99352376Y-61194466D01*
X99388114Y-61241405D01*
X99399333Y-61266471D01*
X99385060Y-61294401D01*
X99346746Y-61343178D01*
X99291146Y-61404602D01*
X99255927Y-61440527D01*
X99191874Y-61502010D01*
X99137755Y-61550134D01*
X99101230Y-61578273D01*
X99091317Y-61582834D01*
X99067241Y-61568427D01*
X99023097Y-61530685D01*
X98967043Y-61477823D01*
X98907237Y-61418056D01*
X98851836Y-61359601D01*
X98808996Y-61310674D01*
X98786876Y-61279490D01*
X98785500Y-61274818D01*
X98800303Y-61248558D01*
X98839121Y-61203110D01*
X98893563Y-61146528D01*
X98955237Y-61086864D01*
X99015753Y-61032171D01*
X99066721Y-60990503D01*
X99099749Y-60969912D01*
X99104142Y-60969000D01*
X99134247Y-60983827D01*
G36*
X98523909Y-59607555D02*
G01*
X98568390Y-59645798D01*
X98626759Y-59700518D01*
X98691674Y-59764336D01*
X98755792Y-59829873D01*
X98811768Y-59889748D01*
X98852262Y-59936584D01*
X98869929Y-59963002D01*
X98870166Y-59964493D01*
X98855957Y-59986968D01*
X98817332Y-60032189D01*
X98760291Y-60093457D01*
X98695099Y-60159843D01*
X98624479Y-60228385D01*
X98563666Y-60284231D01*
X98519388Y-60321409D01*
X98498840Y-60334000D01*
X98475590Y-60319613D01*
X98431109Y-60281369D01*
X98372740Y-60226649D01*
X98307825Y-60162831D01*
X98243707Y-60097295D01*
X98187731Y-60037419D01*
X98147237Y-59990583D01*
X98129570Y-59964166D01*
X98129333Y-59962674D01*
X98143720Y-59939425D01*
X98181964Y-59894943D01*
X98236684Y-59836574D01*
X98300502Y-59771659D01*
X98366038Y-59707542D01*
X98425914Y-59651565D01*
X98472750Y-59611072D01*
X98499167Y-59593405D01*
X98500659Y-59593167D01*
X98523909Y-59607555D01*
G37*
X98523909Y-59607555D02*
X98568390Y-59645798D01*
X98626759Y-59700518D01*
X98691674Y-59764336D01*
X98755792Y-59829873D01*
X98811768Y-59889748D01*
X98852262Y-59936584D01*
X98869929Y-59963002D01*
X98870166Y-59964493D01*
X98855957Y-59986968D01*
X98817332Y-60032189D01*
X98760291Y-60093457D01*
X98695099Y-60159843D01*
X98624479Y-60228385D01*
X98563666Y-60284231D01*
X98519388Y-60321409D01*
X98498840Y-60334000D01*
X98475590Y-60319613D01*
X98431109Y-60281369D01*
X98372740Y-60226649D01*
X98307825Y-60162831D01*
X98243707Y-60097295D01*
X98187731Y-60037419D01*
X98147237Y-59990583D01*
X98129570Y-59964166D01*
X98129333Y-59962674D01*
X98143720Y-59939425D01*
X98181964Y-59894943D01*
X98236684Y-59836574D01*
X98300502Y-59771659D01*
X98366038Y-59707542D01*
X98425914Y-59651565D01*
X98472750Y-59611072D01*
X98499167Y-59593405D01*
X98500659Y-59593167D01*
X98523909Y-59607555D01*
G36*
X98609749Y-54070687D02*
G01*
X98691056Y-54079308D01*
X98732229Y-54089699D01*
X98785117Y-54131221D01*
X98822974Y-54205036D01*
X98843858Y-54303178D01*
X98845825Y-54417684D01*
X98834117Y-54507454D01*
X98811364Y-54553841D01*
X98770645Y-54597412D01*
X98738769Y-54617691D01*
X98698958Y-54630464D01*
X98641225Y-54637347D01*
X98555582Y-54639956D01*
X98506516Y-54640167D01*
X98409028Y-54639384D01*
X98343969Y-54635723D01*
X98301444Y-54627222D01*
X98271558Y-54611916D01*
X98244787Y-54588213D01*
X98218342Y-54557313D01*
X98202725Y-54522344D01*
X98195167Y-54471551D01*
X98192898Y-54393179D01*
X98192833Y-54367694D01*
X98194335Y-54266076D01*
X98200803Y-54197592D01*
X98215178Y-54153089D01*
X98240404Y-54123417D01*
X98279013Y-54099634D01*
X98334165Y-54083505D01*
X98417125Y-54073097D01*
X98513712Y-54068721D01*
X98609749Y-54070687D01*
G37*
X98609749Y-54070687D02*
X98691056Y-54079308D01*
X98732229Y-54089699D01*
X98785117Y-54131221D01*
X98822974Y-54205036D01*
X98843858Y-54303178D01*
X98845825Y-54417684D01*
X98834117Y-54507454D01*
X98811364Y-54553841D01*
X98770645Y-54597412D01*
X98738769Y-54617691D01*
X98698958Y-54630464D01*
X98641225Y-54637347D01*
X98555582Y-54639956D01*
X98506516Y-54640167D01*
X98409028Y-54639384D01*
X98343969Y-54635723D01*
X98301444Y-54627222D01*
X98271558Y-54611916D01*
X98244787Y-54588213D01*
X98218342Y-54557313D01*
X98202725Y-54522344D01*
X98195167Y-54471551D01*
X98192898Y-54393179D01*
X98192833Y-54367694D01*
X98194335Y-54266076D01*
X98200803Y-54197592D01*
X98215178Y-54153089D01*
X98240404Y-54123417D01*
X98279013Y-54099634D01*
X98334165Y-54083505D01*
X98417125Y-54073097D01*
X98513712Y-54068721D01*
X98609749Y-54070687D01*
G36*
X98541580Y-60391160D02*
G01*
X98590100Y-60429831D01*
X98648391Y-60483635D01*
X98707809Y-60543862D01*
X98759709Y-60601800D01*
X98795448Y-60648738D01*
X98806666Y-60673804D01*
X98792394Y-60701734D01*
X98754079Y-60750511D01*
X98698479Y-60811935D01*
X98663260Y-60847860D01*
X98599207Y-60909344D01*
X98545088Y-60957467D01*
X98508564Y-60985607D01*
X98498651Y-60990167D01*
X98474574Y-60975761D01*
X98430430Y-60938018D01*
X98374377Y-60885156D01*
X98314571Y-60825389D01*
X98259169Y-60766934D01*
X98216330Y-60718007D01*
X98194209Y-60686823D01*
X98192833Y-60682152D01*
X98207637Y-60655891D01*
X98246455Y-60610443D01*
X98300896Y-60553861D01*
X98362570Y-60494197D01*
X98423086Y-60439504D01*
X98474054Y-60397836D01*
X98507082Y-60377245D01*
X98511476Y-60376334D01*
X98541580Y-60391160D01*
G37*
X98541580Y-60391160D02*
X98590100Y-60429831D01*
X98648391Y-60483635D01*
X98707809Y-60543862D01*
X98759709Y-60601800D01*
X98795448Y-60648738D01*
X98806666Y-60673804D01*
X98792394Y-60701734D01*
X98754079Y-60750511D01*
X98698479Y-60811935D01*
X98663260Y-60847860D01*
X98599207Y-60909344D01*
X98545088Y-60957467D01*
X98508564Y-60985607D01*
X98498651Y-60990167D01*
X98474574Y-60975761D01*
X98430430Y-60938018D01*
X98374377Y-60885156D01*
X98314571Y-60825389D01*
X98259169Y-60766934D01*
X98216330Y-60718007D01*
X98194209Y-60686823D01*
X98192833Y-60682152D01*
X98207637Y-60655891D01*
X98246455Y-60610443D01*
X98300896Y-60553861D01*
X98362570Y-60494197D01*
X98423086Y-60439504D01*
X98474054Y-60397836D01*
X98507082Y-60377245D01*
X98511476Y-60376334D01*
X98541580Y-60391160D01*
G36*
X98616791Y-61128368D02*
G01*
X98674726Y-61188225D01*
X98718682Y-61238447D01*
X98741497Y-61270671D01*
X98743166Y-61275978D01*
X98729040Y-61300868D01*
X98691765Y-61345695D01*
X98638994Y-61401356D01*
X98631376Y-61408932D01*
X98574504Y-61462459D01*
X98527732Y-61501688D01*
X98500147Y-61519072D01*
X98498421Y-61519334D01*
X98474735Y-61505197D01*
X98430123Y-61467552D01*
X98372854Y-61413544D01*
X98352201Y-61392958D01*
X98227144Y-61266583D01*
X98490415Y-61003312D01*
X98616791Y-61128368D01*
G37*
X98616791Y-61128368D02*
X98674726Y-61188225D01*
X98718682Y-61238447D01*
X98741497Y-61270671D01*
X98743166Y-61275978D01*
X98729040Y-61300868D01*
X98691765Y-61345695D01*
X98638994Y-61401356D01*
X98631376Y-61408932D01*
X98574504Y-61462459D01*
X98527732Y-61501688D01*
X98500147Y-61519072D01*
X98498421Y-61519334D01*
X98474735Y-61505197D01*
X98430123Y-61467552D01*
X98372854Y-61413544D01*
X98352201Y-61392958D01*
X98227144Y-61266583D01*
X98490415Y-61003312D01*
X98616791Y-61128368D01*
D15*
X86150000Y-47800000D03*
X86150000Y-40800000D03*
D16*
X84050000Y-49600000D03*
X88250000Y-51100000D03*
X84050000Y-42600000D03*
X84050000Y-45600000D03*
D15*
X87900000Y-40800000D03*
X87900000Y-47800000D03*
D16*
X90000000Y-42600000D03*
X90000000Y-45600000D03*
X90000000Y-49600000D03*
X85800000Y-51100000D03*
D17*
X96700000Y-75000000D03*
X99240000Y-75000000D03*
X101780000Y-75000000D03*
X104320000Y-75000000D03*
M02*
