G04 #@! TF.GenerationSoftware,KiCad,Pcbnew,(6.0.8-1)-1*
G04 #@! TF.CreationDate,2023-02-20T13:07:17+02:00*
G04 #@! TF.ProjectId,Lily58,4c696c79-3538-42e6-9b69-6361645f7063,rev?*
G04 #@! TF.SameCoordinates,Original*
G04 #@! TF.FileFunction,Legend,Bot*
G04 #@! TF.FilePolarity,Positive*
%FSLAX46Y46*%
G04 Gerber Fmt 4.6, Leading zero omitted, Abs format (unit mm)*
G04 Created by KiCad (PCBNEW (6.0.8-1)-1) date 2023-02-20 13:07:17*
%MOMM*%
%LPD*%
G01*
G04 APERTURE LIST*
G04 #@! TA.AperFunction,Profile*
%ADD10C,0.200000*%
G04 #@! TD*
%ADD11C,0.125000*%
%ADD12C,0.150000*%
%ADD13C,0.010000*%
%ADD14C,0.250000*%
G04 APERTURE END LIST*
D10*
X224900000Y-42700000D02*
X225460000Y-43436755D01*
D11*
X115233333Y-75816666D02*
X115000000Y-76516666D01*
X114766666Y-75816666D01*
X114133333Y-76450000D02*
X114166666Y-76483333D01*
X114266666Y-76516666D01*
X114333333Y-76516666D01*
X114433333Y-76483333D01*
X114500000Y-76416666D01*
X114533333Y-76350000D01*
X114566666Y-76216666D01*
X114566666Y-76116666D01*
X114533333Y-75983333D01*
X114500000Y-75916666D01*
X114433333Y-75850000D01*
X114333333Y-75816666D01*
X114266666Y-75816666D01*
X114166666Y-75850000D01*
X114133333Y-75883333D01*
X113433333Y-76450000D02*
X113466666Y-76483333D01*
X113566666Y-76516666D01*
X113633333Y-76516666D01*
X113733333Y-76483333D01*
X113800000Y-76416666D01*
X113833333Y-76350000D01*
X113866666Y-76216666D01*
X113866666Y-76116666D01*
X113833333Y-75983333D01*
X113800000Y-75916666D01*
X113733333Y-75850000D01*
X113633333Y-75816666D01*
X113566666Y-75816666D01*
X113466666Y-75850000D01*
X113433333Y-75883333D01*
X114750000Y-79016666D02*
X115083333Y-79016666D01*
X115083333Y-78316666D01*
X114516666Y-78650000D02*
X114283333Y-78650000D01*
X114183333Y-79016666D02*
X114516666Y-79016666D01*
X114516666Y-78316666D01*
X114183333Y-78316666D01*
X113883333Y-79016666D02*
X113883333Y-78316666D01*
X113716666Y-78316666D01*
X113616666Y-78350000D01*
X113550000Y-78416666D01*
X113516666Y-78483333D01*
X113483333Y-78616666D01*
X113483333Y-78716666D01*
X113516666Y-78850000D01*
X113550000Y-78916666D01*
X113616666Y-78983333D01*
X113716666Y-79016666D01*
X113883333Y-79016666D01*
X114733333Y-80950000D02*
X114800000Y-80916666D01*
X114900000Y-80916666D01*
X115000000Y-80950000D01*
X115066666Y-81016666D01*
X115100000Y-81083333D01*
X115133333Y-81216666D01*
X115133333Y-81316666D01*
X115100000Y-81450000D01*
X115066666Y-81516666D01*
X115000000Y-81583333D01*
X114900000Y-81616666D01*
X114833333Y-81616666D01*
X114733333Y-81583333D01*
X114700000Y-81550000D01*
X114700000Y-81316666D01*
X114833333Y-81316666D01*
X114400000Y-81616666D02*
X114400000Y-80916666D01*
X114000000Y-81616666D01*
X114000000Y-80916666D01*
X113666666Y-81616666D02*
X113666666Y-80916666D01*
X113500000Y-80916666D01*
X113400000Y-80950000D01*
X113333333Y-81016666D01*
X113300000Y-81083333D01*
X113266666Y-81216666D01*
X113266666Y-81316666D01*
X113300000Y-81450000D01*
X113333333Y-81516666D01*
X113400000Y-81583333D01*
X113500000Y-81616666D01*
X113666666Y-81616666D01*
D10*
X82937528Y-50750629D02*
X82937528Y-44443695D01*
X82937528Y-57057562D02*
X82937528Y-50750629D01*
X115211711Y-37086762D02*
X104803877Y-37086762D01*
X218692418Y-120789735D02*
X223959999Y-120789735D01*
X213424836Y-120789735D02*
X218692418Y-120789735D01*
X208157255Y-120789735D02*
X213424836Y-120789735D01*
X202889673Y-120789735D02*
X208157255Y-120789735D01*
X197622092Y-120789735D02*
X202889673Y-120789735D01*
X192354511Y-120789735D02*
X197622092Y-120789735D01*
X187086929Y-120789735D02*
X192354511Y-120789735D01*
X181819348Y-120789735D02*
X187086929Y-120789735D01*
X181113524Y-120860778D02*
X181819348Y-120789735D01*
X180456326Y-121064561D02*
X181113524Y-120860778D01*
X179861773Y-121387065D02*
X180456326Y-121064561D01*
X179343884Y-121814271D02*
X179861773Y-121387065D01*
X178916678Y-122332160D02*
X179343884Y-121814271D01*
X178594174Y-122926713D02*
X178916678Y-122332160D01*
X178390391Y-123583911D02*
X178594174Y-122926713D01*
X178319348Y-124289735D02*
X178390391Y-123583911D01*
X199807654Y-38170488D02*
X189919538Y-37585374D01*
X208420758Y-38945561D02*
X199807654Y-38170488D01*
X215525697Y-39885159D02*
X208420758Y-38945561D01*
X220889319Y-40963847D02*
X215525697Y-39885159D01*
X178989563Y-37215654D02*
X167250881Y-37086762D01*
X189919538Y-37585374D02*
X178989563Y-37215654D01*
X177658308Y-135255660D02*
X177403500Y-135393876D01*
X177880261Y-135072571D02*
X177658308Y-135255660D01*
X178063349Y-134850619D02*
X177880261Y-135072571D01*
X178201565Y-134595810D02*
X178063349Y-134850619D01*
X178288901Y-134314154D02*
X178201565Y-134595810D01*
X178319348Y-134011658D02*
X178288901Y-134314154D01*
X225460000Y-52918378D02*
X225460000Y-62400000D01*
X225460000Y-43436755D02*
X225460000Y-52918378D01*
X82937528Y-69671429D02*
X82937528Y-63364495D01*
X82937528Y-75978362D02*
X82937528Y-69671429D01*
X82937528Y-82285296D02*
X82937528Y-75978362D01*
X82937528Y-88592229D02*
X82937528Y-82285296D01*
X104807833Y-37086762D02*
X94400000Y-37086762D01*
X125619545Y-37086762D02*
X115211711Y-37086762D01*
X136027379Y-37086762D02*
X125619545Y-37086762D01*
X146435213Y-37086762D02*
X136027379Y-37086762D01*
X156843047Y-37086762D02*
X146435213Y-37086762D01*
X167250881Y-37086762D02*
X156843047Y-37086762D01*
X83400937Y-37265961D02*
X83579303Y-37169210D01*
X83245570Y-37394123D02*
X83400937Y-37265961D01*
X83117409Y-37549489D02*
X83245570Y-37394123D01*
X83020657Y-37727855D02*
X83117409Y-37549489D01*
X82959523Y-37925015D02*
X83020657Y-37727855D01*
X82938210Y-38136762D02*
X82959523Y-37925015D01*
X83776462Y-37108075D02*
X83988210Y-37086762D01*
X83579303Y-37169210D02*
X83776462Y-37108075D01*
X94396044Y-37086762D02*
X83988210Y-37086762D01*
X82937528Y-63364495D02*
X82937528Y-57057562D01*
X82937528Y-44443695D02*
X82937528Y-38136762D01*
X88291758Y-116318073D02*
X89993333Y-119989540D01*
X86863105Y-112530670D02*
X88291758Y-116318073D01*
X85688004Y-108649127D02*
X86863105Y-112530670D01*
X84747083Y-104695246D02*
X85688004Y-108649127D01*
X84020972Y-100690825D02*
X84747083Y-104695246D01*
X83490297Y-96657663D02*
X84020972Y-100690825D01*
X83135690Y-92617561D02*
X83490297Y-96657663D01*
X82937777Y-88592317D02*
X83135690Y-92617561D01*
X104288864Y-143357278D02*
X104456758Y-143271756D01*
X104130206Y-143404468D02*
X104288864Y-143357278D01*
X103981252Y-143413974D02*
X104130206Y-143404468D01*
X103842470Y-143386445D02*
X103981252Y-143413974D01*
X103714328Y-143322532D02*
X103842470Y-143386445D01*
X103597295Y-143222884D02*
X103714328Y-143322532D01*
X103491837Y-143088150D02*
X103597295Y-143222884D01*
X103398425Y-142918979D02*
X103491837Y-143088150D01*
X116186619Y-136480784D02*
X117862313Y-135510645D01*
X114510925Y-137450923D02*
X116186619Y-136480784D01*
X112835230Y-138421062D02*
X114510925Y-137450923D01*
X111159536Y-139391201D02*
X112835230Y-138421062D01*
X109483841Y-140361340D02*
X111159536Y-139391201D01*
X107808147Y-141331479D02*
X109483841Y-140361340D01*
X106132452Y-142301617D02*
X107808147Y-141331479D01*
X104456758Y-143271756D02*
X106132452Y-142301617D01*
X101722730Y-140052659D02*
X103398425Y-142918979D01*
X100047036Y-137186340D02*
X101722730Y-140052659D01*
X98371341Y-134320020D02*
X100047036Y-137186340D01*
X96695647Y-131453701D02*
X98371341Y-134320020D01*
X95019952Y-128587381D02*
X96695647Y-131453701D01*
X93344258Y-125721062D02*
X95019952Y-128587381D01*
X91668563Y-122854742D02*
X93344258Y-125721062D01*
X89992869Y-119988423D02*
X91668563Y-122854742D01*
X169449826Y-135511658D02*
X176819348Y-135511658D01*
X162080304Y-135511658D02*
X169449826Y-135511658D01*
X154710782Y-135511658D02*
X162080304Y-135511658D01*
X147341260Y-135511658D02*
X154710782Y-135511658D01*
X139971738Y-135511658D02*
X147341260Y-135511658D01*
X132602217Y-135511658D02*
X139971738Y-135511658D01*
X125232695Y-135511658D02*
X132602217Y-135511658D01*
X117863173Y-135511658D02*
X125232695Y-135511658D01*
X178319348Y-132816013D02*
X178319348Y-134011658D01*
X178319348Y-131597973D02*
X178319348Y-132816013D01*
X178319348Y-130379933D02*
X178319348Y-131597973D01*
X178319348Y-129161894D02*
X178319348Y-130379933D01*
X178319348Y-127943854D02*
X178319348Y-129161894D01*
X178319348Y-126725814D02*
X178319348Y-127943854D01*
X178319348Y-125507775D02*
X178319348Y-126725814D01*
X178319348Y-124289735D02*
X178319348Y-125507775D01*
X177121844Y-135481211D02*
X176819348Y-135511658D01*
X177403500Y-135393876D02*
X177121844Y-135481211D01*
X224278471Y-42156190D02*
X220889319Y-40963847D01*
X224900000Y-42700000D02*
X224278471Y-42156190D01*
X224262495Y-120759288D02*
X223959999Y-120789735D01*
X224544152Y-120671952D02*
X224262495Y-120759288D01*
X224798960Y-120533736D02*
X224544152Y-120671952D01*
X225020912Y-120350648D02*
X224798960Y-120533736D01*
X225204001Y-120128696D02*
X225020912Y-120350648D01*
X225342217Y-119873887D02*
X225204001Y-120128696D01*
X225429552Y-119592231D02*
X225342217Y-119873887D01*
X225459999Y-119289735D02*
X225429552Y-119592231D01*
X225460000Y-109808112D02*
X225460000Y-119289735D01*
X225460000Y-100326490D02*
X225460000Y-109808112D01*
X225460000Y-90844867D02*
X225460000Y-100326490D01*
X225460000Y-81363245D02*
X225460000Y-90844867D01*
X225460000Y-71881623D02*
X225460000Y-81363245D01*
X225460000Y-62400000D02*
X225460000Y-71881623D01*
D12*
X85461904Y-67338095D02*
X85080952Y-67071428D01*
X85461904Y-66880952D02*
X84661904Y-66880952D01*
X84661904Y-67185714D01*
X84700000Y-67261904D01*
X84738095Y-67300000D01*
X84814285Y-67338095D01*
X84928571Y-67338095D01*
X85004761Y-67300000D01*
X85042857Y-67261904D01*
X85080952Y-67185714D01*
X85080952Y-66880952D01*
X85042857Y-67680952D02*
X85042857Y-67947619D01*
X85461904Y-68061904D02*
X85461904Y-67680952D01*
X84661904Y-67680952D01*
X84661904Y-68061904D01*
X85423809Y-68366666D02*
X85461904Y-68480952D01*
X85461904Y-68671428D01*
X85423809Y-68747619D01*
X85385714Y-68785714D01*
X85309523Y-68823809D01*
X85233333Y-68823809D01*
X85157142Y-68785714D01*
X85119047Y-68747619D01*
X85080952Y-68671428D01*
X85042857Y-68519047D01*
X85004761Y-68442857D01*
X84966666Y-68404761D01*
X84890476Y-68366666D01*
X84814285Y-68366666D01*
X84738095Y-68404761D01*
X84700000Y-68442857D01*
X84661904Y-68519047D01*
X84661904Y-68709523D01*
X84700000Y-68823809D01*
X85042857Y-69166666D02*
X85042857Y-69433333D01*
X85461904Y-69547619D02*
X85461904Y-69166666D01*
X84661904Y-69166666D01*
X84661904Y-69547619D01*
X84661904Y-69776190D02*
X84661904Y-70233333D01*
X85461904Y-70004761D02*
X84661904Y-70004761D01*
X85061904Y-55905938D02*
X84680952Y-55639272D01*
X85061904Y-55448795D02*
X84261904Y-55448795D01*
X84261904Y-55753557D01*
X84300000Y-55829748D01*
X84338095Y-55867843D01*
X84414285Y-55905938D01*
X84528571Y-55905938D01*
X84604761Y-55867843D01*
X84642857Y-55829748D01*
X84680952Y-55753557D01*
X84680952Y-55448795D01*
X85061904Y-56667843D02*
X85061904Y-56210700D01*
X85061904Y-56439272D02*
X84261904Y-56439272D01*
X84376190Y-56363081D01*
X84452380Y-56286891D01*
X84490476Y-56210700D01*
X87311904Y-55905938D02*
X86930952Y-55639272D01*
X87311904Y-55448795D02*
X86511904Y-55448795D01*
X86511904Y-55753557D01*
X86550000Y-55829748D01*
X86588095Y-55867843D01*
X86664285Y-55905938D01*
X86778571Y-55905938D01*
X86854761Y-55867843D01*
X86892857Y-55829748D01*
X86930952Y-55753557D01*
X86930952Y-55448795D01*
X87311904Y-56667843D02*
X87311904Y-56210700D01*
X87311904Y-56439272D02*
X86511904Y-56439272D01*
X86626190Y-56363081D01*
X86702380Y-56286891D01*
X86740476Y-56210700D01*
X87490476Y-62761904D02*
X87490476Y-61961904D01*
X87185714Y-61961904D01*
X87109523Y-62000000D01*
X87071428Y-62038095D01*
X87033333Y-62114285D01*
X87033333Y-62228571D01*
X87071428Y-62304761D01*
X87109523Y-62342857D01*
X87185714Y-62380952D01*
X87490476Y-62380952D01*
X86728571Y-62038095D02*
X86690476Y-62000000D01*
X86614285Y-61961904D01*
X86423809Y-61961904D01*
X86347619Y-62000000D01*
X86309523Y-62038095D01*
X86271428Y-62114285D01*
X86271428Y-62190476D01*
X86309523Y-62304761D01*
X86766666Y-62761904D01*
X86271428Y-62761904D01*
X85290476Y-62761904D02*
X85290476Y-61961904D01*
X84985714Y-61961904D01*
X84909523Y-62000000D01*
X84871428Y-62038095D01*
X84833333Y-62114285D01*
X84833333Y-62228571D01*
X84871428Y-62304761D01*
X84909523Y-62342857D01*
X84985714Y-62380952D01*
X85290476Y-62380952D01*
X84528571Y-62038095D02*
X84490476Y-62000000D01*
X84414285Y-61961904D01*
X84223809Y-61961904D01*
X84147619Y-62000000D01*
X84109523Y-62038095D01*
X84071428Y-62114285D01*
X84071428Y-62190476D01*
X84109523Y-62304761D01*
X84566666Y-62761904D01*
X84071428Y-62761904D01*
X83150000Y-39300000D02*
X83650000Y-39300000D01*
X89150000Y-39300000D02*
X89150000Y-51300000D01*
X89150000Y-51300000D02*
X83150000Y-51300000D01*
X83150000Y-51300000D02*
X83150000Y-39300000D01*
X83650000Y-39300000D02*
X83650000Y-37400000D01*
X83700000Y-37400000D02*
X88650000Y-37400000D01*
X89150000Y-39300000D02*
X88650000Y-39300000D01*
X88650000Y-39300000D02*
X88650000Y-37400000D01*
G36*
X102872856Y-61266583D02*
G01*
X102747799Y-61392958D01*
X102727146Y-61413544D01*
X102669877Y-61467552D01*
X102625265Y-61505197D01*
X102601579Y-61519334D01*
X102599853Y-61519072D01*
X102572268Y-61501688D01*
X102525496Y-61462459D01*
X102468624Y-61408932D01*
X102461006Y-61401356D01*
X102408235Y-61345695D01*
X102370960Y-61300868D01*
X102356834Y-61275978D01*
X102358503Y-61270671D01*
X102381318Y-61238447D01*
X102425274Y-61188225D01*
X102483209Y-61128368D01*
X102609585Y-61003312D01*
X102872856Y-61266583D01*
G37*
D13*
X102872856Y-61266583D02*
X102747799Y-61392958D01*
X102727146Y-61413544D01*
X102669877Y-61467552D01*
X102625265Y-61505197D01*
X102601579Y-61519334D01*
X102599853Y-61519072D01*
X102572268Y-61501688D01*
X102525496Y-61462459D01*
X102468624Y-61408932D01*
X102461006Y-61401356D01*
X102408235Y-61345695D01*
X102370960Y-61300868D01*
X102356834Y-61275978D01*
X102358503Y-61270671D01*
X102381318Y-61238447D01*
X102425274Y-61188225D01*
X102483209Y-61128368D01*
X102609585Y-61003312D01*
X102872856Y-61266583D01*
G36*
X102592918Y-60377245D02*
G01*
X102625946Y-60397836D01*
X102676914Y-60439504D01*
X102737430Y-60494197D01*
X102799104Y-60553861D01*
X102853545Y-60610443D01*
X102892363Y-60655891D01*
X102907167Y-60682152D01*
X102905791Y-60686823D01*
X102883670Y-60718007D01*
X102840831Y-60766934D01*
X102785429Y-60825389D01*
X102725623Y-60885156D01*
X102669570Y-60938018D01*
X102625426Y-60975761D01*
X102601349Y-60990167D01*
X102591436Y-60985607D01*
X102554912Y-60957467D01*
X102500793Y-60909344D01*
X102436740Y-60847860D01*
X102401521Y-60811935D01*
X102345921Y-60750511D01*
X102307606Y-60701734D01*
X102293334Y-60673804D01*
X102304552Y-60648738D01*
X102340291Y-60601800D01*
X102392191Y-60543862D01*
X102451609Y-60483635D01*
X102509900Y-60429831D01*
X102558420Y-60391160D01*
X102588524Y-60376334D01*
X102592918Y-60377245D01*
G37*
X102592918Y-60377245D02*
X102625946Y-60397836D01*
X102676914Y-60439504D01*
X102737430Y-60494197D01*
X102799104Y-60553861D01*
X102853545Y-60610443D01*
X102892363Y-60655891D01*
X102907167Y-60682152D01*
X102905791Y-60686823D01*
X102883670Y-60718007D01*
X102840831Y-60766934D01*
X102785429Y-60825389D01*
X102725623Y-60885156D01*
X102669570Y-60938018D01*
X102625426Y-60975761D01*
X102601349Y-60990167D01*
X102591436Y-60985607D01*
X102554912Y-60957467D01*
X102500793Y-60909344D01*
X102436740Y-60847860D01*
X102401521Y-60811935D01*
X102345921Y-60750511D01*
X102307606Y-60701734D01*
X102293334Y-60673804D01*
X102304552Y-60648738D01*
X102340291Y-60601800D01*
X102392191Y-60543862D01*
X102451609Y-60483635D01*
X102509900Y-60429831D01*
X102558420Y-60391160D01*
X102588524Y-60376334D01*
X102592918Y-60377245D01*
G36*
X102682875Y-54073097D02*
G01*
X102765835Y-54083505D01*
X102820987Y-54099634D01*
X102859596Y-54123417D01*
X102884822Y-54153089D01*
X102899197Y-54197592D01*
X102905665Y-54266076D01*
X102907167Y-54367694D01*
X102907102Y-54393179D01*
X102904833Y-54471551D01*
X102897275Y-54522344D01*
X102881658Y-54557313D01*
X102855213Y-54588213D01*
X102828442Y-54611916D01*
X102798556Y-54627222D01*
X102756031Y-54635723D01*
X102690972Y-54639384D01*
X102593484Y-54640167D01*
X102544418Y-54639956D01*
X102458775Y-54637347D01*
X102401042Y-54630464D01*
X102361231Y-54617691D01*
X102329355Y-54597412D01*
X102288636Y-54553841D01*
X102265883Y-54507454D01*
X102254175Y-54417684D01*
X102256142Y-54303178D01*
X102277026Y-54205036D01*
X102314883Y-54131221D01*
X102367771Y-54089699D01*
X102408944Y-54079308D01*
X102490251Y-54070687D01*
X102586288Y-54068721D01*
X102682875Y-54073097D01*
G37*
X102682875Y-54073097D02*
X102765835Y-54083505D01*
X102820987Y-54099634D01*
X102859596Y-54123417D01*
X102884822Y-54153089D01*
X102899197Y-54197592D01*
X102905665Y-54266076D01*
X102907167Y-54367694D01*
X102907102Y-54393179D01*
X102904833Y-54471551D01*
X102897275Y-54522344D01*
X102881658Y-54557313D01*
X102855213Y-54588213D01*
X102828442Y-54611916D01*
X102798556Y-54627222D01*
X102756031Y-54635723D01*
X102690972Y-54639384D01*
X102593484Y-54640167D01*
X102544418Y-54639956D01*
X102458775Y-54637347D01*
X102401042Y-54630464D01*
X102361231Y-54617691D01*
X102329355Y-54597412D01*
X102288636Y-54553841D01*
X102265883Y-54507454D01*
X102254175Y-54417684D01*
X102256142Y-54303178D01*
X102277026Y-54205036D01*
X102314883Y-54131221D01*
X102367771Y-54089699D01*
X102408944Y-54079308D01*
X102490251Y-54070687D01*
X102586288Y-54068721D01*
X102682875Y-54073097D01*
G36*
X102600833Y-59593405D02*
G01*
X102627250Y-59611072D01*
X102674086Y-59651565D01*
X102733962Y-59707542D01*
X102799498Y-59771659D01*
X102863316Y-59836574D01*
X102918036Y-59894943D01*
X102956280Y-59939425D01*
X102970667Y-59962674D01*
X102970430Y-59964166D01*
X102952763Y-59990583D01*
X102912269Y-60037419D01*
X102856293Y-60097295D01*
X102792175Y-60162831D01*
X102727260Y-60226649D01*
X102668891Y-60281369D01*
X102624410Y-60319613D01*
X102601160Y-60334000D01*
X102580612Y-60321409D01*
X102536334Y-60284231D01*
X102475521Y-60228385D01*
X102404901Y-60159843D01*
X102339709Y-60093457D01*
X102282668Y-60032189D01*
X102244043Y-59986968D01*
X102229834Y-59964493D01*
X102230071Y-59963002D01*
X102247738Y-59936584D01*
X102288232Y-59889748D01*
X102344208Y-59829873D01*
X102408326Y-59764336D01*
X102473241Y-59700518D01*
X102531610Y-59645798D01*
X102576091Y-59607555D01*
X102599341Y-59593167D01*
X102600833Y-59593405D01*
G37*
X102600833Y-59593405D02*
X102627250Y-59611072D01*
X102674086Y-59651565D01*
X102733962Y-59707542D01*
X102799498Y-59771659D01*
X102863316Y-59836574D01*
X102918036Y-59894943D01*
X102956280Y-59939425D01*
X102970667Y-59962674D01*
X102970430Y-59964166D01*
X102952763Y-59990583D01*
X102912269Y-60037419D01*
X102856293Y-60097295D01*
X102792175Y-60162831D01*
X102727260Y-60226649D01*
X102668891Y-60281369D01*
X102624410Y-60319613D01*
X102601160Y-60334000D01*
X102580612Y-60321409D01*
X102536334Y-60284231D01*
X102475521Y-60228385D01*
X102404901Y-60159843D01*
X102339709Y-60093457D01*
X102282668Y-60032189D01*
X102244043Y-59986968D01*
X102229834Y-59964493D01*
X102230071Y-59963002D01*
X102247738Y-59936584D01*
X102288232Y-59889748D01*
X102344208Y-59829873D01*
X102408326Y-59764336D01*
X102473241Y-59700518D01*
X102531610Y-59645798D01*
X102576091Y-59607555D01*
X102599341Y-59593167D01*
X102600833Y-59593405D01*
G36*
X102000251Y-60969912D02*
G01*
X102033279Y-60990503D01*
X102084247Y-61032171D01*
X102144763Y-61086864D01*
X102206437Y-61146528D01*
X102260879Y-61203110D01*
X102299697Y-61248558D01*
X102314500Y-61274818D01*
X102313124Y-61279490D01*
X102291004Y-61310674D01*
X102248164Y-61359601D01*
X102192763Y-61418056D01*
X102132957Y-61477823D01*
X102076903Y-61530685D01*
X102032759Y-61568427D01*
X102008683Y-61582834D01*
X101998770Y-61578273D01*
X101962245Y-61550134D01*
X101908126Y-61502010D01*
X101844073Y-61440527D01*
X101808854Y-61404602D01*
X101753254Y-61343178D01*
X101714940Y-61294401D01*
X101700667Y-61266471D01*
X101711886Y-61241405D01*
X101747624Y-61194466D01*
X101799524Y-61136528D01*
X101858942Y-61076301D01*
X101917233Y-61022497D01*
X101965753Y-60983827D01*
X101995858Y-60969000D01*
X102000251Y-60969912D01*
G37*
X102000251Y-60969912D02*
X102033279Y-60990503D01*
X102084247Y-61032171D01*
X102144763Y-61086864D01*
X102206437Y-61146528D01*
X102260879Y-61203110D01*
X102299697Y-61248558D01*
X102314500Y-61274818D01*
X102313124Y-61279490D01*
X102291004Y-61310674D01*
X102248164Y-61359601D01*
X102192763Y-61418056D01*
X102132957Y-61477823D01*
X102076903Y-61530685D01*
X102032759Y-61568427D01*
X102008683Y-61582834D01*
X101998770Y-61578273D01*
X101962245Y-61550134D01*
X101908126Y-61502010D01*
X101844073Y-61440527D01*
X101808854Y-61404602D01*
X101753254Y-61343178D01*
X101714940Y-61294401D01*
X101700667Y-61266471D01*
X101711886Y-61241405D01*
X101747624Y-61194466D01*
X101799524Y-61136528D01*
X101858942Y-61076301D01*
X101917233Y-61022497D01*
X101965753Y-60983827D01*
X101995858Y-60969000D01*
X102000251Y-60969912D01*
G36*
X101884156Y-59658044D02*
G01*
X101915340Y-59680164D01*
X101964268Y-59723004D01*
X102022723Y-59778405D01*
X102082489Y-59838211D01*
X102135352Y-59894264D01*
X102173094Y-59938408D01*
X102187500Y-59962485D01*
X102186124Y-59967156D01*
X102164004Y-59998340D01*
X102121164Y-60047268D01*
X102065763Y-60105723D01*
X102005957Y-60165489D01*
X101949903Y-60218352D01*
X101905759Y-60256094D01*
X101881683Y-60270500D01*
X101871770Y-60265940D01*
X101835245Y-60237800D01*
X101781126Y-60189677D01*
X101717073Y-60128193D01*
X101681098Y-60091813D01*
X101625863Y-60032809D01*
X101587828Y-59987896D01*
X101573667Y-59964683D01*
X101575044Y-59960011D01*
X101597164Y-59928827D01*
X101640004Y-59879900D01*
X101695405Y-59821445D01*
X101755211Y-59761678D01*
X101811264Y-59708816D01*
X101855408Y-59671074D01*
X101879485Y-59656667D01*
X101884156Y-59658044D01*
G37*
X101884156Y-59658044D02*
X101915340Y-59680164D01*
X101964268Y-59723004D01*
X102022723Y-59778405D01*
X102082489Y-59838211D01*
X102135352Y-59894264D01*
X102173094Y-59938408D01*
X102187500Y-59962485D01*
X102186124Y-59967156D01*
X102164004Y-59998340D01*
X102121164Y-60047268D01*
X102065763Y-60105723D01*
X102005957Y-60165489D01*
X101949903Y-60218352D01*
X101905759Y-60256094D01*
X101881683Y-60270500D01*
X101871770Y-60265940D01*
X101835245Y-60237800D01*
X101781126Y-60189677D01*
X101717073Y-60128193D01*
X101681098Y-60091813D01*
X101625863Y-60032809D01*
X101587828Y-59987896D01*
X101573667Y-59964683D01*
X101575044Y-59960011D01*
X101597164Y-59928827D01*
X101640004Y-59879900D01*
X101695405Y-59821445D01*
X101755211Y-59761678D01*
X101811264Y-59708816D01*
X101855408Y-59671074D01*
X101879485Y-59656667D01*
X101884156Y-59658044D01*
G36*
X101282511Y-59721657D02*
G01*
X101318319Y-59743775D01*
X101369263Y-59785278D01*
X101425689Y-59837020D01*
X101477945Y-59889853D01*
X101516378Y-59934627D01*
X101531334Y-59962195D01*
X101529856Y-59968309D01*
X101506930Y-60002555D01*
X101463657Y-60051395D01*
X101409619Y-60105545D01*
X101354397Y-60155719D01*
X101307571Y-60192633D01*
X101278722Y-60207000D01*
X101276588Y-60206798D01*
X101244119Y-60189670D01*
X101193640Y-60150381D01*
X101135124Y-60096599D01*
X101127392Y-60088911D01*
X101074674Y-60033506D01*
X101037442Y-59989195D01*
X101023334Y-59964972D01*
X101024812Y-59958859D01*
X101047738Y-59924613D01*
X101091010Y-59875772D01*
X101145048Y-59821623D01*
X101200271Y-59771449D01*
X101247097Y-59734535D01*
X101275945Y-59720167D01*
X101282511Y-59721657D01*
G37*
X101282511Y-59721657D02*
X101318319Y-59743775D01*
X101369263Y-59785278D01*
X101425689Y-59837020D01*
X101477945Y-59889853D01*
X101516378Y-59934627D01*
X101531334Y-59962195D01*
X101529856Y-59968309D01*
X101506930Y-60002555D01*
X101463657Y-60051395D01*
X101409619Y-60105545D01*
X101354397Y-60155719D01*
X101307571Y-60192633D01*
X101278722Y-60207000D01*
X101276588Y-60206798D01*
X101244119Y-60189670D01*
X101193640Y-60150381D01*
X101135124Y-60096599D01*
X101127392Y-60088911D01*
X101074674Y-60033506D01*
X101037442Y-59989195D01*
X101023334Y-59964972D01*
X101024812Y-59958859D01*
X101047738Y-59924613D01*
X101091010Y-59875772D01*
X101145048Y-59821623D01*
X101200271Y-59771449D01*
X101247097Y-59734535D01*
X101275945Y-59720167D01*
X101282511Y-59721657D01*
G36*
X101291490Y-60250710D02*
G01*
X101322674Y-60272831D01*
X101371601Y-60315670D01*
X101430056Y-60371072D01*
X101489823Y-60430878D01*
X101542685Y-60486931D01*
X101580427Y-60531075D01*
X101594834Y-60555152D01*
X101593457Y-60559823D01*
X101571337Y-60591007D01*
X101528497Y-60639934D01*
X101473096Y-60698389D01*
X101413290Y-60758156D01*
X101357237Y-60811018D01*
X101313093Y-60848761D01*
X101289016Y-60863167D01*
X101279103Y-60858607D01*
X101242579Y-60830467D01*
X101188459Y-60782344D01*
X101124407Y-60720860D01*
X101088431Y-60684480D01*
X101033196Y-60625475D01*
X100995162Y-60580562D01*
X100981000Y-60557349D01*
X100982377Y-60552678D01*
X101004497Y-60521494D01*
X101047337Y-60472567D01*
X101102738Y-60414112D01*
X101162544Y-60354345D01*
X101218598Y-60301483D01*
X101262742Y-60263740D01*
X101286818Y-60249334D01*
X101291490Y-60250710D01*
G37*
X101291490Y-60250710D02*
X101322674Y-60272831D01*
X101371601Y-60315670D01*
X101430056Y-60371072D01*
X101489823Y-60430878D01*
X101542685Y-60486931D01*
X101580427Y-60531075D01*
X101594834Y-60555152D01*
X101593457Y-60559823D01*
X101571337Y-60591007D01*
X101528497Y-60639934D01*
X101473096Y-60698389D01*
X101413290Y-60758156D01*
X101357237Y-60811018D01*
X101313093Y-60848761D01*
X101289016Y-60863167D01*
X101279103Y-60858607D01*
X101242579Y-60830467D01*
X101188459Y-60782344D01*
X101124407Y-60720860D01*
X101088431Y-60684480D01*
X101033196Y-60625475D01*
X100995162Y-60580562D01*
X100981000Y-60557349D01*
X100982377Y-60552678D01*
X101004497Y-60521494D01*
X101047337Y-60472567D01*
X101102738Y-60414112D01*
X101162544Y-60354345D01*
X101218598Y-60301483D01*
X101262742Y-60263740D01*
X101286818Y-60249334D01*
X101291490Y-60250710D01*
G36*
X101288499Y-60905738D02*
G01*
X101314917Y-60923405D01*
X101361753Y-60963898D01*
X101421628Y-61019875D01*
X101487165Y-61083992D01*
X101550983Y-61148907D01*
X101605703Y-61207277D01*
X101643946Y-61251758D01*
X101658334Y-61275008D01*
X101658096Y-61276499D01*
X101640429Y-61302917D01*
X101599936Y-61349753D01*
X101543959Y-61409628D01*
X101479842Y-61475165D01*
X101414927Y-61538983D01*
X101356558Y-61593703D01*
X101312076Y-61631946D01*
X101288827Y-61646334D01*
X101268279Y-61633743D01*
X101224001Y-61596564D01*
X101163188Y-61540718D01*
X101092568Y-61472176D01*
X101027375Y-61405790D01*
X100970335Y-61344522D01*
X100931709Y-61299302D01*
X100917500Y-61276827D01*
X100917738Y-61275335D01*
X100935405Y-61248918D01*
X100975898Y-61202082D01*
X101031875Y-61142206D01*
X101095992Y-61076670D01*
X101160907Y-61012852D01*
X101219277Y-60958132D01*
X101263758Y-60919888D01*
X101287008Y-60905500D01*
X101288499Y-60905738D01*
G37*
X101288499Y-60905738D02*
X101314917Y-60923405D01*
X101361753Y-60963898D01*
X101421628Y-61019875D01*
X101487165Y-61083992D01*
X101550983Y-61148907D01*
X101605703Y-61207277D01*
X101643946Y-61251758D01*
X101658334Y-61275008D01*
X101658096Y-61276499D01*
X101640429Y-61302917D01*
X101599936Y-61349753D01*
X101543959Y-61409628D01*
X101479842Y-61475165D01*
X101414927Y-61538983D01*
X101356558Y-61593703D01*
X101312076Y-61631946D01*
X101288827Y-61646334D01*
X101268279Y-61633743D01*
X101224001Y-61596564D01*
X101163188Y-61540718D01*
X101092568Y-61472176D01*
X101027375Y-61405790D01*
X100970335Y-61344522D01*
X100931709Y-61299302D01*
X100917500Y-61276827D01*
X100917738Y-61275335D01*
X100935405Y-61248918D01*
X100975898Y-61202082D01*
X101031875Y-61142206D01*
X101095992Y-61076670D01*
X101160907Y-61012852D01*
X101219277Y-60958132D01*
X101263758Y-60919888D01*
X101287008Y-60905500D01*
X101288499Y-60905738D01*
G36*
X101532962Y-54151706D02*
G01*
X101556102Y-54176389D01*
X101581114Y-54215703D01*
X101592277Y-54265176D01*
X101594834Y-54340828D01*
X101593021Y-54397127D01*
X101585382Y-54471767D01*
X101573802Y-54523396D01*
X101571046Y-54530642D01*
X101562382Y-54551247D01*
X101551366Y-54569090D01*
X101535143Y-54584371D01*
X101510857Y-54597288D01*
X101475651Y-54608040D01*
X101426671Y-54616826D01*
X101361059Y-54623843D01*
X101275961Y-54629291D01*
X101168520Y-54633368D01*
X101035881Y-54636273D01*
X100875187Y-54638205D01*
X100683584Y-54639361D01*
X100458215Y-54639941D01*
X100196224Y-54640144D01*
X99894756Y-54640167D01*
X99575215Y-54639916D01*
X99284949Y-54639115D01*
X99034858Y-54637748D01*
X98823848Y-54635800D01*
X98650823Y-54633252D01*
X98514687Y-54630091D01*
X98414345Y-54626298D01*
X98348700Y-54621859D01*
X98316659Y-54616755D01*
X98260644Y-54584335D01*
X98217930Y-54537380D01*
X98209039Y-54518240D01*
X98193919Y-54444274D01*
X98192808Y-54335990D01*
X98197431Y-54263696D01*
X98207166Y-54209289D01*
X98225833Y-54172516D01*
X98257809Y-54140199D01*
X98316361Y-54089834D01*
X101471090Y-54089834D01*
X101532962Y-54151706D01*
G37*
X101532962Y-54151706D02*
X101556102Y-54176389D01*
X101581114Y-54215703D01*
X101592277Y-54265176D01*
X101594834Y-54340828D01*
X101593021Y-54397127D01*
X101585382Y-54471767D01*
X101573802Y-54523396D01*
X101571046Y-54530642D01*
X101562382Y-54551247D01*
X101551366Y-54569090D01*
X101535143Y-54584371D01*
X101510857Y-54597288D01*
X101475651Y-54608040D01*
X101426671Y-54616826D01*
X101361059Y-54623843D01*
X101275961Y-54629291D01*
X101168520Y-54633368D01*
X101035881Y-54636273D01*
X100875187Y-54638205D01*
X100683584Y-54639361D01*
X100458215Y-54639941D01*
X100196224Y-54640144D01*
X99894756Y-54640167D01*
X99575215Y-54639916D01*
X99284949Y-54639115D01*
X99034858Y-54637748D01*
X98823848Y-54635800D01*
X98650823Y-54633252D01*
X98514687Y-54630091D01*
X98414345Y-54626298D01*
X98348700Y-54621859D01*
X98316659Y-54616755D01*
X98260644Y-54584335D01*
X98217930Y-54537380D01*
X98209039Y-54518240D01*
X98193919Y-54444274D01*
X98192808Y-54335990D01*
X98197431Y-54263696D01*
X98207166Y-54209289D01*
X98225833Y-54172516D01*
X98257809Y-54140199D01*
X98316361Y-54089834D01*
X101471090Y-54089834D01*
X101532962Y-54151706D01*
G36*
X98551172Y-55117902D02*
G01*
X98625029Y-55156905D01*
X98684417Y-55207977D01*
X98690301Y-56225412D01*
X98696184Y-57242848D01*
X100750596Y-57248549D01*
X102805009Y-57254250D01*
X102856088Y-57313639D01*
X102881224Y-57347524D01*
X102897669Y-57388296D01*
X102905301Y-57445307D01*
X102907167Y-57531560D01*
X102907164Y-57536777D01*
X102905357Y-57619637D01*
X102898132Y-57673221D01*
X102882435Y-57709900D01*
X102855213Y-57742046D01*
X102803258Y-57794000D01*
X98310744Y-57794000D01*
X98185999Y-57669255D01*
X98191791Y-56438619D01*
X98197584Y-55207983D01*
X98256972Y-55156909D01*
X98279877Y-55140462D01*
X98362347Y-55109680D01*
X98458195Y-55102160D01*
X98551172Y-55117902D01*
G37*
X98551172Y-55117902D02*
X98625029Y-55156905D01*
X98684417Y-55207977D01*
X98690301Y-56225412D01*
X98696184Y-57242848D01*
X100750596Y-57248549D01*
X102805009Y-57254250D01*
X102856088Y-57313639D01*
X102881224Y-57347524D01*
X102897669Y-57388296D01*
X102905301Y-57445307D01*
X102907167Y-57531560D01*
X102907164Y-57536777D01*
X102905357Y-57619637D01*
X102898132Y-57673221D01*
X102882435Y-57709900D01*
X102855213Y-57742046D01*
X102803258Y-57794000D01*
X98310744Y-57794000D01*
X98185999Y-57669255D01*
X98191791Y-56438619D01*
X98197584Y-55207983D01*
X98256972Y-55156909D01*
X98279877Y-55140462D01*
X98362347Y-55109680D01*
X98458195Y-55102160D01*
X98551172Y-55117902D01*
G36*
X98476784Y-52122231D02*
G01*
X98536252Y-52128466D01*
X98575453Y-52143642D01*
X98607482Y-52171215D01*
X98612325Y-52176728D01*
X98646316Y-52235176D01*
X98667075Y-52303507D01*
X98687718Y-52390850D01*
X98734793Y-52479553D01*
X98806484Y-52539017D01*
X98812272Y-52541970D01*
X98827804Y-52548004D01*
X98849113Y-52553337D01*
X98878812Y-52558032D01*
X98919511Y-52562150D01*
X98973820Y-52565753D01*
X99044352Y-52568902D01*
X99133717Y-52571659D01*
X99244527Y-52574086D01*
X99379392Y-52576244D01*
X99540923Y-52578195D01*
X99731732Y-52580001D01*
X99954430Y-52581723D01*
X100211627Y-52583422D01*
X100505935Y-52585161D01*
X100839966Y-52587000D01*
X102805014Y-52597584D01*
X102856091Y-52656972D01*
X102875156Y-52681436D01*
X102895285Y-52722808D01*
X102904783Y-52778170D01*
X102907167Y-52861616D01*
X102906527Y-52924190D01*
X102901176Y-52999426D01*
X102887455Y-53048282D01*
X102861884Y-53080636D01*
X102820987Y-53106367D01*
X102806493Y-53111581D01*
X102781989Y-53116320D01*
X102745281Y-53120454D01*
X102693860Y-53124022D01*
X102625215Y-53127062D01*
X102536834Y-53129614D01*
X102426207Y-53131714D01*
X102290823Y-53133402D01*
X102128170Y-53134716D01*
X101935739Y-53135694D01*
X101711019Y-53136375D01*
X101451497Y-53136798D01*
X101154665Y-53137000D01*
X100818010Y-53137021D01*
X100521621Y-53136947D01*
X100211854Y-53136736D01*
X99939441Y-53136283D01*
X99701698Y-53135473D01*
X99495940Y-53134193D01*
X99319483Y-53132331D01*
X99169642Y-53129771D01*
X99043733Y-53126402D01*
X98939071Y-53122109D01*
X98852971Y-53116778D01*
X98782749Y-53110297D01*
X98725720Y-53102551D01*
X98679201Y-53093428D01*
X98640505Y-53082814D01*
X98606950Y-53070594D01*
X98575850Y-53056657D01*
X98544520Y-53040887D01*
X98435851Y-52967283D01*
X98328128Y-52854270D01*
X98242858Y-52718862D01*
X98187752Y-52571212D01*
X98179237Y-52518409D01*
X98173338Y-52434689D01*
X98173026Y-52346329D01*
X98180519Y-52256284D01*
X98202092Y-52187687D01*
X98244312Y-52146577D01*
X98314127Y-52126583D01*
X98418489Y-52121334D01*
X98476784Y-52122231D01*
G37*
X98476784Y-52122231D02*
X98536252Y-52128466D01*
X98575453Y-52143642D01*
X98607482Y-52171215D01*
X98612325Y-52176728D01*
X98646316Y-52235176D01*
X98667075Y-52303507D01*
X98687718Y-52390850D01*
X98734793Y-52479553D01*
X98806484Y-52539017D01*
X98812272Y-52541970D01*
X98827804Y-52548004D01*
X98849113Y-52553337D01*
X98878812Y-52558032D01*
X98919511Y-52562150D01*
X98973820Y-52565753D01*
X99044352Y-52568902D01*
X99133717Y-52571659D01*
X99244527Y-52574086D01*
X99379392Y-52576244D01*
X99540923Y-52578195D01*
X99731732Y-52580001D01*
X99954430Y-52581723D01*
X100211627Y-52583422D01*
X100505935Y-52585161D01*
X100839966Y-52587000D01*
X102805014Y-52597584D01*
X102856091Y-52656972D01*
X102875156Y-52681436D01*
X102895285Y-52722808D01*
X102904783Y-52778170D01*
X102907167Y-52861616D01*
X102906527Y-52924190D01*
X102901176Y-52999426D01*
X102887455Y-53048282D01*
X102861884Y-53080636D01*
X102820987Y-53106367D01*
X102806493Y-53111581D01*
X102781989Y-53116320D01*
X102745281Y-53120454D01*
X102693860Y-53124022D01*
X102625215Y-53127062D01*
X102536834Y-53129614D01*
X102426207Y-53131714D01*
X102290823Y-53133402D01*
X102128170Y-53134716D01*
X101935739Y-53135694D01*
X101711019Y-53136375D01*
X101451497Y-53136798D01*
X101154665Y-53137000D01*
X100818010Y-53137021D01*
X100521621Y-53136947D01*
X100211854Y-53136736D01*
X99939441Y-53136283D01*
X99701698Y-53135473D01*
X99495940Y-53134193D01*
X99319483Y-53132331D01*
X99169642Y-53129771D01*
X99043733Y-53126402D01*
X98939071Y-53122109D01*
X98852971Y-53116778D01*
X98782749Y-53110297D01*
X98725720Y-53102551D01*
X98679201Y-53093428D01*
X98640505Y-53082814D01*
X98606950Y-53070594D01*
X98575850Y-53056657D01*
X98544520Y-53040887D01*
X98435851Y-52967283D01*
X98328128Y-52854270D01*
X98242858Y-52718862D01*
X98187752Y-52571212D01*
X98179237Y-52518409D01*
X98173338Y-52434689D01*
X98173026Y-52346329D01*
X98180519Y-52256284D01*
X98202092Y-52187687D01*
X98244312Y-52146577D01*
X98314127Y-52126583D01*
X98418489Y-52121334D01*
X98476784Y-52122231D01*
G36*
X101442611Y-44413882D02*
G01*
X101255914Y-44335373D01*
X101084842Y-44220453D01*
X100933634Y-44069927D01*
X100919588Y-44053186D01*
X100869458Y-43995772D01*
X100831229Y-43955565D01*
X100812265Y-43940417D01*
X100805031Y-43944971D01*
X100774292Y-43974551D01*
X100726743Y-44025568D01*
X100669154Y-44090903D01*
X100635774Y-44128647D01*
X100452308Y-44303797D01*
X100254884Y-44443340D01*
X100047116Y-44547005D01*
X99832620Y-44614523D01*
X99615008Y-44645621D01*
X99584450Y-44644834D01*
X99397896Y-44640030D01*
X99184897Y-44597478D01*
X98979626Y-44517696D01*
X98785697Y-44400412D01*
X98606723Y-44245356D01*
X98517351Y-44142952D01*
X98393097Y-43957031D01*
X98290793Y-43747264D01*
X98214880Y-43523311D01*
X98169797Y-43294834D01*
X98158093Y-43193920D01*
X98150179Y-43096053D01*
X98149548Y-43048009D01*
X98737031Y-43048009D01*
X98759454Y-43248535D01*
X98819536Y-43437160D01*
X98915876Y-43609205D01*
X99047072Y-43759988D01*
X99092812Y-43800164D01*
X99247341Y-43902508D01*
X99412345Y-43965882D01*
X99584450Y-43990783D01*
X99760285Y-43977709D01*
X99936476Y-43927156D01*
X100109652Y-43839622D01*
X100276440Y-43715604D01*
X100433467Y-43555599D01*
X100531517Y-43440143D01*
X100384157Y-43097614D01*
X100375579Y-43077708D01*
X100280696Y-42863351D01*
X100196153Y-42685102D01*
X100146967Y-42591534D01*
X100770308Y-42591534D01*
X100775227Y-42606246D01*
X100794537Y-42654813D01*
X100825867Y-42730386D01*
X100866428Y-42826257D01*
X100913430Y-42935715D01*
X100948113Y-43014778D01*
X101047022Y-43225178D01*
X101140555Y-43398096D01*
X101231465Y-43536437D01*
X101322504Y-43643107D01*
X101416425Y-43721008D01*
X101515979Y-43773046D01*
X101623921Y-43802126D01*
X101743000Y-43811152D01*
X101805206Y-43808837D01*
X101952312Y-43779811D01*
X102080257Y-43715254D01*
X102195616Y-43612278D01*
X102213777Y-43591226D01*
X102300367Y-43455786D01*
X102358945Y-43299152D01*
X102389851Y-43129166D01*
X102393424Y-42953667D01*
X102370003Y-42780495D01*
X102319927Y-42617490D01*
X102243536Y-42472492D01*
X102141167Y-42353340D01*
X102070922Y-42297324D01*
X101950179Y-42232647D01*
X101812197Y-42196954D01*
X101647750Y-42187138D01*
X101491830Y-42200723D01*
X101284620Y-42255785D01*
X101079015Y-42353094D01*
X100874934Y-42492680D01*
X100824824Y-42534246D01*
X100785148Y-42571444D01*
X100770308Y-42591534D01*
X100146967Y-42591534D01*
X100119420Y-42539131D01*
X100047966Y-42421607D01*
X99979261Y-42328701D01*
X99910777Y-42256584D01*
X99839982Y-42201426D01*
X99764346Y-42159397D01*
X99720986Y-42141499D01*
X99575358Y-42109750D01*
X99423267Y-42114667D01*
X99272391Y-42154505D01*
X99130404Y-42227519D01*
X99004983Y-42331966D01*
X98962876Y-42380423D01*
X98875989Y-42510542D01*
X98805561Y-42657483D01*
X98760653Y-42803751D01*
X98753670Y-42840263D01*
X98737031Y-43048009D01*
X98149548Y-43048009D01*
X98149035Y-43008978D01*
X98154550Y-42915731D01*
X98166617Y-42799347D01*
X98187696Y-42660488D01*
X98255641Y-42405745D01*
X98358182Y-42171220D01*
X98493745Y-41960172D01*
X98660757Y-41775857D01*
X98831208Y-41641569D01*
X99020612Y-41537979D01*
X99220469Y-41468842D01*
X99425343Y-41435045D01*
X99629801Y-41437476D01*
X99828407Y-41477023D01*
X100015725Y-41554572D01*
X100075769Y-41592156D01*
X100176341Y-41671407D01*
X100280536Y-41769136D01*
X100377356Y-41874769D01*
X100455802Y-41977729D01*
X100495672Y-42035244D01*
X100522699Y-42065384D01*
X100541704Y-42069812D01*
X100559936Y-42053824D01*
X100576276Y-42035530D01*
X100656527Y-41964480D01*
X100765490Y-41886696D01*
X100894188Y-41807171D01*
X101033649Y-41730899D01*
X101174896Y-41662872D01*
X101308956Y-41608083D01*
X101426853Y-41571526D01*
X101534107Y-41552186D01*
X101694458Y-41539783D01*
X101857081Y-41542671D01*
X102001250Y-41561220D01*
X102187726Y-41618336D01*
X102371699Y-41715672D01*
X102535887Y-41847344D01*
X102676329Y-42010136D01*
X102789062Y-42200830D01*
X102828627Y-42286225D01*
X102882290Y-42419349D01*
X102919533Y-42544717D01*
X102943007Y-42674750D01*
X102955361Y-42821871D01*
X102959246Y-42998500D01*
X102959236Y-43029781D01*
X102953607Y-43221237D01*
X102936691Y-43383885D01*
X102906274Y-43528717D01*
X102860143Y-43666726D01*
X102796085Y-43808906D01*
X102701787Y-43965010D01*
X102580172Y-44112352D01*
X102442621Y-44237081D01*
X102298517Y-44329384D01*
X102260807Y-44347676D01*
X102054029Y-44422876D01*
X101845910Y-44458440D01*
X101743000Y-44456801D01*
X101640690Y-44455173D01*
X101442611Y-44413882D01*
G37*
X101442611Y-44413882D02*
X101255914Y-44335373D01*
X101084842Y-44220453D01*
X100933634Y-44069927D01*
X100919588Y-44053186D01*
X100869458Y-43995772D01*
X100831229Y-43955565D01*
X100812265Y-43940417D01*
X100805031Y-43944971D01*
X100774292Y-43974551D01*
X100726743Y-44025568D01*
X100669154Y-44090903D01*
X100635774Y-44128647D01*
X100452308Y-44303797D01*
X100254884Y-44443340D01*
X100047116Y-44547005D01*
X99832620Y-44614523D01*
X99615008Y-44645621D01*
X99584450Y-44644834D01*
X99397896Y-44640030D01*
X99184897Y-44597478D01*
X98979626Y-44517696D01*
X98785697Y-44400412D01*
X98606723Y-44245356D01*
X98517351Y-44142952D01*
X98393097Y-43957031D01*
X98290793Y-43747264D01*
X98214880Y-43523311D01*
X98169797Y-43294834D01*
X98158093Y-43193920D01*
X98150179Y-43096053D01*
X98149548Y-43048009D01*
X98737031Y-43048009D01*
X98759454Y-43248535D01*
X98819536Y-43437160D01*
X98915876Y-43609205D01*
X99047072Y-43759988D01*
X99092812Y-43800164D01*
X99247341Y-43902508D01*
X99412345Y-43965882D01*
X99584450Y-43990783D01*
X99760285Y-43977709D01*
X99936476Y-43927156D01*
X100109652Y-43839622D01*
X100276440Y-43715604D01*
X100433467Y-43555599D01*
X100531517Y-43440143D01*
X100384157Y-43097614D01*
X100375579Y-43077708D01*
X100280696Y-42863351D01*
X100196153Y-42685102D01*
X100146967Y-42591534D01*
X100770308Y-42591534D01*
X100775227Y-42606246D01*
X100794537Y-42654813D01*
X100825867Y-42730386D01*
X100866428Y-42826257D01*
X100913430Y-42935715D01*
X100948113Y-43014778D01*
X101047022Y-43225178D01*
X101140555Y-43398096D01*
X101231465Y-43536437D01*
X101322504Y-43643107D01*
X101416425Y-43721008D01*
X101515979Y-43773046D01*
X101623921Y-43802126D01*
X101743000Y-43811152D01*
X101805206Y-43808837D01*
X101952312Y-43779811D01*
X102080257Y-43715254D01*
X102195616Y-43612278D01*
X102213777Y-43591226D01*
X102300367Y-43455786D01*
X102358945Y-43299152D01*
X102389851Y-43129166D01*
X102393424Y-42953667D01*
X102370003Y-42780495D01*
X102319927Y-42617490D01*
X102243536Y-42472492D01*
X102141167Y-42353340D01*
X102070922Y-42297324D01*
X101950179Y-42232647D01*
X101812197Y-42196954D01*
X101647750Y-42187138D01*
X101491830Y-42200723D01*
X101284620Y-42255785D01*
X101079015Y-42353094D01*
X100874934Y-42492680D01*
X100824824Y-42534246D01*
X100785148Y-42571444D01*
X100770308Y-42591534D01*
X100146967Y-42591534D01*
X100119420Y-42539131D01*
X100047966Y-42421607D01*
X99979261Y-42328701D01*
X99910777Y-42256584D01*
X99839982Y-42201426D01*
X99764346Y-42159397D01*
X99720986Y-42141499D01*
X99575358Y-42109750D01*
X99423267Y-42114667D01*
X99272391Y-42154505D01*
X99130404Y-42227519D01*
X99004983Y-42331966D01*
X98962876Y-42380423D01*
X98875989Y-42510542D01*
X98805561Y-42657483D01*
X98760653Y-42803751D01*
X98753670Y-42840263D01*
X98737031Y-43048009D01*
X98149548Y-43048009D01*
X98149035Y-43008978D01*
X98154550Y-42915731D01*
X98166617Y-42799347D01*
X98187696Y-42660488D01*
X98255641Y-42405745D01*
X98358182Y-42171220D01*
X98493745Y-41960172D01*
X98660757Y-41775857D01*
X98831208Y-41641569D01*
X99020612Y-41537979D01*
X99220469Y-41468842D01*
X99425343Y-41435045D01*
X99629801Y-41437476D01*
X99828407Y-41477023D01*
X100015725Y-41554572D01*
X100075769Y-41592156D01*
X100176341Y-41671407D01*
X100280536Y-41769136D01*
X100377356Y-41874769D01*
X100455802Y-41977729D01*
X100495672Y-42035244D01*
X100522699Y-42065384D01*
X100541704Y-42069812D01*
X100559936Y-42053824D01*
X100576276Y-42035530D01*
X100656527Y-41964480D01*
X100765490Y-41886696D01*
X100894188Y-41807171D01*
X101033649Y-41730899D01*
X101174896Y-41662872D01*
X101308956Y-41608083D01*
X101426853Y-41571526D01*
X101534107Y-41552186D01*
X101694458Y-41539783D01*
X101857081Y-41542671D01*
X102001250Y-41561220D01*
X102187726Y-41618336D01*
X102371699Y-41715672D01*
X102535887Y-41847344D01*
X102676329Y-42010136D01*
X102789062Y-42200830D01*
X102828627Y-42286225D01*
X102882290Y-42419349D01*
X102919533Y-42544717D01*
X102943007Y-42674750D01*
X102955361Y-42821871D01*
X102959246Y-42998500D01*
X102959236Y-43029781D01*
X102953607Y-43221237D01*
X102936691Y-43383885D01*
X102906274Y-43528717D01*
X102860143Y-43666726D01*
X102796085Y-43808906D01*
X102701787Y-43965010D01*
X102580172Y-44112352D01*
X102442621Y-44237081D01*
X102298517Y-44329384D01*
X102260807Y-44347676D01*
X102054029Y-44422876D01*
X101845910Y-44458440D01*
X101743000Y-44456801D01*
X101640690Y-44455173D01*
X101442611Y-44413882D01*
G36*
X99823542Y-45338519D02*
G01*
X99920238Y-45340778D01*
X99995629Y-45346579D01*
X100060851Y-45357282D01*
X100127044Y-45374251D01*
X100205345Y-45398847D01*
X100273316Y-45422981D01*
X100492239Y-45528584D01*
X100687774Y-45667279D01*
X100857533Y-45835928D01*
X100999131Y-46031395D01*
X101110181Y-46250543D01*
X101188296Y-46490232D01*
X101231090Y-46747327D01*
X101239235Y-46946880D01*
X101218114Y-47180978D01*
X101161547Y-47395124D01*
X101158834Y-47402618D01*
X101134777Y-47471322D01*
X101118814Y-47520952D01*
X101114280Y-47541206D01*
X101115024Y-47541318D01*
X101142668Y-47539350D01*
X101206143Y-47533230D01*
X101300094Y-47523521D01*
X101419165Y-47510785D01*
X101558003Y-47495584D01*
X101711250Y-47478482D01*
X102303917Y-47411750D01*
X102314500Y-46586250D01*
X102315164Y-46535834D01*
X102318595Y-46314196D01*
X102322421Y-46131723D01*
X102326754Y-45985786D01*
X102331705Y-45873757D01*
X102337386Y-45793005D01*
X102343907Y-45740903D01*
X102351380Y-45714821D01*
X102365050Y-45696488D01*
X102424606Y-45656977D01*
X102507669Y-45632715D01*
X102602396Y-45624138D01*
X102696945Y-45631683D01*
X102779472Y-45655785D01*
X102838136Y-45696882D01*
X102886000Y-45752528D01*
X102886001Y-46821226D01*
X102886001Y-47889925D01*
X102836480Y-47939445D01*
X102834305Y-47941637D01*
X102822042Y-47954096D01*
X102809560Y-47964787D01*
X102793370Y-47974222D01*
X102769979Y-47982914D01*
X102735898Y-47991377D01*
X102687636Y-48000122D01*
X102621703Y-48009662D01*
X102534607Y-48020510D01*
X102422859Y-48033178D01*
X102282967Y-48048180D01*
X102111442Y-48066028D01*
X101904792Y-48087234D01*
X101659526Y-48112312D01*
X101577573Y-48120691D01*
X101364613Y-48142360D01*
X101188579Y-48159968D01*
X101045609Y-48173745D01*
X100931841Y-48183922D01*
X100843415Y-48190727D01*
X100776468Y-48194391D01*
X100727138Y-48195142D01*
X100691565Y-48193212D01*
X100665886Y-48188829D01*
X100646241Y-48182223D01*
X100628766Y-48173624D01*
X100618901Y-48167918D01*
X100551451Y-48102967D01*
X100503068Y-48006810D01*
X100477739Y-47887016D01*
X100475960Y-47848519D01*
X100482756Y-47786265D01*
X100503869Y-47711498D01*
X100542197Y-47611850D01*
X100598242Y-47463602D01*
X100636767Y-47325663D01*
X100657294Y-47191573D01*
X100663188Y-47045584D01*
X100651412Y-46871181D01*
X100605363Y-46666616D01*
X100526502Y-46481732D01*
X100416968Y-46320283D01*
X100278900Y-46186022D01*
X100114438Y-46082704D01*
X100072206Y-46062427D01*
X100018861Y-46040045D01*
X99968439Y-46026043D01*
X99909628Y-46018465D01*
X99831114Y-46015353D01*
X99721584Y-46014750D01*
X99682414Y-46014812D01*
X99581822Y-46016307D01*
X99508928Y-46021088D01*
X99452610Y-46030849D01*
X99401746Y-46047285D01*
X99345215Y-46072090D01*
X99343500Y-46072896D01*
X99187439Y-46168904D01*
X99049822Y-46297938D01*
X98935915Y-46452852D01*
X98850982Y-46626501D01*
X98800288Y-46811737D01*
X98782625Y-46986885D01*
X98796280Y-47202190D01*
X98850881Y-47409848D01*
X98946851Y-47611335D01*
X99084610Y-47808127D01*
X99145221Y-47888286D01*
X99186270Y-47964978D01*
X99194479Y-48030953D01*
X99168558Y-48093556D01*
X99107220Y-48160133D01*
X99009174Y-48238029D01*
X98944192Y-48282903D01*
X98867129Y-48321695D01*
X98802314Y-48329542D01*
X98740379Y-48306896D01*
X98671958Y-48254205D01*
X98639586Y-48223643D01*
X98505489Y-48066618D01*
X98387370Y-47878194D01*
X98288889Y-47665987D01*
X98213707Y-47437609D01*
X98165485Y-47200676D01*
X98153566Y-47013534D01*
X98165520Y-46804205D01*
X98199527Y-46590004D01*
X98253324Y-46385109D01*
X98324648Y-46203700D01*
X98438842Y-46002169D01*
X98594512Y-45804731D01*
X98779022Y-45638276D01*
X98992418Y-45502762D01*
X99234750Y-45398146D01*
X99292693Y-45378756D01*
X99356184Y-45360988D01*
X99419014Y-45349415D01*
X99491928Y-45342689D01*
X99585675Y-45339460D01*
X99711000Y-45338381D01*
X99823542Y-45338519D01*
G37*
X99823542Y-45338519D02*
X99920238Y-45340778D01*
X99995629Y-45346579D01*
X100060851Y-45357282D01*
X100127044Y-45374251D01*
X100205345Y-45398847D01*
X100273316Y-45422981D01*
X100492239Y-45528584D01*
X100687774Y-45667279D01*
X100857533Y-45835928D01*
X100999131Y-46031395D01*
X101110181Y-46250543D01*
X101188296Y-46490232D01*
X101231090Y-46747327D01*
X101239235Y-46946880D01*
X101218114Y-47180978D01*
X101161547Y-47395124D01*
X101158834Y-47402618D01*
X101134777Y-47471322D01*
X101118814Y-47520952D01*
X101114280Y-47541206D01*
X101115024Y-47541318D01*
X101142668Y-47539350D01*
X101206143Y-47533230D01*
X101300094Y-47523521D01*
X101419165Y-47510785D01*
X101558003Y-47495584D01*
X101711250Y-47478482D01*
X102303917Y-47411750D01*
X102314500Y-46586250D01*
X102315164Y-46535834D01*
X102318595Y-46314196D01*
X102322421Y-46131723D01*
X102326754Y-45985786D01*
X102331705Y-45873757D01*
X102337386Y-45793005D01*
X102343907Y-45740903D01*
X102351380Y-45714821D01*
X102365050Y-45696488D01*
X102424606Y-45656977D01*
X102507669Y-45632715D01*
X102602396Y-45624138D01*
X102696945Y-45631683D01*
X102779472Y-45655785D01*
X102838136Y-45696882D01*
X102886000Y-45752528D01*
X102886001Y-46821226D01*
X102886001Y-47889925D01*
X102836480Y-47939445D01*
X102834305Y-47941637D01*
X102822042Y-47954096D01*
X102809560Y-47964787D01*
X102793370Y-47974222D01*
X102769979Y-47982914D01*
X102735898Y-47991377D01*
X102687636Y-48000122D01*
X102621703Y-48009662D01*
X102534607Y-48020510D01*
X102422859Y-48033178D01*
X102282967Y-48048180D01*
X102111442Y-48066028D01*
X101904792Y-48087234D01*
X101659526Y-48112312D01*
X101577573Y-48120691D01*
X101364613Y-48142360D01*
X101188579Y-48159968D01*
X101045609Y-48173745D01*
X100931841Y-48183922D01*
X100843415Y-48190727D01*
X100776468Y-48194391D01*
X100727138Y-48195142D01*
X100691565Y-48193212D01*
X100665886Y-48188829D01*
X100646241Y-48182223D01*
X100628766Y-48173624D01*
X100618901Y-48167918D01*
X100551451Y-48102967D01*
X100503068Y-48006810D01*
X100477739Y-47887016D01*
X100475960Y-47848519D01*
X100482756Y-47786265D01*
X100503869Y-47711498D01*
X100542197Y-47611850D01*
X100598242Y-47463602D01*
X100636767Y-47325663D01*
X100657294Y-47191573D01*
X100663188Y-47045584D01*
X100651412Y-46871181D01*
X100605363Y-46666616D01*
X100526502Y-46481732D01*
X100416968Y-46320283D01*
X100278900Y-46186022D01*
X100114438Y-46082704D01*
X100072206Y-46062427D01*
X100018861Y-46040045D01*
X99968439Y-46026043D01*
X99909628Y-46018465D01*
X99831114Y-46015353D01*
X99721584Y-46014750D01*
X99682414Y-46014812D01*
X99581822Y-46016307D01*
X99508928Y-46021088D01*
X99452610Y-46030849D01*
X99401746Y-46047285D01*
X99345215Y-46072090D01*
X99343500Y-46072896D01*
X99187439Y-46168904D01*
X99049822Y-46297938D01*
X98935915Y-46452852D01*
X98850982Y-46626501D01*
X98800288Y-46811737D01*
X98782625Y-46986885D01*
X98796280Y-47202190D01*
X98850881Y-47409848D01*
X98946851Y-47611335D01*
X99084610Y-47808127D01*
X99145221Y-47888286D01*
X99186270Y-47964978D01*
X99194479Y-48030953D01*
X99168558Y-48093556D01*
X99107220Y-48160133D01*
X99009174Y-48238029D01*
X98944192Y-48282903D01*
X98867129Y-48321695D01*
X98802314Y-48329542D01*
X98740379Y-48306896D01*
X98671958Y-48254205D01*
X98639586Y-48223643D01*
X98505489Y-48066618D01*
X98387370Y-47878194D01*
X98288889Y-47665987D01*
X98213707Y-47437609D01*
X98165485Y-47200676D01*
X98153566Y-47013534D01*
X98165520Y-46804205D01*
X98199527Y-46590004D01*
X98253324Y-46385109D01*
X98324648Y-46203700D01*
X98438842Y-46002169D01*
X98594512Y-45804731D01*
X98779022Y-45638276D01*
X98992418Y-45502762D01*
X99234750Y-45398146D01*
X99292693Y-45378756D01*
X99356184Y-45360988D01*
X99419014Y-45349415D01*
X99491928Y-45342689D01*
X99585675Y-45339460D01*
X99711000Y-45338381D01*
X99823542Y-45338519D01*
G36*
X99205933Y-68578417D02*
G01*
X99043840Y-68419667D01*
X98925588Y-68297548D01*
X98749796Y-68095767D01*
X98573403Y-67871736D01*
X98404169Y-67635925D01*
X98249851Y-67398801D01*
X98118211Y-67170834D01*
X98051246Y-67038527D01*
X97932189Y-66763044D01*
X97831208Y-66474169D01*
X97752866Y-66185695D01*
X97701723Y-65911417D01*
X97693175Y-65827481D01*
X97687118Y-65671146D01*
X97688213Y-65588498D01*
X98065468Y-65588498D01*
X98073957Y-65763314D01*
X98092839Y-65910256D01*
X98151861Y-66150478D01*
X98240712Y-66409038D01*
X98355497Y-66676353D01*
X98492494Y-66943757D01*
X98647980Y-67202584D01*
X98664984Y-67228341D01*
X98730345Y-67322437D01*
X98807509Y-67427999D01*
X98890466Y-67537334D01*
X98973209Y-67642746D01*
X99049730Y-67736541D01*
X99114021Y-67811022D01*
X99160075Y-67858495D01*
X99206881Y-67900573D01*
X99290229Y-67805579D01*
X99333431Y-67754555D01*
X99411737Y-67656830D01*
X99500509Y-67541570D01*
X99592273Y-67418818D01*
X99679556Y-67298620D01*
X99754882Y-67191017D01*
X99810779Y-67106055D01*
X99817122Y-67095816D01*
X99985395Y-66794686D01*
X100123749Y-66486728D01*
X100230055Y-66178086D01*
X100302186Y-65874906D01*
X100338014Y-65583334D01*
X100338878Y-65567864D01*
X100333999Y-65279811D01*
X100290925Y-64979776D01*
X100210741Y-64671228D01*
X100094529Y-64357633D01*
X99943375Y-64042459D01*
X99758362Y-63729173D01*
X99727284Y-63679911D01*
X99684757Y-63605749D01*
X99662577Y-63556016D01*
X99663118Y-63535545D01*
X99686404Y-63522296D01*
X99734030Y-63488854D01*
X99792750Y-63443821D01*
X99897557Y-63360373D01*
X99970100Y-63461145D01*
X100035786Y-63555895D01*
X100196795Y-63818857D01*
X100344254Y-64103213D01*
X100472948Y-64397448D01*
X100577665Y-64690048D01*
X100653188Y-64969500D01*
X100661799Y-65014413D01*
X100678005Y-65138297D01*
X100690098Y-65287001D01*
X100697799Y-65449398D01*
X100700833Y-65614362D01*
X100698923Y-65770768D01*
X100691791Y-65907489D01*
X100679161Y-66013398D01*
X100649664Y-66178879D01*
X100725374Y-66217175D01*
X100846317Y-66270956D01*
X101015885Y-66331664D01*
X101210281Y-66389511D01*
X101420194Y-66442185D01*
X101636312Y-66487373D01*
X101849323Y-66522763D01*
X102049917Y-66546044D01*
X102127562Y-66553066D01*
X102224188Y-66562539D01*
X102302000Y-66570929D01*
X102405916Y-66583068D01*
X102392584Y-66353076D01*
X102372104Y-66126254D01*
X102333582Y-65861725D01*
X102281333Y-65596755D01*
X102218681Y-65350500D01*
X102125845Y-65068575D01*
X101984872Y-64742111D01*
X101816596Y-64447710D01*
X101620202Y-64184551D01*
X101394876Y-63951815D01*
X101139803Y-63748683D01*
X100854167Y-63574335D01*
X100537153Y-63427951D01*
X100187945Y-63308712D01*
X100143473Y-63295636D01*
X100067477Y-63272302D01*
X100013079Y-63254248D01*
X99989852Y-63244575D01*
X99993199Y-63231824D01*
X100013731Y-63192177D01*
X100046492Y-63136156D01*
X100084914Y-63074279D01*
X100122427Y-63017061D01*
X100152462Y-62975018D01*
X100168450Y-62958667D01*
X100168850Y-62958672D01*
X100203784Y-62966320D01*
X100270048Y-62986598D01*
X100359791Y-63016658D01*
X100465165Y-63053650D01*
X100578318Y-63094726D01*
X100691400Y-63137038D01*
X100796561Y-63177736D01*
X100885951Y-63213972D01*
X100951721Y-63242898D01*
X101232846Y-63395150D01*
X101517571Y-63590615D01*
X101781314Y-63815237D01*
X102017585Y-64063455D01*
X102219892Y-64329704D01*
X102222750Y-64330246D01*
X102253761Y-64320979D01*
X102311730Y-64297970D01*
X102388290Y-64264973D01*
X102475078Y-64225744D01*
X102563728Y-64184040D01*
X102645874Y-64143617D01*
X102713152Y-64108230D01*
X102723334Y-64102566D01*
X102960144Y-63960189D01*
X103205168Y-63794463D01*
X103443088Y-63616271D01*
X103658584Y-63436498D01*
X103743250Y-63361286D01*
X103648000Y-63275772D01*
X103643891Y-63272110D01*
X103587349Y-63224260D01*
X103507854Y-63159917D01*
X103415385Y-63087052D01*
X103319917Y-63013637D01*
X103255040Y-62965128D01*
X102919303Y-62737061D01*
X102587699Y-62550847D01*
X102259608Y-62406323D01*
X101934407Y-62303321D01*
X101611473Y-62241677D01*
X101290184Y-62221225D01*
X100969917Y-62241799D01*
X100650051Y-62303233D01*
X100628780Y-62308583D01*
X100555165Y-62325557D01*
X100501662Y-62335488D01*
X100478647Y-62336369D01*
X100478016Y-62333437D01*
X100484423Y-62301209D01*
X100501849Y-62242212D01*
X100527429Y-62166429D01*
X100535434Y-62143363D01*
X100558133Y-62070424D01*
X100570965Y-62016399D01*
X100571337Y-61991615D01*
X100568569Y-61989831D01*
X100533393Y-61990137D01*
X100470139Y-62005079D01*
X100387589Y-62032202D01*
X100294530Y-62069047D01*
X100244334Y-62094070D01*
X100202256Y-62132366D01*
X100176055Y-62189680D01*
X100158723Y-62238255D01*
X100127090Y-62317987D01*
X100091983Y-62399804D01*
X100090598Y-62402889D01*
X100061627Y-62463489D01*
X100033284Y-62506963D01*
X99996034Y-62542497D01*
X99940342Y-62579277D01*
X99856671Y-62626489D01*
X99829277Y-62641722D01*
X99730981Y-62698394D01*
X99635415Y-62756069D01*
X99559926Y-62804352D01*
X99440601Y-62884584D01*
X99628717Y-62877186D01*
X99675940Y-62875534D01*
X99757294Y-62875880D01*
X99802352Y-62885487D01*
X99815247Y-62908563D01*
X99800113Y-62949319D01*
X99761083Y-63011962D01*
X99719790Y-63071001D01*
X99609774Y-63195301D01*
X99488116Y-63283834D01*
X99347205Y-63341316D01*
X99179431Y-63372463D01*
X99140639Y-63377212D01*
X99008374Y-63406185D01*
X98895455Y-63456207D01*
X98794751Y-63532346D01*
X98742773Y-63590687D01*
X98699129Y-63639672D01*
X98601457Y-63783254D01*
X98520792Y-63918103D01*
X98354462Y-64234455D01*
X98225208Y-64543925D01*
X98130918Y-64851308D01*
X98126064Y-64871350D01*
X98097671Y-65027235D01*
X98077794Y-65207416D01*
X98066904Y-65398851D01*
X98065468Y-65588498D01*
X97688213Y-65588498D01*
X97689435Y-65496210D01*
X97699534Y-65316506D01*
X97716826Y-65145866D01*
X97740718Y-64998123D01*
X97759298Y-64914592D01*
X97830086Y-64663613D01*
X97923555Y-64401829D01*
X98034953Y-64139864D01*
X98159525Y-63888345D01*
X98292519Y-63657895D01*
X98429183Y-63459139D01*
X98497801Y-63369245D01*
X98351129Y-63148081D01*
X98243110Y-62976739D01*
X98063686Y-62645618D01*
X97916314Y-62306639D01*
X97802964Y-61965282D01*
X97725604Y-61627027D01*
X97686204Y-61297356D01*
X97685686Y-61286500D01*
X98061852Y-61286500D01*
X98070164Y-61490413D01*
X98102090Y-61738730D01*
X98160172Y-61983883D01*
X98246826Y-62235593D01*
X98364470Y-62503584D01*
X98390604Y-62556725D01*
X98444447Y-62660412D01*
X98503819Y-62769080D01*
X98564552Y-62875633D01*
X98622477Y-62972979D01*
X98673426Y-63054022D01*
X98713231Y-63111668D01*
X98737723Y-63138824D01*
X98742773Y-63140682D01*
X98781598Y-63139613D01*
X98837440Y-63127062D01*
X98880639Y-63110293D01*
X98914518Y-63083588D01*
X98946109Y-63037505D01*
X98984315Y-62962040D01*
X98985292Y-62959993D01*
X99045899Y-62852977D01*
X99124014Y-62751862D01*
X99223470Y-62653615D01*
X99348101Y-62555204D01*
X99501740Y-62453597D01*
X99688220Y-62345760D01*
X99911375Y-62228661D01*
X100207000Y-62079197D01*
X100244137Y-61957216D01*
X100284185Y-61800691D01*
X100323470Y-61548799D01*
X100338473Y-61284873D01*
X100328612Y-61022810D01*
X100293311Y-60776511D01*
X100214284Y-60479772D01*
X100095514Y-60167299D01*
X99940502Y-59849808D01*
X99751349Y-59531173D01*
X99530155Y-59215265D01*
X99279018Y-58905955D01*
X99205887Y-58821993D01*
X99159872Y-58863622D01*
X99134554Y-58889638D01*
X99086371Y-58943910D01*
X99025492Y-59015474D01*
X98959332Y-59095750D01*
X98760124Y-59358683D01*
X98565364Y-59656628D01*
X98398567Y-59958701D01*
X98262402Y-60259544D01*
X98159536Y-60553800D01*
X98092637Y-60836110D01*
X98084969Y-60887021D01*
X98072379Y-61010703D01*
X98064267Y-61149806D01*
X98061852Y-61286500D01*
X97685686Y-61286500D01*
X97683340Y-61237338D01*
X97692228Y-60928287D01*
X97738708Y-60608417D01*
X97821174Y-60281360D01*
X97938016Y-59950747D01*
X98087629Y-59620208D01*
X98268403Y-59293376D01*
X98478732Y-58973881D01*
X98717007Y-58665354D01*
X98981622Y-58371426D01*
X99203267Y-58143250D01*
X99385693Y-58333750D01*
X99605777Y-58577892D01*
X99842353Y-58875715D01*
X100056429Y-59184640D01*
X100243772Y-59498038D01*
X100400151Y-59809284D01*
X100521332Y-60111750D01*
X100567047Y-60247216D01*
X100614220Y-60400475D01*
X100648334Y-60535864D01*
X100671412Y-60665363D01*
X100685475Y-60800954D01*
X100692548Y-60954617D01*
X100694652Y-61138334D01*
X100694668Y-61156458D01*
X100693586Y-61320125D01*
X100689859Y-61450596D01*
X100682965Y-61556147D01*
X100672382Y-61645056D01*
X100657587Y-61725598D01*
X100651768Y-61752301D01*
X100633462Y-61833070D01*
X100618161Y-61896028D01*
X100608699Y-61929363D01*
X100609076Y-61941473D01*
X100629342Y-61945411D01*
X100677080Y-61938440D01*
X100758893Y-61920156D01*
X100836195Y-61902986D01*
X101164222Y-61856675D01*
X101499650Y-61850756D01*
X101840651Y-61884569D01*
X102185396Y-61957449D01*
X102532056Y-62068734D01*
X102878803Y-62217762D01*
X103223807Y-62403870D01*
X103565242Y-62626395D01*
X103901277Y-62884675D01*
X104230084Y-63178046D01*
X104420583Y-63360395D01*
X104230678Y-63544112D01*
X104135675Y-63633678D01*
X103847211Y-63880821D01*
X103541122Y-64109526D01*
X103225426Y-64314456D01*
X102908141Y-64490270D01*
X102597285Y-64631631D01*
X102424987Y-64700759D01*
X102485901Y-64836524D01*
X102518746Y-64913336D01*
X102595236Y-65119287D01*
X102668048Y-65351404D01*
X102734045Y-65598345D01*
X102790089Y-65848769D01*
X102833044Y-66091334D01*
X102839113Y-66135968D01*
X102851575Y-66252265D01*
X102863173Y-66390586D01*
X102872826Y-66537282D01*
X102879457Y-66678709D01*
X102892406Y-67043834D01*
X102820412Y-67046344D01*
X102814098Y-67046560D01*
X102406105Y-67041766D01*
X101987759Y-67001912D01*
X101569336Y-66928788D01*
X101161109Y-66824183D01*
X100773353Y-66689884D01*
X100768466Y-66687946D01*
X100676806Y-66652350D01*
X100601210Y-66624378D01*
X100549398Y-66606796D01*
X100529090Y-66602370D01*
X100522806Y-66616678D01*
X100503605Y-66663506D01*
X100475001Y-66734600D01*
X100440404Y-66821530D01*
X100347014Y-67033233D01*
X100201733Y-67306678D01*
X100027948Y-67586590D01*
X99830594Y-67865627D01*
X99614607Y-68136444D01*
X99384924Y-68391699D01*
X99206881Y-68577429D01*
X99205933Y-68578417D01*
G37*
X99205933Y-68578417D02*
X99043840Y-68419667D01*
X98925588Y-68297548D01*
X98749796Y-68095767D01*
X98573403Y-67871736D01*
X98404169Y-67635925D01*
X98249851Y-67398801D01*
X98118211Y-67170834D01*
X98051246Y-67038527D01*
X97932189Y-66763044D01*
X97831208Y-66474169D01*
X97752866Y-66185695D01*
X97701723Y-65911417D01*
X97693175Y-65827481D01*
X97687118Y-65671146D01*
X97688213Y-65588498D01*
X98065468Y-65588498D01*
X98073957Y-65763314D01*
X98092839Y-65910256D01*
X98151861Y-66150478D01*
X98240712Y-66409038D01*
X98355497Y-66676353D01*
X98492494Y-66943757D01*
X98647980Y-67202584D01*
X98664984Y-67228341D01*
X98730345Y-67322437D01*
X98807509Y-67427999D01*
X98890466Y-67537334D01*
X98973209Y-67642746D01*
X99049730Y-67736541D01*
X99114021Y-67811022D01*
X99160075Y-67858495D01*
X99206881Y-67900573D01*
X99290229Y-67805579D01*
X99333431Y-67754555D01*
X99411737Y-67656830D01*
X99500509Y-67541570D01*
X99592273Y-67418818D01*
X99679556Y-67298620D01*
X99754882Y-67191017D01*
X99810779Y-67106055D01*
X99817122Y-67095816D01*
X99985395Y-66794686D01*
X100123749Y-66486728D01*
X100230055Y-66178086D01*
X100302186Y-65874906D01*
X100338014Y-65583334D01*
X100338878Y-65567864D01*
X100333999Y-65279811D01*
X100290925Y-64979776D01*
X100210741Y-64671228D01*
X100094529Y-64357633D01*
X99943375Y-64042459D01*
X99758362Y-63729173D01*
X99727284Y-63679911D01*
X99684757Y-63605749D01*
X99662577Y-63556016D01*
X99663118Y-63535545D01*
X99686404Y-63522296D01*
X99734030Y-63488854D01*
X99792750Y-63443821D01*
X99897557Y-63360373D01*
X99970100Y-63461145D01*
X100035786Y-63555895D01*
X100196795Y-63818857D01*
X100344254Y-64103213D01*
X100472948Y-64397448D01*
X100577665Y-64690048D01*
X100653188Y-64969500D01*
X100661799Y-65014413D01*
X100678005Y-65138297D01*
X100690098Y-65287001D01*
X100697799Y-65449398D01*
X100700833Y-65614362D01*
X100698923Y-65770768D01*
X100691791Y-65907489D01*
X100679161Y-66013398D01*
X100649664Y-66178879D01*
X100725374Y-66217175D01*
X100846317Y-66270956D01*
X101015885Y-66331664D01*
X101210281Y-66389511D01*
X101420194Y-66442185D01*
X101636312Y-66487373D01*
X101849323Y-66522763D01*
X102049917Y-66546044D01*
X102127562Y-66553066D01*
X102224188Y-66562539D01*
X102302000Y-66570929D01*
X102405916Y-66583068D01*
X102392584Y-66353076D01*
X102372104Y-66126254D01*
X102333582Y-65861725D01*
X102281333Y-65596755D01*
X102218681Y-65350500D01*
X102125845Y-65068575D01*
X101984872Y-64742111D01*
X101816596Y-64447710D01*
X101620202Y-64184551D01*
X101394876Y-63951815D01*
X101139803Y-63748683D01*
X100854167Y-63574335D01*
X100537153Y-63427951D01*
X100187945Y-63308712D01*
X100143473Y-63295636D01*
X100067477Y-63272302D01*
X100013079Y-63254248D01*
X99989852Y-63244575D01*
X99993199Y-63231824D01*
X100013731Y-63192177D01*
X100046492Y-63136156D01*
X100084914Y-63074279D01*
X100122427Y-63017061D01*
X100152462Y-62975018D01*
X100168450Y-62958667D01*
X100168850Y-62958672D01*
X100203784Y-62966320D01*
X100270048Y-62986598D01*
X100359791Y-63016658D01*
X100465165Y-63053650D01*
X100578318Y-63094726D01*
X100691400Y-63137038D01*
X100796561Y-63177736D01*
X100885951Y-63213972D01*
X100951721Y-63242898D01*
X101232846Y-63395150D01*
X101517571Y-63590615D01*
X101781314Y-63815237D01*
X102017585Y-64063455D01*
X102219892Y-64329704D01*
X102222750Y-64330246D01*
X102253761Y-64320979D01*
X102311730Y-64297970D01*
X102388290Y-64264973D01*
X102475078Y-64225744D01*
X102563728Y-64184040D01*
X102645874Y-64143617D01*
X102713152Y-64108230D01*
X102723334Y-64102566D01*
X102960144Y-63960189D01*
X103205168Y-63794463D01*
X103443088Y-63616271D01*
X103658584Y-63436498D01*
X103743250Y-63361286D01*
X103648000Y-63275772D01*
X103643891Y-63272110D01*
X103587349Y-63224260D01*
X103507854Y-63159917D01*
X103415385Y-63087052D01*
X103319917Y-63013637D01*
X103255040Y-62965128D01*
X102919303Y-62737061D01*
X102587699Y-62550847D01*
X102259608Y-62406323D01*
X101934407Y-62303321D01*
X101611473Y-62241677D01*
X101290184Y-62221225D01*
X100969917Y-62241799D01*
X100650051Y-62303233D01*
X100628780Y-62308583D01*
X100555165Y-62325557D01*
X100501662Y-62335488D01*
X100478647Y-62336369D01*
X100478016Y-62333437D01*
X100484423Y-62301209D01*
X100501849Y-62242212D01*
X100527429Y-62166429D01*
X100535434Y-62143363D01*
X100558133Y-62070424D01*
X100570965Y-62016399D01*
X100571337Y-61991615D01*
X100568569Y-61989831D01*
X100533393Y-61990137D01*
X100470139Y-62005079D01*
X100387589Y-62032202D01*
X100294530Y-62069047D01*
X100244334Y-62094070D01*
X100202256Y-62132366D01*
X100176055Y-62189680D01*
X100158723Y-62238255D01*
X100127090Y-62317987D01*
X100091983Y-62399804D01*
X100090598Y-62402889D01*
X100061627Y-62463489D01*
X100033284Y-62506963D01*
X99996034Y-62542497D01*
X99940342Y-62579277D01*
X99856671Y-62626489D01*
X99829277Y-62641722D01*
X99730981Y-62698394D01*
X99635415Y-62756069D01*
X99559926Y-62804352D01*
X99440601Y-62884584D01*
X99628717Y-62877186D01*
X99675940Y-62875534D01*
X99757294Y-62875880D01*
X99802352Y-62885487D01*
X99815247Y-62908563D01*
X99800113Y-62949319D01*
X99761083Y-63011962D01*
X99719790Y-63071001D01*
X99609774Y-63195301D01*
X99488116Y-63283834D01*
X99347205Y-63341316D01*
X99179431Y-63372463D01*
X99140639Y-63377212D01*
X99008374Y-63406185D01*
X98895455Y-63456207D01*
X98794751Y-63532346D01*
X98742773Y-63590687D01*
X98699129Y-63639672D01*
X98601457Y-63783254D01*
X98520792Y-63918103D01*
X98354462Y-64234455D01*
X98225208Y-64543925D01*
X98130918Y-64851308D01*
X98126064Y-64871350D01*
X98097671Y-65027235D01*
X98077794Y-65207416D01*
X98066904Y-65398851D01*
X98065468Y-65588498D01*
X97688213Y-65588498D01*
X97689435Y-65496210D01*
X97699534Y-65316506D01*
X97716826Y-65145866D01*
X97740718Y-64998123D01*
X97759298Y-64914592D01*
X97830086Y-64663613D01*
X97923555Y-64401829D01*
X98034953Y-64139864D01*
X98159525Y-63888345D01*
X98292519Y-63657895D01*
X98429183Y-63459139D01*
X98497801Y-63369245D01*
X98351129Y-63148081D01*
X98243110Y-62976739D01*
X98063686Y-62645618D01*
X97916314Y-62306639D01*
X97802964Y-61965282D01*
X97725604Y-61627027D01*
X97686204Y-61297356D01*
X97685686Y-61286500D01*
X98061852Y-61286500D01*
X98070164Y-61490413D01*
X98102090Y-61738730D01*
X98160172Y-61983883D01*
X98246826Y-62235593D01*
X98364470Y-62503584D01*
X98390604Y-62556725D01*
X98444447Y-62660412D01*
X98503819Y-62769080D01*
X98564552Y-62875633D01*
X98622477Y-62972979D01*
X98673426Y-63054022D01*
X98713231Y-63111668D01*
X98737723Y-63138824D01*
X98742773Y-63140682D01*
X98781598Y-63139613D01*
X98837440Y-63127062D01*
X98880639Y-63110293D01*
X98914518Y-63083588D01*
X98946109Y-63037505D01*
X98984315Y-62962040D01*
X98985292Y-62959993D01*
X99045899Y-62852977D01*
X99124014Y-62751862D01*
X99223470Y-62653615D01*
X99348101Y-62555204D01*
X99501740Y-62453597D01*
X99688220Y-62345760D01*
X99911375Y-62228661D01*
X100207000Y-62079197D01*
X100244137Y-61957216D01*
X100284185Y-61800691D01*
X100323470Y-61548799D01*
X100338473Y-61284873D01*
X100328612Y-61022810D01*
X100293311Y-60776511D01*
X100214284Y-60479772D01*
X100095514Y-60167299D01*
X99940502Y-59849808D01*
X99751349Y-59531173D01*
X99530155Y-59215265D01*
X99279018Y-58905955D01*
X99205887Y-58821993D01*
X99159872Y-58863622D01*
X99134554Y-58889638D01*
X99086371Y-58943910D01*
X99025492Y-59015474D01*
X98959332Y-59095750D01*
X98760124Y-59358683D01*
X98565364Y-59656628D01*
X98398567Y-59958701D01*
X98262402Y-60259544D01*
X98159536Y-60553800D01*
X98092637Y-60836110D01*
X98084969Y-60887021D01*
X98072379Y-61010703D01*
X98064267Y-61149806D01*
X98061852Y-61286500D01*
X97685686Y-61286500D01*
X97683340Y-61237338D01*
X97692228Y-60928287D01*
X97738708Y-60608417D01*
X97821174Y-60281360D01*
X97938016Y-59950747D01*
X98087629Y-59620208D01*
X98268403Y-59293376D01*
X98478732Y-58973881D01*
X98717007Y-58665354D01*
X98981622Y-58371426D01*
X99203267Y-58143250D01*
X99385693Y-58333750D01*
X99605777Y-58577892D01*
X99842353Y-58875715D01*
X100056429Y-59184640D01*
X100243772Y-59498038D01*
X100400151Y-59809284D01*
X100521332Y-60111750D01*
X100567047Y-60247216D01*
X100614220Y-60400475D01*
X100648334Y-60535864D01*
X100671412Y-60665363D01*
X100685475Y-60800954D01*
X100692548Y-60954617D01*
X100694652Y-61138334D01*
X100694668Y-61156458D01*
X100693586Y-61320125D01*
X100689859Y-61450596D01*
X100682965Y-61556147D01*
X100672382Y-61645056D01*
X100657587Y-61725598D01*
X100651768Y-61752301D01*
X100633462Y-61833070D01*
X100618161Y-61896028D01*
X100608699Y-61929363D01*
X100609076Y-61941473D01*
X100629342Y-61945411D01*
X100677080Y-61938440D01*
X100758893Y-61920156D01*
X100836195Y-61902986D01*
X101164222Y-61856675D01*
X101499650Y-61850756D01*
X101840651Y-61884569D01*
X102185396Y-61957449D01*
X102532056Y-62068734D01*
X102878803Y-62217762D01*
X103223807Y-62403870D01*
X103565242Y-62626395D01*
X103901277Y-62884675D01*
X104230084Y-63178046D01*
X104420583Y-63360395D01*
X104230678Y-63544112D01*
X104135675Y-63633678D01*
X103847211Y-63880821D01*
X103541122Y-64109526D01*
X103225426Y-64314456D01*
X102908141Y-64490270D01*
X102597285Y-64631631D01*
X102424987Y-64700759D01*
X102485901Y-64836524D01*
X102518746Y-64913336D01*
X102595236Y-65119287D01*
X102668048Y-65351404D01*
X102734045Y-65598345D01*
X102790089Y-65848769D01*
X102833044Y-66091334D01*
X102839113Y-66135968D01*
X102851575Y-66252265D01*
X102863173Y-66390586D01*
X102872826Y-66537282D01*
X102879457Y-66678709D01*
X102892406Y-67043834D01*
X102820412Y-67046344D01*
X102814098Y-67046560D01*
X102406105Y-67041766D01*
X101987759Y-67001912D01*
X101569336Y-66928788D01*
X101161109Y-66824183D01*
X100773353Y-66689884D01*
X100768466Y-66687946D01*
X100676806Y-66652350D01*
X100601210Y-66624378D01*
X100549398Y-66606796D01*
X100529090Y-66602370D01*
X100522806Y-66616678D01*
X100503605Y-66663506D01*
X100475001Y-66734600D01*
X100440404Y-66821530D01*
X100347014Y-67033233D01*
X100201733Y-67306678D01*
X100027948Y-67586590D01*
X99830594Y-67865627D01*
X99614607Y-68136444D01*
X99384924Y-68391699D01*
X99206881Y-68577429D01*
X99205933Y-68578417D01*
G36*
X101438782Y-48819367D02*
G01*
X101491544Y-48835213D01*
X101542879Y-48871288D01*
X101568056Y-48900436D01*
X101585153Y-48937440D01*
X101592969Y-48990784D01*
X101594834Y-49073423D01*
X101594845Y-49078423D01*
X101595821Y-49126612D01*
X101596418Y-49168010D01*
X101593868Y-49204249D01*
X101585399Y-49236961D01*
X101568241Y-49267781D01*
X101539622Y-49298339D01*
X101496773Y-49330270D01*
X101436923Y-49365205D01*
X101357302Y-49404778D01*
X101255137Y-49450621D01*
X101127660Y-49504366D01*
X100972099Y-49567647D01*
X100785684Y-49642097D01*
X100565644Y-49729347D01*
X100309209Y-49831031D01*
X100288751Y-49839156D01*
X100071321Y-49925398D01*
X99864038Y-50007426D01*
X99670550Y-50083810D01*
X99494504Y-50153117D01*
X99339548Y-50213917D01*
X99209329Y-50264777D01*
X99107496Y-50304266D01*
X99037696Y-50330953D01*
X99003576Y-50343406D01*
X98920568Y-50370182D01*
X99109409Y-50438800D01*
X99112034Y-50439754D01*
X99207670Y-50475538D01*
X99329753Y-50522729D01*
X99474176Y-50579630D01*
X99636830Y-50644541D01*
X99813606Y-50715763D01*
X100000397Y-50791598D01*
X100193094Y-50870347D01*
X100387589Y-50950310D01*
X100579773Y-51029789D01*
X100765539Y-51107086D01*
X100940777Y-51180501D01*
X101101381Y-51248335D01*
X101243241Y-51308890D01*
X101362249Y-51360466D01*
X101454297Y-51401366D01*
X101515276Y-51429890D01*
X101541079Y-51444339D01*
X101563859Y-51483485D01*
X101583296Y-51556713D01*
X101594026Y-51646310D01*
X101595257Y-51738580D01*
X101586197Y-51819827D01*
X101566055Y-51876354D01*
X101565055Y-51877882D01*
X101551770Y-51897864D01*
X101538131Y-51914451D01*
X101521558Y-51926776D01*
X101499475Y-51933973D01*
X101469302Y-51935175D01*
X101428461Y-51929515D01*
X101374374Y-51916126D01*
X101304463Y-51894141D01*
X101216149Y-51862693D01*
X101106854Y-51820916D01*
X100974001Y-51767943D01*
X100815010Y-51702906D01*
X100627304Y-51624939D01*
X100408304Y-51533174D01*
X100155432Y-51426746D01*
X99866109Y-51304788D01*
X99791619Y-51273391D01*
X99552098Y-51172527D01*
X99324297Y-51076730D01*
X99111246Y-50987267D01*
X98915976Y-50905405D01*
X98741519Y-50832411D01*
X98590904Y-50769554D01*
X98467164Y-50718099D01*
X98373328Y-50679313D01*
X98312428Y-50654465D01*
X98287495Y-50644821D01*
X98261387Y-50646379D01*
X98200528Y-50663311D01*
X98116113Y-50693826D01*
X98015954Y-50734476D01*
X97907860Y-50781818D01*
X97799642Y-50832404D01*
X97699108Y-50882790D01*
X97614068Y-50929529D01*
X97552334Y-50969176D01*
X97456849Y-51051778D01*
X97367175Y-51167895D01*
X97315216Y-51292211D01*
X97302462Y-51420824D01*
X97330405Y-51549834D01*
X97338127Y-51571451D01*
X97362186Y-51656483D01*
X97376841Y-51735135D01*
X97377517Y-51741323D01*
X97379012Y-51800579D01*
X97362272Y-51842522D01*
X97319350Y-51888330D01*
X97296216Y-51908344D01*
X97208468Y-51961420D01*
X97119191Y-51985077D01*
X97039816Y-51975742D01*
X96996893Y-51951560D01*
X96949389Y-51899478D01*
X96904951Y-51817435D01*
X96859635Y-51699383D01*
X96820918Y-51545860D01*
X96808933Y-51352738D01*
X96836063Y-51162947D01*
X96900653Y-50980871D01*
X97001050Y-50810896D01*
X97135600Y-50657406D01*
X97302649Y-50524787D01*
X97309486Y-50520733D01*
X97355752Y-50497857D01*
X97436329Y-50461161D01*
X97548028Y-50411960D01*
X97687660Y-50351570D01*
X97852038Y-50281306D01*
X98037975Y-50202483D01*
X98242281Y-50116415D01*
X98461768Y-50024419D01*
X98693250Y-49927809D01*
X98933537Y-49827901D01*
X99179441Y-49726009D01*
X99427775Y-49623450D01*
X99675350Y-49521537D01*
X99918979Y-49421586D01*
X100155472Y-49324913D01*
X100381643Y-49232832D01*
X100594303Y-49146659D01*
X100790264Y-49067708D01*
X100966338Y-48997296D01*
X101119337Y-48936737D01*
X101246073Y-48887346D01*
X101343358Y-48850438D01*
X101408003Y-48827329D01*
X101436821Y-48819334D01*
X101438782Y-48819367D01*
G37*
X101438782Y-48819367D02*
X101491544Y-48835213D01*
X101542879Y-48871288D01*
X101568056Y-48900436D01*
X101585153Y-48937440D01*
X101592969Y-48990784D01*
X101594834Y-49073423D01*
X101594845Y-49078423D01*
X101595821Y-49126612D01*
X101596418Y-49168010D01*
X101593868Y-49204249D01*
X101585399Y-49236961D01*
X101568241Y-49267781D01*
X101539622Y-49298339D01*
X101496773Y-49330270D01*
X101436923Y-49365205D01*
X101357302Y-49404778D01*
X101255137Y-49450621D01*
X101127660Y-49504366D01*
X100972099Y-49567647D01*
X100785684Y-49642097D01*
X100565644Y-49729347D01*
X100309209Y-49831031D01*
X100288751Y-49839156D01*
X100071321Y-49925398D01*
X99864038Y-50007426D01*
X99670550Y-50083810D01*
X99494504Y-50153117D01*
X99339548Y-50213917D01*
X99209329Y-50264777D01*
X99107496Y-50304266D01*
X99037696Y-50330953D01*
X99003576Y-50343406D01*
X98920568Y-50370182D01*
X99109409Y-50438800D01*
X99112034Y-50439754D01*
X99207670Y-50475538D01*
X99329753Y-50522729D01*
X99474176Y-50579630D01*
X99636830Y-50644541D01*
X99813606Y-50715763D01*
X100000397Y-50791598D01*
X100193094Y-50870347D01*
X100387589Y-50950310D01*
X100579773Y-51029789D01*
X100765539Y-51107086D01*
X100940777Y-51180501D01*
X101101381Y-51248335D01*
X101243241Y-51308890D01*
X101362249Y-51360466D01*
X101454297Y-51401366D01*
X101515276Y-51429890D01*
X101541079Y-51444339D01*
X101563859Y-51483485D01*
X101583296Y-51556713D01*
X101594026Y-51646310D01*
X101595257Y-51738580D01*
X101586197Y-51819827D01*
X101566055Y-51876354D01*
X101565055Y-51877882D01*
X101551770Y-51897864D01*
X101538131Y-51914451D01*
X101521558Y-51926776D01*
X101499475Y-51933973D01*
X101469302Y-51935175D01*
X101428461Y-51929515D01*
X101374374Y-51916126D01*
X101304463Y-51894141D01*
X101216149Y-51862693D01*
X101106854Y-51820916D01*
X100974001Y-51767943D01*
X100815010Y-51702906D01*
X100627304Y-51624939D01*
X100408304Y-51533174D01*
X100155432Y-51426746D01*
X99866109Y-51304788D01*
X99791619Y-51273391D01*
X99552098Y-51172527D01*
X99324297Y-51076730D01*
X99111246Y-50987267D01*
X98915976Y-50905405D01*
X98741519Y-50832411D01*
X98590904Y-50769554D01*
X98467164Y-50718099D01*
X98373328Y-50679313D01*
X98312428Y-50654465D01*
X98287495Y-50644821D01*
X98261387Y-50646379D01*
X98200528Y-50663311D01*
X98116113Y-50693826D01*
X98015954Y-50734476D01*
X97907860Y-50781818D01*
X97799642Y-50832404D01*
X97699108Y-50882790D01*
X97614068Y-50929529D01*
X97552334Y-50969176D01*
X97456849Y-51051778D01*
X97367175Y-51167895D01*
X97315216Y-51292211D01*
X97302462Y-51420824D01*
X97330405Y-51549834D01*
X97338127Y-51571451D01*
X97362186Y-51656483D01*
X97376841Y-51735135D01*
X97377517Y-51741323D01*
X97379012Y-51800579D01*
X97362272Y-51842522D01*
X97319350Y-51888330D01*
X97296216Y-51908344D01*
X97208468Y-51961420D01*
X97119191Y-51985077D01*
X97039816Y-51975742D01*
X96996893Y-51951560D01*
X96949389Y-51899478D01*
X96904951Y-51817435D01*
X96859635Y-51699383D01*
X96820918Y-51545860D01*
X96808933Y-51352738D01*
X96836063Y-51162947D01*
X96900653Y-50980871D01*
X97001050Y-50810896D01*
X97135600Y-50657406D01*
X97302649Y-50524787D01*
X97309486Y-50520733D01*
X97355752Y-50497857D01*
X97436329Y-50461161D01*
X97548028Y-50411960D01*
X97687660Y-50351570D01*
X97852038Y-50281306D01*
X98037975Y-50202483D01*
X98242281Y-50116415D01*
X98461768Y-50024419D01*
X98693250Y-49927809D01*
X98933537Y-49827901D01*
X99179441Y-49726009D01*
X99427775Y-49623450D01*
X99675350Y-49521537D01*
X99918979Y-49421586D01*
X100155472Y-49324913D01*
X100381643Y-49232832D01*
X100594303Y-49146659D01*
X100790264Y-49067708D01*
X100966338Y-48997296D01*
X101119337Y-48936737D01*
X101246073Y-48887346D01*
X101343358Y-48850438D01*
X101408003Y-48827329D01*
X101436821Y-48819334D01*
X101438782Y-48819367D01*
D12*
X128750000Y-50550000D02*
X128750000Y-51550000D01*
X128750000Y-44950000D02*
X128750000Y-44050000D01*
X128750000Y-47350000D02*
X129450000Y-48250000D01*
X129450000Y-48250000D02*
X128050000Y-48250000D01*
X128050000Y-48250000D02*
X128750000Y-47350000D01*
X129450000Y-47350000D02*
X128050000Y-47350000D01*
X113700000Y-125124871D02*
X114200000Y-125990897D01*
X110900000Y-120275129D02*
X110450000Y-119495706D01*
X112100000Y-122353590D02*
X113156218Y-122783013D01*
X113156218Y-122783013D02*
X111943782Y-123483013D01*
X111943782Y-123483013D02*
X112100000Y-122353590D01*
X112706218Y-122003590D02*
X111493782Y-122703590D01*
X131250000Y-109800000D02*
X131250000Y-110800000D01*
X131250000Y-104200000D02*
X131250000Y-103300000D01*
X131250000Y-106600000D02*
X131950000Y-107500000D01*
X131950000Y-107500000D02*
X130550000Y-107500000D01*
X130550000Y-107500000D02*
X131250000Y-106600000D01*
X131950000Y-106600000D02*
X130550000Y-106600000D01*
X128750000Y-71800000D02*
X128750000Y-72800000D01*
X128750000Y-66200000D02*
X128750000Y-65300000D01*
X128750000Y-68600000D02*
X129450000Y-69500000D01*
X129450000Y-69500000D02*
X128050000Y-69500000D01*
X128050000Y-69500000D02*
X128750000Y-68600000D01*
X129450000Y-68600000D02*
X128050000Y-68600000D01*
X131250000Y-50550000D02*
X131250000Y-51550000D01*
X131250000Y-44950000D02*
X131250000Y-44050000D01*
X131250000Y-47350000D02*
X131950000Y-48250000D01*
X131950000Y-48250000D02*
X130550000Y-48250000D01*
X130550000Y-48250000D02*
X131250000Y-47350000D01*
X131950000Y-47350000D02*
X130550000Y-47350000D01*
X149250000Y-48050000D02*
X149250000Y-49050000D01*
X149250000Y-42450000D02*
X149250000Y-41550000D01*
X149250000Y-44850000D02*
X149950000Y-45750000D01*
X149950000Y-45750000D02*
X148550000Y-45750000D01*
X148550000Y-45750000D02*
X149250000Y-44850000D01*
X149950000Y-44850000D02*
X148550000Y-44850000D01*
X168250000Y-50300000D02*
X168250000Y-51300000D01*
X168250000Y-44700000D02*
X168250000Y-43800000D01*
X168250000Y-47100000D02*
X168950000Y-48000000D01*
X168950000Y-48000000D02*
X167550000Y-48000000D01*
X167550000Y-48000000D02*
X168250000Y-47100000D01*
X168950000Y-47100000D02*
X167550000Y-47100000D01*
X187250000Y-55300000D02*
X187250000Y-56300000D01*
X187250000Y-49700000D02*
X187250000Y-48800000D01*
X187250000Y-52100000D02*
X187950000Y-53000000D01*
X187950000Y-53000000D02*
X186550000Y-53000000D01*
X186550000Y-53000000D02*
X187250000Y-52100000D01*
X187950000Y-52100000D02*
X186550000Y-52100000D01*
X206250000Y-55300000D02*
X206250000Y-56300000D01*
X206250000Y-49700000D02*
X206250000Y-48800000D01*
X206250000Y-52100000D02*
X206950000Y-53000000D01*
X206950000Y-53000000D02*
X205550000Y-53000000D01*
X205550000Y-53000000D02*
X206250000Y-52100000D01*
X206950000Y-52100000D02*
X205550000Y-52100000D01*
X131252540Y-71752540D02*
X131252540Y-72752540D01*
X131252540Y-66152540D02*
X131252540Y-65252540D01*
X131252540Y-68552540D02*
X131952540Y-69452540D01*
X131952540Y-69452540D02*
X130552540Y-69452540D01*
X130552540Y-69452540D02*
X131252540Y-68552540D01*
X131952540Y-68552540D02*
X130552540Y-68552540D01*
X149000000Y-67300000D02*
X149000000Y-68300000D01*
X149000000Y-61700000D02*
X149000000Y-60800000D01*
X149000000Y-64100000D02*
X149700000Y-65000000D01*
X149700000Y-65000000D02*
X148300000Y-65000000D01*
X148300000Y-65000000D02*
X149000000Y-64100000D01*
X149700000Y-64100000D02*
X148300000Y-64100000D01*
X168250000Y-69300000D02*
X168250000Y-70300000D01*
X168250000Y-63700000D02*
X168250000Y-62800000D01*
X168250000Y-66100000D02*
X168950000Y-67000000D01*
X168950000Y-67000000D02*
X167550000Y-67000000D01*
X167550000Y-67000000D02*
X168250000Y-66100000D01*
X168950000Y-66100000D02*
X167550000Y-66100000D01*
X187250000Y-74050000D02*
X187250000Y-75050000D01*
X187250000Y-68450000D02*
X187250000Y-67550000D01*
X187250000Y-70850000D02*
X187950000Y-71750000D01*
X187950000Y-71750000D02*
X186550000Y-71750000D01*
X186550000Y-71750000D02*
X187250000Y-70850000D01*
X187950000Y-70850000D02*
X186550000Y-70850000D01*
X206250000Y-74050000D02*
X206250000Y-75050000D01*
X206250000Y-68450000D02*
X206250000Y-67550000D01*
X206250000Y-70850000D02*
X206950000Y-71750000D01*
X206950000Y-71750000D02*
X205550000Y-71750000D01*
X205550000Y-71750000D02*
X206250000Y-70850000D01*
X206950000Y-70850000D02*
X205550000Y-70850000D01*
X128750000Y-88550000D02*
X128750000Y-89550000D01*
X128750000Y-82950000D02*
X128750000Y-82050000D01*
X128750000Y-85350000D02*
X129450000Y-86250000D01*
X129450000Y-86250000D02*
X128050000Y-86250000D01*
X128050000Y-86250000D02*
X128750000Y-85350000D01*
X129450000Y-85350000D02*
X128050000Y-85350000D01*
X131250000Y-88550000D02*
X131250000Y-89550000D01*
X131250000Y-82950000D02*
X131250000Y-82050000D01*
X131250000Y-85350000D02*
X131950000Y-86250000D01*
X131950000Y-86250000D02*
X130550000Y-86250000D01*
X130550000Y-86250000D02*
X131250000Y-85350000D01*
X131950000Y-85350000D02*
X130550000Y-85350000D01*
X149000000Y-86300000D02*
X149000000Y-87300000D01*
X149000000Y-80700000D02*
X149000000Y-79800000D01*
X149000000Y-83100000D02*
X149700000Y-84000000D01*
X149700000Y-84000000D02*
X148300000Y-84000000D01*
X148300000Y-84000000D02*
X149000000Y-83100000D01*
X149700000Y-83100000D02*
X148300000Y-83100000D01*
X168250000Y-88550000D02*
X168250000Y-89550000D01*
X168250000Y-82950000D02*
X168250000Y-82050000D01*
X168250000Y-85350000D02*
X168950000Y-86250000D01*
X168950000Y-86250000D02*
X167550000Y-86250000D01*
X167550000Y-86250000D02*
X168250000Y-85350000D01*
X168950000Y-85350000D02*
X167550000Y-85350000D01*
X187250000Y-93550000D02*
X187250000Y-94550000D01*
X187250000Y-87950000D02*
X187250000Y-87050000D01*
X187250000Y-90350000D02*
X187950000Y-91250000D01*
X187950000Y-91250000D02*
X186550000Y-91250000D01*
X186550000Y-91250000D02*
X187250000Y-90350000D01*
X187950000Y-90350000D02*
X186550000Y-90350000D01*
X206250000Y-93550000D02*
X206250000Y-94550000D01*
X206250000Y-87950000D02*
X206250000Y-87050000D01*
X206250000Y-90350000D02*
X206950000Y-91250000D01*
X206950000Y-91250000D02*
X205550000Y-91250000D01*
X205550000Y-91250000D02*
X206250000Y-90350000D01*
X206950000Y-90350000D02*
X205550000Y-90350000D01*
X128800000Y-109800000D02*
X128800000Y-110800000D01*
X128800000Y-104200000D02*
X128800000Y-103300000D01*
X128800000Y-106600000D02*
X129500000Y-107500000D01*
X129500000Y-107500000D02*
X128100000Y-107500000D01*
X128100000Y-107500000D02*
X128800000Y-106600000D01*
X129500000Y-106600000D02*
X128100000Y-106600000D01*
X149000000Y-105300000D02*
X149000000Y-106300000D01*
X149000000Y-99700000D02*
X149000000Y-98800000D01*
X149000000Y-102100000D02*
X149700000Y-103000000D01*
X149700000Y-103000000D02*
X148300000Y-103000000D01*
X148300000Y-103000000D02*
X149000000Y-102100000D01*
X149700000Y-102100000D02*
X148300000Y-102100000D01*
X168250000Y-107550000D02*
X168250000Y-108550000D01*
X168250000Y-101950000D02*
X168250000Y-101050000D01*
X168250000Y-104350000D02*
X168950000Y-105250000D01*
X168950000Y-105250000D02*
X167550000Y-105250000D01*
X167550000Y-105250000D02*
X168250000Y-104350000D01*
X168950000Y-104350000D02*
X167550000Y-104350000D01*
X187250000Y-112300000D02*
X187250000Y-113300000D01*
X187250000Y-106700000D02*
X187250000Y-105800000D01*
X187250000Y-109100000D02*
X187950000Y-110000000D01*
X187950000Y-110000000D02*
X186550000Y-110000000D01*
X186550000Y-110000000D02*
X187250000Y-109100000D01*
X187950000Y-109100000D02*
X186550000Y-109100000D01*
X206250000Y-112300000D02*
X206250000Y-113300000D01*
X206250000Y-106700000D02*
X206250000Y-105800000D01*
X206250000Y-109100000D02*
X206950000Y-110000000D01*
X206950000Y-110000000D02*
X205550000Y-110000000D01*
X205550000Y-110000000D02*
X206250000Y-109100000D01*
X206950000Y-109100000D02*
X205550000Y-109100000D01*
X109800000Y-99800000D02*
X109800000Y-100800000D01*
X109800000Y-94200000D02*
X109800000Y-93300000D01*
X109800000Y-96600000D02*
X110500000Y-97500000D01*
X110500000Y-97500000D02*
X109100000Y-97500000D01*
X109100000Y-97500000D02*
X109800000Y-96600000D01*
X110500000Y-96600000D02*
X109100000Y-96600000D01*
X121700000Y-130300000D02*
X121700000Y-131300000D01*
X121700000Y-124700000D02*
X121700000Y-123800000D01*
X121700000Y-127100000D02*
X122400000Y-128000000D01*
X122400000Y-128000000D02*
X121000000Y-128000000D01*
X121000000Y-128000000D02*
X121700000Y-127100000D01*
X122400000Y-127100000D02*
X121000000Y-127100000D01*
X139200000Y-125200000D02*
X139200000Y-126200000D01*
X139200000Y-119600000D02*
X139200000Y-118700000D01*
X139200000Y-122000000D02*
X139900000Y-122900000D01*
X139900000Y-122900000D02*
X138500000Y-122900000D01*
X138500000Y-122900000D02*
X139200000Y-122000000D01*
X139900000Y-122000000D02*
X138500000Y-122000000D01*
X158700000Y-125200000D02*
X158700000Y-126200000D01*
X158700000Y-119600000D02*
X158700000Y-118700000D01*
X158700000Y-122000000D02*
X159400000Y-122900000D01*
X159400000Y-122900000D02*
X158000000Y-122900000D01*
X158000000Y-122900000D02*
X158700000Y-122000000D01*
X159400000Y-122000000D02*
X158000000Y-122000000D01*
X94833973Y-77533759D02*
X87213973Y-77533759D01*
X94833973Y-72453759D02*
X94833973Y-77533759D01*
X87213973Y-72453759D02*
X94833973Y-72453759D01*
X87213973Y-77533759D02*
X87213973Y-72453759D01*
X86900000Y-65500000D02*
X86900000Y-71400000D01*
X86900000Y-65500000D02*
X86900000Y-71500000D01*
X83400000Y-71500000D02*
X83400000Y-65500000D01*
X86900000Y-71500000D02*
X86400000Y-71500000D01*
X83400000Y-71500000D02*
X83800000Y-71500000D01*
X83400000Y-65500000D02*
X83800000Y-65500000D01*
X86900000Y-65500000D02*
X86400000Y-65500000D01*
X83688035Y-54539272D02*
X85688035Y-54539272D01*
X83688035Y-57539272D02*
X83688035Y-54539272D01*
X85688035Y-57539272D02*
X83688035Y-57539272D01*
X85688035Y-54539272D02*
X85688035Y-57539272D01*
X85938035Y-54539272D02*
X87938035Y-54539272D01*
X85938035Y-57539272D02*
X85938035Y-54539272D01*
X87938035Y-57539272D02*
X85938035Y-57539272D01*
X87938035Y-54539272D02*
X87938035Y-57539272D01*
X87900000Y-59700000D02*
X87900000Y-61700000D01*
X85900000Y-59700000D02*
X87900000Y-59700000D01*
X85900000Y-61700000D02*
X85900000Y-59700000D01*
X87900000Y-61700000D02*
X85900000Y-61700000D01*
X85700000Y-59700000D02*
X85700000Y-61700000D01*
X83700000Y-59700000D02*
X85700000Y-59700000D01*
X83700000Y-61700000D02*
X83700000Y-59700000D01*
X85700000Y-61700000D02*
X83700000Y-61700000D01*
X90910000Y-70340000D02*
X90910000Y-39860000D01*
D14*
X93450000Y-70340000D02*
X90910000Y-70340000D01*
X93450000Y-39860000D02*
X93450000Y-70340000D01*
X90910000Y-39860000D02*
X93450000Y-39860000D01*
X106150000Y-70340000D02*
X106150000Y-39860000D01*
X108690000Y-70340000D02*
X106150000Y-70340000D01*
D12*
X108690000Y-39860000D02*
X108690000Y-70340000D01*
D14*
X106150000Y-39860000D02*
X108690000Y-39860000D01*
X90910000Y-70340000D02*
X90910000Y-37320000D01*
X108690000Y-37320000D02*
X108690000Y-70340000D01*
X90910000Y-37320000D02*
X108690000Y-37320000D01*
D12*
X105189000Y-71543000D02*
X105189000Y-69257000D01*
X105189000Y-69257000D02*
X103411000Y-69257000D01*
X103411000Y-69257000D02*
X103411000Y-71543000D01*
X103411000Y-71543000D02*
X105189000Y-71543000D01*
X100911000Y-71543000D02*
X102689000Y-71543000D01*
X100911000Y-69257000D02*
X100911000Y-71543000D01*
X102689000Y-69257000D02*
X100911000Y-69257000D01*
X102689000Y-71543000D02*
X102689000Y-69257000D01*
X100089000Y-71543000D02*
X100089000Y-69257000D01*
X100089000Y-69257000D02*
X98311000Y-69257000D01*
X98311000Y-69257000D02*
X98311000Y-71543000D01*
X98311000Y-71543000D02*
X100089000Y-71543000D01*
X95811000Y-71543000D02*
X97589000Y-71543000D01*
X95811000Y-69257000D02*
X95811000Y-71543000D01*
X97589000Y-69257000D02*
X95811000Y-69257000D01*
X97589000Y-71543000D02*
X97589000Y-69257000D01*
X95430000Y-76270000D02*
X95430000Y-73730000D01*
X105590000Y-76270000D02*
X95430000Y-76270000D01*
X105590000Y-73730000D02*
X105590000Y-76270000D01*
X95430000Y-73730000D02*
X105590000Y-73730000D01*
M02*
