G04 #@! TF.GenerationSoftware,KiCad,Pcbnew,(7.0.0-0)*
G04 #@! TF.CreationDate,2023-04-28T12:14:11+03:00*
G04 #@! TF.ProjectId,chococorne,63686f63-6f63-46f7-926e-652e6b696361,2.1*
G04 #@! TF.SameCoordinates,Original*
G04 #@! TF.FileFunction,Legend,Bot*
G04 #@! TF.FilePolarity,Positive*
%FSLAX46Y46*%
G04 Gerber Fmt 4.6, Leading zero omitted, Abs format (unit mm)*
G04 Created by KiCad (PCBNEW (7.0.0-0)) date 2023-04-28 12:14:11*
%MOMM*%
%LPD*%
G01*
G04 APERTURE LIST*
%ADD10C,0.150000*%
G04 APERTURE END LIST*
D10*
X32278332Y-79809761D02*
X32135475Y-79857380D01*
X32135475Y-79857380D02*
X31897380Y-79857380D01*
X31897380Y-79857380D02*
X31802142Y-79809761D01*
X31802142Y-79809761D02*
X31754523Y-79762142D01*
X31754523Y-79762142D02*
X31706904Y-79666904D01*
X31706904Y-79666904D02*
X31706904Y-79571666D01*
X31706904Y-79571666D02*
X31754523Y-79476428D01*
X31754523Y-79476428D02*
X31802142Y-79428809D01*
X31802142Y-79428809D02*
X31897380Y-79381190D01*
X31897380Y-79381190D02*
X32087856Y-79333571D01*
X32087856Y-79333571D02*
X32183094Y-79285952D01*
X32183094Y-79285952D02*
X32230713Y-79238333D01*
X32230713Y-79238333D02*
X32278332Y-79143095D01*
X32278332Y-79143095D02*
X32278332Y-79047857D01*
X32278332Y-79047857D02*
X32230713Y-78952619D01*
X32230713Y-78952619D02*
X32183094Y-78905000D01*
X32183094Y-78905000D02*
X32087856Y-78857380D01*
X32087856Y-78857380D02*
X31849761Y-78857380D01*
X31849761Y-78857380D02*
X31706904Y-78905000D01*
X31373570Y-78857380D02*
X31135475Y-79857380D01*
X31135475Y-79857380D02*
X30944999Y-79143095D01*
X30944999Y-79143095D02*
X30754523Y-79857380D01*
X30754523Y-79857380D02*
X30516428Y-78857380D01*
X30230713Y-78857380D02*
X29564047Y-78857380D01*
X29564047Y-78857380D02*
X29992618Y-79857380D01*
X108455713Y-69457380D02*
X107884285Y-69457380D01*
X108169999Y-70457380D02*
X108169999Y-69457380D01*
X107550951Y-70457380D02*
X107550951Y-69457380D01*
X107550951Y-69457380D02*
X107169999Y-69457380D01*
X107169999Y-69457380D02*
X107074761Y-69505000D01*
X107074761Y-69505000D02*
X107027142Y-69552619D01*
X107027142Y-69552619D02*
X106979523Y-69647857D01*
X106979523Y-69647857D02*
X106979523Y-69790714D01*
X106979523Y-69790714D02*
X107027142Y-69885952D01*
X107027142Y-69885952D02*
X107074761Y-69933571D01*
X107074761Y-69933571D02*
X107169999Y-69981190D01*
X107169999Y-69981190D02*
X107550951Y-69981190D01*
X122754523Y-75629761D02*
X122611666Y-75677380D01*
X122611666Y-75677380D02*
X122373571Y-75677380D01*
X122373571Y-75677380D02*
X122278333Y-75629761D01*
X122278333Y-75629761D02*
X122230714Y-75582142D01*
X122230714Y-75582142D02*
X122183095Y-75486904D01*
X122183095Y-75486904D02*
X122183095Y-75391666D01*
X122183095Y-75391666D02*
X122230714Y-75296428D01*
X122230714Y-75296428D02*
X122278333Y-75248809D01*
X122278333Y-75248809D02*
X122373571Y-75201190D01*
X122373571Y-75201190D02*
X122564047Y-75153571D01*
X122564047Y-75153571D02*
X122659285Y-75105952D01*
X122659285Y-75105952D02*
X122706904Y-75058333D01*
X122706904Y-75058333D02*
X122754523Y-74963095D01*
X122754523Y-74963095D02*
X122754523Y-74867857D01*
X122754523Y-74867857D02*
X122706904Y-74772619D01*
X122706904Y-74772619D02*
X122659285Y-74725000D01*
X122659285Y-74725000D02*
X122564047Y-74677380D01*
X122564047Y-74677380D02*
X122325952Y-74677380D01*
X122325952Y-74677380D02*
X122183095Y-74725000D01*
X121849761Y-74677380D02*
X121611666Y-75677380D01*
X121611666Y-75677380D02*
X121421190Y-74963095D01*
X121421190Y-74963095D02*
X121230714Y-75677380D01*
X121230714Y-75677380D02*
X120992619Y-74677380D01*
X120087857Y-75677380D02*
X120659285Y-75677380D01*
X120373571Y-75677380D02*
X120373571Y-74677380D01*
X120373571Y-74677380D02*
X120468809Y-74820238D01*
X120468809Y-74820238D02*
X120564047Y-74915476D01*
X120564047Y-74915476D02*
X120659285Y-74963095D01*
X119706904Y-74772619D02*
X119659285Y-74725000D01*
X119659285Y-74725000D02*
X119564047Y-74677380D01*
X119564047Y-74677380D02*
X119325952Y-74677380D01*
X119325952Y-74677380D02*
X119230714Y-74725000D01*
X119230714Y-74725000D02*
X119183095Y-74772619D01*
X119183095Y-74772619D02*
X119135476Y-74867857D01*
X119135476Y-74867857D02*
X119135476Y-74963095D01*
X119135476Y-74963095D02*
X119183095Y-75105952D01*
X119183095Y-75105952D02*
X119754523Y-75677380D01*
X119754523Y-75677380D02*
X119135476Y-75677380D01*
X68278332Y-73249761D02*
X68135475Y-73297380D01*
X68135475Y-73297380D02*
X67897380Y-73297380D01*
X67897380Y-73297380D02*
X67802142Y-73249761D01*
X67802142Y-73249761D02*
X67754523Y-73202142D01*
X67754523Y-73202142D02*
X67706904Y-73106904D01*
X67706904Y-73106904D02*
X67706904Y-73011666D01*
X67706904Y-73011666D02*
X67754523Y-72916428D01*
X67754523Y-72916428D02*
X67802142Y-72868809D01*
X67802142Y-72868809D02*
X67897380Y-72821190D01*
X67897380Y-72821190D02*
X68087856Y-72773571D01*
X68087856Y-72773571D02*
X68183094Y-72725952D01*
X68183094Y-72725952D02*
X68230713Y-72678333D01*
X68230713Y-72678333D02*
X68278332Y-72583095D01*
X68278332Y-72583095D02*
X68278332Y-72487857D01*
X68278332Y-72487857D02*
X68230713Y-72392619D01*
X68230713Y-72392619D02*
X68183094Y-72345000D01*
X68183094Y-72345000D02*
X68087856Y-72297380D01*
X68087856Y-72297380D02*
X67849761Y-72297380D01*
X67849761Y-72297380D02*
X67706904Y-72345000D01*
X67373570Y-72297380D02*
X67135475Y-73297380D01*
X67135475Y-73297380D02*
X66944999Y-72583095D01*
X66944999Y-72583095D02*
X66754523Y-73297380D01*
X66754523Y-73297380D02*
X66516428Y-72297380D01*
X66087856Y-73297380D02*
X65897380Y-73297380D01*
X65897380Y-73297380D02*
X65802142Y-73249761D01*
X65802142Y-73249761D02*
X65754523Y-73202142D01*
X65754523Y-73202142D02*
X65659285Y-73059285D01*
X65659285Y-73059285D02*
X65611666Y-72868809D01*
X65611666Y-72868809D02*
X65611666Y-72487857D01*
X65611666Y-72487857D02*
X65659285Y-72392619D01*
X65659285Y-72392619D02*
X65706904Y-72345000D01*
X65706904Y-72345000D02*
X65802142Y-72297380D01*
X65802142Y-72297380D02*
X65992618Y-72297380D01*
X65992618Y-72297380D02*
X66087856Y-72345000D01*
X66087856Y-72345000D02*
X66135475Y-72392619D01*
X66135475Y-72392619D02*
X66183094Y-72487857D01*
X66183094Y-72487857D02*
X66183094Y-72725952D01*
X66183094Y-72725952D02*
X66135475Y-72821190D01*
X66135475Y-72821190D02*
X66087856Y-72868809D01*
X66087856Y-72868809D02*
X65992618Y-72916428D01*
X65992618Y-72916428D02*
X65802142Y-72916428D01*
X65802142Y-72916428D02*
X65706904Y-72868809D01*
X65706904Y-72868809D02*
X65659285Y-72821190D01*
X65659285Y-72821190D02*
X65611666Y-72725952D01*
X50278332Y-79809761D02*
X50135475Y-79857380D01*
X50135475Y-79857380D02*
X49897380Y-79857380D01*
X49897380Y-79857380D02*
X49802142Y-79809761D01*
X49802142Y-79809761D02*
X49754523Y-79762142D01*
X49754523Y-79762142D02*
X49706904Y-79666904D01*
X49706904Y-79666904D02*
X49706904Y-79571666D01*
X49706904Y-79571666D02*
X49754523Y-79476428D01*
X49754523Y-79476428D02*
X49802142Y-79428809D01*
X49802142Y-79428809D02*
X49897380Y-79381190D01*
X49897380Y-79381190D02*
X50087856Y-79333571D01*
X50087856Y-79333571D02*
X50183094Y-79285952D01*
X50183094Y-79285952D02*
X50230713Y-79238333D01*
X50230713Y-79238333D02*
X50278332Y-79143095D01*
X50278332Y-79143095D02*
X50278332Y-79047857D01*
X50278332Y-79047857D02*
X50230713Y-78952619D01*
X50230713Y-78952619D02*
X50183094Y-78905000D01*
X50183094Y-78905000D02*
X50087856Y-78857380D01*
X50087856Y-78857380D02*
X49849761Y-78857380D01*
X49849761Y-78857380D02*
X49706904Y-78905000D01*
X49373570Y-78857380D02*
X49135475Y-79857380D01*
X49135475Y-79857380D02*
X48944999Y-79143095D01*
X48944999Y-79143095D02*
X48754523Y-79857380D01*
X48754523Y-79857380D02*
X48516428Y-78857380D01*
X47992618Y-79285952D02*
X48087856Y-79238333D01*
X48087856Y-79238333D02*
X48135475Y-79190714D01*
X48135475Y-79190714D02*
X48183094Y-79095476D01*
X48183094Y-79095476D02*
X48183094Y-79047857D01*
X48183094Y-79047857D02*
X48135475Y-78952619D01*
X48135475Y-78952619D02*
X48087856Y-78905000D01*
X48087856Y-78905000D02*
X47992618Y-78857380D01*
X47992618Y-78857380D02*
X47802142Y-78857380D01*
X47802142Y-78857380D02*
X47706904Y-78905000D01*
X47706904Y-78905000D02*
X47659285Y-78952619D01*
X47659285Y-78952619D02*
X47611666Y-79047857D01*
X47611666Y-79047857D02*
X47611666Y-79095476D01*
X47611666Y-79095476D02*
X47659285Y-79190714D01*
X47659285Y-79190714D02*
X47706904Y-79238333D01*
X47706904Y-79238333D02*
X47802142Y-79285952D01*
X47802142Y-79285952D02*
X47992618Y-79285952D01*
X47992618Y-79285952D02*
X48087856Y-79333571D01*
X48087856Y-79333571D02*
X48135475Y-79381190D01*
X48135475Y-79381190D02*
X48183094Y-79476428D01*
X48183094Y-79476428D02*
X48183094Y-79666904D01*
X48183094Y-79666904D02*
X48135475Y-79762142D01*
X48135475Y-79762142D02*
X48087856Y-79809761D01*
X48087856Y-79809761D02*
X47992618Y-79857380D01*
X47992618Y-79857380D02*
X47802142Y-79857380D01*
X47802142Y-79857380D02*
X47706904Y-79809761D01*
X47706904Y-79809761D02*
X47659285Y-79762142D01*
X47659285Y-79762142D02*
X47611666Y-79666904D01*
X47611666Y-79666904D02*
X47611666Y-79476428D01*
X47611666Y-79476428D02*
X47659285Y-79381190D01*
X47659285Y-79381190D02*
X47706904Y-79333571D01*
X47706904Y-79333571D02*
X47802142Y-79285952D01*
X95864523Y-88489761D02*
X95721666Y-88537380D01*
X95721666Y-88537380D02*
X95483571Y-88537380D01*
X95483571Y-88537380D02*
X95388333Y-88489761D01*
X95388333Y-88489761D02*
X95340714Y-88442142D01*
X95340714Y-88442142D02*
X95293095Y-88346904D01*
X95293095Y-88346904D02*
X95293095Y-88251666D01*
X95293095Y-88251666D02*
X95340714Y-88156428D01*
X95340714Y-88156428D02*
X95388333Y-88108809D01*
X95388333Y-88108809D02*
X95483571Y-88061190D01*
X95483571Y-88061190D02*
X95674047Y-88013571D01*
X95674047Y-88013571D02*
X95769285Y-87965952D01*
X95769285Y-87965952D02*
X95816904Y-87918333D01*
X95816904Y-87918333D02*
X95864523Y-87823095D01*
X95864523Y-87823095D02*
X95864523Y-87727857D01*
X95864523Y-87727857D02*
X95816904Y-87632619D01*
X95816904Y-87632619D02*
X95769285Y-87585000D01*
X95769285Y-87585000D02*
X95674047Y-87537380D01*
X95674047Y-87537380D02*
X95435952Y-87537380D01*
X95435952Y-87537380D02*
X95293095Y-87585000D01*
X94959761Y-87537380D02*
X94721666Y-88537380D01*
X94721666Y-88537380D02*
X94531190Y-87823095D01*
X94531190Y-87823095D02*
X94340714Y-88537380D01*
X94340714Y-88537380D02*
X94102619Y-87537380D01*
X93197857Y-88537380D02*
X93769285Y-88537380D01*
X93483571Y-88537380D02*
X93483571Y-87537380D01*
X93483571Y-87537380D02*
X93578809Y-87680238D01*
X93578809Y-87680238D02*
X93674047Y-87775476D01*
X93674047Y-87775476D02*
X93769285Y-87823095D01*
X92245476Y-88537380D02*
X92816904Y-88537380D01*
X92531190Y-88537380D02*
X92531190Y-87537380D01*
X92531190Y-87537380D02*
X92626428Y-87680238D01*
X92626428Y-87680238D02*
X92721666Y-87775476D01*
X92721666Y-87775476D02*
X92816904Y-87823095D01*
X108049364Y-127097109D02*
X107899050Y-127106131D01*
X107899050Y-127106131D02*
X107669067Y-127044508D01*
X107669067Y-127044508D02*
X107589399Y-126973862D01*
X107589399Y-126973862D02*
X107555727Y-126915541D01*
X107555727Y-126915541D02*
X107534380Y-126811223D01*
X107534380Y-126811223D02*
X107559030Y-126719230D01*
X107559030Y-126719230D02*
X107629676Y-126639562D01*
X107629676Y-126639562D02*
X107687997Y-126605890D01*
X107687997Y-126605890D02*
X107792315Y-126584543D01*
X107792315Y-126584543D02*
X107988625Y-126587845D01*
X107988625Y-126587845D02*
X108092943Y-126566498D01*
X108092943Y-126566498D02*
X108151264Y-126532827D01*
X108151264Y-126532827D02*
X108221910Y-126453158D01*
X108221910Y-126453158D02*
X108246559Y-126361166D01*
X108246559Y-126361166D02*
X108225212Y-126256848D01*
X108225212Y-126256848D02*
X108191540Y-126198527D01*
X108191540Y-126198527D02*
X108111872Y-126127881D01*
X108111872Y-126127881D02*
X107881890Y-126066257D01*
X107881890Y-126066257D02*
X107731576Y-126075280D01*
X107421925Y-125943010D02*
X106933124Y-126847312D01*
X106933124Y-126847312D02*
X106934009Y-126108066D01*
X106934009Y-126108066D02*
X106565152Y-126748715D01*
X106565152Y-126748715D02*
X106593989Y-125721165D01*
X106247364Y-125726885D02*
X106213692Y-125668564D01*
X106213692Y-125668564D02*
X106134024Y-125597918D01*
X106134024Y-125597918D02*
X105904042Y-125536294D01*
X105904042Y-125536294D02*
X105799724Y-125557641D01*
X105799724Y-125557641D02*
X105741403Y-125591313D01*
X105741403Y-125591313D02*
X105670757Y-125670981D01*
X105670757Y-125670981D02*
X105646108Y-125762974D01*
X105646108Y-125762974D02*
X105655130Y-125913288D01*
X105655130Y-125913288D02*
X106059191Y-126613143D01*
X106059191Y-126613143D02*
X105461237Y-126452921D01*
X105122102Y-125326774D02*
X105030109Y-125302125D01*
X105030109Y-125302125D02*
X104925791Y-125323472D01*
X104925791Y-125323472D02*
X104867470Y-125357144D01*
X104867470Y-125357144D02*
X104796824Y-125436812D01*
X104796824Y-125436812D02*
X104701529Y-125608473D01*
X104701529Y-125608473D02*
X104639905Y-125838455D01*
X104639905Y-125838455D02*
X104636603Y-126034766D01*
X104636603Y-126034766D02*
X104657950Y-126139084D01*
X104657950Y-126139084D02*
X104691622Y-126197405D01*
X104691622Y-126197405D02*
X104771290Y-126268051D01*
X104771290Y-126268051D02*
X104863283Y-126292700D01*
X104863283Y-126292700D02*
X104967601Y-126271353D01*
X104967601Y-126271353D02*
X105025922Y-126237681D01*
X105025922Y-126237681D02*
X105096568Y-126158013D01*
X105096568Y-126158013D02*
X105191863Y-125986352D01*
X105191863Y-125986352D02*
X105253487Y-125756370D01*
X105253487Y-125756370D02*
X105256789Y-125560059D01*
X105256789Y-125560059D02*
X105235442Y-125455741D01*
X105235442Y-125455741D02*
X105201770Y-125397420D01*
X105201770Y-125397420D02*
X105122102Y-125326774D01*
X32754523Y-96829761D02*
X32611666Y-96877380D01*
X32611666Y-96877380D02*
X32373571Y-96877380D01*
X32373571Y-96877380D02*
X32278333Y-96829761D01*
X32278333Y-96829761D02*
X32230714Y-96782142D01*
X32230714Y-96782142D02*
X32183095Y-96686904D01*
X32183095Y-96686904D02*
X32183095Y-96591666D01*
X32183095Y-96591666D02*
X32230714Y-96496428D01*
X32230714Y-96496428D02*
X32278333Y-96448809D01*
X32278333Y-96448809D02*
X32373571Y-96401190D01*
X32373571Y-96401190D02*
X32564047Y-96353571D01*
X32564047Y-96353571D02*
X32659285Y-96305952D01*
X32659285Y-96305952D02*
X32706904Y-96258333D01*
X32706904Y-96258333D02*
X32754523Y-96163095D01*
X32754523Y-96163095D02*
X32754523Y-96067857D01*
X32754523Y-96067857D02*
X32706904Y-95972619D01*
X32706904Y-95972619D02*
X32659285Y-95925000D01*
X32659285Y-95925000D02*
X32564047Y-95877380D01*
X32564047Y-95877380D02*
X32325952Y-95877380D01*
X32325952Y-95877380D02*
X32183095Y-95925000D01*
X31849761Y-95877380D02*
X31611666Y-96877380D01*
X31611666Y-96877380D02*
X31421190Y-96163095D01*
X31421190Y-96163095D02*
X31230714Y-96877380D01*
X31230714Y-96877380D02*
X30992619Y-95877380D01*
X30087857Y-96877380D02*
X30659285Y-96877380D01*
X30373571Y-96877380D02*
X30373571Y-95877380D01*
X30373571Y-95877380D02*
X30468809Y-96020238D01*
X30468809Y-96020238D02*
X30564047Y-96115476D01*
X30564047Y-96115476D02*
X30659285Y-96163095D01*
X29754523Y-95877380D02*
X29135476Y-95877380D01*
X29135476Y-95877380D02*
X29468809Y-96258333D01*
X29468809Y-96258333D02*
X29325952Y-96258333D01*
X29325952Y-96258333D02*
X29230714Y-96305952D01*
X29230714Y-96305952D02*
X29183095Y-96353571D01*
X29183095Y-96353571D02*
X29135476Y-96448809D01*
X29135476Y-96448809D02*
X29135476Y-96686904D01*
X29135476Y-96686904D02*
X29183095Y-96782142D01*
X29183095Y-96782142D02*
X29230714Y-96829761D01*
X29230714Y-96829761D02*
X29325952Y-96877380D01*
X29325952Y-96877380D02*
X29611666Y-96877380D01*
X29611666Y-96877380D02*
X29706904Y-96829761D01*
X29706904Y-96829761D02*
X29754523Y-96782142D01*
X50278332Y-62809761D02*
X50135475Y-62857380D01*
X50135475Y-62857380D02*
X49897380Y-62857380D01*
X49897380Y-62857380D02*
X49802142Y-62809761D01*
X49802142Y-62809761D02*
X49754523Y-62762142D01*
X49754523Y-62762142D02*
X49706904Y-62666904D01*
X49706904Y-62666904D02*
X49706904Y-62571666D01*
X49706904Y-62571666D02*
X49754523Y-62476428D01*
X49754523Y-62476428D02*
X49802142Y-62428809D01*
X49802142Y-62428809D02*
X49897380Y-62381190D01*
X49897380Y-62381190D02*
X50087856Y-62333571D01*
X50087856Y-62333571D02*
X50183094Y-62285952D01*
X50183094Y-62285952D02*
X50230713Y-62238333D01*
X50230713Y-62238333D02*
X50278332Y-62143095D01*
X50278332Y-62143095D02*
X50278332Y-62047857D01*
X50278332Y-62047857D02*
X50230713Y-61952619D01*
X50230713Y-61952619D02*
X50183094Y-61905000D01*
X50183094Y-61905000D02*
X50087856Y-61857380D01*
X50087856Y-61857380D02*
X49849761Y-61857380D01*
X49849761Y-61857380D02*
X49706904Y-61905000D01*
X49373570Y-61857380D02*
X49135475Y-62857380D01*
X49135475Y-62857380D02*
X48944999Y-62143095D01*
X48944999Y-62143095D02*
X48754523Y-62857380D01*
X48754523Y-62857380D02*
X48516428Y-61857380D01*
X48183094Y-61952619D02*
X48135475Y-61905000D01*
X48135475Y-61905000D02*
X48040237Y-61857380D01*
X48040237Y-61857380D02*
X47802142Y-61857380D01*
X47802142Y-61857380D02*
X47706904Y-61905000D01*
X47706904Y-61905000D02*
X47659285Y-61952619D01*
X47659285Y-61952619D02*
X47611666Y-62047857D01*
X47611666Y-62047857D02*
X47611666Y-62143095D01*
X47611666Y-62143095D02*
X47659285Y-62285952D01*
X47659285Y-62285952D02*
X48230713Y-62857380D01*
X48230713Y-62857380D02*
X47611666Y-62857380D01*
X86278332Y-53889761D02*
X86135475Y-53937380D01*
X86135475Y-53937380D02*
X85897380Y-53937380D01*
X85897380Y-53937380D02*
X85802142Y-53889761D01*
X85802142Y-53889761D02*
X85754523Y-53842142D01*
X85754523Y-53842142D02*
X85706904Y-53746904D01*
X85706904Y-53746904D02*
X85706904Y-53651666D01*
X85706904Y-53651666D02*
X85754523Y-53556428D01*
X85754523Y-53556428D02*
X85802142Y-53508809D01*
X85802142Y-53508809D02*
X85897380Y-53461190D01*
X85897380Y-53461190D02*
X86087856Y-53413571D01*
X86087856Y-53413571D02*
X86183094Y-53365952D01*
X86183094Y-53365952D02*
X86230713Y-53318333D01*
X86230713Y-53318333D02*
X86278332Y-53223095D01*
X86278332Y-53223095D02*
X86278332Y-53127857D01*
X86278332Y-53127857D02*
X86230713Y-53032619D01*
X86230713Y-53032619D02*
X86183094Y-52985000D01*
X86183094Y-52985000D02*
X86087856Y-52937380D01*
X86087856Y-52937380D02*
X85849761Y-52937380D01*
X85849761Y-52937380D02*
X85706904Y-52985000D01*
X85373570Y-52937380D02*
X85135475Y-53937380D01*
X85135475Y-53937380D02*
X84944999Y-53223095D01*
X84944999Y-53223095D02*
X84754523Y-53937380D01*
X84754523Y-53937380D02*
X84516428Y-52937380D01*
X83706904Y-53270714D02*
X83706904Y-53937380D01*
X83944999Y-52889761D02*
X84183094Y-53604047D01*
X84183094Y-53604047D02*
X83564047Y-53604047D01*
X68278332Y-56249761D02*
X68135475Y-56297380D01*
X68135475Y-56297380D02*
X67897380Y-56297380D01*
X67897380Y-56297380D02*
X67802142Y-56249761D01*
X67802142Y-56249761D02*
X67754523Y-56202142D01*
X67754523Y-56202142D02*
X67706904Y-56106904D01*
X67706904Y-56106904D02*
X67706904Y-56011666D01*
X67706904Y-56011666D02*
X67754523Y-55916428D01*
X67754523Y-55916428D02*
X67802142Y-55868809D01*
X67802142Y-55868809D02*
X67897380Y-55821190D01*
X67897380Y-55821190D02*
X68087856Y-55773571D01*
X68087856Y-55773571D02*
X68183094Y-55725952D01*
X68183094Y-55725952D02*
X68230713Y-55678333D01*
X68230713Y-55678333D02*
X68278332Y-55583095D01*
X68278332Y-55583095D02*
X68278332Y-55487857D01*
X68278332Y-55487857D02*
X68230713Y-55392619D01*
X68230713Y-55392619D02*
X68183094Y-55345000D01*
X68183094Y-55345000D02*
X68087856Y-55297380D01*
X68087856Y-55297380D02*
X67849761Y-55297380D01*
X67849761Y-55297380D02*
X67706904Y-55345000D01*
X67373570Y-55297380D02*
X67135475Y-56297380D01*
X67135475Y-56297380D02*
X66944999Y-55583095D01*
X66944999Y-55583095D02*
X66754523Y-56297380D01*
X66754523Y-56297380D02*
X66516428Y-55297380D01*
X66230713Y-55297380D02*
X65611666Y-55297380D01*
X65611666Y-55297380D02*
X65944999Y-55678333D01*
X65944999Y-55678333D02*
X65802142Y-55678333D01*
X65802142Y-55678333D02*
X65706904Y-55725952D01*
X65706904Y-55725952D02*
X65659285Y-55773571D01*
X65659285Y-55773571D02*
X65611666Y-55868809D01*
X65611666Y-55868809D02*
X65611666Y-56106904D01*
X65611666Y-56106904D02*
X65659285Y-56202142D01*
X65659285Y-56202142D02*
X65706904Y-56249761D01*
X65706904Y-56249761D02*
X65802142Y-56297380D01*
X65802142Y-56297380D02*
X66087856Y-56297380D01*
X66087856Y-56297380D02*
X66183094Y-56249761D01*
X66183094Y-56249761D02*
X66230713Y-56202142D01*
X122278332Y-58629761D02*
X122135475Y-58677380D01*
X122135475Y-58677380D02*
X121897380Y-58677380D01*
X121897380Y-58677380D02*
X121802142Y-58629761D01*
X121802142Y-58629761D02*
X121754523Y-58582142D01*
X121754523Y-58582142D02*
X121706904Y-58486904D01*
X121706904Y-58486904D02*
X121706904Y-58391666D01*
X121706904Y-58391666D02*
X121754523Y-58296428D01*
X121754523Y-58296428D02*
X121802142Y-58248809D01*
X121802142Y-58248809D02*
X121897380Y-58201190D01*
X121897380Y-58201190D02*
X122087856Y-58153571D01*
X122087856Y-58153571D02*
X122183094Y-58105952D01*
X122183094Y-58105952D02*
X122230713Y-58058333D01*
X122230713Y-58058333D02*
X122278332Y-57963095D01*
X122278332Y-57963095D02*
X122278332Y-57867857D01*
X122278332Y-57867857D02*
X122230713Y-57772619D01*
X122230713Y-57772619D02*
X122183094Y-57725000D01*
X122183094Y-57725000D02*
X122087856Y-57677380D01*
X122087856Y-57677380D02*
X121849761Y-57677380D01*
X121849761Y-57677380D02*
X121706904Y-57725000D01*
X121373570Y-57677380D02*
X121135475Y-58677380D01*
X121135475Y-58677380D02*
X120944999Y-57963095D01*
X120944999Y-57963095D02*
X120754523Y-58677380D01*
X120754523Y-58677380D02*
X120516428Y-57677380D01*
X119706904Y-57677380D02*
X119897380Y-57677380D01*
X119897380Y-57677380D02*
X119992618Y-57725000D01*
X119992618Y-57725000D02*
X120040237Y-57772619D01*
X120040237Y-57772619D02*
X120135475Y-57915476D01*
X120135475Y-57915476D02*
X120183094Y-58105952D01*
X120183094Y-58105952D02*
X120183094Y-58486904D01*
X120183094Y-58486904D02*
X120135475Y-58582142D01*
X120135475Y-58582142D02*
X120087856Y-58629761D01*
X120087856Y-58629761D02*
X119992618Y-58677380D01*
X119992618Y-58677380D02*
X119802142Y-58677380D01*
X119802142Y-58677380D02*
X119706904Y-58629761D01*
X119706904Y-58629761D02*
X119659285Y-58582142D01*
X119659285Y-58582142D02*
X119611666Y-58486904D01*
X119611666Y-58486904D02*
X119611666Y-58248809D01*
X119611666Y-58248809D02*
X119659285Y-58153571D01*
X119659285Y-58153571D02*
X119706904Y-58105952D01*
X119706904Y-58105952D02*
X119802142Y-58058333D01*
X119802142Y-58058333D02*
X119992618Y-58058333D01*
X119992618Y-58058333D02*
X120087856Y-58105952D01*
X120087856Y-58105952D02*
X120135475Y-58153571D01*
X120135475Y-58153571D02*
X120183094Y-58248809D01*
X104278332Y-56249761D02*
X104135475Y-56297380D01*
X104135475Y-56297380D02*
X103897380Y-56297380D01*
X103897380Y-56297380D02*
X103802142Y-56249761D01*
X103802142Y-56249761D02*
X103754523Y-56202142D01*
X103754523Y-56202142D02*
X103706904Y-56106904D01*
X103706904Y-56106904D02*
X103706904Y-56011666D01*
X103706904Y-56011666D02*
X103754523Y-55916428D01*
X103754523Y-55916428D02*
X103802142Y-55868809D01*
X103802142Y-55868809D02*
X103897380Y-55821190D01*
X103897380Y-55821190D02*
X104087856Y-55773571D01*
X104087856Y-55773571D02*
X104183094Y-55725952D01*
X104183094Y-55725952D02*
X104230713Y-55678333D01*
X104230713Y-55678333D02*
X104278332Y-55583095D01*
X104278332Y-55583095D02*
X104278332Y-55487857D01*
X104278332Y-55487857D02*
X104230713Y-55392619D01*
X104230713Y-55392619D02*
X104183094Y-55345000D01*
X104183094Y-55345000D02*
X104087856Y-55297380D01*
X104087856Y-55297380D02*
X103849761Y-55297380D01*
X103849761Y-55297380D02*
X103706904Y-55345000D01*
X103373570Y-55297380D02*
X103135475Y-56297380D01*
X103135475Y-56297380D02*
X102944999Y-55583095D01*
X102944999Y-55583095D02*
X102754523Y-56297380D01*
X102754523Y-56297380D02*
X102516428Y-55297380D01*
X101659285Y-55297380D02*
X102135475Y-55297380D01*
X102135475Y-55297380D02*
X102183094Y-55773571D01*
X102183094Y-55773571D02*
X102135475Y-55725952D01*
X102135475Y-55725952D02*
X102040237Y-55678333D01*
X102040237Y-55678333D02*
X101802142Y-55678333D01*
X101802142Y-55678333D02*
X101706904Y-55725952D01*
X101706904Y-55725952D02*
X101659285Y-55773571D01*
X101659285Y-55773571D02*
X101611666Y-55868809D01*
X101611666Y-55868809D02*
X101611666Y-56106904D01*
X101611666Y-56106904D02*
X101659285Y-56202142D01*
X101659285Y-56202142D02*
X101706904Y-56249761D01*
X101706904Y-56249761D02*
X101802142Y-56297380D01*
X101802142Y-56297380D02*
X102040237Y-56297380D01*
X102040237Y-56297380D02*
X102135475Y-56249761D01*
X102135475Y-56249761D02*
X102183094Y-56202142D01*
X86754523Y-87879761D02*
X86611666Y-87927380D01*
X86611666Y-87927380D02*
X86373571Y-87927380D01*
X86373571Y-87927380D02*
X86278333Y-87879761D01*
X86278333Y-87879761D02*
X86230714Y-87832142D01*
X86230714Y-87832142D02*
X86183095Y-87736904D01*
X86183095Y-87736904D02*
X86183095Y-87641666D01*
X86183095Y-87641666D02*
X86230714Y-87546428D01*
X86230714Y-87546428D02*
X86278333Y-87498809D01*
X86278333Y-87498809D02*
X86373571Y-87451190D01*
X86373571Y-87451190D02*
X86564047Y-87403571D01*
X86564047Y-87403571D02*
X86659285Y-87355952D01*
X86659285Y-87355952D02*
X86706904Y-87308333D01*
X86706904Y-87308333D02*
X86754523Y-87213095D01*
X86754523Y-87213095D02*
X86754523Y-87117857D01*
X86754523Y-87117857D02*
X86706904Y-87022619D01*
X86706904Y-87022619D02*
X86659285Y-86975000D01*
X86659285Y-86975000D02*
X86564047Y-86927380D01*
X86564047Y-86927380D02*
X86325952Y-86927380D01*
X86325952Y-86927380D02*
X86183095Y-86975000D01*
X85849761Y-86927380D02*
X85611666Y-87927380D01*
X85611666Y-87927380D02*
X85421190Y-87213095D01*
X85421190Y-87213095D02*
X85230714Y-87927380D01*
X85230714Y-87927380D02*
X84992619Y-86927380D01*
X84087857Y-87927380D02*
X84659285Y-87927380D01*
X84373571Y-87927380D02*
X84373571Y-86927380D01*
X84373571Y-86927380D02*
X84468809Y-87070238D01*
X84468809Y-87070238D02*
X84564047Y-87165476D01*
X84564047Y-87165476D02*
X84659285Y-87213095D01*
X83230714Y-86927380D02*
X83421190Y-86927380D01*
X83421190Y-86927380D02*
X83516428Y-86975000D01*
X83516428Y-86975000D02*
X83564047Y-87022619D01*
X83564047Y-87022619D02*
X83659285Y-87165476D01*
X83659285Y-87165476D02*
X83706904Y-87355952D01*
X83706904Y-87355952D02*
X83706904Y-87736904D01*
X83706904Y-87736904D02*
X83659285Y-87832142D01*
X83659285Y-87832142D02*
X83611666Y-87879761D01*
X83611666Y-87879761D02*
X83516428Y-87927380D01*
X83516428Y-87927380D02*
X83325952Y-87927380D01*
X83325952Y-87927380D02*
X83230714Y-87879761D01*
X83230714Y-87879761D02*
X83183095Y-87832142D01*
X83183095Y-87832142D02*
X83135476Y-87736904D01*
X83135476Y-87736904D02*
X83135476Y-87498809D01*
X83135476Y-87498809D02*
X83183095Y-87403571D01*
X83183095Y-87403571D02*
X83230714Y-87355952D01*
X83230714Y-87355952D02*
X83325952Y-87308333D01*
X83325952Y-87308333D02*
X83516428Y-87308333D01*
X83516428Y-87308333D02*
X83611666Y-87355952D01*
X83611666Y-87355952D02*
X83659285Y-87403571D01*
X83659285Y-87403571D02*
X83706904Y-87498809D01*
X86754523Y-70879761D02*
X86611666Y-70927380D01*
X86611666Y-70927380D02*
X86373571Y-70927380D01*
X86373571Y-70927380D02*
X86278333Y-70879761D01*
X86278333Y-70879761D02*
X86230714Y-70832142D01*
X86230714Y-70832142D02*
X86183095Y-70736904D01*
X86183095Y-70736904D02*
X86183095Y-70641666D01*
X86183095Y-70641666D02*
X86230714Y-70546428D01*
X86230714Y-70546428D02*
X86278333Y-70498809D01*
X86278333Y-70498809D02*
X86373571Y-70451190D01*
X86373571Y-70451190D02*
X86564047Y-70403571D01*
X86564047Y-70403571D02*
X86659285Y-70355952D01*
X86659285Y-70355952D02*
X86706904Y-70308333D01*
X86706904Y-70308333D02*
X86754523Y-70213095D01*
X86754523Y-70213095D02*
X86754523Y-70117857D01*
X86754523Y-70117857D02*
X86706904Y-70022619D01*
X86706904Y-70022619D02*
X86659285Y-69975000D01*
X86659285Y-69975000D02*
X86564047Y-69927380D01*
X86564047Y-69927380D02*
X86325952Y-69927380D01*
X86325952Y-69927380D02*
X86183095Y-69975000D01*
X85849761Y-69927380D02*
X85611666Y-70927380D01*
X85611666Y-70927380D02*
X85421190Y-70213095D01*
X85421190Y-70213095D02*
X85230714Y-70927380D01*
X85230714Y-70927380D02*
X84992619Y-69927380D01*
X84087857Y-70927380D02*
X84659285Y-70927380D01*
X84373571Y-70927380D02*
X84373571Y-69927380D01*
X84373571Y-69927380D02*
X84468809Y-70070238D01*
X84468809Y-70070238D02*
X84564047Y-70165476D01*
X84564047Y-70165476D02*
X84659285Y-70213095D01*
X83468809Y-69927380D02*
X83373571Y-69927380D01*
X83373571Y-69927380D02*
X83278333Y-69975000D01*
X83278333Y-69975000D02*
X83230714Y-70022619D01*
X83230714Y-70022619D02*
X83183095Y-70117857D01*
X83183095Y-70117857D02*
X83135476Y-70308333D01*
X83135476Y-70308333D02*
X83135476Y-70546428D01*
X83135476Y-70546428D02*
X83183095Y-70736904D01*
X83183095Y-70736904D02*
X83230714Y-70832142D01*
X83230714Y-70832142D02*
X83278333Y-70879761D01*
X83278333Y-70879761D02*
X83373571Y-70927380D01*
X83373571Y-70927380D02*
X83468809Y-70927380D01*
X83468809Y-70927380D02*
X83564047Y-70879761D01*
X83564047Y-70879761D02*
X83611666Y-70832142D01*
X83611666Y-70832142D02*
X83659285Y-70736904D01*
X83659285Y-70736904D02*
X83706904Y-70546428D01*
X83706904Y-70546428D02*
X83706904Y-70308333D01*
X83706904Y-70308333D02*
X83659285Y-70117857D01*
X83659285Y-70117857D02*
X83611666Y-70022619D01*
X83611666Y-70022619D02*
X83564047Y-69975000D01*
X83564047Y-69975000D02*
X83468809Y-69927380D01*
X68754523Y-90254761D02*
X68611666Y-90302380D01*
X68611666Y-90302380D02*
X68373571Y-90302380D01*
X68373571Y-90302380D02*
X68278333Y-90254761D01*
X68278333Y-90254761D02*
X68230714Y-90207142D01*
X68230714Y-90207142D02*
X68183095Y-90111904D01*
X68183095Y-90111904D02*
X68183095Y-90016666D01*
X68183095Y-90016666D02*
X68230714Y-89921428D01*
X68230714Y-89921428D02*
X68278333Y-89873809D01*
X68278333Y-89873809D02*
X68373571Y-89826190D01*
X68373571Y-89826190D02*
X68564047Y-89778571D01*
X68564047Y-89778571D02*
X68659285Y-89730952D01*
X68659285Y-89730952D02*
X68706904Y-89683333D01*
X68706904Y-89683333D02*
X68754523Y-89588095D01*
X68754523Y-89588095D02*
X68754523Y-89492857D01*
X68754523Y-89492857D02*
X68706904Y-89397619D01*
X68706904Y-89397619D02*
X68659285Y-89350000D01*
X68659285Y-89350000D02*
X68564047Y-89302380D01*
X68564047Y-89302380D02*
X68325952Y-89302380D01*
X68325952Y-89302380D02*
X68183095Y-89350000D01*
X67849761Y-89302380D02*
X67611666Y-90302380D01*
X67611666Y-90302380D02*
X67421190Y-89588095D01*
X67421190Y-89588095D02*
X67230714Y-90302380D01*
X67230714Y-90302380D02*
X66992619Y-89302380D01*
X66087857Y-90302380D02*
X66659285Y-90302380D01*
X66373571Y-90302380D02*
X66373571Y-89302380D01*
X66373571Y-89302380D02*
X66468809Y-89445238D01*
X66468809Y-89445238D02*
X66564047Y-89540476D01*
X66564047Y-89540476D02*
X66659285Y-89588095D01*
X65183095Y-89302380D02*
X65659285Y-89302380D01*
X65659285Y-89302380D02*
X65706904Y-89778571D01*
X65706904Y-89778571D02*
X65659285Y-89730952D01*
X65659285Y-89730952D02*
X65564047Y-89683333D01*
X65564047Y-89683333D02*
X65325952Y-89683333D01*
X65325952Y-89683333D02*
X65230714Y-89730952D01*
X65230714Y-89730952D02*
X65183095Y-89778571D01*
X65183095Y-89778571D02*
X65135476Y-89873809D01*
X65135476Y-89873809D02*
X65135476Y-90111904D01*
X65135476Y-90111904D02*
X65183095Y-90207142D01*
X65183095Y-90207142D02*
X65230714Y-90254761D01*
X65230714Y-90254761D02*
X65325952Y-90302380D01*
X65325952Y-90302380D02*
X65564047Y-90302380D01*
X65564047Y-90302380D02*
X65659285Y-90254761D01*
X65659285Y-90254761D02*
X65706904Y-90207142D01*
X32278332Y-62809761D02*
X32135475Y-62857380D01*
X32135475Y-62857380D02*
X31897380Y-62857380D01*
X31897380Y-62857380D02*
X31802142Y-62809761D01*
X31802142Y-62809761D02*
X31754523Y-62762142D01*
X31754523Y-62762142D02*
X31706904Y-62666904D01*
X31706904Y-62666904D02*
X31706904Y-62571666D01*
X31706904Y-62571666D02*
X31754523Y-62476428D01*
X31754523Y-62476428D02*
X31802142Y-62428809D01*
X31802142Y-62428809D02*
X31897380Y-62381190D01*
X31897380Y-62381190D02*
X32087856Y-62333571D01*
X32087856Y-62333571D02*
X32183094Y-62285952D01*
X32183094Y-62285952D02*
X32230713Y-62238333D01*
X32230713Y-62238333D02*
X32278332Y-62143095D01*
X32278332Y-62143095D02*
X32278332Y-62047857D01*
X32278332Y-62047857D02*
X32230713Y-61952619D01*
X32230713Y-61952619D02*
X32183094Y-61905000D01*
X32183094Y-61905000D02*
X32087856Y-61857380D01*
X32087856Y-61857380D02*
X31849761Y-61857380D01*
X31849761Y-61857380D02*
X31706904Y-61905000D01*
X31373570Y-61857380D02*
X31135475Y-62857380D01*
X31135475Y-62857380D02*
X30944999Y-62143095D01*
X30944999Y-62143095D02*
X30754523Y-62857380D01*
X30754523Y-62857380D02*
X30516428Y-61857380D01*
X29611666Y-62857380D02*
X30183094Y-62857380D01*
X29897380Y-62857380D02*
X29897380Y-61857380D01*
X29897380Y-61857380D02*
X29992618Y-62000238D01*
X29992618Y-62000238D02*
X30087856Y-62095476D01*
X30087856Y-62095476D02*
X30183094Y-62143095D01*
X89964523Y-125459761D02*
X89821666Y-125507380D01*
X89821666Y-125507380D02*
X89583571Y-125507380D01*
X89583571Y-125507380D02*
X89488333Y-125459761D01*
X89488333Y-125459761D02*
X89440714Y-125412142D01*
X89440714Y-125412142D02*
X89393095Y-125316904D01*
X89393095Y-125316904D02*
X89393095Y-125221666D01*
X89393095Y-125221666D02*
X89440714Y-125126428D01*
X89440714Y-125126428D02*
X89488333Y-125078809D01*
X89488333Y-125078809D02*
X89583571Y-125031190D01*
X89583571Y-125031190D02*
X89774047Y-124983571D01*
X89774047Y-124983571D02*
X89869285Y-124935952D01*
X89869285Y-124935952D02*
X89916904Y-124888333D01*
X89916904Y-124888333D02*
X89964523Y-124793095D01*
X89964523Y-124793095D02*
X89964523Y-124697857D01*
X89964523Y-124697857D02*
X89916904Y-124602619D01*
X89916904Y-124602619D02*
X89869285Y-124555000D01*
X89869285Y-124555000D02*
X89774047Y-124507380D01*
X89774047Y-124507380D02*
X89535952Y-124507380D01*
X89535952Y-124507380D02*
X89393095Y-124555000D01*
X89059761Y-124507380D02*
X88821666Y-125507380D01*
X88821666Y-125507380D02*
X88631190Y-124793095D01*
X88631190Y-124793095D02*
X88440714Y-125507380D01*
X88440714Y-125507380D02*
X88202619Y-124507380D01*
X87297857Y-125507380D02*
X87869285Y-125507380D01*
X87583571Y-125507380D02*
X87583571Y-124507380D01*
X87583571Y-124507380D02*
X87678809Y-124650238D01*
X87678809Y-124650238D02*
X87774047Y-124745476D01*
X87774047Y-124745476D02*
X87869285Y-124793095D01*
X86821666Y-125507380D02*
X86631190Y-125507380D01*
X86631190Y-125507380D02*
X86535952Y-125459761D01*
X86535952Y-125459761D02*
X86488333Y-125412142D01*
X86488333Y-125412142D02*
X86393095Y-125269285D01*
X86393095Y-125269285D02*
X86345476Y-125078809D01*
X86345476Y-125078809D02*
X86345476Y-124697857D01*
X86345476Y-124697857D02*
X86393095Y-124602619D01*
X86393095Y-124602619D02*
X86440714Y-124555000D01*
X86440714Y-124555000D02*
X86535952Y-124507380D01*
X86535952Y-124507380D02*
X86726428Y-124507380D01*
X86726428Y-124507380D02*
X86821666Y-124555000D01*
X86821666Y-124555000D02*
X86869285Y-124602619D01*
X86869285Y-124602619D02*
X86916904Y-124697857D01*
X86916904Y-124697857D02*
X86916904Y-124935952D01*
X86916904Y-124935952D02*
X86869285Y-125031190D01*
X86869285Y-125031190D02*
X86821666Y-125078809D01*
X86821666Y-125078809D02*
X86726428Y-125126428D01*
X86726428Y-125126428D02*
X86535952Y-125126428D01*
X86535952Y-125126428D02*
X86440714Y-125078809D01*
X86440714Y-125078809D02*
X86393095Y-125031190D01*
X86393095Y-125031190D02*
X86345476Y-124935952D01*
X50754523Y-96814761D02*
X50611666Y-96862380D01*
X50611666Y-96862380D02*
X50373571Y-96862380D01*
X50373571Y-96862380D02*
X50278333Y-96814761D01*
X50278333Y-96814761D02*
X50230714Y-96767142D01*
X50230714Y-96767142D02*
X50183095Y-96671904D01*
X50183095Y-96671904D02*
X50183095Y-96576666D01*
X50183095Y-96576666D02*
X50230714Y-96481428D01*
X50230714Y-96481428D02*
X50278333Y-96433809D01*
X50278333Y-96433809D02*
X50373571Y-96386190D01*
X50373571Y-96386190D02*
X50564047Y-96338571D01*
X50564047Y-96338571D02*
X50659285Y-96290952D01*
X50659285Y-96290952D02*
X50706904Y-96243333D01*
X50706904Y-96243333D02*
X50754523Y-96148095D01*
X50754523Y-96148095D02*
X50754523Y-96052857D01*
X50754523Y-96052857D02*
X50706904Y-95957619D01*
X50706904Y-95957619D02*
X50659285Y-95910000D01*
X50659285Y-95910000D02*
X50564047Y-95862380D01*
X50564047Y-95862380D02*
X50325952Y-95862380D01*
X50325952Y-95862380D02*
X50183095Y-95910000D01*
X49849761Y-95862380D02*
X49611666Y-96862380D01*
X49611666Y-96862380D02*
X49421190Y-96148095D01*
X49421190Y-96148095D02*
X49230714Y-96862380D01*
X49230714Y-96862380D02*
X48992619Y-95862380D01*
X48087857Y-96862380D02*
X48659285Y-96862380D01*
X48373571Y-96862380D02*
X48373571Y-95862380D01*
X48373571Y-95862380D02*
X48468809Y-96005238D01*
X48468809Y-96005238D02*
X48564047Y-96100476D01*
X48564047Y-96100476D02*
X48659285Y-96148095D01*
X47230714Y-96195714D02*
X47230714Y-96862380D01*
X47468809Y-95814761D02*
X47706904Y-96529047D01*
X47706904Y-96529047D02*
X47087857Y-96529047D01*
X104754523Y-90254761D02*
X104611666Y-90302380D01*
X104611666Y-90302380D02*
X104373571Y-90302380D01*
X104373571Y-90302380D02*
X104278333Y-90254761D01*
X104278333Y-90254761D02*
X104230714Y-90207142D01*
X104230714Y-90207142D02*
X104183095Y-90111904D01*
X104183095Y-90111904D02*
X104183095Y-90016666D01*
X104183095Y-90016666D02*
X104230714Y-89921428D01*
X104230714Y-89921428D02*
X104278333Y-89873809D01*
X104278333Y-89873809D02*
X104373571Y-89826190D01*
X104373571Y-89826190D02*
X104564047Y-89778571D01*
X104564047Y-89778571D02*
X104659285Y-89730952D01*
X104659285Y-89730952D02*
X104706904Y-89683333D01*
X104706904Y-89683333D02*
X104754523Y-89588095D01*
X104754523Y-89588095D02*
X104754523Y-89492857D01*
X104754523Y-89492857D02*
X104706904Y-89397619D01*
X104706904Y-89397619D02*
X104659285Y-89350000D01*
X104659285Y-89350000D02*
X104564047Y-89302380D01*
X104564047Y-89302380D02*
X104325952Y-89302380D01*
X104325952Y-89302380D02*
X104183095Y-89350000D01*
X103849761Y-89302380D02*
X103611666Y-90302380D01*
X103611666Y-90302380D02*
X103421190Y-89588095D01*
X103421190Y-89588095D02*
X103230714Y-90302380D01*
X103230714Y-90302380D02*
X102992619Y-89302380D01*
X102087857Y-90302380D02*
X102659285Y-90302380D01*
X102373571Y-90302380D02*
X102373571Y-89302380D01*
X102373571Y-89302380D02*
X102468809Y-89445238D01*
X102468809Y-89445238D02*
X102564047Y-89540476D01*
X102564047Y-89540476D02*
X102659285Y-89588095D01*
X101754523Y-89302380D02*
X101087857Y-89302380D01*
X101087857Y-89302380D02*
X101516428Y-90302380D01*
X138808297Y-129572270D02*
X138778108Y-129719797D01*
X138778108Y-129719797D02*
X138659060Y-129925994D01*
X138659060Y-129925994D02*
X138570202Y-129984663D01*
X138570202Y-129984663D02*
X138505153Y-130002093D01*
X138505153Y-130002093D02*
X138398865Y-129995713D01*
X138398865Y-129995713D02*
X138316387Y-129948094D01*
X138316387Y-129948094D02*
X138257717Y-129859236D01*
X138257717Y-129859236D02*
X138240288Y-129794187D01*
X138240288Y-129794187D02*
X138246667Y-129687899D01*
X138246667Y-129687899D02*
X138300666Y-129499132D01*
X138300666Y-129499132D02*
X138307046Y-129392844D01*
X138307046Y-129392844D02*
X138289616Y-129327795D01*
X138289616Y-129327795D02*
X138230947Y-129238937D01*
X138230947Y-129238937D02*
X138148468Y-129191317D01*
X138148468Y-129191317D02*
X138042180Y-129184938D01*
X138042180Y-129184938D02*
X137977131Y-129202368D01*
X137977131Y-129202368D02*
X137888273Y-129261037D01*
X137888273Y-129261037D02*
X137769226Y-129467233D01*
X137769226Y-129467233D02*
X137739036Y-129614761D01*
X137531130Y-129879626D02*
X138278108Y-130585823D01*
X138278108Y-130585823D02*
X137564280Y-130393637D01*
X137564280Y-130393637D02*
X138087632Y-130915737D01*
X138087632Y-130915737D02*
X137102559Y-130621934D01*
X137018371Y-130958228D02*
X136953322Y-130975658D01*
X136953322Y-130975658D02*
X136864464Y-131034327D01*
X136864464Y-131034327D02*
X136745416Y-131240523D01*
X136745416Y-131240523D02*
X136739036Y-131346811D01*
X136739036Y-131346811D02*
X136756466Y-131411860D01*
X136756466Y-131411860D02*
X136815135Y-131500718D01*
X136815135Y-131500718D02*
X136897614Y-131548338D01*
X136897614Y-131548338D02*
X137045141Y-131578527D01*
X137045141Y-131578527D02*
X137825727Y-131369369D01*
X137825727Y-131369369D02*
X137516203Y-131905480D01*
X137040013Y-132730267D02*
X137325727Y-132235395D01*
X137182870Y-132482831D02*
X136316845Y-131982831D01*
X136316845Y-131982831D02*
X136488182Y-131971781D01*
X136488182Y-131971781D02*
X136618279Y-131936921D01*
X136618279Y-131936921D02*
X136707138Y-131878252D01*
X122754523Y-92629761D02*
X122611666Y-92677380D01*
X122611666Y-92677380D02*
X122373571Y-92677380D01*
X122373571Y-92677380D02*
X122278333Y-92629761D01*
X122278333Y-92629761D02*
X122230714Y-92582142D01*
X122230714Y-92582142D02*
X122183095Y-92486904D01*
X122183095Y-92486904D02*
X122183095Y-92391666D01*
X122183095Y-92391666D02*
X122230714Y-92296428D01*
X122230714Y-92296428D02*
X122278333Y-92248809D01*
X122278333Y-92248809D02*
X122373571Y-92201190D01*
X122373571Y-92201190D02*
X122564047Y-92153571D01*
X122564047Y-92153571D02*
X122659285Y-92105952D01*
X122659285Y-92105952D02*
X122706904Y-92058333D01*
X122706904Y-92058333D02*
X122754523Y-91963095D01*
X122754523Y-91963095D02*
X122754523Y-91867857D01*
X122754523Y-91867857D02*
X122706904Y-91772619D01*
X122706904Y-91772619D02*
X122659285Y-91725000D01*
X122659285Y-91725000D02*
X122564047Y-91677380D01*
X122564047Y-91677380D02*
X122325952Y-91677380D01*
X122325952Y-91677380D02*
X122183095Y-91725000D01*
X121849761Y-91677380D02*
X121611666Y-92677380D01*
X121611666Y-92677380D02*
X121421190Y-91963095D01*
X121421190Y-91963095D02*
X121230714Y-92677380D01*
X121230714Y-92677380D02*
X120992619Y-91677380D01*
X120087857Y-92677380D02*
X120659285Y-92677380D01*
X120373571Y-92677380D02*
X120373571Y-91677380D01*
X120373571Y-91677380D02*
X120468809Y-91820238D01*
X120468809Y-91820238D02*
X120564047Y-91915476D01*
X120564047Y-91915476D02*
X120659285Y-91963095D01*
X119516428Y-92105952D02*
X119611666Y-92058333D01*
X119611666Y-92058333D02*
X119659285Y-92010714D01*
X119659285Y-92010714D02*
X119706904Y-91915476D01*
X119706904Y-91915476D02*
X119706904Y-91867857D01*
X119706904Y-91867857D02*
X119659285Y-91772619D01*
X119659285Y-91772619D02*
X119611666Y-91725000D01*
X119611666Y-91725000D02*
X119516428Y-91677380D01*
X119516428Y-91677380D02*
X119325952Y-91677380D01*
X119325952Y-91677380D02*
X119230714Y-91725000D01*
X119230714Y-91725000D02*
X119183095Y-91772619D01*
X119183095Y-91772619D02*
X119135476Y-91867857D01*
X119135476Y-91867857D02*
X119135476Y-91915476D01*
X119135476Y-91915476D02*
X119183095Y-92010714D01*
X119183095Y-92010714D02*
X119230714Y-92058333D01*
X119230714Y-92058333D02*
X119325952Y-92105952D01*
X119325952Y-92105952D02*
X119516428Y-92105952D01*
X119516428Y-92105952D02*
X119611666Y-92153571D01*
X119611666Y-92153571D02*
X119659285Y-92201190D01*
X119659285Y-92201190D02*
X119706904Y-92296428D01*
X119706904Y-92296428D02*
X119706904Y-92486904D01*
X119706904Y-92486904D02*
X119659285Y-92582142D01*
X119659285Y-92582142D02*
X119611666Y-92629761D01*
X119611666Y-92629761D02*
X119516428Y-92677380D01*
X119516428Y-92677380D02*
X119325952Y-92677380D01*
X119325952Y-92677380D02*
X119230714Y-92629761D01*
X119230714Y-92629761D02*
X119183095Y-92582142D01*
X119183095Y-92582142D02*
X119135476Y-92486904D01*
X119135476Y-92486904D02*
X119135476Y-92296428D01*
X119135476Y-92296428D02*
X119183095Y-92201190D01*
X119183095Y-92201190D02*
X119230714Y-92153571D01*
X119230714Y-92153571D02*
X119325952Y-92105952D01*
X24500000Y-79410000D02*
X25000000Y-78910000D01*
X24500000Y-82910000D02*
X25000000Y-83410000D01*
X25000000Y-78910000D02*
X28000000Y-78910000D01*
X25000000Y-83410000D02*
X27500000Y-83410000D01*
X28000000Y-78910000D02*
X28500000Y-79410000D01*
X28500000Y-80410000D02*
X28500000Y-79410000D01*
X29000000Y-84910000D02*
X29000000Y-85610000D01*
X29000000Y-85610000D02*
X33500000Y-85610000D01*
X33500000Y-80910000D02*
X29000000Y-80910000D01*
X33500000Y-81510000D02*
X33500000Y-80910000D01*
X33500000Y-85610000D02*
X33500000Y-85110000D01*
X29000000Y-84910000D02*
G75*
G03*
X27500000Y-83410000I-1500000J0D01*
G01*
X28500000Y-80410000D02*
G75*
G03*
X29000000Y-80910000I500000J0D01*
G01*
X107290000Y-97200000D02*
X107290000Y-102600000D01*
X105790000Y-97200000D02*
X107290000Y-97200000D01*
X106040000Y-99400000D02*
X107040000Y-99400000D01*
X106540000Y-99500000D02*
X106040000Y-100400000D01*
X107040000Y-100400000D02*
X106540000Y-99500000D01*
X106040000Y-100400000D02*
X107040000Y-100400000D01*
X105790000Y-102600000D02*
X105790000Y-97200000D01*
X105790000Y-102600000D02*
X107290000Y-102600000D01*
X109170000Y-97240000D02*
X109170000Y-102640000D01*
X107670000Y-97240000D02*
X109170000Y-97240000D01*
X107920000Y-99440000D02*
X108920000Y-99440000D01*
X108420000Y-99540000D02*
X107920000Y-100440000D01*
X108920000Y-100440000D02*
X108420000Y-99540000D01*
X107920000Y-100440000D02*
X108920000Y-100440000D01*
X107670000Y-102640000D02*
X107670000Y-97240000D01*
X107670000Y-102640000D02*
X109170000Y-102640000D01*
X114500000Y-75230000D02*
X115000000Y-74730000D01*
X114500000Y-78730000D02*
X115000000Y-79230000D01*
X115000000Y-74730000D02*
X118000000Y-74730000D01*
X115000000Y-79230000D02*
X117500000Y-79230000D01*
X118000000Y-74730000D02*
X118500000Y-75230000D01*
X118500000Y-76230000D02*
X118500000Y-75230000D01*
X119000000Y-80730000D02*
X119000000Y-81430000D01*
X119000000Y-81430000D02*
X123500000Y-81430000D01*
X123500000Y-76730000D02*
X119000000Y-76730000D01*
X123500000Y-77330000D02*
X123500000Y-76730000D01*
X123500000Y-81430000D02*
X123500000Y-80930000D01*
X119000000Y-80730000D02*
G75*
G03*
X117500000Y-79230000I-1500000J0D01*
G01*
X118500000Y-76230000D02*
G75*
G03*
X119000000Y-76730000I500000J0D01*
G01*
X36110000Y-103385000D02*
X36110000Y-108785000D01*
X34610000Y-103385000D02*
X36110000Y-103385000D01*
X34860000Y-105585000D02*
X35860000Y-105585000D01*
X35360000Y-105685000D02*
X34860000Y-106585000D01*
X35860000Y-106585000D02*
X35360000Y-105685000D01*
X34860000Y-106585000D02*
X35860000Y-106585000D01*
X34610000Y-108785000D02*
X34610000Y-103385000D01*
X34610000Y-108785000D02*
X36110000Y-108785000D01*
X36110000Y-69405000D02*
X36110000Y-74805000D01*
X34610000Y-69405000D02*
X36110000Y-69405000D01*
X34860000Y-71605000D02*
X35860000Y-71605000D01*
X35360000Y-71705000D02*
X34860000Y-72605000D01*
X35860000Y-72605000D02*
X35360000Y-71705000D01*
X34860000Y-72605000D02*
X35860000Y-72605000D01*
X34610000Y-74805000D02*
X34610000Y-69405000D01*
X34610000Y-74805000D02*
X36110000Y-74805000D01*
X126160000Y-88200000D02*
X126160000Y-93600000D01*
X124660000Y-88200000D02*
X126160000Y-88200000D01*
X124910000Y-90400000D02*
X125910000Y-90400000D01*
X125410000Y-90500000D02*
X124910000Y-91400000D01*
X125910000Y-91400000D02*
X125410000Y-90500000D01*
X124910000Y-91400000D02*
X125910000Y-91400000D01*
X124660000Y-93600000D02*
X124660000Y-88200000D01*
X124660000Y-93600000D02*
X126160000Y-93600000D01*
X36110000Y-87135000D02*
X36110000Y-92535000D01*
X34610000Y-87135000D02*
X36110000Y-87135000D01*
X34860000Y-89335000D02*
X35860000Y-89335000D01*
X35360000Y-89435000D02*
X34860000Y-90335000D01*
X35860000Y-90335000D02*
X35360000Y-89435000D01*
X34860000Y-90335000D02*
X35860000Y-90335000D01*
X34610000Y-92535000D02*
X34610000Y-87135000D01*
X34610000Y-92535000D02*
X36110000Y-92535000D01*
X88250000Y-97230000D02*
X88250000Y-102630000D01*
X86750000Y-97230000D02*
X88250000Y-97230000D01*
X87000000Y-99430000D02*
X88000000Y-99430000D01*
X87500000Y-99530000D02*
X87000000Y-100430000D01*
X88000000Y-100430000D02*
X87500000Y-99530000D01*
X87000000Y-100430000D02*
X88000000Y-100430000D01*
X86750000Y-102630000D02*
X86750000Y-97230000D01*
X86750000Y-102630000D02*
X88250000Y-102630000D01*
X90350000Y-97290000D02*
X90350000Y-102690000D01*
X88850000Y-97290000D02*
X90350000Y-97290000D01*
X89100000Y-99490000D02*
X90100000Y-99490000D01*
X89600000Y-99590000D02*
X89100000Y-100490000D01*
X90100000Y-100490000D02*
X89600000Y-99590000D01*
X89100000Y-100490000D02*
X90100000Y-100490000D01*
X88850000Y-102690000D02*
X88850000Y-97290000D01*
X88850000Y-102690000D02*
X90350000Y-102690000D01*
X54050000Y-87135000D02*
X54050000Y-92535000D01*
X52550000Y-87135000D02*
X54050000Y-87135000D01*
X52800000Y-89335000D02*
X53800000Y-89335000D01*
X53300000Y-89435000D02*
X52800000Y-90335000D01*
X53800000Y-90335000D02*
X53300000Y-89435000D01*
X52800000Y-90335000D02*
X53800000Y-90335000D01*
X52550000Y-92535000D02*
X52550000Y-87135000D01*
X52550000Y-92535000D02*
X54050000Y-92535000D01*
X72340000Y-79200000D02*
X72340000Y-84600000D01*
X70840000Y-79200000D02*
X72340000Y-79200000D01*
X71090000Y-81400000D02*
X72090000Y-81400000D01*
X71590000Y-81500000D02*
X71090000Y-82400000D01*
X72090000Y-82400000D02*
X71590000Y-81500000D01*
X71090000Y-82400000D02*
X72090000Y-82400000D01*
X70840000Y-84600000D02*
X70840000Y-79200000D01*
X70840000Y-84600000D02*
X72340000Y-84600000D01*
X108290000Y-85405000D02*
X108290000Y-90805000D01*
X106790000Y-85405000D02*
X108290000Y-85405000D01*
X107040000Y-87605000D02*
X108040000Y-87605000D01*
X107540000Y-87705000D02*
X107040000Y-88605000D01*
X108040000Y-88605000D02*
X107540000Y-87705000D01*
X107040000Y-88605000D02*
X108040000Y-88605000D01*
X106790000Y-90805000D02*
X106790000Y-85405000D01*
X106790000Y-90805000D02*
X108290000Y-90805000D01*
X54050000Y-103385000D02*
X54050000Y-108785000D01*
X52550000Y-103385000D02*
X54050000Y-103385000D01*
X52800000Y-105585000D02*
X53800000Y-105585000D01*
X53300000Y-105685000D02*
X52800000Y-106585000D01*
X53800000Y-106585000D02*
X53300000Y-105685000D01*
X52800000Y-106585000D02*
X53800000Y-106585000D01*
X52550000Y-108785000D02*
X52550000Y-103385000D01*
X52550000Y-108785000D02*
X54050000Y-108785000D01*
X72340000Y-85405000D02*
X72340000Y-90805000D01*
X70840000Y-85405000D02*
X72340000Y-85405000D01*
X71090000Y-87605000D02*
X72090000Y-87605000D01*
X71590000Y-87705000D02*
X71090000Y-88605000D01*
X72090000Y-88605000D02*
X71590000Y-87705000D01*
X71090000Y-88605000D02*
X72090000Y-88605000D01*
X70840000Y-90805000D02*
X70840000Y-85405000D01*
X70840000Y-90805000D02*
X72340000Y-90805000D01*
X90210000Y-76480000D02*
X90210000Y-81880000D01*
X88710000Y-76480000D02*
X90210000Y-76480000D01*
X88960000Y-78680000D02*
X89960000Y-78680000D01*
X89460000Y-78780000D02*
X88960000Y-79680000D01*
X89960000Y-79680000D02*
X89460000Y-78780000D01*
X88960000Y-79680000D02*
X89960000Y-79680000D01*
X88710000Y-81880000D02*
X88710000Y-76480000D01*
X88710000Y-81880000D02*
X90210000Y-81880000D01*
X108290000Y-62855000D02*
X108290000Y-68255000D01*
X106790000Y-62855000D02*
X108290000Y-62855000D01*
X107040000Y-65055000D02*
X108040000Y-65055000D01*
X107540000Y-65155000D02*
X107040000Y-66055000D01*
X108040000Y-66055000D02*
X107540000Y-65155000D01*
X107040000Y-66055000D02*
X108040000Y-66055000D01*
X106790000Y-68255000D02*
X106790000Y-62855000D01*
X106790000Y-68255000D02*
X108290000Y-68255000D01*
X108290000Y-79200000D02*
X108290000Y-84600000D01*
X106790000Y-79200000D02*
X108290000Y-79200000D01*
X107040000Y-81400000D02*
X108040000Y-81400000D01*
X107540000Y-81500000D02*
X107040000Y-82400000D01*
X108040000Y-82400000D02*
X107540000Y-81500000D01*
X107040000Y-82400000D02*
X108040000Y-82400000D01*
X106790000Y-84600000D02*
X106790000Y-79200000D01*
X106790000Y-84600000D02*
X108290000Y-84600000D01*
X60500000Y-72850000D02*
X61000000Y-72350000D01*
X60500000Y-76350000D02*
X61000000Y-76850000D01*
X61000000Y-72350000D02*
X64000000Y-72350000D01*
X61000000Y-76850000D02*
X63500000Y-76850000D01*
X64000000Y-72350000D02*
X64500000Y-72850000D01*
X64500000Y-73850000D02*
X64500000Y-72850000D01*
X65000000Y-78350000D02*
X65000000Y-79050000D01*
X65000000Y-79050000D02*
X69500000Y-79050000D01*
X69500000Y-74350000D02*
X65000000Y-74350000D01*
X69500000Y-74950000D02*
X69500000Y-74350000D01*
X69500000Y-79050000D02*
X69500000Y-78550000D01*
X65000000Y-78350000D02*
G75*
G03*
X63500000Y-76850000I-1500000J0D01*
G01*
X64500000Y-73850000D02*
G75*
G03*
X65000000Y-74350000I500000J0D01*
G01*
X42500000Y-79410000D02*
X43000000Y-78910000D01*
X42500000Y-82910000D02*
X43000000Y-83410000D01*
X43000000Y-78910000D02*
X46000000Y-78910000D01*
X43000000Y-83410000D02*
X45500000Y-83410000D01*
X46000000Y-78910000D02*
X46500000Y-79410000D01*
X46500000Y-80410000D02*
X46500000Y-79410000D01*
X47000000Y-84910000D02*
X47000000Y-85610000D01*
X47000000Y-85610000D02*
X51500000Y-85610000D01*
X51500000Y-80910000D02*
X47000000Y-80910000D01*
X51500000Y-81510000D02*
X51500000Y-80910000D01*
X51500000Y-85610000D02*
X51500000Y-85110000D01*
X47000000Y-84910000D02*
G75*
G03*
X45500000Y-83410000I-1500000J0D01*
G01*
X46500000Y-80410000D02*
G75*
G03*
X47000000Y-80910000I500000J0D01*
G01*
X100500000Y-88250000D02*
X100000000Y-88750000D01*
X100500000Y-84750000D02*
X100000000Y-84250000D01*
X100000000Y-88750000D02*
X97000000Y-88750000D01*
X100000000Y-84250000D02*
X97500000Y-84250000D01*
X97000000Y-88750000D02*
X96500000Y-88250000D01*
X96500000Y-87250000D02*
X96500000Y-88250000D01*
X96000000Y-82750000D02*
X96000000Y-82050000D01*
X96000000Y-82050000D02*
X91500000Y-82050000D01*
X91500000Y-86750000D02*
X96000000Y-86750000D01*
X91500000Y-86150000D02*
X91500000Y-86750000D01*
X91500000Y-82050000D02*
X91500000Y-82550000D01*
X96000000Y-82750000D02*
G75*
G03*
X97500000Y-84250000I1500000J0D01*
G01*
X96500000Y-87250000D02*
G75*
G03*
X96000000Y-86750000I-500000J0D01*
G01*
X112588945Y-128065267D02*
X111976573Y-128418820D01*
X113494812Y-124684527D02*
X113141258Y-124072154D01*
X111976573Y-128418820D02*
X109078795Y-127642363D01*
X113141258Y-124072154D02*
X110726444Y-123425107D01*
X109078795Y-127642363D02*
X108725242Y-127029991D01*
X108984061Y-126064065D02*
X108725242Y-127029991D01*
X109665784Y-121587989D02*
X109846957Y-120911841D01*
X109846957Y-120911841D02*
X105500291Y-119747155D01*
X104283841Y-124287007D02*
X108630507Y-125451693D01*
X104439133Y-123707451D02*
X104283841Y-124287007D01*
X105500291Y-119747155D02*
X105370881Y-120230118D01*
X109665783Y-121587989D02*
G75*
G03*
X110726444Y-123425107I1448889J-388229D01*
G01*
X108984059Y-126064064D02*
G75*
G03*
X108630507Y-125451694I-482961J129409D01*
G01*
X24500000Y-96430000D02*
X25000000Y-95930000D01*
X24500000Y-99930000D02*
X25000000Y-100430000D01*
X25000000Y-95930000D02*
X28000000Y-95930000D01*
X25000000Y-100430000D02*
X27500000Y-100430000D01*
X28000000Y-95930000D02*
X28500000Y-96430000D01*
X28500000Y-97430000D02*
X28500000Y-96430000D01*
X29000000Y-101930000D02*
X29000000Y-102630000D01*
X29000000Y-102630000D02*
X33500000Y-102630000D01*
X33500000Y-97930000D02*
X29000000Y-97930000D01*
X33500000Y-98530000D02*
X33500000Y-97930000D01*
X33500000Y-102630000D02*
X33500000Y-102130000D01*
X29000000Y-101930000D02*
G75*
G03*
X27500000Y-100430000I-1500000J0D01*
G01*
X28500000Y-97430000D02*
G75*
G03*
X29000000Y-97930000I500000J0D01*
G01*
X42500000Y-62410000D02*
X43000000Y-61910000D01*
X42500000Y-65910000D02*
X43000000Y-66410000D01*
X43000000Y-61910000D02*
X46000000Y-61910000D01*
X43000000Y-66410000D02*
X45500000Y-66410000D01*
X46000000Y-61910000D02*
X46500000Y-62410000D01*
X46500000Y-63410000D02*
X46500000Y-62410000D01*
X47000000Y-67910000D02*
X47000000Y-68610000D01*
X47000000Y-68610000D02*
X51500000Y-68610000D01*
X51500000Y-63910000D02*
X47000000Y-63910000D01*
X51500000Y-64510000D02*
X51500000Y-63910000D01*
X51500000Y-68610000D02*
X51500000Y-68110000D01*
X47000000Y-67910000D02*
G75*
G03*
X45500000Y-66410000I-1500000J0D01*
G01*
X46500000Y-63410000D02*
G75*
G03*
X47000000Y-63910000I500000J0D01*
G01*
X78500000Y-53490000D02*
X79000000Y-52990000D01*
X78500000Y-56990000D02*
X79000000Y-57490000D01*
X79000000Y-52990000D02*
X82000000Y-52990000D01*
X79000000Y-57490000D02*
X81500000Y-57490000D01*
X82000000Y-52990000D02*
X82500000Y-53490000D01*
X82500000Y-54490000D02*
X82500000Y-53490000D01*
X83000000Y-58990000D02*
X83000000Y-59690000D01*
X83000000Y-59690000D02*
X87500000Y-59690000D01*
X87500000Y-54990000D02*
X83000000Y-54990000D01*
X87500000Y-55590000D02*
X87500000Y-54990000D01*
X87500000Y-59690000D02*
X87500000Y-59190000D01*
X83000000Y-58990000D02*
G75*
G03*
X81500000Y-57490000I-1500000J0D01*
G01*
X82500000Y-54490000D02*
G75*
G03*
X83000000Y-54990000I500000J0D01*
G01*
X60500000Y-55850000D02*
X61000000Y-55350000D01*
X60500000Y-59350000D02*
X61000000Y-59850000D01*
X61000000Y-55350000D02*
X64000000Y-55350000D01*
X61000000Y-59850000D02*
X63500000Y-59850000D01*
X64000000Y-55350000D02*
X64500000Y-55850000D01*
X64500000Y-56850000D02*
X64500000Y-55850000D01*
X65000000Y-61350000D02*
X65000000Y-62050000D01*
X65000000Y-62050000D02*
X69500000Y-62050000D01*
X69500000Y-57350000D02*
X65000000Y-57350000D01*
X69500000Y-57950000D02*
X69500000Y-57350000D01*
X69500000Y-62050000D02*
X69500000Y-61550000D01*
X65000000Y-61350000D02*
G75*
G03*
X63500000Y-59850000I-1500000J0D01*
G01*
X64500000Y-56850000D02*
G75*
G03*
X65000000Y-57350000I500000J0D01*
G01*
X114500000Y-58230000D02*
X115000000Y-57730000D01*
X114500000Y-61730000D02*
X115000000Y-62230000D01*
X115000000Y-57730000D02*
X118000000Y-57730000D01*
X115000000Y-62230000D02*
X117500000Y-62230000D01*
X118000000Y-57730000D02*
X118500000Y-58230000D01*
X118500000Y-59230000D02*
X118500000Y-58230000D01*
X119000000Y-63730000D02*
X119000000Y-64430000D01*
X119000000Y-64430000D02*
X123500000Y-64430000D01*
X123500000Y-59730000D02*
X119000000Y-59730000D01*
X123500000Y-60330000D02*
X123500000Y-59730000D01*
X123500000Y-64430000D02*
X123500000Y-63930000D01*
X119000000Y-63730000D02*
G75*
G03*
X117500000Y-62230000I-1500000J0D01*
G01*
X118500000Y-59230000D02*
G75*
G03*
X119000000Y-59730000I500000J0D01*
G01*
X100500000Y-56850000D02*
G75*
G03*
X101000000Y-57350000I500000J0D01*
G01*
X101000000Y-61350000D02*
G75*
G03*
X99500000Y-59850000I-1500000J0D01*
G01*
X105500000Y-62050000D02*
X105500000Y-61550000D01*
X105500000Y-57950000D02*
X105500000Y-57350000D01*
X105500000Y-57350000D02*
X101000000Y-57350000D01*
X101000000Y-62050000D02*
X105500000Y-62050000D01*
X101000000Y-61350000D02*
X101000000Y-62050000D01*
X100500000Y-56850000D02*
X100500000Y-55850000D01*
X100000000Y-55350000D02*
X100500000Y-55850000D01*
X97000000Y-59850000D02*
X99500000Y-59850000D01*
X97000000Y-55350000D02*
X100000000Y-55350000D01*
X96500000Y-59350000D02*
X97000000Y-59850000D01*
X96500000Y-55850000D02*
X97000000Y-55350000D01*
X89420000Y-66510000D02*
X89420000Y-71910000D01*
X87920000Y-66510000D02*
X89420000Y-66510000D01*
X88170000Y-68710000D02*
X89170000Y-68710000D01*
X88670000Y-68810000D02*
X88170000Y-69710000D01*
X89170000Y-69710000D02*
X88670000Y-68810000D01*
X88170000Y-69710000D02*
X89170000Y-69710000D01*
X87920000Y-71910000D02*
X87920000Y-66510000D01*
X87920000Y-71910000D02*
X89420000Y-71910000D01*
X91480000Y-66510000D02*
X91480000Y-71910000D01*
X89980000Y-66510000D02*
X91480000Y-66510000D01*
X90230000Y-68710000D02*
X91230000Y-68710000D01*
X90730000Y-68810000D02*
X90230000Y-69710000D01*
X91230000Y-69710000D02*
X90730000Y-68810000D01*
X90230000Y-69710000D02*
X91230000Y-69710000D01*
X89980000Y-71910000D02*
X89980000Y-66510000D01*
X89980000Y-71910000D02*
X91480000Y-71910000D01*
X54050000Y-69405000D02*
X54050000Y-74805000D01*
X52550000Y-69405000D02*
X54050000Y-69405000D01*
X52800000Y-71605000D02*
X53800000Y-71605000D01*
X53300000Y-71705000D02*
X52800000Y-72605000D01*
X53800000Y-72605000D02*
X53300000Y-71705000D01*
X52800000Y-72605000D02*
X53800000Y-72605000D01*
X52550000Y-74805000D02*
X52550000Y-69405000D01*
X52550000Y-74805000D02*
X54050000Y-74805000D01*
X70050000Y-67060000D02*
X71550000Y-67060000D01*
X70050000Y-67060000D02*
X70050000Y-61660000D01*
X70300000Y-64860000D02*
X71300000Y-64860000D01*
X71300000Y-64860000D02*
X70800000Y-63960000D01*
X70800000Y-63960000D02*
X70300000Y-64860000D01*
X70300000Y-63860000D02*
X71300000Y-63860000D01*
X70050000Y-61660000D02*
X71550000Y-61660000D01*
X71550000Y-61660000D02*
X71550000Y-67060000D01*
X90250000Y-60410000D02*
X90250000Y-65810000D01*
X88750000Y-60410000D02*
X90250000Y-60410000D01*
X89000000Y-62610000D02*
X90000000Y-62610000D01*
X89500000Y-62710000D02*
X89000000Y-63610000D01*
X90000000Y-63610000D02*
X89500000Y-62710000D01*
X89000000Y-63610000D02*
X90000000Y-63610000D01*
X88750000Y-65810000D02*
X88750000Y-60410000D01*
X88750000Y-65810000D02*
X90250000Y-65810000D01*
X78500000Y-87480000D02*
X79000000Y-86980000D01*
X78500000Y-90980000D02*
X79000000Y-91480000D01*
X79000000Y-86980000D02*
X82000000Y-86980000D01*
X79000000Y-91480000D02*
X81500000Y-91480000D01*
X82000000Y-86980000D02*
X82500000Y-87480000D01*
X82500000Y-88480000D02*
X82500000Y-87480000D01*
X83000000Y-92980000D02*
X83000000Y-93680000D01*
X83000000Y-93680000D02*
X87500000Y-93680000D01*
X87500000Y-88980000D02*
X83000000Y-88980000D01*
X87500000Y-89580000D02*
X87500000Y-88980000D01*
X87500000Y-93680000D02*
X87500000Y-93180000D01*
X83000000Y-92980000D02*
G75*
G03*
X81500000Y-91480000I-1500000J0D01*
G01*
X82500000Y-88480000D02*
G75*
G03*
X83000000Y-88980000I500000J0D01*
G01*
X78500000Y-70480000D02*
X79000000Y-69980000D01*
X78500000Y-73980000D02*
X79000000Y-74480000D01*
X79000000Y-69980000D02*
X82000000Y-69980000D01*
X79000000Y-74480000D02*
X81500000Y-74480000D01*
X82000000Y-69980000D02*
X82500000Y-70480000D01*
X82500000Y-71480000D02*
X82500000Y-70480000D01*
X83000000Y-75980000D02*
X83000000Y-76680000D01*
X83000000Y-76680000D02*
X87500000Y-76680000D01*
X87500000Y-71980000D02*
X83000000Y-71980000D01*
X87500000Y-72580000D02*
X87500000Y-71980000D01*
X87500000Y-76680000D02*
X87500000Y-76180000D01*
X83000000Y-75980000D02*
G75*
G03*
X81500000Y-74480000I-1500000J0D01*
G01*
X82500000Y-71480000D02*
G75*
G03*
X83000000Y-71980000I500000J0D01*
G01*
X60500000Y-89855000D02*
X61000000Y-89355000D01*
X60500000Y-93355000D02*
X61000000Y-93855000D01*
X61000000Y-89355000D02*
X64000000Y-89355000D01*
X61000000Y-93855000D02*
X63500000Y-93855000D01*
X64000000Y-89355000D02*
X64500000Y-89855000D01*
X64500000Y-90855000D02*
X64500000Y-89855000D01*
X65000000Y-95355000D02*
X65000000Y-96055000D01*
X65000000Y-96055000D02*
X69500000Y-96055000D01*
X69500000Y-91355000D02*
X65000000Y-91355000D01*
X69500000Y-91955000D02*
X69500000Y-91355000D01*
X69500000Y-96055000D02*
X69500000Y-95555000D01*
X65000000Y-95355000D02*
G75*
G03*
X63500000Y-93855000I-1500000J0D01*
G01*
X64500000Y-90855000D02*
G75*
G03*
X65000000Y-91355000I500000J0D01*
G01*
X24500000Y-62410000D02*
X25000000Y-61910000D01*
X24500000Y-65910000D02*
X25000000Y-66410000D01*
X25000000Y-61910000D02*
X28000000Y-61910000D01*
X25000000Y-66410000D02*
X27500000Y-66410000D01*
X28000000Y-61910000D02*
X28500000Y-62410000D01*
X28500000Y-63410000D02*
X28500000Y-62410000D01*
X29000000Y-67910000D02*
X29000000Y-68610000D01*
X29000000Y-68610000D02*
X33500000Y-68610000D01*
X33500000Y-63910000D02*
X29000000Y-63910000D01*
X33500000Y-64510000D02*
X33500000Y-63910000D01*
X33500000Y-68610000D02*
X33500000Y-68110000D01*
X29000000Y-67910000D02*
G75*
G03*
X27500000Y-66410000I-1500000J0D01*
G01*
X28500000Y-63410000D02*
G75*
G03*
X29000000Y-63910000I500000J0D01*
G01*
X94600000Y-125220000D02*
X94100000Y-125720000D01*
X94600000Y-121720000D02*
X94100000Y-121220000D01*
X94100000Y-125720000D02*
X91100000Y-125720000D01*
X94100000Y-121220000D02*
X91600000Y-121220000D01*
X91100000Y-125720000D02*
X90600000Y-125220000D01*
X90600000Y-124220000D02*
X90600000Y-125220000D01*
X90100000Y-119720000D02*
X90100000Y-119020000D01*
X90100000Y-119020000D02*
X85600000Y-119020000D01*
X85600000Y-123720000D02*
X90100000Y-123720000D01*
X85600000Y-123120000D02*
X85600000Y-123720000D01*
X85600000Y-119020000D02*
X85600000Y-119520000D01*
X90100000Y-119720000D02*
G75*
G03*
X91600000Y-121220000I1500000J0D01*
G01*
X90600000Y-124220000D02*
G75*
G03*
X90100000Y-123720000I-500000J0D01*
G01*
X42500000Y-96415000D02*
X43000000Y-95915000D01*
X42500000Y-99915000D02*
X43000000Y-100415000D01*
X43000000Y-95915000D02*
X46000000Y-95915000D01*
X43000000Y-100415000D02*
X45500000Y-100415000D01*
X46000000Y-95915000D02*
X46500000Y-96415000D01*
X46500000Y-97415000D02*
X46500000Y-96415000D01*
X47000000Y-101915000D02*
X47000000Y-102615000D01*
X47000000Y-102615000D02*
X51500000Y-102615000D01*
X51500000Y-97915000D02*
X47000000Y-97915000D01*
X51500000Y-98515000D02*
X51500000Y-97915000D01*
X51500000Y-102615000D02*
X51500000Y-102115000D01*
X47000000Y-101915000D02*
G75*
G03*
X45500000Y-100415000I-1500000J0D01*
G01*
X46500000Y-97415000D02*
G75*
G03*
X47000000Y-97915000I500000J0D01*
G01*
X96500000Y-89855000D02*
X97000000Y-89355000D01*
X96500000Y-93355000D02*
X97000000Y-93855000D01*
X97000000Y-89355000D02*
X100000000Y-89355000D01*
X97000000Y-93855000D02*
X99500000Y-93855000D01*
X100000000Y-89355000D02*
X100500000Y-89855000D01*
X100500000Y-90855000D02*
X100500000Y-89855000D01*
X101000000Y-95355000D02*
X101000000Y-96055000D01*
X101000000Y-96055000D02*
X105500000Y-96055000D01*
X105500000Y-91355000D02*
X101000000Y-91355000D01*
X105500000Y-91955000D02*
X105500000Y-91355000D01*
X105500000Y-96055000D02*
X105500000Y-95555000D01*
X101000000Y-95355000D02*
G75*
G03*
X99500000Y-93855000I-1500000J0D01*
G01*
X100500000Y-90855000D02*
G75*
G03*
X101000000Y-91355000I500000J0D01*
G01*
X140918396Y-125437949D02*
X141101408Y-126120962D01*
X137887307Y-123687949D02*
X137204294Y-123870962D01*
X141101408Y-126120962D02*
X139601408Y-128719038D01*
X137204294Y-123870962D02*
X135954294Y-126036025D01*
X139601408Y-128719038D02*
X138918396Y-128902051D01*
X138052370Y-128402051D02*
X138918396Y-128902051D01*
X133905256Y-126585064D02*
X133299038Y-126235064D01*
X133299038Y-126235064D02*
X131049038Y-130132178D01*
X135119358Y-132482178D02*
X137369358Y-128585064D01*
X134599742Y-132182178D02*
X135119358Y-132482178D01*
X131049038Y-130132178D02*
X131482051Y-130382178D01*
X133905257Y-126585062D02*
G75*
G03*
X135954293Y-126036025I749999J1299037D01*
G01*
X138052369Y-128402052D02*
G75*
G03*
X137369358Y-128585064I-249999J-433012D01*
G01*
X114500000Y-92230000D02*
X115000000Y-91730000D01*
X114500000Y-95730000D02*
X115000000Y-96230000D01*
X115000000Y-91730000D02*
X118000000Y-91730000D01*
X115000000Y-96230000D02*
X117500000Y-96230000D01*
X118000000Y-91730000D02*
X118500000Y-92230000D01*
X118500000Y-93230000D02*
X118500000Y-92230000D01*
X119000000Y-97730000D02*
X119000000Y-98430000D01*
X119000000Y-98430000D02*
X123500000Y-98430000D01*
X123500000Y-93730000D02*
X119000000Y-93730000D01*
X123500000Y-94330000D02*
X123500000Y-93730000D01*
X123500000Y-98430000D02*
X123500000Y-97930000D01*
X119000000Y-97730000D02*
G75*
G03*
X117500000Y-96230000I-1500000J0D01*
G01*
X118500000Y-93230000D02*
G75*
G03*
X119000000Y-93730000I500000J0D01*
G01*
M02*
