G04 #@! TF.GenerationSoftware,KiCad,Pcbnew,(7.0.0-0)*
G04 #@! TF.CreationDate,2023-04-28T12:14:11+03:00*
G04 #@! TF.ProjectId,chococorne,63686f63-6f63-46f7-926e-652e6b696361,2.1*
G04 #@! TF.SameCoordinates,Original*
G04 #@! TF.FileFunction,Legend,Top*
G04 #@! TF.FilePolarity,Positive*
%FSLAX46Y46*%
G04 Gerber Fmt 4.6, Leading zero omitted, Abs format (unit mm)*
G04 Created by KiCad (PCBNEW (7.0.0-0)) date 2023-04-28 12:14:11*
%MOMM*%
%LPD*%
G01*
G04 APERTURE LIST*
%ADD10C,0.150000*%
%ADD11C,0.125000*%
%ADD12C,1.524000*%
G04 APERTURE END LIST*
D10*
X144987380Y-96912381D02*
X144511190Y-97245714D01*
X144987380Y-97483809D02*
X143987380Y-97483809D01*
X143987380Y-97483809D02*
X143987380Y-97102857D01*
X143987380Y-97102857D02*
X144035000Y-97007619D01*
X144035000Y-97007619D02*
X144082619Y-96960000D01*
X144082619Y-96960000D02*
X144177857Y-96912381D01*
X144177857Y-96912381D02*
X144320714Y-96912381D01*
X144320714Y-96912381D02*
X144415952Y-96960000D01*
X144415952Y-96960000D02*
X144463571Y-97007619D01*
X144463571Y-97007619D02*
X144511190Y-97102857D01*
X144511190Y-97102857D02*
X144511190Y-97483809D01*
X144463571Y-96483809D02*
X144463571Y-96150476D01*
X144987380Y-96007619D02*
X144987380Y-96483809D01*
X144987380Y-96483809D02*
X143987380Y-96483809D01*
X143987380Y-96483809D02*
X143987380Y-96007619D01*
X144939761Y-95626666D02*
X144987380Y-95483809D01*
X144987380Y-95483809D02*
X144987380Y-95245714D01*
X144987380Y-95245714D02*
X144939761Y-95150476D01*
X144939761Y-95150476D02*
X144892142Y-95102857D01*
X144892142Y-95102857D02*
X144796904Y-95055238D01*
X144796904Y-95055238D02*
X144701666Y-95055238D01*
X144701666Y-95055238D02*
X144606428Y-95102857D01*
X144606428Y-95102857D02*
X144558809Y-95150476D01*
X144558809Y-95150476D02*
X144511190Y-95245714D01*
X144511190Y-95245714D02*
X144463571Y-95436190D01*
X144463571Y-95436190D02*
X144415952Y-95531428D01*
X144415952Y-95531428D02*
X144368333Y-95579047D01*
X144368333Y-95579047D02*
X144273095Y-95626666D01*
X144273095Y-95626666D02*
X144177857Y-95626666D01*
X144177857Y-95626666D02*
X144082619Y-95579047D01*
X144082619Y-95579047D02*
X144035000Y-95531428D01*
X144035000Y-95531428D02*
X143987380Y-95436190D01*
X143987380Y-95436190D02*
X143987380Y-95198095D01*
X143987380Y-95198095D02*
X144035000Y-95055238D01*
X144463571Y-94626666D02*
X144463571Y-94293333D01*
X144987380Y-94150476D02*
X144987380Y-94626666D01*
X144987380Y-94626666D02*
X143987380Y-94626666D01*
X143987380Y-94626666D02*
X143987380Y-94150476D01*
X143987380Y-93864761D02*
X143987380Y-93293333D01*
X144987380Y-93579047D02*
X143987380Y-93579047D01*
X135782619Y-95477380D02*
X135973095Y-95477380D01*
X135973095Y-95477380D02*
X136068333Y-95525000D01*
X136068333Y-95525000D02*
X136163571Y-95620238D01*
X136163571Y-95620238D02*
X136211190Y-95810714D01*
X136211190Y-95810714D02*
X136211190Y-96144047D01*
X136211190Y-96144047D02*
X136163571Y-96334523D01*
X136163571Y-96334523D02*
X136068333Y-96429761D01*
X136068333Y-96429761D02*
X135973095Y-96477380D01*
X135973095Y-96477380D02*
X135782619Y-96477380D01*
X135782619Y-96477380D02*
X135687381Y-96429761D01*
X135687381Y-96429761D02*
X135592143Y-96334523D01*
X135592143Y-96334523D02*
X135544524Y-96144047D01*
X135544524Y-96144047D02*
X135544524Y-95810714D01*
X135544524Y-95810714D02*
X135592143Y-95620238D01*
X135592143Y-95620238D02*
X135687381Y-95525000D01*
X135687381Y-95525000D02*
X135782619Y-95477380D01*
X137115952Y-96477380D02*
X136639762Y-96477380D01*
X136639762Y-96477380D02*
X136639762Y-95477380D01*
X137449286Y-95953571D02*
X137782619Y-95953571D01*
X137925476Y-96477380D02*
X137449286Y-96477380D01*
X137449286Y-96477380D02*
X137449286Y-95477380D01*
X137449286Y-95477380D02*
X137925476Y-95477380D01*
X138354048Y-96477380D02*
X138354048Y-95477380D01*
X138354048Y-95477380D02*
X138592143Y-95477380D01*
X138592143Y-95477380D02*
X138735000Y-95525000D01*
X138735000Y-95525000D02*
X138830238Y-95620238D01*
X138830238Y-95620238D02*
X138877857Y-95715476D01*
X138877857Y-95715476D02*
X138925476Y-95905952D01*
X138925476Y-95905952D02*
X138925476Y-96048809D01*
X138925476Y-96048809D02*
X138877857Y-96239285D01*
X138877857Y-96239285D02*
X138830238Y-96334523D01*
X138830238Y-96334523D02*
X138735000Y-96429761D01*
X138735000Y-96429761D02*
X138592143Y-96477380D01*
X138592143Y-96477380D02*
X138354048Y-96477380D01*
D11*
X131514761Y-73864107D02*
X131490952Y-73899821D01*
X131490952Y-73899821D02*
X131419523Y-73935535D01*
X131419523Y-73935535D02*
X131371904Y-73935535D01*
X131371904Y-73935535D02*
X131300476Y-73899821D01*
X131300476Y-73899821D02*
X131252857Y-73828392D01*
X131252857Y-73828392D02*
X131229047Y-73756964D01*
X131229047Y-73756964D02*
X131205238Y-73614107D01*
X131205238Y-73614107D02*
X131205238Y-73506964D01*
X131205238Y-73506964D02*
X131229047Y-73364107D01*
X131229047Y-73364107D02*
X131252857Y-73292678D01*
X131252857Y-73292678D02*
X131300476Y-73221250D01*
X131300476Y-73221250D02*
X131371904Y-73185535D01*
X131371904Y-73185535D02*
X131419523Y-73185535D01*
X131419523Y-73185535D02*
X131490952Y-73221250D01*
X131490952Y-73221250D02*
X131514761Y-73256964D01*
X131824285Y-73185535D02*
X131919523Y-73185535D01*
X131919523Y-73185535D02*
X131967142Y-73221250D01*
X131967142Y-73221250D02*
X132014761Y-73292678D01*
X132014761Y-73292678D02*
X132038571Y-73435535D01*
X132038571Y-73435535D02*
X132038571Y-73685535D01*
X132038571Y-73685535D02*
X132014761Y-73828392D01*
X132014761Y-73828392D02*
X131967142Y-73899821D01*
X131967142Y-73899821D02*
X131919523Y-73935535D01*
X131919523Y-73935535D02*
X131824285Y-73935535D01*
X131824285Y-73935535D02*
X131776666Y-73899821D01*
X131776666Y-73899821D02*
X131729047Y-73828392D01*
X131729047Y-73828392D02*
X131705238Y-73685535D01*
X131705238Y-73685535D02*
X131705238Y-73435535D01*
X131705238Y-73435535D02*
X131729047Y-73292678D01*
X131729047Y-73292678D02*
X131776666Y-73221250D01*
X131776666Y-73221250D02*
X131824285Y-73185535D01*
X132490952Y-73935535D02*
X132252857Y-73935535D01*
X132252857Y-73935535D02*
X132252857Y-73185535D01*
X132919524Y-73935535D02*
X132633810Y-73935535D01*
X132776667Y-73935535D02*
X132776667Y-73185535D01*
X132776667Y-73185535D02*
X132729048Y-73292678D01*
X132729048Y-73292678D02*
X132681429Y-73364107D01*
X132681429Y-73364107D02*
X132633810Y-73399821D01*
X141669047Y-84161035D02*
X141502381Y-83803892D01*
X141383333Y-84161035D02*
X141383333Y-83411035D01*
X141383333Y-83411035D02*
X141573809Y-83411035D01*
X141573809Y-83411035D02*
X141621428Y-83446750D01*
X141621428Y-83446750D02*
X141645238Y-83482464D01*
X141645238Y-83482464D02*
X141669047Y-83553892D01*
X141669047Y-83553892D02*
X141669047Y-83661035D01*
X141669047Y-83661035D02*
X141645238Y-83732464D01*
X141645238Y-83732464D02*
X141621428Y-83768178D01*
X141621428Y-83768178D02*
X141573809Y-83803892D01*
X141573809Y-83803892D02*
X141383333Y-83803892D01*
X141978571Y-83411035D02*
X142073809Y-83411035D01*
X142073809Y-83411035D02*
X142121428Y-83446750D01*
X142121428Y-83446750D02*
X142169047Y-83518178D01*
X142169047Y-83518178D02*
X142192857Y-83661035D01*
X142192857Y-83661035D02*
X142192857Y-83911035D01*
X142192857Y-83911035D02*
X142169047Y-84053892D01*
X142169047Y-84053892D02*
X142121428Y-84125321D01*
X142121428Y-84125321D02*
X142073809Y-84161035D01*
X142073809Y-84161035D02*
X141978571Y-84161035D01*
X141978571Y-84161035D02*
X141930952Y-84125321D01*
X141930952Y-84125321D02*
X141883333Y-84053892D01*
X141883333Y-84053892D02*
X141859524Y-83911035D01*
X141859524Y-83911035D02*
X141859524Y-83661035D01*
X141859524Y-83661035D02*
X141883333Y-83518178D01*
X141883333Y-83518178D02*
X141930952Y-83446750D01*
X141930952Y-83446750D02*
X141978571Y-83411035D01*
X142359524Y-83411035D02*
X142478572Y-84161035D01*
X142478572Y-84161035D02*
X142573810Y-83625321D01*
X142573810Y-83625321D02*
X142669048Y-84161035D01*
X142669048Y-84161035D02*
X142788096Y-83411035D01*
X142930953Y-83411035D02*
X143240477Y-83411035D01*
X143240477Y-83411035D02*
X143073810Y-83696750D01*
X143073810Y-83696750D02*
X143145239Y-83696750D01*
X143145239Y-83696750D02*
X143192858Y-83732464D01*
X143192858Y-83732464D02*
X143216667Y-83768178D01*
X143216667Y-83768178D02*
X143240477Y-83839607D01*
X143240477Y-83839607D02*
X143240477Y-84018178D01*
X143240477Y-84018178D02*
X143216667Y-84089607D01*
X143216667Y-84089607D02*
X143192858Y-84125321D01*
X143192858Y-84125321D02*
X143145239Y-84161035D01*
X143145239Y-84161035D02*
X143002382Y-84161035D01*
X143002382Y-84161035D02*
X142954763Y-84125321D01*
X142954763Y-84125321D02*
X142930953Y-84089607D01*
X142180047Y-68206750D02*
X142132428Y-68171035D01*
X142132428Y-68171035D02*
X142060999Y-68171035D01*
X142060999Y-68171035D02*
X141989571Y-68206750D01*
X141989571Y-68206750D02*
X141941952Y-68278178D01*
X141941952Y-68278178D02*
X141918142Y-68349607D01*
X141918142Y-68349607D02*
X141894333Y-68492464D01*
X141894333Y-68492464D02*
X141894333Y-68599607D01*
X141894333Y-68599607D02*
X141918142Y-68742464D01*
X141918142Y-68742464D02*
X141941952Y-68813892D01*
X141941952Y-68813892D02*
X141989571Y-68885321D01*
X141989571Y-68885321D02*
X142060999Y-68921035D01*
X142060999Y-68921035D02*
X142108618Y-68921035D01*
X142108618Y-68921035D02*
X142180047Y-68885321D01*
X142180047Y-68885321D02*
X142203856Y-68849607D01*
X142203856Y-68849607D02*
X142203856Y-68599607D01*
X142203856Y-68599607D02*
X142108618Y-68599607D01*
X142418142Y-68921035D02*
X142418142Y-68171035D01*
X142418142Y-68171035D02*
X142703856Y-68921035D01*
X142703856Y-68921035D02*
X142703856Y-68171035D01*
X142941952Y-68921035D02*
X142941952Y-68171035D01*
X142941952Y-68171035D02*
X143061000Y-68171035D01*
X143061000Y-68171035D02*
X143132428Y-68206750D01*
X143132428Y-68206750D02*
X143180047Y-68278178D01*
X143180047Y-68278178D02*
X143203857Y-68349607D01*
X143203857Y-68349607D02*
X143227666Y-68492464D01*
X143227666Y-68492464D02*
X143227666Y-68599607D01*
X143227666Y-68599607D02*
X143203857Y-68742464D01*
X143203857Y-68742464D02*
X143180047Y-68813892D01*
X143180047Y-68813892D02*
X143132428Y-68885321D01*
X143132428Y-68885321D02*
X143061000Y-68921035D01*
X143061000Y-68921035D02*
X142941952Y-68921035D01*
X131157619Y-68105535D02*
X131324285Y-68855535D01*
X131324285Y-68855535D02*
X131490952Y-68105535D01*
X131943332Y-68784107D02*
X131919523Y-68819821D01*
X131919523Y-68819821D02*
X131848094Y-68855535D01*
X131848094Y-68855535D02*
X131800475Y-68855535D01*
X131800475Y-68855535D02*
X131729047Y-68819821D01*
X131729047Y-68819821D02*
X131681428Y-68748392D01*
X131681428Y-68748392D02*
X131657618Y-68676964D01*
X131657618Y-68676964D02*
X131633809Y-68534107D01*
X131633809Y-68534107D02*
X131633809Y-68426964D01*
X131633809Y-68426964D02*
X131657618Y-68284107D01*
X131657618Y-68284107D02*
X131681428Y-68212678D01*
X131681428Y-68212678D02*
X131729047Y-68141250D01*
X131729047Y-68141250D02*
X131800475Y-68105535D01*
X131800475Y-68105535D02*
X131848094Y-68105535D01*
X131848094Y-68105535D02*
X131919523Y-68141250D01*
X131919523Y-68141250D02*
X131943332Y-68176964D01*
X132443332Y-68784107D02*
X132419523Y-68819821D01*
X132419523Y-68819821D02*
X132348094Y-68855535D01*
X132348094Y-68855535D02*
X132300475Y-68855535D01*
X132300475Y-68855535D02*
X132229047Y-68819821D01*
X132229047Y-68819821D02*
X132181428Y-68748392D01*
X132181428Y-68748392D02*
X132157618Y-68676964D01*
X132157618Y-68676964D02*
X132133809Y-68534107D01*
X132133809Y-68534107D02*
X132133809Y-68426964D01*
X132133809Y-68426964D02*
X132157618Y-68284107D01*
X132157618Y-68284107D02*
X132181428Y-68212678D01*
X132181428Y-68212678D02*
X132229047Y-68141250D01*
X132229047Y-68141250D02*
X132300475Y-68105535D01*
X132300475Y-68105535D02*
X132348094Y-68105535D01*
X132348094Y-68105535D02*
X132419523Y-68141250D01*
X132419523Y-68141250D02*
X132443332Y-68176964D01*
X131514761Y-81492107D02*
X131490952Y-81527821D01*
X131490952Y-81527821D02*
X131419523Y-81563535D01*
X131419523Y-81563535D02*
X131371904Y-81563535D01*
X131371904Y-81563535D02*
X131300476Y-81527821D01*
X131300476Y-81527821D02*
X131252857Y-81456392D01*
X131252857Y-81456392D02*
X131229047Y-81384964D01*
X131229047Y-81384964D02*
X131205238Y-81242107D01*
X131205238Y-81242107D02*
X131205238Y-81134964D01*
X131205238Y-81134964D02*
X131229047Y-80992107D01*
X131229047Y-80992107D02*
X131252857Y-80920678D01*
X131252857Y-80920678D02*
X131300476Y-80849250D01*
X131300476Y-80849250D02*
X131371904Y-80813535D01*
X131371904Y-80813535D02*
X131419523Y-80813535D01*
X131419523Y-80813535D02*
X131490952Y-80849250D01*
X131490952Y-80849250D02*
X131514761Y-80884964D01*
X131824285Y-80813535D02*
X131919523Y-80813535D01*
X131919523Y-80813535D02*
X131967142Y-80849250D01*
X131967142Y-80849250D02*
X132014761Y-80920678D01*
X132014761Y-80920678D02*
X132038571Y-81063535D01*
X132038571Y-81063535D02*
X132038571Y-81313535D01*
X132038571Y-81313535D02*
X132014761Y-81456392D01*
X132014761Y-81456392D02*
X131967142Y-81527821D01*
X131967142Y-81527821D02*
X131919523Y-81563535D01*
X131919523Y-81563535D02*
X131824285Y-81563535D01*
X131824285Y-81563535D02*
X131776666Y-81527821D01*
X131776666Y-81527821D02*
X131729047Y-81456392D01*
X131729047Y-81456392D02*
X131705238Y-81313535D01*
X131705238Y-81313535D02*
X131705238Y-81063535D01*
X131705238Y-81063535D02*
X131729047Y-80920678D01*
X131729047Y-80920678D02*
X131776666Y-80849250D01*
X131776666Y-80849250D02*
X131824285Y-80813535D01*
X132490952Y-81563535D02*
X132252857Y-81563535D01*
X132252857Y-81563535D02*
X132252857Y-80813535D01*
X132871905Y-81063535D02*
X132871905Y-81563535D01*
X132752857Y-80777821D02*
X132633810Y-81313535D01*
X132633810Y-81313535D02*
X132943333Y-81313535D01*
X131514761Y-78992107D02*
X131490952Y-79027821D01*
X131490952Y-79027821D02*
X131419523Y-79063535D01*
X131419523Y-79063535D02*
X131371904Y-79063535D01*
X131371904Y-79063535D02*
X131300476Y-79027821D01*
X131300476Y-79027821D02*
X131252857Y-78956392D01*
X131252857Y-78956392D02*
X131229047Y-78884964D01*
X131229047Y-78884964D02*
X131205238Y-78742107D01*
X131205238Y-78742107D02*
X131205238Y-78634964D01*
X131205238Y-78634964D02*
X131229047Y-78492107D01*
X131229047Y-78492107D02*
X131252857Y-78420678D01*
X131252857Y-78420678D02*
X131300476Y-78349250D01*
X131300476Y-78349250D02*
X131371904Y-78313535D01*
X131371904Y-78313535D02*
X131419523Y-78313535D01*
X131419523Y-78313535D02*
X131490952Y-78349250D01*
X131490952Y-78349250D02*
X131514761Y-78384964D01*
X131824285Y-78313535D02*
X131919523Y-78313535D01*
X131919523Y-78313535D02*
X131967142Y-78349250D01*
X131967142Y-78349250D02*
X132014761Y-78420678D01*
X132014761Y-78420678D02*
X132038571Y-78563535D01*
X132038571Y-78563535D02*
X132038571Y-78813535D01*
X132038571Y-78813535D02*
X132014761Y-78956392D01*
X132014761Y-78956392D02*
X131967142Y-79027821D01*
X131967142Y-79027821D02*
X131919523Y-79063535D01*
X131919523Y-79063535D02*
X131824285Y-79063535D01*
X131824285Y-79063535D02*
X131776666Y-79027821D01*
X131776666Y-79027821D02*
X131729047Y-78956392D01*
X131729047Y-78956392D02*
X131705238Y-78813535D01*
X131705238Y-78813535D02*
X131705238Y-78563535D01*
X131705238Y-78563535D02*
X131729047Y-78420678D01*
X131729047Y-78420678D02*
X131776666Y-78349250D01*
X131776666Y-78349250D02*
X131824285Y-78313535D01*
X132490952Y-79063535D02*
X132252857Y-79063535D01*
X132252857Y-79063535D02*
X132252857Y-78313535D01*
X132610000Y-78313535D02*
X132919524Y-78313535D01*
X132919524Y-78313535D02*
X132752857Y-78599250D01*
X132752857Y-78599250D02*
X132824286Y-78599250D01*
X132824286Y-78599250D02*
X132871905Y-78634964D01*
X132871905Y-78634964D02*
X132895714Y-78670678D01*
X132895714Y-78670678D02*
X132919524Y-78742107D01*
X132919524Y-78742107D02*
X132919524Y-78920678D01*
X132919524Y-78920678D02*
X132895714Y-78992107D01*
X132895714Y-78992107D02*
X132871905Y-79027821D01*
X132871905Y-79027821D02*
X132824286Y-79063535D01*
X132824286Y-79063535D02*
X132681429Y-79063535D01*
X132681429Y-79063535D02*
X132633810Y-79027821D01*
X132633810Y-79027821D02*
X132610000Y-78992107D01*
X141719047Y-79017535D02*
X141552381Y-78660392D01*
X141433333Y-79017535D02*
X141433333Y-78267535D01*
X141433333Y-78267535D02*
X141623809Y-78267535D01*
X141623809Y-78267535D02*
X141671428Y-78303250D01*
X141671428Y-78303250D02*
X141695238Y-78338964D01*
X141695238Y-78338964D02*
X141719047Y-78410392D01*
X141719047Y-78410392D02*
X141719047Y-78517535D01*
X141719047Y-78517535D02*
X141695238Y-78588964D01*
X141695238Y-78588964D02*
X141671428Y-78624678D01*
X141671428Y-78624678D02*
X141623809Y-78660392D01*
X141623809Y-78660392D02*
X141433333Y-78660392D01*
X142028571Y-78267535D02*
X142123809Y-78267535D01*
X142123809Y-78267535D02*
X142171428Y-78303250D01*
X142171428Y-78303250D02*
X142219047Y-78374678D01*
X142219047Y-78374678D02*
X142242857Y-78517535D01*
X142242857Y-78517535D02*
X142242857Y-78767535D01*
X142242857Y-78767535D02*
X142219047Y-78910392D01*
X142219047Y-78910392D02*
X142171428Y-78981821D01*
X142171428Y-78981821D02*
X142123809Y-79017535D01*
X142123809Y-79017535D02*
X142028571Y-79017535D01*
X142028571Y-79017535D02*
X141980952Y-78981821D01*
X141980952Y-78981821D02*
X141933333Y-78910392D01*
X141933333Y-78910392D02*
X141909524Y-78767535D01*
X141909524Y-78767535D02*
X141909524Y-78517535D01*
X141909524Y-78517535D02*
X141933333Y-78374678D01*
X141933333Y-78374678D02*
X141980952Y-78303250D01*
X141980952Y-78303250D02*
X142028571Y-78267535D01*
X142409524Y-78267535D02*
X142528572Y-79017535D01*
X142528572Y-79017535D02*
X142623810Y-78481821D01*
X142623810Y-78481821D02*
X142719048Y-79017535D01*
X142719048Y-79017535D02*
X142838096Y-78267535D01*
X143290477Y-79017535D02*
X143004763Y-79017535D01*
X143147620Y-79017535D02*
X143147620Y-78267535D01*
X143147620Y-78267535D02*
X143100001Y-78374678D01*
X143100001Y-78374678D02*
X143052382Y-78446107D01*
X143052382Y-78446107D02*
X143004763Y-78481821D01*
X131514761Y-84087607D02*
X131490952Y-84123321D01*
X131490952Y-84123321D02*
X131419523Y-84159035D01*
X131419523Y-84159035D02*
X131371904Y-84159035D01*
X131371904Y-84159035D02*
X131300476Y-84123321D01*
X131300476Y-84123321D02*
X131252857Y-84051892D01*
X131252857Y-84051892D02*
X131229047Y-83980464D01*
X131229047Y-83980464D02*
X131205238Y-83837607D01*
X131205238Y-83837607D02*
X131205238Y-83730464D01*
X131205238Y-83730464D02*
X131229047Y-83587607D01*
X131229047Y-83587607D02*
X131252857Y-83516178D01*
X131252857Y-83516178D02*
X131300476Y-83444750D01*
X131300476Y-83444750D02*
X131371904Y-83409035D01*
X131371904Y-83409035D02*
X131419523Y-83409035D01*
X131419523Y-83409035D02*
X131490952Y-83444750D01*
X131490952Y-83444750D02*
X131514761Y-83480464D01*
X131824285Y-83409035D02*
X131919523Y-83409035D01*
X131919523Y-83409035D02*
X131967142Y-83444750D01*
X131967142Y-83444750D02*
X132014761Y-83516178D01*
X132014761Y-83516178D02*
X132038571Y-83659035D01*
X132038571Y-83659035D02*
X132038571Y-83909035D01*
X132038571Y-83909035D02*
X132014761Y-84051892D01*
X132014761Y-84051892D02*
X131967142Y-84123321D01*
X131967142Y-84123321D02*
X131919523Y-84159035D01*
X131919523Y-84159035D02*
X131824285Y-84159035D01*
X131824285Y-84159035D02*
X131776666Y-84123321D01*
X131776666Y-84123321D02*
X131729047Y-84051892D01*
X131729047Y-84051892D02*
X131705238Y-83909035D01*
X131705238Y-83909035D02*
X131705238Y-83659035D01*
X131705238Y-83659035D02*
X131729047Y-83516178D01*
X131729047Y-83516178D02*
X131776666Y-83444750D01*
X131776666Y-83444750D02*
X131824285Y-83409035D01*
X132490952Y-84159035D02*
X132252857Y-84159035D01*
X132252857Y-84159035D02*
X132252857Y-83409035D01*
X132895714Y-83409035D02*
X132657619Y-83409035D01*
X132657619Y-83409035D02*
X132633810Y-83766178D01*
X132633810Y-83766178D02*
X132657619Y-83730464D01*
X132657619Y-83730464D02*
X132705238Y-83694750D01*
X132705238Y-83694750D02*
X132824286Y-83694750D01*
X132824286Y-83694750D02*
X132871905Y-83730464D01*
X132871905Y-83730464D02*
X132895714Y-83766178D01*
X132895714Y-83766178D02*
X132919524Y-83837607D01*
X132919524Y-83837607D02*
X132919524Y-84016178D01*
X132919524Y-84016178D02*
X132895714Y-84087607D01*
X132895714Y-84087607D02*
X132871905Y-84123321D01*
X132871905Y-84123321D02*
X132824286Y-84159035D01*
X132824286Y-84159035D02*
X132705238Y-84159035D01*
X132705238Y-84159035D02*
X132657619Y-84123321D01*
X132657619Y-84123321D02*
X132633810Y-84087607D01*
X141953858Y-71361821D02*
X142025286Y-71397535D01*
X142025286Y-71397535D02*
X142144334Y-71397535D01*
X142144334Y-71397535D02*
X142191953Y-71361821D01*
X142191953Y-71361821D02*
X142215762Y-71326107D01*
X142215762Y-71326107D02*
X142239572Y-71254678D01*
X142239572Y-71254678D02*
X142239572Y-71183250D01*
X142239572Y-71183250D02*
X142215762Y-71111821D01*
X142215762Y-71111821D02*
X142191953Y-71076107D01*
X142191953Y-71076107D02*
X142144334Y-71040392D01*
X142144334Y-71040392D02*
X142049096Y-71004678D01*
X142049096Y-71004678D02*
X142001477Y-70968964D01*
X142001477Y-70968964D02*
X141977667Y-70933250D01*
X141977667Y-70933250D02*
X141953858Y-70861821D01*
X141953858Y-70861821D02*
X141953858Y-70790392D01*
X141953858Y-70790392D02*
X141977667Y-70718964D01*
X141977667Y-70718964D02*
X142001477Y-70683250D01*
X142001477Y-70683250D02*
X142049096Y-70647535D01*
X142049096Y-70647535D02*
X142168143Y-70647535D01*
X142168143Y-70647535D02*
X142239572Y-70683250D01*
X142453857Y-71397535D02*
X142453857Y-70647535D01*
X142453857Y-70647535D02*
X142572905Y-70647535D01*
X142572905Y-70647535D02*
X142644333Y-70683250D01*
X142644333Y-70683250D02*
X142691952Y-70754678D01*
X142691952Y-70754678D02*
X142715762Y-70826107D01*
X142715762Y-70826107D02*
X142739571Y-70968964D01*
X142739571Y-70968964D02*
X142739571Y-71076107D01*
X142739571Y-71076107D02*
X142715762Y-71218964D01*
X142715762Y-71218964D02*
X142691952Y-71290392D01*
X142691952Y-71290392D02*
X142644333Y-71361821D01*
X142644333Y-71361821D02*
X142572905Y-71397535D01*
X142572905Y-71397535D02*
X142453857Y-71397535D01*
X142930048Y-71183250D02*
X143168143Y-71183250D01*
X142882429Y-71397535D02*
X143049095Y-70647535D01*
X143049095Y-70647535D02*
X143215762Y-71397535D01*
X141669047Y-76515535D02*
X141502381Y-76158392D01*
X141383333Y-76515535D02*
X141383333Y-75765535D01*
X141383333Y-75765535D02*
X141573809Y-75765535D01*
X141573809Y-75765535D02*
X141621428Y-75801250D01*
X141621428Y-75801250D02*
X141645238Y-75836964D01*
X141645238Y-75836964D02*
X141669047Y-75908392D01*
X141669047Y-75908392D02*
X141669047Y-76015535D01*
X141669047Y-76015535D02*
X141645238Y-76086964D01*
X141645238Y-76086964D02*
X141621428Y-76122678D01*
X141621428Y-76122678D02*
X141573809Y-76158392D01*
X141573809Y-76158392D02*
X141383333Y-76158392D01*
X141978571Y-75765535D02*
X142073809Y-75765535D01*
X142073809Y-75765535D02*
X142121428Y-75801250D01*
X142121428Y-75801250D02*
X142169047Y-75872678D01*
X142169047Y-75872678D02*
X142192857Y-76015535D01*
X142192857Y-76015535D02*
X142192857Y-76265535D01*
X142192857Y-76265535D02*
X142169047Y-76408392D01*
X142169047Y-76408392D02*
X142121428Y-76479821D01*
X142121428Y-76479821D02*
X142073809Y-76515535D01*
X142073809Y-76515535D02*
X141978571Y-76515535D01*
X141978571Y-76515535D02*
X141930952Y-76479821D01*
X141930952Y-76479821D02*
X141883333Y-76408392D01*
X141883333Y-76408392D02*
X141859524Y-76265535D01*
X141859524Y-76265535D02*
X141859524Y-76015535D01*
X141859524Y-76015535D02*
X141883333Y-75872678D01*
X141883333Y-75872678D02*
X141930952Y-75801250D01*
X141930952Y-75801250D02*
X141978571Y-75765535D01*
X142359524Y-75765535D02*
X142478572Y-76515535D01*
X142478572Y-76515535D02*
X142573810Y-75979821D01*
X142573810Y-75979821D02*
X142669048Y-76515535D01*
X142669048Y-76515535D02*
X142788096Y-75765535D01*
X143073810Y-75765535D02*
X143121429Y-75765535D01*
X143121429Y-75765535D02*
X143169048Y-75801250D01*
X143169048Y-75801250D02*
X143192858Y-75836964D01*
X143192858Y-75836964D02*
X143216667Y-75908392D01*
X143216667Y-75908392D02*
X143240477Y-76051250D01*
X143240477Y-76051250D02*
X143240477Y-76229821D01*
X143240477Y-76229821D02*
X143216667Y-76372678D01*
X143216667Y-76372678D02*
X143192858Y-76444107D01*
X143192858Y-76444107D02*
X143169048Y-76479821D01*
X143169048Y-76479821D02*
X143121429Y-76515535D01*
X143121429Y-76515535D02*
X143073810Y-76515535D01*
X143073810Y-76515535D02*
X143026191Y-76479821D01*
X143026191Y-76479821D02*
X143002382Y-76444107D01*
X143002382Y-76444107D02*
X142978572Y-76372678D01*
X142978572Y-76372678D02*
X142954763Y-76229821D01*
X142954763Y-76229821D02*
X142954763Y-76051250D01*
X142954763Y-76051250D02*
X142978572Y-75908392D01*
X142978572Y-75908392D02*
X143002382Y-75836964D01*
X143002382Y-75836964D02*
X143026191Y-75801250D01*
X143026191Y-75801250D02*
X143073810Y-75765535D01*
X141700000Y-63765535D02*
X141700000Y-63015535D01*
X141700000Y-63015535D02*
X141819048Y-63015535D01*
X141819048Y-63015535D02*
X141890476Y-63051250D01*
X141890476Y-63051250D02*
X141938095Y-63122678D01*
X141938095Y-63122678D02*
X141961905Y-63194107D01*
X141961905Y-63194107D02*
X141985714Y-63336964D01*
X141985714Y-63336964D02*
X141985714Y-63444107D01*
X141985714Y-63444107D02*
X141961905Y-63586964D01*
X141961905Y-63586964D02*
X141938095Y-63658392D01*
X141938095Y-63658392D02*
X141890476Y-63729821D01*
X141890476Y-63729821D02*
X141819048Y-63765535D01*
X141819048Y-63765535D02*
X141700000Y-63765535D01*
X142176191Y-63551250D02*
X142414286Y-63551250D01*
X142128572Y-63765535D02*
X142295238Y-63015535D01*
X142295238Y-63015535D02*
X142461905Y-63765535D01*
X142557143Y-63015535D02*
X142842857Y-63015535D01*
X142700000Y-63765535D02*
X142700000Y-63015535D01*
X142985714Y-63551250D02*
X143223809Y-63551250D01*
X142938095Y-63765535D02*
X143104761Y-63015535D01*
X143104761Y-63015535D02*
X143271428Y-63765535D01*
X131514761Y-61235535D02*
X131348095Y-60878392D01*
X131229047Y-61235535D02*
X131229047Y-60485535D01*
X131229047Y-60485535D02*
X131419523Y-60485535D01*
X131419523Y-60485535D02*
X131467142Y-60521250D01*
X131467142Y-60521250D02*
X131490952Y-60556964D01*
X131490952Y-60556964D02*
X131514761Y-60628392D01*
X131514761Y-60628392D02*
X131514761Y-60735535D01*
X131514761Y-60735535D02*
X131490952Y-60806964D01*
X131490952Y-60806964D02*
X131467142Y-60842678D01*
X131467142Y-60842678D02*
X131419523Y-60878392D01*
X131419523Y-60878392D02*
X131229047Y-60878392D01*
X131705238Y-61021250D02*
X131943333Y-61021250D01*
X131657619Y-61235535D02*
X131824285Y-60485535D01*
X131824285Y-60485535D02*
X131990952Y-61235535D01*
X132109999Y-60485535D02*
X132229047Y-61235535D01*
X132229047Y-61235535D02*
X132324285Y-60699821D01*
X132324285Y-60699821D02*
X132419523Y-61235535D01*
X132419523Y-61235535D02*
X132538571Y-60485535D01*
X141669047Y-81565535D02*
X141502381Y-81208392D01*
X141383333Y-81565535D02*
X141383333Y-80815535D01*
X141383333Y-80815535D02*
X141573809Y-80815535D01*
X141573809Y-80815535D02*
X141621428Y-80851250D01*
X141621428Y-80851250D02*
X141645238Y-80886964D01*
X141645238Y-80886964D02*
X141669047Y-80958392D01*
X141669047Y-80958392D02*
X141669047Y-81065535D01*
X141669047Y-81065535D02*
X141645238Y-81136964D01*
X141645238Y-81136964D02*
X141621428Y-81172678D01*
X141621428Y-81172678D02*
X141573809Y-81208392D01*
X141573809Y-81208392D02*
X141383333Y-81208392D01*
X141978571Y-80815535D02*
X142073809Y-80815535D01*
X142073809Y-80815535D02*
X142121428Y-80851250D01*
X142121428Y-80851250D02*
X142169047Y-80922678D01*
X142169047Y-80922678D02*
X142192857Y-81065535D01*
X142192857Y-81065535D02*
X142192857Y-81315535D01*
X142192857Y-81315535D02*
X142169047Y-81458392D01*
X142169047Y-81458392D02*
X142121428Y-81529821D01*
X142121428Y-81529821D02*
X142073809Y-81565535D01*
X142073809Y-81565535D02*
X141978571Y-81565535D01*
X141978571Y-81565535D02*
X141930952Y-81529821D01*
X141930952Y-81529821D02*
X141883333Y-81458392D01*
X141883333Y-81458392D02*
X141859524Y-81315535D01*
X141859524Y-81315535D02*
X141859524Y-81065535D01*
X141859524Y-81065535D02*
X141883333Y-80922678D01*
X141883333Y-80922678D02*
X141930952Y-80851250D01*
X141930952Y-80851250D02*
X141978571Y-80815535D01*
X142359524Y-80815535D02*
X142478572Y-81565535D01*
X142478572Y-81565535D02*
X142573810Y-81029821D01*
X142573810Y-81029821D02*
X142669048Y-81565535D01*
X142669048Y-81565535D02*
X142788096Y-80815535D01*
X142954763Y-80886964D02*
X142978572Y-80851250D01*
X142978572Y-80851250D02*
X143026191Y-80815535D01*
X143026191Y-80815535D02*
X143145239Y-80815535D01*
X143145239Y-80815535D02*
X143192858Y-80851250D01*
X143192858Y-80851250D02*
X143216667Y-80886964D01*
X143216667Y-80886964D02*
X143240477Y-80958392D01*
X143240477Y-80958392D02*
X143240477Y-81029821D01*
X143240477Y-81029821D02*
X143216667Y-81136964D01*
X143216667Y-81136964D02*
X142930953Y-81565535D01*
X142930953Y-81565535D02*
X143240477Y-81565535D01*
X142278571Y-61237535D02*
X142040476Y-61237535D01*
X142040476Y-61237535D02*
X142040476Y-60487535D01*
X142445238Y-60844678D02*
X142611905Y-60844678D01*
X142683333Y-61237535D02*
X142445238Y-61237535D01*
X142445238Y-61237535D02*
X142445238Y-60487535D01*
X142445238Y-60487535D02*
X142683333Y-60487535D01*
X142897619Y-61237535D02*
X142897619Y-60487535D01*
X142897619Y-60487535D02*
X143016667Y-60487535D01*
X143016667Y-60487535D02*
X143088095Y-60523250D01*
X143088095Y-60523250D02*
X143135714Y-60594678D01*
X143135714Y-60594678D02*
X143159524Y-60666107D01*
X143159524Y-60666107D02*
X143183333Y-60808964D01*
X143183333Y-60808964D02*
X143183333Y-60916107D01*
X143183333Y-60916107D02*
X143159524Y-61058964D01*
X143159524Y-61058964D02*
X143135714Y-61130392D01*
X143135714Y-61130392D02*
X143088095Y-61201821D01*
X143088095Y-61201821D02*
X143016667Y-61237535D01*
X143016667Y-61237535D02*
X142897619Y-61237535D01*
X141965762Y-73901821D02*
X142037190Y-73937535D01*
X142037190Y-73937535D02*
X142156238Y-73937535D01*
X142156238Y-73937535D02*
X142203857Y-73901821D01*
X142203857Y-73901821D02*
X142227666Y-73866107D01*
X142227666Y-73866107D02*
X142251476Y-73794678D01*
X142251476Y-73794678D02*
X142251476Y-73723250D01*
X142251476Y-73723250D02*
X142227666Y-73651821D01*
X142227666Y-73651821D02*
X142203857Y-73616107D01*
X142203857Y-73616107D02*
X142156238Y-73580392D01*
X142156238Y-73580392D02*
X142061000Y-73544678D01*
X142061000Y-73544678D02*
X142013381Y-73508964D01*
X142013381Y-73508964D02*
X141989571Y-73473250D01*
X141989571Y-73473250D02*
X141965762Y-73401821D01*
X141965762Y-73401821D02*
X141965762Y-73330392D01*
X141965762Y-73330392D02*
X141989571Y-73258964D01*
X141989571Y-73258964D02*
X142013381Y-73223250D01*
X142013381Y-73223250D02*
X142061000Y-73187535D01*
X142061000Y-73187535D02*
X142180047Y-73187535D01*
X142180047Y-73187535D02*
X142251476Y-73223250D01*
X142751475Y-73866107D02*
X142727666Y-73901821D01*
X142727666Y-73901821D02*
X142656237Y-73937535D01*
X142656237Y-73937535D02*
X142608618Y-73937535D01*
X142608618Y-73937535D02*
X142537190Y-73901821D01*
X142537190Y-73901821D02*
X142489571Y-73830392D01*
X142489571Y-73830392D02*
X142465761Y-73758964D01*
X142465761Y-73758964D02*
X142441952Y-73616107D01*
X142441952Y-73616107D02*
X142441952Y-73508964D01*
X142441952Y-73508964D02*
X142465761Y-73366107D01*
X142465761Y-73366107D02*
X142489571Y-73294678D01*
X142489571Y-73294678D02*
X142537190Y-73223250D01*
X142537190Y-73223250D02*
X142608618Y-73187535D01*
X142608618Y-73187535D02*
X142656237Y-73187535D01*
X142656237Y-73187535D02*
X142727666Y-73223250D01*
X142727666Y-73223250D02*
X142751475Y-73258964D01*
X143203856Y-73937535D02*
X142965761Y-73937535D01*
X142965761Y-73937535D02*
X142965761Y-73187535D01*
X131395714Y-86270678D02*
X131467142Y-86306392D01*
X131467142Y-86306392D02*
X131490952Y-86342107D01*
X131490952Y-86342107D02*
X131514761Y-86413535D01*
X131514761Y-86413535D02*
X131514761Y-86520678D01*
X131514761Y-86520678D02*
X131490952Y-86592107D01*
X131490952Y-86592107D02*
X131467142Y-86627821D01*
X131467142Y-86627821D02*
X131419523Y-86663535D01*
X131419523Y-86663535D02*
X131229047Y-86663535D01*
X131229047Y-86663535D02*
X131229047Y-85913535D01*
X131229047Y-85913535D02*
X131395714Y-85913535D01*
X131395714Y-85913535D02*
X131443333Y-85949250D01*
X131443333Y-85949250D02*
X131467142Y-85984964D01*
X131467142Y-85984964D02*
X131490952Y-86056392D01*
X131490952Y-86056392D02*
X131490952Y-86127821D01*
X131490952Y-86127821D02*
X131467142Y-86199250D01*
X131467142Y-86199250D02*
X131443333Y-86234964D01*
X131443333Y-86234964D02*
X131395714Y-86270678D01*
X131395714Y-86270678D02*
X131229047Y-86270678D01*
X131705238Y-85984964D02*
X131729047Y-85949250D01*
X131729047Y-85949250D02*
X131776666Y-85913535D01*
X131776666Y-85913535D02*
X131895714Y-85913535D01*
X131895714Y-85913535D02*
X131943333Y-85949250D01*
X131943333Y-85949250D02*
X131967142Y-85984964D01*
X131967142Y-85984964D02*
X131990952Y-86056392D01*
X131990952Y-86056392D02*
X131990952Y-86127821D01*
X131990952Y-86127821D02*
X131967142Y-86234964D01*
X131967142Y-86234964D02*
X131681428Y-86663535D01*
X131681428Y-86663535D02*
X131990952Y-86663535D01*
X131514761Y-66379035D02*
X131348095Y-66021892D01*
X131229047Y-66379035D02*
X131229047Y-65629035D01*
X131229047Y-65629035D02*
X131419523Y-65629035D01*
X131419523Y-65629035D02*
X131467142Y-65664750D01*
X131467142Y-65664750D02*
X131490952Y-65700464D01*
X131490952Y-65700464D02*
X131514761Y-65771892D01*
X131514761Y-65771892D02*
X131514761Y-65879035D01*
X131514761Y-65879035D02*
X131490952Y-65950464D01*
X131490952Y-65950464D02*
X131467142Y-65986178D01*
X131467142Y-65986178D02*
X131419523Y-66021892D01*
X131419523Y-66021892D02*
X131229047Y-66021892D01*
X131705238Y-66343321D02*
X131776666Y-66379035D01*
X131776666Y-66379035D02*
X131895714Y-66379035D01*
X131895714Y-66379035D02*
X131943333Y-66343321D01*
X131943333Y-66343321D02*
X131967142Y-66307607D01*
X131967142Y-66307607D02*
X131990952Y-66236178D01*
X131990952Y-66236178D02*
X131990952Y-66164750D01*
X131990952Y-66164750D02*
X131967142Y-66093321D01*
X131967142Y-66093321D02*
X131943333Y-66057607D01*
X131943333Y-66057607D02*
X131895714Y-66021892D01*
X131895714Y-66021892D02*
X131800476Y-65986178D01*
X131800476Y-65986178D02*
X131752857Y-65950464D01*
X131752857Y-65950464D02*
X131729047Y-65914750D01*
X131729047Y-65914750D02*
X131705238Y-65843321D01*
X131705238Y-65843321D02*
X131705238Y-65771892D01*
X131705238Y-65771892D02*
X131729047Y-65700464D01*
X131729047Y-65700464D02*
X131752857Y-65664750D01*
X131752857Y-65664750D02*
X131800476Y-65629035D01*
X131800476Y-65629035D02*
X131919523Y-65629035D01*
X131919523Y-65629035D02*
X131990952Y-65664750D01*
X132133809Y-65629035D02*
X132419523Y-65629035D01*
X132276666Y-66379035D02*
X132276666Y-65629035D01*
X131514761Y-71342107D02*
X131490952Y-71377821D01*
X131490952Y-71377821D02*
X131419523Y-71413535D01*
X131419523Y-71413535D02*
X131371904Y-71413535D01*
X131371904Y-71413535D02*
X131300476Y-71377821D01*
X131300476Y-71377821D02*
X131252857Y-71306392D01*
X131252857Y-71306392D02*
X131229047Y-71234964D01*
X131229047Y-71234964D02*
X131205238Y-71092107D01*
X131205238Y-71092107D02*
X131205238Y-70984964D01*
X131205238Y-70984964D02*
X131229047Y-70842107D01*
X131229047Y-70842107D02*
X131252857Y-70770678D01*
X131252857Y-70770678D02*
X131300476Y-70699250D01*
X131300476Y-70699250D02*
X131371904Y-70663535D01*
X131371904Y-70663535D02*
X131419523Y-70663535D01*
X131419523Y-70663535D02*
X131490952Y-70699250D01*
X131490952Y-70699250D02*
X131514761Y-70734964D01*
X131824285Y-70663535D02*
X131919523Y-70663535D01*
X131919523Y-70663535D02*
X131967142Y-70699250D01*
X131967142Y-70699250D02*
X132014761Y-70770678D01*
X132014761Y-70770678D02*
X132038571Y-70913535D01*
X132038571Y-70913535D02*
X132038571Y-71163535D01*
X132038571Y-71163535D02*
X132014761Y-71306392D01*
X132014761Y-71306392D02*
X131967142Y-71377821D01*
X131967142Y-71377821D02*
X131919523Y-71413535D01*
X131919523Y-71413535D02*
X131824285Y-71413535D01*
X131824285Y-71413535D02*
X131776666Y-71377821D01*
X131776666Y-71377821D02*
X131729047Y-71306392D01*
X131729047Y-71306392D02*
X131705238Y-71163535D01*
X131705238Y-71163535D02*
X131705238Y-70913535D01*
X131705238Y-70913535D02*
X131729047Y-70770678D01*
X131729047Y-70770678D02*
X131776666Y-70699250D01*
X131776666Y-70699250D02*
X131824285Y-70663535D01*
X132490952Y-71413535D02*
X132252857Y-71413535D01*
X132252857Y-71413535D02*
X132252857Y-70663535D01*
X132752857Y-70663535D02*
X132800476Y-70663535D01*
X132800476Y-70663535D02*
X132848095Y-70699250D01*
X132848095Y-70699250D02*
X132871905Y-70734964D01*
X132871905Y-70734964D02*
X132895714Y-70806392D01*
X132895714Y-70806392D02*
X132919524Y-70949250D01*
X132919524Y-70949250D02*
X132919524Y-71127821D01*
X132919524Y-71127821D02*
X132895714Y-71270678D01*
X132895714Y-71270678D02*
X132871905Y-71342107D01*
X132871905Y-71342107D02*
X132848095Y-71377821D01*
X132848095Y-71377821D02*
X132800476Y-71413535D01*
X132800476Y-71413535D02*
X132752857Y-71413535D01*
X132752857Y-71413535D02*
X132705238Y-71377821D01*
X132705238Y-71377821D02*
X132681429Y-71342107D01*
X132681429Y-71342107D02*
X132657619Y-71270678D01*
X132657619Y-71270678D02*
X132633810Y-71127821D01*
X132633810Y-71127821D02*
X132633810Y-70949250D01*
X132633810Y-70949250D02*
X132657619Y-70806392D01*
X132657619Y-70806392D02*
X132681429Y-70734964D01*
X132681429Y-70734964D02*
X132705238Y-70699250D01*
X132705238Y-70699250D02*
X132752857Y-70663535D01*
X131395714Y-88820678D02*
X131467142Y-88856392D01*
X131467142Y-88856392D02*
X131490952Y-88892107D01*
X131490952Y-88892107D02*
X131514761Y-88963535D01*
X131514761Y-88963535D02*
X131514761Y-89070678D01*
X131514761Y-89070678D02*
X131490952Y-89142107D01*
X131490952Y-89142107D02*
X131467142Y-89177821D01*
X131467142Y-89177821D02*
X131419523Y-89213535D01*
X131419523Y-89213535D02*
X131229047Y-89213535D01*
X131229047Y-89213535D02*
X131229047Y-88463535D01*
X131229047Y-88463535D02*
X131395714Y-88463535D01*
X131395714Y-88463535D02*
X131443333Y-88499250D01*
X131443333Y-88499250D02*
X131467142Y-88534964D01*
X131467142Y-88534964D02*
X131490952Y-88606392D01*
X131490952Y-88606392D02*
X131490952Y-88677821D01*
X131490952Y-88677821D02*
X131467142Y-88749250D01*
X131467142Y-88749250D02*
X131443333Y-88784964D01*
X131443333Y-88784964D02*
X131395714Y-88820678D01*
X131395714Y-88820678D02*
X131229047Y-88820678D01*
X131943333Y-88463535D02*
X131848095Y-88463535D01*
X131848095Y-88463535D02*
X131800476Y-88499250D01*
X131800476Y-88499250D02*
X131776666Y-88534964D01*
X131776666Y-88534964D02*
X131729047Y-88642107D01*
X131729047Y-88642107D02*
X131705238Y-88784964D01*
X131705238Y-88784964D02*
X131705238Y-89070678D01*
X131705238Y-89070678D02*
X131729047Y-89142107D01*
X131729047Y-89142107D02*
X131752857Y-89177821D01*
X131752857Y-89177821D02*
X131800476Y-89213535D01*
X131800476Y-89213535D02*
X131895714Y-89213535D01*
X131895714Y-89213535D02*
X131943333Y-89177821D01*
X131943333Y-89177821D02*
X131967142Y-89142107D01*
X131967142Y-89142107D02*
X131990952Y-89070678D01*
X131990952Y-89070678D02*
X131990952Y-88892107D01*
X131990952Y-88892107D02*
X131967142Y-88820678D01*
X131967142Y-88820678D02*
X131943333Y-88784964D01*
X131943333Y-88784964D02*
X131895714Y-88749250D01*
X131895714Y-88749250D02*
X131800476Y-88749250D01*
X131800476Y-88749250D02*
X131752857Y-88784964D01*
X131752857Y-88784964D02*
X131729047Y-88820678D01*
X131729047Y-88820678D02*
X131705238Y-88892107D01*
X131514761Y-76404107D02*
X131490952Y-76439821D01*
X131490952Y-76439821D02*
X131419523Y-76475535D01*
X131419523Y-76475535D02*
X131371904Y-76475535D01*
X131371904Y-76475535D02*
X131300476Y-76439821D01*
X131300476Y-76439821D02*
X131252857Y-76368392D01*
X131252857Y-76368392D02*
X131229047Y-76296964D01*
X131229047Y-76296964D02*
X131205238Y-76154107D01*
X131205238Y-76154107D02*
X131205238Y-76046964D01*
X131205238Y-76046964D02*
X131229047Y-75904107D01*
X131229047Y-75904107D02*
X131252857Y-75832678D01*
X131252857Y-75832678D02*
X131300476Y-75761250D01*
X131300476Y-75761250D02*
X131371904Y-75725535D01*
X131371904Y-75725535D02*
X131419523Y-75725535D01*
X131419523Y-75725535D02*
X131490952Y-75761250D01*
X131490952Y-75761250D02*
X131514761Y-75796964D01*
X131824285Y-75725535D02*
X131919523Y-75725535D01*
X131919523Y-75725535D02*
X131967142Y-75761250D01*
X131967142Y-75761250D02*
X132014761Y-75832678D01*
X132014761Y-75832678D02*
X132038571Y-75975535D01*
X132038571Y-75975535D02*
X132038571Y-76225535D01*
X132038571Y-76225535D02*
X132014761Y-76368392D01*
X132014761Y-76368392D02*
X131967142Y-76439821D01*
X131967142Y-76439821D02*
X131919523Y-76475535D01*
X131919523Y-76475535D02*
X131824285Y-76475535D01*
X131824285Y-76475535D02*
X131776666Y-76439821D01*
X131776666Y-76439821D02*
X131729047Y-76368392D01*
X131729047Y-76368392D02*
X131705238Y-76225535D01*
X131705238Y-76225535D02*
X131705238Y-75975535D01*
X131705238Y-75975535D02*
X131729047Y-75832678D01*
X131729047Y-75832678D02*
X131776666Y-75761250D01*
X131776666Y-75761250D02*
X131824285Y-75725535D01*
X132490952Y-76475535D02*
X132252857Y-76475535D01*
X132252857Y-76475535D02*
X132252857Y-75725535D01*
X132633810Y-75796964D02*
X132657619Y-75761250D01*
X132657619Y-75761250D02*
X132705238Y-75725535D01*
X132705238Y-75725535D02*
X132824286Y-75725535D01*
X132824286Y-75725535D02*
X132871905Y-75761250D01*
X132871905Y-75761250D02*
X132895714Y-75796964D01*
X132895714Y-75796964D02*
X132919524Y-75868392D01*
X132919524Y-75868392D02*
X132919524Y-75939821D01*
X132919524Y-75939821D02*
X132895714Y-76046964D01*
X132895714Y-76046964D02*
X132610000Y-76475535D01*
X132610000Y-76475535D02*
X132919524Y-76475535D01*
X142097619Y-88848178D02*
X142169047Y-88883892D01*
X142169047Y-88883892D02*
X142192857Y-88919607D01*
X142192857Y-88919607D02*
X142216666Y-88991035D01*
X142216666Y-88991035D02*
X142216666Y-89098178D01*
X142216666Y-89098178D02*
X142192857Y-89169607D01*
X142192857Y-89169607D02*
X142169047Y-89205321D01*
X142169047Y-89205321D02*
X142121428Y-89241035D01*
X142121428Y-89241035D02*
X141930952Y-89241035D01*
X141930952Y-89241035D02*
X141930952Y-88491035D01*
X141930952Y-88491035D02*
X142097619Y-88491035D01*
X142097619Y-88491035D02*
X142145238Y-88526750D01*
X142145238Y-88526750D02*
X142169047Y-88562464D01*
X142169047Y-88562464D02*
X142192857Y-88633892D01*
X142192857Y-88633892D02*
X142192857Y-88705321D01*
X142192857Y-88705321D02*
X142169047Y-88776750D01*
X142169047Y-88776750D02*
X142145238Y-88812464D01*
X142145238Y-88812464D02*
X142097619Y-88848178D01*
X142097619Y-88848178D02*
X141930952Y-88848178D01*
X142669047Y-88491035D02*
X142430952Y-88491035D01*
X142430952Y-88491035D02*
X142407143Y-88848178D01*
X142407143Y-88848178D02*
X142430952Y-88812464D01*
X142430952Y-88812464D02*
X142478571Y-88776750D01*
X142478571Y-88776750D02*
X142597619Y-88776750D01*
X142597619Y-88776750D02*
X142645238Y-88812464D01*
X142645238Y-88812464D02*
X142669047Y-88848178D01*
X142669047Y-88848178D02*
X142692857Y-88919607D01*
X142692857Y-88919607D02*
X142692857Y-89098178D01*
X142692857Y-89098178D02*
X142669047Y-89169607D01*
X142669047Y-89169607D02*
X142645238Y-89205321D01*
X142645238Y-89205321D02*
X142597619Y-89241035D01*
X142597619Y-89241035D02*
X142478571Y-89241035D01*
X142478571Y-89241035D02*
X142430952Y-89205321D01*
X142430952Y-89205321D02*
X142407143Y-89169607D01*
X131490952Y-63061250D02*
X131443333Y-63025535D01*
X131443333Y-63025535D02*
X131371904Y-63025535D01*
X131371904Y-63025535D02*
X131300476Y-63061250D01*
X131300476Y-63061250D02*
X131252857Y-63132678D01*
X131252857Y-63132678D02*
X131229047Y-63204107D01*
X131229047Y-63204107D02*
X131205238Y-63346964D01*
X131205238Y-63346964D02*
X131205238Y-63454107D01*
X131205238Y-63454107D02*
X131229047Y-63596964D01*
X131229047Y-63596964D02*
X131252857Y-63668392D01*
X131252857Y-63668392D02*
X131300476Y-63739821D01*
X131300476Y-63739821D02*
X131371904Y-63775535D01*
X131371904Y-63775535D02*
X131419523Y-63775535D01*
X131419523Y-63775535D02*
X131490952Y-63739821D01*
X131490952Y-63739821D02*
X131514761Y-63704107D01*
X131514761Y-63704107D02*
X131514761Y-63454107D01*
X131514761Y-63454107D02*
X131419523Y-63454107D01*
X131729047Y-63775535D02*
X131729047Y-63025535D01*
X131729047Y-63025535D02*
X132014761Y-63775535D01*
X132014761Y-63775535D02*
X132014761Y-63025535D01*
X132252857Y-63775535D02*
X132252857Y-63025535D01*
X132252857Y-63025535D02*
X132371905Y-63025535D01*
X132371905Y-63025535D02*
X132443333Y-63061250D01*
X132443333Y-63061250D02*
X132490952Y-63132678D01*
X132490952Y-63132678D02*
X132514762Y-63204107D01*
X132514762Y-63204107D02*
X132538571Y-63346964D01*
X132538571Y-63346964D02*
X132538571Y-63454107D01*
X132538571Y-63454107D02*
X132514762Y-63596964D01*
X132514762Y-63596964D02*
X132490952Y-63668392D01*
X132490952Y-63668392D02*
X132443333Y-63739821D01*
X132443333Y-63739821D02*
X132371905Y-63775535D01*
X132371905Y-63775535D02*
X132252857Y-63775535D01*
X142243547Y-65666750D02*
X142195928Y-65631035D01*
X142195928Y-65631035D02*
X142124499Y-65631035D01*
X142124499Y-65631035D02*
X142053071Y-65666750D01*
X142053071Y-65666750D02*
X142005452Y-65738178D01*
X142005452Y-65738178D02*
X141981642Y-65809607D01*
X141981642Y-65809607D02*
X141957833Y-65952464D01*
X141957833Y-65952464D02*
X141957833Y-66059607D01*
X141957833Y-66059607D02*
X141981642Y-66202464D01*
X141981642Y-66202464D02*
X142005452Y-66273892D01*
X142005452Y-66273892D02*
X142053071Y-66345321D01*
X142053071Y-66345321D02*
X142124499Y-66381035D01*
X142124499Y-66381035D02*
X142172118Y-66381035D01*
X142172118Y-66381035D02*
X142243547Y-66345321D01*
X142243547Y-66345321D02*
X142267356Y-66309607D01*
X142267356Y-66309607D02*
X142267356Y-66059607D01*
X142267356Y-66059607D02*
X142172118Y-66059607D01*
X142481642Y-66381035D02*
X142481642Y-65631035D01*
X142481642Y-65631035D02*
X142767356Y-66381035D01*
X142767356Y-66381035D02*
X142767356Y-65631035D01*
X143005452Y-66381035D02*
X143005452Y-65631035D01*
X143005452Y-65631035D02*
X143124500Y-65631035D01*
X143124500Y-65631035D02*
X143195928Y-65666750D01*
X143195928Y-65666750D02*
X143243547Y-65738178D01*
X143243547Y-65738178D02*
X143267357Y-65809607D01*
X143267357Y-65809607D02*
X143291166Y-65952464D01*
X143291166Y-65952464D02*
X143291166Y-66059607D01*
X143291166Y-66059607D02*
X143267357Y-66202464D01*
X143267357Y-66202464D02*
X143243547Y-66273892D01*
X143243547Y-66273892D02*
X143195928Y-66345321D01*
X143195928Y-66345321D02*
X143124500Y-66381035D01*
X143124500Y-66381035D02*
X143005452Y-66381035D01*
X142097619Y-86244678D02*
X142169047Y-86280392D01*
X142169047Y-86280392D02*
X142192857Y-86316107D01*
X142192857Y-86316107D02*
X142216666Y-86387535D01*
X142216666Y-86387535D02*
X142216666Y-86494678D01*
X142216666Y-86494678D02*
X142192857Y-86566107D01*
X142192857Y-86566107D02*
X142169047Y-86601821D01*
X142169047Y-86601821D02*
X142121428Y-86637535D01*
X142121428Y-86637535D02*
X141930952Y-86637535D01*
X141930952Y-86637535D02*
X141930952Y-85887535D01*
X141930952Y-85887535D02*
X142097619Y-85887535D01*
X142097619Y-85887535D02*
X142145238Y-85923250D01*
X142145238Y-85923250D02*
X142169047Y-85958964D01*
X142169047Y-85958964D02*
X142192857Y-86030392D01*
X142192857Y-86030392D02*
X142192857Y-86101821D01*
X142192857Y-86101821D02*
X142169047Y-86173250D01*
X142169047Y-86173250D02*
X142145238Y-86208964D01*
X142145238Y-86208964D02*
X142097619Y-86244678D01*
X142097619Y-86244678D02*
X141930952Y-86244678D01*
X142645238Y-86137535D02*
X142645238Y-86637535D01*
X142526190Y-85851821D02*
X142407143Y-86387535D01*
X142407143Y-86387535D02*
X142716666Y-86387535D01*
D10*
X146220000Y-92610000D02*
X145970000Y-92610000D01*
X146220000Y-92610000D02*
X146220000Y-98310000D01*
X143020000Y-92610000D02*
X143270000Y-92610000D01*
X143020000Y-92610000D02*
X143020000Y-98310000D01*
X146220000Y-98310000D02*
X145970000Y-98310000D01*
X143020000Y-98310000D02*
X143270000Y-98310000D01*
X146400000Y-101800000D02*
X146400000Y-107600000D01*
X134650000Y-101800000D02*
X146400000Y-101800000D01*
X146400000Y-107600000D02*
X134650000Y-107600000D01*
X134650000Y-107600000D02*
X134650000Y-101800000D01*
D12*
X144756400Y-60962000D03*
X144756400Y-63502000D03*
X144756400Y-66042000D03*
X144756400Y-68582000D03*
X144756400Y-71122000D03*
X144756400Y-73662000D03*
X144756400Y-76202000D03*
X144756400Y-78742000D03*
X144756400Y-81282000D03*
X144756400Y-83822000D03*
X144756400Y-86362000D03*
X144756400Y-88902000D03*
X129536400Y-88902000D03*
X129536400Y-86362000D03*
X129536400Y-83822000D03*
X129536400Y-81282000D03*
X129536400Y-78742000D03*
X129536400Y-76202000D03*
X129536400Y-73662000D03*
X129536400Y-71122000D03*
X129536400Y-68582000D03*
X129536400Y-66042000D03*
X129536400Y-63502000D03*
X129536400Y-60962000D03*
M02*
