G04 #@! TF.GenerationSoftware,KiCad,Pcbnew,(7.0.0-0)*
G04 #@! TF.CreationDate,2023-04-28T12:14:11+03:00*
G04 #@! TF.ProjectId,chococorne,63686f63-6f63-46f7-926e-652e6b696361,2.1*
G04 #@! TF.SameCoordinates,Original*
G04 #@! TF.FileFunction,Soldermask,Bot*
G04 #@! TF.FilePolarity,Negative*
%FSLAX46Y46*%
G04 Gerber Fmt 4.6, Leading zero omitted, Abs format (unit mm)*
G04 Created by KiCad (PCBNEW (7.0.0-0)) date 2023-04-28 12:14:11*
%MOMM*%
%LPD*%
G01*
G04 APERTURE LIST*
G04 Aperture macros list*
%AMRoundRect*
0 Rectangle with rounded corners*
0 $1 Rounding radius*
0 $2 $3 $4 $5 $6 $7 $8 $9 X,Y pos of 4 corners*
0 Add a 4 corners polygon primitive as box body*
4,1,4,$2,$3,$4,$5,$6,$7,$8,$9,$2,$3,0*
0 Add four circle primitives for the rounded corners*
1,1,$1+$1,$2,$3*
1,1,$1+$1,$4,$5*
1,1,$1+$1,$6,$7*
1,1,$1+$1,$8,$9*
0 Add four rect primitives between the rounded corners*
20,1,$1+$1,$2,$3,$4,$5,0*
20,1,$1+$1,$4,$5,$6,$7,0*
20,1,$1+$1,$6,$7,$8,$9,0*
20,1,$1+$1,$8,$9,$2,$3,0*%
G04 Aperture macros list end*
%ADD10C,4.400000*%
%ADD11C,2.101800*%
%ADD12C,3.400000*%
%ADD13C,3.829000*%
%ADD14RoundRect,0.200000X-1.300000X-1.300000X1.300000X-1.300000X1.300000X1.300000X-1.300000X1.300000X0*%
%ADD15C,2.432000*%
%ADD16C,3.600000*%
%ADD17C,2.400000*%
%ADD18RoundRect,0.200000X-0.500000X0.700000X-0.500000X-0.700000X0.500000X-0.700000X0.500000X0.700000X0*%
%ADD19C,1.600000*%
%ADD20O,2.900000X2.100000*%
%ADD21RoundRect,0.200000X1.300000X1.300000X-1.300000X1.300000X-1.300000X-1.300000X1.300000X-1.300000X0*%
%ADD22RoundRect,0.200000X1.592168X0.919239X-0.919239X1.592168X-1.592168X-0.919239X0.919239X-1.592168X0*%
%ADD23O,1.797000X2.178000*%
%ADD24C,1.924000*%
%ADD25RoundRect,0.200000X-0.475833X1.775833X-1.775833X-0.475833X0.475833X-1.775833X1.775833X0.475833X0*%
G04 APERTURE END LIST*
D10*
X71590000Y-69700000D03*
D11*
X21000000Y-87110000D03*
D12*
X26500000Y-81160000D03*
D13*
X26500000Y-87110000D03*
D12*
X31500000Y-83360000D03*
D11*
X32000000Y-87110000D03*
D14*
X23225000Y-81160000D03*
D15*
X26500000Y-93010000D03*
X21500000Y-90910000D03*
D14*
X34775000Y-83360000D03*
D16*
X107615000Y-72655000D03*
D10*
X35460000Y-95820000D03*
X125730000Y-113730000D03*
X76410000Y-109180000D03*
X35460000Y-78680000D03*
D17*
X144620000Y-98710000D03*
X144620000Y-92210000D03*
D18*
X106540000Y-98125000D03*
X106540000Y-101675000D03*
X108420000Y-98165000D03*
X108420000Y-101715000D03*
D11*
X111000000Y-82930000D03*
D12*
X116500000Y-76980000D03*
D13*
X116500000Y-82930000D03*
D12*
X121500000Y-79180000D03*
D11*
X122000000Y-82930000D03*
D14*
X113225000Y-76980000D03*
D15*
X116500000Y-88830000D03*
X111500000Y-86730000D03*
D14*
X124775000Y-79180000D03*
D18*
X35360000Y-104310000D03*
X35360000Y-107860000D03*
X35360000Y-70330000D03*
X35360000Y-73880000D03*
X125410000Y-89125000D03*
X125410000Y-92675000D03*
X35360000Y-88060000D03*
X35360000Y-91610000D03*
X87500000Y-98155000D03*
X87500000Y-101705000D03*
X89600000Y-98215000D03*
X89600000Y-101765000D03*
D19*
X145050000Y-104700000D03*
X138050000Y-104700000D03*
D20*
X134749999Y-102599999D03*
X143249999Y-106799999D03*
X140249999Y-106799999D03*
X136249999Y-106799999D03*
D18*
X53300000Y-88060000D03*
X53300000Y-91610000D03*
X71590000Y-80125000D03*
X71590000Y-83675000D03*
X107540000Y-86330000D03*
X107540000Y-89880000D03*
X53300000Y-104310000D03*
X53300000Y-107860000D03*
X71590000Y-86330000D03*
X71590000Y-89880000D03*
X89460000Y-77405000D03*
X89460000Y-80955000D03*
X107540000Y-63780000D03*
X107540000Y-67330000D03*
X107540000Y-80125000D03*
X107540000Y-83675000D03*
D11*
X57000000Y-80550000D03*
D12*
X62500000Y-74600000D03*
D13*
X62500000Y-80550000D03*
D12*
X67500000Y-76800000D03*
D11*
X68000000Y-80550000D03*
D14*
X59225000Y-74600000D03*
D15*
X62500000Y-86450000D03*
X57500000Y-84350000D03*
D14*
X70775000Y-76800000D03*
D11*
X39000000Y-87110000D03*
D12*
X44500000Y-81160000D03*
D13*
X44500000Y-87110000D03*
D12*
X49500000Y-83360000D03*
D11*
X50000000Y-87110000D03*
D14*
X41225000Y-81160000D03*
D15*
X44500000Y-93010000D03*
X39500000Y-90910000D03*
D14*
X52775000Y-83360000D03*
D11*
X104000000Y-80550000D03*
D12*
X98500000Y-86500000D03*
D13*
X98500000Y-80550000D03*
D12*
X93500000Y-84300000D03*
D11*
X93000000Y-80550000D03*
D21*
X101775000Y-86500000D03*
D15*
X98500000Y-74650000D03*
X103500000Y-76750000D03*
D21*
X90225000Y-84300000D03*
D11*
X117962592Y-121533505D03*
D12*
X111110027Y-125857259D03*
D13*
X112650000Y-120110000D03*
D12*
X106849799Y-122438127D03*
D11*
X107337408Y-118686495D03*
D22*
X114273434Y-126704891D03*
D15*
X114177032Y-114411038D03*
X118463142Y-117733577D03*
D22*
X103686392Y-121590494D03*
D23*
X140964999Y-93969999D03*
X138424999Y-93969999D03*
X135884999Y-93969999D03*
X133344999Y-93969999D03*
D24*
X144756400Y-60962000D03*
X144756400Y-63502000D03*
X144756400Y-66042000D03*
X144756400Y-68582000D03*
X144756400Y-71122000D03*
X144756400Y-73662000D03*
X144756400Y-76202000D03*
X144756400Y-78742000D03*
X144756400Y-81282000D03*
X144756400Y-83822000D03*
X144756400Y-86362000D03*
X144756400Y-88902000D03*
X129536400Y-88902000D03*
X129536400Y-86362000D03*
X129536400Y-83822000D03*
X129536400Y-81282000D03*
X129536400Y-78742000D03*
X129536400Y-76202000D03*
X129536400Y-73662000D03*
X129536400Y-71122000D03*
X129536400Y-68582000D03*
X129536400Y-66042000D03*
X129536400Y-63502000D03*
X129536400Y-60962000D03*
D10*
X125730000Y-68830000D03*
D11*
X21000000Y-104130000D03*
D12*
X26500000Y-98180000D03*
D13*
X26500000Y-104130000D03*
D12*
X31500000Y-100380000D03*
D11*
X32000000Y-104130000D03*
D14*
X23225000Y-98180000D03*
D15*
X26500000Y-110030000D03*
X21500000Y-107930000D03*
D14*
X34775000Y-100380000D03*
D11*
X39000000Y-70110000D03*
D12*
X44500000Y-64160000D03*
D13*
X44500000Y-70110000D03*
D12*
X49500000Y-66360000D03*
D11*
X50000000Y-70110000D03*
D14*
X41225000Y-64160000D03*
D15*
X44500000Y-76010000D03*
X39500000Y-73910000D03*
D14*
X52775000Y-66360000D03*
D11*
X75000000Y-61190000D03*
D12*
X80500000Y-55240000D03*
D13*
X80500000Y-61190000D03*
D12*
X85500000Y-57440000D03*
D11*
X86000000Y-61190000D03*
D14*
X77225000Y-55240000D03*
D15*
X80500000Y-67090000D03*
X75500000Y-64990000D03*
D14*
X88775000Y-57440000D03*
D11*
X57000000Y-63550000D03*
D12*
X62500000Y-57600000D03*
D13*
X62500000Y-63550000D03*
D12*
X67500000Y-59800000D03*
D11*
X68000000Y-63550000D03*
D14*
X59225000Y-57600000D03*
D15*
X62500000Y-69450000D03*
X57500000Y-67350000D03*
D14*
X70775000Y-59800000D03*
D11*
X111000000Y-65930000D03*
D12*
X116500000Y-59980000D03*
D13*
X116500000Y-65930000D03*
D12*
X121500000Y-62180000D03*
D11*
X122000000Y-65930000D03*
D14*
X113225000Y-59980000D03*
D15*
X116500000Y-71830000D03*
X111500000Y-69730000D03*
D14*
X124775000Y-62180000D03*
X106775000Y-59800000D03*
D15*
X93500000Y-67350000D03*
X98500000Y-69450000D03*
D14*
X95225000Y-57600000D03*
D11*
X104000000Y-63550000D03*
D12*
X103500000Y-59800000D03*
D13*
X98500000Y-63550000D03*
D12*
X98500000Y-57600000D03*
D11*
X93000000Y-63550000D03*
D18*
X88670000Y-67435000D03*
X88670000Y-70985000D03*
X90730000Y-67435000D03*
X90730000Y-70985000D03*
X53300000Y-70330000D03*
X53300000Y-73880000D03*
X70800000Y-66135000D03*
X70800000Y-62585000D03*
X89500000Y-61335000D03*
X89500000Y-64885000D03*
D11*
X75000000Y-95180000D03*
D12*
X80500000Y-89230000D03*
D13*
X80500000Y-95180000D03*
D12*
X85500000Y-91430000D03*
D11*
X86000000Y-95180000D03*
D14*
X77225000Y-89230000D03*
D15*
X80500000Y-101080000D03*
X75500000Y-98980000D03*
D14*
X88775000Y-91430000D03*
D11*
X75000000Y-78180000D03*
D12*
X80500000Y-72230000D03*
D13*
X80500000Y-78180000D03*
D12*
X85500000Y-74430000D03*
D11*
X86000000Y-78180000D03*
D14*
X77225000Y-72230000D03*
D15*
X80500000Y-84080000D03*
X75500000Y-81980000D03*
D14*
X88775000Y-74430000D03*
D11*
X57000000Y-97555000D03*
D12*
X62500000Y-91605000D03*
D13*
X62500000Y-97555000D03*
D12*
X67500000Y-93805000D03*
D11*
X68000000Y-97555000D03*
D14*
X59225000Y-91605000D03*
D15*
X62500000Y-103455000D03*
X57500000Y-101355000D03*
D14*
X70775000Y-93805000D03*
D11*
X21000000Y-70110000D03*
D12*
X26500000Y-64160000D03*
D13*
X26500000Y-70110000D03*
D12*
X31500000Y-66360000D03*
D11*
X32000000Y-70110000D03*
D14*
X23225000Y-64160000D03*
D15*
X26500000Y-76010000D03*
X21500000Y-73910000D03*
D14*
X34775000Y-66360000D03*
D11*
X98100000Y-117520000D03*
D12*
X92600000Y-123470000D03*
D13*
X92600000Y-117520000D03*
D12*
X87600000Y-121270000D03*
D11*
X87100000Y-117520000D03*
D21*
X95875000Y-123470000D03*
D15*
X92600000Y-111620000D03*
X97600000Y-113720000D03*
D21*
X84325000Y-121270000D03*
D11*
X39000000Y-104115000D03*
D12*
X44500000Y-98165000D03*
D13*
X44500000Y-104115000D03*
D12*
X49500000Y-100365000D03*
D11*
X50000000Y-104115000D03*
D14*
X41225000Y-98165000D03*
D15*
X44500000Y-110015000D03*
X39500000Y-107915000D03*
D14*
X52775000Y-100365000D03*
D11*
X93000000Y-97555000D03*
D12*
X98500000Y-91605000D03*
D13*
X98500000Y-97555000D03*
D12*
X103500000Y-93805000D03*
D11*
X104000000Y-97555000D03*
D14*
X95225000Y-91605000D03*
D15*
X98500000Y-103455000D03*
X93500000Y-101355000D03*
D14*
X106775000Y-93805000D03*
D11*
X136000000Y-118556860D03*
D12*
X138402851Y-126295000D03*
D13*
X133250000Y-123320000D03*
D12*
X133997595Y-129525127D03*
D11*
X130500000Y-128083140D03*
D25*
X140040351Y-123458767D03*
D15*
X128140450Y-120370000D03*
X132459103Y-117089873D03*
D25*
X132360095Y-132361360D03*
D11*
X111000000Y-99930000D03*
D12*
X116500000Y-93980000D03*
D13*
X116500000Y-99930000D03*
D12*
X121500000Y-96180000D03*
D11*
X122000000Y-99930000D03*
D14*
X113225000Y-93980000D03*
D15*
X116500000Y-105830000D03*
X111500000Y-103730000D03*
D14*
X124775000Y-96180000D03*
M02*
