M48
; DRILL file {KiCad (7.0.0-0)} date Friday, 28 April 2023 at 12:14:13
; FORMAT={-:-/ absolute / inch / decimal}
; #@! TF.CreationDate,2023-04-28T12:14:13+03:00
; #@! TF.GenerationSoftware,Kicad,Pcbnew,(7.0.0-0)
; #@! TF.FileFunction,Plated,1,2,PTH
FMAT,2
INCH
; #@! TA.AperFunction,Plated,PTH,ViaDrill
T1C0.0157
; #@! TA.AperFunction,Plated,PTH,ComponentDrill
T2C0.0320
; #@! TA.AperFunction,Plated,PTH,ComponentDrill
T3C0.0394
; #@! TA.AperFunction,Plated,PTH,ComponentDrill
T4C0.0500
; #@! TA.AperFunction,Plated,PTH,ComponentDrill
T5C0.0512
; #@! TA.AperFunction,Plated,PTH,ComponentDrill
T6C0.0866
%
G90
G05
T1
X1.524Y-3.1563
X1.539Y-3.7815
X1.8311Y-3.7425
X1.8504Y-3.0571
X2.2189Y-2.8213
X2.2913Y-3.0705
X2.5331Y-2.8232
X2.7768Y-2.9413
X2.9035Y-3.4071
X2.9047Y-2.5024
X3.0764Y-2.5024
X3.1866Y-3.4047
X3.3295Y-2.6614
X3.522Y-2.3476
X3.587Y-3.9362
X3.865Y-3.0366
X3.9437Y-2.4028
X4.0909Y-2.7173
X4.1102Y-3.915
X4.1429Y-2.5787
X4.2701Y-3.8126
X4.2937Y-3.4
X4.3652Y-2.9012
X4.4126Y-3.8063
X4.4331Y-2.9012
X4.4567Y-2.9508
X4.4657Y-2.7098
X4.4657Y-4.137
X4.4681Y-3.7776
X4.6953Y-2.8665
X5.0492Y-4.1547
X5.1165Y-4.4732
X5.3419Y-3.3673
T2
X5.0999Y-2.4001
X5.0999Y-2.5001
X5.0999Y-2.6001
X5.0999Y-2.7001
X5.0999Y-2.8001
X5.0999Y-2.9001
X5.0999Y-3.0001
X5.0999Y-3.1001
X5.0999Y-3.2001
X5.0999Y-3.3001
X5.0999Y-3.4001
X5.0999Y-3.5001
X5.2498Y-3.6996
X5.3498Y-3.6996
X5.4498Y-3.6996
X5.5498Y-3.6996
X5.6991Y-2.4001
X5.6991Y-2.5001
X5.6991Y-2.6001
X5.6991Y-2.7001
X5.6991Y-2.8001
X5.6991Y-2.9001
X5.6991Y-3.0001
X5.6991Y-3.1001
X5.6991Y-3.2001
X5.6991Y-3.3001
X5.6991Y-3.4001
X5.6991Y-3.5001
T4
X0.8465Y-2.9098
X0.8465Y-3.5791
X0.8465Y-4.2492
X1.0433Y-2.9925
X1.0433Y-3.6618
X1.0433Y-4.3319
X1.5551Y-2.9098
X1.5551Y-3.5791
X1.5551Y-4.2486
X1.752Y-2.9925
X1.752Y-3.6618
X1.752Y-4.3313
X2.2638Y-2.6516
X2.2638Y-3.3209
X2.2638Y-3.9904
X2.4606Y-2.7343
X2.4606Y-3.4035
X2.4606Y-4.073
X2.9724Y-2.5587
X2.9724Y-3.2276
X2.9724Y-3.8969
X3.1693Y-2.6413
X3.1693Y-3.3102
X3.1693Y-3.9795
X3.6457Y-4.3945
X3.6811Y-2.6516
X3.6811Y-3.9904
X3.8425Y-4.4772
X3.878Y-2.7343
X3.878Y-2.939
X3.878Y-4.073
X4.0748Y-3.0217
X4.3898Y-2.7453
X4.3898Y-3.4146
X4.3898Y-4.0839
X4.4952Y-4.5044
X4.5866Y-2.828
X4.5866Y-3.4972
X4.5866Y-4.1665
X4.6639Y-4.6352
X5.0449Y-4.739
X5.2149Y-4.6098
T5
X5.6937Y-3.6303
X5.6937Y-3.8862
T6
X1.3961Y-3.0976
X1.3961Y-3.7724
X2.8185Y-2.7441
X3.0083Y-4.2984
X4.95Y-2.7098
X4.95Y-4.4776
T3
G00X5.315Y-4.0394
M15
G01X5.2953Y-4.0394
M16
G05
G00X5.374Y-4.2047
M15
G01X5.3543Y-4.2047
M16
G05
G00X5.5315Y-4.2047
M15
G01X5.5118Y-4.2047
M16
G05
G00X5.6496Y-4.2047
M15
G01X5.6299Y-4.2047
M16
G05
T0
M30
