M48
; DRILL file {KiCad (7.0.0-0)} date Friday, 28 April 2023 at 12:14:13
; FORMAT={-:-/ absolute / inch / decimal}
; #@! TF.CreationDate,2023-04-28T12:14:13+03:00
; #@! TF.GenerationSoftware,Kicad,Pcbnew,(7.0.0-0)
; #@! TF.FileFunction,NonPlated,1,2,NPTH
FMAT,2
INCH
; #@! TA.AperFunction,NonPlated,NPTH,ComponentDrill
T1C0.0472
; #@! TA.AperFunction,NonPlated,NPTH,ComponentDrill
T2C0.0670
; #@! TA.AperFunction,NonPlated,NPTH,ComponentDrill
T3C0.1181
; #@! TA.AperFunction,NonPlated,NPTH,ComponentDrill
T4C0.1260
; #@! TA.AperFunction,NonPlated,NPTH,ComponentDrill
T5C0.1350
%
G90
G05
T1
X5.435Y-4.122
X5.7106Y-4.122
T2
X0.8268Y-2.7602
X0.8268Y-3.4295
X0.8268Y-4.0996
X1.2598Y-2.7602
X1.2598Y-3.4295
X1.2598Y-4.0996
X1.5354Y-2.7602
X1.5354Y-3.4295
X1.5354Y-4.099
X1.9685Y-2.7602
X1.9685Y-3.4295
X1.9685Y-4.099
X2.2441Y-2.502
X2.2441Y-3.1713
X2.2441Y-3.8407
X2.6772Y-2.502
X2.6772Y-3.1713
X2.6772Y-3.8407
X2.9528Y-2.4091
X2.9528Y-3.078
X2.9528Y-3.7472
X3.3858Y-2.4091
X3.3858Y-3.078
X3.3858Y-3.7472
X3.4291Y-4.6268
X3.6614Y-2.502
X3.6614Y-3.1713
X3.6614Y-3.8407
X3.8622Y-4.6268
X4.0945Y-2.502
X4.0945Y-3.1713
X4.0945Y-3.8407
X4.2259Y-4.6727
X4.3701Y-2.5957
X4.3701Y-3.265
X4.3701Y-3.9343
X4.6442Y-4.7848
X4.8031Y-2.5957
X4.8031Y-3.265
X4.8031Y-3.9343
X5.1378Y-5.0426
X5.3543Y-4.6676
T3
X1.0433Y-2.526
X1.0433Y-3.1953
X1.0433Y-3.8654
X1.2402Y-2.6126
X1.2402Y-3.2819
X1.2402Y-3.952
X1.752Y-2.526
X1.752Y-3.1953
X1.752Y-3.8648
X1.9488Y-2.6126
X1.9488Y-3.2819
X1.9488Y-3.9514
X2.4606Y-2.2677
X2.4606Y-2.937
X2.4606Y-3.6065
X2.6575Y-2.3543
X2.6575Y-3.0236
X2.6575Y-3.6931
X3.1693Y-2.1748
X3.1693Y-2.8437
X3.1693Y-3.513
X3.3661Y-2.2614
X3.3661Y-2.9303
X3.3661Y-3.5996
X3.4488Y-4.7744
X3.6457Y-4.861
X3.6811Y-3.3189
X3.878Y-2.2677
X3.878Y-3.4055
X3.878Y-3.6065
X4.0748Y-2.3543
X4.0748Y-3.6931
X4.2067Y-4.8204
X4.3744Y-4.955
X4.5866Y-2.3614
X4.5866Y-3.0307
X4.5866Y-3.7
X4.7835Y-2.448
X4.7835Y-3.1173
X4.7835Y-3.7866
X5.2755Y-5.0994
X5.4489Y-4.9722
T4
X4.2368Y-2.8604
T5
X1.0433Y-2.7602
X1.0433Y-3.4295
X1.0433Y-4.0996
X1.752Y-2.7602
X1.752Y-3.4295
X1.752Y-4.099
X2.4606Y-2.502
X2.4606Y-3.1713
X2.4606Y-3.8407
X3.1693Y-2.4091
X3.1693Y-3.078
X3.1693Y-3.7472
X3.6457Y-4.6268
X3.878Y-2.502
X3.878Y-3.1713
X3.878Y-3.8407
X4.435Y-4.7287
X4.5866Y-2.5957
X4.5866Y-3.265
X4.5866Y-3.9343
X5.2461Y-4.8551
T0
M30
