0
SECTION
2
HEADER
9
$INSUNITS
70
4
9
$ACADVER
1
AC1014
9
$HANDSEED
5
FFFF
0
ENDSEC
0
SECTION
2
TABLES
0
TABLE
2
VPORT
5
8
100
AcDbSymbolTable
0
ENDTAB
0
TABLE
2
LTYPE
5
5
100
AcDbSymbolTable
0
LTYPE
5
14
100
AcDbSymbolTableRecord
100
AcDbLinetypeTableRecord
2
BYBLOCK
70
0
0
LTYPE
5
15
100
AcDbSymbolTableRecord
100
AcDbLinetypeTableRecord
2
BYLAYER
70
0
0
ENDTAB
0
TABLE
2
LAYER
5
2
100
AcDbSymbolTable
70
2
0
LAYER
5
50
100
AcDbSymbolTableRecord
100
AcDbLayerTableRecord
2
0
70
0
6
CONTINUOUS
0
ENDTAB
0
TABLE
2
STYLE
5
3
100
AcDbSymbolTable
70
1
0
STYLE
5
11
100
AcDbSymbolTableRecord
100
AcDbTextStyleTableRecord
2
STANDARD
70
0
0
ENDTAB
0
TABLE
2
VIEW
5
6
100
AcDbSymbolTable
70
0
0
ENDTAB
0
TABLE
2
UCS
5
7
100
AcDbSymbolTable
70
0
0
ENDTAB
0
TABLE
2
APPID
5
9
100
AcDbSymbolTable
70
2
0
APPID
5
12
100
AcDbSymbolTableRecord
100
AcDbRegAppTableRecord
2
ACAD
70
0
0
ENDTAB
0
TABLE
2
DIMSTYLE
5
A
100
AcDbSymbolTable
70
1
0
ENDTAB
0
TABLE
2
BLOCK_RECORD
5
1
100
AcDbSymbolTable
70
1
0
BLOCK_RECORD
5
1F
100
AcDbSymbolTableRecord
100
AcDbBlockTableRecord
2
*MODEL_SPACE
0
BLOCK_RECORD
5
1B
100
AcDbSymbolTableRecord
100
AcDbBlockTableRecord
2
*PAPER_SPACE
0
ENDTAB
0
ENDSEC
0
SECTION
2
BLOCKS
0
BLOCK
5
20
100
AcDbEntity
100
AcDbBlockBegin
2
*MODEL_SPACE
0
ENDBLK
5
21
100
AcDbEntity
100
AcDbBlockEnd
0
BLOCK
5
1C
100
AcDbEntity
100
AcDbBlockBegin
2
*PAPER_SPACE
0
ENDBLK
5
1D
100
AcDbEntity
100
AcDbBlockEnd
0
ENDSEC
0
SECTION
2
ENTITIES
0
LWPOLYLINE
5
100
100
AcDbEntity
8
0
100
AcDbPolyline
90
52
70
1
43
0.0
10
25.291107883577727
20
-80.146304999999984
42
0.42869518886917629
10
22.79413172391682
20
-82.769227976229217
10
22.838174999999996
20
-83.663894000000013
10
23.192782000000012
20
-87.703996000000018
10
23.723457000000003
20
-91.737157999999994
10
24.449567999999999
20
-95.741579000000016
10
25.390488999999992
20
-99.695460000000011
10
26.565589999999997
20
-103.57700300000002
10
27.994243000000001
20
-107.36440600000002
10
29.695818000000003
20
-111.03587300000001
10
31.371047999999995
20
-113.90107500000001
10
33.046743000000006
20
-116.76739499999999
10
34.722436999999999
20
-119.633714
10
36.398132000000004
20
-122.500034
10
38.073826000000004
20
-125.366353
10
39.749521000000001
20
-128.23267300000001
10
41.425215000000001
20
-131.09899200000001
10
43.100909999999999
20
-133.96531200000001
10
43.194322000000007
20
-134.13448299999999
10
43.299779999999998
20
-134.26921700000003
10
43.416813000000005
20
-134.368865
10
43.544955000000002
20
-134.43277800000001
10
43.683737000000001
20
-134.460307
10
43.832690999999997
20
-134.45080100000001
10
43.991349
20
-134.40361100000001
10
44.159242999999996
20
-134.31808899999999
10
45.834936999999996
20
-133.34795
10
47.510632000000001
20
-132.37781200000001
10
49.186326000000008
20
-131.40767299999999
10
50.862021000000006
20
-130.437534
10
52.537714999999999
20
-129.46739500000001
10
54.21341000000001
20
-128.49725599999999
10
57.56479800000001
20
-126.556978
10
64.935180000000003
20
-126.55799100000002
10
113.52727700000001
20
-126.55799100000002
42
0.41315337356559967
10
115.02183300000802
20
-125.057969
10
115.02183299999906
20
-113.84636900000001
42
-0.41552787311619815
10
118.03553800000033
20
-110.84633299992871
10
158.30919399999999
20
-110.846333
42
0.41417096994842695
10
159.80919400000224
20
-109.34636900000001
10
159.80919399999999
20
-40.495187000000001
42
0.35585951908023217
10
157.40070200000147
20
-37.568411999992769
10
155.228182
20
-37.131492000000001
10
148.123243
20
-36.191893999999998
10
139.51013900000001
20
-35.416820999999999
10
129.62202300000001
20
-34.831707000000009
10
118.692048
20
-34.461987000000001
10
106.95336600000002
20
-34.333095
10
53.202472000000007
20
-34.333095
42
0.41421356237309448
10
50.702472000000007
20
-36.833095
10
50.702472000000007
20
-77.646305000000012
42
-0.41421356237309509
10
48.202472000000007
20
-80.146305000000012
0
ENDSEC
0
SECTION
2
OBJECTS
0
DICTIONARY
5
C
100
AcDbDictionary
3
ACAD_GROUP
350
D
3
ACAD_MLINESTYLE
350
17
0
DICTIONARY
5
D
100
AcDbDictionary
0
DICTIONARY
5
1A
330
C
100
AcDbDictionary
0
DICTIONARY
5
17
100
AcDbDictionary
0
ENDSEC
0
EOF
