0
SECTION
2
HEADER
9
$INSUNITS
70
4
9
$ACADVER
1
AC1014
9
$HANDSEED
5
FFFF
0
ENDSEC
0
SECTION
2
TABLES
0
TABLE
2
VPORT
5
8
100
AcDbSymbolTable
0
ENDTAB
0
TABLE
2
LTYPE
5
5
100
AcDbSymbolTable
0
LTYPE
5
14
100
AcDbSymbolTableRecord
100
AcDbLinetypeTableRecord
2
BYBLOCK
70
0
0
LTYPE
5
15
100
AcDbSymbolTableRecord
100
AcDbLinetypeTableRecord
2
BYLAYER
70
0
0
ENDTAB
0
TABLE
2
LAYER
5
2
100
AcDbSymbolTable
70
2
0
LAYER
5
50
100
AcDbSymbolTableRecord
100
AcDbLayerTableRecord
2
0
70
0
6
CONTINUOUS
0
ENDTAB
0
TABLE
2
STYLE
5
3
100
AcDbSymbolTable
70
1
0
STYLE
5
11
100
AcDbSymbolTableRecord
100
AcDbTextStyleTableRecord
2
STANDARD
70
0
0
ENDTAB
0
TABLE
2
VIEW
5
6
100
AcDbSymbolTable
70
0
0
ENDTAB
0
TABLE
2
UCS
5
7
100
AcDbSymbolTable
70
0
0
ENDTAB
0
TABLE
2
APPID
5
9
100
AcDbSymbolTable
70
2
0
APPID
5
12
100
AcDbSymbolTableRecord
100
AcDbRegAppTableRecord
2
ACAD
70
0
0
ENDTAB
0
TABLE
2
DIMSTYLE
5
A
100
AcDbSymbolTable
70
1
0
ENDTAB
0
TABLE
2
BLOCK_RECORD
5
1
100
AcDbSymbolTable
70
1
0
BLOCK_RECORD
5
1F
100
AcDbSymbolTableRecord
100
AcDbBlockTableRecord
2
*MODEL_SPACE
0
BLOCK_RECORD
5
1B
100
AcDbSymbolTableRecord
100
AcDbBlockTableRecord
2
*PAPER_SPACE
0
ENDTAB
0
ENDSEC
0
SECTION
2
BLOCKS
0
BLOCK
5
20
100
AcDbEntity
100
AcDbBlockBegin
2
*MODEL_SPACE
0
ENDBLK
5
21
100
AcDbEntity
100
AcDbBlockEnd
0
BLOCK
5
1C
100
AcDbEntity
100
AcDbBlockBegin
2
*PAPER_SPACE
0
ENDBLK
5
1D
100
AcDbEntity
100
AcDbBlockEnd
0
ENDSEC
0
SECTION
2
ENTITIES
0
LWPOLYLINE
5
100
100
AcDbEntity
8
0
100
AcDbPolyline
90
149
70
1
43
0.0
10
78.735856999999996
20
-30.123628
10
80.369922000000003
20
-30.143036999999993
10
82.003062999999997
20
-30.201311000000025
10
83.634356000000011
20
-30.298395999999983
10
85.262881000000007
20
-30.434238000000029
10
86.887715000000028
20
-30.608759999999734
10
88.507941000000088
20
-30.82186399999933
10
90.122643000000096
20
-31.07342799999946
10
91.730906999999974
20
-31.363310000000236
10
93.331824000000012
20
-31.69134799999993
10
94.924490000000063
20
-32.057353999999769
10
96.508002999999988
20
-32.461123000000036
10
98.081470000000024
20
-32.902425999999949
10
99.643999999999949
20
-33.381013000000266
10
101.19470900000016
20
-33.896614999999585
10
102.73272200000017
20
-34.448938999999584
10
104.25716799999982
20
-35.037673000000439
10
105.76718599999992
20
-35.662485000000167
10
107.26192299999967
20
-36.323021000000779
10
108.74053300000035
20
-37.018907999999257
10
110.20217999999984
20
-37.749752000000328
10
111.64603700000038
20
-38.515139999999299
10
113.07129000000033
20
-39.314639999999429
10
114.47713200000008
20
-40.147799999999883
10
115.86276700000026
20
-41.014147999999594
10
117.22741399999987
20
-41.913194000000217
10
118.5702990000004
20
-42.844431999999429
10
119.89066500000007
20
-43.8073329999999
10
121.18776500000033
20
-44.801353999999598
10
122.46086500000035
20
-45.825931999999561
10
123.70924599999995
20
-46.880489000000068
10
124.02953499999994
20
-47.148696000000079
10
124.32058200000017
20
-47.448381999999825
10
124.57932000000001
20
-47.776368999999981
10
124.80301100000013
20
-48.12918999999993
10
124.98929099999997
20
-48.503115000000022
10
125.13619100000014
20
-48.89419099999995
10
125.08224600000003
20
-62.46348900000001
10
125.082246
20
-81.259489000000002
10
125.09775300000001
20
-98.160511000000014
10
125.05848900000011
20
-98.433080000000018
10
124.98184600000015
20
-98.697586000000044
10
124.86933900000008
20
-98.948941000000048
10
124.72313500000004
20
-99.182311000000013
10
124.54604500000005
20
-99.393206000000049
10
124.34147699999995
20
-99.577567999999928
10
124.11336699999994
20
-99.731849999999937
10
123.86610300000002
20
-99.853084000000067
10
123.60444199999998
20
-99.938936999999882
10
123.33341799999999
20
-99.987758000000028
10
123.05824600000001
20
-99.998608000000004
10
119.41736800000001
20
-100.02556300000001
10
115.777023
20
-100.09343900000006
10
112.13767000000001
20
-100.20222300000003
10
108.49977000000001
20
-100.35190299999999
10
104.86378200000001
20
-100.54245899999995
10
101.230165
20
-100.77386800000008
10
97.599378999999999
20
-101.04610000000008
10
93.971880999999996
20
-101.35912000000006
10
90.348130999999995
20
-101.71289099999994
10
86.728585000000066
20
-102.10736600000064
10
83.113700999999892
20
-102.54249499999889
10
79.503936999999866
20
-103.01822499999901
10
75.899746000000221
20
-103.53449400000164
10
72.3015860000001
20
-104.09123800000067
10
68.709910000000221
20
-104.68838600000132
10
65.12517299999972
20
-105.32586299999841
10
61.547825999999873
20
-106.00358799999931
10
57.978321999999913
20
-106.72147499999959
10
54.417111999999896
20
-107.47943499999951
10
52.680255999999865
20
-107.97456799999949
10
50.954146999999843
20
-108.50595399999949
10
49.239537000000169
20
-109.07335000000053
10
47.537177999999969
20
-109.67650699999992
10
45.847815000000224
20
-110.3151600000006
10
44.172189000000266
20
-110.98903100000067
10
42.511032999999742
20
-111.6978229999994
10
40.865074999999997
20
-112.441226
10
39.235036999999807
20
-113.21891499999961
10
37.621631999999714
20
-114.03054799999943
10
36.025567000000194
20
-114.87577100000037
10
34.44754100000047
20
-115.75421300000085
10
32.888246000000073
20
-116.66548900000012
10
32.640672000000045
20
-116.80177100000009
10
32.376145999999991
20
-116.90121499999997
10
32.100097999999974
20
-116.96171699999987
10
31.818227
20
-116.98202600000002
10
31.536357000000002
20
-116.96172500000002
10
31.260307000000012
20
-116.90123099999995
10
30.995778000000016
20
-116.80179399999999
10
30.748232999999992
20
-116.66546900000002
10
30.522783999999952
20
-116.49506900000007
10
30.324086999999889
20
-116.29411400000011
10
30.156246000000067
20
-116.06675399999995
10
19.648942000002062
20
-97.47363899999884
10
19.293157999999845
20
-96.708607000000072
10
18.976273999999918
20
-95.926661000000038
10
18.699109999999767
20
-95.129770000000079
10
18.462364999999895
20
-94.319951000000032
10
18.266638999999621
20
-93.499253000000095
10
18.112426999999649
20
-92.669750000000079
10
18.000120000000187
20
-91.833543999999989
10
17.930000000000007
20
-90.992747000000008
10
17.902245999999991
20
-90.149489000000003
10
17.914245999999999
20
-82.529488999999998
10
17.914245999999999
20
-75.163488999999998
10
17.914245999999999
20
-67.035488999999998
10
17.914245999999999
20
-59.057488999999997
10
17.933074999999945
20
-58.890597
10
17.988532000000063
20
-58.732071000000026
10
18.077876999999983
20
-58.589861999999997
10
18.196629000000041
20
-58.471103000000042
10
18.33883300000004
20
-58.381750000000061
10
18.497355000000031
20
-58.326285000000091
10
18.664246000000009
20
-58.307489000000068
10
34.569243999999998
20
-58.310406
10
34.851205
20
-58.295468
10
35.128249000000004
20
-58.240938000000007
10
35.394861999999982
20
-58.147958999999936
10
35.645735000000045
20
-58.01838400000009
10
35.875875000000008
20
-57.854790000000015
10
36.080700000000022
20
-57.660435000000028
10
36.25613300000002
20
-57.439188000000016
10
36.398681999999958
20
-57.195451999999982
10
36.505509000000067
20
-56.934081000000027
10
36.57448799999991
20
-56.660275999999982
10
36.604245000000134
20
-56.379488000000023
10
36.604201000000003
20
-39.054908000000005
10
36.623457999999921
20
-38.885817999999993
10
36.680394999999983
20
-38.725434999999997
10
36.772026999999987
20
-38.582018999999988
10
36.893634999999925
20
-38.46295599999992
10
37.038955999999963
20
-38.374377999999943
10
39.306261999999769
20
-37.567078999999374
10
41.586742999999977
20
-36.797780999999937
10
43.879759000000043
20
-36.06669600000015
10
46.184672000000013
20
-35.374030000000019
10
48.500838000000016
20
-34.719975000000062
10
50.827609000000031
20
-34.104715000000091
10
53.164335999999835
20
-33.528419999999358
10
55.510367000000315
20
-32.991253000001308
10
57.865045999999779
20
-32.493361999998889
10
60.227717000000027
20
-32.034887000000147
10
62.597717999999858
20
-31.615955999999198
10
64.974388999999817
20
-31.236685999998844
10
67.357065999999946
20
-30.897182999999579
10
69.745082999999852
20
-30.597541999998867
10
72.137773000000053
20
-30.337846000000393
10
74.534469000000001
20
-30.118168000000001
0
CIRCLE
5
101
100
AcDbEntity
8
0
100
AcDbCircle
10
107.84
20
-74.879999999999995
30
0
40
1.1499999999999999
210
0
220
0
230
1
0
CIRCLE
5
102
100
AcDbEntity
8
0
100
AcDbCircle
10
71.814245999999997
20
-73.947489000000004
30
0
40
1.1000000000000001
210
0
220
0
230
1
0
CIRCLE
5
103
100
AcDbEntity
8
0
100
AcDbCircle
10
43.747245999999997
20
-101.940489
30
0
40
1.1499999999999999
210
0
220
0
230
1
0
CIRCLE
5
104
100
AcDbEntity
8
0
100
AcDbCircle
10
90.864245999999994
20
-54.897489000000007
30
0
40
1.1000000000000001
210
0
220
0
230
1
0
CIRCLE
5
105
100
AcDbEntity
8
0
100
AcDbCircle
10
111.51783700000001
20
-47.71714200000001
30
0
40
1.1499999999999999
210
0
220
0
230
1
0
CIRCLE
5
106
100
AcDbEntity
8
0
100
AcDbCircle
10
71.814245999999997
20
-35.847489000000003
30
0
40
1.1000000000000001
210
0
220
0
230
1
0
CIRCLE
5
107
100
AcDbEntity
8
0
100
AcDbCircle
10
52.764246
20
-54.897489000000007
30
0
40
1.1000000000000001
210
0
220
0
230
1
0
CIRCLE
5
108
100
AcDbEntity
8
0
100
AcDbCircle
10
51.120000000000005
20
-37.719999999999999
30
0
40
1.1499999999999999
210
0
220
0
230
1
0
ENDSEC
0
SECTION
2
OBJECTS
0
DICTIONARY
5
C
100
AcDbDictionary
3
ACAD_GROUP
350
D
3
ACAD_MLINESTYLE
350
17
0
DICTIONARY
5
D
100
AcDbDictionary
0
DICTIONARY
5
1A
330
C
100
AcDbDictionary
0
DICTIONARY
5
17
100
AcDbDictionary
0
ENDSEC
0
EOF
