0
SECTION
2
HEADER
9
$INSUNITS
70
4
9
$ACADVER
1
AC1014
9
$HANDSEED
5
FFFF
0
ENDSEC
0
SECTION
2
TABLES
0
TABLE
2
VPORT
5
8
100
AcDbSymbolTable
0
ENDTAB
0
TABLE
2
LTYPE
5
5
100
AcDbSymbolTable
0
LTYPE
5
14
100
AcDbSymbolTableRecord
100
AcDbLinetypeTableRecord
2
BYBLOCK
70
0
0
LTYPE
5
15
100
AcDbSymbolTableRecord
100
AcDbLinetypeTableRecord
2
BYLAYER
70
0
0
ENDTAB
0
TABLE
2
LAYER
5
2
100
AcDbSymbolTable
70
2
0
LAYER
5
50
100
AcDbSymbolTableRecord
100
AcDbLayerTableRecord
2
0
70
0
6
CONTINUOUS
0
ENDTAB
0
TABLE
2
STYLE
5
3
100
AcDbSymbolTable
70
1
0
STYLE
5
11
100
AcDbSymbolTableRecord
100
AcDbTextStyleTableRecord
2
STANDARD
70
0
0
ENDTAB
0
TABLE
2
VIEW
5
6
100
AcDbSymbolTable
70
0
0
ENDTAB
0
TABLE
2
UCS
5
7
100
AcDbSymbolTable
70
0
0
ENDTAB
0
TABLE
2
APPID
5
9
100
AcDbSymbolTable
70
2
0
APPID
5
12
100
AcDbSymbolTableRecord
100
AcDbRegAppTableRecord
2
ACAD
70
0
0
ENDTAB
0
TABLE
2
DIMSTYLE
5
A
100
AcDbSymbolTable
70
1
0
ENDTAB
0
TABLE
2
BLOCK_RECORD
5
1
100
AcDbSymbolTable
70
1
0
BLOCK_RECORD
5
1F
100
AcDbSymbolTableRecord
100
AcDbBlockTableRecord
2
*MODEL_SPACE
0
BLOCK_RECORD
5
1B
100
AcDbSymbolTableRecord
100
AcDbBlockTableRecord
2
*PAPER_SPACE
0
ENDTAB
0
ENDSEC
0
SECTION
2
BLOCKS
0
BLOCK
5
20
100
AcDbEntity
100
AcDbBlockBegin
2
*MODEL_SPACE
0
ENDBLK
5
21
100
AcDbEntity
100
AcDbBlockEnd
0
BLOCK
5
1C
100
AcDbEntity
100
AcDbBlockBegin
2
*PAPER_SPACE
0
ENDBLK
5
1D
100
AcDbEntity
100
AcDbBlockEnd
0
ENDSEC
0
SECTION
2
ENTITIES
0
LWPOLYLINE
5
100
100
AcDbEntity
8
0
100
AcDbPolyline
90
7
70
1
43
0.0
10
-19.449506126654445
20
-65.994869952380952
42
0.40032882644878848
10
-20.448371696340303
20
-65.042489000000003
10
-33.306753999999998
20
-65.042489000000003
10
-33.306753999999998
20
-51.04248900000001
10
-19.306754000000002
20
-51.04248900000001
10
-19.306754000000002
20
-63.842950002981844
42
0.40808953516873547
10
-18.327706380952382
20
-64.842730477752397
42
-2.3017655761073379
0
LWPOLYLINE
5
101
100
AcDbEntity
8
0
100
AcDbPolyline
90
8
70
1
43
0.0
10
20.721246000000001
20
-68.042302325036303
42
0.41031357420968867
10
19.734579333333333
20
-67.042391217876158
42
-2.39163309943847
10
20.849246000000001
20
-65.942488999999995
10
20.849246000000001
20
-66.016489000000007
42
0.41421356237309243
10
21.849246000000001
20
-67.016489000000007
10
34.721246000000001
20
-67.016489000000007
10
34.721246000000001
20
-81.016489000000007
10
20.721246000000001
20
-81.016489000000007
0
CIRCLE
5
102
100
AcDbEntity
8
0
100
AcDbCircle
10
-19.995000000000005
20
-48.765000000000001
30
0
40
1.1499999999999999
210
0
220
-0
230
1
0
CIRCLE
5
103
100
AcDbEntity
8
0
100
AcDbCircle
10
0.69924600000000003
20
-46.892488999999998
30
0
40
1.1000000000000001
210
0
220
-0
230
1
0
LWPOLYLINE
5
104
100
AcDbEntity
8
0
100
AcDbPolyline
90
4
70
1
43
0.0
10
-15.292754000000002
20
-62.542489000000003
10
-15.292754000000002
20
-48.54248900000001
10
-1.2927540000000004
20
-48.54248900000001
10
-1.2927540000000002
20
-62.542489000000003
0
LWPOLYLINE
5
105
100
AcDbEntity
8
0
100
AcDbPolyline
90
4
70
1
43
0.0
10
-33.306753999999998
20
-82.032488999999998
10
-33.306753999999998
20
-68.032488999999998
10
-19.306754000000002
20
-68.032488999999998
10
-19.306754000000002
20
-82.032488999999998
0
LWPOLYLINE
5
106
100
AcDbEntity
8
0
100
AcDbPolyline
90
4
70
1
43
0.0
10
-15.292754000000002
20
-79.492489000000006
10
-15.292754000000002
20
-65.492489000000006
10
-1.2927540000000004
20
-65.492489000000006
10
-1.2927540000000002
20
-79.492489000000006
0
CIRCLE
5
107
100
AcDbEntity
8
0
100
AcDbCircle
10
0.69924600000000003
20
-84.992489000000006
30
0
40
1.1000000000000001
210
0
220
-0
230
1
0
LWPOLYLINE
5
108
100
AcDbEntity
8
0
100
AcDbPolyline
90
4
70
1
43
0.0
10
2.695246
20
-57.042489000000003
10
2.695246
20
-43.042489000000003
10
16.695246000000001
20
-43.042489000000003
10
16.695246000000001
20
-57.042489000000003
0
LWPOLYLINE
5
109
100
AcDbEntity
8
0
100
AcDbPolyline
90
4
70
1
43
0.0
10
20.721246000000001
20
-64.042489000000003
10
20.721246000000001
20
-50.042489000000003
10
34.721246000000001
20
-50.042489000000003
10
34.721246000000001
20
-64.042489000000003
0
CIRCLE
5
110
100
AcDbEntity
8
0
100
AcDbCircle
10
40.402836999999998
20
-58.762141999999997
30
0
40
1.1499999999999999
210
0
220
-0
230
1
0
LWPOLYLINE
5
111
100
AcDbEntity
8
0
100
AcDbPolyline
90
4
70
1
43
0.0
10
2.695246
20
-74.158489000000003
10
2.695246
20
-60.15848900000001
10
16.695246000000001
20
-60.15848900000001
10
16.695246000000001
20
-74.158489000000003
0
LWPOLYLINE
5
112
100
AcDbEntity
8
0
100
AcDbPolyline
90
4
70
1
43
0.0
10
2.695246
20
-91.176489000000004
10
2.695246
20
-77.176489000000004
10
16.695246000000001
20
-77.176489000000004
10
16.695246000000001
20
-91.176489000000004
0
LWPOLYLINE
5
113
100
AcDbEntity
8
0
100
AcDbPolyline
90
4
70
1
43
0.0
10
38.739246000000009
20
-76.042489000000003
10
38.739246000000009
20
-62.042489000000003
10
52.739246000000009
20
-62.042489000000003
10
52.739246000000009
20
-76.042489000000003
0
LWPOLYLINE
5
114
100
AcDbEntity
8
0
100
AcDbPolyline
90
4
70
1
43
0.0
10
-33.306753999999998
20
-99.050488999999999
10
-33.306753999999998
20
-85.050488999999999
10
-19.306754000000002
20
-85.050488999999999
10
-19.306754000000002
20
-99.050488999999999
0
LWPOLYLINE
5
115
100
AcDbEntity
8
0
100
AcDbPolyline
90
4
70
1
43
0.0
10
-15.292754000000002
20
-96.510489000000007
10
-15.292754000000002
20
-82.510489000000007
10
-1.2927540000000004
20
-82.510489000000007
10
-1.2927540000000002
20
-96.510489000000007
0
CIRCLE
5
116
100
AcDbEntity
8
0
100
AcDbCircle
10
-27.367754000000005
20
-112.985489
30
0
40
1.1499999999999999
210
0
220
-0
230
1
0
LWPOLYLINE
5
117
100
AcDbEntity
8
0
100
AcDbPolyline
90
4
70
1
43
0.0
10
-46.336931999999997
20
-115.18031100000002
10
-34.212575999999999
20
-108.180311
10
-27.212575999999999
20
-120.30466699999999
10
-39.336931999999997
20
-127.30466700000001
0
LWPOLYLINE
5
118
100
AcDbEntity
8
0
100
AcDbPolyline
90
4
70
1
43
0.0
10
-26.787968000000003
20
-104.792742
10
-13.265007000000002
20
-101.16927500000001
10
-9.6415400000000027
20
-114.69223599999999
10
-23.164501000000005
20
-118.31570300000001
0
LWPOLYLINE
5
119
100
AcDbEntity
8
0
100
AcDbPolyline
90
4
70
1
43
0.0
10
20.721246000000001
20
-98.034488999999994
10
20.721246000000001
20
-84.034488999999994
10
34.721246000000001
20
-84.034488999999994
10
34.721246000000001
20
-98.034488999999994
0
CIRCLE
5
120
100
AcDbEntity
8
0
100
AcDbCircle
10
36.725000000000001
20
-85.924999999999997
30
0
40
1.1499999999999999
210
0
220
-0
230
1
0
LWPOLYLINE
5
121
100
AcDbEntity
8
0
100
AcDbPolyline
90
4
70
1
43
0.0
10
38.739246000000009
20
-93.042489000000018
10
38.739246000000009
20
-79.042489000000003
10
52.739246000000009
20
-79.042489000000003
10
52.739246000000009
20
-93.042489000000018
0
LWPOLYLINE
5
122
100
AcDbEntity
8
0
100
AcDbPolyline
90
4
70
1
43
0.0
10
38.739246000000009
20
-110.042489
10
38.739246000000009
20
-96.042489000000018
10
52.739246000000009
20
-96.042489000000018
10
52.739246000000009
20
-110.042489
0
LWPOLYLINE
5
123
100
AcDbEntity
8
0
100
AcDbPolyline
90
118
70
1
43
0.0
10
9.2549209999999995
20
-41.18806
10
7.6208570000000009
20
-41.168627999999998
10
3.4194689999999999
20
-41.163167999999999
10
1.0227730000000002
20
-41.382846000000001
10
-1.369918
20
-41.642542000000006
10
-3.7579349999999998
20
-41.942183
10
-6.1406109999999998
20
-42.281686000000001
10
-8.5172819999999998
20
-42.660955000000001
10
-10.887283999999999
20
-43.079886000000009
10
-13.249954000000002
20
-43.538360000000004
10
-15.604634000000001
20
-44.036251
10
-17.950665000000001
20
-44.573418000000004
10
-20.287392000000001
20
-45.149712000000008
10
-22.614163000000001
20
-45.764972
10
-24.930329
20
-46.419027
10
-27.235242
20
-47.111691999999998
10
-29.528259000000002
20
-47.842776000000001
10
-31.808738999999999
20
-48.612074000000007
10
-34.076044000000003
20
-49.419378000000009
10
-34.221331999999997
20
-49.507979000000006
10
-34.342906999999997
20
-49.627049999999997
10
-34.434511999999998
20
-49.770463000000007
10
-34.491432000000003
20
-49.930833999999997
10
-34.510798999999999
20
-50.099908000000006
10
-34.510798999999999
20
-106.87
10
-48.000000000000007
20
-114.65000000000002
10
-40.958753999999999
20
-127.11175400000002
10
-40.790919000000009
20
-127.33912400000001
10
-40.592224999999999
20
-127.54008900000001
10
-40.366776999999999
20
-127.710498
10
-40.119230999999999
20
-127.84683200000002
10
-39.854698999999997
20
-127.94627400000002
10
-39.578643999999997
20
-128.00677099999999
10
-39.296768999999998
20
-128.02707300000003
10
-39.014893999999998
20
-128.00676200000001
10
-38.738841000000001
20
-127.94625600000002
10
-38.474311999999998
20
-127.846805
10
-38.226754
20
-127.710489
10
-36.667459000000008
20
-126.79921200000001
10
-35.089433999999997
20
-125.92077000000002
10
-33.493369000000001
20
-125.075547
10
-31.879964000000001
20
-124.263913
10
-30.249926000000002
20
-123.48622500000002
10
-28.603968000000002
20
-122.74282200000002
10
-26.942812000000004
20
-122.03403100000001
10
-25.267185000000005
20
-121.36016100000001
10
-23.577822000000005
20
-120.721509
10
-21.875461999999999
20
-120.11835400000001
10
-20.160851999999998
20
-119.55096
10
-18.434742
20
-119.01957600000001
10
-16.697887999999999
20
-118.524435
10
-13.136678000000002
20
-117.76647500000001
10
-9.5671740000000014
20
-117.048588
10
-5.989827
20
-116.370863
10
-2.4050899999999995
20
-115.733386
10
1.1865860000000004
20
-115.13623800000002
10
4.7847460000000002
20
-114.57949400000001
10
8.3889370000000003
20
-114.06322500000002
10
11.998701000000001
20
-113.58749500000002
10
15.613585
20
-113.152366
10
19.233131
20
-112.757891
10
22.856881000000001
20
-112.40412000000001
10
26.484379000000004
20
-112.09110000000001
10
30.115165000000005
20
-111.81886800000001
10
33.748781999999999
20
-111.587459
10
37.384770000000003
20
-111.39690299999999
10
41.022670000000005
20
-111.24722300000002
10
44.662022999999998
20
-111.13843900000001
10
48.302368000000008
20
-111.07056300000002
10
51.943246000000009
20
-111.04360800000002
10
52.218418
20
-111.032758
10
52.489442000000004
20
-110.98393700000001
10
52.751103000000008
20
-110.89808400000001
10
52.998367000000002
20
-110.77685000000001
10
53.22647700000001
20
-110.622568
10
53.431044999999997
20
-110.43820600000001
10
53.608134999999997
20
-110.22731100000001
10
53.754339000000009
20
-109.99394100000002
10
53.86684600000001
20
-109.742586
10
53.943489000000007
20
-109.47808000000002
10
53.98275300000001
20
-109.205511
10
53.967246000000003
20
-92.304489000000004
10
53.967246000000003
20
-73.508488999999997
10
54.021191000000002
20
-59.939191000000001
10
53.874296000000008
20
-59.548111000000006
10
53.688019000000004
20
-59.174183000000006
10
53.464330000000004
20
-58.821359999999999
10
53.205594000000005
20
-58.493371000000003
10
52.914545000000004
20
-58.193684000000005
10
52.594245999999998
20
-57.925488999999999
10
51.345863999999999
20
-56.870934000000005
10
50.072763000000009
20
-55.846356999999998
10
48.775663000000009
20
-54.852338000000003
10
47.455296000000004
20
-53.88943900000001
10
46.112409999999997
20
-52.958202999999997
10
44.747763000000006
20
-52.059157999999996
10
43.362127000000001
20
-51.192811000000006
10
41.956285000000008
20
-50.359653000000009
10
40.53103200000001
20
-49.560155000000002
10
39.087173999999997
20
-48.794767999999998
10
37.625526999999998
20
-48.063925000000005
10
36.146917000000002
20
-47.36803900000001
10
34.652180999999999
20
-46.707504
10
33.142161999999999
20
-46.082692999999999
10
31.617716000000001
20
-45.493960000000008
10
30.079704
20
-44.941637000000007
10
28.528994000000001
20
-44.426036000000011
10
26.966464999999999
20
-43.947448999999999
10
25.392999
20
-43.506146000000001
10
23.809485000000002
20
-43.102378000000002
10
22.216819999999998
20
-42.736372000000003
10
20.615903000000003
20
-42.408334000000004
10
19.007639000000005
20
-42.118451999999998
10
17.392938999999998
20
-41.866888000000003
10
15.772713
20
-41.653784000000009
10
14.147879000000001
20
-41.479261999999999
10
12.519355000000001
20
-41.343420000000002
10
10.888062000000001
20
-41.246333999999997
0
ENDSEC
0
SECTION
2
OBJECTS
0
DICTIONARY
5
C
100
AcDbDictionary
3
ACAD_GROUP
350
D
3
ACAD_MLINESTYLE
350
17
0
DICTIONARY
5
D
100
AcDbDictionary
0
DICTIONARY
5
1A
330
C
100
AcDbDictionary
0
DICTIONARY
5
17
100
AcDbDictionary
0
ENDSEC
0
EOF
