G04 #@! TF.GenerationSoftware,KiCad,Pcbnew,(7.0.0-0)*
G04 #@! TF.CreationDate,2023-04-28T12:14:34+03:00*
G04 #@! TF.ProjectId,chococorne,63686f63-6f63-46f7-926e-652e6b696361,2.1*
G04 #@! TF.SameCoordinates,Original*
G04 #@! TF.FileFunction,Copper,L1,Top*
G04 #@! TF.FilePolarity,Positive*
%FSLAX46Y46*%
G04 Gerber Fmt 4.6, Leading zero omitted, Abs format (unit mm)*
G04 Created by KiCad (PCBNEW (7.0.0-0)) date 2023-04-28 12:14:34*
%MOMM*%
%LPD*%
G01*
G04 APERTURE LIST*
G04 #@! TA.AperFunction,ComponentPad*
%ADD10C,2.032000*%
G04 #@! TD*
G04 #@! TA.AperFunction,ComponentPad*
%ADD11C,4.000000*%
G04 #@! TD*
G04 #@! TA.AperFunction,ComponentPad*
%ADD12C,2.000000*%
G04 #@! TD*
G04 #@! TA.AperFunction,ComponentPad*
%ADD13O,1.397000X1.778000*%
G04 #@! TD*
G04 #@! TA.AperFunction,ComponentPad*
%ADD14C,1.524000*%
G04 #@! TD*
G04 #@! TA.AperFunction,ComponentPad*
%ADD15O,2.500000X1.700000*%
G04 #@! TD*
G04 #@! TA.AperFunction,ViaPad*
%ADD16C,0.600000*%
G04 #@! TD*
G04 #@! TA.AperFunction,Conductor*
%ADD17C,0.250000*%
G04 #@! TD*
G04 APERTURE END LIST*
D10*
X202712500Y-111620000D03*
X207712500Y-113720000D03*
X232812500Y-103455000D03*
X227812500Y-101355000D03*
X181135468Y-114411038D03*
X186508617Y-115145387D03*
X250812500Y-93010000D03*
X245812500Y-90910000D03*
D11*
X218902500Y-109180000D03*
X259852500Y-95820000D03*
X259852500Y-78680000D03*
D12*
X150692500Y-92210000D03*
X150692500Y-98710000D03*
D11*
X169582500Y-68830000D03*
X223722000Y-69700000D03*
D10*
X167172050Y-120370000D03*
X167853397Y-125750127D03*
X232812500Y-69450000D03*
X227812500Y-67350000D03*
X178812500Y-71830000D03*
X173812500Y-69730000D03*
X196812500Y-86450000D03*
X191812500Y-84350000D03*
X214812500Y-67090000D03*
X209812500Y-64990000D03*
X178812500Y-105830000D03*
X173812500Y-103730000D03*
X268812500Y-93010000D03*
X263812500Y-90910000D03*
D13*
X162077499Y-93969999D03*
X159537499Y-93969999D03*
X156997499Y-93969999D03*
X154457499Y-93969999D03*
D10*
X214812500Y-101080000D03*
X209812500Y-98980000D03*
D14*
X150648900Y-60962000D03*
X150648900Y-63502000D03*
X150648900Y-66042000D03*
X150648900Y-68582000D03*
X150648900Y-71122000D03*
X150648900Y-73662000D03*
X150648900Y-76202000D03*
X150648900Y-78742000D03*
X150648900Y-81282000D03*
X150648900Y-83822000D03*
X150648900Y-86362000D03*
X150648900Y-88902000D03*
X165868900Y-88902000D03*
X165868900Y-86362000D03*
X165868900Y-83822000D03*
X165868900Y-81282000D03*
X165868900Y-78742000D03*
X165868900Y-76202000D03*
X165868900Y-73662000D03*
X165868900Y-71122000D03*
X165868900Y-68582000D03*
X165868900Y-66042000D03*
X165868900Y-63502000D03*
X165868900Y-60962000D03*
D10*
X178812500Y-88830000D03*
X173812500Y-86730000D03*
X268812500Y-110030000D03*
X263812500Y-107930000D03*
X196812500Y-69450000D03*
X191812500Y-67350000D03*
X250812500Y-76010000D03*
X245812500Y-73910000D03*
X209812500Y-81980000D03*
X214812500Y-84080000D03*
X268812500Y-76010000D03*
X263812500Y-73910000D03*
D15*
X159062499Y-102599999D03*
X155062499Y-102599999D03*
X152062499Y-102599999D03*
X160562499Y-106799999D03*
D10*
X196812500Y-103455000D03*
X191812500Y-101355000D03*
X250812500Y-110015000D03*
X245812500Y-107915000D03*
D11*
X169582500Y-113730000D03*
D10*
X232812500Y-86450000D03*
X227812500Y-84350000D03*
D16*
X258780000Y-85580990D03*
X225870000Y-65000990D03*
X273880000Y-90890990D03*
X275920000Y-106410990D03*
X167210000Y-99960990D03*
X275580000Y-71960990D03*
X173000000Y-112400990D03*
X262000000Y-62970990D03*
X245160000Y-64170990D03*
X208470000Y-106200990D03*
X177010000Y-118050990D03*
X161360000Y-117300990D03*
X220650000Y-98240990D03*
X201180000Y-100210990D03*
X184020000Y-102260990D03*
X195530000Y-115670990D03*
X220650000Y-80610990D03*
X202130000Y-82860990D03*
X184770000Y-85030990D03*
X256660000Y-106950990D03*
X238960000Y-100010990D03*
X174160000Y-91530990D03*
X238820000Y-66450990D03*
X171450000Y-95240990D03*
X206580000Y-97560990D03*
X221260000Y-63120990D03*
X203290000Y-66250990D03*
X184230000Y-68560990D03*
X256730000Y-90340990D03*
X239030000Y-82990990D03*
X228913000Y-79770990D03*
X257340000Y-73460990D03*
X216470000Y-86300990D03*
X198900000Y-88590990D03*
X258000000Y-105880990D03*
X230460000Y-99570990D03*
X189870000Y-95410990D03*
X208870000Y-86230990D03*
X244080000Y-99780990D03*
X227950000Y-95550990D03*
X177530000Y-85370990D03*
X189360000Y-80350990D03*
X173370000Y-80630990D03*
X244370000Y-83290990D03*
X231600000Y-83500990D03*
X216620000Y-69590990D03*
X208150000Y-69450990D03*
X230820000Y-65860990D03*
X199120000Y-71960990D03*
D17*
X200209951Y-87950990D02*
X182709010Y-87950990D01*
X174377106Y-90430000D02*
X171450000Y-93357106D01*
X182709010Y-87950990D02*
X180230000Y-90430000D01*
X206580000Y-94321039D02*
X200209951Y-87950990D01*
X180230000Y-90430000D02*
X174377106Y-90430000D01*
X171450000Y-93357106D02*
X171450000Y-95240990D01*
X206580000Y-97560990D02*
X206580000Y-94321039D01*
X256160990Y-90910000D02*
X256730000Y-90340990D01*
X245812500Y-90910000D02*
X256160990Y-90910000D01*
X237670990Y-84350000D02*
X239030000Y-82990990D01*
X227812500Y-84350000D02*
X237670990Y-84350000D01*
X219280990Y-81980000D02*
X220650000Y-80610990D01*
X209812500Y-81980000D02*
X219280990Y-81980000D01*
X191812500Y-84350000D02*
X200640990Y-84350000D01*
X200640990Y-84350000D02*
X202130000Y-82860990D01*
X173812500Y-86730000D02*
X183070990Y-86730000D01*
X183070990Y-86730000D02*
X184770000Y-85030990D01*
X245812500Y-107915000D02*
X255695990Y-107915000D01*
X255695990Y-107915000D02*
X256660000Y-106950990D01*
X227812500Y-101355000D02*
X237615990Y-101355000D01*
X237615990Y-101355000D02*
X238960000Y-100010990D01*
X219910990Y-98980000D02*
X220650000Y-98240990D01*
X209812500Y-98980000D02*
X219910990Y-98980000D01*
X191812500Y-101355000D02*
X200035990Y-101355000D01*
X200035990Y-101355000D02*
X201180000Y-100210990D01*
X173812500Y-103730000D02*
X182550990Y-103730000D01*
X182550990Y-103730000D02*
X184020000Y-102260990D01*
X237920990Y-67350000D02*
X238820000Y-66450990D01*
X227812500Y-67350000D02*
X237920990Y-67350000D01*
X209812500Y-64990000D02*
X219390990Y-64990000D01*
X219390990Y-64990000D02*
X221260000Y-63120990D01*
X191812500Y-67350000D02*
X202190990Y-67350000D01*
X202190990Y-67350000D02*
X203290000Y-66250990D01*
X173812500Y-69730000D02*
X183060990Y-69730000D01*
X183060990Y-69730000D02*
X184230000Y-68560990D01*
X176079454Y-59425000D02*
X176616732Y-58887722D01*
X195849454Y-55275000D02*
X197170000Y-55275000D01*
X153126757Y-70547747D02*
X161213514Y-62460990D01*
X150648900Y-71122000D02*
X152552504Y-71122000D01*
X236575546Y-55275000D02*
X242871536Y-61570990D01*
X152552504Y-71122000D02*
X153126757Y-70547747D01*
X234590000Y-55275000D02*
X236575546Y-55275000D01*
X214035850Y-53365000D02*
X219984010Y-53365000D01*
X176265850Y-59875000D02*
X178035850Y-58105000D01*
X193655850Y-58105000D02*
X196035850Y-55725000D01*
X196035850Y-55725000D02*
X211675850Y-55725000D01*
X164435900Y-59875000D02*
X176265850Y-59875000D01*
X150648900Y-73662000D02*
X164435900Y-59875000D01*
X178035850Y-58105000D02*
X193655850Y-58105000D01*
X244835140Y-64170990D02*
X245160000Y-64170990D01*
X222344010Y-55725000D02*
X236389150Y-55725000D01*
X236389150Y-55725000D02*
X244835140Y-64170990D01*
X211675850Y-55725000D02*
X214035850Y-53365000D01*
X219984010Y-53365000D02*
X222344010Y-55725000D01*
X165180000Y-106648198D02*
X165180000Y-92771802D01*
X152010000Y-79601802D02*
X152010000Y-77563100D01*
X165180000Y-92771802D02*
X152010000Y-79601802D01*
X152010000Y-77563100D02*
X150648900Y-76202000D01*
X208470000Y-106200990D02*
X204820000Y-109850990D01*
X204820000Y-109850990D02*
X168382792Y-109850990D01*
X168382792Y-109850990D02*
X165180000Y-106648198D01*
X207712500Y-113720000D02*
X197480990Y-113720000D01*
X197480990Y-113720000D02*
X195530000Y-115670990D01*
X182297580Y-115145387D02*
X179391977Y-118050990D01*
X179391977Y-118050990D02*
X177010000Y-118050990D01*
X186508617Y-115145387D02*
X182297580Y-115145387D01*
X167853397Y-125750127D02*
X167853397Y-123794387D01*
X173000000Y-112400990D02*
X173000000Y-120603524D01*
X173000000Y-120603524D02*
X167853397Y-125750127D01*
X167853397Y-123794387D02*
X161360000Y-117300990D01*
X165868900Y-66042000D02*
X165868900Y-68582000D01*
X149367500Y-69863400D02*
X149367500Y-92758490D01*
X158323500Y-95184000D02*
X159537500Y-93970000D01*
X151793010Y-95184000D02*
X158323500Y-95184000D01*
X149367500Y-92758490D02*
X151793010Y-95184000D01*
X159537500Y-93970000D02*
X159537500Y-102125000D01*
X150648900Y-68582000D02*
X149367500Y-69863400D01*
X159537500Y-102125000D02*
X159062500Y-102600000D01*
X246410000Y-61570990D02*
X260600000Y-61570990D01*
X193861732Y-57262722D02*
X195849454Y-55275000D01*
X222530406Y-55275000D02*
X224290000Y-55275000D01*
X234174010Y-55275000D02*
X234590000Y-55275000D01*
X242871536Y-61570990D02*
X246410000Y-61570990D01*
X213849454Y-52915000D02*
X216540000Y-52915000D01*
X193469454Y-57655000D02*
X193861732Y-57262722D01*
X197170000Y-55275000D02*
X211489454Y-55275000D01*
X176616732Y-58887722D02*
X177849454Y-57655000D01*
X224290000Y-55275000D02*
X234174010Y-55275000D01*
X164249504Y-59425000D02*
X165530000Y-59425000D01*
X211976732Y-54787722D02*
X213849454Y-52915000D01*
X165530000Y-59425000D02*
X176079454Y-59425000D01*
X220170406Y-52915000D02*
X221418198Y-54162792D01*
X161213514Y-62460990D02*
X161591757Y-62082747D01*
X216540000Y-52915000D02*
X220170406Y-52915000D01*
X179400000Y-57655000D02*
X193469454Y-57655000D01*
X211489454Y-55275000D02*
X211976732Y-54787722D01*
X177849454Y-57655000D02*
X179400000Y-57655000D01*
X260600000Y-61570990D02*
X262000000Y-62970990D01*
X221418198Y-54162792D02*
X222530406Y-55275000D01*
X161591757Y-62082747D02*
X164249504Y-59425000D01*
X163816000Y-100774990D02*
X163800000Y-100790990D01*
X154321010Y-83822000D02*
X163816000Y-93316990D01*
X163816000Y-93316990D02*
X163816000Y-100774990D01*
X163800000Y-118070990D02*
X165070000Y-119340990D01*
X150648900Y-83822000D02*
X154321010Y-83822000D01*
X165070000Y-119340990D02*
X166143040Y-119340990D01*
X166143040Y-119340990D02*
X167172050Y-120370000D01*
X163800000Y-100790990D02*
X163800000Y-118070990D01*
X167210000Y-64843100D02*
X167210000Y-99960990D01*
X165868900Y-63502000D02*
X167210000Y-64843100D01*
X263812500Y-73910000D02*
X273630990Y-73910000D01*
X273630990Y-73910000D02*
X275580000Y-71960990D01*
X263812500Y-90910000D02*
X273860990Y-90910000D01*
X273860990Y-90910000D02*
X273880000Y-90890990D01*
X263812500Y-107930000D02*
X274400990Y-107930000D01*
X274400990Y-107930000D02*
X275920000Y-106410990D01*
X164730000Y-106834594D02*
X168196396Y-110300990D01*
X202712500Y-111620000D02*
X204272500Y-111620000D01*
X151480000Y-80280990D02*
X152052792Y-80280990D01*
X164730000Y-92958198D02*
X164730000Y-106834594D01*
X150648900Y-79449890D02*
X151480000Y-80280990D01*
X168196396Y-110300990D02*
X177661816Y-110300990D01*
X177661816Y-110300990D02*
X178980826Y-111620000D01*
X204272500Y-111620000D02*
X214812500Y-101080000D01*
X152052792Y-80280990D02*
X164730000Y-92958198D01*
X150648900Y-78742000D02*
X150648900Y-79449890D01*
X178980826Y-111620000D02*
X202712500Y-111620000D01*
X150648900Y-81282000D02*
X152417406Y-81282000D01*
X164280000Y-93144594D02*
X164280000Y-106960990D01*
X168010000Y-110750990D02*
X177475420Y-110750990D01*
X164250000Y-106990990D02*
X168010000Y-110750990D01*
X152417406Y-81282000D02*
X164280000Y-93144594D01*
X164280000Y-106960990D02*
X164250000Y-106990990D01*
X177475420Y-110750990D02*
X181135468Y-114411038D01*
X177530000Y-84790990D02*
X173370000Y-80630990D01*
X177530000Y-85370990D02*
X177530000Y-84790990D01*
X231600000Y-83500990D02*
X228913000Y-80813990D01*
X252238489Y-85580990D02*
X249948489Y-83290990D01*
X199120000Y-71960990D02*
X196799860Y-71960990D01*
X216620000Y-69590990D02*
X208290000Y-69590990D01*
X249948489Y-83290990D02*
X244370000Y-83290990D01*
X258780000Y-85580990D02*
X252238489Y-85580990D01*
X256890990Y-73910000D02*
X257340000Y-73460990D01*
X245812500Y-73910000D02*
X256890990Y-73910000D01*
X258000000Y-105880990D02*
X256344806Y-105880990D01*
X245370000Y-101070990D02*
X244080000Y-99780990D01*
X246660000Y-101070990D02*
X245370000Y-101070990D01*
X185990000Y-91530990D02*
X189870000Y-95410990D01*
X216470000Y-86300990D02*
X208940000Y-86300990D01*
X256344806Y-105880990D02*
X251534806Y-101070990D01*
X196690000Y-88590990D02*
X189870000Y-95410990D01*
X198900000Y-88590990D02*
X196690000Y-88590990D01*
X230460000Y-98060990D02*
X227950000Y-95550990D01*
X230460000Y-99570990D02*
X230460000Y-98060990D01*
X251534806Y-101070990D02*
X246660000Y-101070990D01*
X208940000Y-86300990D02*
X208870000Y-86230990D01*
X174160000Y-91530990D02*
X185990000Y-91530990D01*
X230820000Y-65860990D02*
X226730000Y-65860990D01*
X226730000Y-65860990D02*
X225870000Y-65000990D01*
X196799860Y-71960990D02*
X189360000Y-79400850D01*
X208290000Y-69590990D02*
X208150000Y-69450990D01*
X228913000Y-80813990D02*
X228913000Y-79770990D01*
X189360000Y-79400850D02*
X189360000Y-80350990D01*
M02*
