M48
; DRILL file {KiCad (7.0.0-0)} date Friday, 28 April 2023 at 12:14:36
; FORMAT={-:-/ absolute / inch / decimal}
; #@! TF.CreationDate,2023-04-28T12:14:36+03:00
; #@! TF.GenerationSoftware,Kicad,Pcbnew,(7.0.0-0)
; #@! TF.FileFunction,NonPlated,1,2,NPTH
FMAT,2
INCH
; #@! TA.AperFunction,NonPlated,NPTH,ComponentDrill
T1C0.0472
; #@! TA.AperFunction,NonPlated,NPTH,ComponentDrill
T2C0.0670
; #@! TA.AperFunction,NonPlated,NPTH,ComponentDrill
T3C0.1181
; #@! TA.AperFunction,NonPlated,NPTH,ComponentDrill
T4C0.1260
; #@! TA.AperFunction,NonPlated,NPTH,ComponentDrill
T5C0.1350
%
G90
G05
T1
X5.9158Y-4.122
X6.1914Y-4.122
T2
X6.2721Y-4.6676
X6.4887Y-5.0426
X6.8233Y-2.5957
X6.8233Y-3.265
X6.8233Y-3.9343
X6.9823Y-4.7848
X7.2564Y-2.5957
X7.2564Y-3.265
X7.2564Y-3.9343
X7.4006Y-4.6727
X7.532Y-2.502
X7.532Y-3.1713
X7.532Y-3.8407
X7.7643Y-4.6268
X7.9651Y-2.502
X7.9651Y-3.1713
X7.9651Y-3.8407
X8.1973Y-4.6268
X8.2406Y-2.4091
X8.2406Y-3.078
X8.2406Y-3.7472
X8.6737Y-2.4091
X8.6737Y-3.078
X8.6737Y-3.7472
X8.9493Y-2.502
X8.9493Y-3.1713
X8.9493Y-3.8407
X9.3824Y-2.502
X9.3824Y-3.1713
X9.3824Y-3.8407
X9.658Y-2.7602
X9.658Y-3.4295
X9.658Y-4.099
X10.091Y-2.7602
X10.091Y-3.4295
X10.091Y-4.099
X10.3666Y-2.7602
X10.3666Y-3.4295
X10.3666Y-4.0996
X10.7997Y-2.7602
X10.7997Y-3.4295
X10.7997Y-4.0996
T3
X6.1541Y-4.7585
X6.1775Y-4.9722
X7.0395Y-4.9223
X7.0399Y-2.3614
X7.0399Y-3.0307
X7.0399Y-3.7
X7.2367Y-2.448
X7.2367Y-3.1173
X7.2367Y-3.7866
X7.2521Y-4.955
X7.7485Y-2.2677
X7.7485Y-2.937
X7.7485Y-3.6065
X7.784Y-4.7744
X7.9454Y-2.3543
X7.9454Y-3.0236
X7.9454Y-3.6931
X7.9808Y-4.861
X8.4572Y-2.1748
X8.4572Y-2.8437
X8.4572Y-3.513
X8.654Y-2.2614
X8.654Y-2.9303
X8.654Y-3.5996
X9.1658Y-2.2677
X9.1658Y-2.937
X9.1658Y-3.6065
X9.3627Y-2.3543
X9.3627Y-3.0236
X9.3627Y-3.6931
X9.8745Y-2.526
X9.8745Y-3.1953
X9.8745Y-3.8648
X10.0714Y-2.6126
X10.0714Y-3.2819
X10.0714Y-3.9514
X10.5832Y-2.526
X10.5832Y-3.1953
X10.5832Y-3.8654
X10.78Y-2.6126
X10.78Y-3.2819
X10.78Y-3.952
T4
X7.3897Y-2.8604
T5
X6.3804Y-4.8551
X7.0399Y-2.5957
X7.0399Y-3.265
X7.0399Y-3.9343
X7.1914Y-4.7287
X7.7485Y-2.502
X7.7485Y-3.1713
X7.7485Y-3.8407
X7.9808Y-4.6268
X8.4572Y-2.4091
X8.4572Y-3.078
X8.4572Y-3.7472
X9.1658Y-2.502
X9.1658Y-3.1713
X9.1658Y-3.8407
X9.8745Y-2.7602
X9.8745Y-3.4295
X9.8745Y-4.099
X10.5832Y-2.7602
X10.5832Y-3.4295
X10.5832Y-4.0996
T0
M30
