G04 #@! TF.GenerationSoftware,KiCad,Pcbnew,(7.0.0-0)*
G04 #@! TF.CreationDate,2023-04-28T12:14:34+03:00*
G04 #@! TF.ProjectId,chococorne,63686f63-6f63-46f7-926e-652e6b696361,2.1*
G04 #@! TF.SameCoordinates,Original*
G04 #@! TF.FileFunction,Soldermask,Bot*
G04 #@! TF.FilePolarity,Negative*
%FSLAX46Y46*%
G04 Gerber Fmt 4.6, Leading zero omitted, Abs format (unit mm)*
G04 Created by KiCad (PCBNEW (7.0.0-0)) date 2023-04-28 12:14:34*
%MOMM*%
%LPD*%
G01*
G04 APERTURE LIST*
G04 Aperture macros list*
%AMRoundRect*
0 Rectangle with rounded corners*
0 $1 Rounding radius*
0 $2 $3 $4 $5 $6 $7 $8 $9 X,Y pos of 4 corners*
0 Add a 4 corners polygon primitive as box body*
4,1,4,$2,$3,$4,$5,$6,$7,$8,$9,$2,$3,0*
0 Add four circle primitives for the rounded corners*
1,1,$1+$1,$2,$3*
1,1,$1+$1,$4,$5*
1,1,$1+$1,$6,$7*
1,1,$1+$1,$8,$9*
0 Add four rect primitives between the rounded corners*
20,1,$1+$1,$2,$3,$4,$5,0*
20,1,$1+$1,$4,$5,$6,$7,0*
20,1,$1+$1,$6,$7,$8,$9,0*
20,1,$1+$1,$8,$9,$2,$3,0*%
G04 Aperture macros list end*
%ADD10C,2.101800*%
%ADD11C,3.400000*%
%ADD12C,3.829000*%
%ADD13RoundRect,0.200000X1.300000X1.300000X-1.300000X1.300000X-1.300000X-1.300000X1.300000X-1.300000X0*%
%ADD14C,2.432000*%
%ADD15RoundRect,0.200000X-1.300000X-1.300000X1.300000X-1.300000X1.300000X1.300000X-1.300000X1.300000X0*%
%ADD16RoundRect,0.200000X0.919239X1.592168X-1.592168X0.919239X-0.919239X-1.592168X1.592168X-0.919239X0*%
%ADD17RoundRect,0.200000X-0.500000X0.700000X-0.500000X-0.700000X0.500000X-0.700000X0.500000X0.700000X0*%
%ADD18C,4.400000*%
%ADD19C,3.600000*%
%ADD20C,2.400000*%
%ADD21RoundRect,0.200000X1.775833X-0.475833X0.475833X1.775833X-1.775833X0.475833X-0.475833X-1.775833X0*%
%ADD22O,1.797000X2.178000*%
%ADD23C,1.924000*%
%ADD24O,2.900000X2.100000*%
%ADD25C,1.600000*%
G04 APERTURE END LIST*
D10*
X208212500Y-117520000D03*
D11*
X202712500Y-123470000D03*
D12*
X202712500Y-117520000D03*
D11*
X197712500Y-121270000D03*
D10*
X197212500Y-117520000D03*
D13*
X205987500Y-123470000D03*
D14*
X202712500Y-111620000D03*
X207712500Y-113720000D03*
D13*
X194437500Y-121270000D03*
D10*
X227312500Y-97555000D03*
D11*
X232812500Y-91605000D03*
D12*
X232812500Y-97555000D03*
D11*
X237812500Y-93805000D03*
D10*
X238312500Y-97555000D03*
D15*
X229537500Y-91605000D03*
D14*
X232812500Y-103455000D03*
X227812500Y-101355000D03*
D15*
X241087500Y-93805000D03*
D10*
X187975092Y-118686495D03*
D11*
X184202473Y-125857259D03*
D12*
X182662500Y-120110000D03*
D11*
X178803442Y-125026317D03*
D10*
X177349908Y-121533505D03*
D16*
X187365880Y-125009626D03*
D14*
X181135468Y-114411038D03*
X186508617Y-115145387D03*
D16*
X175640035Y-125873949D03*
D10*
X245312500Y-87110000D03*
D11*
X250812500Y-81160000D03*
D12*
X250812500Y-87110000D03*
D11*
X255812500Y-83360000D03*
D10*
X256312500Y-87110000D03*
D15*
X247537500Y-81160000D03*
D14*
X250812500Y-93010000D03*
X245812500Y-90910000D03*
D15*
X259087500Y-83360000D03*
D17*
X241740000Y-102925990D03*
X241740000Y-99375990D03*
X170070000Y-99075990D03*
X170070000Y-95525990D03*
D18*
X218902500Y-109180000D03*
D17*
X223840000Y-100095990D03*
X223840000Y-96545990D03*
D19*
X187697500Y-72655000D03*
D17*
X170070000Y-92635990D03*
X170070000Y-89085990D03*
X188960000Y-105035990D03*
X188960000Y-101485990D03*
X187720000Y-68865990D03*
X187720000Y-65315990D03*
X259820000Y-107765990D03*
X259820000Y-104215990D03*
X259820000Y-73515990D03*
X259820000Y-69965990D03*
D18*
X259852500Y-95820000D03*
D17*
X223650000Y-62705000D03*
X223650000Y-66255000D03*
X205810000Y-73265990D03*
X205810000Y-69715990D03*
X205810000Y-66795990D03*
X205810000Y-63245990D03*
D18*
X259852500Y-78680000D03*
D17*
X204630000Y-103025990D03*
X204630000Y-99475990D03*
X241740000Y-68635990D03*
X241740000Y-65085990D03*
X241740000Y-86865990D03*
X241740000Y-83315990D03*
D20*
X150692500Y-92210000D03*
X150692500Y-98710000D03*
D17*
X207070000Y-103045990D03*
X207070000Y-99495990D03*
X170070000Y-86265990D03*
X170070000Y-82715990D03*
D18*
X169582500Y-68830000D03*
X223722000Y-69700000D03*
D10*
X164812500Y-128083140D03*
D11*
X156909649Y-126295000D03*
D12*
X162062500Y-123320000D03*
D11*
X156314905Y-120864873D03*
D10*
X159312500Y-118556860D03*
D21*
X158547149Y-129131233D03*
D14*
X167172050Y-120370000D03*
X167853397Y-125750127D03*
D21*
X154677405Y-118028640D03*
D10*
X227312500Y-63550000D03*
D11*
X232812500Y-57600000D03*
D12*
X232812500Y-63550000D03*
D11*
X237812500Y-59800000D03*
D10*
X238312500Y-63550000D03*
D15*
X229537500Y-57600000D03*
D14*
X232812500Y-69450000D03*
X227812500Y-67350000D03*
D15*
X241087500Y-59800000D03*
D10*
X173312500Y-65930000D03*
D11*
X178812500Y-59980000D03*
D12*
X178812500Y-65930000D03*
D11*
X183812500Y-62180000D03*
D10*
X184312500Y-65930000D03*
D15*
X175537500Y-59980000D03*
D14*
X178812500Y-71830000D03*
X173812500Y-69730000D03*
D15*
X187087500Y-62180000D03*
D10*
X191312500Y-80550000D03*
D11*
X196812500Y-74600000D03*
D12*
X196812500Y-80550000D03*
D11*
X201812500Y-76800000D03*
D10*
X202312500Y-80550000D03*
D15*
X193537500Y-74600000D03*
D14*
X196812500Y-86450000D03*
X191812500Y-84350000D03*
D15*
X205087500Y-76800000D03*
D10*
X209312500Y-61190000D03*
D11*
X214812500Y-55240000D03*
D12*
X214812500Y-61190000D03*
D11*
X219812500Y-57440000D03*
D10*
X220312500Y-61190000D03*
D15*
X211537500Y-55240000D03*
D14*
X214812500Y-67090000D03*
X209812500Y-64990000D03*
D15*
X223087500Y-57440000D03*
D10*
X173312500Y-99930000D03*
D11*
X178812500Y-93980000D03*
D12*
X178812500Y-99930000D03*
D11*
X183812500Y-96180000D03*
D10*
X184312500Y-99930000D03*
D15*
X175537500Y-93980000D03*
D14*
X178812500Y-105830000D03*
X173812500Y-103730000D03*
D15*
X187087500Y-96180000D03*
D10*
X263312500Y-87110000D03*
D11*
X268812500Y-81160000D03*
D12*
X268812500Y-87110000D03*
D11*
X273812500Y-83360000D03*
D10*
X274312500Y-87110000D03*
D15*
X265537500Y-81160000D03*
D14*
X268812500Y-93010000D03*
X263812500Y-90910000D03*
D15*
X277087500Y-83360000D03*
D22*
X162077499Y-93969999D03*
X159537499Y-93969999D03*
X156997499Y-93969999D03*
X154457499Y-93969999D03*
D10*
X209312500Y-95180000D03*
D11*
X214812500Y-89230000D03*
D12*
X214812500Y-95180000D03*
D11*
X219812500Y-91430000D03*
D10*
X220312500Y-95180000D03*
D15*
X211537500Y-89230000D03*
D14*
X214812500Y-101080000D03*
X209812500Y-98980000D03*
D15*
X223087500Y-91430000D03*
D23*
X150648900Y-60962000D03*
X150648900Y-63502000D03*
X150648900Y-66042000D03*
X150648900Y-68582000D03*
X150648900Y-71122000D03*
X150648900Y-73662000D03*
X150648900Y-76202000D03*
X150648900Y-78742000D03*
X150648900Y-81282000D03*
X150648900Y-83822000D03*
X150648900Y-86362000D03*
X150648900Y-88902000D03*
X165868900Y-88902000D03*
X165868900Y-86362000D03*
X165868900Y-83822000D03*
X165868900Y-81282000D03*
X165868900Y-78742000D03*
X165868900Y-76202000D03*
X165868900Y-73662000D03*
X165868900Y-71122000D03*
X165868900Y-68582000D03*
X165868900Y-66042000D03*
X165868900Y-63502000D03*
X165868900Y-60962000D03*
D10*
X173312500Y-82930000D03*
D11*
X178812500Y-76980000D03*
D12*
X178812500Y-82930000D03*
D11*
X183812500Y-79180000D03*
D10*
X184312500Y-82930000D03*
D15*
X175537500Y-76980000D03*
D14*
X178812500Y-88830000D03*
X173812500Y-86730000D03*
D15*
X187087500Y-79180000D03*
D10*
X263312500Y-104130000D03*
D11*
X268812500Y-98180000D03*
D12*
X268812500Y-104130000D03*
D11*
X273812500Y-100380000D03*
D10*
X274312500Y-104130000D03*
D15*
X265537500Y-98180000D03*
D14*
X268812500Y-110030000D03*
X263812500Y-107930000D03*
D15*
X277087500Y-100380000D03*
D10*
X191312500Y-63550000D03*
D11*
X196812500Y-57600000D03*
D12*
X196812500Y-63550000D03*
D11*
X201812500Y-59800000D03*
D10*
X202312500Y-63550000D03*
D15*
X193537500Y-57600000D03*
D14*
X196812500Y-69450000D03*
X191812500Y-67350000D03*
D15*
X205087500Y-59800000D03*
D10*
X245312500Y-70110000D03*
D11*
X250812500Y-64160000D03*
D12*
X250812500Y-70110000D03*
D11*
X255812500Y-66360000D03*
D10*
X256312500Y-70110000D03*
D15*
X247537500Y-64160000D03*
D14*
X250812500Y-76010000D03*
X245812500Y-73910000D03*
D15*
X259087500Y-66360000D03*
X223087500Y-74430000D03*
D14*
X209812500Y-81980000D03*
X214812500Y-84080000D03*
D15*
X211537500Y-72230000D03*
D10*
X220312500Y-78180000D03*
D11*
X219812500Y-74430000D03*
D12*
X214812500Y-78180000D03*
D11*
X214812500Y-72230000D03*
D10*
X209312500Y-78180000D03*
X263312500Y-70110000D03*
D11*
X268812500Y-64160000D03*
D12*
X268812500Y-70110000D03*
D11*
X273812500Y-66360000D03*
D10*
X274312500Y-70110000D03*
D15*
X265537500Y-64160000D03*
D14*
X268812500Y-76010000D03*
X263812500Y-73910000D03*
D15*
X277087500Y-66360000D03*
D24*
X159062499Y-102599999D03*
X155062499Y-102599999D03*
X152062499Y-102599999D03*
X160562499Y-106799999D03*
D25*
X157262500Y-104700000D03*
X150262500Y-104700000D03*
D10*
X191312500Y-97555000D03*
D11*
X196812500Y-91605000D03*
D12*
X196812500Y-97555000D03*
D11*
X201812500Y-93805000D03*
D10*
X202312500Y-97555000D03*
D15*
X193537500Y-91605000D03*
D14*
X196812500Y-103455000D03*
X191812500Y-101355000D03*
D15*
X205087500Y-93805000D03*
D10*
X245312500Y-104115000D03*
D11*
X250812500Y-98165000D03*
D12*
X250812500Y-104115000D03*
D11*
X255812500Y-100365000D03*
D10*
X256312500Y-104115000D03*
D15*
X247537500Y-98165000D03*
D14*
X250812500Y-110015000D03*
X245812500Y-107915000D03*
D15*
X259087500Y-100365000D03*
D17*
X170070000Y-79395990D03*
X170070000Y-75845990D03*
D18*
X169582500Y-113730000D03*
D10*
X227312500Y-80550000D03*
D11*
X232812500Y-74600000D03*
D12*
X232812500Y-80550000D03*
D11*
X237812500Y-76800000D03*
D10*
X238312500Y-80550000D03*
D15*
X229537500Y-74600000D03*
D14*
X232812500Y-86450000D03*
X227812500Y-84350000D03*
D15*
X241087500Y-76800000D03*
D17*
X187700000Y-86065990D03*
X187700000Y-82515990D03*
X205810000Y-90625990D03*
X205810000Y-87075990D03*
X223840000Y-81585990D03*
X223840000Y-78035990D03*
X259820000Y-90855990D03*
X259820000Y-87305990D03*
M02*
