G04 #@! TF.GenerationSoftware,KiCad,Pcbnew,(7.0.0-0)*
G04 #@! TF.CreationDate,2023-04-28T12:14:34+03:00*
G04 #@! TF.ProjectId,chococorne,63686f63-6f63-46f7-926e-652e6b696361,2.1*
G04 #@! TF.SameCoordinates,Original*
G04 #@! TF.FileFunction,Soldermask,Top*
G04 #@! TF.FilePolarity,Negative*
%FSLAX46Y46*%
G04 Gerber Fmt 4.6, Leading zero omitted, Abs format (unit mm)*
G04 Created by KiCad (PCBNEW (7.0.0-0)) date 2023-04-28 12:14:34*
%MOMM*%
%LPD*%
G01*
G04 APERTURE LIST*
%ADD10C,2.101800*%
%ADD11C,3.400000*%
%ADD12C,3.829000*%
%ADD13C,2.432000*%
%ADD14C,4.400000*%
%ADD15C,3.600000*%
%ADD16C,1.600000*%
G04 APERTURE END LIST*
D10*
X208212500Y-117520000D03*
D11*
X202712500Y-123470000D03*
D12*
X202712500Y-117520000D03*
D11*
X197712500Y-121270000D03*
D10*
X197212500Y-117520000D03*
D13*
X202712500Y-111620000D03*
X207712500Y-113720000D03*
D10*
X227312500Y-97555000D03*
D11*
X232812500Y-91605000D03*
D12*
X232812500Y-97555000D03*
D11*
X237812500Y-93805000D03*
D10*
X238312500Y-97555000D03*
D13*
X232812500Y-103455000D03*
X227812500Y-101355000D03*
D10*
X187975092Y-118686495D03*
D11*
X184202473Y-125857259D03*
D12*
X182662500Y-120110000D03*
D11*
X178803442Y-125026317D03*
D10*
X177349908Y-121533505D03*
D13*
X181135468Y-114411038D03*
X186508617Y-115145387D03*
D10*
X245312500Y-87110000D03*
D11*
X250812500Y-81160000D03*
D12*
X250812500Y-87110000D03*
D11*
X255812500Y-83360000D03*
D10*
X256312500Y-87110000D03*
D13*
X250812500Y-93010000D03*
X245812500Y-90910000D03*
D14*
X218902500Y-109180000D03*
D15*
X187697500Y-72655000D03*
D14*
X259852500Y-95820000D03*
X259852500Y-78680000D03*
X169582500Y-68830000D03*
X223722000Y-69700000D03*
D10*
X164812500Y-128083140D03*
D11*
X156909649Y-126295000D03*
D12*
X162062500Y-123320000D03*
D11*
X156314905Y-120864873D03*
D10*
X159312500Y-118556860D03*
D13*
X167172050Y-120370000D03*
X167853397Y-125750127D03*
D10*
X227312500Y-63550000D03*
D11*
X232812500Y-57600000D03*
D12*
X232812500Y-63550000D03*
D11*
X237812500Y-59800000D03*
D10*
X238312500Y-63550000D03*
D13*
X232812500Y-69450000D03*
X227812500Y-67350000D03*
D10*
X173312500Y-65930000D03*
D11*
X178812500Y-59980000D03*
D12*
X178812500Y-65930000D03*
D11*
X183812500Y-62180000D03*
D10*
X184312500Y-65930000D03*
D13*
X178812500Y-71830000D03*
X173812500Y-69730000D03*
D10*
X191312500Y-80550000D03*
D11*
X196812500Y-74600000D03*
D12*
X196812500Y-80550000D03*
D11*
X201812500Y-76800000D03*
D10*
X202312500Y-80550000D03*
D13*
X196812500Y-86450000D03*
X191812500Y-84350000D03*
D10*
X209312500Y-61190000D03*
D11*
X214812500Y-55240000D03*
D12*
X214812500Y-61190000D03*
D11*
X219812500Y-57440000D03*
D10*
X220312500Y-61190000D03*
D13*
X214812500Y-67090000D03*
X209812500Y-64990000D03*
D10*
X173312500Y-99930000D03*
D11*
X178812500Y-93980000D03*
D12*
X178812500Y-99930000D03*
D11*
X183812500Y-96180000D03*
D10*
X184312500Y-99930000D03*
D13*
X178812500Y-105830000D03*
X173812500Y-103730000D03*
D10*
X263312500Y-87110000D03*
D11*
X268812500Y-81160000D03*
D12*
X268812500Y-87110000D03*
D11*
X273812500Y-83360000D03*
D10*
X274312500Y-87110000D03*
D13*
X268812500Y-93010000D03*
X263812500Y-90910000D03*
D10*
X209312500Y-95180000D03*
D11*
X214812500Y-89230000D03*
D12*
X214812500Y-95180000D03*
D11*
X219812500Y-91430000D03*
D10*
X220312500Y-95180000D03*
D13*
X214812500Y-101080000D03*
X209812500Y-98980000D03*
D10*
X173312500Y-82930000D03*
D11*
X178812500Y-76980000D03*
D12*
X178812500Y-82930000D03*
D11*
X183812500Y-79180000D03*
D10*
X184312500Y-82930000D03*
D13*
X178812500Y-88830000D03*
X173812500Y-86730000D03*
D10*
X263312500Y-104130000D03*
D11*
X268812500Y-98180000D03*
D12*
X268812500Y-104130000D03*
D11*
X273812500Y-100380000D03*
D10*
X274312500Y-104130000D03*
D13*
X268812500Y-110030000D03*
X263812500Y-107930000D03*
D10*
X191312500Y-63550000D03*
D11*
X196812500Y-57600000D03*
D12*
X196812500Y-63550000D03*
D11*
X201812500Y-59800000D03*
D10*
X202312500Y-63550000D03*
D13*
X196812500Y-69450000D03*
X191812500Y-67350000D03*
D10*
X245312500Y-70110000D03*
D11*
X250812500Y-64160000D03*
D12*
X250812500Y-70110000D03*
D11*
X255812500Y-66360000D03*
D10*
X256312500Y-70110000D03*
D13*
X250812500Y-76010000D03*
X245812500Y-73910000D03*
X209812500Y-81980000D03*
X214812500Y-84080000D03*
D10*
X220312500Y-78180000D03*
D11*
X219812500Y-74430000D03*
D12*
X214812500Y-78180000D03*
D11*
X214812500Y-72230000D03*
D10*
X209312500Y-78180000D03*
X263312500Y-70110000D03*
D11*
X268812500Y-64160000D03*
D12*
X268812500Y-70110000D03*
D11*
X273812500Y-66360000D03*
D10*
X274312500Y-70110000D03*
D13*
X268812500Y-76010000D03*
X263812500Y-73910000D03*
D16*
X157262500Y-104700000D03*
X150262500Y-104700000D03*
D10*
X191312500Y-97555000D03*
D11*
X196812500Y-91605000D03*
D12*
X196812500Y-97555000D03*
D11*
X201812500Y-93805000D03*
D10*
X202312500Y-97555000D03*
D13*
X196812500Y-103455000D03*
X191812500Y-101355000D03*
D10*
X245312500Y-104115000D03*
D11*
X250812500Y-98165000D03*
D12*
X250812500Y-104115000D03*
D11*
X255812500Y-100365000D03*
D10*
X256312500Y-104115000D03*
D13*
X250812500Y-110015000D03*
X245812500Y-107915000D03*
D14*
X169582500Y-113730000D03*
D10*
X227312500Y-80550000D03*
D11*
X232812500Y-74600000D03*
D12*
X232812500Y-80550000D03*
D11*
X237812500Y-76800000D03*
D10*
X238312500Y-80550000D03*
D13*
X232812500Y-86450000D03*
X227812500Y-84350000D03*
M02*
