G04 #@! TF.GenerationSoftware,KiCad,Pcbnew,(7.0.0-0)*
G04 #@! TF.CreationDate,2023-04-28T12:14:34+03:00*
G04 #@! TF.ProjectId,chococorne,63686f63-6f63-46f7-926e-652e6b696361,2.1*
G04 #@! TF.SameCoordinates,Original*
G04 #@! TF.FileFunction,Legend,Bot*
G04 #@! TF.FilePolarity,Positive*
%FSLAX46Y46*%
G04 Gerber Fmt 4.6, Leading zero omitted, Abs format (unit mm)*
G04 Created by KiCad (PCBNEW (7.0.0-0)) date 2023-04-28 12:14:34*
%MOMM*%
%LPD*%
G01*
G04 APERTURE LIST*
%ADD10C,0.150000*%
G04 APERTURE END LIST*
D10*
X200077023Y-125459761D02*
X199934166Y-125507380D01*
X199934166Y-125507380D02*
X199696071Y-125507380D01*
X199696071Y-125507380D02*
X199600833Y-125459761D01*
X199600833Y-125459761D02*
X199553214Y-125412142D01*
X199553214Y-125412142D02*
X199505595Y-125316904D01*
X199505595Y-125316904D02*
X199505595Y-125221666D01*
X199505595Y-125221666D02*
X199553214Y-125126428D01*
X199553214Y-125126428D02*
X199600833Y-125078809D01*
X199600833Y-125078809D02*
X199696071Y-125031190D01*
X199696071Y-125031190D02*
X199886547Y-124983571D01*
X199886547Y-124983571D02*
X199981785Y-124935952D01*
X199981785Y-124935952D02*
X200029404Y-124888333D01*
X200029404Y-124888333D02*
X200077023Y-124793095D01*
X200077023Y-124793095D02*
X200077023Y-124697857D01*
X200077023Y-124697857D02*
X200029404Y-124602619D01*
X200029404Y-124602619D02*
X199981785Y-124555000D01*
X199981785Y-124555000D02*
X199886547Y-124507380D01*
X199886547Y-124507380D02*
X199648452Y-124507380D01*
X199648452Y-124507380D02*
X199505595Y-124555000D01*
X199172261Y-124507380D02*
X198934166Y-125507380D01*
X198934166Y-125507380D02*
X198743690Y-124793095D01*
X198743690Y-124793095D02*
X198553214Y-125507380D01*
X198553214Y-125507380D02*
X198315119Y-124507380D01*
X197410357Y-125507380D02*
X197981785Y-125507380D01*
X197696071Y-125507380D02*
X197696071Y-124507380D01*
X197696071Y-124507380D02*
X197791309Y-124650238D01*
X197791309Y-124650238D02*
X197886547Y-124745476D01*
X197886547Y-124745476D02*
X197981785Y-124793095D01*
X196934166Y-125507380D02*
X196743690Y-125507380D01*
X196743690Y-125507380D02*
X196648452Y-125459761D01*
X196648452Y-125459761D02*
X196600833Y-125412142D01*
X196600833Y-125412142D02*
X196505595Y-125269285D01*
X196505595Y-125269285D02*
X196457976Y-125078809D01*
X196457976Y-125078809D02*
X196457976Y-124697857D01*
X196457976Y-124697857D02*
X196505595Y-124602619D01*
X196505595Y-124602619D02*
X196553214Y-124555000D01*
X196553214Y-124555000D02*
X196648452Y-124507380D01*
X196648452Y-124507380D02*
X196838928Y-124507380D01*
X196838928Y-124507380D02*
X196934166Y-124555000D01*
X196934166Y-124555000D02*
X196981785Y-124602619D01*
X196981785Y-124602619D02*
X197029404Y-124697857D01*
X197029404Y-124697857D02*
X197029404Y-124935952D01*
X197029404Y-124935952D02*
X196981785Y-125031190D01*
X196981785Y-125031190D02*
X196934166Y-125078809D01*
X196934166Y-125078809D02*
X196838928Y-125126428D01*
X196838928Y-125126428D02*
X196648452Y-125126428D01*
X196648452Y-125126428D02*
X196553214Y-125078809D01*
X196553214Y-125078809D02*
X196505595Y-125031190D01*
X196505595Y-125031190D02*
X196457976Y-124935952D01*
X239067023Y-90254761D02*
X238924166Y-90302380D01*
X238924166Y-90302380D02*
X238686071Y-90302380D01*
X238686071Y-90302380D02*
X238590833Y-90254761D01*
X238590833Y-90254761D02*
X238543214Y-90207142D01*
X238543214Y-90207142D02*
X238495595Y-90111904D01*
X238495595Y-90111904D02*
X238495595Y-90016666D01*
X238495595Y-90016666D02*
X238543214Y-89921428D01*
X238543214Y-89921428D02*
X238590833Y-89873809D01*
X238590833Y-89873809D02*
X238686071Y-89826190D01*
X238686071Y-89826190D02*
X238876547Y-89778571D01*
X238876547Y-89778571D02*
X238971785Y-89730952D01*
X238971785Y-89730952D02*
X239019404Y-89683333D01*
X239019404Y-89683333D02*
X239067023Y-89588095D01*
X239067023Y-89588095D02*
X239067023Y-89492857D01*
X239067023Y-89492857D02*
X239019404Y-89397619D01*
X239019404Y-89397619D02*
X238971785Y-89350000D01*
X238971785Y-89350000D02*
X238876547Y-89302380D01*
X238876547Y-89302380D02*
X238638452Y-89302380D01*
X238638452Y-89302380D02*
X238495595Y-89350000D01*
X238162261Y-89302380D02*
X237924166Y-90302380D01*
X237924166Y-90302380D02*
X237733690Y-89588095D01*
X237733690Y-89588095D02*
X237543214Y-90302380D01*
X237543214Y-90302380D02*
X237305119Y-89302380D01*
X236400357Y-90302380D02*
X236971785Y-90302380D01*
X236686071Y-90302380D02*
X236686071Y-89302380D01*
X236686071Y-89302380D02*
X236781309Y-89445238D01*
X236781309Y-89445238D02*
X236876547Y-89540476D01*
X236876547Y-89540476D02*
X236971785Y-89588095D01*
X235495595Y-89302380D02*
X235971785Y-89302380D01*
X235971785Y-89302380D02*
X236019404Y-89778571D01*
X236019404Y-89778571D02*
X235971785Y-89730952D01*
X235971785Y-89730952D02*
X235876547Y-89683333D01*
X235876547Y-89683333D02*
X235638452Y-89683333D01*
X235638452Y-89683333D02*
X235543214Y-89730952D01*
X235543214Y-89730952D02*
X235495595Y-89778571D01*
X235495595Y-89778571D02*
X235447976Y-89873809D01*
X235447976Y-89873809D02*
X235447976Y-90111904D01*
X235447976Y-90111904D02*
X235495595Y-90207142D01*
X235495595Y-90207142D02*
X235543214Y-90254761D01*
X235543214Y-90254761D02*
X235638452Y-90302380D01*
X235638452Y-90302380D02*
X235876547Y-90302380D01*
X235876547Y-90302380D02*
X235971785Y-90254761D01*
X235971785Y-90254761D02*
X236019404Y-90207142D01*
X182171787Y-128461332D02*
X182046122Y-128544302D01*
X182046122Y-128544302D02*
X181816140Y-128605926D01*
X181816140Y-128605926D02*
X181711822Y-128584579D01*
X181711822Y-128584579D02*
X181653501Y-128550907D01*
X181653501Y-128550907D02*
X181582855Y-128471239D01*
X181582855Y-128471239D02*
X181558206Y-128379246D01*
X181558206Y-128379246D02*
X181579553Y-128274928D01*
X181579553Y-128274928D02*
X181613224Y-128216607D01*
X181613224Y-128216607D02*
X181692893Y-128145961D01*
X181692893Y-128145961D02*
X181864554Y-128050666D01*
X181864554Y-128050666D02*
X181944222Y-127980020D01*
X181944222Y-127980020D02*
X181977894Y-127921699D01*
X181977894Y-127921699D02*
X181999241Y-127817381D01*
X181999241Y-127817381D02*
X181974591Y-127725388D01*
X181974591Y-127725388D02*
X181903945Y-127645720D01*
X181903945Y-127645720D02*
X181845624Y-127612048D01*
X181845624Y-127612048D02*
X181741307Y-127590701D01*
X181741307Y-127590701D02*
X181511324Y-127652325D01*
X181511324Y-127652325D02*
X181385660Y-127735295D01*
X181051359Y-127775572D02*
X181080196Y-128803121D01*
X181080196Y-128803121D02*
X180711340Y-128162473D01*
X180711340Y-128162473D02*
X180712224Y-128901719D01*
X180712224Y-128901719D02*
X180223423Y-127997417D01*
X179926097Y-128175683D02*
X179867776Y-128142011D01*
X179867776Y-128142011D02*
X179763459Y-128120664D01*
X179763459Y-128120664D02*
X179533476Y-128182287D01*
X179533476Y-128182287D02*
X179453808Y-128252933D01*
X179453808Y-128252933D02*
X179420136Y-128311255D01*
X179420136Y-128311255D02*
X179398789Y-128415572D01*
X179398789Y-128415572D02*
X179423439Y-128507565D01*
X179423439Y-128507565D02*
X179506409Y-128633230D01*
X179506409Y-128633230D02*
X180206263Y-129037291D01*
X180206263Y-129037291D02*
X179608309Y-129197512D01*
X178751536Y-128391808D02*
X178659543Y-128416457D01*
X178659543Y-128416457D02*
X178579875Y-128487103D01*
X178579875Y-128487103D02*
X178546203Y-128545424D01*
X178546203Y-128545424D02*
X178524856Y-128649742D01*
X178524856Y-128649742D02*
X178528159Y-128846052D01*
X178528159Y-128846052D02*
X178589782Y-129076035D01*
X178589782Y-129076035D02*
X178685078Y-129247696D01*
X178685078Y-129247696D02*
X178755723Y-129327364D01*
X178755723Y-129327364D02*
X178814045Y-129361036D01*
X178814045Y-129361036D02*
X178918362Y-129382383D01*
X178918362Y-129382383D02*
X179010355Y-129357733D01*
X179010355Y-129357733D02*
X179090023Y-129287088D01*
X179090023Y-129287088D02*
X179123695Y-129228766D01*
X179123695Y-129228766D02*
X179145042Y-129124449D01*
X179145042Y-129124449D02*
X179141740Y-128928138D01*
X179141740Y-128928138D02*
X179080116Y-128698156D01*
X179080116Y-128698156D02*
X178984821Y-128526495D01*
X178984821Y-128526495D02*
X178914175Y-128446826D01*
X178914175Y-128446826D02*
X178855854Y-128413155D01*
X178855854Y-128413155D02*
X178751536Y-128391808D01*
X256590832Y-79809761D02*
X256447975Y-79857380D01*
X256447975Y-79857380D02*
X256209880Y-79857380D01*
X256209880Y-79857380D02*
X256114642Y-79809761D01*
X256114642Y-79809761D02*
X256067023Y-79762142D01*
X256067023Y-79762142D02*
X256019404Y-79666904D01*
X256019404Y-79666904D02*
X256019404Y-79571666D01*
X256019404Y-79571666D02*
X256067023Y-79476428D01*
X256067023Y-79476428D02*
X256114642Y-79428809D01*
X256114642Y-79428809D02*
X256209880Y-79381190D01*
X256209880Y-79381190D02*
X256400356Y-79333571D01*
X256400356Y-79333571D02*
X256495594Y-79285952D01*
X256495594Y-79285952D02*
X256543213Y-79238333D01*
X256543213Y-79238333D02*
X256590832Y-79143095D01*
X256590832Y-79143095D02*
X256590832Y-79047857D01*
X256590832Y-79047857D02*
X256543213Y-78952619D01*
X256543213Y-78952619D02*
X256495594Y-78905000D01*
X256495594Y-78905000D02*
X256400356Y-78857380D01*
X256400356Y-78857380D02*
X256162261Y-78857380D01*
X256162261Y-78857380D02*
X256019404Y-78905000D01*
X255686070Y-78857380D02*
X255447975Y-79857380D01*
X255447975Y-79857380D02*
X255257499Y-79143095D01*
X255257499Y-79143095D02*
X255067023Y-79857380D01*
X255067023Y-79857380D02*
X254828928Y-78857380D01*
X254305118Y-79285952D02*
X254400356Y-79238333D01*
X254400356Y-79238333D02*
X254447975Y-79190714D01*
X254447975Y-79190714D02*
X254495594Y-79095476D01*
X254495594Y-79095476D02*
X254495594Y-79047857D01*
X254495594Y-79047857D02*
X254447975Y-78952619D01*
X254447975Y-78952619D02*
X254400356Y-78905000D01*
X254400356Y-78905000D02*
X254305118Y-78857380D01*
X254305118Y-78857380D02*
X254114642Y-78857380D01*
X254114642Y-78857380D02*
X254019404Y-78905000D01*
X254019404Y-78905000D02*
X253971785Y-78952619D01*
X253971785Y-78952619D02*
X253924166Y-79047857D01*
X253924166Y-79047857D02*
X253924166Y-79095476D01*
X253924166Y-79095476D02*
X253971785Y-79190714D01*
X253971785Y-79190714D02*
X254019404Y-79238333D01*
X254019404Y-79238333D02*
X254114642Y-79285952D01*
X254114642Y-79285952D02*
X254305118Y-79285952D01*
X254305118Y-79285952D02*
X254400356Y-79333571D01*
X254400356Y-79333571D02*
X254447975Y-79381190D01*
X254447975Y-79381190D02*
X254495594Y-79476428D01*
X254495594Y-79476428D02*
X254495594Y-79666904D01*
X254495594Y-79666904D02*
X254447975Y-79762142D01*
X254447975Y-79762142D02*
X254400356Y-79809761D01*
X254400356Y-79809761D02*
X254305118Y-79857380D01*
X254305118Y-79857380D02*
X254114642Y-79857380D01*
X254114642Y-79857380D02*
X254019404Y-79809761D01*
X254019404Y-79809761D02*
X253971785Y-79762142D01*
X253971785Y-79762142D02*
X253924166Y-79666904D01*
X253924166Y-79666904D02*
X253924166Y-79476428D01*
X253924166Y-79476428D02*
X253971785Y-79381190D01*
X253971785Y-79381190D02*
X254019404Y-79333571D01*
X254019404Y-79333571D02*
X254114642Y-79285952D01*
X188465713Y-75548370D02*
X187894285Y-75548370D01*
X188179999Y-76548370D02*
X188179999Y-75548370D01*
X187560951Y-76548370D02*
X187560951Y-75548370D01*
X187560951Y-75548370D02*
X187179999Y-75548370D01*
X187179999Y-75548370D02*
X187084761Y-75595990D01*
X187084761Y-75595990D02*
X187037142Y-75643609D01*
X187037142Y-75643609D02*
X186989523Y-75738847D01*
X186989523Y-75738847D02*
X186989523Y-75881704D01*
X186989523Y-75881704D02*
X187037142Y-75976942D01*
X187037142Y-75976942D02*
X187084761Y-76024561D01*
X187084761Y-76024561D02*
X187179999Y-76072180D01*
X187179999Y-76072180D02*
X187560951Y-76072180D01*
X153868725Y-125007491D02*
X153756058Y-124907583D01*
X153756058Y-124907583D02*
X153637010Y-124701386D01*
X153637010Y-124701386D02*
X153630630Y-124595098D01*
X153630630Y-124595098D02*
X153648060Y-124530049D01*
X153648060Y-124530049D02*
X153706729Y-124441191D01*
X153706729Y-124441191D02*
X153789208Y-124393572D01*
X153789208Y-124393572D02*
X153895496Y-124387192D01*
X153895496Y-124387192D02*
X153960545Y-124404622D01*
X153960545Y-124404622D02*
X154049403Y-124463291D01*
X154049403Y-124463291D02*
X154185880Y-124604439D01*
X154185880Y-124604439D02*
X154274739Y-124663108D01*
X154274739Y-124663108D02*
X154339788Y-124680537D01*
X154339788Y-124680537D02*
X154446076Y-124674158D01*
X154446076Y-124674158D02*
X154528554Y-124626539D01*
X154528554Y-124626539D02*
X154587223Y-124537680D01*
X154587223Y-124537680D02*
X154604653Y-124472631D01*
X154604653Y-124472631D02*
X154598273Y-124366343D01*
X154598273Y-124366343D02*
X154479226Y-124160147D01*
X154479226Y-124160147D02*
X154366558Y-124060238D01*
X154241131Y-123747754D02*
X153256058Y-124041557D01*
X153256058Y-124041557D02*
X153779409Y-123519457D01*
X153779409Y-123519457D02*
X153065581Y-123711643D01*
X153065581Y-123711643D02*
X153812559Y-123005446D01*
X153563414Y-122764390D02*
X153580844Y-122699341D01*
X153580844Y-122699341D02*
X153574464Y-122593053D01*
X153574464Y-122593053D02*
X153455416Y-122386857D01*
X153455416Y-122386857D02*
X153366558Y-122328188D01*
X153366558Y-122328188D02*
X153301509Y-122310758D01*
X153301509Y-122310758D02*
X153195221Y-122317138D01*
X153195221Y-122317138D02*
X153112742Y-122364757D01*
X153112742Y-122364757D02*
X153012834Y-122477425D01*
X153012834Y-122477425D02*
X152803677Y-123258011D01*
X152803677Y-123258011D02*
X152494153Y-122721900D01*
X152017962Y-121897113D02*
X152303677Y-122391985D01*
X152160820Y-122144549D02*
X153026845Y-121644549D01*
X153026845Y-121644549D02*
X152950746Y-121798456D01*
X152950746Y-121798456D02*
X152915886Y-121928554D01*
X152915886Y-121928554D02*
X152922266Y-122034842D01*
X238590832Y-56249761D02*
X238447975Y-56297380D01*
X238447975Y-56297380D02*
X238209880Y-56297380D01*
X238209880Y-56297380D02*
X238114642Y-56249761D01*
X238114642Y-56249761D02*
X238067023Y-56202142D01*
X238067023Y-56202142D02*
X238019404Y-56106904D01*
X238019404Y-56106904D02*
X238019404Y-56011666D01*
X238019404Y-56011666D02*
X238067023Y-55916428D01*
X238067023Y-55916428D02*
X238114642Y-55868809D01*
X238114642Y-55868809D02*
X238209880Y-55821190D01*
X238209880Y-55821190D02*
X238400356Y-55773571D01*
X238400356Y-55773571D02*
X238495594Y-55725952D01*
X238495594Y-55725952D02*
X238543213Y-55678333D01*
X238543213Y-55678333D02*
X238590832Y-55583095D01*
X238590832Y-55583095D02*
X238590832Y-55487857D01*
X238590832Y-55487857D02*
X238543213Y-55392619D01*
X238543213Y-55392619D02*
X238495594Y-55345000D01*
X238495594Y-55345000D02*
X238400356Y-55297380D01*
X238400356Y-55297380D02*
X238162261Y-55297380D01*
X238162261Y-55297380D02*
X238019404Y-55345000D01*
X237686070Y-55297380D02*
X237447975Y-56297380D01*
X237447975Y-56297380D02*
X237257499Y-55583095D01*
X237257499Y-55583095D02*
X237067023Y-56297380D01*
X237067023Y-56297380D02*
X236828928Y-55297380D01*
X236543213Y-55297380D02*
X235924166Y-55297380D01*
X235924166Y-55297380D02*
X236257499Y-55678333D01*
X236257499Y-55678333D02*
X236114642Y-55678333D01*
X236114642Y-55678333D02*
X236019404Y-55725952D01*
X236019404Y-55725952D02*
X235971785Y-55773571D01*
X235971785Y-55773571D02*
X235924166Y-55868809D01*
X235924166Y-55868809D02*
X235924166Y-56106904D01*
X235924166Y-56106904D02*
X235971785Y-56202142D01*
X235971785Y-56202142D02*
X236019404Y-56249761D01*
X236019404Y-56249761D02*
X236114642Y-56297380D01*
X236114642Y-56297380D02*
X236400356Y-56297380D01*
X236400356Y-56297380D02*
X236495594Y-56249761D01*
X236495594Y-56249761D02*
X236543213Y-56202142D01*
X184590832Y-58629761D02*
X184447975Y-58677380D01*
X184447975Y-58677380D02*
X184209880Y-58677380D01*
X184209880Y-58677380D02*
X184114642Y-58629761D01*
X184114642Y-58629761D02*
X184067023Y-58582142D01*
X184067023Y-58582142D02*
X184019404Y-58486904D01*
X184019404Y-58486904D02*
X184019404Y-58391666D01*
X184019404Y-58391666D02*
X184067023Y-58296428D01*
X184067023Y-58296428D02*
X184114642Y-58248809D01*
X184114642Y-58248809D02*
X184209880Y-58201190D01*
X184209880Y-58201190D02*
X184400356Y-58153571D01*
X184400356Y-58153571D02*
X184495594Y-58105952D01*
X184495594Y-58105952D02*
X184543213Y-58058333D01*
X184543213Y-58058333D02*
X184590832Y-57963095D01*
X184590832Y-57963095D02*
X184590832Y-57867857D01*
X184590832Y-57867857D02*
X184543213Y-57772619D01*
X184543213Y-57772619D02*
X184495594Y-57725000D01*
X184495594Y-57725000D02*
X184400356Y-57677380D01*
X184400356Y-57677380D02*
X184162261Y-57677380D01*
X184162261Y-57677380D02*
X184019404Y-57725000D01*
X183686070Y-57677380D02*
X183447975Y-58677380D01*
X183447975Y-58677380D02*
X183257499Y-57963095D01*
X183257499Y-57963095D02*
X183067023Y-58677380D01*
X183067023Y-58677380D02*
X182828928Y-57677380D01*
X182019404Y-57677380D02*
X182209880Y-57677380D01*
X182209880Y-57677380D02*
X182305118Y-57725000D01*
X182305118Y-57725000D02*
X182352737Y-57772619D01*
X182352737Y-57772619D02*
X182447975Y-57915476D01*
X182447975Y-57915476D02*
X182495594Y-58105952D01*
X182495594Y-58105952D02*
X182495594Y-58486904D01*
X182495594Y-58486904D02*
X182447975Y-58582142D01*
X182447975Y-58582142D02*
X182400356Y-58629761D01*
X182400356Y-58629761D02*
X182305118Y-58677380D01*
X182305118Y-58677380D02*
X182114642Y-58677380D01*
X182114642Y-58677380D02*
X182019404Y-58629761D01*
X182019404Y-58629761D02*
X181971785Y-58582142D01*
X181971785Y-58582142D02*
X181924166Y-58486904D01*
X181924166Y-58486904D02*
X181924166Y-58248809D01*
X181924166Y-58248809D02*
X181971785Y-58153571D01*
X181971785Y-58153571D02*
X182019404Y-58105952D01*
X182019404Y-58105952D02*
X182114642Y-58058333D01*
X182114642Y-58058333D02*
X182305118Y-58058333D01*
X182305118Y-58058333D02*
X182400356Y-58105952D01*
X182400356Y-58105952D02*
X182447975Y-58153571D01*
X182447975Y-58153571D02*
X182495594Y-58248809D01*
X203067023Y-73249761D02*
X202924166Y-73297380D01*
X202924166Y-73297380D02*
X202686071Y-73297380D01*
X202686071Y-73297380D02*
X202590833Y-73249761D01*
X202590833Y-73249761D02*
X202543214Y-73202142D01*
X202543214Y-73202142D02*
X202495595Y-73106904D01*
X202495595Y-73106904D02*
X202495595Y-73011666D01*
X202495595Y-73011666D02*
X202543214Y-72916428D01*
X202543214Y-72916428D02*
X202590833Y-72868809D01*
X202590833Y-72868809D02*
X202686071Y-72821190D01*
X202686071Y-72821190D02*
X202876547Y-72773571D01*
X202876547Y-72773571D02*
X202971785Y-72725952D01*
X202971785Y-72725952D02*
X203019404Y-72678333D01*
X203019404Y-72678333D02*
X203067023Y-72583095D01*
X203067023Y-72583095D02*
X203067023Y-72487857D01*
X203067023Y-72487857D02*
X203019404Y-72392619D01*
X203019404Y-72392619D02*
X202971785Y-72345000D01*
X202971785Y-72345000D02*
X202876547Y-72297380D01*
X202876547Y-72297380D02*
X202638452Y-72297380D01*
X202638452Y-72297380D02*
X202495595Y-72345000D01*
X202162261Y-72297380D02*
X201924166Y-73297380D01*
X201924166Y-73297380D02*
X201733690Y-72583095D01*
X201733690Y-72583095D02*
X201543214Y-73297380D01*
X201543214Y-73297380D02*
X201305119Y-72297380D01*
X200400357Y-73297380D02*
X200971785Y-73297380D01*
X200686071Y-73297380D02*
X200686071Y-72297380D01*
X200686071Y-72297380D02*
X200781309Y-72440238D01*
X200781309Y-72440238D02*
X200876547Y-72535476D01*
X200876547Y-72535476D02*
X200971785Y-72583095D01*
X199447976Y-73297380D02*
X200019404Y-73297380D01*
X199733690Y-73297380D02*
X199733690Y-72297380D01*
X199733690Y-72297380D02*
X199828928Y-72440238D01*
X199828928Y-72440238D02*
X199924166Y-72535476D01*
X199924166Y-72535476D02*
X200019404Y-72583095D01*
X220590832Y-53889761D02*
X220447975Y-53937380D01*
X220447975Y-53937380D02*
X220209880Y-53937380D01*
X220209880Y-53937380D02*
X220114642Y-53889761D01*
X220114642Y-53889761D02*
X220067023Y-53842142D01*
X220067023Y-53842142D02*
X220019404Y-53746904D01*
X220019404Y-53746904D02*
X220019404Y-53651666D01*
X220019404Y-53651666D02*
X220067023Y-53556428D01*
X220067023Y-53556428D02*
X220114642Y-53508809D01*
X220114642Y-53508809D02*
X220209880Y-53461190D01*
X220209880Y-53461190D02*
X220400356Y-53413571D01*
X220400356Y-53413571D02*
X220495594Y-53365952D01*
X220495594Y-53365952D02*
X220543213Y-53318333D01*
X220543213Y-53318333D02*
X220590832Y-53223095D01*
X220590832Y-53223095D02*
X220590832Y-53127857D01*
X220590832Y-53127857D02*
X220543213Y-53032619D01*
X220543213Y-53032619D02*
X220495594Y-52985000D01*
X220495594Y-52985000D02*
X220400356Y-52937380D01*
X220400356Y-52937380D02*
X220162261Y-52937380D01*
X220162261Y-52937380D02*
X220019404Y-52985000D01*
X219686070Y-52937380D02*
X219447975Y-53937380D01*
X219447975Y-53937380D02*
X219257499Y-53223095D01*
X219257499Y-53223095D02*
X219067023Y-53937380D01*
X219067023Y-53937380D02*
X218828928Y-52937380D01*
X218019404Y-53270714D02*
X218019404Y-53937380D01*
X218257499Y-52889761D02*
X218495594Y-53604047D01*
X218495594Y-53604047D02*
X217876547Y-53604047D01*
X185067023Y-92629761D02*
X184924166Y-92677380D01*
X184924166Y-92677380D02*
X184686071Y-92677380D01*
X184686071Y-92677380D02*
X184590833Y-92629761D01*
X184590833Y-92629761D02*
X184543214Y-92582142D01*
X184543214Y-92582142D02*
X184495595Y-92486904D01*
X184495595Y-92486904D02*
X184495595Y-92391666D01*
X184495595Y-92391666D02*
X184543214Y-92296428D01*
X184543214Y-92296428D02*
X184590833Y-92248809D01*
X184590833Y-92248809D02*
X184686071Y-92201190D01*
X184686071Y-92201190D02*
X184876547Y-92153571D01*
X184876547Y-92153571D02*
X184971785Y-92105952D01*
X184971785Y-92105952D02*
X185019404Y-92058333D01*
X185019404Y-92058333D02*
X185067023Y-91963095D01*
X185067023Y-91963095D02*
X185067023Y-91867857D01*
X185067023Y-91867857D02*
X185019404Y-91772619D01*
X185019404Y-91772619D02*
X184971785Y-91725000D01*
X184971785Y-91725000D02*
X184876547Y-91677380D01*
X184876547Y-91677380D02*
X184638452Y-91677380D01*
X184638452Y-91677380D02*
X184495595Y-91725000D01*
X184162261Y-91677380D02*
X183924166Y-92677380D01*
X183924166Y-92677380D02*
X183733690Y-91963095D01*
X183733690Y-91963095D02*
X183543214Y-92677380D01*
X183543214Y-92677380D02*
X183305119Y-91677380D01*
X182400357Y-92677380D02*
X182971785Y-92677380D01*
X182686071Y-92677380D02*
X182686071Y-91677380D01*
X182686071Y-91677380D02*
X182781309Y-91820238D01*
X182781309Y-91820238D02*
X182876547Y-91915476D01*
X182876547Y-91915476D02*
X182971785Y-91963095D01*
X181828928Y-92105952D02*
X181924166Y-92058333D01*
X181924166Y-92058333D02*
X181971785Y-92010714D01*
X181971785Y-92010714D02*
X182019404Y-91915476D01*
X182019404Y-91915476D02*
X182019404Y-91867857D01*
X182019404Y-91867857D02*
X181971785Y-91772619D01*
X181971785Y-91772619D02*
X181924166Y-91725000D01*
X181924166Y-91725000D02*
X181828928Y-91677380D01*
X181828928Y-91677380D02*
X181638452Y-91677380D01*
X181638452Y-91677380D02*
X181543214Y-91725000D01*
X181543214Y-91725000D02*
X181495595Y-91772619D01*
X181495595Y-91772619D02*
X181447976Y-91867857D01*
X181447976Y-91867857D02*
X181447976Y-91915476D01*
X181447976Y-91915476D02*
X181495595Y-92010714D01*
X181495595Y-92010714D02*
X181543214Y-92058333D01*
X181543214Y-92058333D02*
X181638452Y-92105952D01*
X181638452Y-92105952D02*
X181828928Y-92105952D01*
X181828928Y-92105952D02*
X181924166Y-92153571D01*
X181924166Y-92153571D02*
X181971785Y-92201190D01*
X181971785Y-92201190D02*
X182019404Y-92296428D01*
X182019404Y-92296428D02*
X182019404Y-92486904D01*
X182019404Y-92486904D02*
X181971785Y-92582142D01*
X181971785Y-92582142D02*
X181924166Y-92629761D01*
X181924166Y-92629761D02*
X181828928Y-92677380D01*
X181828928Y-92677380D02*
X181638452Y-92677380D01*
X181638452Y-92677380D02*
X181543214Y-92629761D01*
X181543214Y-92629761D02*
X181495595Y-92582142D01*
X181495595Y-92582142D02*
X181447976Y-92486904D01*
X181447976Y-92486904D02*
X181447976Y-92296428D01*
X181447976Y-92296428D02*
X181495595Y-92201190D01*
X181495595Y-92201190D02*
X181543214Y-92153571D01*
X181543214Y-92153571D02*
X181638452Y-92105952D01*
X274590832Y-79809761D02*
X274447975Y-79857380D01*
X274447975Y-79857380D02*
X274209880Y-79857380D01*
X274209880Y-79857380D02*
X274114642Y-79809761D01*
X274114642Y-79809761D02*
X274067023Y-79762142D01*
X274067023Y-79762142D02*
X274019404Y-79666904D01*
X274019404Y-79666904D02*
X274019404Y-79571666D01*
X274019404Y-79571666D02*
X274067023Y-79476428D01*
X274067023Y-79476428D02*
X274114642Y-79428809D01*
X274114642Y-79428809D02*
X274209880Y-79381190D01*
X274209880Y-79381190D02*
X274400356Y-79333571D01*
X274400356Y-79333571D02*
X274495594Y-79285952D01*
X274495594Y-79285952D02*
X274543213Y-79238333D01*
X274543213Y-79238333D02*
X274590832Y-79143095D01*
X274590832Y-79143095D02*
X274590832Y-79047857D01*
X274590832Y-79047857D02*
X274543213Y-78952619D01*
X274543213Y-78952619D02*
X274495594Y-78905000D01*
X274495594Y-78905000D02*
X274400356Y-78857380D01*
X274400356Y-78857380D02*
X274162261Y-78857380D01*
X274162261Y-78857380D02*
X274019404Y-78905000D01*
X273686070Y-78857380D02*
X273447975Y-79857380D01*
X273447975Y-79857380D02*
X273257499Y-79143095D01*
X273257499Y-79143095D02*
X273067023Y-79857380D01*
X273067023Y-79857380D02*
X272828928Y-78857380D01*
X272543213Y-78857380D02*
X271876547Y-78857380D01*
X271876547Y-78857380D02*
X272305118Y-79857380D01*
X221067023Y-87879761D02*
X220924166Y-87927380D01*
X220924166Y-87927380D02*
X220686071Y-87927380D01*
X220686071Y-87927380D02*
X220590833Y-87879761D01*
X220590833Y-87879761D02*
X220543214Y-87832142D01*
X220543214Y-87832142D02*
X220495595Y-87736904D01*
X220495595Y-87736904D02*
X220495595Y-87641666D01*
X220495595Y-87641666D02*
X220543214Y-87546428D01*
X220543214Y-87546428D02*
X220590833Y-87498809D01*
X220590833Y-87498809D02*
X220686071Y-87451190D01*
X220686071Y-87451190D02*
X220876547Y-87403571D01*
X220876547Y-87403571D02*
X220971785Y-87355952D01*
X220971785Y-87355952D02*
X221019404Y-87308333D01*
X221019404Y-87308333D02*
X221067023Y-87213095D01*
X221067023Y-87213095D02*
X221067023Y-87117857D01*
X221067023Y-87117857D02*
X221019404Y-87022619D01*
X221019404Y-87022619D02*
X220971785Y-86975000D01*
X220971785Y-86975000D02*
X220876547Y-86927380D01*
X220876547Y-86927380D02*
X220638452Y-86927380D01*
X220638452Y-86927380D02*
X220495595Y-86975000D01*
X220162261Y-86927380D02*
X219924166Y-87927380D01*
X219924166Y-87927380D02*
X219733690Y-87213095D01*
X219733690Y-87213095D02*
X219543214Y-87927380D01*
X219543214Y-87927380D02*
X219305119Y-86927380D01*
X218400357Y-87927380D02*
X218971785Y-87927380D01*
X218686071Y-87927380D02*
X218686071Y-86927380D01*
X218686071Y-86927380D02*
X218781309Y-87070238D01*
X218781309Y-87070238D02*
X218876547Y-87165476D01*
X218876547Y-87165476D02*
X218971785Y-87213095D01*
X217543214Y-86927380D02*
X217733690Y-86927380D01*
X217733690Y-86927380D02*
X217828928Y-86975000D01*
X217828928Y-86975000D02*
X217876547Y-87022619D01*
X217876547Y-87022619D02*
X217971785Y-87165476D01*
X217971785Y-87165476D02*
X218019404Y-87355952D01*
X218019404Y-87355952D02*
X218019404Y-87736904D01*
X218019404Y-87736904D02*
X217971785Y-87832142D01*
X217971785Y-87832142D02*
X217924166Y-87879761D01*
X217924166Y-87879761D02*
X217828928Y-87927380D01*
X217828928Y-87927380D02*
X217638452Y-87927380D01*
X217638452Y-87927380D02*
X217543214Y-87879761D01*
X217543214Y-87879761D02*
X217495595Y-87832142D01*
X217495595Y-87832142D02*
X217447976Y-87736904D01*
X217447976Y-87736904D02*
X217447976Y-87498809D01*
X217447976Y-87498809D02*
X217495595Y-87403571D01*
X217495595Y-87403571D02*
X217543214Y-87355952D01*
X217543214Y-87355952D02*
X217638452Y-87308333D01*
X217638452Y-87308333D02*
X217828928Y-87308333D01*
X217828928Y-87308333D02*
X217924166Y-87355952D01*
X217924166Y-87355952D02*
X217971785Y-87403571D01*
X217971785Y-87403571D02*
X218019404Y-87498809D01*
X185067023Y-75629761D02*
X184924166Y-75677380D01*
X184924166Y-75677380D02*
X184686071Y-75677380D01*
X184686071Y-75677380D02*
X184590833Y-75629761D01*
X184590833Y-75629761D02*
X184543214Y-75582142D01*
X184543214Y-75582142D02*
X184495595Y-75486904D01*
X184495595Y-75486904D02*
X184495595Y-75391666D01*
X184495595Y-75391666D02*
X184543214Y-75296428D01*
X184543214Y-75296428D02*
X184590833Y-75248809D01*
X184590833Y-75248809D02*
X184686071Y-75201190D01*
X184686071Y-75201190D02*
X184876547Y-75153571D01*
X184876547Y-75153571D02*
X184971785Y-75105952D01*
X184971785Y-75105952D02*
X185019404Y-75058333D01*
X185019404Y-75058333D02*
X185067023Y-74963095D01*
X185067023Y-74963095D02*
X185067023Y-74867857D01*
X185067023Y-74867857D02*
X185019404Y-74772619D01*
X185019404Y-74772619D02*
X184971785Y-74725000D01*
X184971785Y-74725000D02*
X184876547Y-74677380D01*
X184876547Y-74677380D02*
X184638452Y-74677380D01*
X184638452Y-74677380D02*
X184495595Y-74725000D01*
X184162261Y-74677380D02*
X183924166Y-75677380D01*
X183924166Y-75677380D02*
X183733690Y-74963095D01*
X183733690Y-74963095D02*
X183543214Y-75677380D01*
X183543214Y-75677380D02*
X183305119Y-74677380D01*
X182400357Y-75677380D02*
X182971785Y-75677380D01*
X182686071Y-75677380D02*
X182686071Y-74677380D01*
X182686071Y-74677380D02*
X182781309Y-74820238D01*
X182781309Y-74820238D02*
X182876547Y-74915476D01*
X182876547Y-74915476D02*
X182971785Y-74963095D01*
X182019404Y-74772619D02*
X181971785Y-74725000D01*
X181971785Y-74725000D02*
X181876547Y-74677380D01*
X181876547Y-74677380D02*
X181638452Y-74677380D01*
X181638452Y-74677380D02*
X181543214Y-74725000D01*
X181543214Y-74725000D02*
X181495595Y-74772619D01*
X181495595Y-74772619D02*
X181447976Y-74867857D01*
X181447976Y-74867857D02*
X181447976Y-74963095D01*
X181447976Y-74963095D02*
X181495595Y-75105952D01*
X181495595Y-75105952D02*
X182067023Y-75677380D01*
X182067023Y-75677380D02*
X181447976Y-75677380D01*
X275067023Y-96829761D02*
X274924166Y-96877380D01*
X274924166Y-96877380D02*
X274686071Y-96877380D01*
X274686071Y-96877380D02*
X274590833Y-96829761D01*
X274590833Y-96829761D02*
X274543214Y-96782142D01*
X274543214Y-96782142D02*
X274495595Y-96686904D01*
X274495595Y-96686904D02*
X274495595Y-96591666D01*
X274495595Y-96591666D02*
X274543214Y-96496428D01*
X274543214Y-96496428D02*
X274590833Y-96448809D01*
X274590833Y-96448809D02*
X274686071Y-96401190D01*
X274686071Y-96401190D02*
X274876547Y-96353571D01*
X274876547Y-96353571D02*
X274971785Y-96305952D01*
X274971785Y-96305952D02*
X275019404Y-96258333D01*
X275019404Y-96258333D02*
X275067023Y-96163095D01*
X275067023Y-96163095D02*
X275067023Y-96067857D01*
X275067023Y-96067857D02*
X275019404Y-95972619D01*
X275019404Y-95972619D02*
X274971785Y-95925000D01*
X274971785Y-95925000D02*
X274876547Y-95877380D01*
X274876547Y-95877380D02*
X274638452Y-95877380D01*
X274638452Y-95877380D02*
X274495595Y-95925000D01*
X274162261Y-95877380D02*
X273924166Y-96877380D01*
X273924166Y-96877380D02*
X273733690Y-96163095D01*
X273733690Y-96163095D02*
X273543214Y-96877380D01*
X273543214Y-96877380D02*
X273305119Y-95877380D01*
X272400357Y-96877380D02*
X272971785Y-96877380D01*
X272686071Y-96877380D02*
X272686071Y-95877380D01*
X272686071Y-95877380D02*
X272781309Y-96020238D01*
X272781309Y-96020238D02*
X272876547Y-96115476D01*
X272876547Y-96115476D02*
X272971785Y-96163095D01*
X272067023Y-95877380D02*
X271447976Y-95877380D01*
X271447976Y-95877380D02*
X271781309Y-96258333D01*
X271781309Y-96258333D02*
X271638452Y-96258333D01*
X271638452Y-96258333D02*
X271543214Y-96305952D01*
X271543214Y-96305952D02*
X271495595Y-96353571D01*
X271495595Y-96353571D02*
X271447976Y-96448809D01*
X271447976Y-96448809D02*
X271447976Y-96686904D01*
X271447976Y-96686904D02*
X271495595Y-96782142D01*
X271495595Y-96782142D02*
X271543214Y-96829761D01*
X271543214Y-96829761D02*
X271638452Y-96877380D01*
X271638452Y-96877380D02*
X271924166Y-96877380D01*
X271924166Y-96877380D02*
X272019404Y-96829761D01*
X272019404Y-96829761D02*
X272067023Y-96782142D01*
X202590832Y-56249761D02*
X202447975Y-56297380D01*
X202447975Y-56297380D02*
X202209880Y-56297380D01*
X202209880Y-56297380D02*
X202114642Y-56249761D01*
X202114642Y-56249761D02*
X202067023Y-56202142D01*
X202067023Y-56202142D02*
X202019404Y-56106904D01*
X202019404Y-56106904D02*
X202019404Y-56011666D01*
X202019404Y-56011666D02*
X202067023Y-55916428D01*
X202067023Y-55916428D02*
X202114642Y-55868809D01*
X202114642Y-55868809D02*
X202209880Y-55821190D01*
X202209880Y-55821190D02*
X202400356Y-55773571D01*
X202400356Y-55773571D02*
X202495594Y-55725952D01*
X202495594Y-55725952D02*
X202543213Y-55678333D01*
X202543213Y-55678333D02*
X202590832Y-55583095D01*
X202590832Y-55583095D02*
X202590832Y-55487857D01*
X202590832Y-55487857D02*
X202543213Y-55392619D01*
X202543213Y-55392619D02*
X202495594Y-55345000D01*
X202495594Y-55345000D02*
X202400356Y-55297380D01*
X202400356Y-55297380D02*
X202162261Y-55297380D01*
X202162261Y-55297380D02*
X202019404Y-55345000D01*
X201686070Y-55297380D02*
X201447975Y-56297380D01*
X201447975Y-56297380D02*
X201257499Y-55583095D01*
X201257499Y-55583095D02*
X201067023Y-56297380D01*
X201067023Y-56297380D02*
X200828928Y-55297380D01*
X199971785Y-55297380D02*
X200447975Y-55297380D01*
X200447975Y-55297380D02*
X200495594Y-55773571D01*
X200495594Y-55773571D02*
X200447975Y-55725952D01*
X200447975Y-55725952D02*
X200352737Y-55678333D01*
X200352737Y-55678333D02*
X200114642Y-55678333D01*
X200114642Y-55678333D02*
X200019404Y-55725952D01*
X200019404Y-55725952D02*
X199971785Y-55773571D01*
X199971785Y-55773571D02*
X199924166Y-55868809D01*
X199924166Y-55868809D02*
X199924166Y-56106904D01*
X199924166Y-56106904D02*
X199971785Y-56202142D01*
X199971785Y-56202142D02*
X200019404Y-56249761D01*
X200019404Y-56249761D02*
X200114642Y-56297380D01*
X200114642Y-56297380D02*
X200352737Y-56297380D01*
X200352737Y-56297380D02*
X200447975Y-56249761D01*
X200447975Y-56249761D02*
X200495594Y-56202142D01*
X256590832Y-62809761D02*
X256447975Y-62857380D01*
X256447975Y-62857380D02*
X256209880Y-62857380D01*
X256209880Y-62857380D02*
X256114642Y-62809761D01*
X256114642Y-62809761D02*
X256067023Y-62762142D01*
X256067023Y-62762142D02*
X256019404Y-62666904D01*
X256019404Y-62666904D02*
X256019404Y-62571666D01*
X256019404Y-62571666D02*
X256067023Y-62476428D01*
X256067023Y-62476428D02*
X256114642Y-62428809D01*
X256114642Y-62428809D02*
X256209880Y-62381190D01*
X256209880Y-62381190D02*
X256400356Y-62333571D01*
X256400356Y-62333571D02*
X256495594Y-62285952D01*
X256495594Y-62285952D02*
X256543213Y-62238333D01*
X256543213Y-62238333D02*
X256590832Y-62143095D01*
X256590832Y-62143095D02*
X256590832Y-62047857D01*
X256590832Y-62047857D02*
X256543213Y-61952619D01*
X256543213Y-61952619D02*
X256495594Y-61905000D01*
X256495594Y-61905000D02*
X256400356Y-61857380D01*
X256400356Y-61857380D02*
X256162261Y-61857380D01*
X256162261Y-61857380D02*
X256019404Y-61905000D01*
X255686070Y-61857380D02*
X255447975Y-62857380D01*
X255447975Y-62857380D02*
X255257499Y-62143095D01*
X255257499Y-62143095D02*
X255067023Y-62857380D01*
X255067023Y-62857380D02*
X254828928Y-61857380D01*
X254495594Y-61952619D02*
X254447975Y-61905000D01*
X254447975Y-61905000D02*
X254352737Y-61857380D01*
X254352737Y-61857380D02*
X254114642Y-61857380D01*
X254114642Y-61857380D02*
X254019404Y-61905000D01*
X254019404Y-61905000D02*
X253971785Y-61952619D01*
X253971785Y-61952619D02*
X253924166Y-62047857D01*
X253924166Y-62047857D02*
X253924166Y-62143095D01*
X253924166Y-62143095D02*
X253971785Y-62285952D01*
X253971785Y-62285952D02*
X254543213Y-62857380D01*
X254543213Y-62857380D02*
X253924166Y-62857380D01*
X221067023Y-70879761D02*
X220924166Y-70927380D01*
X220924166Y-70927380D02*
X220686071Y-70927380D01*
X220686071Y-70927380D02*
X220590833Y-70879761D01*
X220590833Y-70879761D02*
X220543214Y-70832142D01*
X220543214Y-70832142D02*
X220495595Y-70736904D01*
X220495595Y-70736904D02*
X220495595Y-70641666D01*
X220495595Y-70641666D02*
X220543214Y-70546428D01*
X220543214Y-70546428D02*
X220590833Y-70498809D01*
X220590833Y-70498809D02*
X220686071Y-70451190D01*
X220686071Y-70451190D02*
X220876547Y-70403571D01*
X220876547Y-70403571D02*
X220971785Y-70355952D01*
X220971785Y-70355952D02*
X221019404Y-70308333D01*
X221019404Y-70308333D02*
X221067023Y-70213095D01*
X221067023Y-70213095D02*
X221067023Y-70117857D01*
X221067023Y-70117857D02*
X221019404Y-70022619D01*
X221019404Y-70022619D02*
X220971785Y-69975000D01*
X220971785Y-69975000D02*
X220876547Y-69927380D01*
X220876547Y-69927380D02*
X220638452Y-69927380D01*
X220638452Y-69927380D02*
X220495595Y-69975000D01*
X220162261Y-69927380D02*
X219924166Y-70927380D01*
X219924166Y-70927380D02*
X219733690Y-70213095D01*
X219733690Y-70213095D02*
X219543214Y-70927380D01*
X219543214Y-70927380D02*
X219305119Y-69927380D01*
X218400357Y-70927380D02*
X218971785Y-70927380D01*
X218686071Y-70927380D02*
X218686071Y-69927380D01*
X218686071Y-69927380D02*
X218781309Y-70070238D01*
X218781309Y-70070238D02*
X218876547Y-70165476D01*
X218876547Y-70165476D02*
X218971785Y-70213095D01*
X217781309Y-69927380D02*
X217686071Y-69927380D01*
X217686071Y-69927380D02*
X217590833Y-69975000D01*
X217590833Y-69975000D02*
X217543214Y-70022619D01*
X217543214Y-70022619D02*
X217495595Y-70117857D01*
X217495595Y-70117857D02*
X217447976Y-70308333D01*
X217447976Y-70308333D02*
X217447976Y-70546428D01*
X217447976Y-70546428D02*
X217495595Y-70736904D01*
X217495595Y-70736904D02*
X217543214Y-70832142D01*
X217543214Y-70832142D02*
X217590833Y-70879761D01*
X217590833Y-70879761D02*
X217686071Y-70927380D01*
X217686071Y-70927380D02*
X217781309Y-70927380D01*
X217781309Y-70927380D02*
X217876547Y-70879761D01*
X217876547Y-70879761D02*
X217924166Y-70832142D01*
X217924166Y-70832142D02*
X217971785Y-70736904D01*
X217971785Y-70736904D02*
X218019404Y-70546428D01*
X218019404Y-70546428D02*
X218019404Y-70308333D01*
X218019404Y-70308333D02*
X217971785Y-70117857D01*
X217971785Y-70117857D02*
X217924166Y-70022619D01*
X217924166Y-70022619D02*
X217876547Y-69975000D01*
X217876547Y-69975000D02*
X217781309Y-69927380D01*
X274590832Y-62809761D02*
X274447975Y-62857380D01*
X274447975Y-62857380D02*
X274209880Y-62857380D01*
X274209880Y-62857380D02*
X274114642Y-62809761D01*
X274114642Y-62809761D02*
X274067023Y-62762142D01*
X274067023Y-62762142D02*
X274019404Y-62666904D01*
X274019404Y-62666904D02*
X274019404Y-62571666D01*
X274019404Y-62571666D02*
X274067023Y-62476428D01*
X274067023Y-62476428D02*
X274114642Y-62428809D01*
X274114642Y-62428809D02*
X274209880Y-62381190D01*
X274209880Y-62381190D02*
X274400356Y-62333571D01*
X274400356Y-62333571D02*
X274495594Y-62285952D01*
X274495594Y-62285952D02*
X274543213Y-62238333D01*
X274543213Y-62238333D02*
X274590832Y-62143095D01*
X274590832Y-62143095D02*
X274590832Y-62047857D01*
X274590832Y-62047857D02*
X274543213Y-61952619D01*
X274543213Y-61952619D02*
X274495594Y-61905000D01*
X274495594Y-61905000D02*
X274400356Y-61857380D01*
X274400356Y-61857380D02*
X274162261Y-61857380D01*
X274162261Y-61857380D02*
X274019404Y-61905000D01*
X273686070Y-61857380D02*
X273447975Y-62857380D01*
X273447975Y-62857380D02*
X273257499Y-62143095D01*
X273257499Y-62143095D02*
X273067023Y-62857380D01*
X273067023Y-62857380D02*
X272828928Y-61857380D01*
X271924166Y-62857380D02*
X272495594Y-62857380D01*
X272209880Y-62857380D02*
X272209880Y-61857380D01*
X272209880Y-61857380D02*
X272305118Y-62000238D01*
X272305118Y-62000238D02*
X272400356Y-62095476D01*
X272400356Y-62095476D02*
X272495594Y-62143095D01*
X203067023Y-90254761D02*
X202924166Y-90302380D01*
X202924166Y-90302380D02*
X202686071Y-90302380D01*
X202686071Y-90302380D02*
X202590833Y-90254761D01*
X202590833Y-90254761D02*
X202543214Y-90207142D01*
X202543214Y-90207142D02*
X202495595Y-90111904D01*
X202495595Y-90111904D02*
X202495595Y-90016666D01*
X202495595Y-90016666D02*
X202543214Y-89921428D01*
X202543214Y-89921428D02*
X202590833Y-89873809D01*
X202590833Y-89873809D02*
X202686071Y-89826190D01*
X202686071Y-89826190D02*
X202876547Y-89778571D01*
X202876547Y-89778571D02*
X202971785Y-89730952D01*
X202971785Y-89730952D02*
X203019404Y-89683333D01*
X203019404Y-89683333D02*
X203067023Y-89588095D01*
X203067023Y-89588095D02*
X203067023Y-89492857D01*
X203067023Y-89492857D02*
X203019404Y-89397619D01*
X203019404Y-89397619D02*
X202971785Y-89350000D01*
X202971785Y-89350000D02*
X202876547Y-89302380D01*
X202876547Y-89302380D02*
X202638452Y-89302380D01*
X202638452Y-89302380D02*
X202495595Y-89350000D01*
X202162261Y-89302380D02*
X201924166Y-90302380D01*
X201924166Y-90302380D02*
X201733690Y-89588095D01*
X201733690Y-89588095D02*
X201543214Y-90302380D01*
X201543214Y-90302380D02*
X201305119Y-89302380D01*
X200400357Y-90302380D02*
X200971785Y-90302380D01*
X200686071Y-90302380D02*
X200686071Y-89302380D01*
X200686071Y-89302380D02*
X200781309Y-89445238D01*
X200781309Y-89445238D02*
X200876547Y-89540476D01*
X200876547Y-89540476D02*
X200971785Y-89588095D01*
X200067023Y-89302380D02*
X199400357Y-89302380D01*
X199400357Y-89302380D02*
X199828928Y-90302380D01*
X257067023Y-96814761D02*
X256924166Y-96862380D01*
X256924166Y-96862380D02*
X256686071Y-96862380D01*
X256686071Y-96862380D02*
X256590833Y-96814761D01*
X256590833Y-96814761D02*
X256543214Y-96767142D01*
X256543214Y-96767142D02*
X256495595Y-96671904D01*
X256495595Y-96671904D02*
X256495595Y-96576666D01*
X256495595Y-96576666D02*
X256543214Y-96481428D01*
X256543214Y-96481428D02*
X256590833Y-96433809D01*
X256590833Y-96433809D02*
X256686071Y-96386190D01*
X256686071Y-96386190D02*
X256876547Y-96338571D01*
X256876547Y-96338571D02*
X256971785Y-96290952D01*
X256971785Y-96290952D02*
X257019404Y-96243333D01*
X257019404Y-96243333D02*
X257067023Y-96148095D01*
X257067023Y-96148095D02*
X257067023Y-96052857D01*
X257067023Y-96052857D02*
X257019404Y-95957619D01*
X257019404Y-95957619D02*
X256971785Y-95910000D01*
X256971785Y-95910000D02*
X256876547Y-95862380D01*
X256876547Y-95862380D02*
X256638452Y-95862380D01*
X256638452Y-95862380D02*
X256495595Y-95910000D01*
X256162261Y-95862380D02*
X255924166Y-96862380D01*
X255924166Y-96862380D02*
X255733690Y-96148095D01*
X255733690Y-96148095D02*
X255543214Y-96862380D01*
X255543214Y-96862380D02*
X255305119Y-95862380D01*
X254400357Y-96862380D02*
X254971785Y-96862380D01*
X254686071Y-96862380D02*
X254686071Y-95862380D01*
X254686071Y-95862380D02*
X254781309Y-96005238D01*
X254781309Y-96005238D02*
X254876547Y-96100476D01*
X254876547Y-96100476D02*
X254971785Y-96148095D01*
X253543214Y-96195714D02*
X253543214Y-96862380D01*
X253781309Y-95814761D02*
X254019404Y-96529047D01*
X254019404Y-96529047D02*
X253400357Y-96529047D01*
X238590832Y-73249761D02*
X238447975Y-73297380D01*
X238447975Y-73297380D02*
X238209880Y-73297380D01*
X238209880Y-73297380D02*
X238114642Y-73249761D01*
X238114642Y-73249761D02*
X238067023Y-73202142D01*
X238067023Y-73202142D02*
X238019404Y-73106904D01*
X238019404Y-73106904D02*
X238019404Y-73011666D01*
X238019404Y-73011666D02*
X238067023Y-72916428D01*
X238067023Y-72916428D02*
X238114642Y-72868809D01*
X238114642Y-72868809D02*
X238209880Y-72821190D01*
X238209880Y-72821190D02*
X238400356Y-72773571D01*
X238400356Y-72773571D02*
X238495594Y-72725952D01*
X238495594Y-72725952D02*
X238543213Y-72678333D01*
X238543213Y-72678333D02*
X238590832Y-72583095D01*
X238590832Y-72583095D02*
X238590832Y-72487857D01*
X238590832Y-72487857D02*
X238543213Y-72392619D01*
X238543213Y-72392619D02*
X238495594Y-72345000D01*
X238495594Y-72345000D02*
X238400356Y-72297380D01*
X238400356Y-72297380D02*
X238162261Y-72297380D01*
X238162261Y-72297380D02*
X238019404Y-72345000D01*
X237686070Y-72297380D02*
X237447975Y-73297380D01*
X237447975Y-73297380D02*
X237257499Y-72583095D01*
X237257499Y-72583095D02*
X237067023Y-73297380D01*
X237067023Y-73297380D02*
X236828928Y-72297380D01*
X236400356Y-73297380D02*
X236209880Y-73297380D01*
X236209880Y-73297380D02*
X236114642Y-73249761D01*
X236114642Y-73249761D02*
X236067023Y-73202142D01*
X236067023Y-73202142D02*
X235971785Y-73059285D01*
X235971785Y-73059285D02*
X235924166Y-72868809D01*
X235924166Y-72868809D02*
X235924166Y-72487857D01*
X235924166Y-72487857D02*
X235971785Y-72392619D01*
X235971785Y-72392619D02*
X236019404Y-72345000D01*
X236019404Y-72345000D02*
X236114642Y-72297380D01*
X236114642Y-72297380D02*
X236305118Y-72297380D01*
X236305118Y-72297380D02*
X236400356Y-72345000D01*
X236400356Y-72345000D02*
X236447975Y-72392619D01*
X236447975Y-72392619D02*
X236495594Y-72487857D01*
X236495594Y-72487857D02*
X236495594Y-72725952D01*
X236495594Y-72725952D02*
X236447975Y-72821190D01*
X236447975Y-72821190D02*
X236400356Y-72868809D01*
X236400356Y-72868809D02*
X236305118Y-72916428D01*
X236305118Y-72916428D02*
X236114642Y-72916428D01*
X236114642Y-72916428D02*
X236019404Y-72868809D01*
X236019404Y-72868809D02*
X235971785Y-72821190D01*
X235971785Y-72821190D02*
X235924166Y-72725952D01*
X204712500Y-125220000D02*
X204212500Y-125720000D01*
X204712500Y-121720000D02*
X204212500Y-121220000D01*
X204212500Y-125720000D02*
X201212500Y-125720000D01*
X204212500Y-121220000D02*
X201712500Y-121220000D01*
X201212500Y-125720000D02*
X200712500Y-125220000D01*
X200712500Y-124220000D02*
X200712500Y-125220000D01*
X200212500Y-119720000D02*
X200212500Y-119020000D01*
X200212500Y-119020000D02*
X195712500Y-119020000D01*
X195712500Y-123720000D02*
X200212500Y-123720000D01*
X195712500Y-123120000D02*
X195712500Y-123720000D01*
X195712500Y-119020000D02*
X195712500Y-119520000D01*
X200212500Y-119720000D02*
G75*
G03*
X201712500Y-121220000I1500000J0D01*
G01*
X200712500Y-124220000D02*
G75*
G03*
X200212500Y-123720000I-500000J0D01*
G01*
X230812500Y-89855000D02*
X231312500Y-89355000D01*
X230812500Y-93355000D02*
X231312500Y-93855000D01*
X231312500Y-89355000D02*
X234312500Y-89355000D01*
X231312500Y-93855000D02*
X233812500Y-93855000D01*
X234312500Y-89355000D02*
X234812500Y-89855000D01*
X234812500Y-90855000D02*
X234812500Y-89855000D01*
X235312500Y-95355000D02*
X235312500Y-96055000D01*
X235312500Y-96055000D02*
X239812500Y-96055000D01*
X239812500Y-91355000D02*
X235312500Y-91355000D01*
X239812500Y-91955000D02*
X239812500Y-91355000D01*
X239812500Y-96055000D02*
X239812500Y-95555000D01*
X235312500Y-95355000D02*
G75*
G03*
X233812500Y-93855000I-1500000J0D01*
G01*
X234812500Y-90855000D02*
G75*
G03*
X235312500Y-91355000I500000J0D01*
G01*
X186587258Y-127029991D02*
X186233705Y-127642363D01*
X185681392Y-123649250D02*
X185069019Y-123295697D01*
X186233705Y-127642363D02*
X183335927Y-128418820D01*
X185069019Y-123295697D02*
X182654205Y-123942745D01*
X183335927Y-128418820D02*
X182723555Y-128065267D01*
X182464736Y-127099341D02*
X182723555Y-128065267D01*
X180817087Y-122882084D02*
X180635914Y-122205936D01*
X180635914Y-122205936D02*
X176289248Y-123370622D01*
X177505697Y-127910473D02*
X181852364Y-126745788D01*
X177350406Y-127330918D02*
X177505697Y-127910473D01*
X176289248Y-123370622D02*
X176418657Y-123853585D01*
X180817087Y-122882084D02*
G75*
G03*
X182654205Y-123942745I1448889J388228D01*
G01*
X182464735Y-127099341D02*
G75*
G03*
X181852364Y-126745789I-482962J-129410D01*
G01*
X248812500Y-79410000D02*
X249312500Y-78910000D01*
X248812500Y-82910000D02*
X249312500Y-83410000D01*
X249312500Y-78910000D02*
X252312500Y-78910000D01*
X249312500Y-83410000D02*
X251812500Y-83410000D01*
X252312500Y-78910000D02*
X252812500Y-79410000D01*
X252812500Y-80410000D02*
X252812500Y-79410000D01*
X253312500Y-84910000D02*
X253312500Y-85610000D01*
X253312500Y-85610000D02*
X257812500Y-85610000D01*
X257812500Y-80910000D02*
X253312500Y-80910000D01*
X257812500Y-81510000D02*
X257812500Y-80910000D01*
X257812500Y-85610000D02*
X257812500Y-85110000D01*
X253312500Y-84910000D02*
G75*
G03*
X251812500Y-83410000I-1500000J0D01*
G01*
X252812500Y-80410000D02*
G75*
G03*
X253312500Y-80910000I500000J0D01*
G01*
X240990000Y-103850990D02*
X242490000Y-103850990D01*
X240990000Y-103850990D02*
X240990000Y-98450990D01*
X241240000Y-101650990D02*
X242240000Y-101650990D01*
X242240000Y-101650990D02*
X241740000Y-100750990D01*
X241740000Y-100750990D02*
X241240000Y-101650990D01*
X241240000Y-100650990D02*
X242240000Y-100650990D01*
X240990000Y-98450990D02*
X242490000Y-98450990D01*
X242490000Y-98450990D02*
X242490000Y-103850990D01*
X169320000Y-100000990D02*
X170820000Y-100000990D01*
X169320000Y-100000990D02*
X169320000Y-94600990D01*
X169570000Y-97800990D02*
X170570000Y-97800990D01*
X170570000Y-97800990D02*
X170070000Y-96900990D01*
X170070000Y-96900990D02*
X169570000Y-97800990D01*
X169570000Y-96800990D02*
X170570000Y-96800990D01*
X169320000Y-94600990D02*
X170820000Y-94600990D01*
X170820000Y-94600990D02*
X170820000Y-100000990D01*
X223090000Y-101020990D02*
X224590000Y-101020990D01*
X223090000Y-101020990D02*
X223090000Y-95620990D01*
X223340000Y-98820990D02*
X224340000Y-98820990D01*
X224340000Y-98820990D02*
X223840000Y-97920990D01*
X223840000Y-97920990D02*
X223340000Y-98820990D01*
X223340000Y-97820990D02*
X224340000Y-97820990D01*
X223090000Y-95620990D02*
X224590000Y-95620990D01*
X224590000Y-95620990D02*
X224590000Y-101020990D01*
X169320000Y-93560990D02*
X170820000Y-93560990D01*
X169320000Y-93560990D02*
X169320000Y-88160990D01*
X169570000Y-91360990D02*
X170570000Y-91360990D01*
X170570000Y-91360990D02*
X170070000Y-90460990D01*
X170070000Y-90460990D02*
X169570000Y-91360990D01*
X169570000Y-90360990D02*
X170570000Y-90360990D01*
X169320000Y-88160990D02*
X170820000Y-88160990D01*
X170820000Y-88160990D02*
X170820000Y-93560990D01*
X188210000Y-105960990D02*
X189710000Y-105960990D01*
X188210000Y-105960990D02*
X188210000Y-100560990D01*
X188460000Y-103760990D02*
X189460000Y-103760990D01*
X189460000Y-103760990D02*
X188960000Y-102860990D01*
X188960000Y-102860990D02*
X188460000Y-103760990D01*
X188460000Y-102760990D02*
X189460000Y-102760990D01*
X188210000Y-100560990D02*
X189710000Y-100560990D01*
X189710000Y-100560990D02*
X189710000Y-105960990D01*
X186970000Y-69790990D02*
X188470000Y-69790990D01*
X186970000Y-69790990D02*
X186970000Y-64390990D01*
X187220000Y-67590990D02*
X188220000Y-67590990D01*
X188220000Y-67590990D02*
X187720000Y-66690990D01*
X187720000Y-66690990D02*
X187220000Y-67590990D01*
X187220000Y-66590990D02*
X188220000Y-66590990D01*
X186970000Y-64390990D02*
X188470000Y-64390990D01*
X188470000Y-64390990D02*
X188470000Y-69790990D01*
X259070000Y-108690990D02*
X260570000Y-108690990D01*
X259070000Y-108690990D02*
X259070000Y-103290990D01*
X259320000Y-106490990D02*
X260320000Y-106490990D01*
X260320000Y-106490990D02*
X259820000Y-105590990D01*
X259820000Y-105590990D02*
X259320000Y-106490990D01*
X259320000Y-105490990D02*
X260320000Y-105490990D01*
X259070000Y-103290990D02*
X260570000Y-103290990D01*
X260570000Y-103290990D02*
X260570000Y-108690990D01*
X259070000Y-74440990D02*
X260570000Y-74440990D01*
X259070000Y-74440990D02*
X259070000Y-69040990D01*
X259320000Y-72240990D02*
X260320000Y-72240990D01*
X260320000Y-72240990D02*
X259820000Y-71340990D01*
X259820000Y-71340990D02*
X259320000Y-72240990D01*
X259320000Y-71240990D02*
X260320000Y-71240990D01*
X259070000Y-69040990D02*
X260570000Y-69040990D01*
X260570000Y-69040990D02*
X260570000Y-74440990D01*
X224400000Y-61780000D02*
X224400000Y-67180000D01*
X222900000Y-61780000D02*
X224400000Y-61780000D01*
X223150000Y-63980000D02*
X224150000Y-63980000D01*
X223650000Y-64080000D02*
X223150000Y-64980000D01*
X224150000Y-64980000D02*
X223650000Y-64080000D01*
X223150000Y-64980000D02*
X224150000Y-64980000D01*
X222900000Y-67180000D02*
X222900000Y-61780000D01*
X222900000Y-67180000D02*
X224400000Y-67180000D01*
X205060000Y-74190990D02*
X206560000Y-74190990D01*
X205060000Y-74190990D02*
X205060000Y-68790990D01*
X205310000Y-71990990D02*
X206310000Y-71990990D01*
X206310000Y-71990990D02*
X205810000Y-71090990D01*
X205810000Y-71090990D02*
X205310000Y-71990990D01*
X205310000Y-70990990D02*
X206310000Y-70990990D01*
X205060000Y-68790990D02*
X206560000Y-68790990D01*
X206560000Y-68790990D02*
X206560000Y-74190990D01*
X205060000Y-67720990D02*
X206560000Y-67720990D01*
X205060000Y-67720990D02*
X205060000Y-62320990D01*
X205310000Y-65520990D02*
X206310000Y-65520990D01*
X206310000Y-65520990D02*
X205810000Y-64620990D01*
X205810000Y-64620990D02*
X205310000Y-65520990D01*
X205310000Y-64520990D02*
X206310000Y-64520990D01*
X205060000Y-62320990D02*
X206560000Y-62320990D01*
X206560000Y-62320990D02*
X206560000Y-67720990D01*
X203880000Y-103950990D02*
X205380000Y-103950990D01*
X203880000Y-103950990D02*
X203880000Y-98550990D01*
X204130000Y-101750990D02*
X205130000Y-101750990D01*
X205130000Y-101750990D02*
X204630000Y-100850990D01*
X204630000Y-100850990D02*
X204130000Y-101750990D01*
X204130000Y-100750990D02*
X205130000Y-100750990D01*
X203880000Y-98550990D02*
X205380000Y-98550990D01*
X205380000Y-98550990D02*
X205380000Y-103950990D01*
X240990000Y-69560990D02*
X242490000Y-69560990D01*
X240990000Y-69560990D02*
X240990000Y-64160990D01*
X241240000Y-67360990D02*
X242240000Y-67360990D01*
X242240000Y-67360990D02*
X241740000Y-66460990D01*
X241740000Y-66460990D02*
X241240000Y-67360990D01*
X241240000Y-66360990D02*
X242240000Y-66360990D01*
X240990000Y-64160990D02*
X242490000Y-64160990D01*
X242490000Y-64160990D02*
X242490000Y-69560990D01*
X240990000Y-87790990D02*
X242490000Y-87790990D01*
X240990000Y-87790990D02*
X240990000Y-82390990D01*
X241240000Y-85590990D02*
X242240000Y-85590990D01*
X242240000Y-85590990D02*
X241740000Y-84690990D01*
X241740000Y-84690990D02*
X241240000Y-85590990D01*
X241240000Y-84590990D02*
X242240000Y-84590990D01*
X240990000Y-82390990D02*
X242490000Y-82390990D01*
X242490000Y-82390990D02*
X242490000Y-87790990D01*
X206320000Y-103970990D02*
X207820000Y-103970990D01*
X206320000Y-103970990D02*
X206320000Y-98570990D01*
X206570000Y-101770990D02*
X207570000Y-101770990D01*
X207570000Y-101770990D02*
X207070000Y-100870990D01*
X207070000Y-100870990D02*
X206570000Y-101770990D01*
X206570000Y-100770990D02*
X207570000Y-100770990D01*
X206320000Y-98570990D02*
X207820000Y-98570990D01*
X207820000Y-98570990D02*
X207820000Y-103970990D01*
X169320000Y-87190990D02*
X170820000Y-87190990D01*
X169320000Y-87190990D02*
X169320000Y-81790990D01*
X169570000Y-84990990D02*
X170570000Y-84990990D01*
X170570000Y-84990990D02*
X170070000Y-84090990D01*
X170070000Y-84090990D02*
X169570000Y-84990990D01*
X169570000Y-83990990D02*
X170570000Y-83990990D01*
X169320000Y-81790990D02*
X170820000Y-81790990D01*
X170820000Y-81790990D02*
X170820000Y-87190990D01*
X156394104Y-128902051D02*
X155711092Y-128719038D01*
X159425193Y-127152051D02*
X159608206Y-126469038D01*
X155711092Y-128719038D02*
X154211092Y-126120962D01*
X159608206Y-126469038D02*
X158358206Y-124303975D01*
X154211092Y-126120962D02*
X154394104Y-125437949D01*
X155260130Y-124937949D02*
X154394104Y-125437949D01*
X158907244Y-122254936D02*
X159513462Y-121904936D01*
X159513462Y-121904936D02*
X157263462Y-118007822D01*
X153193142Y-120357822D02*
X155443142Y-124254936D01*
X153712758Y-120057822D02*
X153193142Y-120357822D01*
X157263462Y-118007822D02*
X156830449Y-118257822D01*
X158907245Y-122254938D02*
G75*
G03*
X158358207Y-124303975I749999J-1299037D01*
G01*
X155260129Y-124937948D02*
G75*
G03*
X155443142Y-124254936I-249999J433012D01*
G01*
X230812500Y-55850000D02*
X231312500Y-55350000D01*
X230812500Y-59350000D02*
X231312500Y-59850000D01*
X231312500Y-55350000D02*
X234312500Y-55350000D01*
X231312500Y-59850000D02*
X233812500Y-59850000D01*
X234312500Y-55350000D02*
X234812500Y-55850000D01*
X234812500Y-56850000D02*
X234812500Y-55850000D01*
X235312500Y-61350000D02*
X235312500Y-62050000D01*
X235312500Y-62050000D02*
X239812500Y-62050000D01*
X239812500Y-57350000D02*
X235312500Y-57350000D01*
X239812500Y-57950000D02*
X239812500Y-57350000D01*
X239812500Y-62050000D02*
X239812500Y-61550000D01*
X235312500Y-61350000D02*
G75*
G03*
X233812500Y-59850000I-1500000J0D01*
G01*
X234812500Y-56850000D02*
G75*
G03*
X235312500Y-57350000I500000J0D01*
G01*
X176812500Y-58230000D02*
X177312500Y-57730000D01*
X176812500Y-61730000D02*
X177312500Y-62230000D01*
X177312500Y-57730000D02*
X180312500Y-57730000D01*
X177312500Y-62230000D02*
X179812500Y-62230000D01*
X180312500Y-57730000D02*
X180812500Y-58230000D01*
X180812500Y-59230000D02*
X180812500Y-58230000D01*
X181312500Y-63730000D02*
X181312500Y-64430000D01*
X181312500Y-64430000D02*
X185812500Y-64430000D01*
X185812500Y-59730000D02*
X181312500Y-59730000D01*
X185812500Y-60330000D02*
X185812500Y-59730000D01*
X185812500Y-64430000D02*
X185812500Y-63930000D01*
X181312500Y-63730000D02*
G75*
G03*
X179812500Y-62230000I-1500000J0D01*
G01*
X180812500Y-59230000D02*
G75*
G03*
X181312500Y-59730000I500000J0D01*
G01*
X194812500Y-72850000D02*
X195312500Y-72350000D01*
X194812500Y-76350000D02*
X195312500Y-76850000D01*
X195312500Y-72350000D02*
X198312500Y-72350000D01*
X195312500Y-76850000D02*
X197812500Y-76850000D01*
X198312500Y-72350000D02*
X198812500Y-72850000D01*
X198812500Y-73850000D02*
X198812500Y-72850000D01*
X199312500Y-78350000D02*
X199312500Y-79050000D01*
X199312500Y-79050000D02*
X203812500Y-79050000D01*
X203812500Y-74350000D02*
X199312500Y-74350000D01*
X203812500Y-74950000D02*
X203812500Y-74350000D01*
X203812500Y-79050000D02*
X203812500Y-78550000D01*
X199312500Y-78350000D02*
G75*
G03*
X197812500Y-76850000I-1500000J0D01*
G01*
X198812500Y-73850000D02*
G75*
G03*
X199312500Y-74350000I500000J0D01*
G01*
X212812500Y-53490000D02*
X213312500Y-52990000D01*
X212812500Y-56990000D02*
X213312500Y-57490000D01*
X213312500Y-52990000D02*
X216312500Y-52990000D01*
X213312500Y-57490000D02*
X215812500Y-57490000D01*
X216312500Y-52990000D02*
X216812500Y-53490000D01*
X216812500Y-54490000D02*
X216812500Y-53490000D01*
X217312500Y-58990000D02*
X217312500Y-59690000D01*
X217312500Y-59690000D02*
X221812500Y-59690000D01*
X221812500Y-54990000D02*
X217312500Y-54990000D01*
X221812500Y-55590000D02*
X221812500Y-54990000D01*
X221812500Y-59690000D02*
X221812500Y-59190000D01*
X217312500Y-58990000D02*
G75*
G03*
X215812500Y-57490000I-1500000J0D01*
G01*
X216812500Y-54490000D02*
G75*
G03*
X217312500Y-54990000I500000J0D01*
G01*
X176812500Y-92230000D02*
X177312500Y-91730000D01*
X176812500Y-95730000D02*
X177312500Y-96230000D01*
X177312500Y-91730000D02*
X180312500Y-91730000D01*
X177312500Y-96230000D02*
X179812500Y-96230000D01*
X180312500Y-91730000D02*
X180812500Y-92230000D01*
X180812500Y-93230000D02*
X180812500Y-92230000D01*
X181312500Y-97730000D02*
X181312500Y-98430000D01*
X181312500Y-98430000D02*
X185812500Y-98430000D01*
X185812500Y-93730000D02*
X181312500Y-93730000D01*
X185812500Y-94330000D02*
X185812500Y-93730000D01*
X185812500Y-98430000D02*
X185812500Y-97930000D01*
X181312500Y-97730000D02*
G75*
G03*
X179812500Y-96230000I-1500000J0D01*
G01*
X180812500Y-93230000D02*
G75*
G03*
X181312500Y-93730000I500000J0D01*
G01*
X266812500Y-79410000D02*
X267312500Y-78910000D01*
X266812500Y-82910000D02*
X267312500Y-83410000D01*
X267312500Y-78910000D02*
X270312500Y-78910000D01*
X267312500Y-83410000D02*
X269812500Y-83410000D01*
X270312500Y-78910000D02*
X270812500Y-79410000D01*
X270812500Y-80410000D02*
X270812500Y-79410000D01*
X271312500Y-84910000D02*
X271312500Y-85610000D01*
X271312500Y-85610000D02*
X275812500Y-85610000D01*
X275812500Y-80910000D02*
X271312500Y-80910000D01*
X275812500Y-81510000D02*
X275812500Y-80910000D01*
X275812500Y-85610000D02*
X275812500Y-85110000D01*
X271312500Y-84910000D02*
G75*
G03*
X269812500Y-83410000I-1500000J0D01*
G01*
X270812500Y-80410000D02*
G75*
G03*
X271312500Y-80910000I500000J0D01*
G01*
X212812500Y-87480000D02*
X213312500Y-86980000D01*
X212812500Y-90980000D02*
X213312500Y-91480000D01*
X213312500Y-86980000D02*
X216312500Y-86980000D01*
X213312500Y-91480000D02*
X215812500Y-91480000D01*
X216312500Y-86980000D02*
X216812500Y-87480000D01*
X216812500Y-88480000D02*
X216812500Y-87480000D01*
X217312500Y-92980000D02*
X217312500Y-93680000D01*
X217312500Y-93680000D02*
X221812500Y-93680000D01*
X221812500Y-88980000D02*
X217312500Y-88980000D01*
X221812500Y-89580000D02*
X221812500Y-88980000D01*
X221812500Y-93680000D02*
X221812500Y-93180000D01*
X217312500Y-92980000D02*
G75*
G03*
X215812500Y-91480000I-1500000J0D01*
G01*
X216812500Y-88480000D02*
G75*
G03*
X217312500Y-88980000I500000J0D01*
G01*
X176812500Y-75230000D02*
X177312500Y-74730000D01*
X176812500Y-78730000D02*
X177312500Y-79230000D01*
X177312500Y-74730000D02*
X180312500Y-74730000D01*
X177312500Y-79230000D02*
X179812500Y-79230000D01*
X180312500Y-74730000D02*
X180812500Y-75230000D01*
X180812500Y-76230000D02*
X180812500Y-75230000D01*
X181312500Y-80730000D02*
X181312500Y-81430000D01*
X181312500Y-81430000D02*
X185812500Y-81430000D01*
X185812500Y-76730000D02*
X181312500Y-76730000D01*
X185812500Y-77330000D02*
X185812500Y-76730000D01*
X185812500Y-81430000D02*
X185812500Y-80930000D01*
X181312500Y-80730000D02*
G75*
G03*
X179812500Y-79230000I-1500000J0D01*
G01*
X180812500Y-76230000D02*
G75*
G03*
X181312500Y-76730000I500000J0D01*
G01*
X266812500Y-96430000D02*
X267312500Y-95930000D01*
X266812500Y-99930000D02*
X267312500Y-100430000D01*
X267312500Y-95930000D02*
X270312500Y-95930000D01*
X267312500Y-100430000D02*
X269812500Y-100430000D01*
X270312500Y-95930000D02*
X270812500Y-96430000D01*
X270812500Y-97430000D02*
X270812500Y-96430000D01*
X271312500Y-101930000D02*
X271312500Y-102630000D01*
X271312500Y-102630000D02*
X275812500Y-102630000D01*
X275812500Y-97930000D02*
X271312500Y-97930000D01*
X275812500Y-98530000D02*
X275812500Y-97930000D01*
X275812500Y-102630000D02*
X275812500Y-102130000D01*
X271312500Y-101930000D02*
G75*
G03*
X269812500Y-100430000I-1500000J0D01*
G01*
X270812500Y-97430000D02*
G75*
G03*
X271312500Y-97930000I500000J0D01*
G01*
X194812500Y-55850000D02*
X195312500Y-55350000D01*
X194812500Y-59350000D02*
X195312500Y-59850000D01*
X195312500Y-55350000D02*
X198312500Y-55350000D01*
X195312500Y-59850000D02*
X197812500Y-59850000D01*
X198312500Y-55350000D02*
X198812500Y-55850000D01*
X198812500Y-56850000D02*
X198812500Y-55850000D01*
X199312500Y-61350000D02*
X199312500Y-62050000D01*
X199312500Y-62050000D02*
X203812500Y-62050000D01*
X203812500Y-57350000D02*
X199312500Y-57350000D01*
X203812500Y-57950000D02*
X203812500Y-57350000D01*
X203812500Y-62050000D02*
X203812500Y-61550000D01*
X199312500Y-61350000D02*
G75*
G03*
X197812500Y-59850000I-1500000J0D01*
G01*
X198812500Y-56850000D02*
G75*
G03*
X199312500Y-57350000I500000J0D01*
G01*
X248812500Y-62410000D02*
X249312500Y-61910000D01*
X248812500Y-65910000D02*
X249312500Y-66410000D01*
X249312500Y-61910000D02*
X252312500Y-61910000D01*
X249312500Y-66410000D02*
X251812500Y-66410000D01*
X252312500Y-61910000D02*
X252812500Y-62410000D01*
X252812500Y-63410000D02*
X252812500Y-62410000D01*
X253312500Y-67910000D02*
X253312500Y-68610000D01*
X253312500Y-68610000D02*
X257812500Y-68610000D01*
X257812500Y-63910000D02*
X253312500Y-63910000D01*
X257812500Y-64510000D02*
X257812500Y-63910000D01*
X257812500Y-68610000D02*
X257812500Y-68110000D01*
X253312500Y-67910000D02*
G75*
G03*
X251812500Y-66410000I-1500000J0D01*
G01*
X252812500Y-63410000D02*
G75*
G03*
X253312500Y-63910000I500000J0D01*
G01*
X216812500Y-71480000D02*
G75*
G03*
X217312500Y-71980000I500000J0D01*
G01*
X217312500Y-75980000D02*
G75*
G03*
X215812500Y-74480000I-1500000J0D01*
G01*
X221812500Y-76680000D02*
X221812500Y-76180000D01*
X221812500Y-72580000D02*
X221812500Y-71980000D01*
X221812500Y-71980000D02*
X217312500Y-71980000D01*
X217312500Y-76680000D02*
X221812500Y-76680000D01*
X217312500Y-75980000D02*
X217312500Y-76680000D01*
X216812500Y-71480000D02*
X216812500Y-70480000D01*
X216312500Y-69980000D02*
X216812500Y-70480000D01*
X213312500Y-74480000D02*
X215812500Y-74480000D01*
X213312500Y-69980000D02*
X216312500Y-69980000D01*
X212812500Y-73980000D02*
X213312500Y-74480000D01*
X212812500Y-70480000D02*
X213312500Y-69980000D01*
X266812500Y-62410000D02*
X267312500Y-61910000D01*
X266812500Y-65910000D02*
X267312500Y-66410000D01*
X267312500Y-61910000D02*
X270312500Y-61910000D01*
X267312500Y-66410000D02*
X269812500Y-66410000D01*
X270312500Y-61910000D02*
X270812500Y-62410000D01*
X270812500Y-63410000D02*
X270812500Y-62410000D01*
X271312500Y-67910000D02*
X271312500Y-68610000D01*
X271312500Y-68610000D02*
X275812500Y-68610000D01*
X275812500Y-63910000D02*
X271312500Y-63910000D01*
X275812500Y-64510000D02*
X275812500Y-63910000D01*
X275812500Y-68610000D02*
X275812500Y-68110000D01*
X271312500Y-67910000D02*
G75*
G03*
X269812500Y-66410000I-1500000J0D01*
G01*
X270812500Y-63410000D02*
G75*
G03*
X271312500Y-63910000I500000J0D01*
G01*
X194812500Y-89855000D02*
X195312500Y-89355000D01*
X194812500Y-93355000D02*
X195312500Y-93855000D01*
X195312500Y-89355000D02*
X198312500Y-89355000D01*
X195312500Y-93855000D02*
X197812500Y-93855000D01*
X198312500Y-89355000D02*
X198812500Y-89855000D01*
X198812500Y-90855000D02*
X198812500Y-89855000D01*
X199312500Y-95355000D02*
X199312500Y-96055000D01*
X199312500Y-96055000D02*
X203812500Y-96055000D01*
X203812500Y-91355000D02*
X199312500Y-91355000D01*
X203812500Y-91955000D02*
X203812500Y-91355000D01*
X203812500Y-96055000D02*
X203812500Y-95555000D01*
X199312500Y-95355000D02*
G75*
G03*
X197812500Y-93855000I-1500000J0D01*
G01*
X198812500Y-90855000D02*
G75*
G03*
X199312500Y-91355000I500000J0D01*
G01*
X248812500Y-96415000D02*
X249312500Y-95915000D01*
X248812500Y-99915000D02*
X249312500Y-100415000D01*
X249312500Y-95915000D02*
X252312500Y-95915000D01*
X249312500Y-100415000D02*
X251812500Y-100415000D01*
X252312500Y-95915000D02*
X252812500Y-96415000D01*
X252812500Y-97415000D02*
X252812500Y-96415000D01*
X253312500Y-101915000D02*
X253312500Y-102615000D01*
X253312500Y-102615000D02*
X257812500Y-102615000D01*
X257812500Y-97915000D02*
X253312500Y-97915000D01*
X257812500Y-98515000D02*
X257812500Y-97915000D01*
X257812500Y-102615000D02*
X257812500Y-102115000D01*
X253312500Y-101915000D02*
G75*
G03*
X251812500Y-100415000I-1500000J0D01*
G01*
X252812500Y-97415000D02*
G75*
G03*
X253312500Y-97915000I500000J0D01*
G01*
X169320000Y-80320990D02*
X170820000Y-80320990D01*
X169320000Y-80320990D02*
X169320000Y-74920990D01*
X169570000Y-78120990D02*
X170570000Y-78120990D01*
X170570000Y-78120990D02*
X170070000Y-77220990D01*
X170070000Y-77220990D02*
X169570000Y-78120990D01*
X169570000Y-77120990D02*
X170570000Y-77120990D01*
X169320000Y-74920990D02*
X170820000Y-74920990D01*
X170820000Y-74920990D02*
X170820000Y-80320990D01*
X230812500Y-72850000D02*
X231312500Y-72350000D01*
X230812500Y-76350000D02*
X231312500Y-76850000D01*
X231312500Y-72350000D02*
X234312500Y-72350000D01*
X231312500Y-76850000D02*
X233812500Y-76850000D01*
X234312500Y-72350000D02*
X234812500Y-72850000D01*
X234812500Y-73850000D02*
X234812500Y-72850000D01*
X235312500Y-78350000D02*
X235312500Y-79050000D01*
X235312500Y-79050000D02*
X239812500Y-79050000D01*
X239812500Y-74350000D02*
X235312500Y-74350000D01*
X239812500Y-74950000D02*
X239812500Y-74350000D01*
X239812500Y-79050000D02*
X239812500Y-78550000D01*
X235312500Y-78350000D02*
G75*
G03*
X233812500Y-76850000I-1500000J0D01*
G01*
X234812500Y-73850000D02*
G75*
G03*
X235312500Y-74350000I500000J0D01*
G01*
X186950000Y-86990990D02*
X188450000Y-86990990D01*
X186950000Y-86990990D02*
X186950000Y-81590990D01*
X187200000Y-84790990D02*
X188200000Y-84790990D01*
X188200000Y-84790990D02*
X187700000Y-83890990D01*
X187700000Y-83890990D02*
X187200000Y-84790990D01*
X187200000Y-83790990D02*
X188200000Y-83790990D01*
X186950000Y-81590990D02*
X188450000Y-81590990D01*
X188450000Y-81590990D02*
X188450000Y-86990990D01*
X205060000Y-91550990D02*
X206560000Y-91550990D01*
X205060000Y-91550990D02*
X205060000Y-86150990D01*
X205310000Y-89350990D02*
X206310000Y-89350990D01*
X206310000Y-89350990D02*
X205810000Y-88450990D01*
X205810000Y-88450990D02*
X205310000Y-89350990D01*
X205310000Y-88350990D02*
X206310000Y-88350990D01*
X205060000Y-86150990D02*
X206560000Y-86150990D01*
X206560000Y-86150990D02*
X206560000Y-91550990D01*
X223090000Y-82510990D02*
X224590000Y-82510990D01*
X223090000Y-82510990D02*
X223090000Y-77110990D01*
X223340000Y-80310990D02*
X224340000Y-80310990D01*
X224340000Y-80310990D02*
X223840000Y-79410990D01*
X223840000Y-79410990D02*
X223340000Y-80310990D01*
X223340000Y-79310990D02*
X224340000Y-79310990D01*
X223090000Y-77110990D02*
X224590000Y-77110990D01*
X224590000Y-77110990D02*
X224590000Y-82510990D01*
X259070000Y-91780990D02*
X260570000Y-91780990D01*
X259070000Y-91780990D02*
X259070000Y-86380990D01*
X259320000Y-89580990D02*
X260320000Y-89580990D01*
X260320000Y-89580990D02*
X259820000Y-88680990D01*
X259820000Y-88680990D02*
X259320000Y-89580990D01*
X259320000Y-88580990D02*
X260320000Y-88580990D01*
X259070000Y-86380990D02*
X260570000Y-86380990D01*
X260570000Y-86380990D02*
X260570000Y-91780990D01*
M02*
