M48
; DRILL file {KiCad (7.0.0-0)} date Friday, 28 April 2023 at 12:14:36
; FORMAT={-:-/ absolute / inch / decimal}
; #@! TF.CreationDate,2023-04-28T12:14:36+03:00
; #@! TF.GenerationSoftware,Kicad,Pcbnew,(7.0.0-0)
; #@! TF.FileFunction,Plated,1,2,PTH
FMAT,2
INCH
; #@! TA.AperFunction,Plated,PTH,ViaDrill
T1C0.0157
; #@! TA.AperFunction,Plated,PTH,ComponentDrill
T2C0.0320
; #@! TA.AperFunction,Plated,PTH,ComponentDrill
T3C0.0394
; #@! TA.AperFunction,Plated,PTH,ComponentDrill
T4C0.0500
; #@! TA.AperFunction,Plated,PTH,ComponentDrill
T5C0.0512
; #@! TA.AperFunction,Plated,PTH,ComponentDrill
T6C0.0866
%
G90
G05
T1
X6.3528Y-4.6181
X6.5831Y-3.9355
X6.75Y-3.7496
X6.811Y-4.4252
X6.8256Y-3.1744
X6.8567Y-3.6036
X6.9689Y-4.6477
X6.9894Y-3.3611
X7.2449Y-4.026
X7.2531Y-2.6993
X7.2744Y-3.3477
X7.4551Y-3.1634
X7.4752Y-3.7563
X7.698Y-4.554
X7.8307Y-3.4878
X7.8394Y-2.8331
X7.9205Y-3.9453
X7.9579Y-3.2622
X8.0035Y-2.6083
X8.1331Y-3.841
X8.1949Y-2.7343
X8.2075Y-4.1811
X8.2232Y-3.3949
X8.5224Y-3.3977
X8.5283Y-2.7398
X8.687Y-3.1737
X8.687Y-3.8678
X8.711Y-2.4851
X8.8925Y-2.5591
X8.9744Y-3.7618
X9.0123Y-3.1406
X9.0732Y-3.9201
X9.0874Y-2.593
X9.1181Y-3.2874
X9.4024Y-2.6162
X9.4079Y-3.9374
X9.4106Y-3.2674
X9.6094Y-3.9284
X9.6209Y-3.2792
X9.652Y-2.5264
X10.1047Y-4.2107
X10.1075Y-3.5567
X10.1315Y-2.8922
X10.1575Y-4.1685
X10.1882Y-3.3693
X10.315Y-2.4792
X10.7827Y-3.5784
X10.8496Y-2.8331
X10.863Y-4.1894
T2
X5.9311Y-2.4001
X5.9311Y-2.5001
X5.9311Y-2.6001
X5.9311Y-2.7001
X5.9311Y-2.8001
X5.9311Y-2.9001
X5.9311Y-3.0001
X5.9311Y-3.1001
X5.9311Y-3.2001
X5.9311Y-3.3001
X5.9311Y-3.4001
X5.9311Y-3.5001
X6.081Y-3.6996
X6.181Y-3.6996
X6.281Y-3.6996
X6.381Y-3.6996
X6.5303Y-2.4001
X6.5303Y-2.5001
X6.5303Y-2.6001
X6.5303Y-2.7001
X6.5303Y-2.8001
X6.5303Y-2.9001
X6.5303Y-3.0001
X6.5303Y-3.1001
X6.5303Y-3.2001
X6.5303Y-3.3001
X6.5303Y-3.4001
X6.5303Y-3.5001
T4
X6.5816Y-4.739
X6.6084Y-4.9508
X6.843Y-2.7453
X6.843Y-3.4146
X6.843Y-4.0839
X7.0399Y-2.828
X7.0399Y-3.4972
X7.0399Y-4.1665
X7.1313Y-4.5044
X7.3429Y-4.5333
X7.5517Y-2.6516
X7.5517Y-3.3209
X7.5517Y-3.9904
X7.7485Y-2.7343
X7.7485Y-3.4035
X7.7485Y-4.073
X7.9808Y-4.3945
X8.1777Y-4.4772
X8.2603Y-2.5587
X8.2603Y-3.2276
X8.2603Y-3.8969
X8.4572Y-2.6413
X8.4572Y-3.3102
X8.4572Y-3.9795
X8.969Y-2.6516
X8.969Y-3.3209
X8.969Y-3.9904
X9.1658Y-2.7343
X9.1658Y-3.4035
X9.1658Y-4.073
X9.6777Y-2.9098
X9.6777Y-3.5791
X9.6777Y-4.2486
X9.8745Y-2.9925
X9.8745Y-3.6618
X9.8745Y-4.3313
X10.3863Y-2.9098
X10.3863Y-3.5791
X10.3863Y-4.2492
X10.5832Y-2.9925
X10.5832Y-3.6618
X10.5832Y-4.3319
T5
X5.9328Y-3.6303
X5.9328Y-3.8862
T6
X6.6765Y-2.7098
X6.6765Y-4.4776
X8.6182Y-4.2984
X8.808Y-2.7441
X10.2304Y-3.0976
X10.2304Y-3.7724
T3
G00X5.9769Y-4.0394
M15
G01X5.9966Y-4.0394
M16
G05
G00X6.095Y-4.0394
M15
G01X6.1147Y-4.0394
M16
G05
G00X6.2525Y-4.0394
M15
G01X6.2721Y-4.0394
M16
G05
G00X6.3115Y-4.2047
M15
G01X6.3312Y-4.2047
M16
G05
T0
M30
