%TF.GenerationSoftware,KiCad,Pcbnew,(6.0.8-1)-1*%
%TF.CreationDate,2023-02-27T11:26:25+02:00*%
%TF.ProjectId,sweepv2,73776565-7076-4322-9e6b-696361645f70,rev?*%
%TF.SameCoordinates,Original*%
%TF.FileFunction,Legend,Bot*%
%TF.FilePolarity,Positive*%
%FSLAX46Y46*%
G04 Gerber Fmt 4.6, Leading zero omitted, Abs format (unit mm)*
G04 Created by KiCad (PCBNEW (6.0.8-1)-1) date 2023-02-27 11:26:25*
%MOMM*%
%LPD*%
G01*
G04 APERTURE LIST*
%ADD10C,0.120000*%
%ADD11C,0.300000*%
%ADD12C,0.125000*%
%ADD13C,0.150000*%
%ADD14C,0.100000*%
%ADD15C,0.200000*%
%ADD16C,0.010000*%
G04 APERTURE END LIST*
D10*
X226822000Y-50419000D02*
X233426000Y-50419000D01*
X233426000Y-50419000D02*
X233426000Y-53340000D01*
X233426000Y-53340000D02*
X226822000Y-53340000D01*
X226822000Y-53340000D02*
X226822000Y-50419000D01*
D11*
X147648571Y-39723142D02*
X147434285Y-39794571D01*
X147077142Y-39794571D01*
X146934285Y-39723142D01*
X146862857Y-39651714D01*
X146791428Y-39508857D01*
X146791428Y-39366000D01*
X146862857Y-39223142D01*
X146934285Y-39151714D01*
X147077142Y-39080285D01*
X147362857Y-39008857D01*
X147505714Y-38937428D01*
X147577142Y-38866000D01*
X147648571Y-38723142D01*
X147648571Y-38580285D01*
X147577142Y-38437428D01*
X147505714Y-38366000D01*
X147362857Y-38294571D01*
X147005714Y-38294571D01*
X146791428Y-38366000D01*
X146291428Y-38794571D02*
X146005714Y-39794571D01*
X145720000Y-39080285D01*
X145434285Y-39794571D01*
X145148571Y-38794571D01*
X144005714Y-39723142D02*
X144148571Y-39794571D01*
X144434285Y-39794571D01*
X144577142Y-39723142D01*
X144648571Y-39580285D01*
X144648571Y-39008857D01*
X144577142Y-38866000D01*
X144434285Y-38794571D01*
X144148571Y-38794571D01*
X144005714Y-38866000D01*
X143934285Y-39008857D01*
X143934285Y-39151714D01*
X144648571Y-39294571D01*
X142720000Y-39723142D02*
X142862857Y-39794571D01*
X143148571Y-39794571D01*
X143291428Y-39723142D01*
X143362857Y-39580285D01*
X143362857Y-39008857D01*
X143291428Y-38866000D01*
X143148571Y-38794571D01*
X142862857Y-38794571D01*
X142720000Y-38866000D01*
X142648571Y-39008857D01*
X142648571Y-39151714D01*
X143362857Y-39294571D01*
X142005714Y-38794571D02*
X142005714Y-40294571D01*
X142005714Y-38866000D02*
X141862857Y-38794571D01*
X141577142Y-38794571D01*
X141434285Y-38866000D01*
X141362857Y-38937428D01*
X141291428Y-39080285D01*
X141291428Y-39508857D01*
X141362857Y-39651714D01*
X141434285Y-39723142D01*
X141577142Y-39794571D01*
X141862857Y-39794571D01*
X142005714Y-39723142D01*
X139648571Y-38794571D02*
X139291428Y-39794571D01*
X138934285Y-38794571D01*
X137291428Y-38437428D02*
X137220000Y-38366000D01*
X137077142Y-38294571D01*
X136720000Y-38294571D01*
X136577142Y-38366000D01*
X136505714Y-38437428D01*
X136434285Y-38580285D01*
X136434285Y-38723142D01*
X136505714Y-38937428D01*
X137362857Y-39794571D01*
X136434285Y-39794571D01*
X135791428Y-39651714D02*
X135720000Y-39723142D01*
X135791428Y-39794571D01*
X135862857Y-39723142D01*
X135791428Y-39651714D01*
X135791428Y-39794571D01*
X135148571Y-38437428D02*
X135077142Y-38366000D01*
X134934285Y-38294571D01*
X134577142Y-38294571D01*
X134434285Y-38366000D01*
X134362857Y-38437428D01*
X134291428Y-38580285D01*
X134291428Y-38723142D01*
X134362857Y-38937428D01*
X135220000Y-39794571D01*
X134291428Y-39794571D01*
X191719285Y-80759642D02*
X191505000Y-80831071D01*
X191147857Y-80831071D01*
X191005000Y-80759642D01*
X190933571Y-80688214D01*
X190862142Y-80545357D01*
X190862142Y-80402500D01*
X190933571Y-80259642D01*
X191005000Y-80188214D01*
X191147857Y-80116785D01*
X191433571Y-80045357D01*
X191576428Y-79973928D01*
X191647857Y-79902500D01*
X191719285Y-79759642D01*
X191719285Y-79616785D01*
X191647857Y-79473928D01*
X191576428Y-79402500D01*
X191433571Y-79331071D01*
X191076428Y-79331071D01*
X190862142Y-79402500D01*
X190362142Y-79831071D02*
X190076428Y-80831071D01*
X189790714Y-80116785D01*
X189505000Y-80831071D01*
X189219285Y-79831071D01*
X188076428Y-80759642D02*
X188219285Y-80831071D01*
X188505000Y-80831071D01*
X188647857Y-80759642D01*
X188719285Y-80616785D01*
X188719285Y-80045357D01*
X188647857Y-79902500D01*
X188505000Y-79831071D01*
X188219285Y-79831071D01*
X188076428Y-79902500D01*
X188005000Y-80045357D01*
X188005000Y-80188214D01*
X188719285Y-80331071D01*
X186790714Y-80759642D02*
X186933571Y-80831071D01*
X187219285Y-80831071D01*
X187362142Y-80759642D01*
X187433571Y-80616785D01*
X187433571Y-80045357D01*
X187362142Y-79902500D01*
X187219285Y-79831071D01*
X186933571Y-79831071D01*
X186790714Y-79902500D01*
X186719285Y-80045357D01*
X186719285Y-80188214D01*
X187433571Y-80331071D01*
X186076428Y-79831071D02*
X186076428Y-81331071D01*
X186076428Y-79902500D02*
X185933571Y-79831071D01*
X185647857Y-79831071D01*
X185505000Y-79902500D01*
X185433571Y-79973928D01*
X185362142Y-80116785D01*
X185362142Y-80545357D01*
X185433571Y-80688214D01*
X185505000Y-80759642D01*
X185647857Y-80831071D01*
X185933571Y-80831071D01*
X186076428Y-80759642D01*
X183576428Y-80831071D02*
X183576428Y-79831071D01*
X183576428Y-79331071D02*
X183647857Y-79402500D01*
X183576428Y-79473928D01*
X183505000Y-79402500D01*
X183576428Y-79331071D01*
X183576428Y-79473928D01*
X182933571Y-80759642D02*
X182790714Y-80831071D01*
X182505000Y-80831071D01*
X182362142Y-80759642D01*
X182290714Y-80616785D01*
X182290714Y-80545357D01*
X182362142Y-80402500D01*
X182505000Y-80331071D01*
X182719285Y-80331071D01*
X182862142Y-80259642D01*
X182933571Y-80116785D01*
X182933571Y-80045357D01*
X182862142Y-79902500D01*
X182719285Y-79831071D01*
X182505000Y-79831071D01*
X182362142Y-79902500D01*
X180505000Y-80831071D02*
X180505000Y-79331071D01*
X180505000Y-79902500D02*
X180362142Y-79831071D01*
X180076428Y-79831071D01*
X179933571Y-79902500D01*
X179862142Y-79973928D01*
X179790714Y-80116785D01*
X179790714Y-80545357D01*
X179862142Y-80688214D01*
X179933571Y-80759642D01*
X180076428Y-80831071D01*
X180362142Y-80831071D01*
X180505000Y-80759642D01*
X178505000Y-80831071D02*
X178505000Y-80045357D01*
X178576428Y-79902500D01*
X178719285Y-79831071D01*
X179005000Y-79831071D01*
X179147857Y-79902500D01*
X178505000Y-80759642D02*
X178647857Y-80831071D01*
X179005000Y-80831071D01*
X179147857Y-80759642D01*
X179219285Y-80616785D01*
X179219285Y-80473928D01*
X179147857Y-80331071D01*
X179005000Y-80259642D01*
X178647857Y-80259642D01*
X178505000Y-80188214D01*
X177862142Y-80759642D02*
X177719285Y-80831071D01*
X177433571Y-80831071D01*
X177290714Y-80759642D01*
X177219285Y-80616785D01*
X177219285Y-80545357D01*
X177290714Y-80402500D01*
X177433571Y-80331071D01*
X177647857Y-80331071D01*
X177790714Y-80259642D01*
X177862142Y-80116785D01*
X177862142Y-80045357D01*
X177790714Y-79902500D01*
X177647857Y-79831071D01*
X177433571Y-79831071D01*
X177290714Y-79902500D01*
X176005000Y-80759642D02*
X176147857Y-80831071D01*
X176433571Y-80831071D01*
X176576428Y-80759642D01*
X176647857Y-80616785D01*
X176647857Y-80045357D01*
X176576428Y-79902500D01*
X176433571Y-79831071D01*
X176147857Y-79831071D01*
X176005000Y-79902500D01*
X175933571Y-80045357D01*
X175933571Y-80188214D01*
X176647857Y-80331071D01*
X174647857Y-80831071D02*
X174647857Y-79331071D01*
X174647857Y-80759642D02*
X174790714Y-80831071D01*
X175076428Y-80831071D01*
X175219285Y-80759642D01*
X175290714Y-80688214D01*
X175362142Y-80545357D01*
X175362142Y-80116785D01*
X175290714Y-79973928D01*
X175219285Y-79902500D01*
X175076428Y-79831071D01*
X174790714Y-79831071D01*
X174647857Y-79902500D01*
X172576428Y-80831071D02*
X172719285Y-80759642D01*
X172790714Y-80688214D01*
X172862142Y-80545357D01*
X172862142Y-80116785D01*
X172790714Y-79973928D01*
X172719285Y-79902500D01*
X172576428Y-79831071D01*
X172362142Y-79831071D01*
X172219285Y-79902500D01*
X172147857Y-79973928D01*
X172076428Y-80116785D01*
X172076428Y-80545357D01*
X172147857Y-80688214D01*
X172219285Y-80759642D01*
X172362142Y-80831071D01*
X172576428Y-80831071D01*
X171433571Y-79831071D02*
X171433571Y-80831071D01*
X171433571Y-79973928D02*
X171362142Y-79902500D01*
X171219285Y-79831071D01*
X171005000Y-79831071D01*
X170862142Y-79902500D01*
X170790714Y-80045357D01*
X170790714Y-80831071D01*
X169147857Y-79831071D02*
X168576428Y-79831071D01*
X168933571Y-79331071D02*
X168933571Y-80616785D01*
X168862142Y-80759642D01*
X168719285Y-80831071D01*
X168576428Y-80831071D01*
X168076428Y-80831071D02*
X168076428Y-79331071D01*
X167433571Y-80831071D02*
X167433571Y-80045357D01*
X167505000Y-79902500D01*
X167647857Y-79831071D01*
X167862142Y-79831071D01*
X168005000Y-79902500D01*
X168076428Y-79973928D01*
X166147857Y-80759642D02*
X166290714Y-80831071D01*
X166576428Y-80831071D01*
X166719285Y-80759642D01*
X166790714Y-80616785D01*
X166790714Y-80045357D01*
X166719285Y-79902500D01*
X166576428Y-79831071D01*
X166290714Y-79831071D01*
X166147857Y-79902500D01*
X166076428Y-80045357D01*
X166076428Y-80188214D01*
X166790714Y-80331071D01*
X163790714Y-80045357D02*
X164290714Y-80045357D01*
X164290714Y-80831071D02*
X164290714Y-79331071D01*
X163576428Y-79331071D01*
X162433571Y-80759642D02*
X162576428Y-80831071D01*
X162862142Y-80831071D01*
X163005000Y-80759642D01*
X163076428Y-80616785D01*
X163076428Y-80045357D01*
X163005000Y-79902500D01*
X162862142Y-79831071D01*
X162576428Y-79831071D01*
X162433571Y-79902500D01*
X162362142Y-80045357D01*
X162362142Y-80188214D01*
X163076428Y-80331071D01*
X161719285Y-80831071D02*
X161719285Y-79831071D01*
X161719285Y-80116785D02*
X161647857Y-79973928D01*
X161576428Y-79902500D01*
X161433571Y-79831071D01*
X161290714Y-79831071D01*
X160790714Y-80831071D02*
X160790714Y-79831071D01*
X160790714Y-80116785D02*
X160719285Y-79973928D01*
X160647857Y-79902500D01*
X160505000Y-79831071D01*
X160362142Y-79831071D01*
X159862142Y-80831071D02*
X159862142Y-79831071D01*
X159862142Y-79331071D02*
X159933571Y-79402500D01*
X159862142Y-79473928D01*
X159790714Y-79402500D01*
X159862142Y-79331071D01*
X159862142Y-79473928D01*
X159219285Y-80759642D02*
X159076428Y-80831071D01*
X158790714Y-80831071D01*
X158647857Y-80759642D01*
X158576428Y-80616785D01*
X158576428Y-80545357D01*
X158647857Y-80402500D01*
X158790714Y-80331071D01*
X159005000Y-80331071D01*
X159147857Y-80259642D01*
X159219285Y-80116785D01*
X159219285Y-80045357D01*
X159147857Y-79902500D01*
X159005000Y-79831071D01*
X158790714Y-79831071D01*
X158647857Y-79902500D01*
X157933571Y-80688214D02*
X157862142Y-80759642D01*
X157933571Y-80831071D01*
X158005000Y-80759642D01*
X157933571Y-80688214D01*
X157933571Y-80831071D01*
X189362142Y-85661071D02*
X189362142Y-84661071D01*
X189362142Y-84803928D02*
X189290714Y-84732500D01*
X189147857Y-84661071D01*
X188933571Y-84661071D01*
X188790714Y-84732500D01*
X188719285Y-84875357D01*
X188719285Y-85661071D01*
X188719285Y-84875357D02*
X188647857Y-84732500D01*
X188505000Y-84661071D01*
X188290714Y-84661071D01*
X188147857Y-84732500D01*
X188076428Y-84875357D01*
X188076428Y-85661071D01*
X187147857Y-85661071D02*
X187290714Y-85589642D01*
X187362142Y-85518214D01*
X187433571Y-85375357D01*
X187433571Y-84946785D01*
X187362142Y-84803928D01*
X187290714Y-84732500D01*
X187147857Y-84661071D01*
X186933571Y-84661071D01*
X186790714Y-84732500D01*
X186719285Y-84803928D01*
X186647857Y-84946785D01*
X186647857Y-85375357D01*
X186719285Y-85518214D01*
X186790714Y-85589642D01*
X186933571Y-85661071D01*
X187147857Y-85661071D01*
X185362142Y-85661071D02*
X185362142Y-84161071D01*
X185362142Y-85589642D02*
X185505000Y-85661071D01*
X185790714Y-85661071D01*
X185933571Y-85589642D01*
X186005000Y-85518214D01*
X186076428Y-85375357D01*
X186076428Y-84946785D01*
X186005000Y-84803928D01*
X185933571Y-84732500D01*
X185790714Y-84661071D01*
X185505000Y-84661071D01*
X185362142Y-84732500D01*
X184647857Y-85661071D02*
X184647857Y-84661071D01*
X184647857Y-84161071D02*
X184719285Y-84232500D01*
X184647857Y-84303928D01*
X184576428Y-84232500D01*
X184647857Y-84161071D01*
X184647857Y-84303928D01*
X184147857Y-84661071D02*
X183576428Y-84661071D01*
X183933571Y-85661071D02*
X183933571Y-84375357D01*
X183862142Y-84232500D01*
X183719285Y-84161071D01*
X183576428Y-84161071D01*
X183076428Y-85661071D02*
X183076428Y-84661071D01*
X183076428Y-84161071D02*
X183147857Y-84232500D01*
X183076428Y-84303928D01*
X183005000Y-84232500D01*
X183076428Y-84161071D01*
X183076428Y-84303928D01*
X181790714Y-85589642D02*
X181933571Y-85661071D01*
X182219285Y-85661071D01*
X182362142Y-85589642D01*
X182433571Y-85446785D01*
X182433571Y-84875357D01*
X182362142Y-84732500D01*
X182219285Y-84661071D01*
X181933571Y-84661071D01*
X181790714Y-84732500D01*
X181719285Y-84875357D01*
X181719285Y-85018214D01*
X182433571Y-85161071D01*
X180433571Y-85661071D02*
X180433571Y-84161071D01*
X180433571Y-85589642D02*
X180576428Y-85661071D01*
X180862142Y-85661071D01*
X181005000Y-85589642D01*
X181076428Y-85518214D01*
X181147857Y-85375357D01*
X181147857Y-84946785D01*
X181076428Y-84803928D01*
X181005000Y-84732500D01*
X180862142Y-84661071D01*
X180576428Y-84661071D01*
X180433571Y-84732500D01*
X178790714Y-84661071D02*
X178219285Y-84661071D01*
X178576428Y-85661071D02*
X178576428Y-84375357D01*
X178505000Y-84232500D01*
X178362142Y-84161071D01*
X178219285Y-84161071D01*
X177505000Y-85661071D02*
X177647857Y-85589642D01*
X177719285Y-85518214D01*
X177790714Y-85375357D01*
X177790714Y-84946785D01*
X177719285Y-84803928D01*
X177647857Y-84732500D01*
X177505000Y-84661071D01*
X177290714Y-84661071D01*
X177147857Y-84732500D01*
X177076428Y-84803928D01*
X177005000Y-84946785D01*
X177005000Y-85375357D01*
X177076428Y-85518214D01*
X177147857Y-85589642D01*
X177290714Y-85661071D01*
X177505000Y-85661071D01*
X176362142Y-85661071D02*
X176362142Y-84661071D01*
X176362142Y-84946785D02*
X176290714Y-84803928D01*
X176219285Y-84732500D01*
X176076428Y-84661071D01*
X175933571Y-84661071D01*
X174505000Y-84661071D02*
X173933571Y-84661071D01*
X174290714Y-84161071D02*
X174290714Y-85446785D01*
X174219285Y-85589642D01*
X174076428Y-85661071D01*
X173933571Y-85661071D01*
X173433571Y-85661071D02*
X173433571Y-84661071D01*
X173433571Y-84946785D02*
X173362142Y-84803928D01*
X173290714Y-84732500D01*
X173147857Y-84661071D01*
X173005000Y-84661071D01*
X171862142Y-85661071D02*
X171862142Y-84875357D01*
X171933571Y-84732500D01*
X172076428Y-84661071D01*
X172362142Y-84661071D01*
X172505000Y-84732500D01*
X171862142Y-85589642D02*
X172005000Y-85661071D01*
X172362142Y-85661071D01*
X172505000Y-85589642D01*
X172576428Y-85446785D01*
X172576428Y-85303928D01*
X172505000Y-85161071D01*
X172362142Y-85089642D01*
X172005000Y-85089642D01*
X171862142Y-85018214D01*
X170505000Y-85589642D02*
X170647857Y-85661071D01*
X170933571Y-85661071D01*
X171076428Y-85589642D01*
X171147857Y-85518214D01*
X171219285Y-85375357D01*
X171219285Y-84946785D01*
X171147857Y-84803928D01*
X171076428Y-84732500D01*
X170933571Y-84661071D01*
X170647857Y-84661071D01*
X170505000Y-84732500D01*
X169862142Y-85661071D02*
X169862142Y-84161071D01*
X169719285Y-85089642D02*
X169290714Y-85661071D01*
X169290714Y-84661071D02*
X169862142Y-85232500D01*
X168647857Y-85661071D02*
X168647857Y-84161071D01*
X168647857Y-84732500D02*
X168505000Y-84661071D01*
X168219285Y-84661071D01*
X168076428Y-84732500D01*
X168005000Y-84803928D01*
X167933571Y-84946785D01*
X167933571Y-85375357D01*
X168005000Y-85518214D01*
X168076428Y-85589642D01*
X168219285Y-85661071D01*
X168505000Y-85661071D01*
X168647857Y-85589642D01*
X166647857Y-85661071D02*
X166647857Y-84875357D01*
X166719285Y-84732500D01*
X166862142Y-84661071D01*
X167147857Y-84661071D01*
X167290714Y-84732500D01*
X166647857Y-85589642D02*
X166790714Y-85661071D01*
X167147857Y-85661071D01*
X167290714Y-85589642D01*
X167362142Y-85446785D01*
X167362142Y-85303928D01*
X167290714Y-85161071D01*
X167147857Y-85089642D01*
X166790714Y-85089642D01*
X166647857Y-85018214D01*
X165719285Y-85661071D02*
X165862142Y-85589642D01*
X165933571Y-85446785D01*
X165933571Y-84161071D01*
X164933571Y-85661071D02*
X165076428Y-85589642D01*
X165147857Y-85446785D01*
X165147857Y-84161071D01*
X164362142Y-85518214D02*
X164290714Y-85589642D01*
X164362142Y-85661071D01*
X164433571Y-85589642D01*
X164362142Y-85518214D01*
X164362142Y-85661071D01*
X164362142Y-84732500D02*
X164290714Y-84803928D01*
X164362142Y-84875357D01*
X164433571Y-84803928D01*
X164362142Y-84732500D01*
X164362142Y-84875357D01*
X186433571Y-87076071D02*
X186433571Y-88290357D01*
X186505000Y-88433214D01*
X186576428Y-88504642D01*
X186719285Y-88576071D01*
X186933571Y-88576071D01*
X187076428Y-88504642D01*
X186433571Y-88004642D02*
X186576428Y-88076071D01*
X186862142Y-88076071D01*
X187005000Y-88004642D01*
X187076428Y-87933214D01*
X187147857Y-87790357D01*
X187147857Y-87361785D01*
X187076428Y-87218928D01*
X187005000Y-87147500D01*
X186862142Y-87076071D01*
X186576428Y-87076071D01*
X186433571Y-87147500D01*
X185719285Y-88076071D02*
X185719285Y-87076071D01*
X185719285Y-86576071D02*
X185790714Y-86647500D01*
X185719285Y-86718928D01*
X185647857Y-86647500D01*
X185719285Y-86576071D01*
X185719285Y-86718928D01*
X185219285Y-87076071D02*
X184647857Y-87076071D01*
X185005000Y-86576071D02*
X185005000Y-87861785D01*
X184933571Y-88004642D01*
X184790714Y-88076071D01*
X184647857Y-88076071D01*
X184147857Y-88076071D02*
X184147857Y-86576071D01*
X183505000Y-88076071D02*
X183505000Y-87290357D01*
X183576428Y-87147500D01*
X183719285Y-87076071D01*
X183933571Y-87076071D01*
X184076428Y-87147500D01*
X184147857Y-87218928D01*
X182147857Y-87076071D02*
X182147857Y-88076071D01*
X182790714Y-87076071D02*
X182790714Y-87861785D01*
X182719285Y-88004642D01*
X182576428Y-88076071D01*
X182362142Y-88076071D01*
X182219285Y-88004642D01*
X182147857Y-87933214D01*
X181433571Y-88076071D02*
X181433571Y-86576071D01*
X181433571Y-87147500D02*
X181290714Y-87076071D01*
X181005000Y-87076071D01*
X180862142Y-87147500D01*
X180790714Y-87218928D01*
X180719285Y-87361785D01*
X180719285Y-87790357D01*
X180790714Y-87933214D01*
X180862142Y-88004642D01*
X181005000Y-88076071D01*
X181290714Y-88076071D01*
X181433571Y-88004642D01*
X180076428Y-87933214D02*
X180005000Y-88004642D01*
X180076428Y-88076071D01*
X180147857Y-88004642D01*
X180076428Y-87933214D01*
X180076428Y-88076071D01*
X178719285Y-88004642D02*
X178862142Y-88076071D01*
X179147857Y-88076071D01*
X179290714Y-88004642D01*
X179362142Y-87933214D01*
X179433571Y-87790357D01*
X179433571Y-87361785D01*
X179362142Y-87218928D01*
X179290714Y-87147500D01*
X179147857Y-87076071D01*
X178862142Y-87076071D01*
X178719285Y-87147500D01*
X177862142Y-88076071D02*
X178005000Y-88004642D01*
X178076428Y-87933214D01*
X178147857Y-87790357D01*
X178147857Y-87361785D01*
X178076428Y-87218928D01*
X178005000Y-87147500D01*
X177862142Y-87076071D01*
X177647857Y-87076071D01*
X177505000Y-87147500D01*
X177433571Y-87218928D01*
X177362142Y-87361785D01*
X177362142Y-87790357D01*
X177433571Y-87933214D01*
X177505000Y-88004642D01*
X177647857Y-88076071D01*
X177862142Y-88076071D01*
X176719285Y-88076071D02*
X176719285Y-87076071D01*
X176719285Y-87218928D02*
X176647857Y-87147500D01*
X176505000Y-87076071D01*
X176290714Y-87076071D01*
X176147857Y-87147500D01*
X176076428Y-87290357D01*
X176076428Y-88076071D01*
X176076428Y-87290357D02*
X176005000Y-87147500D01*
X175862142Y-87076071D01*
X175647857Y-87076071D01*
X175505000Y-87147500D01*
X175433571Y-87290357D01*
X175433571Y-88076071D01*
X173647857Y-86504642D02*
X174933571Y-88433214D01*
X173147857Y-88076071D02*
X173147857Y-87076071D01*
X173147857Y-86576071D02*
X173219285Y-86647500D01*
X173147857Y-86718928D01*
X173076428Y-86647500D01*
X173147857Y-86576071D01*
X173147857Y-86718928D01*
X171790714Y-88076071D02*
X171790714Y-86576071D01*
X171790714Y-88004642D02*
X171933571Y-88076071D01*
X172219285Y-88076071D01*
X172362142Y-88004642D01*
X172433571Y-87933214D01*
X172505000Y-87790357D01*
X172505000Y-87361785D01*
X172433571Y-87218928D01*
X172362142Y-87147500D01*
X172219285Y-87076071D01*
X171933571Y-87076071D01*
X171790714Y-87147500D01*
X170433571Y-88076071D02*
X170433571Y-87290357D01*
X170505000Y-87147500D01*
X170647857Y-87076071D01*
X170933571Y-87076071D01*
X171076428Y-87147500D01*
X170433571Y-88004642D02*
X170576428Y-88076071D01*
X170933571Y-88076071D01*
X171076428Y-88004642D01*
X171147857Y-87861785D01*
X171147857Y-87718928D01*
X171076428Y-87576071D01*
X170933571Y-87504642D01*
X170576428Y-87504642D01*
X170433571Y-87433214D01*
X169719285Y-87076071D02*
X169719285Y-88076071D01*
X169719285Y-87218928D02*
X169647857Y-87147500D01*
X169505000Y-87076071D01*
X169290714Y-87076071D01*
X169147857Y-87147500D01*
X169076428Y-87290357D01*
X169076428Y-88076071D01*
X168362142Y-88076071D02*
X168362142Y-86576071D01*
X168219285Y-87504642D02*
X167790714Y-88076071D01*
X167790714Y-87076071D02*
X168362142Y-87647500D01*
X166076428Y-86504642D02*
X167362142Y-88433214D01*
X165576428Y-88076071D02*
X165576428Y-86576071D01*
X165433571Y-87504642D02*
X165005000Y-88076071D01*
X165005000Y-87076071D02*
X165576428Y-87647500D01*
X163790714Y-88004642D02*
X163933571Y-88076071D01*
X164219285Y-88076071D01*
X164362142Y-88004642D01*
X164433571Y-87861785D01*
X164433571Y-87290357D01*
X164362142Y-87147500D01*
X164219285Y-87076071D01*
X163933571Y-87076071D01*
X163790714Y-87147500D01*
X163719285Y-87290357D01*
X163719285Y-87433214D01*
X164433571Y-87576071D01*
X163219285Y-87076071D02*
X162862142Y-88076071D01*
X162505000Y-87076071D02*
X162862142Y-88076071D01*
X163005000Y-88433214D01*
X163076428Y-88504642D01*
X163219285Y-88576071D01*
X161933571Y-88076071D02*
X161933571Y-86576071D01*
X161933571Y-87147500D02*
X161790714Y-87076071D01*
X161505000Y-87076071D01*
X161362142Y-87147500D01*
X161290714Y-87218928D01*
X161219285Y-87361785D01*
X161219285Y-87790357D01*
X161290714Y-87933214D01*
X161362142Y-88004642D01*
X161505000Y-88076071D01*
X161790714Y-88076071D01*
X161933571Y-88004642D01*
X160362142Y-88076071D02*
X160505000Y-88004642D01*
X160576428Y-87933214D01*
X160647857Y-87790357D01*
X160647857Y-87361785D01*
X160576428Y-87218928D01*
X160505000Y-87147500D01*
X160362142Y-87076071D01*
X160147857Y-87076071D01*
X160005000Y-87147500D01*
X159933571Y-87218928D01*
X159862142Y-87361785D01*
X159862142Y-87790357D01*
X159933571Y-87933214D01*
X160005000Y-88004642D01*
X160147857Y-88076071D01*
X160362142Y-88076071D01*
X158576428Y-88076071D02*
X158576428Y-87290357D01*
X158647857Y-87147500D01*
X158790714Y-87076071D01*
X159076428Y-87076071D01*
X159219285Y-87147500D01*
X158576428Y-88004642D02*
X158719285Y-88076071D01*
X159076428Y-88076071D01*
X159219285Y-88004642D01*
X159290714Y-87861785D01*
X159290714Y-87718928D01*
X159219285Y-87576071D01*
X159076428Y-87504642D01*
X158719285Y-87504642D01*
X158576428Y-87433214D01*
X157862142Y-88076071D02*
X157862142Y-87076071D01*
X157862142Y-87361785D02*
X157790714Y-87218928D01*
X157719285Y-87147500D01*
X157576428Y-87076071D01*
X157433571Y-87076071D01*
X156290714Y-88076071D02*
X156290714Y-86576071D01*
X156290714Y-88004642D02*
X156433571Y-88076071D01*
X156719285Y-88076071D01*
X156862142Y-88004642D01*
X156933571Y-87933214D01*
X157005000Y-87790357D01*
X157005000Y-87361785D01*
X156933571Y-87218928D01*
X156862142Y-87147500D01*
X156719285Y-87076071D01*
X156433571Y-87076071D01*
X156290714Y-87147500D01*
X155647857Y-88004642D02*
X155505000Y-88076071D01*
X155219285Y-88076071D01*
X155076428Y-88004642D01*
X155005000Y-87861785D01*
X155005000Y-87790357D01*
X155076428Y-87647500D01*
X155219285Y-87576071D01*
X155433571Y-87576071D01*
X155576428Y-87504642D01*
X155647857Y-87361785D01*
X155647857Y-87290357D01*
X155576428Y-87147500D01*
X155433571Y-87076071D01*
X155219285Y-87076071D01*
X155076428Y-87147500D01*
D12*
%TO.C,U1*%
X224788952Y-55309000D02*
X224836571Y-55273285D01*
X224908000Y-55273285D01*
X224979428Y-55309000D01*
X225027047Y-55380428D01*
X225050857Y-55451857D01*
X225074666Y-55594714D01*
X225074666Y-55701857D01*
X225050857Y-55844714D01*
X225027047Y-55916142D01*
X224979428Y-55987571D01*
X224908000Y-56023285D01*
X224860380Y-56023285D01*
X224788952Y-55987571D01*
X224765142Y-55951857D01*
X224765142Y-55701857D01*
X224860380Y-55701857D01*
X224550857Y-56023285D02*
X224550857Y-55273285D01*
X224265142Y-56023285D01*
X224265142Y-55273285D01*
X224027047Y-56023285D02*
X224027047Y-55273285D01*
X223908000Y-55273285D01*
X223836571Y-55309000D01*
X223788952Y-55380428D01*
X223765142Y-55451857D01*
X223741333Y-55594714D01*
X223741333Y-55701857D01*
X223765142Y-55844714D01*
X223788952Y-55916142D01*
X223836571Y-55987571D01*
X223908000Y-56023285D01*
X224027047Y-56023285D01*
X236418952Y-60419000D02*
X236466571Y-60383285D01*
X236538000Y-60383285D01*
X236609428Y-60419000D01*
X236657047Y-60490428D01*
X236680857Y-60561857D01*
X236704666Y-60704714D01*
X236704666Y-60811857D01*
X236680857Y-60954714D01*
X236657047Y-61026142D01*
X236609428Y-61097571D01*
X236538000Y-61133285D01*
X236490380Y-61133285D01*
X236418952Y-61097571D01*
X236395142Y-61061857D01*
X236395142Y-60811857D01*
X236490380Y-60811857D01*
X236180857Y-61133285D02*
X236180857Y-60383285D01*
X235895142Y-61133285D01*
X235895142Y-60383285D01*
X235657047Y-61133285D02*
X235657047Y-60383285D01*
X235538000Y-60383285D01*
X235466571Y-60419000D01*
X235418952Y-60490428D01*
X235395142Y-60561857D01*
X235371333Y-60704714D01*
X235371333Y-60811857D01*
X235395142Y-60954714D01*
X235418952Y-61026142D01*
X235466571Y-61097571D01*
X235538000Y-61133285D01*
X235657047Y-61133285D01*
D13*
D12*
X224883238Y-53383285D02*
X225049904Y-53026142D01*
X225168952Y-53383285D02*
X225168952Y-52633285D01*
X224978476Y-52633285D01*
X224930857Y-52669000D01*
X224907047Y-52704714D01*
X224883238Y-52776142D01*
X224883238Y-52883285D01*
X224907047Y-52954714D01*
X224930857Y-52990428D01*
X224978476Y-53026142D01*
X225168952Y-53026142D01*
X224692761Y-53169000D02*
X224454666Y-53169000D01*
X224740380Y-53383285D02*
X224573714Y-52633285D01*
X224407047Y-53383285D01*
X224288000Y-52633285D02*
X224168952Y-53383285D01*
X224073714Y-52847571D01*
X223978476Y-53383285D01*
X223859428Y-52633285D01*
X236438952Y-57839000D02*
X236486571Y-57803285D01*
X236558000Y-57803285D01*
X236629428Y-57839000D01*
X236677047Y-57910428D01*
X236700857Y-57981857D01*
X236724666Y-58124714D01*
X236724666Y-58231857D01*
X236700857Y-58374714D01*
X236677047Y-58446142D01*
X236629428Y-58517571D01*
X236558000Y-58553285D01*
X236510380Y-58553285D01*
X236438952Y-58517571D01*
X236415142Y-58481857D01*
X236415142Y-58231857D01*
X236510380Y-58231857D01*
X236200857Y-58553285D02*
X236200857Y-57803285D01*
X235915142Y-58553285D01*
X235915142Y-57803285D01*
X235677047Y-58553285D02*
X235677047Y-57803285D01*
X235558000Y-57803285D01*
X235486571Y-57839000D01*
X235438952Y-57910428D01*
X235415142Y-57981857D01*
X235391333Y-58124714D01*
X235391333Y-58231857D01*
X235415142Y-58374714D01*
X235438952Y-58446142D01*
X235486571Y-58517571D01*
X235558000Y-58553285D01*
X235677047Y-58553285D01*
D13*
%TO.C,J2*%
X231885904Y-85558380D02*
X231314476Y-85558380D01*
X231600190Y-86558380D02*
X231600190Y-85558380D01*
X230409714Y-86558380D02*
X230743047Y-86082190D01*
X230981142Y-86558380D02*
X230981142Y-85558380D01*
X230600190Y-85558380D01*
X230504952Y-85606000D01*
X230457333Y-85653619D01*
X230409714Y-85748857D01*
X230409714Y-85891714D01*
X230457333Y-85986952D01*
X230504952Y-86034571D01*
X230600190Y-86082190D01*
X230981142Y-86082190D01*
X229409714Y-86558380D02*
X229743047Y-86082190D01*
X229981142Y-86558380D02*
X229981142Y-85558380D01*
X229600190Y-85558380D01*
X229504952Y-85606000D01*
X229457333Y-85653619D01*
X229409714Y-85748857D01*
X229409714Y-85891714D01*
X229457333Y-85986952D01*
X229504952Y-86034571D01*
X229600190Y-86082190D01*
X229981142Y-86082190D01*
X229028761Y-86510761D02*
X228885904Y-86558380D01*
X228647809Y-86558380D01*
X228552571Y-86510761D01*
X228504952Y-86463142D01*
X228457333Y-86367904D01*
X228457333Y-86272666D01*
X228504952Y-86177428D01*
X228552571Y-86129809D01*
X228647809Y-86082190D01*
X228838285Y-86034571D01*
X228933523Y-85986952D01*
X228981142Y-85939333D01*
X229028761Y-85844095D01*
X229028761Y-85748857D01*
X228981142Y-85653619D01*
X228933523Y-85606000D01*
X228838285Y-85558380D01*
X228600190Y-85558380D01*
X228457333Y-85606000D01*
%TO.C,RSW1*%
X220019380Y-83510380D02*
X220352714Y-83034190D01*
X220590809Y-83510380D02*
X220590809Y-82510380D01*
X220209857Y-82510380D01*
X220114619Y-82558000D01*
X220067000Y-82605619D01*
X220019380Y-82700857D01*
X220019380Y-82843714D01*
X220067000Y-82938952D01*
X220114619Y-82986571D01*
X220209857Y-83034190D01*
X220590809Y-83034190D01*
X219590809Y-82986571D02*
X219257476Y-82986571D01*
X219114619Y-83510380D02*
X219590809Y-83510380D01*
X219590809Y-82510380D01*
X219114619Y-82510380D01*
X218733666Y-83462761D02*
X218590809Y-83510380D01*
X218352714Y-83510380D01*
X218257476Y-83462761D01*
X218209857Y-83415142D01*
X218162238Y-83319904D01*
X218162238Y-83224666D01*
X218209857Y-83129428D01*
X218257476Y-83081809D01*
X218352714Y-83034190D01*
X218543190Y-82986571D01*
X218638428Y-82938952D01*
X218686047Y-82891333D01*
X218733666Y-82796095D01*
X218733666Y-82700857D01*
X218686047Y-82605619D01*
X218638428Y-82558000D01*
X218543190Y-82510380D01*
X218305095Y-82510380D01*
X218162238Y-82558000D01*
X217733666Y-82986571D02*
X217400333Y-82986571D01*
X217257476Y-83510380D02*
X217733666Y-83510380D01*
X217733666Y-82510380D01*
X217257476Y-82510380D01*
X216971761Y-82510380D02*
X216400333Y-82510380D01*
X216686047Y-83510380D02*
X216686047Y-82510380D01*
D14*
%TO.C,REF\u002A\u002A*%
X184887714Y-36860500D02*
X184887714Y-37241452D01*
X184554380Y-37003357D02*
X185411523Y-37003357D01*
X185506761Y-37050976D01*
X185554380Y-37146214D01*
X185554380Y-37241452D01*
X185506761Y-37955738D02*
X185554380Y-37860500D01*
X185554380Y-37670023D01*
X185506761Y-37574785D01*
X185411523Y-37527166D01*
X185030571Y-37527166D01*
X184935333Y-37574785D01*
X184887714Y-37670023D01*
X184887714Y-37860500D01*
X184935333Y-37955738D01*
X185030571Y-38003357D01*
X185125809Y-38003357D01*
X185221047Y-37527166D01*
X184887714Y-38431928D02*
X185554380Y-38431928D01*
X184982952Y-38431928D02*
X184935333Y-38479547D01*
X184887714Y-38574785D01*
X184887714Y-38717642D01*
X184935333Y-38812880D01*
X185030571Y-38860500D01*
X185554380Y-38860500D01*
X184887714Y-39193833D02*
X184887714Y-39574785D01*
X184554380Y-39336690D02*
X185411523Y-39336690D01*
X185506761Y-39384309D01*
X185554380Y-39479547D01*
X185554380Y-39574785D01*
X185554380Y-39908119D02*
X184887714Y-39908119D01*
X184554380Y-39908119D02*
X184602000Y-39860500D01*
X184649619Y-39908119D01*
X184602000Y-39955738D01*
X184554380Y-39908119D01*
X184649619Y-39908119D01*
X184887714Y-40384309D02*
X185554380Y-40384309D01*
X184982952Y-40384309D02*
X184935333Y-40431928D01*
X184887714Y-40527166D01*
X184887714Y-40670023D01*
X184935333Y-40765261D01*
X185030571Y-40812880D01*
X185554380Y-40812880D01*
X184887714Y-41717642D02*
X185697238Y-41717642D01*
X185792476Y-41670023D01*
X185840095Y-41622404D01*
X185887714Y-41527166D01*
X185887714Y-41384309D01*
X185840095Y-41289071D01*
X185506761Y-41717642D02*
X185554380Y-41622404D01*
X185554380Y-41431928D01*
X185506761Y-41336690D01*
X185459142Y-41289071D01*
X185363904Y-41241452D01*
X185078190Y-41241452D01*
X184982952Y-41289071D01*
X184935333Y-41336690D01*
X184887714Y-41431928D01*
X184887714Y-41622404D01*
X184935333Y-41717642D01*
X184951214Y-50814500D02*
X185951214Y-50814500D01*
X184998833Y-50814500D02*
X184951214Y-50909738D01*
X184951214Y-51100214D01*
X184998833Y-51195452D01*
X185046452Y-51243071D01*
X185141690Y-51290690D01*
X185427404Y-51290690D01*
X185522642Y-51243071D01*
X185570261Y-51195452D01*
X185617880Y-51100214D01*
X185617880Y-50909738D01*
X185570261Y-50814500D01*
X184951214Y-52147833D02*
X185617880Y-52147833D01*
X184951214Y-51719261D02*
X185475023Y-51719261D01*
X185570261Y-51766880D01*
X185617880Y-51862119D01*
X185617880Y-52004976D01*
X185570261Y-52100214D01*
X185522642Y-52147833D01*
X185570261Y-53052595D02*
X185617880Y-52957357D01*
X185617880Y-52766880D01*
X185570261Y-52671642D01*
X185522642Y-52624023D01*
X185427404Y-52576404D01*
X185141690Y-52576404D01*
X185046452Y-52624023D01*
X184998833Y-52671642D01*
X184951214Y-52766880D01*
X184951214Y-52957357D01*
X184998833Y-53052595D01*
X185617880Y-53481166D02*
X184617880Y-53481166D01*
X185236928Y-53576404D02*
X185617880Y-53862119D01*
X184951214Y-53862119D02*
X185332166Y-53481166D01*
D10*
%TO.C,POWER SW*%
X232366857Y-51198428D02*
X232366857Y-50598428D01*
X232138285Y-50598428D01*
X232081142Y-50627000D01*
X232052571Y-50655571D01*
X232024000Y-50712714D01*
X232024000Y-50798428D01*
X232052571Y-50855571D01*
X232081142Y-50884142D01*
X232138285Y-50912714D01*
X232366857Y-50912714D01*
X231652571Y-50598428D02*
X231538285Y-50598428D01*
X231481142Y-50627000D01*
X231424000Y-50684142D01*
X231395428Y-50798428D01*
X231395428Y-50998428D01*
X231424000Y-51112714D01*
X231481142Y-51169857D01*
X231538285Y-51198428D01*
X231652571Y-51198428D01*
X231709714Y-51169857D01*
X231766857Y-51112714D01*
X231795428Y-50998428D01*
X231795428Y-50798428D01*
X231766857Y-50684142D01*
X231709714Y-50627000D01*
X231652571Y-50598428D01*
X231195428Y-50598428D02*
X231052571Y-51198428D01*
X230938285Y-50769857D01*
X230824000Y-51198428D01*
X230681142Y-50598428D01*
X230452571Y-50884142D02*
X230252571Y-50884142D01*
X230166857Y-51198428D02*
X230452571Y-51198428D01*
X230452571Y-50598428D01*
X230166857Y-50598428D01*
X229566857Y-51198428D02*
X229766857Y-50912714D01*
X229909714Y-51198428D02*
X229909714Y-50598428D01*
X229681142Y-50598428D01*
X229624000Y-50627000D01*
X229595428Y-50655571D01*
X229566857Y-50712714D01*
X229566857Y-50798428D01*
X229595428Y-50855571D01*
X229624000Y-50884142D01*
X229681142Y-50912714D01*
X229909714Y-50912714D01*
X228881142Y-51169857D02*
X228795428Y-51198428D01*
X228652571Y-51198428D01*
X228595428Y-51169857D01*
X228566857Y-51141285D01*
X228538285Y-51084142D01*
X228538285Y-51027000D01*
X228566857Y-50969857D01*
X228595428Y-50941285D01*
X228652571Y-50912714D01*
X228766857Y-50884142D01*
X228824000Y-50855571D01*
X228852571Y-50827000D01*
X228881142Y-50769857D01*
X228881142Y-50712714D01*
X228852571Y-50655571D01*
X228824000Y-50627000D01*
X228766857Y-50598428D01*
X228624000Y-50598428D01*
X228538285Y-50627000D01*
X228338285Y-50598428D02*
X228195428Y-51198428D01*
X228081142Y-50769857D01*
X227966857Y-51198428D01*
X227824000Y-50598428D01*
D15*
%TO.C,REF\u002A\u002A*%
X188213500Y-66602000D02*
G75*
G03*
X192364045Y-65568135I-2857506J20320019D01*
G01*
X185356000Y-35487000D02*
G75*
G03*
X184227615Y-35546136I-6J-10794921D01*
G01*
X165035999Y-49139500D02*
G75*
G03*
X166069865Y-53290046I20320001J2857500D01*
G01*
X186484385Y-35546137D02*
G75*
G03*
X185356000Y-35487000I-1128385J-10735763D01*
G01*
X182498500Y-25961999D02*
G75*
G03*
X178347954Y-26995865I2857500J-20320001D01*
G01*
X185356000Y-57077001D02*
G75*
G03*
X186484385Y-57017864I0J10794901D01*
G01*
X204642134Y-53290048D02*
G75*
G03*
X205676000Y-49139500I-19286134J7008048D01*
G01*
X184227615Y-57017864D02*
G75*
G03*
X185356000Y-57077000I1128379J10735785D01*
G01*
X166069865Y-39273956D02*
G75*
G03*
X165036000Y-43424500I19286255J-7008074D01*
G01*
X178347955Y-65568135D02*
G75*
G03*
X182498500Y-66602000I7008045J19286135D01*
G01*
X205676000Y-43424500D02*
G75*
G03*
X204642134Y-39273952I-20320000J-2857500D01*
G01*
X192364049Y-26995867D02*
G75*
G03*
X188213500Y-25962000I-7008049J-19286133D01*
G01*
G36*
X185233717Y-60712364D02*
G01*
X185231104Y-60740759D01*
X185222235Y-60787209D01*
X185184682Y-60914369D01*
X185129516Y-61040232D01*
X185059824Y-61158414D01*
X184978693Y-61262534D01*
X184970299Y-61271700D01*
X184861987Y-61372026D01*
X184739567Y-61456023D01*
X184606394Y-61522002D01*
X184465826Y-61568277D01*
X184321218Y-61593158D01*
X184220972Y-61597641D01*
X184072551Y-61586242D01*
X183929132Y-61553989D01*
X183792896Y-61501966D01*
X183666021Y-61431252D01*
X183550688Y-61342930D01*
X183449075Y-61238081D01*
X183363363Y-61117788D01*
X183306108Y-61010869D01*
X183252963Y-60871633D01*
X183221607Y-60727069D01*
X183215103Y-60630705D01*
X183710342Y-60630705D01*
X183710624Y-60635995D01*
X183714942Y-60691298D01*
X183722299Y-60733590D01*
X183734944Y-60772198D01*
X183755125Y-60816444D01*
X183776613Y-60854771D01*
X183818098Y-60913565D01*
X183866155Y-60969021D01*
X183915478Y-61015215D01*
X183960764Y-61046219D01*
X183976931Y-61053995D01*
X184017836Y-61071355D01*
X184060833Y-61087441D01*
X184133660Y-61106729D01*
X184237361Y-61115250D01*
X184338902Y-61102456D01*
X184435688Y-61069324D01*
X184525120Y-61016831D01*
X184604601Y-60945954D01*
X184671535Y-60857671D01*
X184700189Y-60803526D01*
X184730621Y-60709507D01*
X184741193Y-60611958D01*
X184732887Y-60514010D01*
X184706685Y-60418797D01*
X184663572Y-60329450D01*
X184604529Y-60249104D01*
X184530539Y-60180890D01*
X184442587Y-60127941D01*
X184428584Y-60121655D01*
X184330238Y-60091030D01*
X184228886Y-60080848D01*
X184127982Y-60090168D01*
X184030983Y-60118046D01*
X183941347Y-60163542D01*
X183862530Y-60225712D01*
X183797988Y-60303616D01*
X183780218Y-60332145D01*
X183736566Y-60425568D01*
X183713710Y-60523460D01*
X183710342Y-60630705D01*
X183215103Y-60630705D01*
X183211316Y-60574591D01*
X183214877Y-60484921D01*
X183237558Y-60334642D01*
X183280310Y-60192673D01*
X183342120Y-60060688D01*
X183421978Y-59940363D01*
X183518872Y-59833374D01*
X183631792Y-59741394D01*
X183759725Y-59666101D01*
X183829576Y-59633462D01*
X183904714Y-59604245D01*
X183976366Y-59584753D01*
X184052849Y-59572816D01*
X184142484Y-59566264D01*
X184160296Y-59565596D01*
X184299497Y-59572034D01*
X184429880Y-59599710D01*
X184552096Y-59648814D01*
X184666793Y-59719536D01*
X184690927Y-59736738D01*
X184715773Y-59753081D01*
X184728204Y-59759395D01*
X184729112Y-59755365D01*
X184730561Y-59731558D01*
X184731888Y-59688435D01*
X184733057Y-59628360D01*
X184734033Y-59553698D01*
X184734783Y-59466812D01*
X184735272Y-59370067D01*
X184735464Y-59265827D01*
X184735612Y-58772259D01*
X185243316Y-59282285D01*
X185243229Y-59973999D01*
X185243226Y-59985735D01*
X185242965Y-60136209D01*
X185242301Y-60273481D01*
X185241257Y-60396137D01*
X185239854Y-60502766D01*
X185238115Y-60591955D01*
X185237531Y-60611958D01*
X185236062Y-60662292D01*
X185233717Y-60712364D01*
G37*
D16*
X185233717Y-60712364D02*
X185231104Y-60740759D01*
X185222235Y-60787209D01*
X185184682Y-60914369D01*
X185129516Y-61040232D01*
X185059824Y-61158414D01*
X184978693Y-61262534D01*
X184970299Y-61271700D01*
X184861987Y-61372026D01*
X184739567Y-61456023D01*
X184606394Y-61522002D01*
X184465826Y-61568277D01*
X184321218Y-61593158D01*
X184220972Y-61597641D01*
X184072551Y-61586242D01*
X183929132Y-61553989D01*
X183792896Y-61501966D01*
X183666021Y-61431252D01*
X183550688Y-61342930D01*
X183449075Y-61238081D01*
X183363363Y-61117788D01*
X183306108Y-61010869D01*
X183252963Y-60871633D01*
X183221607Y-60727069D01*
X183215103Y-60630705D01*
X183710342Y-60630705D01*
X183710624Y-60635995D01*
X183714942Y-60691298D01*
X183722299Y-60733590D01*
X183734944Y-60772198D01*
X183755125Y-60816444D01*
X183776613Y-60854771D01*
X183818098Y-60913565D01*
X183866155Y-60969021D01*
X183915478Y-61015215D01*
X183960764Y-61046219D01*
X183976931Y-61053995D01*
X184017836Y-61071355D01*
X184060833Y-61087441D01*
X184133660Y-61106729D01*
X184237361Y-61115250D01*
X184338902Y-61102456D01*
X184435688Y-61069324D01*
X184525120Y-61016831D01*
X184604601Y-60945954D01*
X184671535Y-60857671D01*
X184700189Y-60803526D01*
X184730621Y-60709507D01*
X184741193Y-60611958D01*
X184732887Y-60514010D01*
X184706685Y-60418797D01*
X184663572Y-60329450D01*
X184604529Y-60249104D01*
X184530539Y-60180890D01*
X184442587Y-60127941D01*
X184428584Y-60121655D01*
X184330238Y-60091030D01*
X184228886Y-60080848D01*
X184127982Y-60090168D01*
X184030983Y-60118046D01*
X183941347Y-60163542D01*
X183862530Y-60225712D01*
X183797988Y-60303616D01*
X183780218Y-60332145D01*
X183736566Y-60425568D01*
X183713710Y-60523460D01*
X183710342Y-60630705D01*
X183215103Y-60630705D01*
X183211316Y-60574591D01*
X183214877Y-60484921D01*
X183237558Y-60334642D01*
X183280310Y-60192673D01*
X183342120Y-60060688D01*
X183421978Y-59940363D01*
X183518872Y-59833374D01*
X183631792Y-59741394D01*
X183759725Y-59666101D01*
X183829576Y-59633462D01*
X183904714Y-59604245D01*
X183976366Y-59584753D01*
X184052849Y-59572816D01*
X184142484Y-59566264D01*
X184160296Y-59565596D01*
X184299497Y-59572034D01*
X184429880Y-59599710D01*
X184552096Y-59648814D01*
X184666793Y-59719536D01*
X184690927Y-59736738D01*
X184715773Y-59753081D01*
X184728204Y-59759395D01*
X184729112Y-59755365D01*
X184730561Y-59731558D01*
X184731888Y-59688435D01*
X184733057Y-59628360D01*
X184734033Y-59553698D01*
X184734783Y-59466812D01*
X184735272Y-59370067D01*
X184735464Y-59265827D01*
X184735612Y-58772259D01*
X185243316Y-59282285D01*
X185243229Y-59973999D01*
X185243226Y-59985735D01*
X185242965Y-60136209D01*
X185242301Y-60273481D01*
X185241257Y-60396137D01*
X185239854Y-60502766D01*
X185238115Y-60591955D01*
X185237531Y-60611958D01*
X185236062Y-60662292D01*
X185233717Y-60712364D01*
G36*
X187436952Y-61508356D02*
G01*
X187346108Y-61416080D01*
X187332327Y-61402084D01*
X187300466Y-61369731D01*
X187254519Y-61323077D01*
X187195703Y-61263359D01*
X187125236Y-61191814D01*
X187044337Y-61109677D01*
X186954222Y-61018184D01*
X186856110Y-60918573D01*
X186751218Y-60812080D01*
X186640764Y-60699940D01*
X186525965Y-60583391D01*
X186408040Y-60463668D01*
X185560816Y-59603531D01*
X185849184Y-59600438D01*
X186137552Y-59597344D01*
X186940498Y-60400044D01*
X186940498Y-58766486D01*
X187436952Y-58766486D01*
X187436952Y-61508356D01*
G37*
X187436952Y-61508356D02*
X187346108Y-61416080D01*
X187332327Y-61402084D01*
X187300466Y-61369731D01*
X187254519Y-61323077D01*
X187195703Y-61263359D01*
X187125236Y-61191814D01*
X187044337Y-61109677D01*
X186954222Y-61018184D01*
X186856110Y-60918573D01*
X186751218Y-60812080D01*
X186640764Y-60699940D01*
X186525965Y-60583391D01*
X186408040Y-60463668D01*
X185560816Y-59603531D01*
X185849184Y-59600438D01*
X186137552Y-59597344D01*
X186940498Y-60400044D01*
X186940498Y-58766486D01*
X187436952Y-58766486D01*
X187436952Y-61508356D01*
G36*
X186143184Y-60798669D02*
G01*
X186155413Y-60808717D01*
X186180895Y-60832337D01*
X186217042Y-60867050D01*
X186261266Y-60910375D01*
X186310979Y-60959830D01*
X186472014Y-61121174D01*
X186438132Y-61158989D01*
X186434955Y-61162481D01*
X186413087Y-61185690D01*
X186378741Y-61221436D01*
X186334925Y-61266616D01*
X186284642Y-61318129D01*
X186230900Y-61372872D01*
X186057550Y-61548941D01*
X185437536Y-61548941D01*
X185465837Y-61515306D01*
X185468130Y-61512615D01*
X185488798Y-61489386D01*
X185521556Y-61453546D01*
X185564416Y-61407201D01*
X185615388Y-61352458D01*
X185672484Y-61291423D01*
X185733714Y-61226204D01*
X185797089Y-61158906D01*
X185860622Y-61091636D01*
X185922321Y-61026501D01*
X185980200Y-60965607D01*
X186032267Y-60911061D01*
X186076536Y-60864969D01*
X186111015Y-60829438D01*
X186133718Y-60806575D01*
X186142653Y-60798486D01*
X186143184Y-60798669D01*
G37*
X186143184Y-60798669D02*
X186155413Y-60808717D01*
X186180895Y-60832337D01*
X186217042Y-60867050D01*
X186261266Y-60910375D01*
X186310979Y-60959830D01*
X186472014Y-61121174D01*
X186438132Y-61158989D01*
X186434955Y-61162481D01*
X186413087Y-61185690D01*
X186378741Y-61221436D01*
X186334925Y-61266616D01*
X186284642Y-61318129D01*
X186230900Y-61372872D01*
X186057550Y-61548941D01*
X185437536Y-61548941D01*
X185465837Y-61515306D01*
X185468130Y-61512615D01*
X185488798Y-61489386D01*
X185521556Y-61453546D01*
X185564416Y-61407201D01*
X185615388Y-61352458D01*
X185672484Y-61291423D01*
X185733714Y-61226204D01*
X185797089Y-61158906D01*
X185860622Y-61091636D01*
X185922321Y-61026501D01*
X185980200Y-60965607D01*
X186032267Y-60911061D01*
X186076536Y-60864969D01*
X186111015Y-60829438D01*
X186133718Y-60806575D01*
X186142653Y-60798486D01*
X186143184Y-60798669D01*
D13*
%TO.C,B+*%
X234966000Y-49800000D02*
X236966000Y-49800000D01*
X236966000Y-51800000D02*
X234966000Y-51800000D01*
X234966000Y-51800000D02*
X234966000Y-49800000D01*
X236966000Y-49800000D02*
X236966000Y-51800000D01*
%TO.C,B-*%
X223282000Y-51800000D02*
X223282000Y-49800000D01*
X223282000Y-49800000D02*
X225282000Y-49800000D01*
X225282000Y-51800000D02*
X223282000Y-51800000D01*
X225282000Y-49800000D02*
X225282000Y-51800000D01*
%TD*%
M02*
