M48
; DRILL file {KiCad (6.0.8-1)-1} date 2023 February 27, Monday 11:26:27
; FORMAT={-:-/ absolute / inch / decimal}
; #@! TF.CreationDate,2023-02-27T11:26:27+02:00
; #@! TF.GenerationSoftware,Kicad,Pcbnew,(6.0.8-1)-1
; #@! TF.FileFunction,NonPlated,1,2,NPTH
FMAT,2
INCH
; #@! TA.AperFunction,NonPlated,NPTH,ComponentDrill
T1C0.0315
; #@! TA.AperFunction,NonPlated,NPTH,ComponentDrill
T2C0.0354
; #@! TA.AperFunction,NonPlated,NPTH,ComponentDrill
T3C0.0390
; #@! TA.AperFunction,NonPlated,NPTH,ComponentDrill
T4C0.0670
; #@! TA.AperFunction,NonPlated,NPTH,ComponentDrill
T5C0.1350
%
G90
G05
T1
X8.9714Y-3.3879
X9.247Y-3.3879
T2
X9.0009Y-2.04
X9.1191Y-2.04
T3
X5.3006Y-1.7788
X5.3006Y-2.4481
X5.3006Y-3.1174
X5.7117Y-1.7788
X5.7117Y-2.4481
X5.7117Y-3.1174
X6.0093Y-1.3064
X6.0093Y-1.9746
X6.0093Y-2.6446
X6.4203Y-1.3064
X6.4203Y-1.9746
X6.4203Y-2.6446
X6.718Y-1.0308
X6.718Y-1.7046
X6.718Y-2.3746
X7.129Y-1.0308
X7.129Y-1.7046
X7.129Y-2.3746
X7.4266Y-1.2473
X7.4266Y-1.9146
X7.4266Y-2.5846
X7.7833Y-3.6531
X7.8376Y-1.2473
X7.8376Y-1.9146
X7.8376Y-2.5846
X8.1345Y-2.0146
X8.1345Y-2.6846
X8.1353Y-1.3457
X8.1804Y-3.7594
X8.4947Y-3.9019
X8.5455Y-2.0146
X8.5455Y-2.6846
X8.5463Y-1.3457
X8.8507Y-4.1075
T4
X5.2896Y-1.9442
X5.2896Y-2.6135
X5.2896Y-3.2828
X5.7227Y-1.9442
X5.7227Y-2.6135
X5.7227Y-3.2828
X5.9983Y-1.4717
X5.9983Y-2.14
X5.9983Y-2.81
X6.4313Y-1.4717
X6.4313Y-2.14
X6.4313Y-2.81
X6.7069Y-1.1961
X6.7069Y-1.87
X6.7069Y-2.54
X7.14Y-1.1961
X7.14Y-1.87
X7.14Y-2.54
X7.4156Y-1.4127
X7.4156Y-2.08
X7.4156Y-2.75
X7.8155Y-3.4905
X7.8487Y-1.4127
X7.8487Y-2.08
X7.8487Y-2.75
X8.1235Y-2.18
X8.1235Y-2.85
X8.1243Y-1.5111
X8.2338Y-3.6026
X8.5565Y-2.18
X8.5565Y-2.85
X8.5573Y-1.5111
X8.5678Y-3.7532
X8.9429Y-3.9698
T5
X5.5061Y-1.9442
X5.5061Y-2.6135
X5.5061Y-3.2828
X6.2148Y-1.4717
X6.2148Y-2.14
X6.2148Y-2.81
X6.9235Y-1.1961
X6.9235Y-1.87
X6.9235Y-2.54
X7.6321Y-1.4127
X7.6321Y-2.08
X7.6321Y-2.75
X8.0246Y-3.5465
X8.34Y-2.18
X8.34Y-2.85
X8.3408Y-1.5111
X8.7554Y-3.8615
T0
M30
