%TF.GenerationSoftware,KiCad,Pcbnew,(6.0.8-1)-1*%
%TF.CreationDate,2023-02-27T11:26:25+02:00*%
%TF.ProjectId,sweepv2,73776565-7076-4322-9e6b-696361645f70,rev?*%
%TF.SameCoordinates,Original*%
%TF.FileFunction,Soldermask,Bot*%
%TF.FilePolarity,Negative*%
%FSLAX46Y46*%
G04 Gerber Fmt 4.6, Leading zero omitted, Abs format (unit mm)*
G04 Created by KiCad (PCBNEW (6.0.8-1)-1) date 2023-02-27 11:26:25*
%MOMM*%
%LPD*%
G01*
G04 APERTURE LIST*
%ADD10C,3.600000*%
%ADD11C,1.524000*%
%ADD12C,0.800000*%
%ADD13O,2.000000X1.600000*%
%ADD14C,0.990600*%
%ADD15C,1.701800*%
%ADD16C,3.429000*%
%ADD17C,2.282000*%
%ADD18C,4.400000*%
%ADD19C,1.397000*%
%ADD20C,1.000000*%
%ADD21R,0.900000X0.900000*%
%ADD22R,0.900000X1.250000*%
G04 APERTURE END LIST*
D10*
%TO.C,*%
X212979000Y-94325000D03*
%TD*%
D11*
%TO.C,U1*%
X237789400Y-53086000D03*
X237789400Y-55626000D03*
X237789400Y-58166000D03*
X237789400Y-60706000D03*
X237789400Y-63246000D03*
X237789400Y-65786000D03*
X237789400Y-68326000D03*
X237789400Y-70866000D03*
X237789400Y-73406000D03*
X237789400Y-75946000D03*
X237789400Y-78486000D03*
X237789400Y-81026000D03*
X222569400Y-81026000D03*
X222569400Y-78486000D03*
X222569400Y-75946000D03*
X222569400Y-73406000D03*
X222569400Y-70866000D03*
X222569400Y-68326000D03*
X222569400Y-65786000D03*
X222569400Y-63246000D03*
X222569400Y-60706000D03*
X222569400Y-58166000D03*
X222569400Y-55626000D03*
X222569400Y-53086000D03*
%TD*%
D12*
%TO.C,J2*%
X234874000Y-86052000D03*
X227874000Y-86052000D03*
D13*
X230274000Y-88352000D03*
X233274000Y-88352000D03*
X225174000Y-83752000D03*
X226274000Y-88352000D03*
%TD*%
D14*
%TO.C,SW16*%
X170636000Y-60316000D03*
D15*
X181356000Y-64516000D03*
X170356000Y-64516000D03*
D14*
X181076000Y-60316000D03*
D16*
X175856000Y-64516000D03*
D17*
X175856000Y-70416000D03*
X170856000Y-68316000D03*
%TD*%
D15*
%TO.C,SW20*%
X227149140Y-100832000D03*
X217622860Y-95332000D03*
D16*
X222386000Y-98082000D03*
D14*
X215765347Y-99109307D03*
X224806653Y-104329307D03*
D17*
X225336000Y-92972450D03*
X228616127Y-97291103D03*
%TD*%
D14*
%TO.C,SW15*%
X152636000Y-67174000D03*
X163076000Y-67174000D03*
D16*
X157856000Y-71374000D03*
D15*
X152356000Y-71374000D03*
X163356000Y-71374000D03*
D17*
X157856000Y-77274000D03*
X152856000Y-75174000D03*
%TD*%
D14*
%TO.C,SW21*%
X197696827Y-92787853D03*
D15*
X209138592Y-91505505D03*
X198513408Y-88658495D03*
D16*
X203826000Y-90082000D03*
D14*
X207781093Y-95489924D03*
D17*
X205353032Y-84383038D03*
X209639142Y-87705577D03*
%TD*%
D16*
%TO.C,SW17*%
X193856000Y-69850000D03*
D15*
X188356000Y-69850000D03*
D14*
X199076000Y-65650000D03*
X188636000Y-65650000D03*
D15*
X199356000Y-69850000D03*
D17*
X193856000Y-75750000D03*
X188856000Y-73650000D03*
%TD*%
D14*
%TO.C,SW18*%
X206616000Y-68190000D03*
D15*
X206336000Y-72390000D03*
X217336000Y-72390000D03*
D16*
X211836000Y-72390000D03*
D14*
X217056000Y-68190000D03*
D17*
X211836000Y-78290000D03*
X206836000Y-76190000D03*
%TD*%
D14*
%TO.C,SW4*%
X170636000Y-26182000D03*
D15*
X181356000Y-30382000D03*
D16*
X175856000Y-30382000D03*
D14*
X181076000Y-26182000D03*
D15*
X170356000Y-30382000D03*
D17*
X175856000Y-36282000D03*
X170856000Y-34182000D03*
%TD*%
D15*
%TO.C,SW3*%
X163356000Y-37382000D03*
D16*
X157856000Y-37382000D03*
D14*
X163076000Y-33182000D03*
X152636000Y-33182000D03*
D15*
X152356000Y-37382000D03*
D17*
X157856000Y-43282000D03*
X152856000Y-41182000D03*
%TD*%
D15*
%TO.C,SW9*%
X163356000Y-54356000D03*
D16*
X157856000Y-54356000D03*
D14*
X163076000Y-50156000D03*
X152636000Y-50156000D03*
D15*
X152356000Y-54356000D03*
D17*
X157856000Y-60256000D03*
X152856000Y-58156000D03*
%TD*%
D16*
%TO.C,SW14*%
X139856000Y-83382000D03*
D15*
X134356000Y-83382000D03*
D14*
X145076000Y-79182000D03*
D15*
X145356000Y-83382000D03*
D14*
X134636000Y-79182000D03*
D17*
X139856000Y-89282000D03*
X134856000Y-87182000D03*
%TD*%
D16*
%TO.C,SW12*%
X211836000Y-55372000D03*
D15*
X206336000Y-55372000D03*
D14*
X206616000Y-51172000D03*
X217056000Y-51172000D03*
D15*
X217336000Y-55372000D03*
D17*
X211836000Y-61272000D03*
X206836000Y-59172000D03*
%TD*%
D16*
%TO.C,SW11*%
X193856000Y-52832000D03*
D14*
X188636000Y-48632000D03*
X199076000Y-48632000D03*
D15*
X199356000Y-52832000D03*
X188356000Y-52832000D03*
D17*
X193856000Y-58732000D03*
X188856000Y-56632000D03*
%TD*%
D16*
%TO.C,SW8*%
X139856000Y-66382000D03*
D15*
X145356000Y-66382000D03*
D14*
X134636000Y-62182000D03*
D15*
X134356000Y-66382000D03*
D14*
X145076000Y-62182000D03*
D17*
X139856000Y-72282000D03*
X134856000Y-70182000D03*
%TD*%
D16*
%TO.C,SW6*%
X211856000Y-38382000D03*
D15*
X206356000Y-38382000D03*
D14*
X217076000Y-34182000D03*
X206636000Y-34182000D03*
D15*
X217356000Y-38382000D03*
D17*
X211856000Y-44282000D03*
X206856000Y-42182000D03*
%TD*%
D15*
%TO.C,SW5*%
X188356000Y-35882000D03*
D14*
X188636000Y-31682000D03*
D15*
X199356000Y-35882000D03*
D16*
X193856000Y-35882000D03*
D14*
X199076000Y-31682000D03*
D17*
X193856000Y-41782000D03*
X188856000Y-39682000D03*
%TD*%
D16*
%TO.C,SW2*%
X139856000Y-49382000D03*
D15*
X145356000Y-49382000D03*
X134356000Y-49382000D03*
D14*
X145076000Y-45182000D03*
X134636000Y-45182000D03*
D17*
X139856000Y-55282000D03*
X134856000Y-53182000D03*
%TD*%
D15*
%TO.C,SW10*%
X170356000Y-47498000D03*
X181356000Y-47498000D03*
D14*
X181076000Y-43298000D03*
X170636000Y-43298000D03*
D16*
X175856000Y-47498000D03*
D17*
X175856000Y-53398000D03*
X170856000Y-51298000D03*
%TD*%
D18*
%TO.C,REF\u002A\u002A*%
X204406000Y-46282000D03*
X166306000Y-46282000D03*
X185356000Y-27232000D03*
X185356000Y-65332000D03*
%TD*%
D19*
%TO.C,B+*%
X235966000Y-50800000D03*
%TD*%
%TO.C,B-*%
X224282000Y-50800000D03*
%TD*%
D20*
%TO.C,POWER SW*%
X231624000Y-51816000D03*
X228624000Y-51816000D03*
D21*
X233824000Y-52916000D03*
X226424000Y-52916000D03*
X226424000Y-50716000D03*
X233824000Y-50716000D03*
D22*
X227874000Y-53891000D03*
X230874000Y-53891000D03*
X232374000Y-53891000D03*
%TD*%
M02*
