M48
; DRILL file {KiCad (6.0.8-1)-1} date 2023 February 27, Monday 11:26:27
; FORMAT={-:-/ absolute / inch / decimal}
; #@! TF.CreationDate,2023-02-27T11:26:27+02:00
; #@! TF.GenerationSoftware,Kicad,Pcbnew,(6.0.8-1)-1
; #@! TF.FileFunction,Plated,1,2,PTH
FMAT,2
INCH
; #@! TA.AperFunction,Plated,PTH,ViaDrill
T1C0.0157
; #@! TA.AperFunction,Plated,PTH,ComponentDrill
T2C0.0320
; #@! TA.AperFunction,Plated,PTH,ComponentDrill
T3C0.0354
; #@! TA.AperFunction,Plated,PTH,ComponentDrill
T4C0.0598
; #@! TA.AperFunction,Plated,PTH,ComponentDrill
T5C0.0866
%
G90
G05
T1
X8.56Y-2.08
X8.72Y-3.28
X9.2Y-2.3
X9.25Y-2.42
T2
X8.7626Y-2.09
X8.7626Y-2.19
X8.7626Y-2.29
X8.7626Y-2.39
X8.7626Y-2.49
X8.7626Y-2.59
X8.7626Y-2.69
X8.7626Y-2.79
X8.7626Y-2.89
X8.7626Y-2.99
X8.7626Y-3.09
X8.7626Y-3.19
X8.83Y-2.0
X9.29Y-2.0
X9.3618Y-2.09
X9.3618Y-2.19
X9.3618Y-2.29
X9.3618Y-2.39
X9.3618Y-2.49
X9.3618Y-2.59
X9.3618Y-2.69
X9.3618Y-2.79
X9.3618Y-2.89
X9.3618Y-2.99
X9.3618Y-3.09
X9.3618Y-3.19
T4
X5.3093Y-2.0938
X5.3093Y-2.7631
X5.3093Y-3.4324
X5.5061Y-2.1765
X5.5061Y-2.8457
X5.5061Y-3.515
X6.018Y-1.6213
X6.018Y-2.2896
X6.018Y-2.9596
X6.2148Y-1.704
X6.2148Y-2.3723
X6.2148Y-3.0423
X6.7266Y-1.3457
X6.7266Y-2.0196
X6.7266Y-2.6896
X6.9235Y-1.4284
X6.9235Y-2.1023
X6.9235Y-2.7723
X7.4353Y-1.5623
X7.4353Y-2.2296
X7.4353Y-2.8996
X7.6321Y-1.645
X7.6321Y-2.3123
X7.6321Y-2.9823
X8.0848Y-3.3222
X8.1431Y-2.3296
X8.1431Y-2.9996
X8.1439Y-1.6607
X8.2535Y-3.453
X8.34Y-2.4123
X8.34Y-3.0823
X8.3408Y-1.7434
X8.8715Y-3.6603
X9.0006Y-3.8304
T5
X6.5475Y-1.8221
X7.2975Y-1.0721
X7.2975Y-2.5721
X8.0475Y-1.8221
X8.385Y-3.7136
T3
G00X8.873Y-3.2973
M15
G01X8.8572Y-3.2973
M16
G05
G00X8.9163Y-3.4784
M15
G01X8.9006Y-3.4784
M16
G05
G00X9.0738Y-3.4784
M15
G01X9.058Y-3.4784
M16
G05
G00X9.1919Y-3.4784
M15
G01X9.1761Y-3.4784
M16
G05
T0
M30
