%TF.GenerationSoftware,KiCad,Pcbnew,(6.0.8-1)-1*%
%TF.CreationDate,2023-02-27T11:26:25+02:00*%
%TF.ProjectId,sweepv2,73776565-7076-4322-9e6b-696361645f70,rev?*%
%TF.SameCoordinates,Original*%
%TF.FileFunction,Profile,NP*%
%FSLAX46Y46*%
G04 Gerber Fmt 4.6, Leading zero omitted, Abs format (unit mm)*
G04 Created by KiCad (PCBNEW (6.0.8-1)-1) date 2023-02-27 11:26:25*
%MOMM*%
%LPD*%
G01*
G04 APERTURE LIST*
%TA.AperFunction,Profile*%
%ADD10C,0.050000*%
%TD*%
G04 APERTURE END LIST*
D10*
X131508500Y-77724000D02*
X131506254Y-89547024D01*
X219998001Y-47763999D02*
X219998045Y-30439419D01*
X223714000Y-108050000D02*
G75*
G03*
X226446000Y-107451265I1070000J1650000D01*
G01*
X219998002Y-47763999D02*
G75*
G03*
X222033002Y-49694917I1999998J69999D01*
G01*
X219563295Y-29758875D02*
G75*
G03*
X182067777Y-21502679I-49442795J-135273425D01*
G01*
X178120389Y-21508135D02*
G75*
G03*
X132893000Y-38265000I-253989J-68728095D01*
G01*
X238688000Y-50442000D02*
G75*
G03*
X237938000Y-49692000I-750000J0D01*
G01*
X132893000Y-38265000D02*
G75*
G03*
X131466055Y-40278702I2445000J-3245000D01*
G01*
X131506294Y-89547021D02*
G75*
G03*
X133544000Y-91383119I1978006J146421D01*
G01*
X219998002Y-30439419D02*
G75*
G03*
X219563290Y-29758889I-750002J19D01*
G01*
X223714000Y-108050000D02*
G75*
G03*
X202185134Y-98863946I-44316000J-74040000D01*
G01*
X222033002Y-49694917D02*
X237938000Y-49692000D01*
X202185136Y-98863939D02*
G75*
G03*
X133544000Y-91383119I-69219136J-316475461D01*
G01*
X238688000Y-58420000D02*
X238688000Y-66548000D01*
X236953304Y-88858150D02*
X226446000Y-107451265D01*
X236953327Y-88858162D02*
G75*
G03*
X238700000Y-81534000I-15027227J7454062D01*
G01*
X182067777Y-21502679D02*
X178120389Y-21508139D01*
X238688000Y-50442000D02*
X238688000Y-58420000D01*
X131466055Y-40278702D02*
X131572000Y-53875000D01*
X238688000Y-66548000D02*
X238688000Y-75438000D01*
X238688000Y-75438000D02*
X238700000Y-81534000D01*
X131572000Y-53848000D02*
X131508500Y-77724000D01*
M02*
