M48
; DRILL file {KiCad (6.0.8-1)-1} date 2023 February 22, Wednesday 14:28:00
; FORMAT={-:-/ absolute / inch / decimal}
; #@! TF.CreationDate,2023-02-22T14:28:00+02:00
; #@! TF.GenerationSoftware,Kicad,Pcbnew,(6.0.8-1)-1
; #@! TF.FileFunction,Plated,1,2,PTH
FMAT,2
INCH
; #@! TA.AperFunction,Plated,PTH,ViaDrill
T1C0.0157
; #@! TA.AperFunction,Plated,PTH,ComponentDrill
T2C0.0157
; #@! TA.AperFunction,Plated,PTH,ComponentDrill
T3C0.0197
; #@! TA.AperFunction,Plated,PTH,ComponentDrill
T4C0.0320
; #@! TA.AperFunction,Plated,PTH,ComponentDrill
T5C0.0394
; #@! TA.AperFunction,Plated,PTH,ComponentDrill
T6C0.0433
; #@! TA.AperFunction,Plated,PTH,ComponentDrill
T7C0.0512
; #@! TA.AperFunction,Plated,PTH,ComponentDrill
T8C0.0591
; #@! TA.AperFunction,Plated,PTH,ComponentDrill
T9C0.0945
; #@! TA.AperFunction,Plated,PTH,ComponentDrill
T10C0.1850
%
G90
G05
T1
X3.4803Y-2.3268
X3.5276Y-2.5394
X3.5551Y-2.3307
X3.5551Y-2.4528
X3.748Y-1.7362
X3.7569Y-1.8846
X3.8386Y-1.7664
X3.8386Y-1.9141
X3.8386Y-2.689
X3.9055Y-1.9664
X3.9567Y-2.1193
X3.9567Y-2.7224
X3.9567Y-2.7539
X4.0472Y-2.0193
X4.0472Y-2.7047
X4.1614Y-1.6339
X4.1614Y-1.7323
X4.1614Y-2.0394
X4.1614Y-2.1299
X4.1614Y-2.2362
X4.1614Y-2.3346
X4.1614Y-2.437
X4.1614Y-2.5394
X4.1614Y-2.6299
X4.1614Y-2.6929
X4.3307Y-3.2008
X4.3622Y-3.0551
X4.4803Y-3.0472
T2
X4.3228Y-3.752
X4.3228Y-3.8858
X4.3878Y-4.7727
X4.4547Y-4.8887
X4.7913Y-4.9528
X4.7913Y-5.0866
X5.0689Y-1.813
X5.0689Y-1.9469
X5.0689Y-2.6496
X5.0689Y-2.7835
X5.0689Y-3.3091
X5.0689Y-3.4429
X5.0709Y-4.1457
X5.0709Y-4.2795
X5.1673Y-1.813
X5.1673Y-1.9469
X5.1673Y-3.3091
X5.1673Y-3.4429
X5.1673Y-4.1457
X5.1673Y-4.2795
X5.1674Y-2.6477
X5.1674Y-2.7816
X5.4803Y-4.752
X5.4803Y-4.8858
X5.8661Y-2.4724
X5.8661Y-2.6063
X5.8661Y-3.2205
X5.8661Y-3.3543
X5.8661Y-3.9685
X5.8661Y-4.1024
X5.876Y-1.7146
X5.876Y-1.8484
X6.248Y-4.752
X6.248Y-4.8858
X6.624Y-1.8031
X6.624Y-1.937
X6.624Y-2.5512
X6.624Y-2.685
X6.624Y-3.3091
X6.624Y-3.4429
X6.624Y-4.0571
X6.624Y-4.1909
X7.372Y-2.0
X7.372Y-2.1339
X7.372Y-2.7382
X7.372Y-2.872
X7.372Y-3.5059
X7.372Y-3.6398
X7.372Y-4.2441
X7.372Y-4.378
X8.1201Y-2.0
X8.1201Y-2.1339
X8.1201Y-2.7382
X8.1201Y-2.872
X8.1201Y-3.5059
X8.1201Y-3.6398
X8.1201Y-4.2441
X8.1201Y-4.378
T4
X3.3342Y-2.1063
X3.3342Y-2.3063
X3.3346Y-2.3898
X3.4213Y-2.3898
X3.4228Y-2.1063
X3.4228Y-2.3063
X3.4836Y-2.9025
X3.4836Y-3.0025
X3.5836Y-2.9025
X3.5836Y-3.0025
X3.6291Y-1.6193
X3.6291Y-1.7193
X3.6291Y-1.8193
X3.6291Y-1.9193
X3.6291Y-2.0193
X3.6291Y-2.1193
X3.6291Y-2.2193
X3.6291Y-2.3193
X3.6291Y-2.4193
X3.6291Y-2.5193
X3.6291Y-2.6193
X3.6291Y-2.7193
X3.6803Y-1.6664
X3.6803Y-1.7664
X3.6803Y-1.8664
X3.6803Y-1.9664
X3.6803Y-2.0664
X3.6803Y-2.1664
X3.6803Y-2.2664
X3.6803Y-2.3664
X3.6803Y-2.4664
X3.6803Y-2.5664
X3.6803Y-2.6664
X3.6803Y-2.7664
X3.6836Y-2.9025
X3.6836Y-3.0025
X3.8071Y-2.9528
X3.9071Y-2.9528
X4.0071Y-2.9528
X4.1071Y-2.9528
X4.2291Y-1.6193
X4.2291Y-1.7193
X4.2291Y-1.8193
X4.2291Y-1.9193
X4.2291Y-2.0193
X4.2291Y-2.1193
X4.2291Y-2.2193
X4.2291Y-2.3193
X4.2291Y-2.4193
X4.2291Y-2.5193
X4.2291Y-2.6193
X4.2291Y-2.7193
X4.2803Y-1.6664
X4.2803Y-1.7664
X4.2803Y-1.8664
X4.2803Y-1.9664
X4.2803Y-2.0664
X4.2803Y-2.1664
X4.2803Y-2.2664
X4.2803Y-2.3664
X4.2803Y-2.4664
X4.2803Y-2.5664
X4.2803Y-2.6664
X4.2803Y-2.7664
T5
X4.3229Y-4.6602
X4.3229Y-3.622
X4.3229Y-4.022
X4.5229Y-5.0066
X4.7914Y-4.8228
X4.7914Y-5.2228
X5.069Y-1.6831
X5.069Y-2.0831
X5.069Y-2.5197
X5.069Y-2.9197
X5.069Y-3.1791
X5.069Y-3.5791
X5.071Y-4.0157
X5.071Y-4.4157
X5.1674Y-1.6831
X5.1674Y-2.0831
X5.1674Y-3.1791
X5.1674Y-3.5791
X5.1674Y-4.0157
X5.1674Y-4.4157
X5.1675Y-2.5178
X5.1675Y-2.9178
X5.4804Y-4.622
X5.4804Y-5.022
X5.8662Y-2.3425
X5.8662Y-2.7425
X5.8662Y-3.0906
X5.8662Y-3.4906
X5.8662Y-3.8386
X5.8662Y-4.2386
X5.8761Y-1.5846
X5.8761Y-1.9846
X6.2481Y-4.622
X6.2481Y-5.022
X6.6241Y-1.6732
X6.6241Y-2.0732
X6.6241Y-2.4213
X6.6241Y-2.8213
X6.6241Y-3.1791
X6.6241Y-3.5791
X6.6241Y-3.9272
X6.6241Y-4.3272
X7.3721Y-1.8701
X7.3721Y-2.2701
X7.3721Y-2.6083
X7.3721Y-3.0083
X7.3721Y-3.376
X7.3721Y-3.776
X7.3721Y-4.1142
X7.3721Y-4.5142
X8.1202Y-1.8701
X8.1202Y-2.2701
X8.1202Y-2.6083
X8.1202Y-3.0083
X8.1202Y-3.376
X8.1202Y-3.776
X8.1202Y-4.1142
X8.1202Y-4.5142
T6
X3.6801Y-2.7667
X4.2801Y-2.7667
T7
X3.3504Y-2.5689
X3.3504Y-2.8248
T8
X3.7953Y-3.9882
X3.8421Y-3.7386
X3.8921Y-3.6386
X3.9059Y-4.9043
X3.9327Y-5.1161
X3.9921Y-4.0709
X4.0921Y-3.6386
X4.1027Y-5.2453
X4.1421Y-3.7386
X4.1455Y-4.8201
X4.189Y-3.9882
X4.2571Y-4.8134
X4.2955Y-5.0799
X4.3571Y-4.9866
X4.5472Y-2.1181
X4.5472Y-2.8701
X4.5472Y-3.6181
X4.5472Y-4.3661
X4.5941Y-1.8685
X4.5941Y-2.6205
X4.5941Y-3.3685
X4.5941Y-4.1165
X4.6441Y-1.7685
X4.6441Y-2.5205
X4.6441Y-3.2685
X4.6441Y-4.0165
X4.7441Y-2.2008
X4.7441Y-2.9528
X4.7441Y-3.7008
X4.7441Y-4.4488
X4.8441Y-1.7685
X4.8441Y-2.5205
X4.8441Y-3.2685
X4.8441Y-4.0165
X4.8941Y-1.8685
X4.8941Y-2.6205
X4.8941Y-3.3685
X4.8941Y-4.1165
X4.9213Y-5.1102
X4.9409Y-2.1181
X4.9409Y-2.8701
X4.9409Y-3.6181
X4.9409Y-4.3661
X4.9681Y-4.8606
X5.0181Y-4.7606
X5.1181Y-5.1929
X5.2181Y-4.7606
X5.2681Y-4.8606
X5.2953Y-2.0236
X5.2953Y-2.7756
X5.2953Y-3.5236
X5.2953Y-4.2756
X5.315Y-5.1102
X5.3421Y-1.774
X5.3421Y-2.526
X5.3421Y-3.274
X5.3421Y-4.026
X5.3921Y-1.674
X5.3921Y-2.426
X5.3921Y-3.174
X5.3921Y-3.926
X5.4921Y-2.1063
X5.4921Y-2.8583
X5.4921Y-3.6063
X5.4921Y-4.3583
X5.5921Y-1.674
X5.5921Y-2.426
X5.5921Y-3.174
X5.5921Y-3.926
X5.6421Y-1.774
X5.6421Y-2.526
X5.6421Y-3.274
X5.6421Y-4.026
X5.6693Y-5.0217
X5.689Y-2.0236
X5.689Y-2.7756
X5.689Y-3.5236
X5.689Y-4.2756
X5.7161Y-4.772
X5.7661Y-4.672
X5.8661Y-5.1043
X5.9661Y-4.672
X6.0161Y-4.772
X6.0472Y-1.9689
X6.0472Y-2.7205
X6.0472Y-3.4724
X6.0472Y-4.2205
X6.063Y-5.0217
X6.0941Y-1.7193
X6.0941Y-2.4709
X6.0941Y-3.2228
X6.0941Y-3.9709
X6.1441Y-1.6193
X6.1441Y-2.3709
X6.1441Y-3.1228
X6.1441Y-3.8709
X6.2441Y-2.0516
X6.2441Y-2.8031
X6.2441Y-3.5551
X6.2441Y-4.3031
X6.3441Y-1.6193
X6.3441Y-2.3709
X6.3441Y-3.1228
X6.3441Y-3.8709
X6.3941Y-1.7193
X6.3941Y-2.4709
X6.3941Y-3.2228
X6.3941Y-3.9709
X6.4213Y-5.0217
X6.4409Y-1.9689
X6.4409Y-2.7205
X6.4409Y-3.4724
X6.4409Y-4.2205
X6.4681Y-4.772
X6.5181Y-4.672
X6.6181Y-5.1043
X6.7181Y-4.672
X6.7681Y-4.772
X6.7953Y-2.0236
X6.7953Y-2.7717
X6.7953Y-3.5236
X6.7953Y-4.2756
X6.815Y-5.0217
X6.8421Y-1.774
X6.8421Y-2.522
X6.8421Y-3.274
X6.8421Y-4.026
X6.8921Y-1.674
X6.8921Y-2.422
X6.8921Y-3.174
X6.8921Y-3.926
X6.9921Y-2.1063
X6.9921Y-2.8543
X6.9921Y-3.6063
X6.9921Y-4.3583
X7.0921Y-1.674
X7.0921Y-2.422
X7.0921Y-3.174
X7.0921Y-3.926
X7.1421Y-1.774
X7.1421Y-2.522
X7.1421Y-3.274
X7.1421Y-4.026
X7.189Y-2.0236
X7.189Y-2.7717
X7.189Y-3.5236
X7.189Y-4.2756
X7.5472Y-2.2126
X7.5472Y-2.9567
X7.5472Y-3.7126
X7.5472Y-4.4606
X7.5941Y-1.963
X7.5941Y-2.7071
X7.5941Y-3.463
X7.5941Y-4.211
X7.6441Y-1.863
X7.6441Y-2.6071
X7.6441Y-3.363
X7.6441Y-4.111
X7.7441Y-2.2953
X7.7441Y-3.0394
X7.7441Y-3.7953
X7.7441Y-4.5433
X7.8441Y-1.863
X7.8441Y-2.6071
X7.8441Y-3.363
X7.8441Y-4.111
X7.8941Y-1.963
X7.8941Y-2.7071
X7.8941Y-3.463
X7.8941Y-4.211
X7.9409Y-2.2126
X7.9409Y-2.9567
X7.9409Y-3.7126
X7.9409Y-4.4606
X8.2953Y-2.2717
X8.2953Y-3.0157
X8.2953Y-3.7717
X8.2972Y-4.5197
X8.3421Y-2.022
X8.3421Y-2.7661
X8.3421Y-3.522
X8.3441Y-4.2701
X8.3921Y-1.922
X8.3921Y-2.6661
X8.3921Y-3.422
X8.3941Y-4.1701
X8.4921Y-2.3543
X8.4921Y-3.0984
X8.4921Y-3.8543
X8.4941Y-4.6024
X8.5921Y-1.922
X8.5921Y-2.6661
X8.5921Y-3.422
X8.5941Y-4.1701
X8.6421Y-2.022
X8.6421Y-2.7661
X8.6421Y-3.522
X8.6441Y-4.2701
X8.689Y-2.2717
X8.689Y-3.0157
X8.689Y-3.7717
X8.6909Y-4.5197
T9
X3.777Y-3.3571
X4.2061Y-3.3571
T10
X4.1339Y-4.5197
X5.1024Y-2.3465
X5.1024Y-3.8425
X8.1024Y-2.4331
X8.1024Y-3.937
T3
G00X3.3091Y-1.6555
M15
G01X3.3091Y-1.6988
M16
G05
G00X3.3091Y-1.7736
M15
G01X3.3091Y-1.8169
M16
G05
G00X3.3091Y-1.9311
M15
G01X3.3091Y-1.9744
M16
G05
G00X3.378Y-1.9902
M15
G01X3.378Y-2.0335
M16
G05
G00X3.4744Y-1.9902
M15
G01X3.4744Y-2.0335
M16
G05
G00X3.5433Y-1.6555
M15
G01X3.5433Y-1.6988
M16
G05
G00X3.5433Y-1.7736
M15
G01X3.5433Y-1.8169
M16
G05
G00X3.5433Y-1.9311
M15
G01X3.5433Y-1.9744
M16
G05
T0
M30
