0
SECTION
2
HEADER
9
$INSUNITS
70
4
9
$ACADVER
1
AC1014
9
$HANDSEED
5
FFFF
0
ENDSEC
0
SECTION
2
TABLES
0
TABLE
2
VPORT
5
8
100
AcDbSymbolTable
0
ENDTAB
0
TABLE
2
LTYPE
5
5
100
AcDbSymbolTable
0
LTYPE
5
14
100
AcDbSymbolTableRecord
100
AcDbLinetypeTableRecord
2
BYBLOCK
70
0
0
LTYPE
5
15
100
AcDbSymbolTableRecord
100
AcDbLinetypeTableRecord
2
BYLAYER
70
0
0
ENDTAB
0
TABLE
2
LAYER
5
2
100
AcDbSymbolTable
70
2
0
LAYER
5
50
100
AcDbSymbolTableRecord
100
AcDbLayerTableRecord
2
0
70
0
6
CONTINUOUS
0
ENDTAB
0
TABLE
2
STYLE
5
3
100
AcDbSymbolTable
70
1
0
STYLE
5
11
100
AcDbSymbolTableRecord
100
AcDbTextStyleTableRecord
2
STANDARD
70
0
0
ENDTAB
0
TABLE
2
VIEW
5
6
100
AcDbSymbolTable
70
0
0
ENDTAB
0
TABLE
2
UCS
5
7
100
AcDbSymbolTable
70
0
0
ENDTAB
0
TABLE
2
APPID
5
9
100
AcDbSymbolTable
70
2
0
APPID
5
12
100
AcDbSymbolTableRecord
100
AcDbRegAppTableRecord
2
ACAD
70
0
0
ENDTAB
0
TABLE
2
DIMSTYLE
5
A
100
AcDbSymbolTable
70
1
0
ENDTAB
0
TABLE
2
BLOCK_RECORD
5
1
100
AcDbSymbolTable
70
1
0
BLOCK_RECORD
5
1F
100
AcDbSymbolTableRecord
100
AcDbBlockTableRecord
2
*MODEL_SPACE
0
BLOCK_RECORD
5
1B
100
AcDbSymbolTableRecord
100
AcDbBlockTableRecord
2
*PAPER_SPACE
0
ENDTAB
0
ENDSEC
0
SECTION
2
BLOCKS
0
BLOCK
5
20
100
AcDbEntity
100
AcDbBlockBegin
2
*MODEL_SPACE
0
ENDBLK
5
21
100
AcDbEntity
100
AcDbBlockEnd
0
BLOCK
5
1C
100
AcDbEntity
100
AcDbBlockBegin
2
*PAPER_SPACE
0
ENDBLK
5
1D
100
AcDbEntity
100
AcDbBlockEnd
0
ENDSEC
0
SECTION
2
ENTITIES
0
LWPOLYLINE
5
100
100
AcDbEntity
8
0
100
AcDbPolyline
90
126
70
1
43
0.0
10
215.07349422346579
20
23.629348890544946
10
215.07349422346579
20
33.629348890544939
42
0.35720942281015478
10
212.66498662547406
20
36.570460370643318
10
210.49248180385547
20
37.007376857491593
10
203.38754280385544
20
37.94697485749159
10
194.77443880385545
20
38.722047857491596
10
184.88632280385545
20
39.307161857491593
10
173.95634780385541
20
39.676881857491594
10
162.21766580385543
20
39.805773857491594
10
78.954994803855456
20
39.805773857491594
10
78.743246803855442
20
39.784460857491595
10
78.546087803855457
20
39.723325857491595
10
78.367721803855446
20
39.626574857491597
10
78.212354803855462
20
39.498412857491594
10
78.084193803855456
20
39.343046857491593
10
77.987441803855432
20
39.164680857491597
10
77.926307803855451
20
38.967520857491593
10
77.904994803855431
20
38.75577385749159
10
77.904312803855461
20
32.448840857491589
10
77.904312803855461
20
-4.499693142508403
10
78.102474803855443
20
-8.525025142508408
10
78.457081803855445
20
-12.565127142508409
10
78.987756803855433
20
-16.598289142508399
10
79.71386780385545
20
-20.60271014250841
10
80.654788803855439
20
-24.55659114250841
10
81.829889803855465
20
-28.43813414250841
10
83.258542803855448
20
-32.225537142508415
10
84.960117803855454
20
-35.897004142508408
10
86.635347803855453
20
-38.762206142508411
10
88.311042803855443
20
-41.628526142508413
10
89.98673680385545
20
-44.49484514250841
10
91.662431803855441
20
-47.361165142508398
10
93.338125803855434
20
-50.227484142508416
10
95.013820803855467
20
-53.093804142508404
10
96.689514803855459
20
-55.960123142508408
10
98.36520980385545
20
-58.82644314250841
10
98.458621803855451
20
-58.995614142508416
10
98.564079803855435
20
-59.13034814250841
10
98.681112803855427
20
-59.229996142508412
10
98.809254803855438
20
-59.293909142508397
10
98.948036803855445
20
-59.321438142508413
10
99.096990803855448
20
-59.311932142508411
10
99.255648803855451
20
-59.264742142508396
10
99.423542803855455
20
-59.179220142508413
10
101.09923680385543
20
-58.20908114250841
10
102.77493180385547
20
-57.238943142508418
10
104.45062580385546
20
-56.268804142508415
10
106.12632080385545
20
-55.298665142508412
10
107.80201480385544
20
-54.328526142508409
10
109.47770980385545
20
-53.35838714250842
10
112.82909780385543
20
-51.418109142508413
10
120.19947980385544
20
-51.419122142508407
10
168.78613280385548
20
-51.419122142508407
42
0.41421356237311585
10
170.28613280385548
20
-49.919122142508371
10
170.2861328038552
20
-40.197199142508488
42
-0.41421356237310175
10
173.78613280385522
20
-36.697199142508403
10
213.07349422346579
20
-36.69719914250841
42
0.41421356237309509
10
215.07349422346579
20
-34.697199142508403
10
215.07349422346579
20
-24.697199142508403
42
-0.99999999999999989
10
217.07349422346581
20
-24.697199142508403
10
217.07349422346581
20
-34.697199142509191
10
223.07349422346584
20
-34.697199142509191
10
223.07349422346567
20
-24.697199519775694
42
-1.0000001886336516
10
225.07349422346564
20
-24.697199142508424
10
225.07349422346579
20
-34.697199142508403
42
0.4142135623730957
10
227.07349422346579
20
-36.69719914250841
10
266.36085564307632
20
-36.697199142508417
42
-0.41421356237309948
10
269.86085564307638
20
-40.197199142508488
10
269.86085564307609
20
-49.919122142508371
42
0.41421356237310197
10
271.36085564307609
20
-51.419122142508407
10
319.94750864307611
20
-51.419122142508407
10
327.31789064307611
20
-51.418109142508413
10
330.66927864307615
20
-53.35838714250842
10
332.34497364307617
20
-54.328526142508409
10
334.02066764307614
20
-55.298665142508412
10
335.6963626430761
20
-56.268804142508415
10
337.37205664307612
20
-57.238943142508418
10
339.04775164307614
20
-58.20908114250841
10
340.72344564307616
20
-59.179220142508413
10
340.89133964307615
20
-59.264742142508396
10
341.04999764307615
20
-59.311932142508411
10
341.19895164307616
20
-59.321438142508413
10
341.33773364307615
20
-59.293909142508397
10
341.46587564307617
20
-59.229996142508412
10
341.58290864307617
20
-59.13034814250841
10
341.68836664307611
20
-58.995614142508416
10
341.78177864307611
20
-58.82644314250841
10
343.45747364307613
20
-55.960123142508408
10
345.13316764307609
20
-53.093804142508404
10
346.80886264307617
20
-50.227484142508416
10
348.48455664307613
20
-47.361165142508398
10
350.16025164307615
20
-44.49484514250841
10
351.83594564307612
20
-41.628526142508413
10
353.51164064307613
20
-38.762206142508411
10
355.18687064307613
20
-35.897004142508408
10
356.88844564307612
20
-32.225537142508415
10
358.31709864307612
20
-28.43813414250841
10
359.49219964307616
20
-24.55659114250841
10
360.43312064307611
20
-20.60271014250841
10
361.15923164307617
20
-16.598289142508399
10
361.68990664307614
20
-12.565127142508409
10
362.04451364307613
20
-8.525025142508408
10
362.2426756430761
20
-4.499693142508403
10
362.2426756430761
20
32.448840857491589
10
362.24199364307617
20
38.75577385749159
10
362.22068064307615
20
38.967520857491593
10
362.15954664307617
20
39.164680857491597
10
362.06279464307613
20
39.343046857491593
10
361.9346336430761
20
39.498412857491594
10
361.77926664307614
20
39.626574857491597
10
361.6009006430761
20
39.723325857491595
10
361.40374164307616
20
39.784460857491595
10
361.1919936430761
20
39.805773857491594
10
277.92932264307615
20
39.805773857491594
10
266.19064064307616
20
39.676881857491594
10
255.26066564307612
20
39.307161857491593
10
245.37254964307613
20
38.722047857491596
10
236.75944564307613
20
37.94697485749159
10
229.6545066430761
20
37.007376857491593
10
227.48200182145752
20
36.570460370643318
42
0.3572094228101555
10
225.07349422346579
20
33.629348890544939
10
225.0734942234659
20
23.629348568873066
42
-0.99999983916408275
10
223.0734942234659
20
23.629348890544925
10
223.07349422346584
20
33.629348890544158
10
217.07349422346581
20
33.629348890544158
10
217.07349422346581
20
23.629348890544946
42
-0.99999999999999989
0
LWPOLYLINE
5
101
100
AcDbEntity
8
0
100
AcDbPolyline
90
4
70
1
43
0.0
10
223.07349422346573
20
-18.697199469893512
42
0.9999998360872403
10
225.07349422346567
20
-18.697199142508431
10
225.07349422346584
20
17.629348626150328
42
1.0000001324444263
10
223.07349422346587
20
17.629348890544925
0
CIRCLE
5
102
100
AcDbEntity
8
0
100
AcDbCircle
10
324.68020364307614
20
-23.007464142508411
30
0
40
1.5000000000000002
210
0
220
-0
230
1
0
CIRCLE
5
103
100
AcDbEntity
8
0
100
AcDbCircle
10
234.68020364307597
20
7.0925358574915753
30
0
40
1.5000000000000002
210
0
220
-0
230
1
0
CIRCLE
5
104
100
AcDbEntity
8
0
100
AcDbCircle
10
234.68020364307597
20
-26.907464142508427
30
0
40
1.5000000000000002
210
0
220
-0
230
1
0
CIRCLE
5
105
100
AcDbEntity
8
0
100
AcDbCircle
10
252.680203643076
20
8.5925358574915798
30
0
40
1.5000000000000002
210
0
220
-0
230
1
0
CIRCLE
5
106
100
AcDbEntity
8
0
100
AcDbCircle
10
252.680203643076
20
-25.407464142508424
30
0
40
1.5000000000000002
210
0
220
-0
230
1
0
CIRCLE
5
107
100
AcDbEntity
8
0
100
AcDbCircle
10
270.68020364307597
20
30.292535857491586
30
0
40
1.5000000000000002
210
0
220
-0
230
1
0
CIRCLE
5
108
100
AcDbEntity
8
0
100
AcDbCircle
10
288.68020364307608
20
31.692535857491553
30
0
40
1.5000000000000002
210
0
220
-0
230
1
0
CIRCLE
5
109
100
AcDbEntity
8
0
100
AcDbCircle
10
288.68020364307608
20
-2.3074641425084486
30
0
40
1.5000000000000002
210
0
220
-0
230
1
0
CIRCLE
5
110
100
AcDbEntity
8
0
100
AcDbCircle
10
270.68020364307597
20
-20.707464142508417
30
0
40
1.5000000000000002
210
0
220
-0
230
1
0
CIRCLE
5
111
100
AcDbEntity
8
0
100
AcDbCircle
10
297.68020364307603
20
-39.657464142508417
30
0
40
1.5000000000000002
210
0
220
-0
230
1
0
CIRCLE
5
112
100
AcDbEntity
8
0
100
AcDbCircle
10
306.68020364307614
20
-3.7074641425083588
30
0
40
1.5000000000000002
210
0
220
-0
230
1
0
CIRCLE
5
113
100
AcDbEntity
8
0
100
AcDbCircle
10
306.68020364307614
20
30.292535857491643
30
0
40
1.5000000000000002
210
0
220
-0
230
1
0
CIRCLE
5
114
100
AcDbEntity
8
0
100
AcDbCircle
10
324.68020364307614
20
10.992535857491594
30
0
40
1.5000000000000002
210
0
220
-0
230
1
0
CIRCLE
5
115
100
AcDbEntity
8
0
100
AcDbCircle
10
315.68020364307591
20
-41.907464142508417
30
0
40
1.5000000000000002
210
0
220
-0
230
1
0
CIRCLE
5
116
100
AcDbEntity
8
0
100
AcDbCircle
10
342.6802036430762
20
-14.507464142508393
30
0
40
1.5000000000000002
210
0
220
-0
230
1
0
CIRCLE
5
117
100
AcDbEntity
8
0
100
AcDbCircle
10
340.79141957524365
20
-42.966121191418509
30
0
40
1.5000000000000002
210
0
220
-0
230
1
0
CIRCLE
5
118
100
AcDbEntity
8
0
100
AcDbCircle
10
324.68020364307614
20
-6.0074641425084074
30
0
40
1.5000000000000002
210
0
220
-0
230
1
0
CIRCLE
5
119
100
AcDbEntity
8
0
100
AcDbCircle
10
324.68020364307614
20
27.992535857491596
30
0
40
1.5000000000000002
210
0
220
-0
230
1
0
CIRCLE
5
120
100
AcDbEntity
8
0
100
AcDbCircle
10
306.68020364307614
20
13.292535857491643
30
0
40
1.5000000000000002
210
0
220
-0
230
1
0
CIRCLE
5
121
100
AcDbEntity
8
0
100
AcDbCircle
10
306.68020364307614
20
-20.707464142508361
30
0
40
1.5000000000000002
210
0
220
-0
230
1
0
CIRCLE
5
122
100
AcDbEntity
8
0
100
AcDbCircle
10
279.68020364307608
20
-39.657464142508417
30
0
40
1.5000000000000002
210
0
220
-0
230
1
0
CIRCLE
5
123
100
AcDbEntity
8
0
100
AcDbCircle
10
288.68020364307608
20
-19.307464142508451
30
0
40
1.5000000000000002
210
0
220
-0
230
1
0
CIRCLE
5
124
100
AcDbEntity
8
0
100
AcDbCircle
10
288.68020364307608
20
14.692535857491553
30
0
40
1.5000000000000002
210
0
220
-0
230
1
0
CIRCLE
5
125
100
AcDbEntity
8
0
100
AcDbCircle
10
270.68020364307597
20
13.292535857491586
30
0
40
1.5000000000000002
210
0
220
-0
230
1
0
CIRCLE
5
126
100
AcDbEntity
8
0
100
AcDbCircle
10
270.68020364307597
20
-3.7074641425084165
30
0
40
1.5000000000000002
210
0
220
-0
230
1
0
CIRCLE
5
127
100
AcDbEntity
8
0
100
AcDbCircle
10
252.680203643076
20
-8.4074641425084238
30
0
40
1.5000000000000002
210
0
220
-0
230
1
0
CIRCLE
5
128
100
AcDbEntity
8
0
100
AcDbCircle
10
252.680203643076
20
25.59253585749158
30
0
40
1.5000000000000002
210
0
220
-0
230
1
0
CIRCLE
5
129
100
AcDbEntity
8
0
100
AcDbCircle
10
234.68020364307597
20
-9.9074641425084273
30
0
40
1.5000000000000002
210
0
220
-0
230
1
0
CIRCLE
5
130
100
AcDbEntity
8
0
100
AcDbCircle
10
234.68020364307597
20
24.092535857491576
30
0
40
1.5000000000000002
210
0
220
-0
230
1
0
CIRCLE
5
131
100
AcDbEntity
8
0
100
AcDbCircle
10
205.4667848038556
20
24.092535857491576
30
0
40
1.5000000000000002
210
0
220
-0
230
1
0
CIRCLE
5
132
100
AcDbEntity
8
0
100
AcDbCircle
10
205.4667848038556
20
-9.9074641425084273
30
0
40
1.5000000000000002
210
0
220
-0
230
1
0
CIRCLE
5
133
100
AcDbEntity
8
0
100
AcDbCircle
10
187.46678480385557
20
25.59253585749158
30
0
40
1.5000000000000002
210
0
220
-0
230
1
0
CIRCLE
5
134
100
AcDbEntity
8
0
100
AcDbCircle
10
187.46678480385557
20
-8.4074641425084238
30
0
40
1.5000000000000002
210
0
220
-0
230
1
0
CIRCLE
5
135
100
AcDbEntity
8
0
100
AcDbCircle
10
169.4667848038556
20
-3.7074641425084165
30
0
40
1.5000000000000002
210
0
220
-0
230
1
0
CIRCLE
5
136
100
AcDbEntity
8
0
100
AcDbCircle
10
169.4667848038556
20
13.292535857491586
30
0
40
1.5000000000000002
210
0
220
-0
230
1
0
CIRCLE
5
137
100
AcDbEntity
8
0
100
AcDbCircle
10
151.46678480385549
20
14.692535857491553
30
0
40
1.5000000000000002
210
0
220
-0
230
1
0
CIRCLE
5
138
100
AcDbEntity
8
0
100
AcDbCircle
10
151.46678480385549
20
-19.307464142508451
30
0
40
1.5000000000000002
210
0
220
-0
230
1
0
CIRCLE
5
139
100
AcDbEntity
8
0
100
AcDbCircle
10
160.46678480385549
20
-39.657464142508417
30
0
40
1.5000000000000002
210
0
220
-0
230
1
0
CIRCLE
5
140
100
AcDbEntity
8
0
100
AcDbCircle
10
133.4667848038554
20
-20.707464142508361
30
0
40
1.5000000000000002
210
0
220
-0
230
1
0
CIRCLE
5
141
100
AcDbEntity
8
0
100
AcDbCircle
10
133.4667848038554
20
13.292535857491643
30
0
40
1.5000000000000002
210
0
220
-0
230
1
0
CIRCLE
5
142
100
AcDbEntity
8
0
100
AcDbCircle
10
115.46678480385543
20
27.992535857491596
30
0
40
1.5000000000000002
210
0
220
-0
230
1
0
CIRCLE
5
143
100
AcDbEntity
8
0
100
AcDbCircle
10
115.46678480385543
20
-6.0074641425084074
30
0
40
1.5000000000000002
210
0
220
-0
230
1
0
CIRCLE
5
144
100
AcDbEntity
8
0
100
AcDbCircle
10
99.355568871687936
20
-42.966121191418509
30
0
40
1.5000000000000002
210
0
220
-0
230
1
0
CIRCLE
5
145
100
AcDbEntity
8
0
100
AcDbCircle
10
97.466784803855404
20
-14.507464142508393
30
0
40
1.5000000000000002
210
0
220
-0
230
1
0
CIRCLE
5
146
100
AcDbEntity
8
0
100
AcDbCircle
10
124.46678480385566
20
-41.907464142508417
30
0
40
1.5000000000000002
210
0
220
-0
230
1
0
CIRCLE
5
147
100
AcDbEntity
8
0
100
AcDbCircle
10
115.46678480385543
20
10.992535857491594
30
0
40
1.5000000000000002
210
0
220
-0
230
1
0
CIRCLE
5
148
100
AcDbEntity
8
0
100
AcDbCircle
10
133.4667848038554
20
30.292535857491643
30
0
40
1.5000000000000002
210
0
220
-0
230
1
0
CIRCLE
5
149
100
AcDbEntity
8
0
100
AcDbCircle
10
133.4667848038554
20
-3.7074641425083588
30
0
40
1.5000000000000002
210
0
220
-0
230
1
0
CIRCLE
5
150
100
AcDbEntity
8
0
100
AcDbCircle
10
142.46678480385557
20
-39.657464142508417
30
0
40
1.5000000000000002
210
0
220
-0
230
1
0
CIRCLE
5
151
100
AcDbEntity
8
0
100
AcDbCircle
10
169.4667848038556
20
-20.707464142508417
30
0
40
1.5000000000000002
210
0
220
-0
230
1
0
CIRCLE
5
152
100
AcDbEntity
8
0
100
AcDbCircle
10
151.46678480385549
20
-2.3074641425084486
30
0
40
1.5000000000000002
210
0
220
-0
230
1
0
CIRCLE
5
153
100
AcDbEntity
8
0
100
AcDbCircle
10
151.46678480385549
20
31.692535857491553
30
0
40
1.5000000000000002
210
0
220
-0
230
1
0
CIRCLE
5
154
100
AcDbEntity
8
0
100
AcDbCircle
10
169.4667848038556
20
30.292535857491586
30
0
40
1.5000000000000002
210
0
220
-0
230
1
0
CIRCLE
5
155
100
AcDbEntity
8
0
100
AcDbCircle
10
187.46678480385557
20
-25.407464142508424
30
0
40
1.5000000000000002
210
0
220
-0
230
1
0
CIRCLE
5
156
100
AcDbEntity
8
0
100
AcDbCircle
10
187.46678480385557
20
8.5925358574915798
30
0
40
1.5000000000000002
210
0
220
-0
230
1
0
CIRCLE
5
157
100
AcDbEntity
8
0
100
AcDbCircle
10
205.4667848038556
20
-26.907464142508427
30
0
40
1.5000000000000002
210
0
220
-0
230
1
0
CIRCLE
5
158
100
AcDbEntity
8
0
100
AcDbCircle
10
205.4667848038556
20
7.0925358574915753
30
0
40
1.5000000000000002
210
0
220
-0
230
1
0
CIRCLE
5
159
100
AcDbEntity
8
0
100
AcDbCircle
10
115.46678480385543
20
-23.007464142508411
30
0
40
1.5000000000000002
210
0
220
-0
230
1
0
LWPOLYLINE
5
160
100
AcDbEntity
8
0
100
AcDbPolyline
90
4
70
1
43
0.0
10
217.07349422346581
20
17.62934889054495
42
0.99999999999999989
10
215.07349422346579
20
17.62934889054495
10
215.07349422346579
20
-18.697199142508406
42
0.99999999999999989
10
217.07349422346581
20
-18.697199142508406
0
ENDSEC
0
SECTION
2
OBJECTS
0
DICTIONARY
5
C
100
AcDbDictionary
3
ACAD_GROUP
350
D
3
ACAD_MLINESTYLE
350
17
0
DICTIONARY
5
D
100
AcDbDictionary
0
DICTIONARY
5
1A
330
C
100
AcDbDictionary
0
DICTIONARY
5
17
100
AcDbDictionary
0
ENDSEC
0
EOF
