G04 #@! TF.GenerationSoftware,KiCad,Pcbnew,(6.0.8-1)-1*
G04 #@! TF.CreationDate,2023-02-08T14:44:23+02:00*
G04 #@! TF.ProjectId,corne-light,636f726e-652d-46c6-9967-68742e6b6963,2.0*
G04 #@! TF.SameCoordinates,Original*
G04 #@! TF.FileFunction,Profile,NP*
%FSLAX46Y46*%
G04 Gerber Fmt 4.6, Leading zero omitted, Abs format (unit mm)*
G04 Created by KiCad (PCBNEW (6.0.8-1)-1) date 2023-02-08 14:44:23*
%MOMM*%
%LPD*%
G01*
G04 APERTURE LIST*
G04 #@! TA.AperFunction,Profile*
%ADD10C,0.200000*%
G04 #@! TD*
G04 APERTURE END LIST*
D10*
X31197500Y-51660000D02*
X31197500Y-38410000D01*
X32197500Y-59160000D02*
X32197500Y-70660000D01*
X31478750Y-37941250D02*
X31697500Y-37910000D01*
X31885000Y-37941250D02*
X31697500Y-37910000D01*
X31228750Y-38222500D02*
X31322500Y-38035000D01*
X31228750Y-38222500D02*
X31197500Y-38410000D01*
X32166250Y-38222500D02*
X32072500Y-38035000D01*
X32197500Y-38410000D02*
X32166250Y-38222500D01*
X31510000Y-52128750D02*
X31697500Y-52160000D01*
X31228750Y-51847500D02*
X31322500Y-52035000D01*
X31197500Y-51660000D02*
X31228750Y-51847500D01*
X32166250Y-51847500D02*
X32197500Y-51660000D01*
X31916250Y-52128750D02*
X32072500Y-52035000D01*
X32166250Y-51847500D02*
X32072500Y-52035000D01*
X31916250Y-52128750D02*
X31697500Y-52160000D01*
X31322500Y-52035000D02*
X31510000Y-52128750D01*
X31885000Y-58691250D02*
X31697500Y-58660000D01*
X32166250Y-58972500D02*
X32072500Y-58785000D01*
X32197500Y-59160000D02*
X32166250Y-58972500D01*
X31228750Y-58972500D02*
X31197500Y-59160000D01*
X31478750Y-58691250D02*
X31322500Y-58785000D01*
X31228750Y-58972500D02*
X31322500Y-58785000D01*
X31478750Y-58691250D02*
X31697500Y-58660000D01*
X32072500Y-58785000D02*
X31885000Y-58691250D01*
X31510000Y-71128750D02*
X31697500Y-71160000D01*
X32166250Y-70847500D02*
X32197500Y-70660000D01*
X32166250Y-70847500D02*
X32072500Y-71035000D01*
X31228750Y-70847500D02*
X31322500Y-71035000D01*
X31916250Y-71128750D02*
X32072500Y-71035000D01*
X31322500Y-71035000D02*
X31510000Y-71128750D01*
X31916250Y-71128750D02*
X31697500Y-71160000D01*
X31197500Y-70660000D02*
X31228750Y-70847500D01*
X31478750Y-77941250D02*
X31322500Y-78035000D01*
X31228750Y-78222500D02*
X31322500Y-78035000D01*
X32166250Y-78222500D02*
X32072500Y-78035000D01*
X31885000Y-77941250D02*
X31697500Y-77910000D01*
X32072500Y-78035000D02*
X31885000Y-77941250D01*
X31228750Y-78222500D02*
X31197500Y-78410000D01*
X32197500Y-78410000D02*
X32166250Y-78222500D01*
X31478750Y-77941250D02*
X31697500Y-77910000D01*
X32166250Y-91847500D02*
X32197500Y-91660000D01*
X31916250Y-92128750D02*
X32072500Y-92035000D01*
X31916250Y-92128750D02*
X31697500Y-92160000D01*
X32166250Y-91847500D02*
X32072500Y-92035000D01*
X31197500Y-91660000D02*
X31228750Y-91847500D01*
X31228750Y-91847500D02*
X31322500Y-92035000D01*
X31510000Y-92128750D02*
X31697500Y-92160000D01*
X31322500Y-92035000D02*
X31510000Y-92128750D01*
X269385000Y-37941250D02*
X269197500Y-37910000D01*
X269666250Y-38222500D02*
X269572500Y-38035000D01*
X269697500Y-38410000D02*
X269666250Y-38222500D01*
X268728750Y-38222500D02*
X268697500Y-38410000D01*
X268978750Y-37941250D02*
X268822500Y-38035000D01*
X268728750Y-38222500D02*
X268822500Y-38035000D01*
X268978750Y-37941250D02*
X269197500Y-37910000D01*
X269572500Y-38035000D02*
X269385000Y-37941250D01*
X269666250Y-51847500D02*
X269572500Y-52035000D01*
X269416250Y-52128750D02*
X269572500Y-52035000D01*
X268728750Y-51847500D02*
X268822500Y-52035000D01*
X269010000Y-52128750D02*
X269197500Y-52160000D01*
X269416250Y-52128750D02*
X269197500Y-52160000D01*
X269666250Y-51847500D02*
X269697500Y-51660000D01*
X268822500Y-52035000D02*
X269010000Y-52128750D01*
X268697500Y-51660000D02*
X268728750Y-51847500D01*
X268978750Y-58691250D02*
X269197500Y-58660000D01*
X268728750Y-58972500D02*
X268697500Y-59160000D01*
X269572500Y-58785000D02*
X269385000Y-58691250D01*
X269666250Y-58972500D02*
X269572500Y-58785000D01*
X269385000Y-58691250D02*
X269197500Y-58660000D01*
X268978750Y-58691250D02*
X268822500Y-58785000D01*
X268728750Y-58972500D02*
X268822500Y-58785000D01*
X269697500Y-59160000D02*
X269666250Y-58972500D01*
X269416250Y-71128750D02*
X269197500Y-71160000D01*
X269666250Y-70847500D02*
X269697500Y-70660000D01*
X268697500Y-70660000D02*
X268728750Y-70847500D01*
X269416250Y-71128750D02*
X269572500Y-71035000D01*
X269010000Y-71128750D02*
X269197500Y-71160000D01*
X269666250Y-70847500D02*
X269572500Y-71035000D01*
X268822500Y-71035000D02*
X269010000Y-71128750D01*
X268728750Y-70847500D02*
X268822500Y-71035000D01*
X269666250Y-77972500D02*
X269572500Y-77785000D01*
X268728750Y-77972500D02*
X268822500Y-77785000D01*
X269572500Y-77785000D02*
X269385000Y-77691250D01*
X268728750Y-77972500D02*
X268697500Y-78160000D01*
X268978750Y-77691250D02*
X268822500Y-77785000D01*
X269385000Y-77691250D02*
X269197500Y-77660000D01*
X269697500Y-78160000D02*
X269666250Y-77972500D01*
X268978750Y-77691250D02*
X269197500Y-77660000D01*
X268697500Y-91660000D02*
X268728750Y-91847500D01*
X269416250Y-92128750D02*
X269197500Y-92160000D01*
X269010000Y-92128750D02*
X269197500Y-92160000D01*
X269666250Y-91847500D02*
X269572500Y-92035000D01*
X268822500Y-92035000D02*
X269010000Y-92128750D01*
X268728750Y-91847500D02*
X268822500Y-92035000D01*
X269666250Y-91847500D02*
X269697500Y-91660000D01*
X269416250Y-92128750D02*
X269572500Y-92035000D01*
X235579405Y-94633141D02*
X235579405Y-94633141D01*
X243900437Y-28130926D02*
X244121417Y-28062346D01*
X243161298Y-29037705D02*
X243161298Y-29037705D01*
X67576351Y-123591652D02*
X67716051Y-123761832D01*
X249272532Y-32187302D02*
X243146058Y-32187302D01*
X133004146Y-121092294D02*
X133126066Y-120998315D01*
X154075966Y-97353478D02*
X154042946Y-97188378D01*
X281164740Y-93650162D02*
X281164740Y-93650162D01*
X57782121Y-28798946D02*
X57784661Y-28801486D01*
X67169951Y-95090340D02*
X67172491Y-95092880D01*
X57324921Y-28247766D02*
X57327461Y-28250306D01*
X12946085Y-95151300D02*
X12841945Y-95346880D01*
X249572251Y-32288902D02*
X249673851Y-32387962D01*
X57083621Y-94455341D02*
X57279201Y-94348661D01*
X126085193Y-36429098D02*
X126115673Y-36601818D01*
X154053106Y-37267297D02*
X154124225Y-37137757D01*
X237885723Y-94341041D02*
X238058443Y-94198801D01*
X101769797Y-28143626D02*
X101762177Y-28143626D01*
X244362716Y-28034406D02*
X244365256Y-28034406D01*
X243346717Y-28588126D02*
X243346717Y-28583046D01*
X56877882Y-28067426D02*
X56877882Y-28067426D01*
X167479532Y-120723995D02*
X167474452Y-120718915D01*
X234847886Y-95537380D02*
X234847886Y-95537380D01*
X154022626Y-37437477D02*
X154053106Y-37267297D01*
X288238633Y-95545000D02*
X288172593Y-95331640D01*
X281233320Y-93871141D02*
X281164740Y-93650162D01*
X281164740Y-93650162D02*
X281164740Y-93645082D01*
X57881181Y-29268845D02*
X57881181Y-29268845D01*
X125983593Y-34879700D02*
X125884533Y-34780640D01*
X67380771Y-95771059D02*
X67380771Y-95773599D01*
X235376205Y-94744900D02*
X235579405Y-94633141D01*
X168820651Y-121320894D02*
X168632691Y-121336134D01*
X243138438Y-29271385D02*
X243138438Y-29268845D01*
X282373779Y-94635681D02*
X282371239Y-94635681D01*
X200298840Y-28831966D02*
X200194700Y-28636386D01*
X25770532Y-94544241D02*
X56644202Y-94544241D01*
X19128439Y-94544241D02*
X19128439Y-94544241D01*
X51056207Y-36599278D02*
X51084147Y-36431638D01*
X57759261Y-93627302D02*
X57782121Y-93403782D01*
X193773586Y-32687682D02*
X193804066Y-32517502D01*
X62630976Y-29284085D02*
X62636056Y-32179682D01*
X174975065Y-34785720D02*
X175104605Y-34717140D01*
X234919006Y-95301160D02*
X234921546Y-95296080D01*
X281139340Y-93411402D02*
X281139340Y-93408862D01*
X238388642Y-29273925D02*
X238388642Y-29266305D01*
X243681997Y-28250306D02*
X243684537Y-28247766D01*
X18645839Y-94643301D02*
X13893504Y-94643301D01*
X238386102Y-32184762D02*
X238388642Y-29273925D01*
X62966256Y-94214041D02*
X63138975Y-94353741D01*
X57591621Y-94036241D02*
X57695761Y-93840661D01*
X117159642Y-112829683D02*
X131454748Y-121092294D01*
X287557914Y-94722040D02*
X287347094Y-94656001D01*
X237692683Y-94445181D02*
X237885723Y-94341041D01*
X237248183Y-28136006D02*
X206377054Y-28136006D01*
X12778445Y-27135247D02*
X12844485Y-27348607D01*
X235579405Y-94633141D02*
X235584485Y-94633141D01*
X234825026Y-95768519D02*
X234847886Y-95537380D01*
X231103929Y-32156822D02*
X230971850Y-32085702D01*
X243341637Y-28593206D02*
X243341637Y-28593206D01*
X19334179Y-94432481D02*
X19331639Y-94435021D01*
X193773586Y-34183740D02*
X193773586Y-32685142D01*
X243161298Y-29037705D02*
X243161298Y-29037705D01*
X19671998Y-94094661D02*
X19524678Y-94275001D01*
X244129037Y-28059806D02*
X244131577Y-28059806D01*
X18655999Y-94643301D02*
X18655999Y-94643301D01*
X199470801Y-28156326D02*
X199249821Y-28136006D01*
X57670361Y-28590666D02*
X57672901Y-28593206D01*
X243161298Y-29032625D02*
X243163838Y-29027545D01*
X146834433Y-96990258D02*
X146834433Y-96906438D01*
X57855781Y-29032625D02*
X57855781Y-29037705D01*
X66380012Y-94567101D02*
X66380012Y-94567101D01*
X275886625Y-94341041D02*
X276056805Y-94198801D01*
X66824512Y-94747440D02*
X66824512Y-94747440D01*
X167984992Y-121176114D02*
X167857992Y-121102454D01*
X63326935Y-28232526D02*
X63131355Y-28339206D01*
X288241173Y-126868249D02*
X288264033Y-126644729D01*
X249673851Y-32387962D02*
X249744971Y-32520042D01*
X282140099Y-94612821D02*
X282140099Y-94612821D01*
X169140691Y-121237074D02*
X168988291Y-121287874D01*
X205239135Y-29273925D02*
X205236595Y-32187302D01*
X154022626Y-37434937D02*
X154022626Y-96908978D01*
X95445203Y-28473826D02*
X95272484Y-28334126D01*
X212772768Y-30437244D02*
X212803248Y-30267064D01*
X212572108Y-32088242D02*
X212442568Y-32159362D01*
X13672524Y-28021706D02*
X13896044Y-28044566D01*
X24718973Y-93848281D02*
X24825653Y-94041321D01*
X67355371Y-95532300D02*
X67355371Y-95537380D01*
X66824512Y-94749980D02*
X66829592Y-94749980D01*
X146783633Y-97343318D02*
X146816653Y-97175678D01*
X234919006Y-95306240D02*
X234919006Y-95301160D01*
X19788838Y-93873681D02*
X19788838Y-93873681D01*
X66611152Y-94635681D02*
X66616232Y-94638221D01*
X57114101Y-28138546D02*
X57119181Y-28138546D01*
X12841945Y-22911231D02*
X12778445Y-23122051D01*
X95785563Y-32179682D02*
X95780483Y-29281545D01*
X13184845Y-92979602D02*
X13286445Y-93081202D01*
X57324921Y-28247766D02*
X57324921Y-28247766D01*
X63131355Y-28339206D02*
X62961176Y-28481446D01*
X269697500Y-51660000D02*
X269697500Y-38410000D01*
X57881181Y-29268845D02*
X57881181Y-29271385D01*
X66616232Y-94638221D02*
X66618772Y-94638221D01*
X67469671Y-123396072D02*
X67576351Y-123591652D01*
X243161298Y-29037705D02*
X243161298Y-29037705D01*
X31197500Y-70660000D02*
X31197500Y-59160000D01*
X62625896Y-93160000D02*
X62630976Y-93406322D01*
X13454084Y-22296552D02*
X13258505Y-22400692D01*
X87583911Y-29929244D02*
X87583911Y-29929244D01*
X68297710Y-124071712D02*
X68521230Y-124094571D01*
X235183165Y-94904920D02*
X235185705Y-94899840D01*
X243229877Y-28804026D02*
X243232417Y-28801486D01*
X287273434Y-36937098D02*
X287443614Y-36967578D01*
X106753272Y-32210162D02*
X106585632Y-32179682D01*
X13896044Y-28044566D02*
X56646742Y-28044566D01*
X67281711Y-95298620D02*
X67284251Y-95301160D01*
X24630073Y-93406322D02*
X24630073Y-93411402D01*
X235185705Y-94899840D02*
X235188245Y-94897300D01*
X25547012Y-94521381D02*
X25770532Y-94544241D01*
X244372876Y-28034406D02*
X244372876Y-28034406D01*
X63547915Y-94521381D02*
X63771435Y-94544241D01*
X167637012Y-120917035D02*
X167540492Y-120807815D01*
X31197500Y-91660000D02*
X31197500Y-78410000D01*
X288073533Y-127277188D02*
X288177673Y-127081609D01*
X243161298Y-29037705D02*
X243161298Y-29032625D01*
X50886027Y-36830418D02*
X50985087Y-36728818D01*
X243234957Y-28796406D02*
X243341637Y-28593206D01*
X243684537Y-28247766D02*
X243687077Y-28245226D01*
X106984412Y-32380342D02*
X106882812Y-32278742D01*
X67380771Y-95773599D02*
X67380771Y-95778679D01*
X234847886Y-95534840D02*
X234850426Y-95532300D01*
X13286445Y-93081202D02*
X13415984Y-93149782D01*
X56877882Y-28067426D02*
X56880422Y-28067426D01*
X12841945Y-95346880D02*
X12778445Y-95560240D01*
X88114771Y-31852023D02*
X88185891Y-31981562D01*
X88084291Y-31679303D02*
X88084291Y-30429624D01*
X287573154Y-37038697D02*
X287674754Y-37137757D01*
X117002162Y-112786503D02*
X116837062Y-112748403D01*
X95780483Y-29276465D02*
X95757623Y-29052945D01*
X281507640Y-94280081D02*
X281507640Y-94277541D01*
X281507640Y-94280081D02*
X281507640Y-94280081D01*
X19123359Y-94546781D02*
X19118279Y-94549321D01*
X13459164Y-127708988D02*
X13672524Y-127772488D01*
X221022679Y-107937647D02*
X184352736Y-112707763D01*
X68937790Y-93327582D02*
X79481319Y-107782708D01*
X244362716Y-28034406D02*
X244362716Y-28034406D01*
X282140099Y-94612821D02*
X282140099Y-94612821D01*
X57512881Y-28400166D02*
X57515421Y-28402706D01*
X13085785Y-37429857D02*
X13085785Y-37429857D01*
X184019996Y-112756023D02*
X184192716Y-112728083D01*
X281352700Y-94092121D02*
X281350160Y-94089581D01*
X13459164Y-27958206D02*
X13672524Y-28021706D01*
X12755585Y-126654889D02*
X12755585Y-126662509D01*
X133230206Y-120901795D02*
X133324186Y-120792575D01*
X281139340Y-93406322D02*
X281139340Y-93401242D01*
X183697416Y-112837303D02*
X169404850Y-121097374D01*
X131718908Y-121229454D02*
X131871307Y-121280254D01*
X236051845Y-94534081D02*
X236051845Y-94534081D01*
X117159642Y-112829683D02*
X117002162Y-112786503D01*
X183697416Y-112837303D02*
X183854896Y-112794123D01*
X268697500Y-78160000D02*
X268697500Y-91660000D01*
X95757623Y-29052945D02*
X95691583Y-28842126D01*
X238193062Y-28636386D02*
X238050823Y-28466206D01*
X281908959Y-94544241D02*
X281903879Y-94541701D01*
X275251626Y-94534081D02*
X275256706Y-94534081D01*
X193974246Y-32286362D02*
X194106326Y-32215242D01*
X101132258Y-28339206D02*
X100962078Y-28481446D01*
X282129939Y-94610281D02*
X281908959Y-94544241D01*
X238198142Y-94026081D02*
X238302282Y-93830501D01*
X57279201Y-94348661D02*
X57449381Y-94208961D01*
X234825026Y-122943953D02*
X234825026Y-95771059D01*
X243494037Y-28405246D02*
X243494037Y-28402706D01*
X62961176Y-28481446D02*
X62821476Y-28651626D01*
X101327838Y-28232526D02*
X101132258Y-28339206D01*
X212874367Y-30137524D02*
X212973427Y-30035924D01*
X281502560Y-94275001D02*
X281500020Y-94272461D01*
X281235860Y-93881301D02*
X281235860Y-93876221D01*
X281347620Y-94084501D02*
X281235860Y-93881301D01*
X167474452Y-120718915D02*
X154248685Y-97785277D01*
X95587443Y-28646546D02*
X95445203Y-28473826D01*
X287273434Y-93187882D02*
X287273434Y-93187882D01*
X63138975Y-94353741D02*
X63334555Y-94457881D01*
X18655999Y-94643301D02*
X18653459Y-94643301D01*
X200395360Y-32184762D02*
X200387740Y-29273925D01*
X68673630Y-93187882D02*
X68584730Y-93160000D01*
X62821476Y-28651626D02*
X62717336Y-28847206D01*
X193773586Y-34186280D02*
X193743106Y-34359000D01*
X287354714Y-28011546D02*
X287565534Y-27945506D01*
X107416212Y-34651100D02*
X107583851Y-34679040D01*
X18897299Y-94617901D02*
X18897299Y-94617901D01*
X234919006Y-95306240D02*
X234919006Y-95306240D01*
X57855781Y-29027545D02*
X57855781Y-29032625D01*
X57881181Y-29273925D02*
X57881181Y-29279005D01*
X19875198Y-93180262D02*
X19880278Y-93408862D01*
X19517058Y-94282621D02*
X19339259Y-94429941D01*
X19125899Y-94546781D02*
X19123359Y-94546781D01*
X132734907Y-121231994D02*
X132879686Y-121165954D01*
X146608373Y-97777657D02*
X146676953Y-97643038D01*
X66618772Y-94638221D02*
X66824512Y-94747440D01*
X57695761Y-93840661D02*
X57759261Y-93627302D01*
X12844485Y-27348607D02*
X12951165Y-27541647D01*
X13085785Y-37429857D02*
X13085785Y-92679883D01*
X57111561Y-28136006D02*
X57114101Y-28138546D01*
X66832132Y-94755060D02*
X67012472Y-94899840D01*
X56646742Y-28044566D02*
X56649282Y-28044566D01*
X281695600Y-94429941D02*
X281695600Y-94429941D01*
X106882812Y-32278742D02*
X106753272Y-32210162D01*
X281352700Y-94092121D02*
X281352700Y-94092121D01*
X62717336Y-28847206D02*
X62653836Y-29060565D01*
X169277851Y-121173574D02*
X169140691Y-121237074D01*
X66824512Y-94747440D02*
X66824512Y-94749980D01*
X233915707Y-124061552D02*
X234129066Y-123995512D01*
X281903879Y-94541701D02*
X281898799Y-94539161D01*
X19524678Y-94275001D02*
X19524678Y-94275001D01*
X13415984Y-93149782D02*
X13586164Y-93180262D01*
X12755585Y-26906647D02*
X12755585Y-26911727D01*
X230773730Y-30437244D02*
X230773730Y-30437244D01*
X244131577Y-28059806D02*
X244362716Y-28034406D01*
X19857418Y-93642542D02*
X19857418Y-93642542D01*
X275256706Y-94534081D02*
X275480226Y-94511221D01*
X235030766Y-95090340D02*
X235033306Y-95087800D01*
X12951165Y-27541647D02*
X13093405Y-27714367D01*
X13283905Y-37031077D02*
X13184845Y-37132677D01*
X230801670Y-31854563D02*
X230773730Y-31686923D01*
X66380012Y-94567101D02*
X66380012Y-94567101D01*
X235188245Y-94897300D02*
X235368585Y-94749980D01*
X154025166Y-97005498D02*
X154022626Y-96911518D01*
X95272484Y-28334126D02*
X95076904Y-28229986D01*
X194106326Y-32215242D02*
X194273966Y-32187302D01*
X13113725Y-37262217D02*
X13085785Y-37429857D01*
X235368585Y-94749980D02*
X235371125Y-94747440D01*
X18897299Y-94617901D02*
X18892219Y-94617901D01*
X13888424Y-94643301D02*
X13664904Y-94666161D01*
X199249821Y-28136006D02*
X101769797Y-28143626D01*
X287743334Y-37269837D02*
X287773814Y-37437477D01*
X13085785Y-92679883D02*
X13113725Y-92850062D01*
X131454748Y-121092294D02*
X131579208Y-121165954D01*
X212272388Y-32187302D02*
X205236595Y-32187302D01*
X249744971Y-32520042D02*
X249772911Y-32687682D01*
X12755585Y-23345571D02*
X12755585Y-26906647D01*
X50985087Y-36728818D02*
X51056207Y-36599278D01*
X126585573Y-36929478D02*
X126585573Y-36929478D01*
X232272328Y-93187882D02*
X238396262Y-93187882D01*
X230773730Y-31686923D02*
X230773730Y-31686923D01*
X269697500Y-91660000D02*
X269697500Y-78160000D01*
X174441665Y-36909158D02*
X174274026Y-36937098D01*
X288264033Y-95765979D02*
X288264033Y-126644729D01*
X244365256Y-28034406D02*
X244367796Y-28034406D01*
X66148872Y-94544241D02*
X66148872Y-94544241D01*
X146732833Y-37130137D02*
X146633773Y-37028537D01*
X237479323Y-94511221D02*
X237692683Y-94445181D01*
X275691045Y-94445181D02*
X275886625Y-94341041D01*
X199879740Y-28326506D02*
X199684160Y-28222366D01*
X66829592Y-94749980D02*
X66832132Y-94755060D01*
X212673708Y-31989182D02*
X212572108Y-32088242D01*
X132038947Y-121315814D02*
X132226907Y-121328514D01*
X19339259Y-94429941D02*
X19334179Y-94432481D01*
X200052460Y-28466206D02*
X199879740Y-28326506D01*
X146633773Y-37028537D02*
X146501693Y-36959958D01*
X19880278Y-93411402D02*
X19880278Y-93411402D01*
X234921546Y-95296080D02*
X235030766Y-95092880D01*
X146816653Y-97175678D02*
X146834433Y-96990258D01*
X287672214Y-92987222D02*
X287570614Y-93088822D01*
X57667821Y-28585586D02*
X57670361Y-28590666D01*
X12778445Y-126886029D02*
X12844485Y-127096849D01*
X212772768Y-31684383D02*
X212772768Y-30434704D01*
X281908959Y-94544241D02*
X281908959Y-94544241D01*
X287123574Y-94635681D02*
X282373779Y-94635681D01*
X154225825Y-37036157D02*
X154355365Y-36965038D01*
X69585489Y-32179682D02*
X69755669Y-32151742D01*
X193671986Y-34488540D02*
X193570387Y-34587600D01*
X13454084Y-94732200D02*
X13258505Y-94838880D01*
X13413444Y-36959958D02*
X13283905Y-37031077D01*
X51584527Y-32179682D02*
X51414347Y-32210162D01*
X63768895Y-28143626D02*
X63763815Y-28143626D01*
X276366685Y-93617142D02*
X276387005Y-93396162D01*
X146334053Y-36929478D02*
X126585573Y-36929478D01*
X243138438Y-29268845D02*
X243161298Y-29037705D01*
X50583768Y-36929478D02*
X50756488Y-36901538D01*
X287131194Y-127785188D02*
X287354714Y-127762328D01*
X56882962Y-28067426D02*
X56888042Y-28069966D01*
X50583768Y-36929478D02*
X13697500Y-36929478D01*
X287126114Y-28034406D02*
X287131194Y-28034406D01*
X235815625Y-94559481D02*
X235818165Y-94559481D01*
X31478750Y-37941250D02*
X31322500Y-38035000D01*
X56649282Y-28044566D02*
X56877882Y-28067426D01*
X132582507Y-121282794D02*
X132734907Y-121231994D01*
X70283988Y-30030844D02*
X70184928Y-30132444D01*
X233687107Y-124084411D02*
X233694727Y-124084411D01*
X235180625Y-94904920D02*
X235183165Y-94904920D01*
X193743106Y-34359000D02*
X193671986Y-34488540D01*
X174743925Y-36609438D02*
X174672805Y-36738978D01*
X243943617Y-94450261D02*
X244154437Y-94513761D01*
X243163838Y-29027545D02*
X243229877Y-28806566D01*
X57327461Y-28250306D02*
X57332541Y-28252846D01*
X275480226Y-94511221D02*
X275691045Y-94445181D01*
X70055389Y-31849483D02*
X70085868Y-31679303D01*
X230743250Y-30267064D02*
X230773730Y-30437244D01*
X66611152Y-94635681D02*
X66611152Y-94635681D01*
X18892219Y-94617901D02*
X18887139Y-94617901D01*
X234738666Y-123380832D02*
X234804706Y-123167472D01*
X146735373Y-97500798D02*
X146783633Y-97343318D01*
X175104605Y-34717140D02*
X175272245Y-34686660D01*
X243245117Y-93185342D02*
X276394625Y-93185342D01*
X288241173Y-27117467D02*
X288264033Y-26896487D01*
X249800851Y-36604358D02*
X249772911Y-36436718D01*
X288264033Y-95765979D02*
X288238633Y-95545000D01*
X243687077Y-28245226D02*
X243892817Y-28133466D01*
X154042946Y-97188378D02*
X154025166Y-97005498D01*
X63771435Y-94544241D02*
X66146332Y-94544241D01*
X12755585Y-26911727D02*
X12778445Y-27135247D01*
X56649282Y-28044566D02*
X56649282Y-28044566D01*
X13586164Y-93180262D02*
X13586164Y-93180262D01*
X243328937Y-93838121D02*
X243433077Y-94033701D01*
X243262897Y-93627302D02*
X243328937Y-93838121D01*
X19677078Y-94087041D02*
X19674538Y-94092121D01*
X57324921Y-28247766D02*
X57324921Y-28247766D01*
X281235860Y-93876221D02*
X281233320Y-93871141D01*
X57886261Y-32179682D02*
X51584527Y-32179682D01*
X13664904Y-22230512D02*
X13454084Y-22296552D01*
X88185891Y-31981562D02*
X88284951Y-32080622D01*
X288264033Y-23330331D02*
X288238633Y-23106811D01*
X67012472Y-94899840D02*
X67015012Y-94904920D01*
X213102967Y-29967344D02*
X213273147Y-29936864D01*
X281687980Y-94424861D02*
X281507640Y-94280081D01*
X67286791Y-95306240D02*
X67355371Y-95527220D01*
X168122152Y-121239614D02*
X167984992Y-121176114D01*
X168988291Y-121287874D02*
X168820651Y-121320894D01*
X174771865Y-35187039D02*
X174802345Y-35016859D01*
X19857418Y-93642542D02*
X19857418Y-93647622D01*
X131579208Y-121165954D02*
X131718908Y-121229454D01*
X212272388Y-32187302D02*
X212272388Y-32187302D01*
X238050823Y-28466206D02*
X237880643Y-28326506D01*
X237255803Y-94534081D02*
X237479323Y-94511221D01*
X236062005Y-94534081D02*
X236062005Y-94534081D01*
X70413528Y-29959724D02*
X70283988Y-30030844D01*
X230773730Y-30434704D02*
X230773730Y-31684383D01*
X133126066Y-120998315D02*
X133230206Y-120901795D01*
X230872790Y-31986642D02*
X230801670Y-31854563D01*
X13893504Y-22207652D02*
X13888424Y-22207652D01*
X67380771Y-95778679D02*
X67380771Y-122956653D01*
X13258505Y-22400692D02*
X13085785Y-22542932D01*
X168444731Y-121323434D02*
X168277092Y-121290414D01*
X57855781Y-29037705D02*
X57881181Y-29268845D01*
X231274109Y-32184762D02*
X238386102Y-32184762D01*
X87883631Y-30028304D02*
X87754091Y-29959724D01*
X12778445Y-23122051D02*
X12755585Y-23345571D01*
X12951165Y-127292428D02*
X13093405Y-127462608D01*
X107086012Y-34181200D02*
X107113952Y-34351380D01*
X213273147Y-29934324D02*
X230273350Y-29934324D01*
X235810545Y-94562021D02*
X235810545Y-94562021D01*
X235810545Y-94562021D02*
X235815625Y-94559481D01*
X125584814Y-34679040D02*
X107583851Y-34679040D01*
X57787201Y-28806566D02*
X57853241Y-29027545D01*
X13893504Y-94643301D02*
X13888424Y-94643301D01*
X243892817Y-28133466D02*
X243892817Y-28133466D01*
X169404850Y-121097374D02*
X169277851Y-121173574D01*
X66387632Y-94569641D02*
X66611152Y-94635681D01*
X287123574Y-22197492D02*
X13893504Y-22207652D01*
X233694727Y-124084411D02*
X233915707Y-124061552D01*
X126085193Y-35179419D02*
X126054713Y-35009239D01*
X287933833Y-27699127D02*
X288073533Y-27526407D01*
X281507640Y-94277541D02*
X281502560Y-94275001D01*
X244154437Y-94513761D02*
X244377956Y-94534081D01*
X13888424Y-22207652D02*
X13664904Y-22230512D01*
X32072500Y-38035000D02*
X31885000Y-37941250D01*
X287126114Y-127785188D02*
X287131194Y-127785188D01*
X236062005Y-94534081D02*
X237250723Y-94534081D01*
X88284951Y-32080622D02*
X88417030Y-32151742D01*
X13263585Y-27854067D02*
X13459164Y-27958206D01*
X287756034Y-94826180D02*
X287557914Y-94722040D01*
X281235860Y-93881301D02*
X281235860Y-93881301D01*
X100715698Y-28847206D02*
X100652198Y-29060565D01*
X79834379Y-107930027D02*
X116504323Y-112700143D01*
X24635153Y-93185342D02*
X24630073Y-93406322D01*
X238302282Y-93830501D02*
X238365782Y-93617142D01*
X62630976Y-93411402D02*
X62653836Y-93634922D01*
X235030766Y-95092880D02*
X235030766Y-95092880D01*
X287743334Y-92857682D02*
X287672214Y-92987222D01*
X87583911Y-29929244D02*
X70583708Y-29929244D01*
X51114627Y-32512422D02*
X51084147Y-32680062D01*
X101762177Y-28143626D02*
X101541197Y-28166486D01*
X249772911Y-36436718D02*
X249772911Y-36436718D01*
X12755585Y-126662509D02*
X12778445Y-126886029D01*
X79595619Y-107869068D02*
X79745479Y-107922407D01*
X249442711Y-32217782D02*
X249572251Y-32288902D01*
X88584670Y-32179682D02*
X88584670Y-32179682D01*
X288068453Y-95136060D02*
X287926213Y-94965880D01*
X282140099Y-94612821D02*
X282135019Y-94610281D01*
X236049305Y-94534081D02*
X236051845Y-94534081D01*
X87985231Y-30129904D02*
X87883631Y-30028304D01*
X234324646Y-123888832D02*
X234494826Y-123749132D01*
X146501693Y-36959958D02*
X146334053Y-36929478D01*
X168277092Y-121290414D02*
X168122152Y-121239614D01*
X244123957Y-28062346D02*
X244129037Y-28059806D01*
X282140099Y-94612821D02*
X282140099Y-94612821D01*
X243679457Y-28250306D02*
X243681997Y-28250306D01*
X168632691Y-121336134D02*
X168444731Y-121323434D01*
X287347094Y-94656001D02*
X287123574Y-94635681D01*
X282371239Y-94635681D02*
X282140099Y-94612821D01*
X12844485Y-127096849D02*
X12951165Y-127292428D01*
X237880643Y-28326506D02*
X237685063Y-28222366D01*
X70085868Y-30429624D02*
X70085868Y-30429624D01*
X133382606Y-120711295D02*
X146608373Y-97777657D01*
X281695600Y-94429941D02*
X281690520Y-94427401D01*
X206369434Y-28136006D02*
X206145914Y-28158866D01*
X288068453Y-22700412D02*
X287926213Y-22527692D01*
X234850426Y-95532300D02*
X234850426Y-95527220D01*
X288238633Y-23106811D02*
X288172593Y-22893451D01*
X107055532Y-32509882D02*
X106984412Y-32380342D01*
X68584730Y-93160000D02*
X62625896Y-93160000D01*
X205212500Y-91845000D02*
X219212500Y-91845000D01*
X219212500Y-91845000D02*
X219212500Y-105845000D01*
X219212500Y-105845000D02*
X205212500Y-105845000D01*
X205212500Y-105845000D02*
X205212500Y-91845000D01*
X57324921Y-28247766D02*
X57324921Y-28247766D01*
X66148872Y-94544241D02*
X66380012Y-94567101D01*
X67716051Y-123761832D02*
X67888771Y-123904072D01*
X67167411Y-95085260D02*
X67169951Y-95090340D01*
X125884533Y-34780640D02*
X125752454Y-34709520D01*
X13672524Y-127772488D02*
X13896044Y-127792808D01*
X107286672Y-34579980D02*
X107416212Y-34651100D01*
X67172491Y-95092880D02*
X67281711Y-95298620D01*
X68937790Y-93327582D02*
X68820950Y-93241222D01*
X88417030Y-32151742D02*
X88584670Y-32179682D01*
X154355365Y-36965038D02*
X154523005Y-36937098D01*
X19857418Y-93652702D02*
X19788838Y-93873681D01*
X276387005Y-93396162D02*
X276394625Y-93185342D01*
X67380771Y-95768519D02*
X67380771Y-95768519D01*
X62719876Y-93848281D02*
X62826556Y-94041321D01*
X231919269Y-93332662D02*
X221375739Y-107790328D01*
X244121417Y-28062346D02*
X244123957Y-28062346D01*
X276300645Y-93830501D02*
X276366685Y-93617142D01*
X19118279Y-94549321D02*
X18897299Y-94617901D01*
X69885209Y-32080622D02*
X69986809Y-31979022D01*
X19128439Y-94544241D02*
X19128439Y-94544241D01*
X281500020Y-94272461D02*
X281352700Y-94092121D01*
X19786298Y-93878761D02*
X19786298Y-93883841D01*
X250103111Y-36906618D02*
X249971031Y-36835498D01*
X87754091Y-29959724D02*
X87583911Y-29929244D01*
X19880278Y-93408862D02*
X19880278Y-93411402D01*
X243575317Y-94203881D02*
X243748037Y-94346121D01*
X57517961Y-28407786D02*
X57665281Y-28585586D01*
X243341637Y-28593206D02*
X243341637Y-28593206D01*
X95785563Y-32179682D02*
X88584670Y-32179682D01*
X281139340Y-93401242D02*
X281136800Y-93401242D01*
X100631878Y-29284085D02*
X100636958Y-32179682D01*
X249871971Y-36736438D02*
X249800851Y-36604358D01*
X57515421Y-28402706D02*
X57517961Y-28407786D01*
X94640024Y-28143626D02*
X63768895Y-28143626D01*
X287773814Y-92687503D02*
X287743334Y-92857682D01*
X288177673Y-127081609D02*
X288241173Y-126868249D01*
X57512881Y-28400166D02*
X57512881Y-28400166D01*
X13697500Y-36929478D02*
X13413444Y-36959958D01*
X205429635Y-28644006D02*
X205325495Y-28839586D01*
X281235860Y-93881301D02*
X281235860Y-93881301D01*
X221375739Y-107790328D02*
X221261439Y-107876688D01*
X167540492Y-120807815D02*
X167479532Y-120723995D01*
X88084291Y-30429624D02*
X88056351Y-30259444D01*
X205569335Y-28471286D02*
X205429635Y-28644006D01*
X56880422Y-28067426D02*
X56882962Y-28067426D01*
X244372876Y-28034406D02*
X287126114Y-28034406D01*
X13085785Y-22542932D02*
X12946085Y-22715652D01*
X281898799Y-94539161D02*
X281695600Y-94429941D01*
X70113808Y-30261984D02*
X70085868Y-30429624D01*
X13263585Y-127604848D02*
X13459164Y-127708988D01*
X13664904Y-94666161D02*
X13454084Y-94732200D01*
X154523005Y-36934558D02*
X174274026Y-36937098D01*
X51284807Y-32281282D02*
X51183207Y-32382882D01*
X238365782Y-93617142D02*
X238388642Y-93396162D01*
X174771865Y-36436718D02*
X174743925Y-36609438D01*
X184192716Y-112728083D02*
X184352736Y-112707763D01*
X250273291Y-36937098D02*
X250103111Y-36906618D01*
X174672805Y-36738978D02*
X174571205Y-36838038D01*
X243433077Y-94033701D02*
X243575317Y-94203881D01*
X126415393Y-36901538D02*
X126585573Y-36929478D01*
X24967893Y-94214041D02*
X25138073Y-94353741D01*
X268697500Y-38410000D02*
X268697500Y-51660000D01*
X243341637Y-28590666D02*
X243346717Y-28588126D01*
X194273966Y-32184762D02*
X200395360Y-32184762D01*
X69585489Y-32179682D02*
X62636056Y-32179682D01*
X287761114Y-27841367D02*
X287933833Y-27699127D01*
X126085193Y-35179419D02*
X126085193Y-36429098D01*
X154251225Y-97785277D02*
X154182645Y-97653198D01*
X235579405Y-94633141D02*
X235579405Y-94633141D01*
X62630976Y-93406322D02*
X62630976Y-93411402D01*
X146676953Y-97643038D02*
X146735373Y-97500798D01*
X67380771Y-95778679D02*
X67380771Y-95778679D01*
X13258505Y-94838880D02*
X13085785Y-94981120D01*
X243232417Y-28801486D02*
X243234957Y-28796406D01*
X100962078Y-28481446D02*
X100819838Y-28651626D01*
X94863544Y-28166486D02*
X94640024Y-28143626D01*
X243494037Y-28402706D02*
X243496577Y-28400166D01*
X56649282Y-94544241D02*
X56872802Y-94521381D01*
X57672901Y-28593206D02*
X57782121Y-28798946D01*
X50756488Y-36901538D02*
X50886027Y-36830418D01*
X281235860Y-93881301D02*
X281235860Y-93881301D01*
X238058443Y-94198801D02*
X238198142Y-94026081D01*
X235818165Y-94559481D02*
X236049305Y-94534081D01*
X126285853Y-36830418D02*
X126415393Y-36901538D01*
X174771865Y-35187039D02*
X174771865Y-36436718D01*
X19522138Y-94280081D02*
X19517058Y-94282621D01*
X106585632Y-32179682D02*
X100636958Y-32179682D01*
X174802345Y-35016859D02*
X174873465Y-34887320D01*
X281164740Y-93645082D02*
X281162200Y-93642542D01*
X67355371Y-95527220D02*
X67355371Y-95529760D01*
X237685063Y-28222366D02*
X237471703Y-28156326D01*
X199684160Y-28222366D02*
X199470801Y-28156326D01*
X238388642Y-29266305D02*
X238365782Y-29042785D01*
X79745479Y-107922407D02*
X79834379Y-107930027D01*
X67281711Y-95298620D02*
X67281711Y-95298620D01*
X57881181Y-29279005D02*
X57881181Y-29279005D01*
X243892817Y-28133466D02*
X243892817Y-28133466D01*
X146834433Y-37429857D02*
X146834433Y-96906438D01*
X13085785Y-94981120D02*
X12946085Y-95151300D01*
X63763815Y-28143626D02*
X63540295Y-28166486D01*
X243229877Y-28806566D02*
X243229877Y-28804026D01*
X235368585Y-94749980D02*
X235368585Y-94749980D01*
X212742288Y-31857103D02*
X212673708Y-31989182D01*
X230971850Y-32085702D02*
X230872790Y-31986642D01*
X57119181Y-28138546D02*
X57324921Y-28247766D01*
X288172593Y-22893451D02*
X288068453Y-22700412D01*
X57881181Y-29271385D02*
X57881181Y-29273925D01*
X287674754Y-37137757D02*
X287743334Y-37269837D01*
X282371239Y-94635681D02*
X282371239Y-94635681D01*
X107086012Y-32680062D02*
X107055532Y-32509882D01*
X62826556Y-94041321D02*
X62966256Y-94214041D01*
X287354714Y-127762328D02*
X287565534Y-127696288D01*
X24635153Y-93185342D02*
X57787201Y-93185342D01*
X243146058Y-32187302D02*
X243138438Y-29271385D01*
X281139340Y-93408862D02*
X281139340Y-93406322D01*
X243341637Y-28593206D02*
X243341637Y-28590666D01*
X19875198Y-93180262D02*
X13586164Y-93180262D01*
X235030766Y-95092880D02*
X235030766Y-95092880D01*
X154124225Y-37137757D02*
X154225825Y-37036157D01*
X67012472Y-94899840D02*
X67012472Y-94899840D01*
X268697500Y-59160000D02*
X268697500Y-70660000D01*
X200387740Y-29266305D02*
X200364880Y-29042785D01*
X19524678Y-94275001D02*
X19524678Y-94275001D01*
X237471703Y-28156326D02*
X237248183Y-28136006D01*
X19880278Y-93411402D02*
X19857418Y-93642542D01*
X287347094Y-22220352D02*
X287123574Y-22197492D01*
X221261439Y-107876688D02*
X221114119Y-107930027D01*
X57665281Y-28585586D02*
X57667821Y-28585586D01*
X243892817Y-28133466D02*
X243892817Y-28133466D01*
X67355371Y-95537380D02*
X67380771Y-95768519D01*
X107113952Y-34351380D02*
X107185072Y-34480920D01*
X24630073Y-93411402D02*
X24655473Y-93634922D01*
X19339259Y-94429941D02*
X19339259Y-94429941D01*
X212772768Y-31686923D02*
X212742288Y-31857103D01*
X51084147Y-36431638D02*
X51084147Y-36429098D01*
X243240037Y-93396162D02*
X243240037Y-93403782D01*
X235371125Y-94747440D02*
X235376205Y-94744900D01*
X63540295Y-28166486D02*
X63326935Y-28232526D01*
X174873465Y-34887320D02*
X174975065Y-34785720D01*
X281695600Y-94429941D02*
X281695600Y-94429941D01*
X95780483Y-29281545D02*
X95780483Y-29276465D01*
X234825026Y-95768519D02*
X234825026Y-95768519D01*
X13113725Y-92850062D02*
X13184845Y-92979602D01*
X19524678Y-94275001D02*
X19524678Y-94275001D01*
X235033306Y-95087800D02*
X235035846Y-95085260D01*
X62653836Y-93634922D02*
X62719876Y-93848281D01*
X69755669Y-32151742D02*
X69885209Y-32080622D01*
X133324186Y-120792575D02*
X133380066Y-120716375D01*
X288177673Y-27330827D02*
X288241173Y-27117467D01*
X57782121Y-28798946D02*
X57782121Y-28798946D01*
X63334555Y-94457881D02*
X63547915Y-94521381D01*
X230443530Y-29967344D02*
X230573070Y-30038464D01*
X56877882Y-28067426D02*
X56877882Y-28067426D01*
X70085868Y-30429624D02*
X70083328Y-31679303D01*
X13184845Y-37132677D02*
X13113725Y-37262217D01*
X32197500Y-78410000D02*
X32197500Y-91660000D01*
X287926213Y-22527692D02*
X287756034Y-22387992D01*
X19128439Y-94544241D02*
X19125899Y-94546781D01*
X287933833Y-127449908D02*
X288073533Y-127277188D01*
X167857992Y-121102454D02*
X167741152Y-121016095D01*
X56888042Y-28069966D02*
X57111561Y-28136006D01*
X281350160Y-94089581D02*
X281347620Y-94084501D01*
X287565534Y-127696288D02*
X287761114Y-127589608D01*
X287756034Y-22387992D02*
X287557914Y-22283852D01*
X193440847Y-34658720D02*
X193273207Y-34686660D01*
X116837062Y-112748403D02*
X116664342Y-112720463D01*
X212803248Y-30267064D02*
X212874367Y-30137524D01*
X70583708Y-29929244D02*
X70413528Y-29959724D01*
X132879686Y-121165954D02*
X133004146Y-121092294D01*
X12946085Y-22715652D02*
X12841945Y-22911231D01*
X32197500Y-38410000D02*
X32197500Y-51660000D01*
X67380771Y-122956653D02*
X67380771Y-122961733D01*
X19786298Y-93883841D02*
X19677078Y-94087041D01*
X249971031Y-36835498D02*
X249871971Y-36736438D01*
X243346717Y-28583046D02*
X243494037Y-28405246D01*
X174274026Y-36937098D02*
X174274026Y-36937098D01*
X288172593Y-95331640D02*
X288068453Y-95136060D01*
X70184928Y-30132444D02*
X70113808Y-30261984D01*
X57853241Y-29027545D02*
X57855781Y-29027545D01*
X287570614Y-93088822D02*
X287441074Y-93157402D01*
X56872802Y-94521381D02*
X57083621Y-94455341D01*
X287565534Y-27945506D02*
X287761114Y-27841367D01*
X101541197Y-28166486D02*
X101327838Y-28232526D01*
X287773814Y-37437477D02*
X287773814Y-92684963D01*
X243897897Y-28130926D02*
X243900437Y-28130926D01*
X100819838Y-28651626D02*
X100715698Y-28847206D01*
X276056805Y-94198801D02*
X276199045Y-94026081D01*
X12778445Y-95560240D02*
X12755585Y-95783759D01*
X231919269Y-93332662D02*
X232033569Y-93248842D01*
X205325495Y-28839586D02*
X205259455Y-29052945D01*
X243501657Y-28397626D02*
X243679457Y-28250306D01*
X13896044Y-127792808D02*
X287126114Y-127785188D01*
X243496577Y-28400166D02*
X243501657Y-28397626D01*
X193570387Y-34587600D02*
X193440847Y-34658720D01*
X18650919Y-94643301D02*
X18645839Y-94643301D01*
X19857418Y-93642542D02*
X19857418Y-93642542D01*
X234850426Y-95527220D02*
X234919006Y-95306240D01*
X205259455Y-29052945D02*
X205239135Y-29273925D01*
X234847886Y-95537380D02*
X234847886Y-95537380D01*
X235810545Y-94562021D02*
X235810545Y-94562021D01*
X235579405Y-94633141D02*
X235579405Y-94633141D01*
X66146332Y-94544241D02*
X66148872Y-94544241D01*
X249772911Y-32685142D02*
X249772911Y-36434178D01*
X287761114Y-127589608D02*
X287933833Y-127449908D01*
X13093405Y-127462608D02*
X13263585Y-127604848D01*
X126184253Y-36731358D02*
X126285853Y-36830418D01*
X66380012Y-94567101D02*
X66385092Y-94567101D01*
X250273291Y-36934558D02*
X287273434Y-36937098D01*
X288073533Y-27526407D02*
X288177673Y-27330827D01*
X232180888Y-93195502D02*
X232272328Y-93187882D01*
X12755585Y-95783759D02*
X12755585Y-126654889D01*
X154182645Y-97653198D02*
X154121685Y-97508418D01*
X67017552Y-94907460D02*
X67167411Y-95085260D01*
X230273350Y-29936864D02*
X230443530Y-29967344D01*
X269697500Y-70660000D02*
X269697500Y-59160000D01*
X69986809Y-31979022D02*
X70055389Y-31849483D01*
X212973427Y-30035924D02*
X213102967Y-29967344D01*
X234804706Y-123167472D02*
X234825026Y-122943953D01*
X131871307Y-121280254D02*
X132038947Y-121315814D01*
X235589565Y-94630601D02*
X235810545Y-94562021D01*
X66385092Y-94567101D02*
X66387632Y-94569641D01*
X18645839Y-94643301D02*
X18645839Y-94643301D01*
X288264033Y-23335411D02*
X288264033Y-23330331D01*
X67355371Y-95529760D02*
X67355371Y-95532300D01*
X19857418Y-93642542D02*
X19857418Y-93642542D01*
X238299742Y-28831966D02*
X238193062Y-28636386D01*
X287443614Y-36967578D02*
X287573154Y-37038697D01*
X200387740Y-29273925D02*
X200387740Y-29266305D01*
X19788838Y-93873681D02*
X19786298Y-93878761D01*
X67380771Y-95768519D02*
X67380771Y-95771059D01*
X57782121Y-28798946D02*
X57782121Y-28798946D01*
X167741152Y-121016095D02*
X167637012Y-120917035D01*
X19677078Y-94087041D02*
X19677078Y-94087041D01*
X174571205Y-36838038D02*
X174441665Y-36909158D01*
X19524678Y-94275001D02*
X19522138Y-94280081D01*
X107086012Y-34181200D02*
X107086012Y-32680062D01*
X205739515Y-28329046D02*
X205569335Y-28471286D01*
X287273434Y-93187882D02*
X281146960Y-93187882D01*
X238388642Y-93396162D02*
X238396262Y-93187882D01*
X18653459Y-94643301D02*
X18650919Y-94643301D01*
X237250723Y-94534081D02*
X237255803Y-94534081D01*
X243245117Y-93185342D02*
X243240037Y-93396162D01*
X238365782Y-29042785D02*
X238299742Y-28831966D01*
X287773814Y-37437477D02*
X287773814Y-37437477D01*
X249272532Y-32187302D02*
X249442711Y-32217782D01*
X19857418Y-93647622D02*
X19857418Y-93652702D01*
X67284251Y-95301160D02*
X67286791Y-95306240D01*
X221114119Y-107930027D02*
X221022679Y-107937647D01*
X67167411Y-95085260D02*
X67167411Y-95085260D01*
X13093405Y-27714367D02*
X13263585Y-27854067D01*
X57782121Y-93403782D02*
X57787201Y-93185342D01*
X132414867Y-121315814D02*
X132582507Y-121282794D01*
X232033569Y-93248842D02*
X232180888Y-93195502D01*
X206377054Y-28136006D02*
X206369434Y-28136006D01*
X66380012Y-94567101D02*
X66380012Y-94567101D01*
X234637066Y-123576412D02*
X234738666Y-123380832D01*
X243240037Y-93403782D02*
X243262897Y-93627302D01*
X146834433Y-37429857D02*
X146803953Y-37259677D01*
X281136800Y-93401242D02*
X281146960Y-93187882D01*
X25336193Y-94457881D02*
X25547012Y-94521381D01*
X236054385Y-94534081D02*
X236062005Y-94534081D01*
X62653836Y-29060565D02*
X62630976Y-29284085D01*
X230672130Y-30137524D02*
X230743250Y-30267064D01*
X281507640Y-94280081D02*
X281507640Y-94280081D01*
X244377956Y-94534081D02*
X275251626Y-94534081D01*
X205935094Y-28224906D02*
X205739515Y-28329046D01*
X19331639Y-94435021D02*
X19128439Y-94544241D01*
X234825026Y-95771059D02*
X234825026Y-95768519D01*
X287926213Y-94965880D02*
X287756034Y-94826180D01*
X193872646Y-32387962D02*
X193974246Y-32286362D01*
X243892817Y-28133466D02*
X243897897Y-28130926D01*
X126054713Y-35009239D02*
X125983593Y-34879700D01*
X244121417Y-28062346D02*
X244121417Y-28062346D01*
X234847886Y-95537380D02*
X234847886Y-95534840D01*
X67015012Y-94904920D02*
X67017552Y-94907460D01*
X234129066Y-123995512D02*
X234324646Y-123888832D01*
X206145914Y-28158866D02*
X205935094Y-28224906D01*
X57784661Y-28801486D02*
X57787201Y-28806566D01*
X88084291Y-31679303D02*
X88114771Y-31852023D01*
X67888771Y-123904072D02*
X68084350Y-124008212D01*
X200364880Y-29042785D02*
X200298840Y-28831966D01*
X70085868Y-31679303D02*
X70085868Y-31679303D01*
X287557914Y-22283852D02*
X287347094Y-22220352D01*
X244367796Y-28034406D02*
X244372876Y-28034406D01*
X276199045Y-94026081D02*
X276300645Y-93830501D01*
X235584485Y-94633141D02*
X235589565Y-94630601D01*
X154121685Y-97508418D02*
X154075966Y-97353478D01*
X67281711Y-95298620D02*
X67281711Y-95298620D01*
X67380771Y-122961733D02*
X67403631Y-123185252D01*
X183854896Y-112794123D02*
X184019996Y-112756023D01*
X235030766Y-95092880D02*
X235030766Y-95090340D01*
X234494826Y-123749132D02*
X234637066Y-123576412D01*
X282135019Y-94610281D02*
X282129939Y-94610281D01*
X281139340Y-93408862D02*
X281139340Y-93408862D01*
X100652198Y-29060565D02*
X100631878Y-29284085D01*
X51414347Y-32210162D02*
X51284807Y-32281282D01*
X51183207Y-32382882D02*
X51114627Y-32512422D01*
X57881181Y-29279005D02*
X57886261Y-32179682D01*
X231274109Y-32187302D02*
X231103929Y-32156822D01*
X212442568Y-32159362D02*
X212272388Y-32187302D01*
X68521230Y-124094571D02*
X233687107Y-124084411D01*
X25138073Y-94353741D02*
X25336193Y-94457881D01*
X56644202Y-94544241D02*
X56649282Y-94544241D01*
X230573070Y-30038464D02*
X230672130Y-30137524D01*
X287131194Y-28034406D02*
X287354714Y-28011546D01*
X68084350Y-124008212D02*
X68297710Y-124071712D01*
X281690520Y-94427401D02*
X281687980Y-94424861D01*
X88056351Y-30259444D02*
X87985231Y-30129904D01*
X95691583Y-28842126D02*
X95587443Y-28646546D01*
X66824512Y-94747440D02*
X66824512Y-94747440D01*
X125752454Y-34709520D02*
X125584814Y-34679040D01*
X235035846Y-95085260D02*
X235180625Y-94904920D01*
X18887139Y-94617901D02*
X18655999Y-94643301D01*
X133380066Y-120716375D02*
X133382606Y-120711295D01*
X132226907Y-121328514D02*
X132414867Y-121315814D01*
X116664342Y-112720463D02*
X116504323Y-112700143D01*
X57449381Y-94208961D02*
X57591621Y-94036241D01*
X126115673Y-36601818D02*
X126184253Y-36731358D01*
X213273147Y-29936864D02*
X213273147Y-29936864D01*
X146803953Y-37259677D02*
X146732833Y-37130137D01*
X200194700Y-28636386D02*
X200052460Y-28466206D01*
X24655473Y-93634922D02*
X24718973Y-93848281D01*
X57782121Y-28798946D02*
X57782121Y-28798946D01*
X236051845Y-94534081D02*
X236054385Y-94534081D01*
X67281711Y-95298620D02*
X67281711Y-95298620D01*
X95076904Y-28229986D02*
X94863544Y-28166486D01*
X288264033Y-26896487D02*
X288264033Y-23335411D01*
X243748037Y-94346121D02*
X243943617Y-94450261D01*
X51084147Y-32680062D02*
X51084147Y-36429098D01*
X57111561Y-28136006D02*
X57111561Y-28136006D01*
X175272245Y-34684120D02*
X193273207Y-34684120D01*
X19674538Y-94092121D02*
X19671998Y-94094661D01*
X287441074Y-93157402D02*
X287273434Y-93187882D01*
X24825653Y-94041321D02*
X24967893Y-94214041D01*
X67403631Y-123185252D02*
X67469671Y-123396072D01*
X193804066Y-32517502D02*
X193872646Y-32387962D01*
X68820950Y-93241222D02*
X68673630Y-93187882D01*
X79481319Y-107782708D02*
X79595619Y-107869068D01*
X281162200Y-93642542D02*
X281139340Y-93411402D01*
X107185072Y-34480920D02*
X107286672Y-34579980D01*
X57332541Y-28252846D02*
X57512881Y-28400166D01*
M02*
