M48
; DRILL file {KiCad (6.0.8-1)-1} date 2023 February 08, Wednesday 14:44:25
; FORMAT={-:-/ absolute / inch / decimal}
; #@! TF.CreationDate,2023-02-08T14:44:25+02:00
; #@! TF.GenerationSoftware,Kicad,Pcbnew,(6.0.8-1)-1
; #@! TF.FileFunction,Plated,1,2,PTH
FMAT,2
INCH
; #@! TA.AperFunction,Plated,PTH,ComponentDrill
T1C0.0118
; #@! TA.AperFunction,Plated,PTH,ViaDrill
T2C0.0157
; #@! TA.AperFunction,Plated,PTH,ComponentDrill
T3C0.0157
; #@! TA.AperFunction,Plated,PTH,ComponentDrill
T4C0.0320
; #@! TA.AperFunction,Plated,PTH,ComponentDrill
T5C0.0394
; #@! TA.AperFunction,Plated,PTH,ComponentDrill
T6C0.0512
; #@! TA.AperFunction,Plated,PTH,ComponentDrill
T7C0.0551
%
G90
G05
T2
X1.366Y-2.6539
X1.4955Y-2.736
X2.2395Y-2.8134
X2.9779Y-2.8028
X3.7322Y-2.7803
X4.4876Y-2.8675
X6.5281Y-2.9412
X6.5621Y-3.2563
X6.6737Y-3.4191
X6.7485Y-3.0372
X6.8856Y-2.9831
X6.8884Y-2.6524
X6.91Y-2.6851
X6.91Y-2.9532
X7.0844Y-2.8835
X7.3312Y-3.3994
X7.3312Y-3.4348
X7.3666Y-3.5096
X7.3666Y-3.5451
X7.4296Y-3.4348
X7.4336Y-3.3994
X7.5674Y-3.5451
X7.6186Y-3.5096
X7.8159Y-2.7888
X7.8548Y-3.4388
X7.8548Y-3.4703
X8.5608Y-2.7678
X9.3064Y-2.7499
X10.4585Y-2.7054
T4
X1.1885Y-1.6896
X1.1885Y-1.9259
X1.1885Y-2.4377
X1.1885Y-2.6739
X1.1885Y-3.1857
X1.1885Y-3.4219
X1.3066Y-1.6898
X1.3066Y-1.926
X1.3066Y-2.4378
X1.3066Y-2.674
X1.3066Y-3.1858
X1.3066Y-3.422
X2.6845Y-1.4929
X2.6845Y-1.7291
X2.6845Y-2.2409
X2.6845Y-2.4772
X2.6845Y-2.989
X2.6845Y-3.2252
X2.8027Y-1.4927
X2.8027Y-1.7289
X2.8027Y-2.2407
X2.8027Y-2.477
X2.8027Y-2.9888
X2.8027Y-3.225
X3.1696Y-3.776
X3.1696Y-4.0122
X3.8066Y-3.7758
X3.8066Y-4.012
X3.9247Y-3.7758
X3.9247Y-4.012
X4.1806Y-1.4929
X4.1806Y-1.7291
X4.1806Y-2.2409
X4.1806Y-2.4772
X4.1806Y-2.989
X4.1806Y-3.2252
X4.2987Y-1.4929
X4.2987Y-1.7291
X4.2987Y-2.2409
X4.2987Y-2.4772
X4.2987Y-2.989
X4.2987Y-3.2252
X5.0899Y-1.6568
X5.0899Y-1.7568
X5.0899Y-1.8568
X5.0899Y-1.9568
X5.0899Y-2.0568
X5.0899Y-2.1568
X5.0899Y-2.2568
X5.0899Y-2.3568
X5.0899Y-2.4568
X5.0899Y-2.5568
X5.0899Y-2.6568
X5.0899Y-2.7568
X5.2373Y-3.0381
X5.3373Y-3.0381
X5.4373Y-3.0381
X5.5373Y-3.0381
X5.6891Y-1.6568
X5.6891Y-1.7568
X5.6891Y-1.8568
X5.6891Y-1.9568
X5.6891Y-2.0568
X5.6891Y-2.1568
X5.6891Y-2.2568
X5.6891Y-2.3568
X5.6891Y-2.4568
X5.6891Y-2.5568
X5.6891Y-2.6568
X5.6891Y-2.7568
X6.1596Y-1.6617
X6.1596Y-1.7617
X6.1596Y-1.8617
X6.1596Y-1.9617
X6.1596Y-2.0617
X6.1596Y-2.1617
X6.1596Y-2.2617
X6.1596Y-2.3617
X6.1596Y-2.4617
X6.1596Y-2.5617
X6.1596Y-2.6617
X6.1596Y-2.7617
X6.3094Y-3.0437
X6.4094Y-3.0437
X6.5094Y-3.0437
X6.6094Y-3.0437
X6.7588Y-1.6617
X6.7588Y-1.7617
X6.7588Y-1.8617
X6.7588Y-1.9617
X6.7588Y-2.0617
X6.7588Y-2.1617
X6.7588Y-2.2617
X6.7588Y-2.3617
X6.7588Y-2.4617
X6.7588Y-2.5617
X6.7588Y-2.6617
X6.7588Y-2.7617
X6.9897Y-3.6278
X6.9897Y-3.7459
X7.2259Y-3.6278
X7.2259Y-3.7459
X7.5466Y-1.4929
X7.5466Y-1.7292
X7.5466Y-2.241
X7.5466Y-2.4772
X7.5466Y-2.989
X7.5466Y-3.2252
X7.6648Y-1.4929
X7.6648Y-1.7292
X7.6648Y-2.241
X7.6648Y-2.4772
X7.6648Y-2.989
X7.6648Y-3.2252
X8.1552Y-3.3787
X8.2552Y-3.3787
X8.3552Y-3.3787
X8.4552Y-3.3787
X8.5552Y-3.3787
X9.0427Y-1.4927
X9.0427Y-1.729
X9.0427Y-2.2408
X9.0427Y-2.477
X9.0427Y-2.9888
X9.0427Y-3.225
X9.1608Y-1.4929
X9.1608Y-1.7292
X9.1608Y-2.241
X9.1608Y-2.4772
X9.1608Y-2.989
X9.1608Y-3.2252
X10.5388Y-1.6898
X10.5388Y-1.926
X10.5388Y-2.4378
X10.5388Y-2.674
X10.5388Y-3.1858
X10.5388Y-3.4221
X10.6569Y-1.6898
X10.6569Y-1.926
X10.6569Y-2.4378
X10.6569Y-2.674
X10.6569Y-3.1858
X10.6569Y-3.4221
T6
X5.6892Y-2.8906
X5.6892Y-3.1465
X6.1565Y-2.8964
X6.1565Y-3.1523
T7
X0.7239Y-1.7075
X0.7239Y-2.4555
X0.7239Y-3.2035
X0.7751Y-1.6504
X0.7751Y-2.3984
X0.7751Y-3.1465
X1.4719Y-1.7075
X1.4719Y-2.4555
X1.4719Y-3.2035
X1.5231Y-1.6504
X1.5231Y-2.3984
X1.5231Y-3.1465
X2.22Y-1.5205
X2.22Y-2.2685
X2.22Y-3.0165
X2.2712Y-1.4634
X2.2712Y-2.2114
X2.2712Y-2.9594
X2.968Y-1.427
X2.968Y-2.175
X2.968Y-2.923
X3.0192Y-1.3699
X3.0192Y-2.1179
X3.0192Y-2.8659
X3.342Y-3.7892
X3.3932Y-3.7321
X3.716Y-1.5205
X3.716Y-2.2685
X3.716Y-3.0165
X3.7672Y-1.4634
X3.7672Y-2.2114
X3.7672Y-2.9594
X4.1999Y-3.8621
X4.2641Y-3.8202
X4.4641Y-1.614
X4.4641Y-2.362
X4.4641Y-3.11
X4.5153Y-1.5569
X4.5153Y-2.3049
X4.5153Y-3.053
X5.0088Y-4.152
X5.0326Y-4.2248
X6.6631Y-3.9657
X6.7381Y-3.9815
X7.0821Y-1.614
X7.0821Y-2.362
X7.0821Y-3.1101
X7.1333Y-1.5569
X7.1333Y-2.3049
X7.1333Y-3.053
X7.3565Y-3.9396
X7.3911Y-3.8712
X7.8301Y-1.5205
X7.8301Y-2.2685
X7.8301Y-3.0166
X7.8813Y-1.4634
X7.8813Y-2.2114
X7.8813Y-2.9595
X8.5781Y-1.427
X8.5781Y-2.175
X8.5781Y-2.923
X8.6293Y-1.3699
X8.6293Y-2.1179
X8.6293Y-2.866
X9.3262Y-1.5205
X9.3262Y-2.2685
X9.3262Y-3.0166
X9.3774Y-1.4634
X9.3774Y-2.2114
X9.3774Y-2.9595
X10.0742Y-1.7075
X10.0742Y-2.4555
X10.0742Y-3.2036
X10.1254Y-1.6504
X10.1254Y-2.3984
X10.1254Y-3.1465
X10.8222Y-1.7075
X10.8222Y-2.4555
X10.8222Y-3.2036
X10.8734Y-1.6504
X10.8734Y-2.3984
X10.8734Y-3.1465
T1
G00X0.8597Y-2.0402
M15
G01X0.8873Y-2.0402
M16
G05
G00X0.8597Y-2.7882
M15
G01X0.8873Y-2.7882
M16
G05
G00X0.8597Y-3.5362
M15
G01X0.8873Y-3.5362
M16
G05
G00X1.0566Y-1.5895
M15
G01X1.0842Y-1.5892
M16
G05
G00X1.0566Y-2.3375
M15
G01X1.0842Y-2.3373
M16
G05
G00X1.0566Y-3.0856
M15
G01X1.0842Y-3.0853
M16
G05
G00X1.6078Y-2.0402
M15
G01X1.6353Y-2.0402
M16
G05
G00X1.6078Y-2.7882
M15
G01X1.6353Y-2.7882
M16
G05
G00X1.6078Y-3.5362
M15
G01X1.6353Y-3.5362
M16
G05
G00X1.8046Y-1.5895
M15
G01X1.8322Y-1.5892
M16
G05
G00X1.8046Y-2.3375
M15
G01X1.8322Y-2.3373
M16
G05
G00X1.8046Y-3.0856
M15
G01X1.8322Y-3.0853
M16
G05
G00X2.3558Y-1.8531
M15
G01X2.3834Y-1.8531
M16
G05
G00X2.3558Y-2.6012
M15
G01X2.3834Y-2.6012
M16
G05
G00X2.3558Y-3.3492
M15
G01X2.3834Y-3.3492
M16
G05
G00X2.5527Y-1.4025
M15
G01X2.5802Y-1.4022
M16
G05
G00X2.5527Y-2.1505
M15
G01X2.5802Y-2.1503
M16
G05
G00X2.5527Y-2.8985
M15
G01X2.5802Y-2.8983
M16
G05
G00X3.1038Y-1.7596
M15
G01X3.1314Y-1.7596
M16
G05
G00X3.1038Y-2.5077
M15
G01X3.1314Y-2.5077
M16
G05
G00X3.1038Y-3.2557
M15
G01X3.1314Y-3.2557
M16
G05
G00X3.3007Y-1.309
M15
G01X3.3282Y-1.3087
M16
G05
G00X3.3007Y-2.057
M15
G01X3.3282Y-2.0568
M16
G05
G00X3.3007Y-2.805
M15
G01X3.3282Y-2.8048
M16
G05
G00X3.4779Y-4.1219
M15
G01X3.5054Y-4.1219
M16
G05
G00X3.6747Y-3.6712
M15
G01X3.7023Y-3.6709
M16
G05
G00X3.8519Y-1.8531
M15
G01X3.8794Y-1.8531
M16
G05
G00X3.8519Y-2.6012
M15
G01X3.8794Y-2.6012
M16
G05
G00X3.8519Y-3.3492
M15
G01X3.8794Y-3.3492
M16
G05
G00X4.0487Y-1.4025
M15
G01X4.0763Y-1.4022
M16
G05
G00X4.0487Y-2.1505
M15
G01X4.0763Y-2.1503
M16
G05
G00X4.0487Y-2.8985
M15
G01X4.0763Y-2.8983
M16
G05
G00X4.245Y-4.2186
M15
G01X4.2716Y-4.2258
M16
G05
G00X4.5518Y-3.8343
M15
G01X4.5784Y-3.8412
M16
G05
G00X4.5999Y-1.9467
M15
G01X4.6275Y-1.9467
M16
G05
G00X4.5999Y-2.6947
M15
G01X4.6275Y-2.6947
M16
G05
G00X4.5999Y-3.4427
M15
G01X4.6275Y-3.4427
M16
G05
G00X4.7968Y-1.496
M15
G01X4.8243Y-1.4957
M16
G05
G00X4.7968Y-2.244
M15
G01X4.8243Y-2.2438
M16
G05
G00X4.7968Y-2.992
M15
G01X4.8243Y-2.9918
M16
G05
G00X5.0968Y-3.8777
M15
G01X5.1104Y-3.8537
M16
G05
G00X5.3887Y-4.2735
M15
G01X5.4024Y-4.2497
M16
G05
G00X6.4429Y-4.2497
M15
G01X6.4567Y-4.2736
M16
G05
G00X6.9316Y-4.1948
M15
G01X6.9456Y-4.2186
M16
G05
G00X7.2179Y-1.9467
M15
G01X7.2455Y-1.9467
M16
G05
G00X7.2179Y-2.6947
M15
G01X7.2455Y-2.6947
M16
G05
G00X7.2179Y-3.4427
M15
G01X7.2455Y-3.4427
M16
G05
G00X7.4148Y-1.496
M15
G01X7.4423Y-1.4958
M16
G05
G00X7.4148Y-2.244
M15
G01X7.4423Y-2.2438
M16
G05
G00X7.4148Y-2.9921
M15
G01X7.4423Y-2.9918
M16
G05
G00X7.5738Y-4.2258
M15
G01X7.6004Y-4.2187
M16
G05
G00X7.6473Y-3.7395
M15
G01X7.6738Y-3.7322
M16
G05
G00X7.9659Y-1.8532
M15
G01X7.9935Y-1.8532
M16
G05
G00X7.9659Y-2.6012
M15
G01X7.9935Y-2.6012
M16
G05
G00X7.9659Y-3.3492
M15
G01X7.9935Y-3.3492
M16
G05
G00X8.1628Y-1.4025
M15
G01X8.1903Y-1.4023
M16
G05
G00X8.1628Y-2.1505
M15
G01X8.1903Y-2.1503
M16
G05
G00X8.1628Y-2.8986
M15
G01X8.1903Y-2.8983
M16
G05
G00X8.714Y-1.7597
M15
G01X8.7415Y-1.7597
M16
G05
G00X8.714Y-2.5077
M15
G01X8.7415Y-2.5077
M16
G05
G00X8.714Y-3.2557
M15
G01X8.7415Y-3.2557
M16
G05
G00X8.9108Y-1.309
M15
G01X8.9384Y-1.3088
M16
G05
G00X8.9108Y-2.057
M15
G01X8.9384Y-2.0568
M16
G05
G00X8.9108Y-2.8051
M15
G01X8.9384Y-2.8048
M16
G05
G00X9.462Y-1.8532
M15
G01X9.4896Y-1.8532
M16
G05
G00X9.462Y-2.6012
M15
G01X9.4896Y-2.6012
M16
G05
G00X9.462Y-3.3492
M15
G01X9.4896Y-3.3492
M16
G05
G00X9.6589Y-1.4025
M15
G01X9.6864Y-1.4023
M16
G05
G00X9.6589Y-2.1505
M15
G01X9.6864Y-2.1503
M16
G05
G00X9.6589Y-2.8986
M15
G01X9.6864Y-2.8983
M16
G05
G00X10.21Y-2.0402
M15
G01X10.2376Y-2.0402
M16
G05
G00X10.21Y-2.7882
M15
G01X10.2376Y-2.7882
M16
G05
G00X10.21Y-3.5362
M15
G01X10.2376Y-3.5362
M16
G05
G00X10.4069Y-1.5895
M15
G01X10.4344Y-1.5893
M16
G05
G00X10.4069Y-2.3375
M15
G01X10.4344Y-2.3373
M16
G05
G00X10.4069Y-3.0856
M15
G01X10.4344Y-3.0853
M16
G05
G00X10.9581Y-2.0402
M15
G01X10.9856Y-2.0402
M16
G05
G00X10.9581Y-2.7882
M15
G01X10.9856Y-2.7882
M16
G05
G00X10.9581Y-3.5362
M15
G01X10.9856Y-3.5362
M16
G05
G00X11.1549Y-1.5895
M15
G01X11.1825Y-1.5893
M16
G05
G00X11.1549Y-2.3375
M15
G01X11.1825Y-2.3373
M16
G05
G00X11.1549Y-3.0856
M15
G01X11.1825Y-3.0853
M16
G05
T3
G00X0.6609Y-1.9614
M15
G01X0.6845Y-1.9614
M16
G05
G00X0.6609Y-2.7094
M15
G01X0.6845Y-2.7094
M16
G05
G00X0.6609Y-3.4575
M15
G01X0.6845Y-3.4575
M16
G05
G00X1.409Y-1.9614
M15
G01X1.4326Y-1.9614
M16
G05
G00X1.409Y-2.7094
M15
G01X1.4326Y-2.7094
M16
G05
G00X1.409Y-3.4575
M15
G01X1.4326Y-3.4575
M16
G05
G00X2.157Y-1.7744
M15
G01X2.1806Y-1.7744
M16
G05
G00X2.157Y-2.5224
M15
G01X2.1806Y-2.5224
M16
G05
G00X2.157Y-3.2705
M15
G01X2.1806Y-3.2705
M16
G05
G00X2.905Y-1.6809
M15
G01X2.9286Y-1.6809
M16
G05
G00X2.905Y-2.4289
M15
G01X2.9286Y-2.4289
M16
G05
G00X2.905Y-3.177
M15
G01X2.9286Y-3.177
M16
G05
G00X3.279Y-4.0431
M15
G01X3.3027Y-4.0431
M16
G05
G00X3.6531Y-1.7744
M15
G01X3.6767Y-1.7744
M16
G05
G00X3.6531Y-2.5224
M15
G01X3.6767Y-2.5224
M16
G05
G00X3.6531Y-3.2705
M15
G01X3.6767Y-3.2705
M16
G05
G00X4.0733Y-4.0911
M15
G01X4.0961Y-4.0972
M16
G05
G00X4.4011Y-1.8679
M15
G01X4.4247Y-1.8679
M16
G05
G00X4.4011Y-2.6159
M15
G01X4.4247Y-2.6159
M16
G05
G00X4.4011Y-3.364
M15
G01X4.4247Y-3.364
M16
G05
G00X5.2211Y-4.4064
M15
G01X5.2329Y-4.3859
M16
G05
G00X6.4117Y-4.0381
M15
G01X6.4235Y-4.0586
M16
G05
G00X7.0191Y-1.8679
M15
G01X7.0427Y-1.8679
M16
G05
G00X7.0191Y-2.616
M15
G01X7.0427Y-2.616
M16
G05
G00X7.0191Y-3.364
M15
G01X7.0427Y-3.364
M16
G05
G00X7.3613Y-4.2012
M15
G01X7.3842Y-4.1951
M16
G05
G00X7.7671Y-1.7744
M15
G01X7.7907Y-1.7744
M16
G05
G00X7.7671Y-2.5225
M15
G01X7.7907Y-2.5225
M16
G05
G00X7.7671Y-3.2705
M15
G01X7.7907Y-3.2705
M16
G05
G00X8.5152Y-1.6809
M15
G01X8.5388Y-1.6809
M16
G05
G00X8.5152Y-2.429
M15
G01X8.5388Y-2.429
M16
G05
G00X8.5152Y-3.177
M15
G01X8.5388Y-3.177
M16
G05
G00X9.2632Y-1.7744
M15
G01X9.2868Y-1.7744
M16
G05
G00X9.2632Y-2.5225
M15
G01X9.2868Y-2.5225
M16
G05
G00X9.2632Y-3.2705
M15
G01X9.2868Y-3.2705
M16
G05
G00X10.0112Y-1.9614
M15
G01X10.0348Y-1.9614
M16
G05
G00X10.0112Y-2.7095
M15
G01X10.0348Y-2.7095
M16
G05
G00X10.0112Y-3.4575
M15
G01X10.0348Y-3.4575
M16
G05
G00X10.7592Y-1.9614
M15
G01X10.7829Y-1.9614
M16
G05
G00X10.7592Y-2.7095
M15
G01X10.7829Y-2.7095
M16
G05
G00X10.7592Y-3.4575
M15
G01X10.7829Y-3.4575
M16
G05
T5
G00X5.3018Y-3.2414
M15
G01X5.2821Y-3.2414
M16
G05
G00X5.3608Y-3.4068
M15
G01X5.3411Y-3.4068
M16
G05
G00X5.5183Y-3.4068
M15
G01X5.4986Y-3.4068
M16
G05
G00X5.6364Y-3.4068
M15
G01X5.6167Y-3.4068
M16
G05
G00X6.207Y-3.2467
M15
G01X6.2267Y-3.2467
M16
G05
G00X6.3251Y-3.2467
M15
G01X6.3448Y-3.2467
M16
G05
G00X6.4826Y-3.2467
M15
G01X6.5023Y-3.2467
M16
G05
G00X6.5416Y-3.412
M15
G01X6.5613Y-3.412
M16
G05
T7
G00X0.9719Y-1.6081
M15
G01X0.9719Y-1.6297
M16
G05
G00X0.9719Y-2.3561
M15
G01X0.9719Y-2.3778
M16
G05
G00X0.9719Y-3.1041
M15
G01X0.9719Y-3.1258
M16
G05
G00X1.72Y-1.6081
M15
G01X1.72Y-1.6297
M16
G05
G00X1.72Y-2.3561
M15
G01X1.72Y-2.3778
M16
G05
G00X1.72Y-3.1041
M15
G01X1.72Y-3.1258
M16
G05
G00X2.468Y-1.4211
M15
G01X2.468Y-1.4427
M16
G05
G00X2.468Y-2.1691
M15
G01X2.468Y-2.1907
M16
G05
G00X2.468Y-2.9171
M15
G01X2.468Y-2.9388
M16
G05
G00X3.216Y-1.3276
M15
G01X3.216Y-1.3492
M16
G05
G00X3.216Y-2.0756
M15
G01X3.216Y-2.0972
M16
G05
G00X3.216Y-2.8236
M15
G01X3.216Y-2.8453
M16
G05
G00X3.5901Y-3.6898
M15
G01X3.5901Y-3.7114
M16
G05
G00X3.9641Y-1.4211
M15
G01X3.9641Y-1.4427
M16
G05
G00X3.9641Y-2.1691
M15
G01X3.9641Y-2.1907
M16
G05
G00X3.9641Y-2.9171
M15
G01X3.9641Y-2.9388
M16
G05
G00X4.4652Y-3.8303
M15
G01X4.4596Y-3.8512
M16
G05
G00X4.7121Y-1.5146
M15
G01X4.7121Y-1.5362
M16
G05
G00X4.7121Y-2.2626
M15
G01X4.7121Y-2.2843
M16
G05
G00X4.7121Y-3.0106
M15
G01X4.7121Y-3.0323
M16
G05
G00X5.0706Y-3.9603
M15
G01X5.0893Y-3.9712
M16
G05
G00X6.8732Y-4.1308
M15
G01X6.8545Y-4.1417
M16
G05
G00X7.3301Y-1.5146
M15
G01X7.3301Y-1.5362
M16
G05
G00X7.3301Y-2.2626
M15
G01X7.3301Y-2.2843
M16
G05
G00X7.3301Y-3.0106
M15
G01X7.3301Y-3.0323
M16
G05
G00X7.5703Y-3.7794
M15
G01X7.5759Y-3.8003
M16
G05
G00X8.0781Y-1.4211
M15
G01X8.0781Y-1.4427
M16
G05
G00X8.0781Y-2.1691
M15
G01X8.0781Y-2.1908
M16
G05
G00X8.0781Y-2.9171
M15
G01X8.0781Y-2.9388
M16
G05
G00X8.8262Y-1.3276
M15
G01X8.8262Y-1.3492
M16
G05
G00X8.8262Y-2.0756
M15
G01X8.8262Y-2.0973
M16
G05
G00X8.8262Y-2.8236
M15
G01X8.8262Y-2.8453
M16
G05
G00X9.5742Y-1.4211
M15
G01X9.5742Y-1.4427
M16
G05
G00X9.5742Y-2.1691
M15
G01X9.5742Y-2.1908
M16
G05
G00X9.5742Y-2.9171
M15
G01X9.5742Y-2.9388
M16
G05
G00X10.3222Y-1.6081
M15
G01X10.3222Y-1.6297
M16
G05
G00X10.3222Y-2.3561
M15
G01X10.3222Y-2.3778
M16
G05
G00X10.3222Y-3.1042
M15
G01X10.3222Y-3.1258
M16
G05
G00X11.0703Y-1.6081
M15
G01X11.0703Y-1.6297
M16
G05
G00X11.0703Y-2.3561
M15
G01X11.0703Y-2.3778
M16
G05
G00X11.0703Y-3.1042
M15
G01X11.0703Y-3.1258
M16
G05
T0
M30
