0
SECTION
2
HEADER
9
$INSUNITS
70
4
9
$ACADVER
1
AC1014
9
$HANDSEED
5
FFFF
0
ENDSEC
0
SECTION
2
TABLES
0
TABLE
2
VPORT
5
8
100
AcDbSymbolTable
0
ENDTAB
0
TABLE
2
LTYPE
5
5
100
AcDbSymbolTable
0
LTYPE
5
14
100
AcDbSymbolTableRecord
100
AcDbLinetypeTableRecord
2
BYBLOCK
70
0
0
LTYPE
5
15
100
AcDbSymbolTableRecord
100
AcDbLinetypeTableRecord
2
BYLAYER
70
0
0
ENDTAB
0
TABLE
2
LAYER
5
2
100
AcDbSymbolTable
70
2
0
LAYER
5
50
100
AcDbSymbolTableRecord
100
AcDbLayerTableRecord
2
0
70
0
6
CONTINUOUS
0
ENDTAB
0
TABLE
2
STYLE
5
3
100
AcDbSymbolTable
70
1
0
STYLE
5
11
100
AcDbSymbolTableRecord
100
AcDbTextStyleTableRecord
2
STANDARD
70
0
0
ENDTAB
0
TABLE
2
VIEW
5
6
100
AcDbSymbolTable
70
0
0
ENDTAB
0
TABLE
2
UCS
5
7
100
AcDbSymbolTable
70
0
0
ENDTAB
0
TABLE
2
APPID
5
9
100
AcDbSymbolTable
70
2
0
APPID
5
12
100
AcDbSymbolTableRecord
100
AcDbRegAppTableRecord
2
ACAD
70
0
0
ENDTAB
0
TABLE
2
DIMSTYLE
5
A
100
AcDbSymbolTable
70
1
0
ENDTAB
0
TABLE
2
BLOCK_RECORD
5
1
100
AcDbSymbolTable
70
1
0
BLOCK_RECORD
5
1F
100
AcDbSymbolTableRecord
100
AcDbBlockTableRecord
2
*MODEL_SPACE
0
BLOCK_RECORD
5
1B
100
AcDbSymbolTableRecord
100
AcDbBlockTableRecord
2
*PAPER_SPACE
0
ENDTAB
0
ENDSEC
0
SECTION
2
BLOCKS
0
BLOCK
5
20
100
AcDbEntity
100
AcDbBlockBegin
2
*MODEL_SPACE
0
ENDBLK
5
21
100
AcDbEntity
100
AcDbBlockEnd
0
BLOCK
5
1C
100
AcDbEntity
100
AcDbBlockBegin
2
*PAPER_SPACE
0
ENDBLK
5
1D
100
AcDbEntity
100
AcDbBlockEnd
0
ENDSEC
0
SECTION
2
ENTITIES
0
LWPOLYLINE
5
100
100
AcDbEntity
8
0
100
AcDbPolyline
90
35
70
1
43
0.0
10
22.207764815371831
20
-37.120140920011082
10
37.573590422965076
20
-23.251913809714924
42
-0.18564335223974507
10
38.913599686856827
20
-22.736627644999118
10
61.466079483142707
20
-22.73662764499911
42
0.41421356237309509
10
62.466079483142707
20
-21.736627644999118
10
62.466079483142707
20
28.263372355000882
42
0.41421356237309509
10
61.466079483142707
20
29.26337235500089
10
45.466079483142707
20
29.26337235500089
42
-0.41421356237309509
10
44.466079483142707
20
30.263372355000886
10
44.466079483142707
20
33.26337235500089
42
0.41421356237309243
10
43.466079483142714
20
34.26337235500089
10
27.46607948314271
20
34.263372355000882
42
-0.41421356237309509
10
26.46607948314271
20
35.263372355000882
42
0.4142135623730937
10
25.466079483142714
20
36.26337235500089
10
9.4660794831427086
20
36.26337235500089
42
0.41421356237308787
10
8.4660794831427104
20
35.263372355000904
42
-0.41421356237309598
10
7.4660794831427113
20
34.263372355000897
10
-8.5339205168572896
20
34.263372355000875
42
0.41421356237308982
10
-9.5339205168572843
20
33.26337235500089
42
-0.41421356237309637
10
-10.533920516857284
20
32.263372355000882
10
-26.533920516857286
20
32.263372355000882
42
0.41421356237309243
10
-27.53392051685729
20
31.263372355000882
10
-27.53392051685729
20
30.763372355000879
42
-0.4142135623730937
10
-28.53392051685729
20
29.763372355000882
10
-46.033920516857293
20
29.763372355000879
42
0.41421356237309509
10
-47.033920516857286
20
28.763372355000882
10
-47.033920516857279
20
-24.439268839094762
42
-0.29147341958608908
10
-48.188683993375889
20
-26.251884413168067
10
-48.917861273588066
20
-26.591905363083626
42
0.41421356237308682
10
-49.401550798884024
20
-27.920831411860991
10
-35.032529899700251
20
-58.73529617110708
42
0.41421356237309331
10
-33.703603850922896
20
-59.218985696403038
10
12.180639762844706
20
-37.822811510653594
42
-0.10951781168324154
10
13.025876286326108
20
-37.635427084726892
10
20.867755551480087
20
-37.635427084726892
42
0.18564335223974729
0
CIRCLE
5
101
100
AcDbEntity
8
0
100
AcDbCircle
10
-18.533920516857297
20
23.263372355000875
30
0
40
1.5000000000000013
210
0
220
0
230
1
0
CIRCLE
5
102
100
AcDbEntity
8
0
100
AcDbCircle
10
-18.533920516857297
20
6.2633723550008726
30
0
40
1.5000000000000009
210
0
220
0
230
1
0
CIRCLE
5
103
100
AcDbEntity
8
0
100
AcDbCircle
10
-18.533920516857297
20
-10.736627644999128
30
0
40
1.5000000000000009
210
0
220
0
230
1
0
CIRCLE
5
104
100
AcDbEntity
8
0
100
AcDbCircle
10
-34.060270265962352
20
-39.524499435817759
30
0
40
1.5000000000000009
210
0
220
0
230
1
0
CIRCLE
5
105
100
AcDbEntity
8
0
100
AcDbCircle
10
-11.860142955478228
20
-31.903352605576313
30
0
40
1.5000000000000009
210
0
220
0
230
1
0
CIRCLE
5
106
100
AcDbEntity
8
0
100
AcDbCircle
10
13.190827932281874
20
-28.635427084726899
30
0
40
1.5000000000000009
210
0
220
0
230
1
0
CIRCLE
5
107
100
AcDbEntity
8
0
100
AcDbCircle
10
-0.53392051685728714
20
-8.7366276449991087
30
0
40
1.5000000000000009
210
0
220
0
230
1
0
CIRCLE
5
108
100
AcDbEntity
8
0
100
AcDbCircle
10
-0.53392051685728714
20
8.2633723550008931
30
0
40
1.5000000000000009
210
0
220
0
230
1
0
CIRCLE
5
109
100
AcDbEntity
8
0
100
AcDbCircle
10
-0.53392051685728714
20
25.263372355000897
30
0
40
1.5000000000000009
210
0
220
0
230
1
0
CIRCLE
5
110
100
AcDbEntity
8
0
100
AcDbCircle
10
17.466079483142714
20
27.263372355000893
30
0
40
1.5000000000000009
210
0
220
0
230
1
0
CIRCLE
5
111
100
AcDbEntity
8
0
100
AcDbCircle
10
17.466079483142714
20
10.263372355000888
30
0
40
1.5000000000000009
210
0
220
0
230
1
0
CIRCLE
5
112
100
AcDbEntity
8
0
100
AcDbCircle
10
17.466079483142714
20
-6.7366276449991123
30
0
40
1.5000000000000009
210
0
220
0
230
1
0
CIRCLE
5
113
100
AcDbEntity
8
0
100
AcDbCircle
10
35.466079483142707
20
-8.7366276449991176
30
0
40
1.5000000000000009
210
0
220
0
230
1
0
CIRCLE
5
114
100
AcDbEntity
8
0
100
AcDbCircle
10
35.466079483142707
20
8.2633723550008842
30
0
40
1.5000000000000009
210
0
220
0
230
1
0
CIRCLE
5
115
100
AcDbEntity
8
0
100
AcDbCircle
10
35.466079483142707
20
25.263372355000886
30
0
40
1.5000000000000009
210
0
220
0
230
1
0
CIRCLE
5
116
100
AcDbEntity
8
0
100
AcDbCircle
10
53.466079483142714
20
20.26337235500089
30
0
40
1.5000000000000009
210
0
220
0
230
1
0
CIRCLE
5
117
100
AcDbEntity
8
0
100
AcDbCircle
10
53.466079483142714
20
3.2633723550008886
30
0
40
1.5000000000000009
210
0
220
0
230
1
0
CIRCLE
5
118
100
AcDbEntity
8
0
100
AcDbCircle
10
53.466079483142714
20
-13.736627644999114
30
0
40
1.5000000000000009
210
0
220
0
230
1
0
ENDSEC
0
SECTION
2
OBJECTS
0
DICTIONARY
5
C
100
AcDbDictionary
3
ACAD_GROUP
350
D
3
ACAD_MLINESTYLE
350
17
0
DICTIONARY
5
D
100
AcDbDictionary
0
DICTIONARY
5
1A
330
C
100
AcDbDictionary
0
DICTIONARY
5
17
100
AcDbDictionary
0
ENDSEC
0
EOF
