G04 #@! TF.GenerationSoftware,KiCad,Pcbnew,(6.0.8-1)-1*
G04 #@! TF.CreationDate,2023-02-26T16:34:20+02:00*
G04 #@! TF.ProjectId,chococorne,63686f63-6f63-46f7-926e-652e6b696361,2.1*
G04 #@! TF.SameCoordinates,Original*
G04 #@! TF.FileFunction,Copper,L2,Bot*
G04 #@! TF.FilePolarity,Positive*
%FSLAX46Y46*%
G04 Gerber Fmt 4.6, Leading zero omitted, Abs format (unit mm)*
G04 Created by KiCad (PCBNEW (6.0.8-1)-1) date 2023-02-26 16:34:20*
%MOMM*%
%LPD*%
G01*
G04 APERTURE LIST*
G04 #@! TA.AperFunction,ComponentPad*
%ADD10R,1.397000X1.397000*%
G04 #@! TD*
G04 #@! TA.AperFunction,SMDPad,CuDef*
%ADD11R,0.950000X1.300000*%
G04 #@! TD*
G04 #@! TA.AperFunction,ComponentPad*
%ADD12C,1.397000*%
G04 #@! TD*
G04 #@! TA.AperFunction,SMDPad,CuDef*
%ADD13R,1.300000X0.950000*%
G04 #@! TD*
G04 #@! TA.AperFunction,ComponentPad*
%ADD14O,2.500000X1.700000*%
G04 #@! TD*
G04 #@! TA.AperFunction,ComponentPad*
%ADD15C,2.032000*%
G04 #@! TD*
G04 #@! TA.AperFunction,ComponentPad*
%ADD16C,1.524000*%
G04 #@! TD*
G04 #@! TA.AperFunction,ComponentPad*
%ADD17C,2.000000*%
G04 #@! TD*
G04 #@! TA.AperFunction,ComponentPad*
%ADD18C,4.000000*%
G04 #@! TD*
G04 #@! TA.AperFunction,SMDPad,CuDef*
%ADD19R,1.143000X0.635000*%
G04 #@! TD*
G04 #@! TA.AperFunction,ViaPad*
%ADD20C,0.600000*%
G04 #@! TD*
G04 #@! TA.AperFunction,Conductor*
%ADD21C,0.250000*%
G04 #@! TD*
G04 APERTURE END LIST*
D10*
X94750000Y-60230000D03*
D11*
X94750000Y-62265000D03*
X94750000Y-65815000D03*
D12*
X94750000Y-67850000D03*
D10*
X113030000Y-52070000D03*
D11*
X113030000Y-54105000D03*
D12*
X113030000Y-59690000D03*
D11*
X113030000Y-57655000D03*
D10*
X130810000Y-52070000D03*
D11*
X130810000Y-54105000D03*
D12*
X130810000Y-59690000D03*
D11*
X130810000Y-57655000D03*
D10*
X148775000Y-52315000D03*
D11*
X148775000Y-54350000D03*
D12*
X148775000Y-59935000D03*
D11*
X148775000Y-57900000D03*
D10*
X148850000Y-73215000D03*
D11*
X148850000Y-75250000D03*
D12*
X148850000Y-80835000D03*
D11*
X148850000Y-78800000D03*
X94980000Y-74765000D03*
D10*
X94980000Y-72730000D03*
D11*
X94980000Y-78315000D03*
D12*
X94980000Y-80350000D03*
D10*
X113030000Y-70215000D03*
D11*
X113030000Y-72250000D03*
X113030000Y-75800000D03*
D12*
X113030000Y-77835000D03*
D11*
X130920000Y-66585000D03*
D10*
X130920000Y-64550000D03*
D11*
X130920000Y-70135000D03*
D12*
X130920000Y-72170000D03*
D10*
X166825000Y-55165000D03*
D11*
X166825000Y-57200000D03*
D12*
X166825000Y-62785000D03*
D11*
X166825000Y-60750000D03*
D10*
X148875000Y-83890000D03*
D11*
X148875000Y-85925000D03*
D12*
X148875000Y-91510000D03*
D11*
X148875000Y-89475000D03*
D10*
X94480000Y-90665000D03*
D11*
X94480000Y-92700000D03*
D12*
X94480000Y-98285000D03*
D11*
X94480000Y-96250000D03*
X112950000Y-82900000D03*
D10*
X112950000Y-80865000D03*
D12*
X112950000Y-88485000D03*
D11*
X112950000Y-86450000D03*
D10*
X130890000Y-77370000D03*
D11*
X130890000Y-79405000D03*
X130890000Y-82955000D03*
D12*
X130890000Y-84990000D03*
D10*
X167050000Y-85540000D03*
D11*
X167050000Y-87575000D03*
X167050000Y-91125000D03*
D12*
X167050000Y-93160000D03*
D10*
X148950000Y-93740000D03*
D11*
X148950000Y-95775000D03*
D12*
X148950000Y-101360000D03*
D11*
X148950000Y-99325000D03*
D13*
X137495000Y-84480000D03*
D10*
X135460000Y-84480000D03*
D13*
X141045000Y-84480000D03*
D12*
X143080000Y-84480000D03*
D11*
X130910000Y-92295000D03*
D10*
X130910000Y-90260000D03*
D11*
X130910000Y-95845000D03*
D12*
X130910000Y-97880000D03*
D11*
X113000000Y-93325000D03*
D10*
X113000000Y-91290000D03*
D12*
X113000000Y-98910000D03*
D11*
X113000000Y-96875000D03*
D14*
X176160000Y-98070000D03*
X176160000Y-100520000D03*
X184660000Y-96320000D03*
X184660000Y-102270000D03*
X181660000Y-102270000D03*
X181660000Y-96320000D03*
X177660000Y-96320000D03*
X177660000Y-102270000D03*
D15*
X85910000Y-71480000D03*
X80910000Y-69380000D03*
X90910000Y-69380000D03*
X103910000Y-64920000D03*
X98910000Y-62820000D03*
X108910000Y-62820000D03*
X121910000Y-62560000D03*
X116910000Y-60460000D03*
X126910000Y-60460000D03*
X139910000Y-64920000D03*
X144910000Y-62820000D03*
X134910000Y-62820000D03*
X157910000Y-67300000D03*
X152910000Y-65200000D03*
X162910000Y-65200000D03*
X85910000Y-88480000D03*
X90910000Y-86380000D03*
X80910000Y-86380000D03*
X103910000Y-81920000D03*
X108910000Y-79820000D03*
X98910000Y-79820000D03*
X121910000Y-79550000D03*
X126910000Y-77450000D03*
X116910000Y-77450000D03*
X139910000Y-81920000D03*
X144910000Y-79820000D03*
X134910000Y-79820000D03*
X157910000Y-84300000D03*
X152910000Y-82200000D03*
X162910000Y-82200000D03*
X85910000Y-105485000D03*
X80910000Y-103385000D03*
X90910000Y-103385000D03*
X103910000Y-98925000D03*
X108910000Y-96825000D03*
X98910000Y-96825000D03*
X121910000Y-96550000D03*
X126910000Y-94450000D03*
X116910000Y-94450000D03*
X139910000Y-98925000D03*
X144910000Y-96825000D03*
X134910000Y-96825000D03*
X157910000Y-101300000D03*
X162910000Y-99200000D03*
X152910000Y-99200000D03*
X134010000Y-107090000D03*
X139010000Y-109190000D03*
X129010000Y-109190000D03*
X155587032Y-109881038D03*
X159873142Y-113203577D03*
X150213883Y-110615387D03*
X169550450Y-115840000D03*
X168869103Y-121220127D03*
X173869103Y-112559873D03*
D16*
X186166400Y-56432000D03*
X169620000Y-57702000D03*
X169620000Y-60242000D03*
X186166400Y-58972000D03*
X186166400Y-61512000D03*
X169620000Y-62782000D03*
X186166400Y-64052000D03*
X169620000Y-65322000D03*
X186166400Y-66592000D03*
X169620000Y-67862000D03*
X169620000Y-70402000D03*
X186166400Y-69132000D03*
X169620000Y-72942000D03*
X186166400Y-71672000D03*
X169620000Y-75482000D03*
X186166400Y-74212000D03*
X169620000Y-78022000D03*
X186166400Y-76752000D03*
X186166400Y-79292000D03*
X169620000Y-80562000D03*
X186166400Y-81832000D03*
X169620000Y-83102000D03*
X186166400Y-84372000D03*
X169620000Y-85642000D03*
X184860000Y-85642000D03*
X170946400Y-84372000D03*
X170946400Y-81832000D03*
X184860000Y-83102000D03*
X184860000Y-80562000D03*
X170946400Y-79292000D03*
X170946400Y-76752000D03*
X184860000Y-78022000D03*
X184860000Y-75482000D03*
X170946400Y-74212000D03*
X170946400Y-71672000D03*
X184860000Y-72942000D03*
X170946400Y-69132000D03*
X184860000Y-70402000D03*
X184860000Y-67862000D03*
X170946400Y-66592000D03*
X184860000Y-65322000D03*
X170946400Y-64052000D03*
X170946400Y-61512000D03*
X184860000Y-62782000D03*
X170946400Y-58972000D03*
X184860000Y-60242000D03*
X184860000Y-57702000D03*
X170946400Y-56432000D03*
D10*
X76850000Y-78365000D03*
D11*
X76850000Y-80400000D03*
X76850000Y-83950000D03*
D12*
X76850000Y-85985000D03*
D10*
X76975000Y-95715000D03*
D11*
X76975000Y-97750000D03*
D12*
X76975000Y-103335000D03*
D11*
X76975000Y-101300000D03*
D15*
X67910000Y-88480000D03*
X72910000Y-86380000D03*
X62910000Y-86380000D03*
X67910000Y-105500000D03*
X62910000Y-103400000D03*
X72910000Y-103400000D03*
X67910000Y-71480000D03*
X62910000Y-69380000D03*
X72910000Y-69380000D03*
D12*
X173930000Y-89440000D03*
X176470000Y-89440000D03*
X179010000Y-89440000D03*
X181550000Y-89440000D03*
D17*
X186030000Y-94180000D03*
X186030000Y-87680000D03*
D10*
X76975000Y-60565000D03*
D11*
X76975000Y-62600000D03*
X76975000Y-66150000D03*
D12*
X76975000Y-68185000D03*
D18*
X149025000Y-68125000D03*
X76870000Y-74150000D03*
X117820000Y-104650000D03*
X167140000Y-109200000D03*
X76870000Y-91290000D03*
D19*
X176480000Y-86309620D03*
X176480000Y-87310380D03*
X173930000Y-86339220D03*
X173930000Y-87339980D03*
X181640000Y-86259620D03*
X181640000Y-87260380D03*
X179060000Y-86279620D03*
X179060000Y-87280380D03*
D20*
X143300000Y-69475000D03*
X177800000Y-72942000D03*
X177800000Y-75482000D03*
X167500500Y-65500000D03*
X154260000Y-78283686D03*
X154950000Y-87675000D03*
X167050000Y-82250000D03*
X177800000Y-78022000D03*
X124330000Y-92295000D03*
X177800000Y-80562000D03*
X152925000Y-69700000D03*
X157285500Y-72925000D03*
X156024500Y-74275000D03*
X135250000Y-100250000D03*
X127600000Y-100350000D03*
X177800000Y-83100000D03*
X179832000Y-69088000D03*
X179832000Y-71628000D03*
X179832000Y-74168000D03*
X179832000Y-76708000D03*
X179959000Y-79248000D03*
X179959000Y-81788000D03*
X179959000Y-84328000D03*
X177800000Y-70402000D03*
X177800000Y-67862000D03*
D21*
X148750000Y-52070000D02*
X148890000Y-52210000D01*
X107100334Y-52070000D02*
X113030000Y-52070000D01*
X94750000Y-60230000D02*
X98940334Y-60230000D01*
X152507500Y-58717500D02*
X158082500Y-58717500D01*
X76975000Y-62600000D02*
X76975000Y-60565000D01*
X169620000Y-72942000D02*
X168125000Y-71447000D01*
X158082500Y-58717500D02*
X158182500Y-58717500D01*
X169620000Y-72942000D02*
X177800000Y-72942000D01*
X130810000Y-52070000D02*
X130810000Y-54105000D01*
X129540000Y-50800000D02*
X130810000Y-52070000D01*
X143300000Y-67925000D02*
X152507500Y-58717500D01*
X168125000Y-60075000D02*
X166767500Y-58717500D01*
X113030000Y-54105000D02*
X113030000Y-52070000D01*
X130810000Y-52070000D02*
X148750000Y-52070000D01*
X92380000Y-62600000D02*
X76975000Y-62600000D01*
X143300000Y-69475000D02*
X143300000Y-67925000D01*
X148775000Y-52315000D02*
X148775000Y-54350000D01*
X94750000Y-60230000D02*
X92380000Y-62600000D01*
X168125000Y-71447000D02*
X168125000Y-60075000D01*
X94750000Y-60230000D02*
X94750000Y-62265000D01*
X148850000Y-75250000D02*
X148850000Y-73215000D01*
X153815001Y-54350000D02*
X158182500Y-58717500D01*
X114300000Y-50800000D02*
X129540000Y-50800000D01*
X148775000Y-54350000D02*
X153815001Y-54350000D01*
X98940334Y-60230000D02*
X107100334Y-52070000D01*
X166767500Y-58717500D02*
X158082500Y-58717500D01*
X113030000Y-52070000D02*
X114300000Y-50800000D01*
X94104999Y-71854999D02*
X94980000Y-72730000D01*
X130920000Y-64550000D02*
X118695000Y-64550000D01*
X153700000Y-70450000D02*
X134785000Y-70450000D01*
X77535000Y-78365000D02*
X76850000Y-78365000D01*
X169620000Y-75482000D02*
X177800000Y-75482000D01*
X76850000Y-78365000D02*
X76850000Y-80400000D01*
X113030000Y-72250000D02*
X113030000Y-70215000D01*
X83078999Y-72821001D02*
X88841001Y-72821001D01*
X83078999Y-72821001D02*
X77535000Y-78365000D01*
X158732000Y-75482000D02*
X158757000Y-75482000D01*
X134785000Y-70450000D02*
X130920000Y-66585000D01*
X89807003Y-71854999D02*
X94104999Y-71854999D01*
X148875000Y-85925000D02*
X148875000Y-83890000D01*
X94980000Y-72730000D02*
X110270000Y-72730000D01*
X94980000Y-72730000D02*
X94980000Y-74765000D01*
X166825000Y-57200000D02*
X166825000Y-55165000D01*
X157061686Y-75482000D02*
X154260000Y-78283686D01*
X118695000Y-64550000D02*
X113030000Y-70215000D01*
X169620000Y-75482000D02*
X158757000Y-75482000D01*
X112785000Y-70215000D02*
X113030000Y-70215000D01*
X158757000Y-75482000D02*
X157061686Y-75482000D01*
X110270000Y-72730000D02*
X112785000Y-70215000D01*
X88841001Y-72821001D02*
X89807003Y-71854999D01*
X169620000Y-75482000D02*
X167500500Y-73362500D01*
X153700000Y-70450000D02*
X158732000Y-75482000D01*
X167500500Y-73362500D02*
X167500500Y-65500000D01*
X130920000Y-64550000D02*
X130920000Y-66585000D01*
X90910000Y-69380000D02*
X93220000Y-69380000D01*
X80910000Y-69380000D02*
X90910000Y-69380000D01*
X93220000Y-69380000D02*
X94750000Y-67850000D01*
X94750000Y-65815000D02*
X94750000Y-67850000D01*
X130890000Y-78318500D02*
X133971500Y-81400000D01*
X76975000Y-97750000D02*
X76975000Y-95715000D01*
X137821001Y-80578999D02*
X142353999Y-80578999D01*
X94480000Y-90665000D02*
X94480000Y-92700000D01*
X87545000Y-90665000D02*
X89255001Y-88954999D01*
X167050000Y-80650000D02*
X167021000Y-80621000D01*
X112950000Y-82900000D02*
X127395000Y-82900000D01*
X154950000Y-87675000D02*
X155925000Y-86700000D01*
X167050000Y-87575000D02*
X167050000Y-85540000D01*
X155925000Y-86675000D02*
X160967000Y-86675000D01*
X89255001Y-88954999D02*
X92769999Y-88954999D01*
X130890000Y-77370000D02*
X130890000Y-78318500D01*
X127395000Y-82900000D02*
X130890000Y-79405000D01*
X166900000Y-80742000D02*
X167021000Y-80621000D01*
X133971500Y-81400000D02*
X137000000Y-81400000D01*
X167021000Y-80621000D02*
X169620000Y-78022000D01*
X112950000Y-82900000D02*
X112950000Y-80865000D01*
X160967000Y-86675000D02*
X167021000Y-80621000D01*
X130890000Y-77370000D02*
X130890000Y-79405000D01*
X169620000Y-78022000D02*
X177800000Y-78022000D01*
X105185000Y-90665000D02*
X94480000Y-90665000D01*
X167050000Y-82250000D02*
X167050000Y-80650000D01*
X155925000Y-86700000D02*
X155925000Y-86675000D01*
X148950000Y-95775000D02*
X148950000Y-93740000D01*
X137000000Y-81400000D02*
X137821001Y-80578999D01*
X81235000Y-90665000D02*
X76975000Y-94925000D01*
X144050000Y-82275000D02*
X150025000Y-82275000D01*
X92769999Y-88954999D02*
X94480000Y-90665000D01*
X76975000Y-94925000D02*
X76975000Y-95715000D01*
X154425000Y-86675000D02*
X155925000Y-86675000D01*
X142353999Y-80578999D02*
X144050000Y-82275000D01*
X81235000Y-90665000D02*
X87545000Y-90665000D01*
X112950000Y-82900000D02*
X105185000Y-90665000D01*
X150025000Y-82275000D02*
X154425000Y-86675000D01*
X113030000Y-59690000D02*
X113030000Y-57655000D01*
X108910000Y-62820000D02*
X110780000Y-62820000D01*
X113030000Y-60570000D02*
X113030000Y-59690000D01*
X98910000Y-62820000D02*
X108910000Y-62820000D01*
X110780000Y-62820000D02*
X113030000Y-60570000D01*
X130910000Y-92295000D02*
X130910000Y-90260000D01*
X147760000Y-88500000D02*
X161700000Y-88500000D01*
X146000000Y-90260000D02*
X147760000Y-88500000D01*
X123516000Y-93109000D02*
X124330000Y-92295000D01*
X137495000Y-84480000D02*
X135460000Y-84480000D01*
X169620000Y-80580000D02*
X169620000Y-80562000D01*
X130910000Y-87990000D02*
X134420000Y-84480000D01*
X113000000Y-93325000D02*
X113000000Y-91290000D01*
X134420000Y-84480000D02*
X135460000Y-84480000D01*
X113216000Y-93109000D02*
X123516000Y-93109000D01*
X113000000Y-93325000D02*
X113216000Y-93109000D01*
X169620000Y-80562000D02*
X177800000Y-80562000D01*
X130910000Y-90260000D02*
X130910000Y-87990000D01*
X161700000Y-88500000D02*
X169620000Y-80580000D01*
X130910000Y-90260000D02*
X146000000Y-90260000D01*
X130040000Y-60460000D02*
X126910000Y-60460000D01*
X130810000Y-57655000D02*
X130810000Y-59690000D01*
X116910000Y-60460000D02*
X126910000Y-60460000D01*
X130810000Y-59690000D02*
X130040000Y-60460000D01*
X144910000Y-62820000D02*
X147795000Y-59935000D01*
X148775000Y-59935000D02*
X148775000Y-57900000D01*
X134910000Y-62820000D02*
X144910000Y-62820000D01*
X147795000Y-59935000D02*
X148775000Y-59935000D01*
X152910000Y-65200000D02*
X162910000Y-65200000D01*
X148850000Y-80835000D02*
X148850000Y-78800000D01*
X152910000Y-69685000D02*
X152925000Y-69700000D01*
X152910000Y-65200000D02*
X152910000Y-69685000D01*
X94980000Y-82310000D02*
X94980000Y-80350000D01*
X94980000Y-78315000D02*
X94980000Y-80350000D01*
X90910000Y-86380000D02*
X94980000Y-82310000D01*
X80910000Y-86380000D02*
X90910000Y-86380000D01*
X111065000Y-79800000D02*
X108930000Y-79800000D01*
X113030000Y-77835000D02*
X113030000Y-75800000D01*
X113030000Y-77835000D02*
X111065000Y-79800000D01*
X98910000Y-79820000D02*
X108910000Y-79820000D01*
X130920000Y-73440000D02*
X126910000Y-77450000D01*
X116910000Y-77450000D02*
X126910000Y-77450000D01*
X130920000Y-72170000D02*
X130920000Y-73440000D01*
X130920000Y-72170000D02*
X130920000Y-70135000D01*
X153599500Y-76700000D02*
X156024500Y-74275000D01*
X166825000Y-63385500D02*
X157285500Y-72925000D01*
X166825000Y-60750000D02*
X166825000Y-62785000D01*
X166825000Y-62785000D02*
X166825000Y-63385500D01*
X148030000Y-76700000D02*
X152800000Y-76700000D01*
X152800000Y-76700000D02*
X153035000Y-76700000D01*
X134910000Y-79820000D02*
X144910000Y-79820000D01*
X144910000Y-79820000D02*
X148030000Y-76700000D01*
X153035000Y-76700000D02*
X153599500Y-76700000D01*
X152910000Y-82200000D02*
X162910000Y-82200000D01*
X148875000Y-91510000D02*
X148875000Y-89475000D01*
X94480000Y-96250000D02*
X94480000Y-98285000D01*
X80910000Y-103385000D02*
X90910000Y-103385000D01*
X94480000Y-99815000D02*
X90910000Y-103385000D01*
X94480000Y-98285000D02*
X94480000Y-99815000D01*
X110950000Y-94785000D02*
X110950000Y-90485000D01*
X112950000Y-88485000D02*
X112950000Y-86450000D01*
X110950000Y-90485000D02*
X112950000Y-88485000D01*
X108910000Y-96825000D02*
X110950000Y-94785000D01*
X98910000Y-96825000D02*
X108910000Y-96825000D01*
X130890000Y-84990000D02*
X130890000Y-82955000D01*
X129100000Y-92260000D02*
X126910000Y-94450000D01*
X116910000Y-94450000D02*
X126910000Y-94450000D01*
X130890000Y-84990000D02*
X129100000Y-86780000D01*
X129100000Y-86780000D02*
X129100000Y-92260000D01*
X134910000Y-96825000D02*
X144910000Y-96825000D01*
X167050000Y-94147828D02*
X167050000Y-93160000D01*
X167050000Y-93160000D02*
X167050000Y-91125000D01*
X163708327Y-97489501D02*
X167050000Y-94147828D01*
X153539501Y-97489501D02*
X163708327Y-97489501D01*
X144910000Y-96825000D02*
X152875000Y-96825000D01*
X152875000Y-96825000D02*
X153539501Y-97489501D01*
X152910000Y-99200000D02*
X162910000Y-99200000D01*
X148950000Y-99325000D02*
X148950000Y-101360000D01*
X129600000Y-99780000D02*
X139010000Y-109190000D01*
X140145000Y-84480000D02*
X138765000Y-83100000D01*
X134600000Y-83100000D02*
X129600000Y-88100000D01*
X129600000Y-88100000D02*
X129600000Y-99780000D01*
X138765000Y-83100000D02*
X134600000Y-83100000D01*
X141045000Y-84480000D02*
X140145000Y-84480000D01*
X143080000Y-84480000D02*
X141045000Y-84480000D01*
X129010000Y-109190000D02*
X139010000Y-109190000D01*
X130910000Y-97880000D02*
X130910000Y-95845000D01*
X152802073Y-113203577D02*
X159873142Y-113203577D01*
X134630000Y-101600000D02*
X141198496Y-101600000D01*
X130910000Y-97880000D02*
X134630000Y-101600000D01*
X150213883Y-110615387D02*
X152802073Y-113203577D01*
X141198496Y-101600000D02*
X150213883Y-110615387D01*
X166800000Y-114600000D02*
X156225000Y-104025000D01*
X127600000Y-100350000D02*
X114440000Y-100350000D01*
X144259892Y-104025000D02*
X140500892Y-100266000D01*
X166800000Y-114600000D02*
X166800000Y-119151024D01*
X166800000Y-119151024D02*
X168869103Y-121220127D01*
X113000000Y-98910000D02*
X113000000Y-96875000D01*
X135266000Y-100266000D02*
X135250000Y-100250000D01*
X173869103Y-116220127D02*
X168869103Y-121220127D01*
X156225000Y-104025000D02*
X144259892Y-104025000D01*
X173869103Y-112559873D02*
X173869103Y-116220127D01*
X114440000Y-100350000D02*
X113000000Y-98910000D01*
X140500892Y-100266000D02*
X135266000Y-100266000D01*
X177800000Y-83100000D02*
X177800000Y-83100000D01*
X184860000Y-60242000D02*
X184896400Y-60242000D01*
X186166400Y-61512000D02*
X183471000Y-61512000D01*
X184896400Y-60242000D02*
X186166400Y-61512000D01*
X182201000Y-62782000D02*
X169620000Y-62782000D01*
X183471000Y-61512000D02*
X182201000Y-62782000D01*
X173930000Y-86339220D02*
X174560780Y-86339220D01*
X169620000Y-62782000D02*
X169620000Y-65322000D01*
X174560780Y-86339220D02*
X177800000Y-83100000D01*
X177660000Y-86668120D02*
X177660000Y-96320000D01*
X176480000Y-86309620D02*
X177301500Y-86309620D01*
X181189991Y-67914379D02*
X183782370Y-65322000D01*
X181189990Y-84210010D02*
X181189991Y-67914379D01*
X178765618Y-85100000D02*
X180300000Y-85100000D01*
X183782370Y-65322000D02*
X184860000Y-65322000D01*
X177660000Y-86205618D02*
X178765618Y-85100000D01*
X177301500Y-86309620D02*
X177660000Y-86668120D01*
X180300000Y-85100000D02*
X181189990Y-84210010D01*
X177660000Y-86668120D02*
X177660000Y-86205618D01*
X177455002Y-66592000D02*
X179832000Y-68968998D01*
X179832000Y-68968998D02*
X179832000Y-69088000D01*
X170946400Y-66592000D02*
X177455002Y-66592000D01*
X177455002Y-69132000D02*
X179832000Y-71508998D01*
X179832000Y-71508998D02*
X179832000Y-71628000D01*
X170946400Y-69132000D02*
X177455002Y-69132000D01*
X170946400Y-71672000D02*
X177760264Y-71672000D01*
X179832000Y-73743736D02*
X179832000Y-74168000D01*
X177760264Y-71672000D02*
X179832000Y-73743736D01*
X170946400Y-74212000D02*
X177455002Y-74212000D01*
X177455002Y-74212000D02*
X179832000Y-76588998D01*
X179832000Y-76588998D02*
X179832000Y-76708000D01*
X179951002Y-79248000D02*
X179959000Y-79248000D01*
X170946400Y-76752000D02*
X177455002Y-76752000D01*
X177455002Y-76752000D02*
X179951002Y-79248000D01*
X170946400Y-79292000D02*
X177455002Y-79292000D01*
X179951002Y-81788000D02*
X179959000Y-81788000D01*
X177455002Y-79292000D02*
X179951002Y-81788000D01*
X182198000Y-57702000D02*
X183468000Y-56432000D01*
X169620000Y-57702000D02*
X182198000Y-57702000D01*
X183468000Y-56432000D02*
X186166400Y-56432000D01*
X186160000Y-96320000D02*
X187500000Y-94980000D01*
X183428000Y-58972000D02*
X186166400Y-58972000D01*
X184660000Y-96320000D02*
X186160000Y-96320000D01*
X187500000Y-94980000D02*
X187500000Y-60305600D01*
X169620000Y-60242000D02*
X182158000Y-60242000D01*
X187500000Y-60305600D02*
X186166400Y-58972000D01*
X182158000Y-60242000D02*
X183428000Y-58972000D01*
X179959000Y-84328000D02*
X179959000Y-84328000D01*
X184860000Y-62782000D02*
X180721000Y-66921000D01*
X180721000Y-66921000D02*
X180721000Y-83566000D01*
X180721000Y-83566000D02*
X179959000Y-84328000D01*
X182880000Y-89820000D02*
X182880000Y-85880000D01*
X182880000Y-85880000D02*
X182090010Y-85090010D01*
X180978000Y-90678000D02*
X182022000Y-90678000D01*
X180213000Y-86611120D02*
X180213000Y-89913000D01*
X179881500Y-86279620D02*
X180213000Y-86611120D01*
X182090010Y-85090010D02*
X182090010Y-70609990D01*
X180213000Y-89913000D02*
X180978000Y-90678000D01*
X182090010Y-70609990D02*
X183568000Y-69132000D01*
X183568000Y-69132000D02*
X186166400Y-69132000D01*
X169620000Y-70402000D02*
X177800000Y-70402000D01*
X182022000Y-90678000D02*
X182880000Y-89820000D01*
X179060000Y-86279620D02*
X179881500Y-86279620D01*
X183708000Y-66592000D02*
X181640000Y-68660000D01*
X169620000Y-67862000D02*
X177800000Y-67862000D01*
X181640000Y-68660000D02*
X181640000Y-86259620D01*
X186166400Y-66592000D02*
X183708000Y-66592000D01*
X173930000Y-87339980D02*
X173930000Y-89440000D01*
X176480000Y-87310380D02*
X176480000Y-89430000D01*
X176480000Y-89430000D02*
X176470000Y-89440000D01*
X181640000Y-87260380D02*
X181640000Y-89350000D01*
X181640000Y-89350000D02*
X181550000Y-89440000D01*
X179060000Y-87280380D02*
X179060000Y-89390000D01*
X179060000Y-89390000D02*
X179010000Y-89440000D01*
X75780000Y-69380000D02*
X76975000Y-68185000D01*
X76975000Y-68185000D02*
X76975000Y-66150000D01*
X62910000Y-69380000D02*
X72910000Y-69380000D01*
X72910000Y-69380000D02*
X75780000Y-69380000D01*
X73305000Y-85985000D02*
X72910000Y-86380000D01*
X76850000Y-85985000D02*
X73305000Y-85985000D01*
X62910000Y-86380000D02*
X72910000Y-86380000D01*
X76850000Y-85985000D02*
X76850000Y-83950000D01*
X72910000Y-103400000D02*
X76910000Y-103400000D01*
X76975000Y-103335000D02*
X76975000Y-101300000D01*
X76910000Y-103400000D02*
X76975000Y-103335000D01*
X62910000Y-103400000D02*
X72910000Y-103400000D01*
M02*
