G04 #@! TF.GenerationSoftware,KiCad,Pcbnew,(6.0.8-1)-1*
G04 #@! TF.CreationDate,2023-02-26T16:34:21+02:00*
G04 #@! TF.ProjectId,chococorne,63686f63-6f63-46f7-926e-652e6b696361,2.1*
G04 #@! TF.SameCoordinates,Original*
G04 #@! TF.FileFunction,Legend,Top*
G04 #@! TF.FilePolarity,Positive*
%FSLAX46Y46*%
G04 Gerber Fmt 4.6, Leading zero omitted, Abs format (unit mm)*
G04 Created by KiCad (PCBNEW (6.0.8-1)-1) date 2023-02-26 16:34:21*
%MOMM*%
%LPD*%
G01*
G04 APERTURE LIST*
%ADD10C,0.150000*%
%ADD11C,0.125000*%
%ADD12R,1.397000X1.397000*%
%ADD13C,1.397000*%
%ADD14C,1.200000*%
%ADD15O,2.500000X1.700000*%
%ADD16C,1.524000*%
%ADD17C,2.000000*%
G04 APERTURE END LIST*
D10*
X180962380Y-101181904D02*
X180962380Y-100610476D01*
X181962380Y-100896190D02*
X180962380Y-100896190D01*
X181962380Y-99705714D02*
X181486190Y-100039047D01*
X181962380Y-100277142D02*
X180962380Y-100277142D01*
X180962380Y-99896190D01*
X181010000Y-99800952D01*
X181057619Y-99753333D01*
X181152857Y-99705714D01*
X181295714Y-99705714D01*
X181390952Y-99753333D01*
X181438571Y-99800952D01*
X181486190Y-99896190D01*
X181486190Y-100277142D01*
X181962380Y-98705714D02*
X181486190Y-99039047D01*
X181962380Y-99277142D02*
X180962380Y-99277142D01*
X180962380Y-98896190D01*
X181010000Y-98800952D01*
X181057619Y-98753333D01*
X181152857Y-98705714D01*
X181295714Y-98705714D01*
X181390952Y-98753333D01*
X181438571Y-98800952D01*
X181486190Y-98896190D01*
X181486190Y-99277142D01*
X181914761Y-98324761D02*
X181962380Y-98181904D01*
X181962380Y-97943809D01*
X181914761Y-97848571D01*
X181867142Y-97800952D01*
X181771904Y-97753333D01*
X181676666Y-97753333D01*
X181581428Y-97800952D01*
X181533809Y-97848571D01*
X181486190Y-97943809D01*
X181438571Y-98134285D01*
X181390952Y-98229523D01*
X181343333Y-98277142D01*
X181248095Y-98324761D01*
X181152857Y-98324761D01*
X181057619Y-98277142D01*
X181010000Y-98229523D01*
X180962380Y-98134285D01*
X180962380Y-97896190D01*
X181010000Y-97753333D01*
D11*
X168062380Y-66877857D02*
X168038571Y-66913571D01*
X167967142Y-66949285D01*
X167919523Y-66949285D01*
X167848095Y-66913571D01*
X167800476Y-66842142D01*
X167776666Y-66770714D01*
X167752857Y-66627857D01*
X167752857Y-66520714D01*
X167776666Y-66377857D01*
X167800476Y-66306428D01*
X167848095Y-66235000D01*
X167919523Y-66199285D01*
X167967142Y-66199285D01*
X168038571Y-66235000D01*
X168062380Y-66270714D01*
X168371904Y-66199285D02*
X168467142Y-66199285D01*
X168514761Y-66235000D01*
X168562380Y-66306428D01*
X168586190Y-66449285D01*
X168586190Y-66699285D01*
X168562380Y-66842142D01*
X168514761Y-66913571D01*
X168467142Y-66949285D01*
X168371904Y-66949285D01*
X168324285Y-66913571D01*
X168276666Y-66842142D01*
X168252857Y-66699285D01*
X168252857Y-66449285D01*
X168276666Y-66306428D01*
X168324285Y-66235000D01*
X168371904Y-66199285D01*
X169038571Y-66949285D02*
X168800476Y-66949285D01*
X168800476Y-66199285D01*
X169300476Y-66199285D02*
X169348095Y-66199285D01*
X169395714Y-66235000D01*
X169419523Y-66270714D01*
X169443333Y-66342142D01*
X169467142Y-66485000D01*
X169467142Y-66663571D01*
X169443333Y-66806428D01*
X169419523Y-66877857D01*
X169395714Y-66913571D01*
X169348095Y-66949285D01*
X169300476Y-66949285D01*
X169252857Y-66913571D01*
X169229047Y-66877857D01*
X169205238Y-66806428D01*
X169181428Y-66663571D01*
X169181428Y-66485000D01*
X169205238Y-66342142D01*
X169229047Y-66270714D01*
X169252857Y-66235000D01*
X169300476Y-66199285D01*
X183688571Y-56771285D02*
X183450476Y-56771285D01*
X183450476Y-56021285D01*
X183855238Y-56378428D02*
X184021904Y-56378428D01*
X184093333Y-56771285D02*
X183855238Y-56771285D01*
X183855238Y-56021285D01*
X184093333Y-56021285D01*
X184307619Y-56771285D02*
X184307619Y-56021285D01*
X184426666Y-56021285D01*
X184498095Y-56057000D01*
X184545714Y-56128428D01*
X184569523Y-56199857D01*
X184593333Y-56342714D01*
X184593333Y-56449857D01*
X184569523Y-56592714D01*
X184545714Y-56664142D01*
X184498095Y-56735571D01*
X184426666Y-56771285D01*
X184307619Y-56771285D01*
X183590047Y-63740500D02*
X183542428Y-63704785D01*
X183471000Y-63704785D01*
X183399571Y-63740500D01*
X183351952Y-63811928D01*
X183328142Y-63883357D01*
X183304333Y-64026214D01*
X183304333Y-64133357D01*
X183328142Y-64276214D01*
X183351952Y-64347642D01*
X183399571Y-64419071D01*
X183471000Y-64454785D01*
X183518619Y-64454785D01*
X183590047Y-64419071D01*
X183613857Y-64383357D01*
X183613857Y-64133357D01*
X183518619Y-64133357D01*
X183828142Y-64454785D02*
X183828142Y-63704785D01*
X184113857Y-64454785D01*
X184113857Y-63704785D01*
X184351952Y-64454785D02*
X184351952Y-63704785D01*
X184471000Y-63704785D01*
X184542428Y-63740500D01*
X184590047Y-63811928D01*
X184613857Y-63883357D01*
X184637666Y-64026214D01*
X184637666Y-64133357D01*
X184613857Y-64276214D01*
X184590047Y-64347642D01*
X184542428Y-64419071D01*
X184471000Y-64454785D01*
X184351952Y-64454785D01*
X183079047Y-72049285D02*
X182912380Y-71692142D01*
X182793333Y-72049285D02*
X182793333Y-71299285D01*
X182983809Y-71299285D01*
X183031428Y-71335000D01*
X183055238Y-71370714D01*
X183079047Y-71442142D01*
X183079047Y-71549285D01*
X183055238Y-71620714D01*
X183031428Y-71656428D01*
X182983809Y-71692142D01*
X182793333Y-71692142D01*
X183388571Y-71299285D02*
X183483809Y-71299285D01*
X183531428Y-71335000D01*
X183579047Y-71406428D01*
X183602857Y-71549285D01*
X183602857Y-71799285D01*
X183579047Y-71942142D01*
X183531428Y-72013571D01*
X183483809Y-72049285D01*
X183388571Y-72049285D01*
X183340952Y-72013571D01*
X183293333Y-71942142D01*
X183269523Y-71799285D01*
X183269523Y-71549285D01*
X183293333Y-71406428D01*
X183340952Y-71335000D01*
X183388571Y-71299285D01*
X183769523Y-71299285D02*
X183888571Y-72049285D01*
X183983809Y-71513571D01*
X184079047Y-72049285D01*
X184198095Y-71299285D01*
X184483809Y-71299285D02*
X184531428Y-71299285D01*
X184579047Y-71335000D01*
X184602857Y-71370714D01*
X184626666Y-71442142D01*
X184650476Y-71585000D01*
X184650476Y-71763571D01*
X184626666Y-71906428D01*
X184602857Y-71977857D01*
X184579047Y-72013571D01*
X184531428Y-72049285D01*
X184483809Y-72049285D01*
X184436190Y-72013571D01*
X184412380Y-71977857D01*
X184388571Y-71906428D01*
X184364761Y-71763571D01*
X184364761Y-71585000D01*
X184388571Y-71442142D01*
X184412380Y-71370714D01*
X184436190Y-71335000D01*
X184483809Y-71299285D01*
X183110000Y-59299285D02*
X183110000Y-58549285D01*
X183229047Y-58549285D01*
X183300476Y-58585000D01*
X183348095Y-58656428D01*
X183371904Y-58727857D01*
X183395714Y-58870714D01*
X183395714Y-58977857D01*
X183371904Y-59120714D01*
X183348095Y-59192142D01*
X183300476Y-59263571D01*
X183229047Y-59299285D01*
X183110000Y-59299285D01*
X183586190Y-59085000D02*
X183824285Y-59085000D01*
X183538571Y-59299285D02*
X183705238Y-58549285D01*
X183871904Y-59299285D01*
X183967142Y-58549285D02*
X184252857Y-58549285D01*
X184110000Y-59299285D02*
X184110000Y-58549285D01*
X184395714Y-59085000D02*
X184633809Y-59085000D01*
X184348095Y-59299285D02*
X184514761Y-58549285D01*
X184681428Y-59299285D01*
X183079047Y-77099285D02*
X182912380Y-76742142D01*
X182793333Y-77099285D02*
X182793333Y-76349285D01*
X182983809Y-76349285D01*
X183031428Y-76385000D01*
X183055238Y-76420714D01*
X183079047Y-76492142D01*
X183079047Y-76599285D01*
X183055238Y-76670714D01*
X183031428Y-76706428D01*
X182983809Y-76742142D01*
X182793333Y-76742142D01*
X183388571Y-76349285D02*
X183483809Y-76349285D01*
X183531428Y-76385000D01*
X183579047Y-76456428D01*
X183602857Y-76599285D01*
X183602857Y-76849285D01*
X183579047Y-76992142D01*
X183531428Y-77063571D01*
X183483809Y-77099285D01*
X183388571Y-77099285D01*
X183340952Y-77063571D01*
X183293333Y-76992142D01*
X183269523Y-76849285D01*
X183269523Y-76599285D01*
X183293333Y-76456428D01*
X183340952Y-76385000D01*
X183388571Y-76349285D01*
X183769523Y-76349285D02*
X183888571Y-77099285D01*
X183983809Y-76563571D01*
X184079047Y-77099285D01*
X184198095Y-76349285D01*
X184364761Y-76420714D02*
X184388571Y-76385000D01*
X184436190Y-76349285D01*
X184555238Y-76349285D01*
X184602857Y-76385000D01*
X184626666Y-76420714D01*
X184650476Y-76492142D01*
X184650476Y-76563571D01*
X184626666Y-76670714D01*
X184340952Y-77099285D01*
X184650476Y-77099285D01*
X168112380Y-69399857D02*
X168088571Y-69435571D01*
X168017142Y-69471285D01*
X167969523Y-69471285D01*
X167898095Y-69435571D01*
X167850476Y-69364142D01*
X167826666Y-69292714D01*
X167802857Y-69149857D01*
X167802857Y-69042714D01*
X167826666Y-68899857D01*
X167850476Y-68828428D01*
X167898095Y-68757000D01*
X167969523Y-68721285D01*
X168017142Y-68721285D01*
X168088571Y-68757000D01*
X168112380Y-68792714D01*
X168421904Y-68721285D02*
X168517142Y-68721285D01*
X168564761Y-68757000D01*
X168612380Y-68828428D01*
X168636190Y-68971285D01*
X168636190Y-69221285D01*
X168612380Y-69364142D01*
X168564761Y-69435571D01*
X168517142Y-69471285D01*
X168421904Y-69471285D01*
X168374285Y-69435571D01*
X168326666Y-69364142D01*
X168302857Y-69221285D01*
X168302857Y-68971285D01*
X168326666Y-68828428D01*
X168374285Y-68757000D01*
X168421904Y-68721285D01*
X169088571Y-69471285D02*
X168850476Y-69471285D01*
X168850476Y-68721285D01*
X169517142Y-69471285D02*
X169231428Y-69471285D01*
X169374285Y-69471285D02*
X169374285Y-68721285D01*
X169326666Y-68828428D01*
X169279047Y-68899857D01*
X169231428Y-68935571D01*
X183375761Y-69435571D02*
X183447190Y-69471285D01*
X183566238Y-69471285D01*
X183613857Y-69435571D01*
X183637666Y-69399857D01*
X183661476Y-69328428D01*
X183661476Y-69257000D01*
X183637666Y-69185571D01*
X183613857Y-69149857D01*
X183566238Y-69114142D01*
X183471000Y-69078428D01*
X183423380Y-69042714D01*
X183399571Y-69007000D01*
X183375761Y-68935571D01*
X183375761Y-68864142D01*
X183399571Y-68792714D01*
X183423380Y-68757000D01*
X183471000Y-68721285D01*
X183590047Y-68721285D01*
X183661476Y-68757000D01*
X184161476Y-69399857D02*
X184137666Y-69435571D01*
X184066238Y-69471285D01*
X184018619Y-69471285D01*
X183947190Y-69435571D01*
X183899571Y-69364142D01*
X183875761Y-69292714D01*
X183851952Y-69149857D01*
X183851952Y-69042714D01*
X183875761Y-68899857D01*
X183899571Y-68828428D01*
X183947190Y-68757000D01*
X184018619Y-68721285D01*
X184066238Y-68721285D01*
X184137666Y-68757000D01*
X184161476Y-68792714D01*
X184613857Y-69471285D02*
X184375761Y-69471285D01*
X184375761Y-68721285D01*
X168012380Y-79623357D02*
X167988571Y-79659071D01*
X167917142Y-79694785D01*
X167869523Y-79694785D01*
X167798095Y-79659071D01*
X167750476Y-79587642D01*
X167726666Y-79516214D01*
X167702857Y-79373357D01*
X167702857Y-79266214D01*
X167726666Y-79123357D01*
X167750476Y-79051928D01*
X167798095Y-78980500D01*
X167869523Y-78944785D01*
X167917142Y-78944785D01*
X167988571Y-78980500D01*
X168012380Y-79016214D01*
X168321904Y-78944785D02*
X168417142Y-78944785D01*
X168464761Y-78980500D01*
X168512380Y-79051928D01*
X168536190Y-79194785D01*
X168536190Y-79444785D01*
X168512380Y-79587642D01*
X168464761Y-79659071D01*
X168417142Y-79694785D01*
X168321904Y-79694785D01*
X168274285Y-79659071D01*
X168226666Y-79587642D01*
X168202857Y-79444785D01*
X168202857Y-79194785D01*
X168226666Y-79051928D01*
X168274285Y-78980500D01*
X168321904Y-78944785D01*
X168988571Y-79694785D02*
X168750476Y-79694785D01*
X168750476Y-78944785D01*
X169393333Y-78944785D02*
X169155238Y-78944785D01*
X169131428Y-79301928D01*
X169155238Y-79266214D01*
X169202857Y-79230500D01*
X169321904Y-79230500D01*
X169369523Y-79266214D01*
X169393333Y-79301928D01*
X169417142Y-79373357D01*
X169417142Y-79551928D01*
X169393333Y-79623357D01*
X169369523Y-79659071D01*
X169321904Y-79694785D01*
X169202857Y-79694785D01*
X169155238Y-79659071D01*
X169131428Y-79623357D01*
X183590047Y-63740500D02*
X183542428Y-63704785D01*
X183471000Y-63704785D01*
X183399571Y-63740500D01*
X183351952Y-63811928D01*
X183328142Y-63883357D01*
X183304333Y-64026214D01*
X183304333Y-64133357D01*
X183328142Y-64276214D01*
X183351952Y-64347642D01*
X183399571Y-64419071D01*
X183471000Y-64454785D01*
X183518619Y-64454785D01*
X183590047Y-64419071D01*
X183613857Y-64383357D01*
X183613857Y-64133357D01*
X183518619Y-64133357D01*
X183828142Y-64454785D02*
X183828142Y-63704785D01*
X184113857Y-64454785D01*
X184113857Y-63704785D01*
X184351952Y-64454785D02*
X184351952Y-63704785D01*
X184471000Y-63704785D01*
X184542428Y-63740500D01*
X184590047Y-63811928D01*
X184613857Y-63883357D01*
X184637666Y-64026214D01*
X184637666Y-64133357D01*
X184613857Y-64276214D01*
X184590047Y-64347642D01*
X184542428Y-64419071D01*
X184471000Y-64454785D01*
X184351952Y-64454785D01*
X168357619Y-81806428D02*
X168429047Y-81842142D01*
X168452857Y-81877857D01*
X168476666Y-81949285D01*
X168476666Y-82056428D01*
X168452857Y-82127857D01*
X168429047Y-82163571D01*
X168381428Y-82199285D01*
X168190952Y-82199285D01*
X168190952Y-81449285D01*
X168357619Y-81449285D01*
X168405238Y-81485000D01*
X168429047Y-81520714D01*
X168452857Y-81592142D01*
X168452857Y-81663571D01*
X168429047Y-81735000D01*
X168405238Y-81770714D01*
X168357619Y-81806428D01*
X168190952Y-81806428D01*
X168667142Y-81520714D02*
X168690952Y-81485000D01*
X168738571Y-81449285D01*
X168857619Y-81449285D01*
X168905238Y-81485000D01*
X168929047Y-81520714D01*
X168952857Y-81592142D01*
X168952857Y-81663571D01*
X168929047Y-81770714D01*
X168643333Y-82199285D01*
X168952857Y-82199285D01*
X183507619Y-84381928D02*
X183579047Y-84417642D01*
X183602857Y-84453357D01*
X183626666Y-84524785D01*
X183626666Y-84631928D01*
X183602857Y-84703357D01*
X183579047Y-84739071D01*
X183531428Y-84774785D01*
X183340952Y-84774785D01*
X183340952Y-84024785D01*
X183507619Y-84024785D01*
X183555238Y-84060500D01*
X183579047Y-84096214D01*
X183602857Y-84167642D01*
X183602857Y-84239071D01*
X183579047Y-84310500D01*
X183555238Y-84346214D01*
X183507619Y-84381928D01*
X183340952Y-84381928D01*
X184079047Y-84024785D02*
X183840952Y-84024785D01*
X183817142Y-84381928D01*
X183840952Y-84346214D01*
X183888571Y-84310500D01*
X184007619Y-84310500D01*
X184055238Y-84346214D01*
X184079047Y-84381928D01*
X184102857Y-84453357D01*
X184102857Y-84631928D01*
X184079047Y-84703357D01*
X184055238Y-84739071D01*
X184007619Y-84774785D01*
X183888571Y-84774785D01*
X183840952Y-84739071D01*
X183817142Y-84703357D01*
X183129047Y-74551285D02*
X182962380Y-74194142D01*
X182843333Y-74551285D02*
X182843333Y-73801285D01*
X183033809Y-73801285D01*
X183081428Y-73837000D01*
X183105238Y-73872714D01*
X183129047Y-73944142D01*
X183129047Y-74051285D01*
X183105238Y-74122714D01*
X183081428Y-74158428D01*
X183033809Y-74194142D01*
X182843333Y-74194142D01*
X183438571Y-73801285D02*
X183533809Y-73801285D01*
X183581428Y-73837000D01*
X183629047Y-73908428D01*
X183652857Y-74051285D01*
X183652857Y-74301285D01*
X183629047Y-74444142D01*
X183581428Y-74515571D01*
X183533809Y-74551285D01*
X183438571Y-74551285D01*
X183390952Y-74515571D01*
X183343333Y-74444142D01*
X183319523Y-74301285D01*
X183319523Y-74051285D01*
X183343333Y-73908428D01*
X183390952Y-73837000D01*
X183438571Y-73801285D01*
X183819523Y-73801285D02*
X183938571Y-74551285D01*
X184033809Y-74015571D01*
X184129047Y-74551285D01*
X184248095Y-73801285D01*
X184700476Y-74551285D02*
X184414761Y-74551285D01*
X184557619Y-74551285D02*
X184557619Y-73801285D01*
X184510000Y-73908428D01*
X184462380Y-73979857D01*
X184414761Y-74015571D01*
X168520690Y-61914785D02*
X168354023Y-61557642D01*
X168234976Y-61914785D02*
X168234976Y-61164785D01*
X168425452Y-61164785D01*
X168473071Y-61200500D01*
X168496880Y-61236214D01*
X168520690Y-61307642D01*
X168520690Y-61414785D01*
X168496880Y-61486214D01*
X168473071Y-61521928D01*
X168425452Y-61557642D01*
X168234976Y-61557642D01*
X168711166Y-61879071D02*
X168782595Y-61914785D01*
X168901642Y-61914785D01*
X168949261Y-61879071D01*
X168973071Y-61843357D01*
X168996880Y-61771928D01*
X168996880Y-61700500D01*
X168973071Y-61629071D01*
X168949261Y-61593357D01*
X168901642Y-61557642D01*
X168806404Y-61521928D01*
X168758785Y-61486214D01*
X168734976Y-61450500D01*
X168711166Y-61379071D01*
X168711166Y-61307642D01*
X168734976Y-61236214D01*
X168758785Y-61200500D01*
X168806404Y-61164785D01*
X168925452Y-61164785D01*
X168996880Y-61200500D01*
X169139738Y-61164785D02*
X169425452Y-61164785D01*
X169282595Y-61914785D02*
X169282595Y-61164785D01*
X168449261Y-56771285D02*
X168282595Y-56414142D01*
X168163547Y-56771285D02*
X168163547Y-56021285D01*
X168354023Y-56021285D01*
X168401642Y-56057000D01*
X168425452Y-56092714D01*
X168449261Y-56164142D01*
X168449261Y-56271285D01*
X168425452Y-56342714D01*
X168401642Y-56378428D01*
X168354023Y-56414142D01*
X168163547Y-56414142D01*
X168639738Y-56557000D02*
X168877833Y-56557000D01*
X168592119Y-56771285D02*
X168758785Y-56021285D01*
X168925452Y-56771285D01*
X169044500Y-56021285D02*
X169163547Y-56771285D01*
X169258785Y-56235571D01*
X169354023Y-56771285D01*
X169473071Y-56021285D01*
X183507619Y-81778428D02*
X183579047Y-81814142D01*
X183602857Y-81849857D01*
X183626666Y-81921285D01*
X183626666Y-82028428D01*
X183602857Y-82099857D01*
X183579047Y-82135571D01*
X183531428Y-82171285D01*
X183340952Y-82171285D01*
X183340952Y-81421285D01*
X183507619Y-81421285D01*
X183555238Y-81457000D01*
X183579047Y-81492714D01*
X183602857Y-81564142D01*
X183602857Y-81635571D01*
X183579047Y-81707000D01*
X183555238Y-81742714D01*
X183507619Y-81778428D01*
X183340952Y-81778428D01*
X184055238Y-81671285D02*
X184055238Y-82171285D01*
X183936190Y-81385571D02*
X183817142Y-81921285D01*
X184126666Y-81921285D01*
X168127833Y-63641285D02*
X168294500Y-64391285D01*
X168461166Y-63641285D01*
X168913547Y-64319857D02*
X168889738Y-64355571D01*
X168818309Y-64391285D01*
X168770690Y-64391285D01*
X168699261Y-64355571D01*
X168651642Y-64284142D01*
X168627833Y-64212714D01*
X168604023Y-64069857D01*
X168604023Y-63962714D01*
X168627833Y-63819857D01*
X168651642Y-63748428D01*
X168699261Y-63677000D01*
X168770690Y-63641285D01*
X168818309Y-63641285D01*
X168889738Y-63677000D01*
X168913547Y-63712714D01*
X169413547Y-64319857D02*
X169389738Y-64355571D01*
X169318309Y-64391285D01*
X169270690Y-64391285D01*
X169199261Y-64355571D01*
X169151642Y-64284142D01*
X169127833Y-64212714D01*
X169104023Y-64069857D01*
X169104023Y-63962714D01*
X169127833Y-63819857D01*
X169151642Y-63748428D01*
X169199261Y-63677000D01*
X169270690Y-63641285D01*
X169318309Y-63641285D01*
X169389738Y-63677000D01*
X169413547Y-63712714D01*
X183079047Y-79694785D02*
X182912380Y-79337642D01*
X182793333Y-79694785D02*
X182793333Y-78944785D01*
X182983809Y-78944785D01*
X183031428Y-78980500D01*
X183055238Y-79016214D01*
X183079047Y-79087642D01*
X183079047Y-79194785D01*
X183055238Y-79266214D01*
X183031428Y-79301928D01*
X182983809Y-79337642D01*
X182793333Y-79337642D01*
X183388571Y-78944785D02*
X183483809Y-78944785D01*
X183531428Y-78980500D01*
X183579047Y-79051928D01*
X183602857Y-79194785D01*
X183602857Y-79444785D01*
X183579047Y-79587642D01*
X183531428Y-79659071D01*
X183483809Y-79694785D01*
X183388571Y-79694785D01*
X183340952Y-79659071D01*
X183293333Y-79587642D01*
X183269523Y-79444785D01*
X183269523Y-79194785D01*
X183293333Y-79051928D01*
X183340952Y-78980500D01*
X183388571Y-78944785D01*
X183769523Y-78944785D02*
X183888571Y-79694785D01*
X183983809Y-79159071D01*
X184079047Y-79694785D01*
X184198095Y-78944785D01*
X184340952Y-78944785D02*
X184650476Y-78944785D01*
X184483809Y-79230500D01*
X184555238Y-79230500D01*
X184602857Y-79266214D01*
X184626666Y-79301928D01*
X184650476Y-79373357D01*
X184650476Y-79551928D01*
X184626666Y-79623357D01*
X184602857Y-79659071D01*
X184555238Y-79694785D01*
X184412380Y-79694785D01*
X184364761Y-79659071D01*
X184340952Y-79623357D01*
X167962380Y-74527857D02*
X167938571Y-74563571D01*
X167867142Y-74599285D01*
X167819523Y-74599285D01*
X167748095Y-74563571D01*
X167700476Y-74492142D01*
X167676666Y-74420714D01*
X167652857Y-74277857D01*
X167652857Y-74170714D01*
X167676666Y-74027857D01*
X167700476Y-73956428D01*
X167748095Y-73885000D01*
X167819523Y-73849285D01*
X167867142Y-73849285D01*
X167938571Y-73885000D01*
X167962380Y-73920714D01*
X168271904Y-73849285D02*
X168367142Y-73849285D01*
X168414761Y-73885000D01*
X168462380Y-73956428D01*
X168486190Y-74099285D01*
X168486190Y-74349285D01*
X168462380Y-74492142D01*
X168414761Y-74563571D01*
X168367142Y-74599285D01*
X168271904Y-74599285D01*
X168224285Y-74563571D01*
X168176666Y-74492142D01*
X168152857Y-74349285D01*
X168152857Y-74099285D01*
X168176666Y-73956428D01*
X168224285Y-73885000D01*
X168271904Y-73849285D01*
X168938571Y-74599285D02*
X168700476Y-74599285D01*
X168700476Y-73849285D01*
X169057619Y-73849285D02*
X169367142Y-73849285D01*
X169200476Y-74135000D01*
X169271904Y-74135000D01*
X169319523Y-74170714D01*
X169343333Y-74206428D01*
X169367142Y-74277857D01*
X169367142Y-74456428D01*
X169343333Y-74527857D01*
X169319523Y-74563571D01*
X169271904Y-74599285D01*
X169129047Y-74599285D01*
X169081428Y-74563571D01*
X169057619Y-74527857D01*
X183363857Y-66895571D02*
X183435285Y-66931285D01*
X183554333Y-66931285D01*
X183601952Y-66895571D01*
X183625761Y-66859857D01*
X183649571Y-66788428D01*
X183649571Y-66717000D01*
X183625761Y-66645571D01*
X183601952Y-66609857D01*
X183554333Y-66574142D01*
X183459095Y-66538428D01*
X183411476Y-66502714D01*
X183387666Y-66467000D01*
X183363857Y-66395571D01*
X183363857Y-66324142D01*
X183387666Y-66252714D01*
X183411476Y-66217000D01*
X183459095Y-66181285D01*
X183578142Y-66181285D01*
X183649571Y-66217000D01*
X183863857Y-66931285D02*
X183863857Y-66181285D01*
X183982904Y-66181285D01*
X184054333Y-66217000D01*
X184101952Y-66288428D01*
X184125761Y-66359857D01*
X184149571Y-66502714D01*
X184149571Y-66609857D01*
X184125761Y-66752714D01*
X184101952Y-66824142D01*
X184054333Y-66895571D01*
X183982904Y-66931285D01*
X183863857Y-66931285D01*
X184340047Y-66717000D02*
X184578142Y-66717000D01*
X184292428Y-66931285D02*
X184459095Y-66181285D01*
X184625761Y-66931285D01*
X168062380Y-71939857D02*
X168038571Y-71975571D01*
X167967142Y-72011285D01*
X167919523Y-72011285D01*
X167848095Y-71975571D01*
X167800476Y-71904142D01*
X167776666Y-71832714D01*
X167752857Y-71689857D01*
X167752857Y-71582714D01*
X167776666Y-71439857D01*
X167800476Y-71368428D01*
X167848095Y-71297000D01*
X167919523Y-71261285D01*
X167967142Y-71261285D01*
X168038571Y-71297000D01*
X168062380Y-71332714D01*
X168371904Y-71261285D02*
X168467142Y-71261285D01*
X168514761Y-71297000D01*
X168562380Y-71368428D01*
X168586190Y-71511285D01*
X168586190Y-71761285D01*
X168562380Y-71904142D01*
X168514761Y-71975571D01*
X168467142Y-72011285D01*
X168371904Y-72011285D01*
X168324285Y-71975571D01*
X168276666Y-71904142D01*
X168252857Y-71761285D01*
X168252857Y-71511285D01*
X168276666Y-71368428D01*
X168324285Y-71297000D01*
X168371904Y-71261285D01*
X169038571Y-72011285D02*
X168800476Y-72011285D01*
X168800476Y-71261285D01*
X169181428Y-71332714D02*
X169205238Y-71297000D01*
X169252857Y-71261285D01*
X169371904Y-71261285D01*
X169419523Y-71297000D01*
X169443333Y-71332714D01*
X169467142Y-71404142D01*
X169467142Y-71475571D01*
X169443333Y-71582714D01*
X169157619Y-72011285D01*
X169467142Y-72011285D01*
X168012380Y-77027857D02*
X167988571Y-77063571D01*
X167917142Y-77099285D01*
X167869523Y-77099285D01*
X167798095Y-77063571D01*
X167750476Y-76992142D01*
X167726666Y-76920714D01*
X167702857Y-76777857D01*
X167702857Y-76670714D01*
X167726666Y-76527857D01*
X167750476Y-76456428D01*
X167798095Y-76385000D01*
X167869523Y-76349285D01*
X167917142Y-76349285D01*
X167988571Y-76385000D01*
X168012380Y-76420714D01*
X168321904Y-76349285D02*
X168417142Y-76349285D01*
X168464761Y-76385000D01*
X168512380Y-76456428D01*
X168536190Y-76599285D01*
X168536190Y-76849285D01*
X168512380Y-76992142D01*
X168464761Y-77063571D01*
X168417142Y-77099285D01*
X168321904Y-77099285D01*
X168274285Y-77063571D01*
X168226666Y-76992142D01*
X168202857Y-76849285D01*
X168202857Y-76599285D01*
X168226666Y-76456428D01*
X168274285Y-76385000D01*
X168321904Y-76349285D01*
X168988571Y-77099285D02*
X168750476Y-77099285D01*
X168750476Y-76349285D01*
X169369523Y-76599285D02*
X169369523Y-77099285D01*
X169250476Y-76313571D02*
X169131428Y-76849285D01*
X169440952Y-76849285D01*
X183653547Y-61200500D02*
X183605928Y-61164785D01*
X183534500Y-61164785D01*
X183463071Y-61200500D01*
X183415452Y-61271928D01*
X183391642Y-61343357D01*
X183367833Y-61486214D01*
X183367833Y-61593357D01*
X183391642Y-61736214D01*
X183415452Y-61807642D01*
X183463071Y-61879071D01*
X183534500Y-61914785D01*
X183582119Y-61914785D01*
X183653547Y-61879071D01*
X183677357Y-61843357D01*
X183677357Y-61593357D01*
X183582119Y-61593357D01*
X183891642Y-61914785D02*
X183891642Y-61164785D01*
X184177357Y-61914785D01*
X184177357Y-61164785D01*
X184415452Y-61914785D02*
X184415452Y-61164785D01*
X184534500Y-61164785D01*
X184605928Y-61200500D01*
X184653547Y-61271928D01*
X184677357Y-61343357D01*
X184701166Y-61486214D01*
X184701166Y-61593357D01*
X184677357Y-61736214D01*
X184653547Y-61807642D01*
X184605928Y-61879071D01*
X184534500Y-61914785D01*
X184415452Y-61914785D01*
X168257619Y-84356428D02*
X168329047Y-84392142D01*
X168352857Y-84427857D01*
X168376666Y-84499285D01*
X168376666Y-84606428D01*
X168352857Y-84677857D01*
X168329047Y-84713571D01*
X168281428Y-84749285D01*
X168090952Y-84749285D01*
X168090952Y-83999285D01*
X168257619Y-83999285D01*
X168305238Y-84035000D01*
X168329047Y-84070714D01*
X168352857Y-84142142D01*
X168352857Y-84213571D01*
X168329047Y-84285000D01*
X168305238Y-84320714D01*
X168257619Y-84356428D01*
X168090952Y-84356428D01*
X168805238Y-83999285D02*
X168710000Y-83999285D01*
X168662380Y-84035000D01*
X168638571Y-84070714D01*
X168590952Y-84177857D01*
X168567142Y-84320714D01*
X168567142Y-84606428D01*
X168590952Y-84677857D01*
X168614761Y-84713571D01*
X168662380Y-84749285D01*
X168757619Y-84749285D01*
X168805238Y-84713571D01*
X168829047Y-84677857D01*
X168852857Y-84606428D01*
X168852857Y-84427857D01*
X168829047Y-84356428D01*
X168805238Y-84320714D01*
X168757619Y-84285000D01*
X168662380Y-84285000D01*
X168614761Y-84320714D01*
X168590952Y-84356428D01*
X168567142Y-84427857D01*
D10*
X178624895Y-85069733D02*
X179437695Y-84798800D01*
X178624895Y-84527866D01*
X179360285Y-83792476D02*
X179398990Y-83831180D01*
X179437695Y-83947295D01*
X179437695Y-84024704D01*
X179398990Y-84140819D01*
X179321580Y-84218228D01*
X179244171Y-84256933D01*
X179089352Y-84295638D01*
X178973238Y-84295638D01*
X178818419Y-84256933D01*
X178741009Y-84218228D01*
X178663600Y-84140819D01*
X178624895Y-84024704D01*
X178624895Y-83947295D01*
X178663600Y-83831180D01*
X178702304Y-83792476D01*
X179360285Y-82979676D02*
X179398990Y-83018380D01*
X179437695Y-83134495D01*
X179437695Y-83211904D01*
X179398990Y-83328019D01*
X179321580Y-83405428D01*
X179244171Y-83444133D01*
X179089352Y-83482838D01*
X178973238Y-83482838D01*
X178818419Y-83444133D01*
X178741009Y-83405428D01*
X178663600Y-83328019D01*
X178624895Y-83211904D01*
X178624895Y-83134495D01*
X178663600Y-83018380D01*
X178702304Y-82979676D01*
X176277619Y-86792380D02*
X176468095Y-86792380D01*
X176563333Y-86840000D01*
X176658571Y-86935238D01*
X176706190Y-87125714D01*
X176706190Y-87459047D01*
X176658571Y-87649523D01*
X176563333Y-87744761D01*
X176468095Y-87792380D01*
X176277619Y-87792380D01*
X176182380Y-87744761D01*
X176087142Y-87649523D01*
X176039523Y-87459047D01*
X176039523Y-87125714D01*
X176087142Y-86935238D01*
X176182380Y-86840000D01*
X176277619Y-86792380D01*
X177610952Y-87792380D02*
X177134761Y-87792380D01*
X177134761Y-86792380D01*
X177944285Y-87268571D02*
X178277619Y-87268571D01*
X178420476Y-87792380D02*
X177944285Y-87792380D01*
X177944285Y-86792380D01*
X178420476Y-86792380D01*
X178849047Y-87792380D02*
X178849047Y-86792380D01*
X179087142Y-86792380D01*
X179230000Y-86840000D01*
X179325238Y-86935238D01*
X179372857Y-87030476D01*
X179420476Y-87220952D01*
X179420476Y-87363809D01*
X179372857Y-87554285D01*
X179325238Y-87649523D01*
X179230000Y-87744761D01*
X179087142Y-87792380D01*
X178849047Y-87792380D01*
X176798990Y-84973619D02*
X176837695Y-84857504D01*
X176837695Y-84663980D01*
X176798990Y-84586571D01*
X176760285Y-84547866D01*
X176682876Y-84509161D01*
X176605466Y-84509161D01*
X176528057Y-84547866D01*
X176489352Y-84586571D01*
X176450647Y-84663980D01*
X176411942Y-84818800D01*
X176373238Y-84896209D01*
X176334533Y-84934914D01*
X176257123Y-84973619D01*
X176179714Y-84973619D01*
X176102304Y-84934914D01*
X176063600Y-84896209D01*
X176024895Y-84818800D01*
X176024895Y-84625276D01*
X176063600Y-84509161D01*
X176760285Y-83696361D02*
X176798990Y-83735066D01*
X176837695Y-83851180D01*
X176837695Y-83928590D01*
X176798990Y-84044704D01*
X176721580Y-84122114D01*
X176644171Y-84160819D01*
X176489352Y-84199523D01*
X176373238Y-84199523D01*
X176218419Y-84160819D01*
X176141009Y-84122114D01*
X176063600Y-84044704D01*
X176024895Y-83928590D01*
X176024895Y-83851180D01*
X176063600Y-83735066D01*
X176102304Y-83696361D01*
X176837695Y-82960971D02*
X176837695Y-83348019D01*
X176024895Y-83348019D01*
X174258990Y-84713333D02*
X174297695Y-84597219D01*
X174297695Y-84403695D01*
X174258990Y-84326285D01*
X174220285Y-84287580D01*
X174142876Y-84248876D01*
X174065466Y-84248876D01*
X173988057Y-84287580D01*
X173949352Y-84326285D01*
X173910647Y-84403695D01*
X173871942Y-84558514D01*
X173833238Y-84635923D01*
X173794533Y-84674628D01*
X173717123Y-84713333D01*
X173639714Y-84713333D01*
X173562304Y-84674628D01*
X173523600Y-84635923D01*
X173484895Y-84558514D01*
X173484895Y-84364990D01*
X173523600Y-84248876D01*
X174297695Y-83900533D02*
X173484895Y-83900533D01*
X173484895Y-83707009D01*
X173523600Y-83590895D01*
X173601009Y-83513485D01*
X173678419Y-83474780D01*
X173833238Y-83436076D01*
X173949352Y-83436076D01*
X174104171Y-83474780D01*
X174181580Y-83513485D01*
X174258990Y-83590895D01*
X174297695Y-83707009D01*
X174297695Y-83900533D01*
X174065466Y-83126438D02*
X174065466Y-82739390D01*
X174297695Y-83203847D02*
X173484895Y-82932914D01*
X174297695Y-82661980D01*
X181233600Y-84595676D02*
X181194895Y-84673085D01*
X181194895Y-84789200D01*
X181233600Y-84905314D01*
X181311009Y-84982723D01*
X181388419Y-85021428D01*
X181543238Y-85060133D01*
X181659352Y-85060133D01*
X181814171Y-85021428D01*
X181891580Y-84982723D01*
X181968990Y-84905314D01*
X182007695Y-84789200D01*
X182007695Y-84711790D01*
X181968990Y-84595676D01*
X181930285Y-84556971D01*
X181659352Y-84556971D01*
X181659352Y-84711790D01*
X182007695Y-84208628D02*
X181194895Y-84208628D01*
X182007695Y-83744171D01*
X181194895Y-83744171D01*
X182007695Y-83357123D02*
X181194895Y-83357123D01*
X181194895Y-83163600D01*
X181233600Y-83047485D01*
X181311009Y-82970076D01*
X181388419Y-82931371D01*
X181543238Y-82892666D01*
X181659352Y-82892666D01*
X181814171Y-82931371D01*
X181891580Y-82970076D01*
X181968990Y-83047485D01*
X182007695Y-83163600D01*
X182007695Y-83357123D01*
X186482380Y-92382380D02*
X186006190Y-92715714D01*
X186482380Y-92953809D02*
X185482380Y-92953809D01*
X185482380Y-92572857D01*
X185530000Y-92477619D01*
X185577619Y-92430000D01*
X185672857Y-92382380D01*
X185815714Y-92382380D01*
X185910952Y-92430000D01*
X185958571Y-92477619D01*
X186006190Y-92572857D01*
X186006190Y-92953809D01*
X185958571Y-91953809D02*
X185958571Y-91620476D01*
X186482380Y-91477619D02*
X186482380Y-91953809D01*
X185482380Y-91953809D01*
X185482380Y-91477619D01*
X186434761Y-91096666D02*
X186482380Y-90953809D01*
X186482380Y-90715714D01*
X186434761Y-90620476D01*
X186387142Y-90572857D01*
X186291904Y-90525238D01*
X186196666Y-90525238D01*
X186101428Y-90572857D01*
X186053809Y-90620476D01*
X186006190Y-90715714D01*
X185958571Y-90906190D01*
X185910952Y-91001428D01*
X185863333Y-91049047D01*
X185768095Y-91096666D01*
X185672857Y-91096666D01*
X185577619Y-91049047D01*
X185530000Y-91001428D01*
X185482380Y-90906190D01*
X185482380Y-90668095D01*
X185530000Y-90525238D01*
X185958571Y-90096666D02*
X185958571Y-89763333D01*
X186482380Y-89620476D02*
X186482380Y-90096666D01*
X185482380Y-90096666D01*
X185482380Y-89620476D01*
X185482380Y-89334761D02*
X185482380Y-88763333D01*
X186482380Y-89049047D02*
X185482380Y-89049047D01*
X148334523Y-65377380D02*
X148334523Y-64377380D01*
X148763095Y-65377380D02*
X148763095Y-64853571D01*
X148715476Y-64758333D01*
X148620238Y-64710714D01*
X148477380Y-64710714D01*
X148382142Y-64758333D01*
X148334523Y-64805952D01*
X149191666Y-64472619D02*
X149239285Y-64425000D01*
X149334523Y-64377380D01*
X149572619Y-64377380D01*
X149667857Y-64425000D01*
X149715476Y-64472619D01*
X149763095Y-64567857D01*
X149763095Y-64663095D01*
X149715476Y-64805952D01*
X149144047Y-65377380D01*
X149763095Y-65377380D01*
X76179523Y-71402380D02*
X76179523Y-70402380D01*
X76608095Y-71402380D02*
X76608095Y-70878571D01*
X76560476Y-70783333D01*
X76465238Y-70735714D01*
X76322380Y-70735714D01*
X76227142Y-70783333D01*
X76179523Y-70830952D01*
X77036666Y-70497619D02*
X77084285Y-70450000D01*
X77179523Y-70402380D01*
X77417619Y-70402380D01*
X77512857Y-70450000D01*
X77560476Y-70497619D01*
X77608095Y-70592857D01*
X77608095Y-70688095D01*
X77560476Y-70830952D01*
X76989047Y-71402380D01*
X77608095Y-71402380D01*
X117129523Y-101902380D02*
X117129523Y-100902380D01*
X117558095Y-101902380D02*
X117558095Y-101378571D01*
X117510476Y-101283333D01*
X117415238Y-101235714D01*
X117272380Y-101235714D01*
X117177142Y-101283333D01*
X117129523Y-101330952D01*
X117986666Y-100997619D02*
X118034285Y-100950000D01*
X118129523Y-100902380D01*
X118367619Y-100902380D01*
X118462857Y-100950000D01*
X118510476Y-100997619D01*
X118558095Y-101092857D01*
X118558095Y-101188095D01*
X118510476Y-101330952D01*
X117939047Y-101902380D01*
X118558095Y-101902380D01*
X166449523Y-106452380D02*
X166449523Y-105452380D01*
X166878095Y-106452380D02*
X166878095Y-105928571D01*
X166830476Y-105833333D01*
X166735238Y-105785714D01*
X166592380Y-105785714D01*
X166497142Y-105833333D01*
X166449523Y-105880952D01*
X167306666Y-105547619D02*
X167354285Y-105500000D01*
X167449523Y-105452380D01*
X167687619Y-105452380D01*
X167782857Y-105500000D01*
X167830476Y-105547619D01*
X167878095Y-105642857D01*
X167878095Y-105738095D01*
X167830476Y-105880952D01*
X167259047Y-106452380D01*
X167878095Y-106452380D01*
X76179523Y-88542380D02*
X76179523Y-87542380D01*
X76608095Y-88542380D02*
X76608095Y-88018571D01*
X76560476Y-87923333D01*
X76465238Y-87875714D01*
X76322380Y-87875714D01*
X76227142Y-87923333D01*
X76179523Y-87970952D01*
X77036666Y-87637619D02*
X77084285Y-87590000D01*
X77179523Y-87542380D01*
X77417619Y-87542380D01*
X77512857Y-87590000D01*
X77560476Y-87637619D01*
X77608095Y-87732857D01*
X77608095Y-87828095D01*
X77560476Y-87970952D01*
X76989047Y-88542380D01*
X77608095Y-88542380D01*
X94000000Y-66740000D02*
X95500000Y-66740000D01*
X95250000Y-64540000D02*
X94250000Y-64540000D01*
X94750000Y-63640000D02*
X95250000Y-64540000D01*
X94250000Y-64540000D02*
X94750000Y-63640000D01*
X94000000Y-61340000D02*
X94000000Y-66740000D01*
X95500000Y-66740000D02*
X95500000Y-61340000D01*
X95250000Y-63540000D02*
X94250000Y-63540000D01*
X95500000Y-61340000D02*
X94000000Y-61340000D01*
X113530000Y-55380000D02*
X112530000Y-55380000D01*
X112280000Y-58580000D02*
X113780000Y-58580000D01*
X113780000Y-58580000D02*
X113780000Y-53180000D01*
X113530000Y-56380000D02*
X112530000Y-56380000D01*
X112280000Y-53180000D02*
X112280000Y-58580000D01*
X113780000Y-53180000D02*
X112280000Y-53180000D01*
X112530000Y-56380000D02*
X113030000Y-55480000D01*
X113030000Y-55480000D02*
X113530000Y-56380000D01*
X130310000Y-56380000D02*
X130810000Y-55480000D01*
X130060000Y-58580000D02*
X131560000Y-58580000D01*
X130810000Y-55480000D02*
X131310000Y-56380000D01*
X131310000Y-55380000D02*
X130310000Y-55380000D01*
X131560000Y-53180000D02*
X130060000Y-53180000D01*
X130060000Y-53180000D02*
X130060000Y-58580000D01*
X131560000Y-58580000D02*
X131560000Y-53180000D01*
X131310000Y-56380000D02*
X130310000Y-56380000D01*
X149525000Y-58825000D02*
X149525000Y-53425000D01*
X148025000Y-53425000D02*
X148025000Y-58825000D01*
X148025000Y-58825000D02*
X149525000Y-58825000D01*
X148275000Y-56625000D02*
X148775000Y-55725000D01*
X149275000Y-56625000D02*
X148275000Y-56625000D01*
X149525000Y-53425000D02*
X148025000Y-53425000D01*
X149275000Y-55625000D02*
X148275000Y-55625000D01*
X148775000Y-55725000D02*
X149275000Y-56625000D01*
X149350000Y-77525000D02*
X148350000Y-77525000D01*
X148850000Y-76625000D02*
X149350000Y-77525000D01*
X149600000Y-74325000D02*
X148100000Y-74325000D01*
X148350000Y-77525000D02*
X148850000Y-76625000D01*
X149600000Y-79725000D02*
X149600000Y-74325000D01*
X148100000Y-74325000D02*
X148100000Y-79725000D01*
X148100000Y-79725000D02*
X149600000Y-79725000D01*
X149350000Y-76525000D02*
X148350000Y-76525000D01*
X94980000Y-76140000D02*
X95480000Y-77040000D01*
X94230000Y-73840000D02*
X94230000Y-79240000D01*
X95480000Y-77040000D02*
X94480000Y-77040000D01*
X95730000Y-79240000D02*
X95730000Y-73840000D01*
X95730000Y-73840000D02*
X94230000Y-73840000D01*
X94480000Y-77040000D02*
X94980000Y-76140000D01*
X94230000Y-79240000D02*
X95730000Y-79240000D01*
X95480000Y-76040000D02*
X94480000Y-76040000D01*
X112530000Y-74525000D02*
X113030000Y-73625000D01*
X113530000Y-73525000D02*
X112530000Y-73525000D01*
X112280000Y-76725000D02*
X113780000Y-76725000D01*
X113780000Y-71325000D02*
X112280000Y-71325000D01*
X112280000Y-71325000D02*
X112280000Y-76725000D01*
X113030000Y-73625000D02*
X113530000Y-74525000D01*
X113780000Y-76725000D02*
X113780000Y-71325000D01*
X113530000Y-74525000D02*
X112530000Y-74525000D01*
X130420000Y-68860000D02*
X130920000Y-67960000D01*
X131670000Y-71060000D02*
X131670000Y-65660000D01*
X131670000Y-65660000D02*
X130170000Y-65660000D01*
X131420000Y-67860000D02*
X130420000Y-67860000D01*
X130170000Y-71060000D02*
X131670000Y-71060000D01*
X130920000Y-67960000D02*
X131420000Y-68860000D01*
X130170000Y-65660000D02*
X130170000Y-71060000D01*
X131420000Y-68860000D02*
X130420000Y-68860000D01*
X167325000Y-58475000D02*
X166325000Y-58475000D01*
X166075000Y-56275000D02*
X166075000Y-61675000D01*
X166075000Y-61675000D02*
X167575000Y-61675000D01*
X166325000Y-59475000D02*
X166825000Y-58575000D01*
X167575000Y-56275000D02*
X166075000Y-56275000D01*
X167325000Y-59475000D02*
X166325000Y-59475000D01*
X167575000Y-61675000D02*
X167575000Y-56275000D01*
X166825000Y-58575000D02*
X167325000Y-59475000D01*
X148125000Y-85000000D02*
X148125000Y-90400000D01*
X149625000Y-85000000D02*
X148125000Y-85000000D01*
X148875000Y-87300000D02*
X149375000Y-88200000D01*
X148375000Y-88200000D02*
X148875000Y-87300000D01*
X149375000Y-87200000D02*
X148375000Y-87200000D01*
X149375000Y-88200000D02*
X148375000Y-88200000D01*
X149625000Y-90400000D02*
X149625000Y-85000000D01*
X148125000Y-90400000D02*
X149625000Y-90400000D01*
X95230000Y-97175000D02*
X95230000Y-91775000D01*
X94480000Y-94075000D02*
X94980000Y-94975000D01*
X93980000Y-94975000D02*
X94480000Y-94075000D01*
X93730000Y-97175000D02*
X95230000Y-97175000D01*
X94980000Y-93975000D02*
X93980000Y-93975000D01*
X93730000Y-91775000D02*
X93730000Y-97175000D01*
X94980000Y-94975000D02*
X93980000Y-94975000D01*
X95230000Y-91775000D02*
X93730000Y-91775000D01*
X112200000Y-81975000D02*
X112200000Y-87375000D01*
X112450000Y-85175000D02*
X112950000Y-84275000D01*
X112200000Y-87375000D02*
X113700000Y-87375000D01*
X113450000Y-84175000D02*
X112450000Y-84175000D01*
X113700000Y-81975000D02*
X112200000Y-81975000D01*
X112950000Y-84275000D02*
X113450000Y-85175000D01*
X113700000Y-87375000D02*
X113700000Y-81975000D01*
X113450000Y-85175000D02*
X112450000Y-85175000D01*
X131640000Y-78480000D02*
X130140000Y-78480000D01*
X131390000Y-80680000D02*
X130390000Y-80680000D01*
X131640000Y-83880000D02*
X131640000Y-78480000D01*
X130140000Y-83880000D02*
X131640000Y-83880000D01*
X130140000Y-78480000D02*
X130140000Y-83880000D01*
X130390000Y-81680000D02*
X130890000Y-80780000D01*
X130890000Y-80780000D02*
X131390000Y-81680000D01*
X131390000Y-81680000D02*
X130390000Y-81680000D01*
X167800000Y-86650000D02*
X166300000Y-86650000D01*
X166300000Y-86650000D02*
X166300000Y-92050000D01*
X166550000Y-89850000D02*
X167050000Y-88950000D01*
X167550000Y-89850000D02*
X166550000Y-89850000D01*
X166300000Y-92050000D02*
X167800000Y-92050000D01*
X167800000Y-92050000D02*
X167800000Y-86650000D01*
X167050000Y-88950000D02*
X167550000Y-89850000D01*
X167550000Y-88850000D02*
X166550000Y-88850000D01*
X149700000Y-94850000D02*
X148200000Y-94850000D01*
X149450000Y-97050000D02*
X148450000Y-97050000D01*
X148200000Y-100250000D02*
X149700000Y-100250000D01*
X148450000Y-98050000D02*
X148950000Y-97150000D01*
X148950000Y-97150000D02*
X149450000Y-98050000D01*
X148200000Y-94850000D02*
X148200000Y-100250000D01*
X149450000Y-98050000D02*
X148450000Y-98050000D01*
X149700000Y-100250000D02*
X149700000Y-94850000D01*
X139770000Y-84980000D02*
X138870000Y-84480000D01*
X139770000Y-83980000D02*
X139770000Y-84980000D01*
X141970000Y-85230000D02*
X141970000Y-83730000D01*
X141970000Y-83730000D02*
X136570000Y-83730000D01*
X136570000Y-85230000D02*
X141970000Y-85230000D01*
X138770000Y-83980000D02*
X138770000Y-84980000D01*
X138870000Y-84480000D02*
X139770000Y-83980000D01*
X136570000Y-83730000D02*
X136570000Y-85230000D01*
X130410000Y-94570000D02*
X130910000Y-93670000D01*
X131660000Y-91370000D02*
X130160000Y-91370000D01*
X130160000Y-91370000D02*
X130160000Y-96770000D01*
X130910000Y-93670000D02*
X131410000Y-94570000D01*
X130160000Y-96770000D02*
X131660000Y-96770000D01*
X131410000Y-94570000D02*
X130410000Y-94570000D01*
X131410000Y-93570000D02*
X130410000Y-93570000D01*
X131660000Y-96770000D02*
X131660000Y-91370000D01*
X113500000Y-94600000D02*
X112500000Y-94600000D01*
X113500000Y-95600000D02*
X112500000Y-95600000D01*
X113750000Y-92400000D02*
X112250000Y-92400000D01*
X112250000Y-92400000D02*
X112250000Y-97800000D01*
X112250000Y-97800000D02*
X113750000Y-97800000D01*
X113000000Y-94700000D02*
X113500000Y-95600000D01*
X112500000Y-95600000D02*
X113000000Y-94700000D01*
X113750000Y-97800000D02*
X113750000Y-92400000D01*
X175960000Y-97170000D02*
X187960000Y-97170000D01*
X187960000Y-103170000D02*
X175960000Y-103170000D01*
X175960000Y-103170000D02*
X175960000Y-97170000D01*
X187960000Y-97170000D02*
X187960000Y-103170000D01*
X79910000Y-72580000D02*
X78910000Y-72580000D01*
X78910000Y-59580000D02*
X78910000Y-58580000D01*
X91910000Y-58580000D02*
X92910000Y-58580000D01*
X92910000Y-71580000D02*
X92910000Y-72580000D01*
X92910000Y-72580000D02*
X91910000Y-72580000D01*
X78910000Y-72580000D02*
X78910000Y-71580000D01*
X92910000Y-58580000D02*
X92910000Y-59580000D01*
X78910000Y-58580000D02*
X79910000Y-58580000D01*
X96910000Y-66020000D02*
X96910000Y-65020000D01*
X97910000Y-66020000D02*
X96910000Y-66020000D01*
X96910000Y-52020000D02*
X97910000Y-52020000D01*
X109910000Y-52020000D02*
X110910000Y-52020000D01*
X96910000Y-53020000D02*
X96910000Y-52020000D01*
X110910000Y-66020000D02*
X109910000Y-66020000D01*
X110910000Y-65020000D02*
X110910000Y-66020000D01*
X110910000Y-52020000D02*
X110910000Y-53020000D01*
X115910000Y-63660000D02*
X114910000Y-63660000D01*
X128910000Y-62660000D02*
X128910000Y-63660000D01*
X127910000Y-49660000D02*
X128910000Y-49660000D01*
X128910000Y-63660000D02*
X127910000Y-63660000D01*
X114910000Y-50660000D02*
X114910000Y-49660000D01*
X128910000Y-49660000D02*
X128910000Y-50660000D01*
X114910000Y-63660000D02*
X114910000Y-62660000D01*
X114910000Y-49660000D02*
X115910000Y-49660000D01*
X145910000Y-52020000D02*
X146910000Y-52020000D01*
X132910000Y-52020000D02*
X133910000Y-52020000D01*
X146910000Y-65020000D02*
X146910000Y-66020000D01*
X146910000Y-52020000D02*
X146910000Y-53020000D01*
X133910000Y-66020000D02*
X132910000Y-66020000D01*
X132910000Y-53020000D02*
X132910000Y-52020000D01*
X146910000Y-66020000D02*
X145910000Y-66020000D01*
X132910000Y-66020000D02*
X132910000Y-65020000D01*
X164910000Y-68400000D02*
X163910000Y-68400000D01*
X164910000Y-67400000D02*
X164910000Y-68400000D01*
X163910000Y-54400000D02*
X164910000Y-54400000D01*
X150910000Y-54400000D02*
X151910000Y-54400000D01*
X150910000Y-55400000D02*
X150910000Y-54400000D01*
X151910000Y-68400000D02*
X150910000Y-68400000D01*
X164910000Y-54400000D02*
X164910000Y-55400000D01*
X150910000Y-68400000D02*
X150910000Y-67400000D01*
X92910000Y-89580000D02*
X91910000Y-89580000D01*
X78910000Y-76580000D02*
X78910000Y-75580000D01*
X92910000Y-75580000D02*
X92910000Y-76580000D01*
X91910000Y-75580000D02*
X92910000Y-75580000D01*
X78910000Y-75580000D02*
X79910000Y-75580000D01*
X79910000Y-89580000D02*
X78910000Y-89580000D01*
X78910000Y-89580000D02*
X78910000Y-88580000D01*
X92910000Y-88580000D02*
X92910000Y-89580000D01*
X110910000Y-69020000D02*
X110910000Y-70020000D01*
X109910000Y-69020000D02*
X110910000Y-69020000D01*
X96910000Y-83020000D02*
X96910000Y-82020000D01*
X110910000Y-83020000D02*
X109910000Y-83020000D01*
X96910000Y-69020000D02*
X97910000Y-69020000D01*
X96910000Y-70020000D02*
X96910000Y-69020000D01*
X110910000Y-82020000D02*
X110910000Y-83020000D01*
X97910000Y-83020000D02*
X96910000Y-83020000D01*
X114910000Y-67650000D02*
X114910000Y-66650000D01*
X128910000Y-80650000D02*
X127910000Y-80650000D01*
X127910000Y-66650000D02*
X128910000Y-66650000D01*
X128910000Y-66650000D02*
X128910000Y-67650000D01*
X114910000Y-80650000D02*
X114910000Y-79650000D01*
X115910000Y-80650000D02*
X114910000Y-80650000D01*
X128910000Y-79650000D02*
X128910000Y-80650000D01*
X114910000Y-66650000D02*
X115910000Y-66650000D01*
X133910000Y-83020000D02*
X132910000Y-83020000D01*
X146910000Y-69020000D02*
X146910000Y-70020000D01*
X146910000Y-83020000D02*
X145910000Y-83020000D01*
X132910000Y-69020000D02*
X133910000Y-69020000D01*
X145910000Y-69020000D02*
X146910000Y-69020000D01*
X146910000Y-82020000D02*
X146910000Y-83020000D01*
X132910000Y-70020000D02*
X132910000Y-69020000D01*
X132910000Y-83020000D02*
X132910000Y-82020000D01*
X150910000Y-85400000D02*
X150910000Y-84400000D01*
X163910000Y-71400000D02*
X164910000Y-71400000D01*
X150910000Y-72400000D02*
X150910000Y-71400000D01*
X164910000Y-84400000D02*
X164910000Y-85400000D01*
X151910000Y-85400000D02*
X150910000Y-85400000D01*
X150910000Y-71400000D02*
X151910000Y-71400000D01*
X164910000Y-71400000D02*
X164910000Y-72400000D01*
X164910000Y-85400000D02*
X163910000Y-85400000D01*
X91910000Y-92585000D02*
X92910000Y-92585000D01*
X78910000Y-93585000D02*
X78910000Y-92585000D01*
X78910000Y-92585000D02*
X79910000Y-92585000D01*
X78910000Y-106585000D02*
X78910000Y-105585000D01*
X92910000Y-106585000D02*
X91910000Y-106585000D01*
X79910000Y-106585000D02*
X78910000Y-106585000D01*
X92910000Y-92585000D02*
X92910000Y-93585000D01*
X92910000Y-105585000D02*
X92910000Y-106585000D01*
X110910000Y-99025000D02*
X110910000Y-100025000D01*
X96910000Y-87025000D02*
X96910000Y-86025000D01*
X97910000Y-100025000D02*
X96910000Y-100025000D01*
X109910000Y-86025000D02*
X110910000Y-86025000D01*
X96910000Y-86025000D02*
X97910000Y-86025000D01*
X96910000Y-100025000D02*
X96910000Y-99025000D01*
X110910000Y-86025000D02*
X110910000Y-87025000D01*
X110910000Y-100025000D02*
X109910000Y-100025000D01*
X114910000Y-83650000D02*
X115910000Y-83650000D01*
X128910000Y-83650000D02*
X128910000Y-84650000D01*
X115910000Y-97650000D02*
X114910000Y-97650000D01*
X114910000Y-97650000D02*
X114910000Y-96650000D01*
X127910000Y-83650000D02*
X128910000Y-83650000D01*
X128910000Y-97650000D02*
X127910000Y-97650000D01*
X114910000Y-84650000D02*
X114910000Y-83650000D01*
X128910000Y-96650000D02*
X128910000Y-97650000D01*
X132910000Y-87025000D02*
X132910000Y-86025000D01*
X146910000Y-100025000D02*
X145910000Y-100025000D01*
X132910000Y-100025000D02*
X132910000Y-99025000D01*
X133910000Y-100025000D02*
X132910000Y-100025000D01*
X145910000Y-86025000D02*
X146910000Y-86025000D01*
X146910000Y-86025000D02*
X146910000Y-87025000D01*
X132910000Y-86025000D02*
X133910000Y-86025000D01*
X146910000Y-99025000D02*
X146910000Y-100025000D01*
X164910000Y-101400000D02*
X164910000Y-102400000D01*
X150910000Y-102400000D02*
X150910000Y-101400000D01*
X164910000Y-88400000D02*
X164910000Y-89400000D01*
X151910000Y-102400000D02*
X150910000Y-102400000D01*
X164910000Y-102400000D02*
X163910000Y-102400000D01*
X150910000Y-89400000D02*
X150910000Y-88400000D01*
X163910000Y-88400000D02*
X164910000Y-88400000D01*
X150910000Y-88400000D02*
X151910000Y-88400000D01*
X127010000Y-105990000D02*
X128010000Y-105990000D01*
X141010000Y-118990000D02*
X141010000Y-119990000D01*
X140010000Y-105990000D02*
X141010000Y-105990000D01*
X141010000Y-119990000D02*
X140010000Y-119990000D01*
X127010000Y-106990000D02*
X127010000Y-105990000D01*
X128010000Y-119990000D02*
X127010000Y-119990000D01*
X127010000Y-119990000D02*
X127010000Y-118990000D01*
X141010000Y-105990000D02*
X141010000Y-106990000D01*
X145486786Y-120529747D02*
X145745605Y-119563822D01*
X162633214Y-110630253D02*
X162374395Y-111596178D01*
X159268567Y-123187288D02*
X159009747Y-124153214D01*
X146452712Y-120788567D02*
X145486786Y-120529747D01*
X159009747Y-124153214D02*
X158043822Y-123894395D01*
X161667288Y-110371433D02*
X162633214Y-110630253D01*
X149110253Y-107006786D02*
X150076178Y-107265605D01*
X148851433Y-107972712D02*
X149110253Y-107006786D01*
X171597822Y-110093848D02*
X172097822Y-109227822D01*
X165963848Y-121852178D02*
X165097822Y-121352178D01*
X177222178Y-128352178D02*
X176356152Y-127852178D01*
X184222178Y-116227822D02*
X183722178Y-117093848D01*
X177722178Y-127486152D02*
X177222178Y-128352178D01*
X165097822Y-121352178D02*
X165597822Y-120486152D01*
X172097822Y-109227822D02*
X172963848Y-109727822D01*
X183356152Y-115727822D02*
X184222178Y-116227822D01*
X187436400Y-85642000D02*
X184896400Y-85642000D01*
X184896400Y-55162000D02*
X187436400Y-55162000D01*
X172216400Y-55162000D02*
X172216400Y-85642000D01*
X169676400Y-55162000D02*
X172216400Y-55162000D01*
X169676400Y-85642000D02*
X169676400Y-55162000D01*
X187436400Y-55162000D02*
X187436400Y-85642000D01*
X172216400Y-85642000D02*
X169676400Y-85642000D01*
X184896400Y-85642000D02*
X184896400Y-55162000D01*
X76350000Y-82675000D02*
X76850000Y-81775000D01*
X76100000Y-84875000D02*
X77600000Y-84875000D01*
X77350000Y-81675000D02*
X76350000Y-81675000D01*
X76850000Y-81775000D02*
X77350000Y-82675000D01*
X77600000Y-84875000D02*
X77600000Y-79475000D01*
X76100000Y-79475000D02*
X76100000Y-84875000D01*
X77600000Y-79475000D02*
X76100000Y-79475000D01*
X77350000Y-82675000D02*
X76350000Y-82675000D01*
X76225000Y-96825000D02*
X76225000Y-102225000D01*
X77725000Y-96825000D02*
X76225000Y-96825000D01*
X76225000Y-102225000D02*
X77725000Y-102225000D01*
X77475000Y-99025000D02*
X76475000Y-99025000D01*
X77475000Y-100025000D02*
X76475000Y-100025000D01*
X77725000Y-102225000D02*
X77725000Y-96825000D01*
X76475000Y-100025000D02*
X76975000Y-99125000D01*
X76975000Y-99125000D02*
X77475000Y-100025000D01*
X61910000Y-89580000D02*
X60910000Y-89580000D01*
X73910000Y-75580000D02*
X74910000Y-75580000D01*
X60910000Y-76580000D02*
X60910000Y-75580000D01*
X60910000Y-89580000D02*
X60910000Y-88580000D01*
X60910000Y-75580000D02*
X61910000Y-75580000D01*
X74910000Y-89580000D02*
X73910000Y-89580000D01*
X74910000Y-75580000D02*
X74910000Y-76580000D01*
X74910000Y-88580000D02*
X74910000Y-89580000D01*
X60910000Y-106600000D02*
X60910000Y-105600000D01*
X73910000Y-92600000D02*
X74910000Y-92600000D01*
X60910000Y-92600000D02*
X61910000Y-92600000D01*
X74910000Y-92600000D02*
X74910000Y-93600000D01*
X61910000Y-106600000D02*
X60910000Y-106600000D01*
X60910000Y-93600000D02*
X60910000Y-92600000D01*
X74910000Y-106600000D02*
X73910000Y-106600000D01*
X74910000Y-105600000D02*
X74910000Y-106600000D01*
X74910000Y-71580000D02*
X74910000Y-72580000D01*
X61910000Y-72580000D02*
X60910000Y-72580000D01*
X60910000Y-58580000D02*
X61910000Y-58580000D01*
X60910000Y-59580000D02*
X60910000Y-58580000D01*
X73910000Y-58580000D02*
X74910000Y-58580000D01*
X74910000Y-58580000D02*
X74910000Y-59580000D01*
X74910000Y-72580000D02*
X73910000Y-72580000D01*
X60910000Y-72580000D02*
X60910000Y-71580000D01*
X179959000Y-87923000D02*
X178181000Y-87923000D01*
X178181000Y-87923000D02*
X178181000Y-85637000D01*
X178181000Y-85637000D02*
X179959000Y-85637000D01*
X179959000Y-85637000D02*
X179959000Y-87923000D01*
X172660000Y-90710000D02*
X172660000Y-88170000D01*
X182820000Y-88170000D02*
X182820000Y-90710000D01*
X172660000Y-88170000D02*
X182820000Y-88170000D01*
X172660000Y-90710000D02*
X182820000Y-90710000D01*
X175581000Y-85657000D02*
X177359000Y-85657000D01*
X177359000Y-85657000D02*
X177359000Y-87943000D01*
X175581000Y-87943000D02*
X175581000Y-85657000D01*
X177359000Y-87943000D02*
X175581000Y-87943000D01*
X173041000Y-87973000D02*
X173041000Y-85687000D01*
X174819000Y-85687000D02*
X174819000Y-87973000D01*
X174819000Y-87973000D02*
X173041000Y-87973000D01*
X173041000Y-85687000D02*
X174819000Y-85687000D01*
X180751000Y-87913400D02*
X180751000Y-85627400D01*
X182529000Y-85627400D02*
X182529000Y-87913400D01*
X180751000Y-85627400D02*
X182529000Y-85627400D01*
X182529000Y-87913400D02*
X180751000Y-87913400D01*
X187780000Y-87930000D02*
X187530000Y-87930000D01*
X187780000Y-87930000D02*
X187780000Y-93930000D01*
X184280000Y-93930000D02*
X184530000Y-93930000D01*
X184280000Y-87930000D02*
X184530000Y-87930000D01*
X187780000Y-93930000D02*
X187530000Y-93930000D01*
X184280000Y-87930000D02*
X184280000Y-93930000D01*
X76225000Y-67075000D02*
X77725000Y-67075000D01*
X76975000Y-63975000D02*
X77475000Y-64875000D01*
X76475000Y-64875000D02*
X76975000Y-63975000D01*
X76225000Y-61675000D02*
X76225000Y-67075000D01*
X77725000Y-61675000D02*
X76225000Y-61675000D01*
X77725000Y-67075000D02*
X77725000Y-61675000D01*
X77475000Y-64875000D02*
X76475000Y-64875000D01*
X77475000Y-63875000D02*
X76475000Y-63875000D01*
D12*
X94750000Y-60230000D03*
D13*
X94750000Y-67850000D03*
D12*
X113030000Y-52070000D03*
D13*
X113030000Y-59690000D03*
D12*
X130810000Y-52070000D03*
D13*
X130810000Y-59690000D03*
D12*
X148775000Y-52315000D03*
D13*
X148775000Y-59935000D03*
D12*
X148850000Y-73215000D03*
D13*
X148850000Y-80835000D03*
D12*
X94980000Y-72730000D03*
D13*
X94980000Y-80350000D03*
D12*
X113030000Y-70215000D03*
D13*
X113030000Y-77835000D03*
D12*
X130920000Y-64550000D03*
D13*
X130920000Y-72170000D03*
D12*
X166825000Y-55165000D03*
D13*
X166825000Y-62785000D03*
D12*
X148875000Y-83890000D03*
D13*
X148875000Y-91510000D03*
D12*
X94480000Y-90665000D03*
D13*
X94480000Y-98285000D03*
D12*
X112950000Y-80865000D03*
D13*
X112950000Y-88485000D03*
D12*
X130890000Y-77370000D03*
D13*
X130890000Y-84990000D03*
D12*
X167050000Y-85540000D03*
D13*
X167050000Y-93160000D03*
D12*
X148950000Y-93740000D03*
D13*
X148950000Y-101360000D03*
D12*
X135460000Y-84480000D03*
D13*
X143080000Y-84480000D03*
D12*
X130910000Y-90260000D03*
D13*
X130910000Y-97880000D03*
D12*
X113000000Y-91290000D03*
D13*
X113000000Y-98910000D03*
D14*
X179460000Y-98420000D03*
X179460000Y-100170000D03*
X186460000Y-100170000D03*
X186460000Y-98420000D03*
D15*
X176160000Y-98070000D03*
X176160000Y-100520000D03*
X184660000Y-96320000D03*
X184660000Y-102270000D03*
X181660000Y-102270000D03*
X181660000Y-96320000D03*
X177660000Y-96320000D03*
X177660000Y-102270000D03*
D16*
X186166400Y-56432000D03*
X169620000Y-57702000D03*
X169620000Y-60242000D03*
X186166400Y-58972000D03*
X186166400Y-61512000D03*
X169620000Y-62782000D03*
X186166400Y-64052000D03*
X169620000Y-65322000D03*
X186166400Y-66592000D03*
X169620000Y-67862000D03*
X169620000Y-70402000D03*
X186166400Y-69132000D03*
X169620000Y-72942000D03*
X186166400Y-71672000D03*
X169620000Y-75482000D03*
X186166400Y-74212000D03*
X169620000Y-78022000D03*
X186166400Y-76752000D03*
X186166400Y-79292000D03*
X169620000Y-80562000D03*
X186166400Y-81832000D03*
X169620000Y-83102000D03*
X186166400Y-84372000D03*
X169620000Y-85642000D03*
X184860000Y-85642000D03*
X170946400Y-84372000D03*
X170946400Y-81832000D03*
X184860000Y-83102000D03*
X184860000Y-80562000D03*
X170946400Y-79292000D03*
X170946400Y-76752000D03*
X184860000Y-78022000D03*
X184860000Y-75482000D03*
X170946400Y-74212000D03*
X170946400Y-71672000D03*
X184860000Y-72942000D03*
X170946400Y-69132000D03*
X184860000Y-70402000D03*
X184860000Y-67862000D03*
X170946400Y-66592000D03*
X184860000Y-65322000D03*
X170946400Y-64052000D03*
X170946400Y-61512000D03*
X184860000Y-62782000D03*
X170946400Y-58972000D03*
X184860000Y-60242000D03*
X184860000Y-57702000D03*
X170946400Y-56432000D03*
D12*
X76850000Y-78365000D03*
D13*
X76850000Y-85985000D03*
D12*
X76975000Y-95715000D03*
D13*
X76975000Y-103335000D03*
X173930000Y-89440000D03*
X176470000Y-89440000D03*
X179010000Y-89440000D03*
X181550000Y-89440000D03*
D17*
X186030000Y-94180000D03*
X186030000Y-87680000D03*
D12*
X76975000Y-60565000D03*
D13*
X76975000Y-68185000D03*
M02*
