G04 #@! TF.GenerationSoftware,KiCad,Pcbnew,(6.0.8-1)-1*
G04 #@! TF.CreationDate,2023-02-26T16:34:21+02:00*
G04 #@! TF.ProjectId,chococorne,63686f63-6f63-46f7-926e-652e6b696361,2.1*
G04 #@! TF.SameCoordinates,Original*
G04 #@! TF.FileFunction,Soldermask,Bot*
G04 #@! TF.FilePolarity,Negative*
%FSLAX46Y46*%
G04 Gerber Fmt 4.6, Leading zero omitted, Abs format (unit mm)*
G04 Created by KiCad (PCBNEW (6.0.8-1)-1) date 2023-02-26 16:34:21*
%MOMM*%
%LPD*%
G01*
G04 APERTURE LIST*
G04 Aperture macros list*
%AMRoundRect*
0 Rectangle with rounded corners*
0 $1 Rounding radius*
0 $2 $3 $4 $5 $6 $7 $8 $9 X,Y pos of 4 corners*
0 Add a 4 corners polygon primitive as box body*
4,1,4,$2,$3,$4,$5,$6,$7,$8,$9,$2,$3,0*
0 Add four circle primitives for the rounded corners*
1,1,$1+$1,$2,$3*
1,1,$1+$1,$4,$5*
1,1,$1+$1,$6,$7*
1,1,$1+$1,$8,$9*
0 Add four rect primitives between the rounded corners*
20,1,$1+$1,$2,$3,$4,$5,0*
20,1,$1+$1,$4,$5,$6,$7,0*
20,1,$1+$1,$6,$7,$8,$9,0*
20,1,$1+$1,$8,$9,$2,$3,0*%
G04 Aperture macros list end*
%ADD10RoundRect,0.200000X-0.698500X0.698500X-0.698500X-0.698500X0.698500X-0.698500X0.698500X0.698500X0*%
%ADD11RoundRect,0.200000X-0.475000X0.650000X-0.475000X-0.650000X0.475000X-0.650000X0.475000X0.650000X0*%
%ADD12C,1.797000*%
%ADD13RoundRect,0.200000X-0.650000X-0.475000X0.650000X-0.475000X0.650000X0.475000X-0.650000X0.475000X0*%
%ADD14RoundRect,0.200000X-0.698500X-0.698500X0.698500X-0.698500X0.698500X0.698500X-0.698500X0.698500X0*%
%ADD15C,1.600000*%
%ADD16O,2.900000X2.100000*%
%ADD17C,2.101800*%
%ADD18C,1.390600*%
%ADD19C,3.829000*%
%ADD20C,2.432000*%
%ADD21C,1.924000*%
%ADD22C,2.400000*%
%ADD23C,4.400000*%
%ADD24RoundRect,0.200000X-0.571500X0.317500X-0.571500X-0.317500X0.571500X-0.317500X0.571500X0.317500X0*%
G04 APERTURE END LIST*
D10*
X94750000Y-60230000D03*
D11*
X94750000Y-62265000D03*
X94750000Y-65815000D03*
D12*
X94750000Y-67850000D03*
D10*
X113030000Y-52070000D03*
D11*
X113030000Y-54105000D03*
D12*
X113030000Y-59690000D03*
D11*
X113030000Y-57655000D03*
D10*
X130810000Y-52070000D03*
D11*
X130810000Y-54105000D03*
D12*
X130810000Y-59690000D03*
D11*
X130810000Y-57655000D03*
D10*
X148775000Y-52315000D03*
D11*
X148775000Y-54350000D03*
D12*
X148775000Y-59935000D03*
D11*
X148775000Y-57900000D03*
D10*
X148850000Y-73215000D03*
D11*
X148850000Y-75250000D03*
D12*
X148850000Y-80835000D03*
D11*
X148850000Y-78800000D03*
X94980000Y-74765000D03*
D10*
X94980000Y-72730000D03*
D11*
X94980000Y-78315000D03*
D12*
X94980000Y-80350000D03*
D10*
X113030000Y-70215000D03*
D11*
X113030000Y-72250000D03*
X113030000Y-75800000D03*
D12*
X113030000Y-77835000D03*
D11*
X130920000Y-66585000D03*
D10*
X130920000Y-64550000D03*
D11*
X130920000Y-70135000D03*
D12*
X130920000Y-72170000D03*
D10*
X166825000Y-55165000D03*
D11*
X166825000Y-57200000D03*
D12*
X166825000Y-62785000D03*
D11*
X166825000Y-60750000D03*
D10*
X148875000Y-83890000D03*
D11*
X148875000Y-85925000D03*
D12*
X148875000Y-91510000D03*
D11*
X148875000Y-89475000D03*
D10*
X94480000Y-90665000D03*
D11*
X94480000Y-92700000D03*
D12*
X94480000Y-98285000D03*
D11*
X94480000Y-96250000D03*
X112950000Y-82900000D03*
D10*
X112950000Y-80865000D03*
D12*
X112950000Y-88485000D03*
D11*
X112950000Y-86450000D03*
D10*
X130890000Y-77370000D03*
D11*
X130890000Y-79405000D03*
X130890000Y-82955000D03*
D12*
X130890000Y-84990000D03*
D10*
X167050000Y-85540000D03*
D11*
X167050000Y-87575000D03*
X167050000Y-91125000D03*
D12*
X167050000Y-93160000D03*
D10*
X148950000Y-93740000D03*
D11*
X148950000Y-95775000D03*
D12*
X148950000Y-101360000D03*
D11*
X148950000Y-99325000D03*
D13*
X137495000Y-84480000D03*
D14*
X135460000Y-84480000D03*
D13*
X141045000Y-84480000D03*
D12*
X143080000Y-84480000D03*
D11*
X130910000Y-92295000D03*
D10*
X130910000Y-90260000D03*
D11*
X130910000Y-95845000D03*
D12*
X130910000Y-97880000D03*
D11*
X113000000Y-93325000D03*
D10*
X113000000Y-91290000D03*
D12*
X113000000Y-98910000D03*
D11*
X113000000Y-96875000D03*
D15*
X179460000Y-98420000D03*
X179460000Y-100170000D03*
X186460000Y-100170000D03*
X186460000Y-98420000D03*
D16*
X176160000Y-98070000D03*
X176160000Y-100520000D03*
X184660000Y-96320000D03*
X184660000Y-102270000D03*
X181660000Y-102270000D03*
X181660000Y-96320000D03*
X177660000Y-96320000D03*
X177660000Y-102270000D03*
D17*
X80410000Y-65580000D03*
D18*
X91130000Y-61380000D03*
D17*
X91410000Y-65580000D03*
D18*
X80690000Y-61380000D03*
D19*
X85910000Y-65580000D03*
D20*
X85910000Y-71480000D03*
X80910000Y-69380000D03*
X90910000Y-69380000D03*
D18*
X109130000Y-54820000D03*
D17*
X98410000Y-59020000D03*
X109410000Y-59020000D03*
D18*
X98690000Y-54820000D03*
D19*
X103910000Y-59020000D03*
D20*
X103910000Y-64920000D03*
X98910000Y-62820000D03*
X108910000Y-62820000D03*
D19*
X121910000Y-56660000D03*
D17*
X127410000Y-56660000D03*
D18*
X127130000Y-52460000D03*
X116690000Y-52460000D03*
D17*
X116410000Y-56660000D03*
D20*
X121910000Y-62560000D03*
X116910000Y-60460000D03*
X126910000Y-60460000D03*
D17*
X145410000Y-59020000D03*
D18*
X145130000Y-54820000D03*
D19*
X139910000Y-59020000D03*
D17*
X134410000Y-59020000D03*
D18*
X134690000Y-54820000D03*
D20*
X139910000Y-64920000D03*
X144910000Y-62820000D03*
X134910000Y-62820000D03*
D17*
X152410000Y-61400000D03*
D18*
X152690000Y-57200000D03*
X163130000Y-57200000D03*
D19*
X157910000Y-61400000D03*
D17*
X163410000Y-61400000D03*
D20*
X157910000Y-67300000D03*
X152910000Y-65200000D03*
X162910000Y-65200000D03*
D18*
X80690000Y-78380000D03*
D17*
X91410000Y-82580000D03*
D18*
X91130000Y-78380000D03*
D17*
X80410000Y-82580000D03*
D19*
X85910000Y-82580000D03*
D20*
X85910000Y-88480000D03*
X90910000Y-86380000D03*
X80910000Y-86380000D03*
D17*
X109410000Y-76020000D03*
D18*
X109130000Y-71820000D03*
D19*
X103910000Y-76020000D03*
D18*
X98690000Y-71820000D03*
D17*
X98410000Y-76020000D03*
D20*
X103910000Y-81920000D03*
X108910000Y-79820000D03*
X98910000Y-79820000D03*
D17*
X127410000Y-73650000D03*
D19*
X121910000Y-73650000D03*
D17*
X116410000Y-73650000D03*
D18*
X127130000Y-69450000D03*
X116690000Y-69450000D03*
D20*
X121910000Y-79550000D03*
X126910000Y-77450000D03*
X116910000Y-77450000D03*
D17*
X134410000Y-76020000D03*
D18*
X134690000Y-71820000D03*
D17*
X145410000Y-76020000D03*
D19*
X139910000Y-76020000D03*
D18*
X145130000Y-71820000D03*
D20*
X139910000Y-81920000D03*
X144910000Y-79820000D03*
X134910000Y-79820000D03*
D17*
X152410000Y-78400000D03*
D18*
X163130000Y-74200000D03*
D19*
X157910000Y-78400000D03*
D17*
X163410000Y-78400000D03*
D18*
X152690000Y-74200000D03*
D20*
X157910000Y-84300000D03*
X152910000Y-82200000D03*
X162910000Y-82200000D03*
D17*
X91410000Y-99585000D03*
D19*
X85910000Y-99585000D03*
D17*
X80410000Y-99585000D03*
D18*
X91130000Y-95385000D03*
X80690000Y-95385000D03*
D20*
X85910000Y-105485000D03*
X80910000Y-103385000D03*
X90910000Y-103385000D03*
D17*
X98410000Y-93025000D03*
D19*
X103910000Y-93025000D03*
D18*
X98690000Y-88825000D03*
D17*
X109410000Y-93025000D03*
D18*
X109130000Y-88825000D03*
D20*
X103910000Y-98925000D03*
X108910000Y-96825000D03*
X98910000Y-96825000D03*
D17*
X116410000Y-90650000D03*
D19*
X121910000Y-90650000D03*
D17*
X127410000Y-90650000D03*
D18*
X127130000Y-86450000D03*
X116690000Y-86450000D03*
D20*
X121910000Y-96550000D03*
X126910000Y-94450000D03*
X116910000Y-94450000D03*
D18*
X134690000Y-88825000D03*
D17*
X145410000Y-93025000D03*
X134410000Y-93025000D03*
D18*
X145130000Y-88825000D03*
D19*
X139910000Y-93025000D03*
D20*
X139910000Y-98925000D03*
X144910000Y-96825000D03*
X134910000Y-96825000D03*
D19*
X157910000Y-95400000D03*
D18*
X163130000Y-91200000D03*
D17*
X152410000Y-95400000D03*
X163410000Y-95400000D03*
D18*
X152690000Y-91200000D03*
D20*
X157910000Y-101300000D03*
X162910000Y-99200000D03*
X152910000Y-99200000D03*
D17*
X128510000Y-112990000D03*
D19*
X134010000Y-112990000D03*
D18*
X139230000Y-117190000D03*
D17*
X139510000Y-112990000D03*
D18*
X128790000Y-117190000D03*
D20*
X134010000Y-107090000D03*
X139010000Y-109190000D03*
X129010000Y-109190000D03*
D19*
X154060000Y-115580000D03*
D17*
X148747408Y-114156495D03*
D18*
X147930827Y-118285853D03*
X158015093Y-120987924D03*
D17*
X159372592Y-117003505D03*
D20*
X155587032Y-109881038D03*
X159873142Y-113203577D03*
X150213883Y-110615387D03*
D17*
X171910000Y-123553140D03*
D18*
X180907307Y-116369347D03*
D17*
X177410000Y-114026860D03*
D18*
X175687307Y-125410653D03*
D19*
X174660000Y-118790000D03*
D20*
X169550450Y-115840000D03*
X168869103Y-121220127D03*
X173869103Y-112559873D03*
D21*
X186166400Y-56432000D03*
X169620000Y-57702000D03*
X169620000Y-60242000D03*
X186166400Y-58972000D03*
X186166400Y-61512000D03*
X169620000Y-62782000D03*
X186166400Y-64052000D03*
X169620000Y-65322000D03*
X186166400Y-66592000D03*
X169620000Y-67862000D03*
X169620000Y-70402000D03*
X186166400Y-69132000D03*
X169620000Y-72942000D03*
X186166400Y-71672000D03*
X169620000Y-75482000D03*
X186166400Y-74212000D03*
X169620000Y-78022000D03*
X186166400Y-76752000D03*
X186166400Y-79292000D03*
X169620000Y-80562000D03*
X186166400Y-81832000D03*
X169620000Y-83102000D03*
X186166400Y-84372000D03*
X169620000Y-85642000D03*
X184860000Y-85642000D03*
X170946400Y-84372000D03*
X170946400Y-81832000D03*
X184860000Y-83102000D03*
X184860000Y-80562000D03*
X170946400Y-79292000D03*
X170946400Y-76752000D03*
X184860000Y-78022000D03*
X184860000Y-75482000D03*
X170946400Y-74212000D03*
X170946400Y-71672000D03*
X184860000Y-72942000D03*
X170946400Y-69132000D03*
X184860000Y-70402000D03*
X184860000Y-67862000D03*
X170946400Y-66592000D03*
X184860000Y-65322000D03*
X170946400Y-64052000D03*
X170946400Y-61512000D03*
X184860000Y-62782000D03*
X170946400Y-58972000D03*
X184860000Y-60242000D03*
X184860000Y-57702000D03*
X170946400Y-56432000D03*
D10*
X76850000Y-78365000D03*
D11*
X76850000Y-80400000D03*
X76850000Y-83950000D03*
D12*
X76850000Y-85985000D03*
D10*
X76975000Y-95715000D03*
D11*
X76975000Y-97750000D03*
D12*
X76975000Y-103335000D03*
D11*
X76975000Y-101300000D03*
D17*
X62410000Y-82580000D03*
D18*
X73130000Y-78380000D03*
D19*
X67910000Y-82580000D03*
D18*
X62690000Y-78380000D03*
D17*
X73410000Y-82580000D03*
D20*
X67910000Y-88480000D03*
X72910000Y-86380000D03*
X62910000Y-86380000D03*
D17*
X73410000Y-99600000D03*
D18*
X73130000Y-95400000D03*
D17*
X62410000Y-99600000D03*
D19*
X67910000Y-99600000D03*
D18*
X62690000Y-95400000D03*
D20*
X67910000Y-105500000D03*
X62910000Y-103400000D03*
X72910000Y-103400000D03*
D18*
X62690000Y-61380000D03*
X73130000Y-61380000D03*
D17*
X73410000Y-65580000D03*
D19*
X67910000Y-65580000D03*
D17*
X62410000Y-65580000D03*
D20*
X67910000Y-71480000D03*
X62910000Y-69380000D03*
X72910000Y-69380000D03*
D12*
X173930000Y-89440000D03*
X176470000Y-89440000D03*
X179010000Y-89440000D03*
X181550000Y-89440000D03*
D22*
X186030000Y-94180000D03*
X186030000Y-87680000D03*
D10*
X76975000Y-60565000D03*
D11*
X76975000Y-62600000D03*
X76975000Y-66150000D03*
D12*
X76975000Y-68185000D03*
D23*
X149025000Y-68125000D03*
X76870000Y-74150000D03*
X117820000Y-104650000D03*
X167140000Y-109200000D03*
X76870000Y-91290000D03*
D24*
X176480000Y-86309620D03*
X176480000Y-87310380D03*
X173930000Y-86339220D03*
X173930000Y-87339980D03*
X181640000Y-86259620D03*
X181640000Y-87260380D03*
X179060000Y-86279620D03*
X179060000Y-87280380D03*
M02*
