M48
; DRILL file {KiCad (6.0.8-1)-1} date 2023 February 26, Sunday 16:34:28
; FORMAT={-:-/ absolute / inch / decimal}
; #@! TF.CreationDate,2023-02-26T16:34:28+02:00
; #@! TF.GenerationSoftware,Kicad,Pcbnew,(6.0.8-1)-1
; #@! TF.FileFunction,Plated,1,2,PTH
FMAT,2
INCH
; #@! TA.AperFunction,Plated,PTH,ViaDrill
T1C0.0157
; #@! TA.AperFunction,Plated,PTH,ComponentDrill
T2C0.0320
; #@! TA.AperFunction,Plated,PTH,ComponentDrill
T3C0.0394
; #@! TA.AperFunction,Plated,PTH,ComponentDrill
T4C0.0500
; #@! TA.AperFunction,Plated,PTH,ComponentDrill
T5C0.0512
; #@! TA.AperFunction,Plated,PTH,ComponentDrill
T6C0.0866
%
G90
G05
T1
X4.8949Y-3.6337
X5.0236Y-3.9508
X5.3248Y-3.9469
X5.6417Y-2.7352
X6.0207Y-2.7441
X6.0732Y-3.082
X6.1004Y-3.4518
X6.1427Y-2.9242
X6.1923Y-2.8711
X6.5768Y-3.2382
X6.5945Y-2.5787
X7.0Y-2.6717
X7.0Y-2.7717
X7.0Y-2.8717
X7.0Y-2.9717
X7.0Y-3.0717
X7.0Y-3.1717
X7.0Y-3.2717
X7.08Y-2.72
X7.08Y-2.82
X7.08Y-2.92
X7.08Y-3.02
X7.085Y-3.12
X7.085Y-3.22
X7.085Y-3.32
T2
X3.0256Y-3.0852
X3.0256Y-3.3852
X3.0305Y-2.3844
X3.0305Y-2.6844
X3.0305Y-3.7683
X3.0305Y-4.0683
X3.7197Y-3.5695
X3.7197Y-3.8695
X3.7303Y-2.3713
X3.7303Y-2.6713
X3.7394Y-2.8634
X3.7394Y-3.1634
X4.4469Y-3.1837
X4.4469Y-3.4837
X4.4488Y-3.5941
X4.4488Y-3.8941
X4.45Y-2.05
X4.45Y-2.35
X4.45Y-2.7644
X4.45Y-3.0644
X5.15Y-2.05
X5.15Y-2.35
X5.1531Y-3.0461
X5.1531Y-3.3461
X5.1539Y-3.5535
X5.1539Y-3.8535
X5.1543Y-2.5413
X5.1543Y-2.8413
X5.3331Y-3.326
X5.6331Y-3.326
X5.8573Y-2.0596
X5.8573Y-2.3596
X5.8602Y-2.8825
X5.8602Y-3.1825
X5.8612Y-3.3028
X5.8612Y-3.6028
X5.8642Y-3.6906
X5.8642Y-3.9906
X6.5679Y-2.1719
X6.5679Y-2.4719
X6.5768Y-3.3677
X6.5768Y-3.6677
X6.678Y-2.2717
X6.678Y-2.3717
X6.678Y-2.4717
X6.678Y-2.5717
X6.678Y-2.6717
X6.678Y-2.7717
X6.678Y-2.8717
X6.678Y-2.9717
X6.678Y-3.0717
X6.678Y-3.1717
X6.678Y-3.2717
X6.678Y-3.3717
X6.7302Y-2.2217
X6.7302Y-2.3217
X6.7302Y-2.4217
X6.7302Y-2.5217
X6.7302Y-2.6217
X6.7302Y-2.7217
X6.7302Y-2.8217
X6.7302Y-2.9217
X6.7302Y-3.0217
X6.7302Y-3.1217
X6.7302Y-3.2217
X6.7302Y-3.3217
X6.8476Y-3.5213
X6.9476Y-3.5213
X7.0476Y-3.5213
X7.1476Y-3.5213
X7.278Y-2.2717
X7.278Y-2.3717
X7.278Y-2.4717
X7.278Y-2.5717
X7.278Y-2.6717
X7.278Y-2.7717
X7.278Y-2.8717
X7.278Y-2.9717
X7.278Y-3.0717
X7.278Y-3.1717
X7.278Y-3.2717
X7.278Y-3.3717
X7.3294Y-2.2217
X7.3294Y-2.3217
X7.3294Y-2.4217
X7.3294Y-2.5217
X7.3294Y-2.6217
X7.3294Y-2.7217
X7.3294Y-2.8217
X7.3294Y-2.9217
X7.3294Y-3.0217
X7.3294Y-3.1217
X7.3294Y-3.2217
X7.3294Y-3.3217
T4
X2.4768Y-2.7315
X2.4768Y-3.4008
X2.4768Y-4.0709
X2.6736Y-2.8142
X2.6736Y-3.4835
X2.6736Y-4.1535
X2.8705Y-2.7315
X2.8705Y-3.4008
X2.8705Y-4.0709
X3.1854Y-2.7315
X3.1854Y-3.4008
X3.1854Y-4.0703
X3.3823Y-2.8142
X3.3823Y-3.4835
X3.3823Y-4.153
X3.5791Y-2.7315
X3.5791Y-3.4008
X3.5791Y-4.0703
X3.8941Y-2.4732
X3.8941Y-3.1425
X3.8941Y-3.812
X4.0909Y-2.5559
X4.0909Y-3.2252
X4.0909Y-3.8947
X4.2878Y-2.4732
X4.2878Y-3.1425
X4.2878Y-3.812
X4.6028Y-2.3803
X4.6028Y-3.0492
X4.6028Y-3.7185
X4.7996Y-2.463
X4.7996Y-3.1319
X4.7996Y-3.8012
X4.9965Y-2.3803
X4.9965Y-3.0492
X4.9965Y-3.7185
X5.0791Y-4.2988
X5.276Y-4.2161
X5.3114Y-2.4732
X5.3114Y-3.1425
X5.3114Y-3.812
X5.4728Y-4.2988
X5.5083Y-2.5559
X5.5083Y-3.2252
X5.5083Y-3.8947
X5.7051Y-2.4732
X5.7051Y-3.1425
X5.7051Y-3.812
X5.9139Y-4.3549
X6.0201Y-2.5669
X6.0201Y-3.2362
X6.0201Y-3.9055
X6.1255Y-4.326
X6.2169Y-2.6496
X6.2169Y-3.3189
X6.2169Y-3.9882
X6.2942Y-4.4568
X6.4138Y-2.5669
X6.4138Y-3.2362
X6.4138Y-3.9055
X6.6484Y-4.7724
X6.6752Y-4.5606
X6.8452Y-4.4315
T5
X7.324Y-3.452
X7.324Y-3.7079
T6
X3.0264Y-2.9193
X3.0264Y-3.5941
X4.6386Y-4.1201
X5.8671Y-2.6821
X6.5803Y-4.2992
T3
G00X6.9453Y-3.861
M15
G01X6.9256Y-3.861
M16
G05
G00X6.9453Y-3.9575
M15
G01X6.9256Y-3.9575
M16
G05
G00X7.0043Y-3.7921
M15
G01X6.9846Y-3.7921
M16
G05
G00X7.0043Y-4.0264
M15
G01X6.9846Y-4.0264
M16
G05
G00X7.1618Y-3.7921
M15
G01X7.1421Y-3.7921
M16
G05
G00X7.1618Y-4.0264
M15
G01X7.1421Y-4.0264
M16
G05
G00X7.2799Y-3.7921
M15
G01X7.2602Y-3.7921
M16
G05
G00X7.2799Y-4.0264
M15
G01X7.2602Y-4.0264
M16
G05
T0
M30
