G04 #@! TF.GenerationSoftware,KiCad,Pcbnew,(6.0.8-1)-1*
G04 #@! TF.CreationDate,2023-02-26T16:34:21+02:00*
G04 #@! TF.ProjectId,chococorne,63686f63-6f63-46f7-926e-652e6b696361,2.1*
G04 #@! TF.SameCoordinates,Original*
G04 #@! TF.FileFunction,Profile,NP*
%FSLAX46Y46*%
G04 Gerber Fmt 4.6, Leading zero omitted, Abs format (unit mm)*
G04 Created by KiCad (PCBNEW (6.0.8-1)-1) date 2023-02-26 16:34:21*
%MOMM*%
%LPD*%
G01*
G04 APERTURE LIST*
G04 #@! TA.AperFunction,Profile*
%ADD10C,0.150000*%
G04 #@! TD*
G04 APERTURE END LIST*
D10*
X187620000Y-52430000D02*
X167999902Y-52440020D01*
X93390000Y-55890000D02*
X77829520Y-55894020D01*
X113032807Y-109366852D02*
G75*
G03*
X112700000Y-109240000I-332807J-373148D01*
G01*
X124569999Y-121760001D02*
G75*
G03*
X124845863Y-121904977I371001J371001D01*
G01*
X113032807Y-109366852D02*
X124570000Y-121760000D01*
X174021997Y-134429478D02*
G75*
G03*
X175950000Y-134050000I775003J1149978D01*
G01*
X160464519Y-126604023D02*
G75*
G03*
X159810076Y-126474364I-987619J-3268477D01*
G01*
X175950000Y-134050000D02*
X188200000Y-112870000D01*
X160464520Y-126604020D02*
X174021988Y-134429491D01*
X124845863Y-121904977D02*
X159810076Y-126474364D01*
X112700000Y-109240000D02*
X77819520Y-109214020D01*
X167519902Y-52080020D02*
G75*
G03*
X167030000Y-51680000I-489902J-99980D01*
G01*
X167519886Y-52080025D02*
G75*
G03*
X167999902Y-52440020I480014J140025D01*
G01*
X167030000Y-51680000D02*
X150399520Y-51694020D01*
X93390000Y-55890000D02*
G75*
G03*
X93890000Y-55390000I0J500000D01*
G01*
X94399520Y-49194020D02*
G75*
G03*
X93899520Y-49694020I-20J-499980D01*
G01*
X131389520Y-46944020D02*
X112429520Y-46944020D01*
X131889520Y-48694020D02*
X131889520Y-47444020D01*
X149399520Y-49194020D02*
X132389520Y-49194020D01*
X149899520Y-51194020D02*
X149899520Y-49694020D01*
X93899520Y-49694020D02*
X93890000Y-55390000D01*
X111429520Y-49194020D02*
X94399520Y-49194020D01*
X111929520Y-47444020D02*
X111929520Y-48694020D01*
X111429520Y-49194020D02*
G75*
G03*
X111929520Y-48694020I-20J500020D01*
G01*
X112429520Y-46944020D02*
G75*
G03*
X111929520Y-47444020I-20J-499980D01*
G01*
X131889480Y-47444020D02*
G75*
G03*
X131389520Y-46944020I-499980J20D01*
G01*
X131889480Y-48694020D02*
G75*
G03*
X132389520Y-49194020I500020J20D01*
G01*
X149899480Y-49694020D02*
G75*
G03*
X149399520Y-49194020I-499980J20D01*
G01*
X149899480Y-51194020D02*
G75*
G03*
X150399520Y-51694020I500020J20D01*
G01*
X188120000Y-52930000D02*
G75*
G03*
X187620000Y-52430000I-500000J0D01*
G01*
X58710000Y-55890000D02*
G75*
G03*
X58210000Y-56390000I0J-500000D01*
G01*
X58210000Y-108710000D02*
G75*
G03*
X58710000Y-109210000I500000J0D01*
G01*
X77875000Y-55894020D02*
X58710000Y-55890000D01*
X77819520Y-109214020D02*
X58710000Y-109210000D01*
X58210000Y-56390000D02*
X58210000Y-108710000D01*
X188120000Y-52930000D02*
X188200000Y-112870000D01*
M02*
