G04 #@! TF.GenerationSoftware,KiCad,Pcbnew,(6.0.8-1)-1*
G04 #@! TF.CreationDate,2023-02-26T16:34:20+02:00*
G04 #@! TF.ProjectId,chococorne,63686f63-6f63-46f7-926e-652e6b696361,2.1*
G04 #@! TF.SameCoordinates,Original*
G04 #@! TF.FileFunction,Copper,L1,Top*
G04 #@! TF.FilePolarity,Positive*
%FSLAX46Y46*%
G04 Gerber Fmt 4.6, Leading zero omitted, Abs format (unit mm)*
G04 Created by KiCad (PCBNEW (6.0.8-1)-1) date 2023-02-26 16:34:20*
%MOMM*%
%LPD*%
G01*
G04 APERTURE LIST*
G04 #@! TA.AperFunction,ComponentPad*
%ADD10R,1.397000X1.397000*%
G04 #@! TD*
G04 #@! TA.AperFunction,SMDPad,CuDef*
%ADD11R,0.950000X1.300000*%
G04 #@! TD*
G04 #@! TA.AperFunction,ComponentPad*
%ADD12C,1.397000*%
G04 #@! TD*
G04 #@! TA.AperFunction,SMDPad,CuDef*
%ADD13R,1.300000X0.950000*%
G04 #@! TD*
G04 #@! TA.AperFunction,ComponentPad*
%ADD14O,2.500000X1.700000*%
G04 #@! TD*
G04 #@! TA.AperFunction,ComponentPad*
%ADD15C,2.032000*%
G04 #@! TD*
G04 #@! TA.AperFunction,ComponentPad*
%ADD16C,1.524000*%
G04 #@! TD*
G04 #@! TA.AperFunction,SMDPad,CuDef*
%ADD17R,1.143000X0.635000*%
G04 #@! TD*
G04 #@! TA.AperFunction,ComponentPad*
%ADD18C,2.000000*%
G04 #@! TD*
G04 #@! TA.AperFunction,ComponentPad*
%ADD19C,4.000000*%
G04 #@! TD*
G04 #@! TA.AperFunction,ViaPad*
%ADD20C,0.600000*%
G04 #@! TD*
G04 #@! TA.AperFunction,Conductor*
%ADD21C,0.250000*%
G04 #@! TD*
G04 APERTURE END LIST*
D10*
X94750000Y-60230000D03*
D11*
X94750000Y-62265000D03*
D12*
X94750000Y-67850000D03*
D11*
X94750000Y-65815000D03*
D10*
X113030000Y-52070000D03*
D11*
X113030000Y-54105000D03*
X113030000Y-57655000D03*
D12*
X113030000Y-59690000D03*
D11*
X130810000Y-54105000D03*
D10*
X130810000Y-52070000D03*
D12*
X130810000Y-59690000D03*
D11*
X130810000Y-57655000D03*
X148775000Y-54350000D03*
D10*
X148775000Y-52315000D03*
D12*
X148775000Y-59935000D03*
D11*
X148775000Y-57900000D03*
X148850000Y-75250000D03*
D10*
X148850000Y-73215000D03*
D11*
X148850000Y-78800000D03*
D12*
X148850000Y-80835000D03*
D11*
X94980000Y-74765000D03*
D10*
X94980000Y-72730000D03*
D12*
X94980000Y-80350000D03*
D11*
X94980000Y-78315000D03*
D10*
X113030000Y-70215000D03*
D11*
X113030000Y-72250000D03*
X113030000Y-75800000D03*
D12*
X113030000Y-77835000D03*
D11*
X130920000Y-66585000D03*
D10*
X130920000Y-64550000D03*
D11*
X130920000Y-70135000D03*
D12*
X130920000Y-72170000D03*
D10*
X166825000Y-55165000D03*
D11*
X166825000Y-57200000D03*
D12*
X166825000Y-62785000D03*
D11*
X166825000Y-60750000D03*
X148875000Y-85925000D03*
D10*
X148875000Y-83890000D03*
D11*
X148875000Y-89475000D03*
D12*
X148875000Y-91510000D03*
D11*
X94480000Y-92700000D03*
D10*
X94480000Y-90665000D03*
D11*
X94480000Y-96250000D03*
D12*
X94480000Y-98285000D03*
D10*
X112950000Y-80865000D03*
D11*
X112950000Y-82900000D03*
D12*
X112950000Y-88485000D03*
D11*
X112950000Y-86450000D03*
D10*
X130890000Y-77370000D03*
D11*
X130890000Y-79405000D03*
X130890000Y-82955000D03*
D12*
X130890000Y-84990000D03*
D11*
X167050000Y-87575000D03*
D10*
X167050000Y-85540000D03*
D11*
X167050000Y-91125000D03*
D12*
X167050000Y-93160000D03*
D10*
X148950000Y-93740000D03*
D11*
X148950000Y-95775000D03*
D12*
X148950000Y-101360000D03*
D11*
X148950000Y-99325000D03*
D13*
X137495000Y-84480000D03*
D10*
X135460000Y-84480000D03*
D12*
X143080000Y-84480000D03*
D13*
X141045000Y-84480000D03*
D11*
X130910000Y-92295000D03*
D10*
X130910000Y-90260000D03*
D11*
X130910000Y-95845000D03*
D12*
X130910000Y-97880000D03*
D10*
X113000000Y-91290000D03*
D11*
X113000000Y-93325000D03*
X113000000Y-96875000D03*
D12*
X113000000Y-98910000D03*
D14*
X176160000Y-98070000D03*
X176160000Y-100520000D03*
X184660000Y-96320000D03*
X184660000Y-102270000D03*
X181660000Y-102270000D03*
X181660000Y-96320000D03*
X177660000Y-96320000D03*
X177660000Y-102270000D03*
D15*
X85910000Y-71480000D03*
X80910000Y-69380000D03*
X90910000Y-69380000D03*
X103910000Y-64920000D03*
X98910000Y-62820000D03*
X108910000Y-62820000D03*
X121910000Y-62560000D03*
X116910000Y-60460000D03*
X126910000Y-60460000D03*
X139910000Y-64920000D03*
X144910000Y-62820000D03*
X134910000Y-62820000D03*
X157910000Y-67300000D03*
X152910000Y-65200000D03*
X162910000Y-65200000D03*
X85910000Y-88480000D03*
X90910000Y-86380000D03*
X80910000Y-86380000D03*
X103910000Y-81920000D03*
X108910000Y-79820000D03*
X98910000Y-79820000D03*
X121910000Y-79550000D03*
X126910000Y-77450000D03*
X116910000Y-77450000D03*
X139910000Y-81920000D03*
X144910000Y-79820000D03*
X134910000Y-79820000D03*
X157910000Y-84300000D03*
X152910000Y-82200000D03*
X162910000Y-82200000D03*
X85910000Y-105485000D03*
X80910000Y-103385000D03*
X90910000Y-103385000D03*
X103910000Y-98925000D03*
X108910000Y-96825000D03*
X98910000Y-96825000D03*
X121910000Y-96550000D03*
X126910000Y-94450000D03*
X116910000Y-94450000D03*
X139910000Y-98925000D03*
X144910000Y-96825000D03*
X134910000Y-96825000D03*
X157910000Y-101300000D03*
X162910000Y-99200000D03*
X152910000Y-99200000D03*
X134010000Y-107090000D03*
X139010000Y-109190000D03*
X129010000Y-109190000D03*
X155587032Y-109881038D03*
X159873142Y-113203577D03*
X150213883Y-110615387D03*
X169550450Y-115840000D03*
X168869103Y-121220127D03*
X173869103Y-112559873D03*
D16*
X186166400Y-56432000D03*
X169620000Y-57702000D03*
X169620000Y-60242000D03*
X186166400Y-58972000D03*
X186166400Y-61512000D03*
X169620000Y-62782000D03*
X186166400Y-64052000D03*
X169620000Y-65322000D03*
X186166400Y-66592000D03*
X169620000Y-67862000D03*
X169620000Y-70402000D03*
X186166400Y-69132000D03*
X169620000Y-72942000D03*
X186166400Y-71672000D03*
X169620000Y-75482000D03*
X186166400Y-74212000D03*
X169620000Y-78022000D03*
X186166400Y-76752000D03*
X186166400Y-79292000D03*
X169620000Y-80562000D03*
X186166400Y-81832000D03*
X169620000Y-83102000D03*
X186166400Y-84372000D03*
X169620000Y-85642000D03*
X184860000Y-85642000D03*
X170946400Y-84372000D03*
X170946400Y-81832000D03*
X184860000Y-83102000D03*
X184860000Y-80562000D03*
X170946400Y-79292000D03*
X170946400Y-76752000D03*
X184860000Y-78022000D03*
X184860000Y-75482000D03*
X170946400Y-74212000D03*
X170946400Y-71672000D03*
X184860000Y-72942000D03*
X170946400Y-69132000D03*
X184860000Y-70402000D03*
X184860000Y-67862000D03*
X170946400Y-66592000D03*
X184860000Y-65322000D03*
X170946400Y-64052000D03*
X170946400Y-61512000D03*
X184860000Y-62782000D03*
X170946400Y-58972000D03*
X184860000Y-60242000D03*
X184860000Y-57702000D03*
X170946400Y-56432000D03*
D10*
X76850000Y-78365000D03*
D11*
X76850000Y-80400000D03*
D12*
X76850000Y-85985000D03*
D11*
X76850000Y-83950000D03*
D10*
X76975000Y-95715000D03*
D11*
X76975000Y-97750000D03*
D12*
X76975000Y-103335000D03*
D11*
X76975000Y-101300000D03*
D15*
X67910000Y-88480000D03*
X72910000Y-86380000D03*
X62910000Y-86380000D03*
X67910000Y-105500000D03*
X62910000Y-103400000D03*
X72910000Y-103400000D03*
X67910000Y-71480000D03*
X62910000Y-69380000D03*
X72910000Y-69380000D03*
D17*
X179070000Y-86279620D03*
X179070000Y-87280380D03*
D12*
X173930000Y-89440000D03*
X176470000Y-89440000D03*
X179010000Y-89440000D03*
X181550000Y-89440000D03*
D17*
X176470000Y-86299620D03*
X176470000Y-87300380D03*
X173930000Y-86329620D03*
X173930000Y-87330380D03*
X181640000Y-86270020D03*
X181640000Y-87270780D03*
D18*
X186030000Y-94180000D03*
X186030000Y-87680000D03*
D10*
X76975000Y-60565000D03*
D11*
X76975000Y-62600000D03*
X76975000Y-66150000D03*
D12*
X76975000Y-68185000D03*
D19*
X149025000Y-68125000D03*
X76870000Y-74150000D03*
X117820000Y-104650000D03*
X167140000Y-109200000D03*
X76870000Y-91290000D03*
D20*
X143300000Y-69475000D03*
X177800000Y-72942000D03*
X177800000Y-75482000D03*
X167500500Y-65500000D03*
X154260000Y-78283686D03*
X154950000Y-87675000D03*
X167050000Y-82250000D03*
X177800000Y-78022000D03*
X124330000Y-92295000D03*
X177800000Y-80562000D03*
X152925000Y-69700000D03*
X157285500Y-72925000D03*
X156024500Y-74275000D03*
X135250000Y-100250000D03*
X127600000Y-100350000D03*
X177800000Y-83100000D03*
X179832000Y-69088000D03*
X179832000Y-71628000D03*
X179832000Y-74168000D03*
X179832000Y-76708000D03*
X179959000Y-79248000D03*
X179959000Y-81788000D03*
X179959000Y-84328000D03*
X177800000Y-70402000D03*
X177800000Y-67862000D03*
D21*
X148850000Y-75250000D02*
X148850000Y-73215000D01*
X143300000Y-71220792D02*
X143300000Y-69475000D01*
X113030000Y-54105000D02*
X113030000Y-52070000D01*
X76975000Y-62600000D02*
X76975000Y-60565000D01*
X148775000Y-52315000D02*
X148775000Y-54350000D01*
X145294208Y-73215000D02*
X143300000Y-71220792D01*
X130810000Y-52070000D02*
X130810000Y-54105000D01*
X183598000Y-71672000D02*
X182328000Y-72942000D01*
X94750000Y-62265000D02*
X94750000Y-60230000D01*
X148850000Y-73215000D02*
X145294208Y-73215000D01*
X182328000Y-72942000D02*
X177800000Y-72942000D01*
X186166400Y-71672000D02*
X183598000Y-71672000D01*
X94980000Y-74765000D02*
X94980000Y-72730000D01*
X167500500Y-65500000D02*
X165450000Y-63449500D01*
X186166400Y-74212000D02*
X183852000Y-74212000D01*
X148875000Y-83668686D02*
X148875000Y-83890000D01*
X76850000Y-80400000D02*
X76850000Y-78365000D01*
X165450000Y-63449500D02*
X165450000Y-58575000D01*
X165450000Y-58575000D02*
X166825000Y-57200000D01*
X154260000Y-78283686D02*
X148875000Y-83668686D01*
X148875000Y-85925000D02*
X148875000Y-83890000D01*
X183852000Y-74212000D02*
X182582000Y-75482000D01*
X166825000Y-57200000D02*
X166825000Y-55165000D01*
X130920000Y-64550000D02*
X130920000Y-66585000D01*
X182582000Y-75482000D02*
X177800000Y-75482000D01*
X113030000Y-70215000D02*
X113030000Y-72250000D01*
X94750000Y-67850000D02*
X94750000Y-65815000D01*
X167050000Y-87575000D02*
X167050000Y-85540000D01*
X130890000Y-77370000D02*
X130890000Y-79405000D01*
X184106000Y-76752000D02*
X182836000Y-78022000D01*
X167050000Y-85540000D02*
X167050000Y-82250000D01*
X148950000Y-95775000D02*
X148950000Y-93740000D01*
X148950000Y-93740000D02*
X148950000Y-93675000D01*
X94480000Y-90665000D02*
X94480000Y-92700000D01*
X148950000Y-93675000D02*
X154950000Y-87675000D01*
X186166400Y-76752000D02*
X184106000Y-76752000D01*
X112950000Y-82900000D02*
X112950000Y-80865000D01*
X182836000Y-78022000D02*
X177800000Y-78022000D01*
X76975000Y-97750000D02*
X76975000Y-95715000D01*
X113030000Y-59690000D02*
X113030000Y-57655000D01*
X135460000Y-84480000D02*
X137495000Y-84480000D01*
X130910000Y-90260000D02*
X130910000Y-92295000D01*
X182836000Y-80562000D02*
X183923001Y-79474999D01*
X130910000Y-92295000D02*
X124330000Y-92295000D01*
X177800000Y-80562000D02*
X182836000Y-80562000D01*
X113000000Y-93325000D02*
X113000000Y-91290000D01*
X183923001Y-79474999D02*
X185983401Y-79474999D01*
X185983401Y-79474999D02*
X186166400Y-79292000D01*
X130810000Y-57655000D02*
X130810000Y-59690000D01*
X148775000Y-59935000D02*
X148775000Y-57900000D01*
X151125000Y-76525000D02*
X148850000Y-78800000D01*
X152800000Y-65310000D02*
X152910000Y-65200000D01*
X152925000Y-69700000D02*
X152925000Y-71750000D01*
X152925000Y-71750000D02*
X151125000Y-73550000D01*
X151125000Y-73550000D02*
X151125000Y-76525000D01*
X148850000Y-80835000D02*
X148850000Y-78800000D01*
X94980000Y-80350000D02*
X94980000Y-78315000D01*
X113030000Y-75800000D02*
X113030000Y-77835000D01*
X108930000Y-79800000D02*
X108910000Y-79820000D01*
X130920000Y-70135000D02*
X130920000Y-72170000D01*
X156024500Y-74275000D02*
X156024500Y-74186000D01*
X166825000Y-62785000D02*
X166825000Y-60750000D01*
X156024500Y-74186000D02*
X157285500Y-72925000D01*
X152910000Y-85440000D02*
X152910000Y-82200000D01*
X148875000Y-91510000D02*
X148875000Y-89475000D01*
X148875000Y-89475000D02*
X152910000Y-85440000D01*
X94480000Y-96250000D02*
X94480000Y-98285000D01*
X112950000Y-88485000D02*
X112950000Y-86450000D01*
X108920000Y-96835000D02*
X108910000Y-96825000D01*
X130890000Y-82955000D02*
X130890000Y-84990000D01*
X167050000Y-93160000D02*
X167050000Y-91125000D01*
X148950000Y-99325000D02*
X148950000Y-101360000D01*
X148950000Y-99325000D02*
X152785000Y-99325000D01*
X152785000Y-99325000D02*
X152910000Y-99200000D01*
X141045000Y-84480000D02*
X143080000Y-84480000D01*
X130910000Y-95845000D02*
X130910000Y-97880000D01*
X135250000Y-100250000D02*
X127700000Y-100250000D01*
X113000000Y-98910000D02*
X113000000Y-96875000D01*
X127700000Y-100250000D02*
X127600000Y-100350000D01*
X186030000Y-89838520D02*
X186030000Y-94180000D01*
X180970020Y-86270020D02*
X177800000Y-83100000D01*
X181640000Y-86270020D02*
X182461500Y-86270020D01*
X181660000Y-96320000D02*
X181660000Y-102270000D01*
X172222000Y-65322000D02*
X169620000Y-65322000D01*
X174902010Y-80202010D02*
X174902010Y-68002010D01*
X186030000Y-94180000D02*
X183800000Y-94180000D01*
X170946400Y-58972000D02*
X183590000Y-58972000D01*
X177800000Y-83100000D02*
X174902010Y-80202010D01*
X183800000Y-94180000D02*
X181660000Y-96320000D01*
X183590000Y-58972000D02*
X184860000Y-60242000D01*
X174902010Y-68002010D02*
X172222000Y-65322000D01*
X181640000Y-86270020D02*
X180970020Y-86270020D01*
X182461500Y-86270020D02*
X186030000Y-89838520D01*
X186166400Y-61512000D02*
X186166400Y-64052000D01*
X178248500Y-86279620D02*
X179070000Y-86279620D01*
X177660000Y-96320000D02*
X177660000Y-86868120D01*
X177660000Y-102240000D02*
X178300000Y-101600000D01*
X178300000Y-101600000D02*
X178300000Y-96960000D01*
X177660000Y-102270000D02*
X177660000Y-102240000D01*
X177660000Y-86868120D02*
X178248500Y-86279620D01*
X178300000Y-96960000D02*
X177660000Y-96320000D01*
X170946400Y-64052000D02*
X183590000Y-64052000D01*
X183590000Y-64052000D02*
X184860000Y-65322000D01*
X65400000Y-98300000D02*
X65400000Y-102970000D01*
X67910000Y-88480000D02*
X67910000Y-95790000D01*
X65400000Y-102970000D02*
X67910000Y-105480000D01*
X67910000Y-95790000D02*
X65400000Y-98300000D01*
X184106000Y-67862000D02*
X182880000Y-69088000D01*
X184733000Y-67862000D02*
X184106000Y-67862000D01*
X182880000Y-69088000D02*
X179832000Y-69088000D01*
X179832000Y-69088000D02*
X179832000Y-69088000D01*
X165700000Y-64363592D02*
X165700000Y-65700000D01*
X155086401Y-62749991D02*
X155886400Y-63549990D01*
X67910000Y-71480000D02*
X67910000Y-78790000D01*
X155886400Y-63549990D02*
X160613600Y-63549990D01*
X133250010Y-62149990D02*
X134100000Y-61300000D01*
X83220000Y-71480000D02*
X85100000Y-69600000D01*
X88300000Y-71000000D02*
X94063590Y-71000000D01*
X136549990Y-61949990D02*
X141113600Y-61949990D01*
X166592000Y-66592000D02*
X170946400Y-66592000D01*
X67910000Y-71480000D02*
X83220000Y-71480000D01*
X86900000Y-69600000D02*
X88300000Y-71000000D01*
X135900000Y-61300000D02*
X136549990Y-61949990D01*
X147349990Y-61449990D02*
X150171234Y-61449991D01*
X146749990Y-60849990D02*
X147349990Y-61449990D01*
X150171234Y-61449991D02*
X151471233Y-62749990D01*
X160613600Y-63549990D02*
X161213600Y-62949990D01*
X85100000Y-69600000D02*
X86900000Y-69600000D01*
X94063590Y-71000000D02*
X101934601Y-63128989D01*
X151471233Y-62749990D02*
X155086401Y-62749991D01*
X106886400Y-64949990D02*
X115677190Y-64949990D01*
X65400000Y-85970000D02*
X67910000Y-88480000D01*
X101934601Y-63128989D02*
X105065400Y-63128990D01*
X115677190Y-64949990D02*
X120627200Y-59999980D01*
X134100000Y-61300000D02*
X135900000Y-61300000D01*
X161213600Y-62949990D02*
X164286398Y-62949990D01*
X67910000Y-78790000D02*
X65400000Y-81300000D01*
X164286398Y-62949990D02*
X165700000Y-64363592D01*
X124757493Y-62149990D02*
X133250010Y-62149990D01*
X141113600Y-61949990D02*
X142213600Y-60849990D01*
X165700000Y-65700000D02*
X166592000Y-66592000D01*
X142213600Y-60849990D02*
X146749990Y-60849990D01*
X65400000Y-81300000D02*
X65400000Y-85970000D01*
X120627200Y-59999980D02*
X122607484Y-59999981D01*
X122607484Y-59999981D02*
X124757493Y-62149990D01*
X105065400Y-63128990D02*
X106886400Y-64949990D01*
X83400000Y-102970000D02*
X85910000Y-105480000D01*
X85910000Y-95790000D02*
X83400000Y-98300000D01*
X83400000Y-98300000D02*
X83400000Y-102970000D01*
X85910000Y-88480000D02*
X85910000Y-95790000D01*
X83400000Y-85970000D02*
X85910000Y-88480000D01*
X85910000Y-78790000D02*
X83400000Y-81300000D01*
X83400000Y-81300000D02*
X83400000Y-85970000D01*
X85910000Y-71480000D02*
X85910000Y-78790000D01*
X182880000Y-71628000D02*
X179832000Y-71628000D01*
X184106000Y-70402000D02*
X182880000Y-71628000D01*
X184733000Y-70402000D02*
X184106000Y-70402000D01*
X179832000Y-71628000D02*
X179832000Y-71628000D01*
X141300000Y-62400000D02*
X142400000Y-61300000D01*
X164100001Y-63400000D02*
X165200000Y-64500000D01*
X85910000Y-71480000D02*
X94220000Y-71480000D01*
X138027179Y-62400000D02*
X141300000Y-62400000D01*
X94220000Y-71480000D02*
X102121001Y-63578999D01*
X149984833Y-61900000D02*
X151284833Y-63200000D01*
X115863590Y-65400000D02*
X120813600Y-60449990D01*
X142400000Y-61300000D02*
X146500000Y-61300000D01*
X136127201Y-64299978D02*
X138027179Y-62400000D01*
X151284833Y-63200000D02*
X154900000Y-63200000D01*
X165200000Y-68332000D02*
X166000000Y-69132000D01*
X106700000Y-65400000D02*
X115863590Y-65400000D01*
X147100000Y-61900000D02*
X149984833Y-61900000D01*
X120813600Y-60449990D02*
X122421083Y-60449990D01*
X160800000Y-64000000D02*
X161400000Y-63400000D01*
X104878999Y-63578999D02*
X106700000Y-65400000D01*
X134227198Y-64299978D02*
X136127201Y-64299978D01*
X161400000Y-63400000D02*
X164100001Y-63400000D01*
X102121001Y-63578999D02*
X104878999Y-63578999D01*
X124571093Y-62600000D02*
X132527220Y-62600000D01*
X122421083Y-60449990D02*
X124571093Y-62600000D01*
X165200000Y-64500000D02*
X165200000Y-68332000D01*
X166000000Y-69132000D02*
X170946400Y-69132000D01*
X146500000Y-61300000D02*
X147100000Y-61900000D01*
X132527220Y-62600000D02*
X134227198Y-64299978D01*
X155700000Y-64000000D02*
X160800000Y-64000000D01*
X154900000Y-63200000D02*
X155700000Y-64000000D01*
X103910000Y-64980000D02*
X103910000Y-72290000D01*
X103910000Y-72290000D02*
X101400000Y-74800000D01*
X101400000Y-79470000D02*
X103910000Y-81980000D01*
X101400000Y-74800000D02*
X101400000Y-79470000D01*
X101400000Y-91800000D02*
X101400000Y-96470000D01*
X101400000Y-96470000D02*
X103910000Y-98980000D01*
X103910000Y-89290000D02*
X101400000Y-91800000D01*
X103910000Y-81980000D02*
X103910000Y-89290000D01*
X182880000Y-74168000D02*
X179832000Y-74168000D01*
X184733000Y-72942000D02*
X184106000Y-72942000D01*
X184106000Y-72942000D02*
X182880000Y-74168000D01*
X179832000Y-74168000D02*
X179832000Y-74168000D01*
X167744821Y-71672000D02*
X164700000Y-68627179D01*
X145369991Y-64179991D02*
X145351001Y-64161001D01*
X155425011Y-64450011D02*
X160986400Y-64450011D01*
X132340820Y-63050011D02*
X124384693Y-63050011D01*
X121000000Y-60900001D02*
X115964002Y-65935999D01*
X104925999Y-65935999D02*
X103910000Y-64920000D01*
X122234683Y-60900001D02*
X121000000Y-60900001D01*
X145870011Y-64179991D02*
X146191002Y-63859000D01*
X163913601Y-63850011D02*
X161586400Y-63850011D01*
X124384693Y-63050011D02*
X122234683Y-60900001D01*
X170946400Y-71672000D02*
X167744821Y-71672000D01*
X164700000Y-64636410D02*
X163913601Y-63850011D01*
X161586400Y-63850011D02*
X160986400Y-64450011D01*
X146191002Y-63859000D02*
X154834000Y-63859000D01*
X142397411Y-64161001D02*
X141136410Y-62900000D01*
X136313601Y-64749989D02*
X134040798Y-64749989D01*
X145351001Y-64161001D02*
X142397411Y-64161001D01*
X154834000Y-63859000D02*
X155425011Y-64450011D01*
X164700000Y-68627179D02*
X164700000Y-64636410D01*
X145870011Y-64179991D02*
X145369991Y-64179991D01*
X138163590Y-62900000D02*
X136313601Y-64749989D01*
X134040798Y-64749989D02*
X132340820Y-63050011D01*
X115964002Y-65935999D02*
X104925999Y-65935999D01*
X141136410Y-62900000D02*
X138163590Y-62900000D01*
X119400000Y-93970000D02*
X121910000Y-96480000D01*
X119400000Y-89300000D02*
X119400000Y-93970000D01*
X121910000Y-79480000D02*
X121910000Y-86790000D01*
X121910000Y-86790000D02*
X119400000Y-89300000D01*
X119400000Y-76970000D02*
X121910000Y-79480000D01*
X121910000Y-62480000D02*
X121910000Y-69790000D01*
X121910000Y-69790000D02*
X119400000Y-72300000D01*
X119400000Y-72300000D02*
X119400000Y-76970000D01*
X182880000Y-76708000D02*
X179832000Y-76708000D01*
X184106000Y-75482000D02*
X182880000Y-76708000D01*
X184733000Y-75482000D02*
X184106000Y-75482000D01*
X179832000Y-76708000D02*
X179832000Y-76708000D01*
X132450000Y-107090000D02*
X121910000Y-96550000D01*
X157150010Y-64949989D02*
X160386400Y-64949989D01*
X134010000Y-107090000D02*
X132450000Y-107090000D01*
X122850022Y-63500022D02*
X121910000Y-62560000D01*
X138300000Y-63400000D02*
X136500000Y-65200000D01*
X136500000Y-65200000D02*
X133854398Y-65200000D01*
X142229999Y-64630001D02*
X140999999Y-63400000D01*
X168136000Y-74212000D02*
X170946400Y-74212000D01*
X167412000Y-71975590D02*
X167412000Y-73488000D01*
X151025547Y-66837500D02*
X148818048Y-64630001D01*
X140999999Y-63400000D02*
X138300000Y-63400000D01*
X148818048Y-64630001D02*
X142229999Y-64630001D01*
X167412000Y-73488000D02*
X168136000Y-74212000D01*
X155262500Y-66837500D02*
X151025547Y-66837500D01*
X133854398Y-65200000D02*
X132154420Y-63500022D01*
X160386400Y-64949989D02*
X167412000Y-71975590D01*
X155262500Y-66837500D02*
X157150010Y-64949989D01*
X132154420Y-63500022D02*
X122850022Y-63500022D01*
X137400000Y-74800000D02*
X137400000Y-79470000D01*
X139910000Y-72290000D02*
X137400000Y-74800000D01*
X139910000Y-64980000D02*
X139910000Y-72290000D01*
X137400000Y-79470000D02*
X139910000Y-81980000D01*
X139910000Y-89290000D02*
X137400000Y-91800000D01*
X137400000Y-96470000D02*
X139910000Y-98980000D01*
X139910000Y-81980000D02*
X139910000Y-89290000D01*
X137400000Y-91800000D02*
X137400000Y-96470000D01*
X179959000Y-79248000D02*
X179959000Y-79248000D01*
X160200000Y-65400000D02*
X157336410Y-65400000D01*
X155386400Y-67350011D02*
X154024989Y-67350011D01*
X184233000Y-78022000D02*
X183007000Y-79248000D01*
X184860000Y-78022000D02*
X184233000Y-78022000D01*
X150475000Y-70900000D02*
X147700000Y-70900000D01*
X154024989Y-67350011D02*
X150475000Y-70900000D01*
X166950011Y-74850011D02*
X166950011Y-72213600D01*
X170946400Y-76752000D02*
X168852000Y-76752000D01*
X166950011Y-72213600D02*
X160200000Y-65463590D01*
X141720000Y-64920000D02*
X139910000Y-64920000D01*
X154120994Y-108415000D02*
X155587032Y-109881038D01*
X183007000Y-79248000D02*
X179959000Y-79248000D01*
X139910000Y-98925000D02*
X149400000Y-108415000D01*
X168852000Y-76752000D02*
X166950011Y-74850011D01*
X149400000Y-108415000D02*
X154120994Y-108415000D01*
X157336410Y-65400000D02*
X155386400Y-67350011D01*
X160200000Y-65463590D02*
X160200000Y-65400000D01*
X147700000Y-70900000D02*
X141720000Y-64920000D01*
X183007000Y-81788000D02*
X179959000Y-81788000D01*
X184233000Y-80562000D02*
X183007000Y-81788000D01*
X184860000Y-80562000D02*
X184233000Y-80562000D01*
X179959000Y-81788000D02*
X179959000Y-81788000D01*
X157910000Y-91790000D02*
X157910000Y-84480000D01*
X157910000Y-84480000D02*
X155400000Y-81970000D01*
X155400000Y-98970000D02*
X155400000Y-94300000D01*
X156150000Y-68700000D02*
X156510000Y-68700000D01*
X166500000Y-77900000D02*
X167892000Y-79292000D01*
X157910000Y-67300000D02*
X161400000Y-67300000D01*
X155400000Y-94300000D02*
X157910000Y-91790000D01*
X156510000Y-68700000D02*
X157910000Y-67300000D01*
X167892000Y-79292000D02*
X170946400Y-79292000D01*
X166500000Y-72400000D02*
X166500000Y-77900000D01*
X157910000Y-101300000D02*
X157910000Y-104199550D01*
X155400000Y-69450000D02*
X156150000Y-68700000D01*
X161400000Y-67300000D02*
X166500000Y-72400000D01*
X157910000Y-104199550D02*
X169550450Y-115840000D01*
X155400000Y-81970000D02*
X155400000Y-69450000D01*
X157910000Y-101480000D02*
X155400000Y-98970000D01*
X184660000Y-96320000D02*
X184660000Y-102270000D01*
X183590000Y-61512000D02*
X184860000Y-62782000D01*
X170946400Y-61512000D02*
X183590000Y-61512000D01*
X181483000Y-84328000D02*
X184835000Y-87680000D01*
X179959000Y-84328000D02*
X181483000Y-84328000D01*
X184835000Y-87680000D02*
X186030000Y-87680000D01*
X174722000Y-90678000D02*
X173078000Y-90678000D01*
X173479990Y-71079990D02*
X172802000Y-70402000D01*
X172593000Y-90193000D02*
X172593000Y-85807000D01*
X176470000Y-86299620D02*
X175648500Y-86299620D01*
X175300000Y-90100000D02*
X174722000Y-90678000D01*
X186166400Y-69132000D02*
X183598000Y-69132000D01*
X175300000Y-86648120D02*
X175300000Y-90100000D01*
X173078000Y-90678000D02*
X172593000Y-90193000D01*
X182328000Y-70402000D02*
X177800000Y-70402000D01*
X173479990Y-84920010D02*
X173479990Y-71079990D01*
X172593000Y-85807000D02*
X173479990Y-84920010D01*
X175648500Y-86299620D02*
X175300000Y-86648120D01*
X183598000Y-69132000D02*
X182328000Y-70402000D01*
X172802000Y-70402000D02*
X169620000Y-70402000D01*
X182328000Y-67862000D02*
X177800000Y-67862000D01*
X173930000Y-86329620D02*
X173930000Y-69730000D01*
X186166400Y-66592000D02*
X183598000Y-66592000D01*
X173930000Y-69730000D02*
X172062000Y-67862000D01*
X183598000Y-66592000D02*
X182328000Y-67862000D01*
X172062000Y-67862000D02*
X169620000Y-67862000D01*
X173930000Y-87330380D02*
X173930000Y-89440000D01*
X176470000Y-87300380D02*
X176470000Y-89440000D01*
X181640000Y-89350000D02*
X181550000Y-89440000D01*
X181640000Y-87270780D02*
X181640000Y-89350000D01*
X179070000Y-89380000D02*
X179010000Y-89440000D01*
X179070000Y-87280380D02*
X179070000Y-89380000D01*
X176160000Y-98070000D02*
X176160000Y-100520000D01*
X183590000Y-56432000D02*
X184860000Y-57702000D01*
X170946400Y-56432000D02*
X183590000Y-56432000D01*
X76975000Y-68185000D02*
X76975000Y-66150000D01*
X62870000Y-69380000D02*
X62910000Y-69380000D01*
X76850000Y-85985000D02*
X76850000Y-83950000D01*
X76975000Y-103335000D02*
X76975000Y-101300000D01*
M02*
