0
SECTION
2
HEADER
9
$INSUNITS
70
4
9
$ACADVER
1
AC1014
9
$HANDSEED
5
FFFF
0
ENDSEC
0
SECTION
2
TABLES
0
TABLE
2
VPORT
5
8
100
AcDbSymbolTable
0
ENDTAB
0
TABLE
2
LTYPE
5
5
100
AcDbSymbolTable
0
LTYPE
5
14
100
AcDbSymbolTableRecord
100
AcDbLinetypeTableRecord
2
BYBLOCK
70
0
0
LTYPE
5
15
100
AcDbSymbolTableRecord
100
AcDbLinetypeTableRecord
2
BYLAYER
70
0
0
ENDTAB
0
TABLE
2
LAYER
5
2
100
AcDbSymbolTable
70
2
0
LAYER
5
50
100
AcDbSymbolTableRecord
100
AcDbLayerTableRecord
2
0
70
0
6
CONTINUOUS
0
ENDTAB
0
TABLE
2
STYLE
5
3
100
AcDbSymbolTable
70
1
0
STYLE
5
11
100
AcDbSymbolTableRecord
100
AcDbTextStyleTableRecord
2
STANDARD
70
0
0
ENDTAB
0
TABLE
2
VIEW
5
6
100
AcDbSymbolTable
70
0
0
ENDTAB
0
TABLE
2
UCS
5
7
100
AcDbSymbolTable
70
0
0
ENDTAB
0
TABLE
2
APPID
5
9
100
AcDbSymbolTable
70
2
0
APPID
5
12
100
AcDbSymbolTableRecord
100
AcDbRegAppTableRecord
2
ACAD
70
0
0
ENDTAB
0
TABLE
2
DIMSTYLE
5
A
100
AcDbSymbolTable
70
1
0
ENDTAB
0
TABLE
2
BLOCK_RECORD
5
1
100
AcDbSymbolTable
70
1
0
BLOCK_RECORD
5
1F
100
AcDbSymbolTableRecord
100
AcDbBlockTableRecord
2
*MODEL_SPACE
0
BLOCK_RECORD
5
1B
100
AcDbSymbolTableRecord
100
AcDbBlockTableRecord
2
*PAPER_SPACE
0
ENDTAB
0
ENDSEC
0
SECTION
2
BLOCKS
0
BLOCK
5
20
100
AcDbEntity
100
AcDbBlockBegin
2
*MODEL_SPACE
0
ENDBLK
5
21
100
AcDbEntity
100
AcDbBlockEnd
0
BLOCK
5
1C
100
AcDbEntity
100
AcDbBlockBegin
2
*PAPER_SPACE
0
ENDBLK
5
1D
100
AcDbEntity
100
AcDbBlockEnd
0
ENDSEC
0
SECTION
2
ENTITIES
0
LWPOLYLINE
5
100
100
AcDbEntity
8
0
100
AcDbPolyline
90
148
70
1
43
0.0
10
-42.918812999999965
20
109.99524300000022
10
-14.660433275378185
20
103.47128142468536
42
-0.3541367614581582
10
-13.885537783725042
20
102.47939430027044
42
0.35413676252769188
10
-13.11064228836792
20
101.48750717500039
10
18.667910414405281
20
94.150849688735661
42
0.41421356125968534
10
19.867231544034762
20
94.900268677300446
10
21.373348564638093
20
101.42397765176212
42
-0.28674538525977872
10
22.122767587486631
20
102.1733966475842
10
56.002908999998908
20
109.99524300000481
10
56.891546000000076
20
110.17927499999963
10
57.787618000000037
20
110.32280499999985
10
58.689277999999987
20
110.4255370000002
10
59.594670000000001
20
110.48725899999997
10
60.501930000000002
20
110.50784100000001
10
113.87450800000002
20
110.50784100000001
10
114.065321
20
110.489475
10
114.24912500000003
20
110.43503700000004
10
114.41916400000002
20
110.34652700000002
10
114.56919000000002
20
110.22719700000005
10
114.69368900000003
20
110.08143300000002
10
114.78808799999997
20
109.91459099999999
10
114.84887799999996
20
109.732793
10
125.86556300001544
20
62.014289000003558
10
125.89072500000003
20
61.81987500000001
10
125.877476
20
61.624287000000002
10
125.82632600000005
20
61.435041999999996
10
125.73924099999998
20
61.259412000000012
10
125.61956499999995
20
61.104145000000045
10
125.47190000000001
20
60.975207000000026
10
125.30191699999997
20
60.87755400000006
10
125.11614400000005
20
60.814967999999965
10
109.79779199999885
20
57.278448000005007
10
108.90915200000009
20
57.094423999999613
10
108.01308099999997
20
56.95089900000022
10
107.11142100000004
20
56.848167999999916
10
106.20602900000002
20
56.78644300000002
10
105.29877000000002
20
56.765849000000017
10
89.104009000000005
20
56.765849000000017
10
63.922149000002321
20
50.95215899998999
10
63.74036599999998
20
50.891329000000084
10
63.573528999999986
20
50.796933000000024
10
63.427767000000031
20
50.672438999999969
10
63.308435999999944
20
50.522421000000065
10
63.219919999999952
20
50.352391000000026
10
63.165471000000011
20
50.168596000000001
10
63.147099999999995
20
49.977789000000001
10
63.147100000000009
20
34.767100999999997
10
63.127845999999998
20
34.572026000000008
10
63.070915999999926
20
34.384453000000022
10
62.978496000000007
20
34.211584999999999
10
62.854137000000023
20
34.060059999999979
10
62.702614000000025
20
33.935698999999971
10
62.529747
20
33.843278000000005
10
62.342174
20
33.786346000000016
10
62.147100000000002
20
33.767100999999997
10
47.958089999999999
20
33.767101000000004
10
47.767277999999997
20
33.748735000000011
10
47.583476000000012
20
33.694295999999937
10
47.413439999999973
20
33.605784000000071
10
47.263417999999987
20
33.486453000000019
10
47.138923000000091
20
33.340686999999932
10
47.044530999999964
20
33.173844000000024
10
46.983719999999977
20
32.992052000000015
10
46.045442000000435
20
28.927923999999901
10
45.987014000000059
20
28.751428999999984
10
45.896912
20
28.588808
10
45.778251000000083
20
28.445686999999932
10
45.63513800000004
20
28.327015999999947
10
45.472522999999995
20
28.236902000000015
10
45.296023000000019
20
28.178504999999912
10
27.551989999998771
20
24.081972000005337
10
26.663351999999961
20
23.897944000000209
10
25.76728000000001
20
23.754416999999929
10
24.86562000000001
20
23.651685999999913
10
23.960229000000002
20
23.589961999999971
10
23.052969000000001
20
23.569372999999981
10
-9.9688730000000003
20
23.569373000000002
10
-10.876133000000001
20
23.589962
10
-11.781525000000004
20
23.651684999999986
10
-12.683183999999974
20
23.754416000000251
10
-13.579256000000001
20
23.897943999999995
10
-14.46789400000004
20
24.081971999999805
10
-32.211927000001232
20
28.178504999994672
10
-32.388390999999991
20
28.23697900000003
10
-32.550983000000002
20
28.327103999999999
10
-32.694082999999992
20
28.445768000000019
10
-32.812747000000016
20
28.588867999999998
10
-32.902871999999995
20
28.751460000000009
10
-32.961346000000042
20
28.92792399999999
10
-33.899622999998577
20
32.992052000000328
10
-33.960447999999921
20
33.173838000000032
10
-34.054841000000017
20
33.34067799999999
10
-34.17933499999998
20
33.486441000000021
10
-34.329354000000002
20
33.605772000000009
10
-34.499387000000027
20
33.694285999999956
10
-34.68318499999998
20
33.748729000000083
10
-34.87399400000001
20
33.767101999999994
10
-49.063004000000006
20
33.767100999999997
10
-49.258094
20
33.786315999999992
10
-49.445688000000004
20
33.843220999999993
10
-49.61857400000001
20
33.935630999999979
10
-49.770111000000043
20
34.059993999999961
10
-49.89447399999996
20
34.211531000000043
10
-49.986883999999982
20
34.38441700000002
10
-50.043788999999997
20
34.572011000000003
10
-50.063003999999992
20
34.767100999999997
10
-50.063003999999999
20
49.977789000000001
10
-50.081376000000006
20
50.168598000000003
10
-50.13581900000009
20
50.352395999999978
10
-50.224332999999959
20
50.522429000000031
10
-50.343662999999992
20
50.672448000000017
10
-50.489427000000035
20
50.796941999999987
10
-50.656266999999993
20
50.891335000000026
10
-50.838053000000009
20
50.95215900000003
10
-73.79960400000013
20
56.253250999999494
10
-74.688242000000045
20
56.437278999999805
10
-75.584314000000006
20
56.580807
10
-76.485972999999987
20
56.683538000000254
10
-77.391365000000008
20
56.745261000000006
10
-78.29862500000003
20
56.765850000000015
10
-92.214674000000016
20
56.76584900000001
10
-93.121934999999993
20
56.786437999999997
10
-94.027326999999985
20
56.84816099999999
10
-94.928985999999966
20
56.950892000000266
10
-95.825057999999999
20
57.094420000000014
10
-96.713696000000041
20
57.278447999999798
10
-112.0320480000012
20
60.814967999994991
10
-112.21781600000001
20
60.877575999999948
10
-112.38780000000003
20
60.975223000000014
10
-112.53546800000002
20
61.104154999999992
10
-112.65514500000002
20
61.259419000000015
10
-112.742232
20
61.435047000000012
10
-112.79338299999998
20
61.624290000000016
10
-112.806631
20
61.819876000000001
10
-112.78146699999999
20
62.014288999999998
10
-101.76478199998459
20
109.73279299999646
10
-101.70395799999997
20
109.91457799999999
10
-101.60956400000001
20
110.08141800000001
10
-101.48507100000003
20
110.22718100000003
10
-101.33505100000006
20
110.34651200000008
10
-101.165019
20
110.435025
10
-100.98122100000003
20
110.4894680000001
10
-100.790412
20
110.50784100000001
10
-47.417833999999999
20
110.50784100000001
10
-46.510573999999998
20
110.48725300000001
10
-45.605181999999999
20
110.42553000000001
10
-44.703523000000025
20
110.32279899999975
10
-43.807451000000015
20
110.17927100000001
0
LWPOLYLINE
5
101
100
AcDbEntity
8
0
100
AcDbPolyline
90
4
70
1
43
0.0
10
-98.948218000000011
20
108.596389
10
-102.09753300000024
20
94.955208000000056
10
-88.456352000000066
20
91.80589299999977
10
-85.307036999999767
20
105.44707399999994
0
LWPOLYLINE
5
102
100
AcDbEntity
8
0
100
AcDbPolyline
90
4
70
1
43
0.0
10
-26.923950000000005
20
100.49814499999999
10
-30.073265000000223
20
86.856964000000062
10
-16.432084000000053
20
83.707648999999776
10
-13.282768999999776
20
97.348829999999964
0
LWPOLYLINE
5
103
100
AcDbEntity
8
0
100
AcDbPolyline
90
4
70
1
43
0.0
10
-84.298915000000022
20
92.032093000000003
10
-87.448230000000251
20
78.390912000000057
10
-73.807049000000063
20
75.241596999999771
10
-70.657733999999806
20
88.882777999999959
0
LWPOLYLINE
5
104
100
AcDbEntity
8
0
100
AcDbPolyline
90
4
70
1
43
0.0
10
-47.351968999999997
20
92.032093000000003
10
-50.501284000000226
20
78.390912000000057
10
-36.860103000000059
20
75.241596999999786
10
-33.710787999999788
20
88.882777999999959
0
LWPOLYLINE
5
105
100
AcDbEntity
8
0
100
AcDbPolyline
90
4
70
1
43
0.0
10
-65.825445000000002
20
92.032093000000003
10
-68.974760000000231
20
78.390912000000057
10
-55.333579000000057
20
75.241596999999786
10
-52.184263999999786
20
88.882777999999959
0
LWPOLYLINE
5
106
100
AcDbEntity
8
0
100
AcDbPolyline
90
4
70
1
43
0.0
10
-102.77239400000001
20
92.032097000000007
10
-105.92170900000025
20
78.390916000000061
10
-92.280528000000061
20
75.241600999999775
10
-89.131212999999804
20
88.882781999999949
0
CIRCLE
5
107
100
AcDbEntity
8
0
100
AcDbCircle
10
-85.071960000000004
20
97.582060000000013
30
0
40
1.1500000000000021
210
0
220
0
230
1
0
LWPOLYLINE
5
108
100
AcDbEntity
8
0
100
AcDbPolyline
90
4
70
1
43
0.0
10
-62.001277000000016
20
108.59638099999999
10
-65.150592000000231
20
94.955200000000062
10
-51.509411000000057
20
91.805884999999776
10
-48.360095999999793
20
105.44706599999996
0
LWPOLYLINE
5
109
100
AcDbEntity
8
0
100
AcDbPolyline
90
4
70
1
43
0.0
10
-80.474753000000021
20
108.59637600000001
10
-83.62406800000025
20
94.95519500000006
10
-69.982887000000062
20
91.805879999999789
10
-66.833571999999776
20
105.44706099999996
0
LWPOLYLINE
5
110
100
AcDbEntity
8
0
100
AcDbPolyline
90
4
70
1
43
0.0
10
101.20719600000001
20
75.467799999999997
10
87.56601500000005
20
72.318484999999782
10
90.715330000000236
20
58.677304000000056
10
104.35651099999998
20
61.826619000000221
0
LWPOLYLINE
5
111
100
AcDbEntity
8
0
100
AcDbPolyline
90
4
70
1
43
0.0
10
47.65639800000001
20
67.369567000000018
10
34.01521700000005
20
64.220251999999789
10
37.164532000000222
20
50.579071000000056
10
50.805712999999947
20
53.728386000000228
0
CIRCLE
5
112
100
AcDbEntity
8
0
100
AcDbCircle
10
22.816058000000005
20
27.042059999999999
30
0
40
1.1500000000000021
210
0
220
0
230
1
0
CIRCLE
5
113
100
AcDbEntity
8
0
100
AcDbCircle
10
61.25605800000001
20
97.452060000000017
30
0
40
1.1500000000000021
210
0
220
0
230
1
0
LWPOLYLINE
5
114
100
AcDbEntity
8
0
100
AcDbPolyline
90
4
70
1
43
0.0
10
112.03233100000003
20
108.59638500000001
10
98.391150000000053
20
105.44706999999977
10
101.54046500000022
20
91.80588900000005
10
115.18164599999994
20
94.955204000000236
0
LWPOLYLINE
5
115
100
AcDbEntity
8
0
100
AcDbPolyline
90
35
70
1
43
0.0
10
16.221977000000003
20
45.866582000000008
10
15.999907000000011
20
45.836500999999927
10
15.786776999999985
20
45.767251000000044
10
15.589437000000022
20
45.661057999999962
10
15.414229999999984
20
45.521335000000022
10
15.266787000000036
20
45.352572999999971
10
15.151847000000046
20
45.160195999999971
10
15.073103999999981
20
44.950387000000013
10
15.033090000000012
20
44.729889999999997
10
15.03309
20
44.505792
10
15.07310399999999
20
44.285294999999998
10
15.151847000000023
20
44.075486000000012
10
15.26678699999996
20
43.883108999999969
10
15.414229999999964
20
43.714346999999961
10
15.589437000000022
20
43.574624000000028
10
15.786776999999987
20
43.468430999999974
10
15.999907000000018
20
43.399181000000048
10
16.221976999999992
20
43.369099999999925
10
16.44585
20
43.379153999999993
10
16.664329000000016
20
43.429019999999937
10
16.870393999999955
20
43.517097000000113
10
17.057420000000008
20
43.640551999999992
10
17.219397000000004
20
43.795417999999991
10
17.351118999999958
20
43.976717000000029
10
17.448351999999939
20
44.178622000000026
10
17.507969999999897
20
44.394645000000025
10
17.528058000000009
20
44.617840999999991
10
17.507969999999997
20
44.841037
10
17.448352000000106
20
45.057060000000028
10
17.351119000000061
20
45.258965000000032
10
17.219396999999901
20
45.440263999999928
10
17.057420000000004
20
45.59512999999999
10
16.870393999999994
20
45.71858499999999
10
16.664329000000045
20
45.806662000000109
10
16.445849999999989
20
45.85652799999994
0
CIRCLE
5
116
100
AcDbEntity
8
0
100
AcDbCircle
10
68.946057999999994
20
64.092060000000004
30
0
40
1.1500000000000021
210
0
220
0
230
1
0
LWPOLYLINE
5
117
100
AcDbEntity
8
0
100
AcDbPolyline
90
4
70
1
43
0.0
10
-88.123085000000003
20
75.467799999999997
10
-91.272400000000218
20
61.826619000000058
10
-77.631219000000058
20
58.677303999999779
10
-74.481903999999787
20
72.318484999999953
0
CIRCLE
5
118
100
AcDbEntity
8
0
100
AcDbCircle
10
98.156058000000002
20
97.582060000000013
30
0
40
1.1500000000000021
210
0
220
0
230
1
0
LWPOLYLINE
5
119
100
AcDbEntity
8
0
100
AcDbPolyline
90
4
70
1
43
0.0
10
31.052552000000002
20
59.271327999999997
10
17.411371000000056
20
56.122012999999775
10
20.560686000000224
20
42.480832000000049
10
34.20186699999995
20
45.630147000000214
0
LWPOLYLINE
5
120
100
AcDbEntity
8
0
100
AcDbPolyline
90
4
70
1
43
0.0
10
-27.385291000000002
20
42.971905
10
-30.534606000000224
20
29.330724000000057
10
-16.893425000000054
20
26.181408999999785
10
-13.744109999999779
20
39.822589999999948
0
LWPOLYLINE
5
121
100
AcDbEntity
8
0
100
AcDbPolyline
90
4
70
1
43
0.0
10
64.260247000000007
20
75.467799000000014
10
50.619066000000061
20
72.318483999999785
10
53.768381000000225
20
58.677303000000059
10
67.409561999999937
20
61.826618000000231
0
CIRCLE
5
122
100
AcDbEntity
8
0
100
AcDbCircle
10
34.536057999999997
20
52.88206000000001
30
0
40
1.1500000000000021
210
0
220
0
230
1
0
LWPOLYLINE
5
123
100
AcDbEntity
8
0
100
AcDbPolyline
90
4
70
1
43
0.0
10
82.733722000000029
20
75.467798000000016
10
69.092541000000054
20
72.318482999999787
10
72.24185600000024
20
58.677302000000054
10
85.883036999999959
20
61.826617000000226
0
CIRCLE
5
124
100
AcDbEntity
8
0
100
AcDbCircle
10
-9.7319600000000008
20
27.042059999999999
30
0
40
1.1499999999999999
210
0
220
0
230
1
0
LWPOLYLINE
5
125
100
AcDbEntity
8
0
100
AcDbPolyline
90
4
70
1
43
0.0
10
46.64711100000001
20
49.267101000000004
10
46.64711100000001
20
35.267100999999997
10
60.647111000000002
20
35.267100999999997
10
60.647111000000002
20
49.267101000000004
0
LWPOLYLINE
5
126
100
AcDbEntity
8
0
100
AcDbPolyline
90
4
70
1
43
0.0
10
-0.45794200000000007
20
39.069372999999999
10
-0.45794200000000007
20
25.069373000000002
10
13.542058000000001
20
25.069373000000006
10
13.542057999999999
20
39.069372999999999
0
LWPOLYLINE
5
127
100
AcDbEntity
8
0
100
AcDbPolyline
90
35
70
1
43
0.0
10
-3.3780230000000024
20
45.866582000000008
10
-3.6000929999999922
20
45.836500999999927
10
-3.8132230000000167
20
45.767251000000051
10
-4.0105629999999799
20
45.661057999999954
10
-4.1857700000000166
20
45.521335000000022
10
-4.3332129999999625
20
45.352572999999978
10
-4.4481529999999543
20
45.160195999999971
10
-4.526896000000022
20
44.950387000000013
10
-4.566909999999992
20
44.729889999999997
10
-4.56691
20
44.505792
10
-4.5268960000000105
20
44.285294999999998
10
-4.4481529999999809
20
44.075486000000012
10
-4.3332130000000459
20
43.883108999999969
10
-4.1857700000000406
20
43.714346999999961
10
-4.0105629999999799
20
43.574624000000021
10
-3.8132230000000176
20
43.468430999999967
10
-3.6000929999999847
20
43.399181000000056
10
-3.3780230000000127
20
43.369099999999925
10
-3.15415
20
43.379153999999993
10
-2.935670999999985
20
43.429019999999937
10
-2.7296060000000488
20
43.517097000000113
10
-2.542579999999993
20
43.640551999999992
10
-2.3806029999999923
20
43.795417999999984
10
-2.248881000000043
20
43.976717000000029
10
-2.1516480000000602
20
44.178622000000026
10
-2.0920300000001033
20
44.394645000000025
10
-2.0719419999999982
20
44.617840999999999
10
-2.0920300000000012
20
44.841037
10
-2.1516479999998985
20
45.057060000000028
10
-2.2488809999999386
20
45.258965000000032
10
-2.3806030000001015
20
45.440263999999928
10
-2.5425800000000049
20
45.59512999999999
10
-2.7296060000000062
20
45.71858499999999
10
-2.9356709999999584
20
45.806662000000102
10
-3.1541500000000129
20
45.856527999999948
0
LWPOLYLINE
5
128
100
AcDbEntity
8
0
100
AcDbPolyline
90
4
70
1
43
0.0
10
27.228382
20
75.835611000000014
10
13.587201000000054
20
72.6862959999998
10
16.736516000000226
20
59.04511500000006
10
30.377696999999948
20
62.194430000000231
0
LWPOLYLINE
5
129
100
AcDbEntity
8
0
100
AcDbPolyline
90
4
70
1
43
0.0
10
40.469405000000009
20
42.97190100000001
10
26.828224000000056
20
39.822585999999788
10
29.977539000000224
20
26.181405000000058
10
43.618719999999954
20
29.330720000000227
0
LWPOLYLINE
5
130
100
AcDbEntity
8
0
100
AcDbPolyline
90
4
70
1
43
0.0
10
-47.562998
20
49.267099999999999
10
-47.562998
20
35.267099999999999
10
-33.562998000000007
20
35.267099999999999
10
-33.562998000000007
20
49.267099999999999
0
CIRCLE
5
131
100
AcDbEntity
8
0
100
AcDbCircle
10
105.72605799999999
20
64.732060000000018
30
0
40
1.1500000000000021
210
0
220
0
230
1
0
LWPOLYLINE
5
132
100
AcDbEntity
8
0
100
AcDbPolyline
90
4
70
1
43
0.0
10
119.68066899999999
20
75.467796000000021
10
106.03948800000009
20
72.318480999999792
10
109.18880300000023
20
58.677300000000074
10
122.82998399999997
20
61.826615000000231
0
LWPOLYLINE
5
133
100
AcDbEntity
8
0
100
AcDbPolyline
90
4
70
1
43
0.0
10
43.832231999999998
20
83.933856000000006
10
30.191051000000058
20
80.784540999999791
10
33.34036600000023
20
67.143360000000058
10
46.981546999999949
20
70.29267500000023
0
LWPOLYLINE
5
134
100
AcDbEntity
8
0
100
AcDbPolyline
90
4
70
1
43
0.0
10
23.404216000000009
20
92.399904000000021
10
9.7630350000000572
20
89.250588999999792
10
12.912350000000227
20
75.609408000000059
10
26.55353099999995
20
78.758723000000231
0
LWPOLYLINE
5
135
100
AcDbEntity
8
0
100
AcDbPolyline
90
4
70
1
43
0.0
10
60.436075000000002
20
92.032089999999997
10
46.794894000000056
20
88.882774999999754
10
49.944209000000228
20
75.241594000000063
10
63.585389999999947
20
78.390909000000235
0
LWPOLYLINE
5
136
100
AcDbEntity
8
0
100
AcDbPolyline
90
4
70
1
43
0.0
10
93.558859000000012
20
108.59638099999999
10
79.917678000000052
20
105.44706599999977
10
83.066993000000224
20
91.80588500000006
10
96.708173999999957
20
94.955200000000247
0
LWPOLYLINE
5
137
100
AcDbEntity
8
0
100
AcDbPolyline
90
4
70
1
43
0.0
10
-17.968439999999998
20
59.271329000000001
10
-21.117755000000223
20
45.630148000000055
10
-7.4765740000000536
20
42.480832999999777
10
-4.3272589999997759
20
56.12201399999995
0
LWPOLYLINE
5
138
100
AcDbEntity
8
0
100
AcDbPolyline
90
4
70
1
43
0.0
10
75.085391999999999
20
108.59638099999998
10
61.44421100000006
20
105.44706599999977
10
64.593526000000224
20
91.80588500000006
10
78.234706999999958
20
94.955200000000247
0
LWPOLYLINE
5
139
100
AcDbEntity
8
0
100
AcDbPolyline
90
4
70
1
43
0.0
10
-69.649613000000002
20
75.467799000000014
10
-72.798928000000231
20
61.82661800000006
10
-59.157747000000057
20
58.677302999999782
10
-56.008431999999779
20
72.318483999999955
0
LWPOLYLINE
5
140
100
AcDbEntity
8
0
100
AcDbPolyline
90
4
70
1
43
0.0
10
56.611913000000001
20
108.59638099999999
10
42.970732000000055
20
105.44706599999977
10
46.12004700000022
20
91.80588500000006
10
59.761227999999953
20
94.955200000000247
0
CIRCLE
5
141
100
AcDbEntity
8
0
100
AcDbCircle
10
-92.641959999999997
20
64.732060000000018
30
0
40
1.1500000000000021
210
0
220
0
230
1
0
LWPOLYLINE
5
142
100
AcDbEntity
8
0
100
AcDbPolyline
90
4
70
1
43
0.0
10
-0.47194199999999964
20
56.867841000000006
10
-0.47194199999999964
20
42.867840999999999
10
13.528058000000001
20
42.867840999999999
10
13.528058000000001
20
56.867841000000006
0
CIRCLE
5
143
100
AcDbEntity
8
0
100
AcDbCircle
10
-21.45196
20
52.88206000000001
30
0
40
1.1499999999999977
210
0
220
0
230
1
0
LWPOLYLINE
5
144
100
AcDbEntity
8
0
100
AcDbPolyline
90
4
70
1
43
0.0
10
-34.572291
20
67.369562000000002
10
-37.721606000000222
20
53.728381000000056
10
-24.080425000000059
20
50.579065999999777
10
-20.931109999999784
20
64.220246999999958
0
LWPOLYLINE
5
145
100
AcDbEntity
8
0
100
AcDbPolyline
90
4
70
1
43
0.0
10
-51.176134000000005
20
75.467799000000014
10
-54.325449000000233
20
61.82661800000006
10
-40.684268000000053
20
58.677302999999782
10
-37.534952999999774
20
72.318483999999955
0
LWPOLYLINE
5
146
100
AcDbEntity
8
0
100
AcDbPolyline
90
4
70
1
43
0.0
10
40.008063
20
100.49814200000002
10
26.366882000000054
20
97.348826999999801
10
29.516197000000229
20
83.70764600000004
10
43.157377999999945
20
86.856961000000226
0
CIRCLE
5
147
100
AcDbEntity
8
0
100
AcDbCircle
10
-55.86196000000001
20
64.092060000000004
30
0
40
1.1500000000000021
210
0
220
0
230
1
0
LWPOLYLINE
5
148
100
AcDbEntity
8
0
100
AcDbPolyline
90
4
70
1
43
0.0
10
-14.144271000000003
20
75.835621000000003
10
-17.293586000000229
20
62.194440000000057
10
-3.6524050000000563
20
59.045124999999771
10
-0.50308999999977511
20
72.686305999999959
0
CIRCLE
5
149
100
AcDbEntity
8
0
100
AcDbCircle
10
27.176058000000005
20
84.962059999999994
30
0
40
1.1500000000000021
210
0
220
0
230
1
0
LWPOLYLINE
5
150
100
AcDbEntity
8
0
100
AcDbPolyline
90
4
70
1
43
0.0
10
-106.59655800000002
20
75.467803000000004
10
-109.74587300000024
20
61.826622000000057
10
-96.104692000000057
20
58.677306999999779
10
-92.955376999999771
20
72.318487999999959
0
LWPOLYLINE
5
151
100
AcDbEntity
8
0
100
AcDbPolyline
90
4
70
1
43
0.0
10
78.909555999999995
20
92.032098000000019
10
65.268375000000063
20
88.882782999999804
10
68.417690000000249
20
75.241602000000057
10
82.058870999999954
20
78.390917000000229
0
LWPOLYLINE
5
152
100
AcDbEntity
8
0
100
AcDbPolyline
90
4
70
1
43
0.0
10
97.38302400000002
20
92.032091000000008
10
83.741843000000074
20
88.88277599999978
10
86.891158000000246
20
75.241595000000061
10
100.53233899999995
20
78.390910000000233
0
LWPOLYLINE
5
153
100
AcDbEntity
8
0
100
AcDbPolyline
90
4
70
1
43
0.0
10
115.856505
20
92.03209200000002
10
102.21532400000008
20
88.882776999999805
10
105.36463900000027
20
75.241596000000058
10
119.00581999999993
20
78.390911000000216
0
LWPOLYLINE
5
154
100
AcDbEntity
8
0
100
AcDbPolyline
90
4
70
1
43
0.0
10
-30.748122999999996
20
83.933856000000006
10
-33.897438000000221
20
70.29267500000006
10
-20.256257000000058
20
67.143359999999774
10
-17.10694199999978
20
80.784540999999948
0
CIRCLE
5
155
100
AcDbEntity
8
0
100
AcDbCircle
10
-48.171959999999999
20
97.452060000000017
30
0
40
1.1500000000000021
210
0
220
0
230
1
0
LWPOLYLINE
5
156
100
AcDbEntity
8
0
100
AcDbPolyline
90
4
70
1
43
0.0
10
-43.527804000000003
20
108.59638000000001
10
-46.677119000000225
20
94.95519900000005
10
-33.035938000000058
20
91.805883999999779
10
-29.886622999999783
20
105.44706499999995
0
CIRCLE
5
157
100
AcDbEntity
8
0
100
AcDbCircle
10
-14.09196
20
84.962059999999994
30
0
40
1.1499999999999999
210
0
220
0
230
1
0
LWPOLYLINE
5
158
100
AcDbEntity
8
0
100
AcDbPolyline
90
4
70
1
43
0.0
10
-10.320104000000004
20
92.399909000000008
10
-13.469419000000224
20
78.758728000000062
10
0.17176199999994646
20
75.60941299999979
10
3.3210770000002245
20
89.25059399999995
0
ENDSEC
0
SECTION
2
OBJECTS
0
DICTIONARY
5
C
100
AcDbDictionary
3
ACAD_GROUP
350
D
3
ACAD_MLINESTYLE
350
17
0
DICTIONARY
5
D
100
AcDbDictionary
0
DICTIONARY
5
1A
330
C
100
AcDbDictionary
0
DICTIONARY
5
17
100
AcDbDictionary
0
ENDSEC
0
EOF
